<svg width="72" height="72" viewBox="0 0 72 72" fill="none" xmlns="http://www.w3.org/2000/svg">
<g clip-path="url(#clip0_6023_233)">
<path d="M5.7959 38.8662V24.5635M66.2059 24.5635V38.8662" stroke="#FEBE09" stroke-width="2" stroke-miterlimit="10" stroke-linecap="round" stroke-linejoin="round"/>
<path d="M1.42297 23.8937C0.661627 22.5783 1.12006 20.8762 2.43533 20.1147L34.48 1.61451C34.9184 1.35942 35.4607 1.23581 35.9987 1.23581C36.541 1.23581 37.079 1.35942 37.5175 1.61451L69.5621 20.1147C70.8816 20.8762 71.336 22.5783 70.5746 23.8937C69.8172 25.2132 68.1151 25.6676 66.7997 24.9062L35.9987 7.12364L5.20185 24.9062C3.88236 25.6676 2.18431 25.2132 1.42297 23.8937Z" stroke="#FEBE09" stroke-width="2" stroke-miterlimit="10" stroke-linecap="round" stroke-linejoin="round"/>
<path d="M33.7984 70.7642H1.70204C1.34711 70.7642 1.05615 70.4732 1.05615 70.1184V66.2597C1.05615 65.9049 1.34711 65.6139 1.70204 65.6139H70.2995C70.6543 65.6139 70.9452 65.9049 70.9452 66.2597V70.1184C70.9452 70.4732 70.6543 70.7642 70.2995 70.7642H38.6655" stroke="#FEBE09" stroke-width="2" stroke-miterlimit="10" stroke-linecap="round" stroke-linejoin="round"/>
<path d="M38.4901 38.8661H70.2995C70.6543 38.8661 70.9452 39.1571 70.9452 39.5119V43.3706C70.9452 43.7254 70.6543 44.0164 70.2995 44.0164H1.70204C1.3471 44.0164 1.05615 43.7254 1.05615 43.3706V39.5119C1.05615 39.1571 1.3471 38.8661 1.70204 38.8661H33.7984" stroke="#FEBE09" stroke-width="2" stroke-miterlimit="10" stroke-linecap="round" stroke-linejoin="round"/>
<path d="M4.96655 44.0163H20.1498V47.9905C20.1498 48.3334 19.8668 48.6165 19.5241 48.6165H5.59233C5.24963 48.6165 4.96655 48.3334 4.96655 47.9905V44.0163Z" stroke="#FEBE09" stroke-width="2" stroke-miterlimit="10" stroke-linecap="round" stroke-linejoin="round"/>
<path d="M4.96655 65.614H20.1498V61.6437C20.1498 61.297 19.8668 61.0139 19.5241 61.0139H5.59233C5.24963 61.0139 4.96655 61.297 4.96655 61.6437V65.614Z" stroke="#FEBE09" stroke-width="2" stroke-miterlimit="10" stroke-linecap="round" stroke-linejoin="round"/>
<path d="M7.9165 61.0137H17.2003V48.6165H7.9165V61.0137Z" stroke="#FEBE09" stroke-width="2" stroke-miterlimit="10" stroke-linecap="round" stroke-linejoin="round"/>
<path d="M28.405 44.0163H43.5922V47.9905C43.5922 48.3334 43.3092 48.6165 42.9625 48.6165H29.0349C28.6881 48.6165 28.405 48.3334 28.405 47.9905V44.0163Z" stroke="#FEBE09" stroke-width="2" stroke-miterlimit="10" stroke-linecap="round" stroke-linejoin="round"/>
<path d="M28.405 65.614H43.5922V61.6437C43.5922 61.297 43.3092 61.0139 42.9625 61.0139H29.0349C28.6881 61.0139 28.405 61.297 28.405 61.6437V65.614Z" stroke="#FEBE09" stroke-width="2" stroke-miterlimit="10" stroke-linecap="round" stroke-linejoin="round"/>
<path d="M31.3589 61.0137H40.6386V48.6165H31.3589V61.0137Z" stroke="#FEBE09" stroke-width="2" stroke-miterlimit="10" stroke-linecap="round" stroke-linejoin="round"/>
<path d="M51.8477 44.0163H67.0349V47.9905C67.0349 48.3334 66.7518 48.6165 66.4052 48.6165H52.4775C52.1307 48.6165 51.8477 48.3334 51.8477 47.9905V44.0163Z" stroke="#FEBE09" stroke-width="2" stroke-miterlimit="10" stroke-linecap="round" stroke-linejoin="round"/>
<path d="M51.8477 65.614H67.0349V61.6437C67.0349 61.297 66.7518 61.0139 66.4052 61.0139H52.4775C52.1307 61.0139 51.8477 61.297 51.8477 61.6437V65.614Z" stroke="#FEBE09" stroke-width="2" stroke-miterlimit="10" stroke-linecap="round" stroke-linejoin="round"/>
<path d="M54.8013 61.0137H64.081V48.6165H54.8013V61.0137Z" stroke="#FEBE09" stroke-width="2" stroke-miterlimit="10" stroke-linecap="round" stroke-linejoin="round"/>
<path d="M36.5 31C39.5259 31 42 28.526 42 25.5C42 22.4742 39.5259 20 36.5 20C33.4677 20 31 22.4742 31 25.5C31 28.526 33.4677 31 36.5 31Z" stroke="#FEBE09" stroke-width="2" stroke-miterlimit="10" stroke-linecap="round" stroke-linejoin="round"/>
</g>
<defs>
<clipPath id="clip0_6023_233">
<rect width="72" height="72" fill="white"/>
</clipPath>
</defs>
</svg>
