<svg width="32" height="32" viewBox="0 0 32 32" fill="none" xmlns="http://www.w3.org/2000/svg">
<g clip-path="url(#clip0_6023_338)">
<path d="M25.3336 0H6.76685C5.25472 0 3.927 1.24396 3.927 2.7164V30.1823C3.927 30.6751 4.06418 31.0859 4.28527 31.4033C4.54966 31.7827 4.97538 32.0002 5.43189 32C5.8635 32 6.32302 31.8079 6.74738 31.4454L15.0541 24.3926C15.3107 24.1734 15.6792 24.0479 16.0624 24.0479C16.4454 24.0479 16.8132 24.1734 17.0705 24.3932L25.3495 31.4443C25.7753 31.8079 26.2032 32.0002 26.634 32.0002C27.3626 32.0002 28.0728 31.4382 28.0728 30.1824V2.7164C28.0728 1.24396 26.8458 0 25.3336 0Z" fill="#FEBE09"/>
</g>
<defs>
<clipPath id="clip0_6023_338">
<rect width="32" height="32" fill="white"/>
</clipPath>
</defs>
</svg>
