<svg width="72" height="72" viewBox="0 0 72 72" fill="none" xmlns="http://www.w3.org/2000/svg">
<path d="M19.9554 21.9405C20.5168 22.5589 21.3266 22.9477 22.2257 22.9477H33.2583C34.9494 22.9477 36.3251 21.572 36.3251 19.8809C36.3251 18.1899 34.9494 16.8143 33.2583 16.8143H32.1334C31.7136 14.7745 29.9041 13.2361 27.7421 13.2361C27.4817 13.2361 27.2265 13.2589 26.9783 13.3018C26.2275 10.2613 23.4766 8 20.2074 8C16.3622 8 13.2339 11.1283 13.2339 14.9735C13.2337 18.7341 16.2265 21.8072 19.9554 21.9405ZM25.2178 17.7191C25.2178 16.3273 26.3501 15.195 27.742 15.195C29.1339 15.195 30.2661 16.3273 30.2661 17.7156L30.2644 17.7736C30.2618 17.9039 30.2851 18.0334 30.3332 18.1545C30.3812 18.2756 30.4529 18.386 30.5441 18.4791C30.6352 18.5721 30.7441 18.6461 30.8642 18.6966C30.9843 18.747 31.1133 18.773 31.2436 18.7731H33.2582C33.869 18.7731 34.366 19.27 34.366 19.8808C34.366 20.4916 33.869 20.9886 33.2582 20.9886H22.2255C21.6147 20.9886 21.1178 20.4916 21.1178 19.8808C21.1178 19.27 21.6147 18.7731 22.2255 18.7731H24.2401C24.3704 18.773 24.4994 18.747 24.6195 18.6966C24.7396 18.6461 24.8485 18.5721 24.9397 18.4791C25.0308 18.386 25.1025 18.2756 25.1506 18.1545C25.1986 18.0334 25.2219 17.9039 25.2193 17.7736L25.2178 17.7191ZM20.2072 9.9588C22.6644 9.9588 24.7131 11.7359 25.1391 14.072C24.2366 14.7181 23.582 15.6896 23.3506 16.8141H22.2255C20.5361 16.8141 19.1615 18.1873 19.1589 19.8762C16.8954 19.393 15.1924 17.3789 15.1924 14.9734C15.1926 12.2083 17.4422 9.9588 20.2072 9.9588ZM7.55603 31.4546H17.7889C19.3966 31.4546 20.7043 30.1467 20.7043 28.5392C20.7043 26.9317 19.3964 25.6238 17.7889 25.6238H16.8029C16.3854 23.7278 14.692 22.305 12.6725 22.305C10.653 22.305 8.95954 23.7278 8.54202 25.6237H7.55603C5.9484 25.6237 4.64062 26.9316 4.64062 28.5391C4.64062 30.1466 5.94854 31.4546 7.55603 31.4546ZM7.55603 27.5826H9.42459C9.55503 27.5826 9.68417 27.5565 9.8044 27.506C9.92464 27.4554 10.0336 27.3813 10.1248 27.288C10.216 27.1948 10.2877 27.0842 10.3356 26.9629C10.3835 26.8416 10.4067 26.7119 10.4038 26.5815L10.4022 26.5341C10.4022 25.2823 11.4206 24.2639 12.6724 24.2639C13.9241 24.2639 14.9425 25.2823 14.9425 26.5307L14.9411 26.5816C14.9381 26.712 14.9613 26.8417 15.0092 26.9631C15.0571 27.0844 15.1287 27.195 15.2199 27.2883C15.3112 27.3815 15.4201 27.4556 15.5404 27.5062C15.6606 27.5568 15.7898 27.5828 15.9203 27.5827H17.7888C18.3163 27.5827 18.7453 28.0119 18.7453 28.5392C18.7453 29.0666 18.3162 29.4957 17.7888 29.4957H7.55603C7.02856 29.4957 6.59955 29.0666 6.59955 28.5392C6.59955 28.0119 7.02869 27.5826 7.55603 27.5826ZM51.3457 45.076C51.4367 44.985 51.5089 44.8771 51.5581 44.7582C51.6074 44.6394 51.6328 44.5121 51.6328 44.3834C51.6328 44.2548 51.6074 44.1274 51.5582 44.0086C51.509 43.8898 51.4368 43.7818 51.3459 43.6909C51.2549 43.5999 51.147 43.5277 51.0282 43.4785C50.9093 43.4293 50.782 43.4039 50.6533 43.4039C50.5247 43.4039 50.3973 43.4293 50.2785 43.4785C50.1597 43.5277 50.0517 43.5999 49.9608 43.6909C49.5877 44.0638 49.0917 44.2694 48.5641 44.2694C48.0365 44.2694 47.5405 44.064 47.1675 43.6909C47.0766 43.5999 46.9686 43.5277 46.8498 43.4785C46.7309 43.4293 46.6036 43.4039 46.4749 43.4039C46.3463 43.4039 46.219 43.4293 46.1001 43.4785C45.9813 43.5277 45.8733 43.5999 45.7824 43.6909C45.6914 43.7818 45.6192 43.8897 45.57 44.0086C45.5208 44.1274 45.4954 44.2547 45.4954 44.3834C45.4954 44.512 45.5207 44.6394 45.5699 44.7582C45.6192 44.877 45.6913 44.985 45.7823 45.076C46.5252 45.819 47.5133 46.2282 48.5642 46.2282C49.6147 46.2282 50.6028 45.819 51.3457 45.076ZM46.1299 39.7727V38.0178C46.1299 37.4769 45.6915 37.0383 45.1504 37.0383C44.6094 37.0383 44.171 37.4769 44.171 38.0178V39.7727C44.171 40.3137 44.6094 40.7522 45.1504 40.7522C45.6915 40.7522 46.1299 40.3137 46.1299 39.7727ZM51.9776 40.7522C52.2373 40.7522 52.4865 40.649 52.6702 40.4653C52.8538 40.2816 52.957 40.0325 52.957 39.7727V38.0178C52.957 37.4769 52.5186 37.0383 51.9776 37.0383C51.4365 37.0383 50.9981 37.4769 50.9981 38.0178V39.7727C50.9981 40.0325 51.1013 40.2816 51.285 40.4653C51.4687 40.649 51.7178 40.7522 51.9776 40.7522ZM47.832 42.4896C47.9238 42.5932 48.0366 42.676 48.1628 42.7327C48.2891 42.7894 48.4259 42.8186 48.5643 42.8183C48.8041 42.8186 49.0356 42.7305 49.2146 42.5709C49.3107 42.4854 49.3891 42.3819 49.4452 42.2662C49.5013 42.1504 49.5341 42.0248 49.5417 41.8964C49.5492 41.768 49.5314 41.6393 49.4892 41.5178C49.4471 41.3963 49.3814 41.2843 49.2959 41.1881L48.8694 40.7085L49.3287 40.1344C49.491 39.9315 49.5661 39.6725 49.5374 39.4143C49.5087 39.1561 49.3786 38.9199 49.1758 38.7576C48.9729 38.5953 48.7139 38.5203 48.4557 38.549C48.1976 38.5776 47.9613 38.7077 47.799 38.9106L46.8236 40.1297C46.6792 40.3102 46.6033 40.5359 46.6093 40.7669C46.6153 40.998 46.7029 41.2195 46.8564 41.3923L47.832 42.4896Z" fill="#FEBE09"/>
<path d="M65.8851 55.6334C66.1449 55.6334 66.394 55.5302 66.5777 55.3465C66.7614 55.1629 66.8646 54.9137 66.8646 54.654V51.6897C66.8646 50.1008 65.741 48.7697 64.2466 48.4482V9.94406C64.2466 9.68429 64.1434 9.43516 63.9597 9.25148C63.776 9.06779 63.5269 8.9646 63.2671 8.9646C62.7783 8.9646 62.3745 9.32295 62.3008 9.79101L59.5509 10.4633C59.4259 10.4939 59.3082 10.5487 59.2045 10.6248C59.1007 10.7008 59.013 10.7965 58.9462 10.9065C58.8795 11.0164 58.8351 11.1385 58.8155 11.2656C58.7959 11.3927 58.8015 11.5225 58.8321 11.6474C58.8626 11.7724 58.9174 11.8901 58.9935 11.9938C59.0695 12.0976 59.1652 12.1853 59.2752 12.2521C59.3851 12.3188 59.5071 12.3633 59.6343 12.3829C59.7614 12.4024 59.8911 12.3968 60.0161 12.3662L62.2876 11.8109V20.5468L44.4201 16.1787L55.556 13.4564C55.6809 13.4259 55.7986 13.371 55.9024 13.295C56.0061 13.219 56.0939 13.1232 56.1606 13.0133C56.2274 12.9033 56.2718 12.7813 56.2914 12.6542C56.311 12.5271 56.3054 12.3973 56.2748 12.2724C56.2443 12.1474 56.1894 12.0297 56.1134 11.926C56.0374 11.8222 55.9416 11.7345 55.8317 11.6677C55.7217 11.601 55.5997 11.5565 55.4726 11.5369C55.3455 11.5173 55.2157 11.523 55.0908 11.5535L40.0631 15.2272C39.8501 15.2793 39.6607 15.4014 39.5253 15.5739C39.3899 15.7464 39.3163 15.9594 39.3163 16.1787C39.3163 16.398 39.3899 16.6109 39.5253 16.7834C39.6607 16.956 39.8501 17.0781 40.0631 17.1302L62.2879 22.5632V48.3774C61.1051 48.4291 60.0819 49.1038 59.5372 50.0803C59.0489 49.9484 58.5455 49.8815 58.0398 49.8814H53.9895L52.8298 49.0078C54.5654 48.0189 55.8701 46.358 56.3868 44.3816H57.4826C59.4908 44.3816 61.1247 42.7477 61.1247 40.7396V39.8655C61.1247 38.6171 60.4931 37.5137 59.533 36.8572V34.2421C59.533 28.9715 55.245 24.6835 49.9745 24.6835H42.3435C39.7246 24.6835 37.5939 26.8142 37.5939 29.433V36.8572C36.6338 37.5137 36.0022 38.6171 36.0022 39.8655V40.7396C36.0022 42.7477 37.6361 44.3816 39.6444 44.3816H40.7402C41.2571 46.3579 42.5616 48.0189 44.2972 49.0077L43.1376 49.8812H39.3406L31.5227 37.2456C31.3739 37.0032 31.1652 36.8031 30.9168 36.6646C30.6683 36.5261 30.3884 36.4539 30.1039 36.4549H30.1038C29.8193 36.4538 29.5394 36.526 29.2909 36.6645C29.0424 36.803 28.8338 37.0031 28.685 37.2455L20.2017 50.9573L16.2655 44.5953C15.9593 44.1 15.4288 43.8045 14.8466 43.8045C14.2644 43.8045 13.7339 44.1 13.4278 44.5951L0.146422 66.062C0.0546767 66.2103 0.00421538 66.3805 0.000252821 66.5549C-0.00370973 66.7293 0.0389702 66.9016 0.123882 67.054C0.208794 67.2064 0.332857 67.3333 0.483251 67.4217C0.633645 67.5101 0.804914 67.5567 0.979358 67.5568H61.0736C61.6822 68.233 62.5634 68.6591 63.5426 68.6591C65.3744 68.6591 66.8647 67.1689 66.8647 65.3372V59.2248C66.8647 58.6839 66.4263 58.2453 65.8853 58.2453C65.3442 58.2453 64.9058 58.6839 64.9058 59.2248V65.3372C64.9058 66.0887 64.2942 66.7002 63.5426 66.7002C62.7911 66.7002 62.1796 66.0887 62.1796 65.3372V56.0253C62.1796 55.8591 62.1373 55.6957 62.0567 55.5503C61.9761 55.405 61.8599 55.2825 61.7189 55.1945C61.3172 54.9436 61.0773 54.5136 61.0773 54.0438V51.6896C61.0773 50.9413 61.6861 50.3324 62.4344 50.3324H63.5487C64.2968 50.3324 64.9058 50.9413 64.9058 51.6896V54.654C64.9058 54.7826 64.9311 54.91 64.9803 55.0288C65.0295 55.1476 65.1016 55.2556 65.1926 55.3466C65.2835 55.4375 65.3915 55.5097 65.5103 55.5589C65.6291 55.6081 65.7565 55.6334 65.8851 55.6334ZM30.1038 38.6755L34.2483 45.3743L32.2135 48.6633L29.9152 44.9485C29.8274 44.8066 29.7048 44.6895 29.559 44.6083C29.4132 44.5271 29.2491 44.4845 29.0823 44.4845C28.9154 44.4845 28.7513 44.5271 28.6055 44.6083C28.4597 44.6895 28.3371 44.8066 28.2493 44.9485L27.1151 46.7817L26.1018 45.1439L30.1038 38.6755ZM14.8466 46.0251L18.7787 52.3806L17.7403 54.059L16.6061 52.2257C16.5183 52.0838 16.3957 51.9667 16.2499 51.8855C16.1041 51.8043 15.94 51.7617 15.7732 51.7617C15.6063 51.7617 15.4422 51.8043 15.2964 51.8855C15.1507 51.9667 15.0281 52.0838 14.9402 52.2257L12.6419 55.9404L10.677 52.7645L14.8466 46.0251ZM33.3006 55.6674V65.5978H29.2596L26.85 61.7032C26.7112 61.4869 26.4929 61.3338 26.2423 61.2769C25.9916 61.2201 25.7287 61.264 25.5101 61.3992C25.2916 61.5344 25.1349 61.7501 25.0739 61.9998C25.0129 62.2495 25.0525 62.5131 25.1841 62.7339L26.956 65.5978H2.73704L9.52511 54.6261L11.223 57.3705C11.5292 57.8654 12.0597 58.161 12.6418 58.161C13.2238 58.161 13.7543 57.8654 14.0605 57.3703L15.7729 54.6026L16.3213 55.489C16.4701 55.7314 16.6788 55.9314 16.9273 56.0698C17.1757 56.2083 17.4556 56.2805 17.7401 56.2795C18.3223 56.2795 18.8526 55.9839 19.159 55.4888L19.9303 54.2422L22.7791 58.8467C22.8466 58.9564 22.9351 59.0516 23.0395 59.127C23.1439 59.2024 23.2622 59.2565 23.3875 59.2861C23.5128 59.3158 23.6428 59.3204 23.7699 59.2998C23.897 59.2791 24.0188 59.2336 24.1283 59.1659C24.2378 59.0981 24.3329 59.0094 24.4081 58.9049C24.4833 58.8004 24.5372 58.682 24.5666 58.5566C24.596 58.4313 24.6004 58.3013 24.5795 58.1742C24.5586 58.0472 24.5129 57.9254 24.445 57.8161L21.3532 52.8188L24.95 47.0054L25.6961 48.2114V48.2116C25.8449 48.454 26.0536 48.654 26.302 48.7924C26.5505 48.9309 26.8304 49.0031 27.1148 49.0021C27.697 49.0021 28.2274 48.7065 28.5338 48.2114L29.082 47.3252L30.7945 50.0931C31.1007 50.588 31.6312 50.8835 32.2133 50.8835C32.7953 50.8835 33.3258 50.588 33.6322 50.0929L35.3999 47.2358L37.2272 50.1893C34.9466 50.9658 33.3006 53.1273 33.3006 55.6674ZM39.3161 65.5978H35.2595V55.6674C35.2595 53.557 36.9763 51.8402 39.0868 51.8402H39.3161V65.5978ZM59.1655 39.8655V40.7396C59.1655 41.6676 58.4105 42.4227 57.4824 42.4227H56.6302V38.1824H57.4824C58.4105 38.1824 59.1655 38.9374 59.1655 39.8655ZM40.4961 42.4227H39.644C38.716 42.4227 37.9608 41.6676 37.9608 40.7396V39.8655C37.9608 38.9375 38.7159 38.1824 39.644 38.1824H40.4961V42.4227ZM40.5307 36.2235H39.6439C39.6132 36.2235 39.5829 36.225 39.5525 36.2258V29.4332C39.5525 27.8945 40.8043 26.6426 42.3431 26.6426H49.9741C54.1646 26.6426 57.5737 30.0518 57.5737 34.2422V36.2259C57.5432 36.2252 57.5129 36.2236 57.4824 36.2236H56.5955C56.3352 34.1809 54.5872 32.5963 52.475 32.5963H44.6511C42.5389 32.596 40.791 34.1807 40.5307 36.2235ZM42.4551 42.4869V36.7512C42.4551 35.5402 43.4403 34.555 44.6511 34.555H52.475C53.686 34.555 54.6712 35.5402 54.6712 36.7512V42.4869C54.6712 45.5429 52.185 48.0291 49.129 48.0291H47.997C44.9412 48.029 42.4551 45.5429 42.4551 42.4869ZM52.682 51.3491V56.1823L50.2244 54.4782L51.5974 53.4253C51.7166 53.3339 51.8132 53.2162 51.8797 53.0815C51.9462 52.9467 51.9808 52.7984 51.9808 52.6481V50.821L52.682 51.3491ZM50.0219 49.9329V52.1649L48.5631 53.2836L47.1042 52.1649V49.9329C47.3973 49.9679 47.6948 49.9879 47.9971 49.9879H49.1291C49.4314 49.9879 49.7289 49.9679 50.0219 49.9329ZM45.5287 53.4254L46.9017 54.4783L44.4442 56.1824V51.3491L45.1453 50.821V52.6481C45.1453 52.7984 45.1799 52.9467 45.2464 53.0815C45.3129 53.2163 45.4095 53.334 45.5287 53.4254ZM55.8514 65.5978H41.275V61.6317H55.8514V65.5978ZM55.8514 59.6727H41.275V51.8402H42.4854V58.0536C42.4854 58.2324 42.5344 58.4077 42.627 58.5606C42.7196 58.7135 42.8523 58.8382 43.0106 58.9211C43.169 59.004 43.347 59.042 43.5255 59.031C43.7039 59.02 43.8759 58.9604 44.0229 58.8586L48.5633 55.7102L53.1035 58.8586C53.2504 58.9606 53.4224 59.0204 53.6009 59.0315C53.7794 59.0426 53.9575 59.0046 54.1159 58.9215C54.2743 58.8386 54.407 58.7139 54.4995 58.5609C54.5921 58.4079 54.641 58.2325 54.641 58.0537V51.8403H55.8515V59.6727H55.8514ZM57.8103 65.5978V51.8402H58.0395C58.4142 51.8402 58.7761 51.8949 59.1183 51.9958V54.0439C59.1183 54.9998 59.5223 55.8877 60.2207 56.511V65.3372C60.2207 65.4249 60.2251 65.5118 60.2319 65.5978H57.8103Z" fill="#FEBE09"/>
</svg>
