<svg width="72" height="72" viewBox="0 0 72 72" fill="none" xmlns="http://www.w3.org/2000/svg">
<g clip-path="url(#clip0_7221_546)">
<path d="M70.3371 31.2304L66.4447 30.8649C65.9878 29.2933 65.3665 27.7949 64.5442 26.3695L67.0112 23.3908C67.6142 22.6598 67.5594 21.6182 66.9015 20.9421L62.0406 16.0263C61.3827 15.3502 60.3046 15.2954 59.5736 15.8984L56.5949 18.3654C55.1878 17.5613 53.6711 16.9218 52.1178 16.4649L51.7523 12.5908C51.6609 11.6588 50.8751 10.9461 49.9249 10.9461H43.8579V5.46389C43.8579 4.45881 43.0355 3.63647 42.0305 3.63647C41.0254 3.63647 40.203 4.45881 40.203 5.46389V14.6009H33.2954C30.3533 14.6009 27.5574 15.9898 25.7665 18.3289L18.2376 28.2517L5.5736 31.7055C2.28426 32.6009 0.0182741 35.5796 0 38.9969V43.8395C0.0182741 48.006 3.41726 51.3685 7.58376 51.3685H8.57056C9.94112 56.4669 15.1858 59.4639 20.2843 58.0933C23.5553 57.1979 26.132 54.6395 27.0091 51.3685H40.203V66.536C40.203 67.541 41.0254 68.3634 42.0305 68.3634C43.0355 68.3634 43.8579 67.541 43.8579 66.536V62.1502H49.9249C50.8751 62.1502 51.6609 61.4375 51.7523 60.4872L52.1178 56.5949C53.6893 56.138 55.1878 55.5167 56.6132 54.7126L59.5919 57.1796C60.3228 57.7827 61.3827 57.7278 62.0406 57.07L66.9563 52.1542C67.6142 51.4964 67.669 50.4182 67.066 49.6872L64.599 46.7086C65.403 45.2832 66.0426 43.7847 66.4995 42.2314L70.3371 41.8659C71.269 41.7745 72 40.9888 72 40.0385V33.0395C72 32.1075 71.269 31.3218 70.3371 31.2304ZM17.7807 54.7857C14.5279 54.7857 11.8782 52.136 11.8782 48.8832C11.8782 45.6304 14.5279 42.9806 17.7807 42.9806C21.0335 42.9806 23.6833 45.6304 23.6833 48.8832C23.6833 52.136 21.0518 54.7857 17.7807 54.7857ZM40.203 47.6954H27.265C26.6254 42.4507 21.8558 38.741 16.6294 39.3624C12.2802 39.8923 8.84467 43.3278 8.29645 47.6954H7.56548C5.40914 47.7136 3.65482 45.9776 3.63655 43.8212V38.9969C3.65482 37.2426 4.82437 35.7075 6.52386 35.2324L19.7909 31.6141C20.1746 31.5045 20.5218 31.2852 20.7594 30.9563L28.6904 20.5583C29.7868 19.1146 31.5046 18.274 33.3137 18.274H40.203V47.6954ZM43.8579 28.7817C48.134 27.3563 52.7574 29.6771 54.1827 33.9715C55.6081 38.2659 53.2873 42.871 48.9929 44.2964C47.33 44.8446 45.5208 44.8446 43.8579 44.2964V28.7817ZM68.3452 38.3573L64.8731 38.6862C64.0873 38.7593 63.4294 39.3441 63.265 40.1116C62.8081 42.1583 61.9858 44.0954 60.8345 45.8497C60.3959 46.5258 60.4508 47.3847 60.9624 48.006L63.1919 50.7106L60.6335 53.269L57.9289 51.0578C57.3076 50.5461 56.4305 50.4913 55.7543 50.9482C54.0183 52.0994 52.0812 52.9218 50.0345 53.3603C49.2487 53.5248 48.6822 54.1827 48.6091 54.9685L48.2802 58.4771H43.8579V48.0791C50.2355 49.5045 56.5584 45.4842 57.9655 39.1065C59.3909 32.7289 55.3706 26.406 48.9929 24.9806C47.2934 24.5969 45.5391 24.5969 43.8579 24.9806V14.6192H48.2619L48.6091 18.1096C48.6822 18.8954 49.267 19.5532 50.0345 19.7177C52.0812 20.1745 54.0183 20.9969 55.7726 22.1299C56.4487 22.5685 57.3076 22.5136 57.9289 22.002L60.6152 19.7725L63.1371 22.3126L60.8893 25.0355C60.3777 25.6568 60.3228 26.5339 60.7797 27.2101C61.931 28.9461 62.7533 30.8832 63.1919 32.9299C63.3746 33.7157 64.0142 34.2822 64.8183 34.3553L68.3452 34.7025V38.3573Z" fill="#FEBE09"/>
</g>
<defs>
<clipPath id="clip0_7221_546">
<rect width="72" height="72" fill="white"/>
</clipPath>
</defs>
</svg>
