<svg width="72" height="72" viewBox="0 0 72 72" fill="none" xmlns="http://www.w3.org/2000/svg">
<path d="M68.4176 43.7802V40.1367C68.4125 36.6494 67.0992 33.2909 64.7372 30.7252C62.3753 28.1595 59.1367 26.5734 55.6618 26.2804V20.1344C55.6618 19.1115 55.3769 18.1088 54.8391 17.2386C54.3013 16.3684 53.5318 15.6652 52.6169 15.2077C51.702 14.7503 50.6777 14.5566 49.6589 14.6485C48.6401 14.7403 47.667 15.1141 46.8486 15.7279L41.4715 19.761C40.8394 19.4349 40.1384 19.2647 39.4271 19.2647C38.7158 19.2647 38.0148 19.4349 37.3827 19.761L32.0055 15.7267C31.187 15.1134 30.214 14.74 29.1954 14.6484C28.1767 14.5567 27.1527 14.7505 26.2379 15.2079C25.3231 15.6653 24.5537 16.3683 24.0158 17.2382C23.4779 18.1081 23.1928 19.1105 23.1924 20.1333V27.6708C23.1975 29.0033 23.6895 30.288 24.5758 31.283C23.2152 32.1635 21.9235 33.1462 20.712 34.2226L19.172 35.5922L5.50356 38.5132C4.6031 38.7095 3.79664 39.2073 3.21759 39.9242C2.63854 40.6412 2.32161 41.5344 2.31924 42.4559V45.9348H1.15962C0.85207 45.9348 0.557116 46.057 0.339645 46.2744C0.122174 46.4919 0 46.7869 0 47.0944V51.7329C0 52.0405 0.122174 52.3354 0.339645 52.5529C0.557116 52.7704 0.85207 52.8925 1.15962 52.8925H9.38133C9.65387 54.5131 10.4919 55.9846 11.7465 57.0459C13.0012 58.1072 14.5914 58.6895 16.2347 58.6895C17.878 58.6895 19.4682 58.1072 20.7228 57.0459C21.9775 55.9846 22.8155 54.5131 23.088 52.8925H49.968C50.2406 54.5131 51.0786 55.9846 52.3332 57.0459C53.5879 58.1072 55.1781 58.6895 56.8214 58.6895C58.4647 58.6895 60.0548 58.1072 61.3095 57.0459C62.5642 55.9846 63.4022 54.5131 63.6747 52.8925H67.258C68.3855 52.8939 69.4747 52.4838 70.3213 51.739C71.1679 50.9943 71.7135 49.9662 71.8559 48.8477C71.9982 47.7292 71.7275 46.5972 71.0944 45.6642C70.4613 44.7312 69.5095 44.0613 68.4176 43.7802ZM63.3663 43.6156C62.153 42.633 60.7342 41.936 59.215 41.5762C57.6958 41.2165 56.1151 41.2031 54.59 41.5372C53.0649 41.8713 51.6346 42.5443 50.4049 43.5063C49.1752 44.4683 48.1778 45.6946 47.4864 47.0944H44.0656V37.8175H65.8664C66.0215 38.5808 66.0993 39.3578 66.0983 40.1367V43.6156H63.3663ZM26.4022 49.4137H34.7886V50.5733H26.6028C26.558 50.1833 26.491 49.7961 26.4022 49.4137ZM28.7006 33.179C29.892 33.1765 31.0509 32.7902 32.0055 32.0773L34.7886 29.99V35.4982H22.7912C23.9875 34.4849 25.2633 33.5693 26.6063 32.7604C27.2702 33.0361 27.9818 33.1783 28.7006 33.179ZM37.1078 28.2506L37.3827 28.0442C38.0148 28.3703 38.7158 28.5405 39.4271 28.5405C40.1384 28.5405 40.8394 28.3703 41.4715 28.0442L41.7463 28.2506V50.5733H37.1078V28.2506ZM53.3425 35.4982H44.0656V29.99L46.8486 32.0773C47.8035 32.7898 48.9622 33.1761 50.1536 33.179C51.2987 33.1769 52.4142 32.815 53.3425 32.1446V35.4982ZM44.0656 49.4137H46.6538C46.565 49.7961 46.498 50.1833 46.4532 50.5733H44.0656V49.4137ZM65.1231 35.4982H55.6618V28.5996C57.7084 28.8089 59.6627 29.5578 61.325 30.7699C62.9874 31.9819 64.298 33.6136 65.1231 35.4982ZM48.2402 17.5821C48.7139 17.2263 49.2773 17.0095 49.8673 16.9561C50.4573 16.9027 51.0505 17.0148 51.5803 17.2797C52.1102 17.5446 52.5558 17.952 52.867 18.456C53.1783 18.96 53.3429 19.5409 53.3425 20.1333V27.6708C53.3425 28.263 53.1776 28.8435 52.8662 29.3473C52.5549 29.8511 52.1094 30.2582 51.5797 30.5231C51.05 30.7879 50.457 30.9 49.8672 30.8469C49.2773 30.7937 48.714 30.5773 48.2402 30.222L43.2712 26.4949C43.4759 26.1829 43.6421 25.8472 43.7664 25.4953L48.2727 27.2986L49.1354 25.144L46.0276 23.902L49.1354 22.6601L48.2727 20.5055L43.7664 22.3087C43.6421 21.9568 43.4759 21.6212 43.2712 21.3091L48.2402 17.5821ZM41.7463 23.902C41.7463 24.3607 41.6103 24.8091 41.3555 25.1905C41.1006 25.5719 40.7384 25.8692 40.3146 26.0447C39.8908 26.2203 39.4245 26.2662 38.9746 26.1767C38.5247 26.0872 38.1115 25.8663 37.7871 25.542C37.4628 25.2176 37.2419 24.8044 37.1524 24.3545C37.0629 23.9046 37.1088 23.4383 37.2844 23.0145C37.4599 22.5907 37.7572 22.2285 38.1386 21.9736C38.52 21.7188 38.9684 21.5828 39.4271 21.5828C40.0422 21.5828 40.6321 21.8271 41.067 22.2621C41.502 22.697 41.7463 23.2869 41.7463 23.902ZM25.5116 20.1333C25.5116 19.541 25.6766 18.9605 25.9879 18.4567C26.2993 17.9529 26.7447 17.5458 27.2744 17.281C27.8042 17.0161 28.3971 16.904 28.987 16.9572C29.5768 17.0104 30.1402 17.2268 30.614 17.5821L35.5829 21.3091C35.3783 21.6212 35.212 21.9568 35.0878 22.3087L30.5815 20.5055L29.7187 22.6601L32.8265 23.902L29.7187 25.144L30.5815 27.2986L35.0878 25.4953C35.2118 25.8473 35.3781 26.183 35.5829 26.4949L30.614 30.222C30.1403 30.5777 29.5769 30.7945 28.9869 30.8479C28.3969 30.9013 27.8037 30.7893 27.2738 30.5244C26.7439 30.2594 26.2984 29.8521 25.9871 29.348C25.6759 28.844 25.5112 28.2632 25.5116 27.6708V20.1333ZM19.8353 37.8175H34.7886V47.0944H25.5696C24.854 45.6437 23.8097 44.38 22.5199 43.4037C21.2301 42.4274 19.7303 41.7655 18.1397 41.4706C16.5492 41.1758 14.9118 41.256 13.3577 41.7051C11.8037 42.1542 10.3758 42.9596 9.18767 44.0574C9.24637 43.9175 9.27671 43.7673 9.27696 43.6156V40.0799L19.8353 37.8175ZM5.98944 40.7849L6.95772 40.5774V42.4559H4.63848C4.64004 42.0653 4.77473 41.6868 5.02033 41.3831C5.26594 41.0793 5.60778 40.8683 5.98944 40.7849ZM4.63848 44.7752H8.11734C8.26907 44.7749 8.41924 44.7446 8.55915 44.6859C8.19575 45.0762 7.86274 45.4937 7.56304 45.9348H4.63848V44.7752ZM2.31924 48.254H6.4069C6.13758 49.0036 5.95623 49.7819 5.86652 50.5733H2.31924V48.254ZM16.2347 56.3714C15.3173 56.3714 14.4205 56.0993 13.6577 55.5897C12.8949 55.08 12.3004 54.3555 11.9493 53.508C11.5982 52.6604 11.5063 51.7278 11.6853 50.828C11.8643 49.9282 12.3061 49.1017 12.9548 48.453C13.6035 47.8043 14.43 47.3625 15.3298 47.1835C16.2295 47.0046 17.1622 47.0964 18.0097 47.4475C18.8573 47.7986 19.5818 48.3931 20.0914 49.1559C20.6011 49.9187 20.8732 50.8155 20.8732 51.7329C20.8732 52.9631 20.3845 54.1429 19.5146 55.0128C18.6447 55.8827 17.4649 56.3714 16.2347 56.3714ZM16.2347 44.7752C14.592 44.7782 13.0033 45.3618 11.7492 46.4228C10.4952 47.4837 9.65647 48.9538 9.38133 50.5733H8.21011C8.48738 48.6427 9.45137 46.8767 10.9253 45.5994C12.3992 44.322 14.2843 43.6188 16.2347 43.6188C18.1851 43.6188 20.0701 44.322 21.5441 45.5994C23.018 46.8767 23.982 48.6427 24.2592 50.5733H23.088C22.8129 48.9538 21.9742 47.4837 20.7201 46.4228C19.4661 45.3618 17.8773 44.7782 16.2347 44.7752ZM56.8214 56.3714C55.904 56.3714 55.0072 56.0993 54.2444 55.5897C53.4816 55.08 52.8871 54.3555 52.536 53.508C52.1849 52.6604 52.093 51.7278 52.272 50.828C52.451 49.9282 52.8928 49.1017 53.5415 48.453C54.1902 47.8043 55.0167 47.3625 55.9165 47.1835C56.8162 47.0046 57.7489 47.0964 58.5964 47.4475C59.444 47.7986 60.1684 48.3931 60.6781 49.1559C61.1878 49.9187 61.4599 50.8155 61.4599 51.7329C61.4599 52.9631 60.9712 54.1429 60.1013 55.0128C59.2314 55.8827 58.0516 56.3714 56.8214 56.3714ZM56.8214 44.7752C55.1787 44.7782 53.59 45.3618 52.3359 46.4228C51.0819 47.4837 50.2432 48.9538 49.968 50.5733H48.7968C49.0741 48.6427 50.0381 46.8767 51.512 45.5994C52.9859 44.322 54.871 43.6188 56.8214 43.6188C58.7718 43.6188 60.6568 44.322 62.1308 45.5994C63.6047 46.8767 64.5687 48.6427 64.8459 50.5733H63.6747C63.3996 48.9538 62.5609 47.4837 61.3068 46.4228C60.0528 45.3618 58.464 44.7782 56.8214 44.7752ZM67.258 50.5733H67.1895C67.0064 48.9129 66.4243 47.3215 65.493 45.9348H67.258C67.8731 45.9348 68.463 46.1791 68.8979 46.6141C69.3328 47.049 69.5772 47.6389 69.5772 48.254C69.5772 48.8691 69.3328 49.4591 68.8979 49.894C68.463 50.3289 67.8731 50.5733 67.258 50.5733Z" fill="#FEBE09"/>
<path d="M16.2372 54.0521C17.5181 54.0521 18.5564 53.0137 18.5564 51.7328C18.5564 50.4519 17.5181 49.4136 16.2372 49.4136C14.9563 49.4136 13.918 50.4519 13.918 51.7328C13.918 53.0137 14.9563 54.0521 16.2372 54.0521Z" fill="#FEBE09"/>
<path d="M56.8192 54.0521C58.1001 54.0521 59.1385 53.0137 59.1385 51.7328C59.1385 50.4519 58.1001 49.4136 56.8192 49.4136C55.5384 49.4136 54.5 50.4519 54.5 51.7328C54.5 53.0137 55.5384 54.0521 56.8192 54.0521Z" fill="#FEBE09"/>
</svg>
