<svg width="72" height="72" viewBox="0 0 72 72" fill="none" xmlns="http://www.w3.org/2000/svg">
<path d="M66.8006 31.798V26.1C66.8006 25.2248 66.4529 24.3854 65.834 23.7666C65.2152 23.1477 64.3758 22.8 63.5006 22.8H61.9826L58.4956 15.826C58.2212 15.2764 57.7989 14.8143 57.2761 14.4917C56.7533 14.1691 56.1509 13.9988 55.5366 14H38.4646C37.8503 13.9988 37.2479 14.1691 36.7251 14.4917C36.2023 14.8143 35.78 15.2764 35.5056 15.826L32.0186 22.8H26.1006C25.2254 22.8 24.386 23.1477 23.7671 23.7666C23.1483 24.3854 22.8006 25.2248 22.8006 26.1V31.798C22.1587 32.025 21.6027 32.4449 21.2088 33.0002C20.815 33.5556 20.6025 34.2192 20.6006 34.9C20.6006 35.7752 20.9483 36.6146 21.5671 37.2335C22.186 37.8523 23.0254 38.2 23.9006 38.2H27.4316C27.7917 39.4656 28.5546 40.5793 29.6047 41.3722C30.6548 42.1652 31.9347 42.5942 33.2506 42.5942C34.5664 42.5942 35.8464 42.1652 36.8965 41.3722C37.9465 40.5793 38.7095 39.4656 39.0696 38.2H51.6316C51.9917 39.4656 52.7546 40.5793 53.8047 41.3722C54.8548 42.1652 56.1348 42.5942 57.4506 42.5942C58.7664 42.5942 60.0464 42.1652 61.0965 41.3722C62.1465 40.5793 62.9095 39.4656 63.2696 38.2H65.7006C66.5758 38.2 67.4152 37.8523 68.034 37.2335C68.6529 36.6146 69.0006 35.7752 69.0006 34.9C68.9987 34.2192 68.7862 33.5556 68.3924 33.0002C67.9985 32.4449 67.4425 32.025 66.8006 31.798ZM64.6006 26.1V31.6H60.9156C59.902 30.8841 58.6915 30.4997 57.4506 30.4997C56.2097 30.4997 54.9992 30.8841 53.9856 31.6H48.1006V28.3C48.1006 28.0083 47.9847 27.7285 47.7784 27.5222C47.5721 27.3159 47.2923 27.2 47.0006 27.2C46.7088 27.2 46.4291 27.3159 46.2228 27.5222C46.0165 27.7285 45.9006 28.0083 45.9006 28.3V31.6H36.7156C35.702 30.8841 34.4915 30.4997 33.2506 30.4997C32.0097 30.4997 30.7992 30.8841 29.7856 31.6H25.0006V29.4H27.2006C28.0758 29.4 28.9152 29.0523 29.534 28.4335C30.1529 27.8146 30.5006 26.9752 30.5006 26.1V25H63.5006C63.7923 25 64.0721 25.1159 64.2784 25.3222C64.4847 25.5285 64.6006 25.8083 64.6006 26.1ZM38.6296 33.8H52.0716C51.7016 34.4805 51.4733 35.2289 51.4006 36H39.3006C39.2279 35.2289 38.9996 34.4805 38.6296 33.8ZM56.5266 16.805L59.5186 22.8H48.1006V16.2H55.5366C55.7416 16.1986 55.9429 16.2545 56.1178 16.3614C56.2928 16.4683 56.4343 16.6219 56.5266 16.805ZM37.4746 16.805C37.5668 16.6219 37.7084 16.4683 37.8833 16.3614C38.0583 16.2545 38.2596 16.1986 38.4646 16.2H45.9006V22.8H34.4826L37.4746 16.805ZM26.1006 25H28.3006V26.1C28.3006 26.3917 28.1847 26.6715 27.9784 26.8778C27.7721 27.0841 27.4923 27.2 27.2006 27.2H25.0006V26.1C25.0006 25.8083 25.1165 25.5285 25.3228 25.3222C25.5291 25.1159 25.8088 25 26.1006 25ZM22.8006 34.9C22.8026 34.7537 22.8338 34.6092 22.8924 34.4751C22.9509 34.341 23.0357 34.22 23.1416 34.119C23.2391 34.0162 23.3569 33.9347 23.4876 33.8798C23.6182 33.8249 23.7589 33.7977 23.9006 33.8H27.8716C27.5016 34.4805 27.2733 35.2289 27.2006 36H23.9006C23.6088 36 23.3291 35.8841 23.1228 35.6778C22.9165 35.4715 22.8006 35.1917 22.8006 34.9ZM33.2506 40.4C32.2295 40.4 31.2502 39.9944 30.5282 39.2724C29.8062 38.5504 29.4006 37.5711 29.4006 36.55C29.4006 35.5289 29.8062 34.5497 30.5282 33.8276C31.2502 33.1056 32.2295 32.7 33.2506 32.7C34.2717 32.7 35.2509 33.1056 35.9729 33.8276C36.695 34.5497 37.1006 35.5289 37.1006 36.55C37.1006 37.5711 36.695 38.5504 35.9729 39.2724C35.2509 39.9944 34.2717 40.4 33.2506 40.4ZM57.4506 40.4C56.4295 40.4 55.4502 39.9944 54.7282 39.2724C54.0062 38.5504 53.6006 37.5711 53.6006 36.55C53.6006 35.5289 54.0062 34.5497 54.7282 33.8276C55.4502 33.1056 56.4295 32.7 57.4506 32.7C58.4717 32.7 59.4509 33.1056 60.1729 33.8276C60.895 34.5497 61.3006 35.5289 61.3006 36.55C61.3006 37.5711 60.895 38.5504 60.1729 39.2724C59.4509 39.9944 58.4717 40.4 57.4506 40.4ZM66.4596 35.681C66.3621 35.7839 66.2443 35.8653 66.1136 35.9202C65.9829 35.9751 65.8423 36.0023 65.7006 36H63.5006C63.4381 35.2312 63.2211 34.4829 62.8626 33.8H65.7006C65.9923 33.8 66.2721 33.9159 66.4784 34.1222C66.6847 34.3285 66.8006 34.6083 66.8006 34.9C66.7986 35.0463 66.7673 35.1908 66.7088 35.3249C66.6502 35.459 66.5655 35.5801 66.4596 35.681Z" fill="#FEBE09"/>
<path d="M39.3 29.4H41.5C41.7917 29.4 42.0715 29.2841 42.2778 29.0778C42.4841 28.8715 42.6 28.5917 42.6 28.3C42.6 28.0083 42.4841 27.7285 42.2778 27.5222C42.0715 27.3159 41.7917 27.2 41.5 27.2H39.3C39.0083 27.2 38.7285 27.3159 38.5222 27.5222C38.3159 27.7285 38.2 28.0083 38.2 28.3C38.2 28.5917 38.3159 28.8715 38.5222 29.0778C38.7285 29.2841 39.0083 29.4 39.3 29.4ZM51.4 29.4H53.6C53.8917 29.4 54.1715 29.2841 54.3778 29.0778C54.5841 28.8715 54.7 28.5917 54.7 28.3C54.7 28.0083 54.5841 27.7285 54.3778 27.5222C54.1715 27.3159 53.8917 27.2 53.6 27.2H51.4C51.1083 27.2 50.8285 27.3159 50.6222 27.5222C50.4159 27.7285 50.3 28.0083 50.3 28.3C50.3 28.5917 50.4159 28.8715 50.6222 29.0778C50.8285 29.2841 51.1083 29.4 51.4 29.4ZM63.577 46.648L43.216 53.435C42.8613 53.5518 42.4894 53.6076 42.116 53.6H41.5C41.7582 52.8927 41.8556 52.1368 41.7852 51.3871C41.7148 50.6374 41.4783 49.9129 41.093 49.266L40.994 49.101C40.4106 48.1299 39.587 47.3253 38.6025 46.7647C37.6181 46.204 36.5059 45.9063 35.373 45.9H29.62C27.5895 45.8982 25.6196 45.2079 24.032 43.942C22.0582 42.364 19.6071 41.503 17.08 41.5H14.88C14.6543 40.8616 14.2377 40.3081 13.6868 39.9145C13.1358 39.521 12.4771 39.3064 11.8 39.3H6.3C5.42479 39.3 4.58542 39.6477 3.96655 40.2666C3.34768 40.8854 3 41.7248 3 42.6L3 65.7C3 66.5752 3.34768 67.4146 3.96655 68.0335C4.58542 68.6523 5.42479 69 6.3 69H11.8C12.2613 68.9975 12.717 68.8984 13.1376 68.7089C13.5582 68.5194 13.9345 68.2439 14.242 67.9H41.83C43.4451 67.9035 45.0295 67.4579 46.406 66.613L67.02 54.062C67.8816 53.535 68.5192 52.7096 68.8115 51.7428C69.1037 50.7761 69.0302 49.7356 68.6048 48.8196C68.1794 47.9036 67.4319 47.1761 66.5048 46.7756C65.5776 46.3751 64.5355 46.3297 63.577 46.648ZM11.8 66.8H6.3C6.00826 66.8 5.72847 66.6841 5.52218 66.4778C5.31589 66.2715 5.2 65.9917 5.2 65.7V42.6C5.2 42.3083 5.31589 42.0285 5.52218 41.8222C5.72847 41.6159 6.00826 41.5 6.3 41.5H11.8C12.0917 41.5 12.3715 41.6159 12.5778 41.8222C12.7841 42.0285 12.9 42.3083 12.9 42.6V65.7C12.9 65.9917 12.7841 66.2715 12.5778 66.4778C12.3715 66.6841 12.0917 66.8 11.8 66.8ZM66.8 50.916C66.7498 51.1795 66.6445 51.4293 66.4909 51.6493C66.3373 51.8692 66.139 52.0541 65.909 52.192L45.262 64.743C44.2274 65.3706 43.0401 65.7017 41.83 65.7H15.1V43.7H17.08C19.1105 43.7018 21.0804 44.3921 22.668 45.658C24.6418 47.236 27.0929 48.097 29.62 48.1H35.373C36.1326 48.0998 36.8793 48.2962 37.5405 48.6701C38.2017 49.0441 38.7548 49.5829 39.146 50.234L39.245 50.399C39.5389 50.8885 39.6802 51.4545 39.6508 52.0247C39.6214 52.5949 39.4227 53.1433 39.08 53.6H32.403C30.2301 53.5995 28.1058 54.2426 26.298 55.448L25.495 55.987C25.2816 56.1589 25.14 56.4044 25.098 56.6752C25.056 56.946 25.1167 57.2228 25.2681 57.4513C25.4195 57.6797 25.6507 57.8435 25.9165 57.9104C26.1823 57.9773 26.4635 57.9426 26.705 57.813L27.519 57.274C28.9657 56.3112 30.6652 55.7983 32.403 55.8H42.171C42.7619 55.7987 43.3488 55.7021 43.909 55.514L64.281 48.727C64.6633 48.6021 65.0751 48.6007 65.4582 48.7232C65.8413 48.8456 66.176 49.0855 66.415 49.409C66.7549 49.8325 66.8946 50.3814 66.8 50.916ZM19.5 18.169V15.309C20.5023 14.7303 21.3349 13.8982 21.9141 12.8962C22.4933 11.8941 22.7988 10.7574 22.8 9.6V6.3C22.8 5.42479 22.4523 4.58542 21.8335 3.96655C21.2146 3.34768 20.3752 3 19.5 3H10.7C9.82479 3 8.98542 3.34768 8.36655 3.96655C7.74768 4.58542 7.4 5.42479 7.4 6.3V9.6C7.40119 10.7574 7.70671 11.8941 8.28592 12.8962C8.86513 13.8982 9.69767 14.7303 10.7 15.309V29.763C10.7 30.239 10.8544 30.7022 11.14 31.083L13.34 34.02C13.5449 34.2932 13.8106 34.515 14.1161 34.6677C14.4216 34.8205 14.7585 34.9 15.1 34.9C15.4415 34.9 15.7784 34.8205 16.0839 34.6677C16.3894 34.515 16.6551 34.2932 16.86 34.02L19.06 31.083C19.3456 30.7022 19.5 30.239 19.5 29.763V27.431C19.4996 26.9935 19.3255 26.5741 19.016 26.265L17.751 25L18.785 23.966C18.9393 23.8136 19.0618 23.632 19.1455 23.4318C19.2291 23.2317 19.2721 23.0169 19.2721 22.8C19.2721 22.5831 19.2291 22.3683 19.1455 22.1682C19.0618 21.968 18.9393 21.7864 18.785 21.634L17.751 20.6L19.016 19.335C19.3255 19.0259 19.4996 18.6065 19.5 18.169ZM9.6 6.3C9.6 6.00826 9.71589 5.72847 9.92218 5.52218C10.1285 5.31589 10.4083 5.2 10.7 5.2H19.5C19.7917 5.2 20.0715 5.31589 20.2778 5.52218C20.4841 5.72847 20.6 6.00826 20.6 6.3V9.6C20.6 10.767 20.1364 11.8861 19.3113 12.7113C18.4861 13.5364 17.367 14 16.2 14H14C12.833 14 11.7139 13.5364 10.8887 12.7113C10.0636 11.8861 9.6 10.767 9.6 9.6V6.3ZM15.815 21.766L16.849 22.8L15.815 23.834C15.6607 23.9864 15.5382 24.168 15.4545 24.3682C15.3709 24.5683 15.3279 24.7831 15.3279 25C15.3279 25.2169 15.3709 25.4317 15.4545 25.6318C15.5382 25.832 15.6607 26.0136 15.815 26.166L17.3 27.651V29.763L15.1 32.7L12.9 29.763V16.101C13.263 16.1615 13.6315 16.1945 14 16.2H16.2C16.5686 16.1948 16.9364 16.1617 17.3 16.101V17.949L15.815 19.434C15.6607 19.5864 15.5382 19.768 15.4545 19.9682C15.3709 20.1683 15.3279 20.3831 15.3279 20.6C15.3279 20.8169 15.3709 21.0317 15.4545 21.2318C15.5382 21.432 15.6607 21.6136 15.815 21.766Z" fill="#FEBE09"/>
<path d="M13.9994 9.60015H16.1994C16.4912 9.60015 16.7709 9.48425 16.9772 9.27796C17.1835 9.07167 17.2994 8.79188 17.2994 8.50015C17.2994 8.20841 17.1835 7.92862 16.9772 7.72233C16.7709 7.51604 16.4912 7.40015 16.1994 7.40015H13.9994C13.7077 7.40015 13.4279 7.51604 13.2216 7.72233C13.0153 7.92862 12.8994 8.20841 12.8994 8.50015C12.8994 8.79188 13.0153 9.07167 13.2216 9.27796C13.4279 9.48425 13.7077 9.60015 13.9994 9.60015Z" fill="#FEBE09"/>
</svg>
