<svg width="72" height="72" viewBox="0 0 72 72" fill="none" xmlns="http://www.w3.org/2000/svg">
<g clip-path="url(#clip0_6858_685)">
<path d="M46.3109 52.7401V46.9805C46.3109 46.0959 45.9623 45.2474 45.342 44.6219C44.7216 43.9963 43.8803 43.6449 43.0029 43.6449H41.4813L37.9859 36.5955C37.7109 36.0399 37.2875 35.5728 36.7635 35.2468C36.2395 34.9207 35.6356 34.7485 35.0198 34.7498H17.9069C17.2911 34.7485 16.6872 34.9207 16.1632 35.2468C15.6392 35.5728 15.2158 36.0399 14.9408 36.5955L11.4454 43.6449H5.5132C4.63588 43.6449 3.7945 43.9963 3.17415 44.6219C2.55379 45.2474 2.20528 46.0959 2.20528 46.9805V52.7401C1.56183 52.9695 1.0045 53.394 0.609692 53.9553C0.214881 54.5167 0.00191805 55.1874 0 55.8756C0 56.7603 0.348511 57.6088 0.968866 58.2343C1.58922 58.8599 2.4306 59.2113 3.30792 59.2113H6.84739C7.20838 60.4906 7.97314 61.6163 9.02573 62.4178C10.0783 63.2194 11.3614 63.653 12.6804 63.653C13.9993 63.653 15.2824 63.2194 16.335 62.4178C17.3876 61.6163 18.1523 60.4906 18.5133 59.2113H31.1055C31.4665 60.4906 32.2312 61.6163 33.2838 62.4178C34.3364 63.2194 35.6194 63.653 36.9384 63.653C38.2574 63.653 39.5405 63.2194 40.593 62.4178C41.6456 61.6163 42.4104 60.4906 42.7714 59.2113H45.2082C46.0855 59.2113 46.9269 58.8599 47.5473 58.2343C48.1676 57.6088 48.5161 56.7603 48.5161 55.8756C48.5142 55.1874 48.3013 54.5167 47.9064 53.9553C47.5116 53.394 46.9543 52.9695 46.3109 52.7401ZM44.1056 46.9805V52.54H40.4117C39.3957 51.8163 38.1823 51.4278 36.9384 51.4278C35.6945 51.4278 34.4811 51.8163 33.4651 52.54H27.566V49.2043C27.566 48.9094 27.4498 48.6266 27.243 48.4181C27.0362 48.2096 26.7558 48.0924 26.4633 48.0924C26.1709 48.0924 25.8904 48.2096 25.6837 48.4181C25.4769 48.6266 25.3607 48.9094 25.3607 49.2043V52.54H16.1537C15.1376 51.8163 13.9243 51.4278 12.6804 51.4278C11.4364 51.4278 10.2231 51.8163 9.20704 52.54H4.41056V50.3162H6.61584C7.49315 50.3162 8.33453 49.9648 8.95489 49.3392C9.57524 48.7137 9.92375 47.8652 9.92375 46.9805V45.8686H43.0029C43.2954 45.8686 43.5758 45.9858 43.7826 46.1943C43.9894 46.4028 44.1056 46.6856 44.1056 46.9805ZM18.0723 54.7638H31.5465C31.1756 55.4516 30.9468 56.2081 30.8739 56.9875H18.7449C18.672 56.2081 18.4432 55.4516 18.0723 54.7638ZM36.0122 37.5851L39.0114 43.6449H27.566V36.9735H35.0198C35.2253 36.9721 35.4271 37.0286 35.6025 37.1366C35.7778 37.2447 35.9197 37.4 36.0122 37.5851ZM16.9145 37.5851C17.007 37.4 17.1489 37.2447 17.3242 37.1366C17.4996 37.0286 17.7014 36.9721 17.9069 36.9735H25.3607V43.6449H13.9153L16.9145 37.5851ZM5.5132 45.8686H7.71848V46.9805C7.71848 47.2754 7.60231 47.5582 7.39552 47.7668C7.18874 47.9753 6.90827 48.0924 6.61584 48.0924H4.41056V46.9805C4.41056 46.6856 4.52673 46.4028 4.73351 46.1943C4.9403 45.9858 5.22076 45.8686 5.5132 45.8686ZM2.20528 55.8756C2.20732 55.7277 2.2386 55.5817 2.29729 55.4462C2.35599 55.3106 2.44091 55.1883 2.5471 55.0862C2.64484 54.9822 2.76295 54.8999 2.89392 54.8444C3.02489 54.7889 3.16587 54.7614 3.30792 54.7638H7.28845C6.91752 55.4516 6.68871 56.2081 6.61584 56.9875H3.30792C3.01548 56.9875 2.73502 56.8704 2.52823 56.6619C2.32145 56.4534 2.20528 56.1705 2.20528 55.8756ZM12.6804 61.4351C11.6568 61.4351 10.6752 61.0251 9.95146 60.2953C9.22771 59.5654 8.82112 58.5756 8.82112 57.5435C8.82112 56.5114 9.22771 55.5215 9.95146 54.7917C10.6752 54.0619 11.6568 53.6519 12.6804 53.6519C13.7039 53.6519 14.6855 54.0619 15.4092 54.7917C16.133 55.5215 16.5396 56.5114 16.5396 57.5435C16.5396 58.5756 16.133 59.5654 15.4092 60.2953C14.6855 61.0251 13.7039 61.4351 12.6804 61.4351ZM36.9384 61.4351C35.9149 61.4351 34.9333 61.0251 34.2095 60.2953C33.4858 59.5654 33.0792 58.5756 33.0792 57.5435C33.0792 56.5114 33.4858 55.5215 34.2095 54.7917C34.9333 54.0619 35.9149 53.6519 36.9384 53.6519C37.962 53.6519 38.9436 54.0619 39.6673 54.7917C40.3911 55.5215 40.7977 56.5114 40.7977 57.5435C40.7977 58.5756 40.3911 59.5654 39.6673 60.2953C38.9436 61.0251 37.962 61.4351 36.9384 61.4351ZM45.969 56.6651C45.8713 56.769 45.7532 56.8514 45.6222 56.9069C45.4912 56.9624 45.3503 56.9899 45.2082 56.9875H43.0029C42.9403 56.2104 42.7228 55.4541 42.3634 54.7638H45.2082C45.5007 54.7638 45.7811 54.8809 45.9879 55.0894C46.1947 55.2979 46.3109 55.5808 46.3109 55.8756C46.3088 56.0235 46.2775 56.1695 46.2188 56.3051C46.1601 56.4407 46.0752 56.563 45.969 56.6651Z" fill="#FEBE09"/>
<path d="M70.4837 32.3465L62.7083 19.7115V15.7822L65.9599 11.4466C66.1107 11.2456 66.1922 11.0011 66.1922 10.7499C66.1922 9.94021 65.9852 9.14401 65.5909 8.43685C65.1966 7.7297 64.6281 7.13506 63.9394 6.7094C63.2507 6.28375 62.4646 6.04121 61.6558 6.0048C60.8469 5.9684 60.0422 6.13935 59.3181 6.50142L55.7406 8.29024L52.1631 6.50142C51.4389 6.13935 50.6342 5.9684 49.8253 6.0048C49.0165 6.04121 48.2304 6.28375 47.5417 6.7094C46.853 7.13506 46.2845 7.7297 45.8902 8.43685C45.4959 9.14401 45.289 9.94021 45.2889 10.7499C45.2889 11.0011 45.3704 11.2456 45.5212 11.4466L48.7728 15.7822V19.7115L43.1387 28.8671L45.1166 30.0842L50.583 21.2015H60.8981L68.5058 33.5637C69.2414 34.7592 69.6448 36.1293 69.6743 37.5327C69.7038 38.9361 69.3584 40.322 68.6736 41.5474C67.9889 42.7728 66.9896 43.7933 65.7789 44.5036C64.5682 45.214 63.19 45.5885 61.7862 45.5886H49.9341V47.9111H61.7862C63.6032 47.9111 65.3872 47.4264 66.9543 46.5069C68.5214 45.5874 69.8148 44.2665 70.7012 42.6804C71.5875 41.0943 72.0346 39.3005 71.9964 37.4839C71.9581 35.6674 71.436 33.8939 70.4837 32.3465ZM48.7628 8.68522C49.1142 8.46632 49.516 8.34156 49.9296 8.32295C50.3432 8.30434 50.7546 8.3925 51.1243 8.57896L55.2212 10.6273C55.3824 10.708 55.5603 10.75 55.7406 10.75C55.9209 10.75 56.0987 10.708 56.2599 10.6273L60.3567 8.57882C60.7 8.40728 61.079 8.31954 61.4627 8.32281C61.8465 8.32607 62.224 8.42024 62.5643 8.5976C62.9046 8.77495 63.198 9.03044 63.4205 9.34312C63.643 9.65579 63.7882 10.0167 63.8442 10.3964L60.9664 14.2337H50.5148L47.6368 10.3964C47.6872 10.0459 47.8143 9.7109 48.0089 9.41512C48.2035 9.11934 48.4609 8.87023 48.7628 8.68522ZM60.3857 18.8789H51.0954V16.5563H60.3857V18.8789Z" fill="#FEBE09"/>
<path d="M52.2587 36.2984V36.4678C52.2596 37.1734 52.4852 37.8603 52.9028 38.429C53.3204 38.9976 53.9083 39.4185 54.5812 39.6306V40.9436H56.9038V39.6306C57.5341 39.4329 58.091 39.0514 58.5029 38.535C58.9149 38.0186 59.1631 37.3909 59.2158 36.7324C59.2685 36.074 59.1233 35.4148 58.7987 34.8394C58.4742 34.2641 57.9851 33.7988 57.3943 33.5033L55.1298 32.3711C54.9299 32.2712 54.7697 32.1067 54.6749 31.9044C54.5802 31.702 54.5566 31.4736 54.6079 31.2561C54.6592 31.0386 54.7824 30.8449 54.9576 30.7062C55.1328 30.5675 55.3497 30.492 55.5731 30.492H55.9119C56.1749 30.4922 56.427 30.5968 56.613 30.7828C56.799 30.9687 56.9036 31.2209 56.9038 31.4839V31.6533H59.2264V31.4839C59.2255 30.7783 58.9998 30.0914 58.5822 29.5227C58.1646 28.954 57.5767 28.5332 56.9038 28.3211V27.0081H54.5812V28.3211C53.9509 28.5188 53.3941 28.9003 52.9821 29.4167C52.5702 29.9331 52.3219 30.5608 52.2692 31.2193C52.2165 31.8777 52.3618 32.5369 52.6863 33.1123C53.0109 33.6876 53.4999 34.1529 54.0907 34.4483L56.3553 35.5806C56.5551 35.6805 56.7154 35.845 56.8101 36.0473C56.9048 36.2497 56.9285 36.4781 56.8772 36.6956C56.8259 36.9131 56.7026 37.1068 56.5274 37.2455C56.3523 37.3842 56.1354 37.4597 55.9119 37.4597H55.5731C55.3101 37.4594 55.058 37.3549 54.8721 37.1689C54.6861 36.9829 54.5815 36.7308 54.5812 36.4678V36.2984H52.2587ZM61.549 32.8146H63.8716V35.1371H61.549V32.8146ZM39.9268 12.5992L38.5019 16.874L40.7054 17.6082L42.9088 10.998C42.957 10.8533 42.9763 10.7005 42.9655 10.5484C42.9546 10.3963 42.9139 10.2478 42.8457 10.1114C42.7775 9.97497 42.6831 9.85334 42.5679 9.75344C42.4526 9.65353 42.3188 9.57729 42.1742 9.52909L35.5639 7.32568L34.8297 9.52923L38.431 10.7296C32.6622 13.4528 28.1774 18.3113 25.9235 24.2791L28.0992 25.092C29.1427 22.3288 30.7259 19.801 32.7566 17.6562C34.7873 15.5113 37.2247 13.7922 39.9268 12.5992ZM27.4053 27.2984L25.1562 26.7192C24.9494 27.5234 24.7838 28.3377 24.6602 29.1588L26.9569 29.504C27.0688 28.7617 27.2184 28.0255 27.4053 27.2984Z" fill="#FEBE09"/>
<path d="M51.3172 64.9132L54.3037 61.5391L52.5643 59.9999L47.9462 65.2174C47.8451 65.3316 47.7675 65.4646 47.7178 65.6088C47.6682 65.753 47.6474 65.9056 47.6567 66.0578C47.666 66.21 47.7051 66.3589 47.772 66.496C47.8388 66.6331 47.932 66.7557 48.0462 66.8567L53.2637 71.4749L54.803 69.7355L51.9604 67.2196C58.335 66.9755 64.3653 64.2639 68.7782 59.6572L67.0952 58.0565C65.0521 60.1895 62.6047 61.8944 59.8958 63.0716C57.1869 64.2488 54.2706 64.8749 51.3172 64.9132ZM68.5985 56.2986L70.4406 57.7131C70.9461 57.0543 71.4176 56.3701 71.8532 55.6632L69.8756 54.4453C69.4816 55.0844 69.0554 55.703 68.5985 56.2986Z" fill="#FEBE09"/>
</g>
<defs>
<clipPath id="clip0_6858_685">
<rect width="72" height="72" fill="white"/>
</clipPath>
</defs>
</svg>
