<svg width="73" height="72" viewBox="0 0 73 72" fill="none" xmlns="http://www.w3.org/2000/svg">
<path d="M45.75 50.625C45.4516 50.625 45.1655 50.5065 44.9545 50.2955C44.7435 50.0845 44.625 49.7984 44.625 49.5V43.3462C44.625 43.0479 44.7435 42.7617 44.9545 42.5508C45.1655 42.3398 45.4516 42.2212 45.75 42.2212C46.0484 42.2212 46.3345 42.3398 46.5455 42.5508C46.7565 42.7617 46.875 43.0479 46.875 43.3462V49.5C46.875 49.7984 46.7565 50.0845 46.5455 50.2955C46.3345 50.5065 46.0484 50.625 45.75 50.625ZM23.25 61.875H5.25C4.35489 61.875 3.49645 61.5194 2.86351 60.8865C2.23058 60.2535 1.875 59.3951 1.875 58.5V4.5C1.875 3.60489 2.23058 2.74645 2.86351 2.11351C3.49645 1.48058 4.35489 1.125 5.25 1.125H35.625C35.9233 1.12506 36.2094 1.24363 36.4204 1.45462L46.5454 11.5796C46.7564 11.7906 46.8749 12.0767 46.875 12.375V17.4037C46.875 17.7021 46.7565 17.9883 46.5455 18.1992C46.3345 18.4102 46.0484 18.5287 45.75 18.5287C45.4516 18.5287 45.1655 18.4102 44.9545 18.1992C44.7435 17.9883 44.625 17.7021 44.625 17.4037V12.8407L35.1593 3.375H5.25C4.95163 3.375 4.66548 3.49353 4.4545 3.7045C4.24353 3.91548 4.125 4.20163 4.125 4.5V58.5C4.125 58.7984 4.24353 59.0845 4.4545 59.2955C4.66548 59.5065 4.95163 59.625 5.25 59.625H23.25C23.5484 59.625 23.8345 59.7435 24.0455 59.9545C24.2565 60.1655 24.375 60.4516 24.375 60.75C24.375 61.0484 24.2565 61.3345 24.0455 61.5455C23.8345 61.7565 23.5484 61.875 23.25 61.875Z" fill="#FEBE09"/>
<path d="M21 48.375H9.75C9.45163 48.375 9.16548 48.2565 8.95451 48.0455C8.74353 47.8345 8.625 47.5484 8.625 47.25C8.625 46.9516 8.74353 46.6655 8.95451 46.4545C9.16548 46.2435 9.45163 46.125 9.75 46.125H21C21.2984 46.125 21.5845 46.2435 21.7955 46.4545C22.0065 46.6655 22.125 46.9516 22.125 47.25C22.125 47.5484 22.0065 47.8345 21.7955 48.0455C21.5845 48.2565 21.2984 48.375 21 48.375ZM33.375 31.5H9.75C9.45163 31.5 9.16548 31.3815 8.95451 31.1705C8.74353 30.9595 8.625 30.6734 8.625 30.375C8.625 30.0766 8.74353 29.7905 8.95451 29.5795C9.16548 29.3685 9.45163 29.25 9.75 29.25H33.375C33.6734 29.25 33.9595 29.3685 34.1705 29.5795C34.3815 29.7905 34.5 30.0766 34.5 30.375C34.5 30.6734 34.3815 30.9595 34.1705 31.1705C33.9595 31.3815 33.6734 31.5 33.375 31.5ZM34.5 37.125H9.75C9.45163 37.125 9.16548 37.0065 8.95451 36.7955C8.74353 36.5845 8.625 36.2984 8.625 36C8.625 35.7016 8.74353 35.4155 8.95451 35.2045C9.16548 34.9935 9.45163 34.875 9.75 34.875H34.5C34.7984 34.875 35.0845 34.9935 35.2955 35.2045C35.5065 35.4155 35.625 35.7016 35.625 36C35.625 36.2984 35.5065 36.5845 35.2955 36.7955C35.0845 37.0065 34.7984 37.125 34.5 37.125ZM36.75 42.75H9.75C9.45163 42.75 9.16548 42.6315 8.95451 42.4205C8.74353 42.2095 8.625 41.9234 8.625 41.625C8.625 41.3266 8.74353 41.0405 8.95451 40.8295C9.16548 40.6185 9.45163 40.5 9.75 40.5H36.75C37.0484 40.5 37.3345 40.6185 37.5455 40.8295C37.7565 41.0405 37.875 41.3266 37.875 41.625C37.875 41.9234 37.7565 42.2095 37.5455 42.4205C37.3345 42.6315 37.0484 42.75 36.75 42.75ZM14.25 22.5H9.75C9.45163 22.5 9.16548 22.3815 8.95451 22.1705C8.74353 21.9595 8.625 21.6734 8.625 21.375C8.625 21.0766 8.74353 20.7905 8.95451 20.5795C9.16548 20.3685 9.45163 20.25 9.75 20.25H14.25C14.5484 20.25 14.8345 20.1315 15.0455 19.9205C15.2565 19.7095 15.375 19.4234 15.375 19.125C15.375 18.8266 15.2565 18.5405 15.0455 18.3295C14.8345 18.1185 14.5484 18 14.25 18H12C11.1049 18 10.2464 17.6444 9.61351 17.0115C8.98058 16.3786 8.625 15.5201 8.625 14.625C8.625 13.7299 8.98058 12.8714 9.61351 12.2385C10.2464 11.6056 11.1049 11.25 12 11.25H16.5C16.7984 11.25 17.0845 11.3685 17.2955 11.5795C17.5065 11.7905 17.625 12.0766 17.625 12.375C17.625 12.6734 17.5065 12.9595 17.2955 13.1705C17.0845 13.3815 16.7984 13.5 16.5 13.5H12C11.7016 13.5 11.4155 13.6185 11.2045 13.8295C10.9935 14.0405 10.875 14.3266 10.875 14.625C10.875 14.9234 10.9935 15.2095 11.2045 15.4205C11.4155 15.6315 11.7016 15.75 12 15.75H14.25C15.1451 15.75 16.0036 16.1056 16.6365 16.7385C17.2694 17.3714 17.625 18.2299 17.625 19.125C17.625 20.0201 17.2694 20.8786 16.6365 21.5115C16.0036 22.1444 15.1451 22.5 14.25 22.5Z" fill="#FEBE09"/>
<path d="M13.125 13.5C12.8266 13.5 12.5405 13.3815 12.3295 13.1705C12.1185 12.9595 12 12.6734 12 12.375V10.125C12 9.82664 12.1185 9.54049 12.3295 9.32951C12.5405 9.11853 12.8266 9 13.125 9C13.4234 9 13.7095 9.11853 13.9205 9.32951C14.1315 9.54049 14.25 9.82664 14.25 10.125V12.375C14.25 12.6734 14.1315 12.9595 13.9205 13.1705C13.7095 13.3815 13.4234 13.5 13.125 13.5ZM13.125 24.75C12.8266 24.75 12.5405 24.6315 12.3295 24.4205C12.1185 24.2095 12 23.9234 12 23.625V21.375C12 21.0766 12.1185 20.7905 12.3295 20.5795C12.5405 20.3685 12.8266 20.25 13.125 20.25C13.4234 20.25 13.7095 20.3685 13.9205 20.5795C14.1315 20.7905 14.25 21.0766 14.25 21.375V23.625C14.25 23.9234 14.1315 24.2095 13.9205 24.4205C13.7095 24.6315 13.4234 24.75 13.125 24.75ZM45.75 13.5H37.875C36.9799 13.5 36.1214 13.1444 35.4885 12.5115C34.8556 11.8786 34.5 11.0201 34.5 10.125V2.25C34.5 2.02754 34.5661 1.81007 34.6897 1.62511C34.8133 1.44015 34.989 1.296 35.1945 1.21087C35.4001 1.12574 35.6262 1.10346 35.8444 1.14685C36.0626 1.19024 36.263 1.29734 36.4204 1.45463L46.5454 11.5796C46.7027 11.737 46.8098 11.9374 46.8532 12.1556C46.8965 12.3738 46.8743 12.6 46.7891 12.8055C46.704 13.011 46.5599 13.1867 46.3749 13.3103C46.1899 13.434 45.9725 13.5 45.75 13.5ZM36.75 4.96575V10.125C36.75 10.4234 36.8685 10.7095 37.0795 10.9205C37.2905 11.1315 37.5766 11.25 37.875 11.25H43.0342L36.75 4.96575ZM46.875 37.125C46.6525 37.125 46.4351 37.059 46.2501 36.9353C46.0651 36.8117 45.921 36.636 45.8359 36.4305C45.7507 36.225 45.7285 35.9988 45.7718 35.7806C45.8152 35.5624 45.9223 35.362 46.0796 35.2046L57.3296 23.9546C57.5418 23.7497 57.826 23.6363 58.121 23.6389C58.4159 23.6414 58.6981 23.7597 58.9067 23.9683C59.1153 24.1769 59.2336 24.4591 59.2361 24.7541C59.2387 25.049 59.1253 25.3332 58.9204 25.5454L47.6704 36.7954C47.4594 37.0064 47.1733 37.1249 46.875 37.125ZM57 38.25C56.3325 38.25 55.68 38.0521 55.125 37.6812C54.5699 37.3104 54.1374 36.7833 53.8819 36.1666C53.6265 35.5499 53.5596 34.8713 53.6898 34.2166C53.8201 33.5619 54.1415 32.9605 54.6135 32.4885C55.0855 32.0165 55.6869 31.6951 56.3416 31.5649C56.9963 31.4346 57.6749 31.5015 58.2916 31.7569C58.9083 32.0124 59.4354 32.4449 59.8062 33C60.1771 33.555 60.375 34.2075 60.375 34.875C60.375 35.7701 60.0194 36.6286 59.3865 37.2615C58.7535 37.8944 57.8951 38.25 57 38.25ZM57 33.75C56.7775 33.75 56.56 33.816 56.375 33.9396C56.19 34.0632 56.0458 34.2389 55.9606 34.4445C55.8755 34.6501 55.8532 34.8763 55.8966 35.0945C55.94 35.3127 56.0472 35.5132 56.2045 35.6705C56.3618 35.8278 56.5623 35.935 56.7805 35.9784C56.9988 36.0218 57.225 35.9995 57.4305 35.9144C57.6361 35.8292 57.8118 35.685 57.9354 35.5C58.059 35.315 58.125 35.0975 58.125 34.875C58.125 34.5766 58.0065 34.2905 57.7955 34.0795C57.5845 33.8685 57.2984 33.75 57 33.75ZM48 29.25C47.3325 29.25 46.68 29.0521 46.125 28.6812C45.5699 28.3104 45.1374 27.7833 44.8819 27.1666C44.6265 26.5499 44.5596 25.8713 44.6898 25.2166C44.8201 24.5619 45.1415 23.9605 45.6135 23.4885C46.0855 23.0165 46.6869 22.6951 47.3416 22.5649C47.9963 22.4346 48.6749 22.5015 49.2916 22.7569C49.9083 23.0124 50.4354 23.4449 50.8062 24C51.1771 24.555 51.375 25.2075 51.375 25.875C51.375 26.7701 51.0194 27.6286 50.3865 28.2615C49.7535 28.8944 48.8951 29.25 48 29.25ZM48 24.75C47.7775 24.75 47.56 24.816 47.375 24.9396C47.19 25.0632 47.0458 25.2389 46.9606 25.4445C46.8755 25.6501 46.8532 25.8763 46.8966 26.0945C46.94 26.3127 47.0472 26.5132 47.2045 26.6705C47.3618 26.8278 47.5623 26.935 47.7805 26.9784C47.9988 27.0218 48.225 26.9995 48.4305 26.9144C48.6361 26.8292 48.8118 26.685 48.9354 26.5C49.059 26.315 49.125 26.0975 49.125 25.875C49.125 25.5766 49.0065 25.2905 48.7955 25.0795C48.5845 24.8685 48.2984 24.75 48 24.75Z" fill="#FEBE09"/>
<path d="M52.5 46.125C49.3849 46.125 46.3398 45.2013 43.7498 43.4707C41.1597 41.74 39.141 39.2802 37.9489 36.4023C36.7568 33.5243 36.4449 30.3575 37.0526 27.3023C37.6603 24.2471 39.1604 21.4408 41.3631 19.2381C43.5657 17.0354 46.3721 15.5354 49.4273 14.9276C52.4825 14.3199 55.6493 14.6318 58.5273 15.8239C61.4052 17.016 63.865 19.0347 65.5956 21.6248C67.3263 24.2149 68.25 27.26 68.25 30.375C68.2455 34.5508 66.5847 38.5543 63.632 41.507C60.6793 44.4597 56.6758 46.1205 52.5 46.125ZM52.5 16.875C49.83 16.875 47.2199 17.6668 44.9998 19.1502C42.7797 20.6336 41.0494 22.742 40.0276 25.2088C39.0058 27.6756 38.7385 30.39 39.2594 33.0087C39.7803 35.6275 41.066 38.0329 42.9541 39.9209C44.8421 41.809 47.2475 43.0947 49.8663 43.6156C52.485 44.1365 55.1994 43.8692 57.6662 42.8474C60.133 41.8256 62.2414 40.0953 63.7248 37.8752C65.2082 35.6551 66 33.0451 66 30.375C65.9961 26.7958 64.5726 23.3642 62.0417 20.8333C59.5108 18.3024 56.0792 16.8789 52.5 16.875ZM70.5 66.375H66C65.7016 66.375 65.4155 66.2565 65.2045 66.0455C64.9935 65.8345 64.875 65.5484 64.875 65.25C64.875 64.9516 64.9935 64.6655 65.2045 64.4545C65.4155 64.2435 65.7016 64.125 66 64.125H69.375V56.8519L60.0375 50.625H43.86L36.2786 56.0408C36.1702 56.1178 36.0491 56.1753 35.9209 56.2106L24.375 59.3595V64.125H27.75C28.0484 64.125 28.3345 64.2435 28.5455 64.4545C28.7565 64.6655 28.875 64.9516 28.875 65.25C28.875 65.5484 28.7565 65.8345 28.5455 66.0455C28.3345 66.2565 28.0484 66.375 27.75 66.375H23.25C22.9516 66.375 22.6655 66.2565 22.4545 66.0455C22.2435 65.8345 22.125 65.5484 22.125 65.25V58.5C22.1249 58.2532 22.2061 58.0131 22.3559 57.8169C22.5058 57.6208 22.716 57.4793 22.9541 57.4144L35.1345 54.0934L42.8464 48.5809C43.0375 48.446 43.266 48.374 43.5 48.375H60.375C60.5972 48.3754 60.8143 48.4411 60.9994 48.564L71.1244 55.314C71.2784 55.4168 71.4047 55.556 71.492 55.7193C71.5793 55.8825 71.625 56.0648 71.625 56.25V65.25C71.625 65.5484 71.5065 65.8345 71.2955 66.0455C71.0845 66.2565 70.7984 66.375 70.5 66.375Z" fill="#FEBE09"/>
<path d="M57 66.375H36.75C36.4516 66.375 36.1655 66.2565 35.9545 66.0455C35.7435 65.8345 35.625 65.5484 35.625 65.25C35.625 64.9516 35.7435 64.6655 35.9545 64.4545C36.1655 64.2435 36.4516 64.125 36.75 64.125H57C57.2984 64.125 57.5845 64.2435 57.7955 64.4545C58.0065 64.6655 58.125 64.9516 58.125 65.25C58.125 65.5484 58.0065 65.8345 57.7955 66.0455C57.5845 66.2565 57.2984 66.375 57 66.375Z" fill="#FEBE09"/>
<path d="M32.25 70.875C31.1375 70.875 30.0499 70.5451 29.1249 69.927C28.1999 69.3089 27.4789 68.4304 27.0532 67.4026C26.6274 66.3748 26.516 65.2438 26.7331 64.1526C26.9501 63.0615 27.4859 62.0592 28.2725 61.2725C29.0592 60.4859 30.0615 59.9501 31.1526 59.7331C32.2438 59.516 33.3748 59.6274 34.4026 60.0532C35.4304 60.4789 36.3089 61.1999 36.927 62.1249C37.5451 63.0499 37.875 64.1375 37.875 65.25C37.8732 66.7413 37.28 68.171 36.2255 69.2255C35.171 70.28 33.7413 70.8732 32.25 70.875ZM32.25 61.875C31.5825 61.875 30.93 62.0729 30.375 62.4438C29.8199 62.8146 29.3874 63.3417 29.1319 63.9584C28.8765 64.5751 28.8096 65.2537 28.9399 65.9084C29.0701 66.5631 29.3915 67.1645 29.8635 67.6365C30.3355 68.1085 30.9369 68.4299 31.5916 68.5602C32.2463 68.6904 32.9249 68.6235 33.5416 68.3681C34.1583 68.1126 34.6854 67.6801 35.0562 67.1251C35.4271 66.57 35.625 65.9175 35.625 65.25C35.625 64.3549 35.2694 63.4965 34.6365 62.8635C34.0036 62.2306 33.1451 61.875 32.25 61.875ZM61.5 70.875C60.3875 70.875 59.2999 70.5451 58.3749 69.927C57.4499 69.3089 56.7289 68.4304 56.3032 67.4026C55.8774 66.3748 55.766 65.2438 55.9831 64.1526C56.2001 63.0615 56.7359 62.0592 57.5225 61.2725C58.3092 60.4859 59.3115 59.9501 60.4026 59.7331C61.4938 59.516 62.6248 59.6274 63.6526 60.0532C64.6804 60.4789 65.5589 61.1999 66.177 62.1249C66.7951 63.0499 67.125 64.1375 67.125 65.25C67.1232 66.7413 66.53 68.171 65.4755 69.2255C64.421 70.28 62.9913 70.8732 61.5 70.875ZM61.5 61.875C60.8325 61.875 60.18 62.0729 59.625 62.4438C59.0699 62.8146 58.6374 63.3417 58.3819 63.9584C58.1265 64.5751 58.0596 65.2537 58.1899 65.9084C58.3201 66.5631 58.6415 67.1645 59.1135 67.6365C59.5855 68.1085 60.1869 68.4299 60.8416 68.5602C61.4963 68.6904 62.1749 68.6235 62.7916 68.3681C63.4083 68.1126 63.9354 67.6801 64.3062 67.1251C64.6771 66.57 64.875 65.9175 64.875 65.25C64.875 64.3549 64.5194 63.4965 63.8865 62.8635C63.2536 62.2306 62.3951 61.875 61.5 61.875Z" fill="#FEBE09"/>
</svg>
