<svg width="72" height="72" viewBox="0 0 72 72" fill="none" xmlns="http://www.w3.org/2000/svg">
<path d="M64.6985 28.0995L59.65 14.4703C59.2517 13.4036 58.5378 12.4837 57.6034 11.833C56.669 11.1823 55.5585 10.8318 54.4199 10.8281H18.4705C17.332 10.8319 16.2217 11.1825 15.2874 11.8331C14.3531 12.4838 13.6393 13.4037 13.241 14.4703L8.25173 27.9367L6.1283 29.8936C5.26767 30.6248 4.57584 31.5338 4.10051 32.5582C3.62518 33.5825 3.37765 34.6978 3.375 35.827V60.041C3.38364 60.3439 3.51009 60.6316 3.72747 60.8427C3.94485 61.0539 4.23602 61.172 4.53909 61.1719H17.1532C17.4525 61.1707 17.7391 61.051 17.9505 60.8391C18.1619 60.6272 18.2808 60.3403 18.2812 60.041V52.4531H53.7188V60.041C53.7192 60.3403 53.8382 60.6272 54.0495 60.8391C54.2609 61.051 54.5475 61.1707 54.8468 61.1719H67.4609C67.764 61.172 68.0552 61.0539 68.2725 60.8427C68.4899 60.6316 68.6164 60.3439 68.625 60.041V35.317C68.6196 34.2599 68.4009 33.2147 67.9818 32.2442C67.5628 31.2737 66.9521 30.3978 66.1864 29.6689L64.6985 28.0995ZM15.3508 15.2356C15.5892 14.6011 16.0157 14.0545 16.5732 13.6689C17.1307 13.2833 17.7927 13.0772 18.4705 13.0781H54.4199C55.0978 13.0773 55.7597 13.2834 56.3172 13.6689C56.8747 14.0545 57.3012 14.6011 57.5397 15.2356L62.0601 27.4219H10.8302L15.3508 15.2356ZM16.0312 58.9219H5.625V52.4531H16.0312V58.9219ZM55.9688 58.9219V52.4531H66.375V58.9219H55.9688ZM66.375 45.7944V50.2031H5.625V35.827C5.62802 35.0199 5.80668 34.223 6.14857 33.4918C6.49046 32.7606 6.98739 32.1126 7.60486 31.5927C7.61794 31.5817 7.64044 31.5537 7.65295 31.5422L9.65602 29.6719H63.1192L64.5469 31.214C64.5628 31.231 64.5986 31.2562 64.6155 31.2716C65.1668 31.7921 65.607 32.4189 65.9094 33.1142C66.2118 33.8095 66.3702 34.5588 66.375 35.317V45.7944Z" fill="#FEBE09"/>
<path d="M15.7934 35.8594H14.7031C13.4351 35.8594 12.2189 36.3631 11.3223 37.2598C10.4256 38.1564 9.92188 39.3726 9.92188 40.6406C9.92188 41.9087 10.4256 43.1248 11.3223 44.0215C12.2189 44.9181 13.4351 45.4219 14.7031 45.4219H15.7934C17.0615 45.4219 18.2776 44.9181 19.1742 44.0215C20.0709 43.1248 20.5746 41.9087 20.5746 40.6406C20.5746 39.3726 20.0709 38.1564 19.1742 37.2598C18.2776 36.3631 17.0615 35.8594 15.7934 35.8594ZM15.7934 43.1719H14.7031C14.0318 43.1719 13.388 42.9052 12.9133 42.4305C12.4386 41.9558 12.1719 41.312 12.1719 40.6406C12.1719 39.9693 12.4386 39.3255 12.9133 38.8508C13.388 38.3761 14.0318 38.1094 14.7031 38.1094H15.7934C16.4647 38.1094 17.1086 38.3761 17.5833 38.8508C18.058 39.3255 18.3246 39.9693 18.3246 40.6406C18.3246 41.312 18.058 41.9558 17.5833 42.4305C17.1086 42.9052 16.4647 43.1719 15.7934 43.1719ZM57.2942 35.8594H56.204C54.9359 35.8594 53.7198 36.3631 52.8231 37.2598C51.9264 38.1564 51.4227 39.3726 51.4227 40.6406C51.4227 41.9087 51.9264 43.1248 52.8231 44.0215C53.7198 44.9181 54.9359 45.4219 56.204 45.4219H57.2942C58.5623 45.4219 59.7784 44.9181 60.6751 44.0215C61.5717 43.1248 62.0755 41.9087 62.0755 40.6406C62.0755 39.3726 61.5717 38.1564 60.6751 37.2598C59.7784 36.3631 58.5623 35.8594 57.2942 35.8594ZM57.2942 43.1719H56.204C55.5326 43.1719 54.8888 42.9052 54.4141 42.4305C53.9394 41.9558 53.6727 41.312 53.6727 40.6406C53.6727 39.9693 53.9394 39.3255 54.4141 38.8508C54.8888 38.3761 55.5326 38.1094 56.204 38.1094H57.2942C57.9655 38.1094 58.6094 38.3761 59.0841 38.8508C59.5588 39.3255 59.8255 39.9693 59.8255 40.6406C59.8255 41.312 59.5588 41.9558 59.0841 42.4305C58.6094 42.9052 57.9655 43.1719 57.2942 43.1719ZM46.8268 37.125C46.8268 36.8266 46.7083 36.5405 46.4973 36.3295C46.2863 36.1185 46.0002 36 45.7018 36H26.4362C26.1378 36 25.8517 36.1185 25.6407 36.3295C25.4297 36.5405 25.3112 36.8266 25.3112 37.125V44.2969C25.3112 44.5952 25.4297 44.8814 25.6407 45.0924C25.8517 45.3033 26.1378 45.4219 26.4362 45.4219H45.7018C46.0002 45.4219 46.2863 45.3033 46.4973 45.0924C46.7083 44.8814 46.8268 44.5952 46.8268 44.2969V37.125ZM44.4362 43.1719H27.5612V38.25H44.4362V43.1719Z" fill="#FEBE09"/>
</svg>
