<svg width="72" height="72" viewBox="0 0 72 72" fill="none" xmlns="http://www.w3.org/2000/svg">
<g clip-path="url(#clip0_7073_1182)">
<path d="M14.948 49.8953H9.51159C8.16019 49.8953 7.06064 50.9947 7.06064 52.3462V53.8049C7.06064 55.1563 8.16005 56.2559 9.51159 56.2559H14.948C16.2994 56.2559 17.399 55.1565 17.399 53.8049V52.3462C17.399 50.9947 16.2994 49.8953 14.948 49.8953ZM15.149 53.8048C15.149 53.9136 15.057 54.0057 14.948 54.0057H9.51159C9.45851 54.0051 9.4078 53.9837 9.37026 53.9461C9.33273 53.9086 9.31133 53.8579 9.31064 53.8048V52.3461C9.31064 52.2372 9.40261 52.1451 9.51159 52.1451H14.948C15.0569 52.1451 15.149 52.2371 15.149 52.3461V53.8048ZM27.5115 49.8953H22.0752C20.7238 49.8953 19.6241 50.9947 19.6241 52.3462V53.8049C19.6241 55.1563 20.7236 56.2559 22.0752 56.2559H27.5115C28.8629 56.2559 29.9625 55.1565 29.9625 53.8049V52.3462C29.9624 50.9947 28.8629 49.8953 27.5115 49.8953ZM27.7124 53.8048C27.7124 53.9136 27.6204 54.0057 27.5113 54.0057H22.075C21.966 54.0057 21.8739 53.9138 21.8739 53.8048V52.3461C21.8739 52.2372 21.9659 52.1451 22.075 52.1451H27.5113C27.6203 52.1451 27.7124 52.2371 27.7124 52.3461V53.8048ZM16.6362 32.4586H9.08297C7.96781 32.4586 7.06064 33.3658 7.06064 34.4809V39.8655C7.06064 40.9806 7.96781 41.8879 9.08297 41.8879H16.6362C17.7514 41.8879 18.6585 40.9806 18.6585 39.8655V34.4809C18.6585 33.3659 17.7512 32.4586 16.6362 32.4586ZM16.4085 39.6379H9.31064V34.7086H16.4085V39.6379ZM33.3478 31.2563C33.3478 30.9579 33.4663 30.6718 33.6773 30.4608C33.8883 30.2498 34.1744 30.1313 34.4728 30.1313H53.9644C54.2628 30.1313 54.5489 30.2498 54.7599 30.4608C54.9709 30.6718 55.0894 30.9579 55.0894 31.2563C55.0894 31.5546 54.9709 31.8408 54.7599 32.0518C54.5489 32.2627 54.2628 32.3813 53.9644 32.3813H34.4728C34.1744 32.3813 33.8883 32.2627 33.6773 32.0518C33.4663 31.8408 33.3478 31.5546 33.3478 31.2563ZM55.0894 35.2114C55.0894 35.5097 54.9709 35.7959 54.7599 36.0069C54.5489 36.2178 54.2628 36.3364 53.9644 36.3364H42.9967C42.6983 36.3364 42.4121 36.2178 42.2012 36.0069C41.9902 35.7959 41.8717 35.5097 41.8717 35.2114C41.8717 34.913 41.9902 34.6268 42.2012 34.4159C42.4121 34.2049 42.6983 34.0864 42.9967 34.0864H53.9644C54.2628 34.0864 54.5489 34.2049 54.7599 34.4159C54.9709 34.6268 55.0894 34.913 55.0894 35.2114ZM61.2555 40.7239V39.7154L70.0996 34.6093C71.9166 33.5603 72.5413 31.2286 71.4922 29.4116L55.6087 1.90081C55.1021 1.02289 54.2812 0.394433 53.2974 0.130902C52.3142 -0.132348 51.2887 0.00110513 50.411 0.508058L10.1621 23.7455H3.80517C1.70705 23.7455 0 25.4525 0 27.5507V59.3174C0 61.4156 1.70705 63.1226 3.80517 63.1226H41.5204C44.1709 68.383 49.6226 72.0001 55.9041 72.0001C64.7793 72.0001 72 64.7794 72 55.9042C72 48.9042 67.508 42.9346 61.2555 40.7239ZM68.9744 32.661L61.2554 37.1175V27.5507C61.2554 25.4525 59.5485 23.7455 57.4504 23.7455H40.1759L59.2612 12.7267L69.5438 30.5366C69.9723 31.2792 69.7171 32.2322 68.9744 32.661ZM28.2421 23.7455L56.2777 7.55928L58.1362 10.7783L35.6761 23.7456L28.2421 23.7455ZM51.536 2.45642C51.8932 2.25026 52.3124 2.19612 52.7153 2.30426C53.1184 2.41226 53.4541 2.66848 53.6604 3.02567L55.153 5.61078L23.7424 23.7455H14.6618L51.536 2.45642ZM3.80517 60.8726C2.94764 60.8726 2.25 60.175 2.25 59.3174V27.5507C2.25 26.6931 2.94764 25.9955 3.80517 25.9955H57.4507C58.3082 25.9955 59.0057 26.6931 59.0057 27.5507V40.1092C57.984 39.9089 56.9453 39.808 55.9042 39.8081C49.0956 39.8081 43.2612 44.0577 40.9129 50.0435C40.6444 49.9457 40.3608 49.8955 40.075 49.8953H34.6388C33.2873 49.8953 32.1878 50.9947 32.1878 52.3462V53.8049C32.1878 55.1563 33.2872 56.2559 34.6388 56.2559H39.8126C39.8455 57.8248 40.1087 59.3804 40.5939 60.8727H3.80517V60.8726ZM34.6386 54.0057C34.5855 54.0051 34.5348 53.9837 34.4973 53.9461C34.4597 53.9086 34.4383 53.8579 34.4377 53.8048V52.3461C34.4377 52.2372 34.5296 52.1451 34.6386 52.1451H40.0749C40.138 52.1451 40.1944 52.1792 40.232 52.2278C40.0948 52.8141 39.9907 53.4076 39.9203 54.0056H34.6386V54.0057ZM55.9041 69.7501C48.2693 69.7501 42.058 63.5389 42.058 55.9042C42.058 48.2694 48.2693 42.0581 55.9041 42.0581C63.5387 42.0581 69.75 48.2694 69.75 55.9042C69.75 63.5389 63.5387 69.7501 55.9041 69.7501ZM60.643 57.6202H60.6414C59.5848 57.6207 58.5915 58.0325 57.8445 58.7798C57.0977 59.5272 56.6866 60.5208 56.6871 61.5776C56.6875 62.6342 57.0994 63.6274 57.8467 64.3743C58.5938 65.121 59.5866 65.5319 60.6427 65.5319H60.6442C61.7009 65.5315 62.6941 65.1198 63.4411 64.3725C64.1881 63.6251 64.5992 62.6315 64.5988 61.5747C64.5983 60.518 64.1865 59.5247 63.4392 58.7779C62.6922 58.0313 61.6991 57.6202 60.643 57.6202ZM60.6434 63.2819H60.6428C60.4189 63.2825 60.197 63.2387 59.99 63.153C59.7831 63.0673 59.5951 62.9415 59.4371 62.7827C59.1148 62.4607 58.9372 62.0323 58.9371 61.5767C58.9369 61.1211 59.1143 60.6926 59.4363 60.3703C59.7583 60.048 60.1867 59.8704 60.6423 59.8702H60.6428C61.0983 59.8702 61.5265 60.0476 61.8487 60.3694C62.0077 60.5274 62.1337 60.7154 62.2196 60.9224C62.3054 61.1295 62.3493 61.3515 62.3488 61.5756C62.349 62.5162 61.5842 63.2817 60.6434 63.2819ZM51.1667 54.188C52.2233 54.1876 53.2166 53.7758 53.9634 53.0285C54.7104 52.2811 55.1215 51.2876 55.1211 50.2308C55.1206 49.1742 54.7088 48.1809 53.9615 47.4339C53.2143 46.6873 52.2214 46.2764 51.1653 46.2764H51.1637C50.1071 46.2767 49.1138 46.6886 48.367 47.4359C47.62 48.1833 47.2089 49.1768 47.2094 50.2336C47.2098 51.2903 47.6217 52.2835 48.369 53.0305C49.1161 53.7771 50.109 54.188 51.1651 54.188H51.1667ZM49.4594 50.2328C49.4587 50.0087 49.5025 49.7867 49.5882 49.5796C49.6738 49.3725 49.7997 49.1845 49.9586 49.0264C50.1165 48.8674 50.3045 48.7414 50.5114 48.6556C50.7184 48.5698 50.9404 48.5259 51.1644 48.5264H51.1651C51.6206 48.5264 52.0488 48.7038 52.371 49.0257C52.6933 49.3477 52.8709 49.776 52.8711 50.2317C52.8712 50.6873 52.6939 51.1158 52.3718 51.4379C52.2139 51.5969 52.0259 51.7229 51.8189 51.8088C51.6119 51.8946 51.3899 51.9385 51.1658 51.938H51.1653C50.9413 51.9386 50.7194 51.8948 50.5124 51.8091C50.3054 51.7234 50.1175 51.5975 49.9594 51.4388C49.8005 51.2808 49.6744 51.0929 49.5886 50.8859C49.5027 50.6789 49.4588 50.4569 49.4594 50.2328ZM62.2086 49.1206L51.5994 63.8965C51.4952 64.0418 51.3579 64.1601 51.1988 64.2417C51.0397 64.3232 50.8634 64.3657 50.6846 64.3655C50.4495 64.3656 50.2202 64.2916 50.0295 64.1541C49.7871 63.9801 49.6238 63.7169 49.5755 63.4225C49.5272 63.1281 49.5978 62.8265 49.7718 62.5842L60.381 47.8083C60.4671 47.6882 60.5761 47.5863 60.7016 47.5084C60.8271 47.4304 60.9668 47.378 61.1126 47.3541C61.2584 47.3302 61.4075 47.3352 61.5513 47.3689C61.6952 47.4027 61.831 47.4644 61.9509 47.5506C62.1933 47.7247 62.3566 47.9878 62.4049 48.2823C62.4532 48.5767 62.3826 48.8782 62.2086 49.1206Z" fill="#FEBE09"/>
</g>
<defs>
<clipPath id="clip0_7073_1182">
<rect width="72" height="72" fill="white"/>
</clipPath>
</defs>
</svg>
