<svg width="73" height="72" viewBox="0 0 73 72" fill="none" xmlns="http://www.w3.org/2000/svg">
<path d="M23.3375 54.4852C23.3375 55.0294 22.8973 55.4696 22.3531 55.4696H9.06125C8.51703 55.4696 8.07688 55.0294 8.07688 54.4852C8.07688 53.941 8.51703 53.5008 9.06125 53.5008H22.3531C22.8959 53.5008 23.3375 53.9424 23.3375 54.4852ZM9.06125 44.5275H22.1127C22.6569 44.5275 23.097 44.0874 23.097 43.5432C23.097 42.9989 22.6569 42.5588 22.1127 42.5588H9.06125C8.51703 42.5588 8.07688 42.9989 8.07688 43.5432C8.07688 44.0874 8.51703 44.5275 9.06125 44.5275ZM24.8872 31.6168H9.06125C8.51703 31.6168 8.07688 32.0569 8.07688 32.6011C8.07688 33.1454 8.51703 33.5855 9.06125 33.5855H24.8872C25.4314 33.5855 25.8716 33.1454 25.8716 32.6011C25.8716 32.0569 25.4314 31.6168 24.8872 31.6168ZM9.06125 22.6435H32.3544C32.8986 22.6435 33.3388 22.2033 33.3388 21.6591C33.3388 21.1149 32.8986 20.6747 32.3544 20.6747H9.06125C8.51703 20.6747 8.07688 21.1149 8.07688 21.6591C8.07688 22.2033 8.51703 22.6435 9.06125 22.6435ZM71.2344 46.3135C71.2344 58.7827 61.0897 68.9274 48.6205 68.9274C46.5195 68.9274 44.4861 68.6391 42.5553 68.1005H7.32031C4.2575 68.1005 1.76562 65.6086 1.76562 62.5458V8.62598C1.76562 5.56316 4.2575 3.07129 7.32031 3.07129H44.8686C47.9314 3.07129 50.4233 5.56316 50.4233 8.62598V23.7713C62.053 24.6924 71.2344 34.4504 71.2344 46.3135ZM31.3447 11.5186L35.2653 8.93395C35.4263 8.82798 35.6147 8.7715 35.8074 8.7715C36.0001 8.7715 36.1886 8.82798 36.3495 8.93395L40.2702 11.5186V5.04004H31.3447V11.5186ZM37.7375 66.1318C30.7498 62.28 26.0052 54.841 26.0052 46.3135C26.0052 33.8991 36.0598 23.791 48.4531 23.701V8.62598C48.4531 6.64879 46.8444 5.04004 44.8672 5.04004H42.2375V13.3454C42.2375 13.7082 42.0392 14.04 41.72 14.2116C41.5737 14.2904 41.4134 14.3297 41.2531 14.3297C41.0633 14.3297 40.8748 14.2749 40.7117 14.1666L35.8067 10.9336L30.9017 14.1666C30.5994 14.3663 30.2113 14.3832 29.8934 14.2116C29.5756 14.04 29.3759 13.7068 29.3759 13.3454V5.04004H7.32031C5.34312 5.04004 3.73438 6.64879 3.73438 8.62598V62.5458C3.73438 64.523 5.34312 66.1318 7.32031 66.1318H37.7375ZM69.2656 46.3135C69.2656 34.9299 60.0041 25.6683 48.6205 25.6683C37.2369 25.6683 27.9753 34.9299 27.9753 46.3135C27.9753 57.6971 37.2369 66.9586 48.6205 66.9586C60.0041 66.9586 69.2656 57.6985 69.2656 46.3135ZM67.2378 46.9758L64.8584 47.9813C64.6742 48.06 64.4787 48.098 64.2847 48.098C64.0962 48.098 63.9078 48.0614 63.7278 47.9883C63.3889 47.8505 63.1189 47.5974 62.9586 47.2711C62.5297 47.5144 62.3722 47.7675 62.1556 48.1135C61.7773 48.721 61.3653 49.2835 60.4583 49.8432C60.6397 50.1919 60.7508 50.5772 60.7761 50.9822C60.8253 51.7472 60.575 52.4841 60.0716 53.0564C59.5681 53.6302 58.8692 53.9719 58.1042 54.0211C57.9278 54.0327 57.7508 54.027 57.5755 54.0043C57.4745 54.4839 57.2518 54.9295 56.9286 55.298C56.3633 55.9407 55.5716 56.2697 54.7756 56.2697C54.59 56.2697 54.4044 56.25 54.2202 56.2135C54.1089 56.6452 53.8974 57.0446 53.6028 57.3793C53.0994 57.953 52.4005 58.2947 51.6355 58.3439C51.3696 58.3607 51.1026 58.3403 50.8423 58.2835C50.7298 58.6997 50.5259 59.0893 50.2334 59.4225C49.6752 60.0582 48.8947 60.383 48.1002 60.383C47.5053 60.383 46.9048 60.1988 46.3831 59.8289C45.9189 60.1289 45.3777 60.2876 44.825 60.286C44.1289 60.286 43.4652 60.0371 42.9406 59.5758C42.4062 59.1061 42.0913 58.4789 41.9984 57.8236H41.9886C41.3164 57.8236 40.6428 57.5888 40.1 57.1121C39.5769 56.6522 39.2478 56.0293 39.1564 55.3416C38.487 55.3402 37.8162 55.1054 37.2762 54.6314C36.7517 54.1702 36.4381 53.5599 36.3383 52.9186C36.32 52.9186 36.3031 52.92 36.2848 52.92C35.5887 52.92 34.925 52.6711 34.3991 52.2099C33.2122 51.1679 33.0955 49.3538 34.1389 48.1683L34.9531 47.2416C34.8069 47.16 34.52 47.0489 33.9603 46.9407C33.7573 47.2102 33.467 47.4011 33.1391 47.4807C33.0209 47.5102 32.9 47.5243 32.7819 47.5243C32.5161 47.5243 32.2545 47.4525 32.0211 47.3105L29.8105 45.976C29.473 45.7721 29.2353 45.4486 29.1397 45.0647C29.0455 44.6808 29.1045 44.2843 29.3084 43.9468L35.9487 32.9499C36.1527 32.6124 36.4761 32.3747 36.86 32.2791C37.2439 32.1849 37.6405 32.2439 37.978 32.4479L40.1886 33.7824C40.5261 33.9863 40.7637 34.3097 40.8594 34.6936C40.9297 34.9791 40.9142 35.2702 40.8186 35.5402C42.0097 36.2658 42.9491 36.1913 43.7942 36.1224C44.3623 36.076 45.0233 36.0225 45.6237 36.2883C46.1258 35.8735 46.7038 35.4305 47.3872 34.9833C47.4167 34.9636 47.4477 34.9454 47.48 34.9299C49.0775 34.1185 50.7833 34.5235 52.5889 34.951C54.2834 35.3532 56.0272 35.7652 57.8736 35.2393C57.7653 34.9088 57.7766 34.5544 57.9102 34.2268C58.0592 33.8611 58.3405 33.5743 58.7033 33.421L61.0827 32.4155C61.4455 32.2622 61.8477 32.2594 62.2133 32.4071C62.5789 32.5547 62.8658 32.8374 63.0191 33.2002L68.0211 45.0324C68.3403 45.7889 67.9887 46.658 67.2378 46.9758ZM39.0088 34.8005C39.0088 34.7991 39.0088 34.7991 39.0088 34.8005V34.8005ZM38.7556 35.2196L37.3845 34.3927L31.2519 44.5486L32.623 45.3755L38.7556 35.2196ZM36.3523 50.9541C36.5928 50.9386 36.8108 50.8318 36.9669 50.6546L38.9637 48.3821C39.1198 48.2035 39.1972 47.9743 39.1817 47.7338C39.1663 47.4933 39.0594 47.2754 38.8822 47.1193C38.7198 46.9763 38.5107 46.8977 38.2944 46.8985C38.2747 46.8985 38.255 46.8985 38.2339 46.8999C37.9934 46.9154 37.7755 47.0222 37.6194 47.1994L35.6225 49.4719C35.2962 49.8432 35.3328 50.4099 35.7041 50.7347C35.792 50.8128 35.8946 50.8724 36.006 50.9101C36.1173 50.9478 36.2351 50.9628 36.3523 50.9541ZM38.5798 53.1577C38.9497 53.4825 39.5178 53.4474 39.8427 53.0761L40.9803 51.781L41.8381 50.8036C41.9942 50.625 42.0716 50.3958 42.0561 50.1554C42.0406 49.9149 41.9338 49.6969 41.7566 49.5408C41.3853 49.2146 40.8186 49.2511 40.4937 49.6224L40.4909 49.6196C40.4741 49.6393 40.4586 49.6618 40.4417 49.6814L38.4969 51.8949C38.172 52.2647 38.2086 52.8314 38.5798 53.1577ZM42.6664 55.5568L42.6819 55.5399C42.6819 55.5399 42.6819 55.5385 42.6833 55.5385L42.8956 55.2966L42.897 55.2952L44.0445 53.9888C44.1221 53.9006 44.1814 53.7979 44.2188 53.6866C44.2562 53.5753 44.2711 53.4576 44.2625 53.3405C44.2556 53.2234 44.2256 53.1088 44.1742 53.0033C44.1228 52.8978 44.051 52.8036 43.963 52.726C43.8006 52.583 43.5915 52.5044 43.3752 52.5052C43.3555 52.5052 43.3358 52.5052 43.3147 52.5066C43.0742 52.5221 42.8563 52.6289 42.7002 52.8061L41.3234 54.3727C41.1673 54.5513 41.09 54.7805 41.1055 55.021C41.1209 55.2614 41.2278 55.4794 41.405 55.6355C41.7734 55.9646 42.3402 55.928 42.6664 55.5568ZM45.507 58.0205L45.7194 57.7786C45.8755 57.6 45.9528 57.3708 45.9373 57.1304C45.9241 56.9035 45.8244 56.6904 45.6589 56.5348C45.4933 56.3791 45.2744 56.2929 45.0472 56.2936C44.7983 56.2936 44.5522 56.3963 44.375 56.5974L44.1613 56.8407C44.0054 57.0191 43.9267 57.2521 43.9422 57.4885C43.9578 57.7249 44.0664 57.9455 44.2442 58.1021C44.3324 58.1797 44.4351 58.2389 44.5464 58.2763C44.6577 58.3138 44.7754 58.3286 44.8925 58.32C45.1316 58.3046 45.3495 58.1977 45.507 58.0205ZM48.9762 57.4805C48.9694 57.3634 48.9394 57.2488 48.8879 57.1433C48.8365 57.0378 48.7647 56.9436 48.6767 56.866L47.6248 55.9421C47.7856 56.2751 47.8802 56.6361 47.9033 57.0052C47.9328 57.4636 47.8527 57.9108 47.6769 58.32C48.0523 58.5 48.4925 58.4339 48.7583 58.1302C48.9141 57.951 48.9925 57.7174 48.9762 57.4805ZM58.813 51.1116C58.8061 50.9945 58.7761 50.8799 58.7247 50.7744C58.6733 50.6689 58.6015 50.5747 58.5134 50.4971L48.5656 41.7558C48.2872 41.5913 48.1803 41.6489 48.1437 41.67C47.892 41.8191 47.653 42.3802 47.6783 42.7613C47.7683 44.0916 47.0272 45.5654 45.7897 46.5174C45.0163 47.1122 44.1528 47.4216 43.3105 47.4216C42.9477 47.4216 42.5877 47.3639 42.2417 47.2472C41.9548 47.1502 41.7284 46.9266 41.6272 46.6397C41.5259 46.3529 41.5639 46.0364 41.7284 45.7819C42.3092 44.8791 42.1742 43.9861 42.0181 42.9525C41.8016 41.5168 41.5358 39.7463 43.4539 38.1263C42.5089 38.1797 41.2742 38.1221 39.8286 37.2488L35.0417 45.1772C35.5634 45.3263 35.9642 45.5147 36.2736 45.7622C36.7637 45.2725 37.4158 44.9785 38.1073 44.9354C38.8737 44.8875 39.6092 45.1364 40.1816 45.6399C40.6906 46.0871 41.0169 46.6889 41.1181 47.3541C41.8058 47.3414 42.5005 47.5721 43.0573 48.0614C43.6311 48.5649 43.9728 49.2638 44.0234 50.0288C44.0361 50.2243 44.0291 50.4183 44.0023 50.6082C44.465 50.7108 44.8967 50.9274 45.2623 51.248C45.8361 51.7514 46.1778 52.4504 46.2284 53.2154C46.2566 53.6611 46.182 54.0957 46.0161 54.495C46.2791 54.5893 46.5308 54.7229 46.7628 54.8972C46.7122 54.6118 46.7853 54.308 46.992 54.0732C47.3506 53.6654 47.9736 53.6246 48.3814 53.9832L50.8648 56.1643C51.0434 56.3204 51.2713 56.3977 51.5131 56.3836C51.7536 56.3682 51.9716 56.2613 52.1277 56.0841C52.2838 55.9055 52.3611 55.6763 52.3456 55.4358C52.3302 55.1954 52.2233 54.9774 52.0461 54.8213L48.1339 51.383C47.9379 51.2106 47.8183 50.9674 47.8015 50.7069C47.7846 50.4464 47.8718 50.1899 48.0439 49.9936C48.2163 49.7976 48.4595 49.6781 48.72 49.6612C48.9805 49.6443 49.237 49.7315 49.4333 49.9036L54.1892 54.083C54.5591 54.4079 55.1272 54.3727 55.452 54.0014C55.7783 53.6302 55.7417 53.0635 55.3705 52.7386L55.3691 52.7372L50.7622 48.6886C50.3544 48.33 50.3136 47.7071 50.6722 47.2993C51.0308 46.8914 51.6538 46.8507 52.0616 47.2093L57.3322 51.84C57.5108 51.9961 57.74 52.0735 57.9805 52.0594C58.2209 52.0439 58.4389 51.9371 58.595 51.7599C58.7504 51.581 58.8287 51.348 58.813 51.1116ZM62.1866 45.4557L58.6414 37.0688C56.2114 37.8352 53.9755 37.3064 52.1389 36.8705C50.6553 36.5189 49.37 36.2138 48.4194 36.668C47.3942 37.343 46.6348 38.0082 45.9655 38.596C45.597 38.918 45.2497 39.2232 44.9094 39.4805C43.6325 40.4494 43.7577 41.2805 43.9658 42.6572C44.0825 43.4335 44.2189 44.3335 44.0234 45.2911C44.2255 45.2029 44.4159 45.09 44.5902 44.955C45.2975 44.4108 45.7602 43.5614 45.7152 42.8921C45.6505 41.9246 46.1286 40.5732 47.1439 39.9741C47.5841 39.7139 48.4869 39.3905 49.6287 40.0964C49.6372 40.1007 49.6442 40.1063 49.6527 40.1105L49.6822 40.1274V40.1288C49.723 40.1555 49.7637 40.1836 49.8003 40.2174L59.0759 48.368C59.9661 47.9082 60.2122 47.5158 60.4892 47.0743C60.8717 46.4541 61.2683 45.9211 62.1866 45.4557ZM64.7361 46.4288C64.7361 46.4274 64.7361 46.4274 64.7347 46.426L64.7361 46.4288ZM66.0186 45.353L61.3991 34.425L59.9239 35.048L64.5434 45.976L66.0186 45.353Z" fill="#FEBE09"/>
</svg>
