<svg width="73" height="72" viewBox="0 0 73 72" fill="none" xmlns="http://www.w3.org/2000/svg">
<path d="M34.7278 13.0693C34.456 13.0693 34.1953 13.1772 34.0031 13.3694C33.8109 13.5616 33.7029 13.8223 33.7029 14.0941C33.7029 14.3659 33.8109 14.6266 34.0031 14.8188C34.1953 15.011 34.456 15.119 34.7278 15.119H39.3437C40.3347 15.119 41.141 14.3128 41.141 13.3219V9.7702C41.141 8.77916 40.3347 7.9729 39.3437 7.9729H18.1457C17.1547 7.9729 16.3484 8.77916 16.3484 9.7702V13.322C16.3484 14.3129 17.1547 15.1191 18.1457 15.1191H29.9105C30.1823 15.1191 30.443 15.0112 30.6352 14.819C30.8274 14.6268 30.9354 14.3661 30.9354 14.0943C30.9354 13.8225 30.8274 13.5618 30.6352 13.3696C30.443 13.1774 30.1823 13.0694 29.9105 13.0694H18.3983V10.0228H39.0911V13.0691L34.7278 13.0693ZM11.7675 20.381C11.7675 20.5156 11.794 20.6489 11.8455 20.7733C11.897 20.8976 11.9725 21.0106 12.0677 21.1058C12.1629 21.201 12.2758 21.2764 12.4002 21.3279C12.5245 21.3794 12.6578 21.4059 12.7924 21.4059H44.914C45.0486 21.4059 45.1819 21.3794 45.3063 21.3279C45.4306 21.2764 45.5436 21.201 45.6388 21.1058C45.734 21.0106 45.8094 20.8976 45.8609 20.7733C45.9124 20.6489 45.9389 20.5156 45.9389 20.381C45.9389 20.2465 45.9124 20.1132 45.8609 19.9888C45.8094 19.8645 45.734 19.7515 45.6388 19.6563C45.5436 19.5611 45.4306 19.4856 45.3063 19.4341C45.1819 19.3826 45.0486 19.3561 44.914 19.3562H12.7924C12.6578 19.3561 12.5245 19.3826 12.4002 19.4341C12.2758 19.4856 12.1628 19.5611 12.0676 19.6563C11.9725 19.7514 11.897 19.8644 11.8455 19.9888C11.794 20.1132 11.7675 20.2464 11.7675 20.381ZM12.7924 27.8547H44.914C45.0486 27.8547 45.1819 27.8282 45.3063 27.7767C45.4306 27.7252 45.5436 27.6497 45.6388 27.5546C45.734 27.4594 45.8094 27.3464 45.8609 27.222C45.9124 27.0977 45.9389 26.9644 45.9389 26.8298C45.9389 26.6952 45.9124 26.5619 45.8609 26.4376C45.8094 26.3132 45.734 26.2002 45.6388 26.1051C45.5436 26.0099 45.4306 25.9344 45.3063 25.8829C45.1819 25.8314 45.0486 25.8049 44.914 25.8049H12.7924C12.5206 25.8049 12.2599 25.9129 12.0677 26.1051C11.8755 26.2973 11.7675 26.558 11.7675 26.8298C11.7675 27.1016 11.8755 27.3623 12.0677 27.5545C12.2599 27.7467 12.5206 27.8547 12.7924 27.8547ZM38.5781 33.2787C38.5782 33.1441 38.5517 33.0108 38.5002 32.8865C38.4487 32.7621 38.3732 32.6491 38.278 32.554C38.1828 32.4588 38.0698 32.3833 37.9455 32.3318C37.8211 32.2803 37.6879 32.2538 37.5533 32.2538H12.7924C12.5206 32.2538 12.2599 32.3618 12.0677 32.554C11.8755 32.7462 11.7675 33.0069 11.7675 33.2787C11.7675 33.5505 11.8755 33.8112 12.0677 34.0034C12.2599 34.1956 12.5206 34.3036 12.7924 34.3036H37.5531C37.825 34.3036 38.0856 34.1956 38.2779 34.0034C38.4701 33.8112 38.5781 33.5505 38.5781 33.2787ZM25.5945 40.7524C25.8663 40.7524 26.127 40.6444 26.3192 40.4522C26.5114 40.26 26.6194 39.9993 26.6194 39.7275C26.6194 39.4557 26.5114 39.195 26.3192 39.0028C26.127 38.8106 25.8663 38.7026 25.5945 38.7026H12.7924C12.5206 38.7026 12.2599 38.8106 12.0677 39.0028C11.8755 39.195 11.7675 39.4557 11.7675 39.7275C11.7675 39.9993 11.8755 40.26 12.0677 40.4522C12.2599 40.6444 12.5206 40.7524 12.7924 40.7524H25.5945ZM11.5567 60.6816C12.1014 60.8376 12.6681 60.5212 12.8232 59.9767C12.8298 59.9539 13.5021 57.6994 16.1195 57.6994C17.4115 57.6994 18.0247 58.2069 18.8735 58.9096C19.8487 59.7169 21.0626 60.7215 23.4079 60.7215C26.3322 60.7215 27.9042 57.6296 27.9698 57.498C28.2213 56.9927 28.0158 56.3807 27.5113 56.1274C27.0069 55.874 26.3916 56.078 26.1363 56.5814C26.1256 56.6023 25.0573 58.6716 23.4079 58.6716C21.8009 58.6716 21.0858 58.0797 20.1805 57.3304C19.2285 56.5424 18.1498 55.6495 16.1194 55.6495C12.8011 55.6495 11.2227 58.1126 10.8517 59.415C10.7772 59.6765 10.8097 59.9568 10.9419 60.1943C11.0741 60.4318 11.2953 60.6071 11.5567 60.6816Z" fill="#FEBE09"/>
<path d="M69.9269 12.809C69.8767 12.6837 69.8023 12.5696 69.7079 12.4732C69.6135 12.3768 69.501 12.3 69.3768 12.2471L66.9953 11.2338C67.1951 10.7289 66.944 10.1295 66.4496 9.91592L65.9748 9.71087L66.7452 7.92661C67.6155 5.90727 66.6529 3.48665 64.6357 2.61519C62.6199 1.7444 60.197 2.70725 59.326 4.72238L58.5321 6.56023C57.6239 6.40193 56.7053 6.90094 56.3407 7.74513L54.2058 12.689V7.44209C54.2058 4.59845 51.8923 2.28516 49.0488 2.28516H8.65744C5.81472 2.28516 3.50195 4.59792 3.50195 7.44064V64.5595C3.50195 67.4022 5.81472 69.715 8.65744 69.715H49.0503C51.893 69.715 54.2056 67.4022 54.2056 64.5595V50.2099C54.2056 49.938 54.0977 49.6774 53.9055 49.4852C53.7132 49.293 53.4526 49.185 53.1808 49.185C52.9089 49.185 52.6483 49.293 52.4561 49.4852C52.2639 49.6774 52.1559 49.938 52.1559 50.2099V64.5595C52.1559 66.272 50.7628 67.6651 49.0504 67.6651H8.65744C6.94496 67.6651 5.55185 66.272 5.55185 64.5595V7.44064C5.55185 5.72816 6.94509 4.33505 8.65744 4.33505H49.0488C50.762 4.33505 52.1559 5.72882 52.1559 7.44209V17.4357L36.446 53.8204C36.3906 53.9489 36.3617 54.0874 36.3612 54.2273L36.3732 62.861C36.3748 64.7875 38.7571 65.8249 40.1672 64.4991L46.4582 58.5875C46.5455 58.5051 46.6175 58.4079 46.671 58.3004C46.6765 58.2895 46.6821 58.2787 46.6872 58.2675C46.6905 58.2605 46.6943 58.2538 46.6973 58.2467L66.184 13.1163L67.6275 13.7304L60.0042 31.4574C59.8968 31.7071 59.893 31.9892 59.9937 32.2417C60.0943 32.4942 60.2911 32.6964 60.5408 32.8038C60.7905 32.9112 61.0727 32.915 61.3252 32.8144C61.5777 32.7137 61.7798 32.5169 61.8872 32.2672L69.9169 13.5952C69.9702 13.4712 69.9986 13.338 70.0003 13.2031C70.002 13.0681 69.9771 12.9342 69.9269 12.809ZM63.1515 4.33861C64.5109 4.40841 65.397 5.87632 64.863 7.11442L64.0929 8.89789L60.437 7.31961L61.2077 5.53549C61.5377 4.7719 62.3174 4.29251 63.1515 4.33861ZM58.2086 8.59037L64.6961 11.3915L56.4531 30.4819L49.9645 27.6801L58.2086 8.59037ZM45.2218 56.4933L38.7344 53.6918L49.1521 29.5622L55.6406 32.364L45.2218 56.4933ZM38.7631 63.0053C38.6369 63.1239 38.423 63.033 38.423 62.859L38.4134 55.7861L43.9168 58.1625L38.7631 63.0053Z" fill="#FEBE09"/>
</svg>
