<svg width="32" height="32" viewBox="0 0 32 32" fill="none" xmlns="http://www.w3.org/2000/svg">
<g clip-path="url(#clip0_6023_159)">
<path d="M19.375 30.75H7.5C4.04819 30.75 1.25 27.9518 1.25 24.5V7.5C1.25 4.04819 4.04819 1.25 7.5 1.25H24.5C27.9518 1.25 30.75 4.04819 30.75 7.5V19.4688" stroke="#FEBE09" stroke-width="2" stroke-miterlimit="10" stroke-linecap="round" stroke-linejoin="round"/>
<path d="M13.0625 7.875H24.5H13.0625Z" fill="#FEBE09"/>
<path d="M13.0625 7.875H24.5" stroke="#FEBE09" stroke-width="2" stroke-miterlimit="10" stroke-linecap="round" stroke-linejoin="round"/>
<path d="M7.5 12.875H24.5" stroke="#FEBE09" stroke-width="2" stroke-miterlimit="10" stroke-linecap="round" stroke-linejoin="round"/>
<path d="M7.5 17.875H12" stroke="#FEBE09" stroke-width="2" stroke-miterlimit="10" stroke-linecap="round" stroke-linejoin="round"/>
<path d="M6.25 7.75C6.25 8.61294 6.94956 9.3125 7.8125 9.3125C8.67544 9.3125 9.375 8.61294 9.375 7.75C9.375 6.887 8.67544 6.1875 7.8125 6.1875C6.94956 6.1875 6.25 6.887 6.25 7.75Z" fill="#FEBE09"/>
<path d="M29.7798 29.7798C31.0734 28.4862 31.0734 26.3888 29.7798 25.0952L25.398 20.7134C24.3103 19.6257 22.9249 18.8843 21.4165 18.5829L17.875 17.875L18.5829 21.4165C18.8844 22.9248 19.6258 24.3102 20.7134 25.398L25.0952 29.7798C26.3889 31.0734 28.4862 31.0734 29.7798 29.7798Z" stroke="#FEBE09" stroke-width="2" stroke-miterlimit="10" stroke-linecap="round" stroke-linejoin="round"/>
</g>
<defs>
<clipPath id="clip0_6023_159">
<rect width="32" height="32" fill="white"/>
</clipPath>
</defs>
</svg>
