<svg width="73" height="72" viewBox="0 0 73 72" fill="none" xmlns="http://www.w3.org/2000/svg">
<path d="M62.249 41.6994V12.1506C62.249 11.7013 62.105 11.1009 61.7998 10.8013L52.7998 1.80133C52.5002 1.50181 51.75 1.35205 51.2993 1.35205H15.75C13.1998 1.35205 11.25 3.30181 11.25 5.85205V62.8501C11.25 65.4004 13.1998 67.3501 15.75 67.3501H47.25C49.8002 69.1501 52.7998 70.3497 56.25 70.3497C64.4998 70.3497 71.2505 63.6004 71.2505 55.3492C71.249 49.3501 67.4993 44.0999 62.249 41.6994ZM53.249 6.59941L57.1486 10.4989H54.7495C53.8495 10.4989 53.249 9.89845 53.249 8.99845V6.59941ZM15.75 64.5004C14.85 64.5004 14.2495 63.8999 14.2495 62.9999V6.00037C14.2495 5.10037 14.85 4.49989 15.75 4.49989H50.2495V8.99989C50.2495 11.5501 52.1993 13.4999 54.7495 13.4999H59.2495V40.7994C58.2595 40.618 57.2563 40.5178 56.25 40.4999C48.0002 40.4999 41.2495 47.2506 41.2495 55.5004C41.2495 58.9564 42.449 61.9501 44.249 64.5004H15.75ZM56.25 67.4999C53.8767 67.4999 51.5567 66.7961 49.5834 65.4776C47.6101 64.1591 46.0721 62.285 45.1639 60.0924C44.2557 57.8998 44.018 55.4871 44.481 53.1594C44.9441 50.8317 46.0869 48.6936 47.7651 47.0154C49.4432 45.3373 51.5813 44.1944 53.909 43.7314C56.2367 43.2684 58.6494 43.506 60.842 44.4143C63.0346 45.3225 64.9087 46.8605 66.2272 48.8338C67.5458 50.8071 68.2495 53.1271 68.2495 55.5004C68.24 58.6799 66.9727 61.7265 64.7245 63.9748C62.4762 66.2231 59.4296 67.4904 56.25 67.4999Z" fill="#FEBE09"/>
<path d="M23.2505 22.5H36.7505C37.6505 22.5 38.251 21.8995 38.251 20.9995C38.251 20.0995 37.6505 19.499 36.7505 19.499H23.2505C22.3505 19.499 21.75 20.0995 21.75 20.9995C21.75 21.8995 22.3505 22.5 23.2505 22.5Z" fill="#FEBE09"/>
<path d="M23.2505 29.9995H50.2505C51.1505 29.9995 51.751 29.399 51.751 28.499C51.751 27.599 51.1505 27 50.2505 27H23.2505C22.3505 27 21.75 27.6005 21.75 28.5005C21.75 29.4005 22.3505 29.9995 23.2505 29.9995ZM45.7505 36C45.7505 35.1 45.15 34.4995 44.25 34.4995H23.2505C22.3505 34.4995 21.75 35.1 21.75 36C21.75 36.9 22.3505 37.5005 23.2505 37.5005H44.25C45.15 37.5005 45.7505 36.9 45.7505 36ZM61.35 49.6498C60.5998 49.3502 59.6998 49.6498 59.4002 50.2502L55.8002 57.4502L52.8007 54.4507C52.6633 54.3109 52.4995 54.1997 52.3189 54.1235C52.1383 54.0473 51.9443 54.0076 51.7483 54.0068C51.5523 54.006 51.358 54.044 51.1767 54.1186C50.9954 54.1932 50.8307 54.303 50.6921 54.4416C50.5535 54.5803 50.4437 54.745 50.3691 54.9262C50.2944 55.1075 50.2564 55.3018 50.2573 55.4978C50.2581 55.6939 50.2978 55.8878 50.374 56.0684C50.4502 56.2491 50.5614 56.4128 50.7012 56.5502L55.2012 61.056C55.3331 61.2027 55.4953 61.3189 55.6765 61.3967C55.8578 61.4745 56.0538 61.5121 56.251 61.5067H56.5505C57.0012 61.3627 57.4505 61.0574 57.6002 60.7565L62.0945 51.7507C62.2383 51.369 62.2425 50.9487 62.1063 50.5642C61.97 50.1796 61.7021 49.8557 61.35 49.6498Z" fill="#FEBE09"/>
</svg>
