<svg width="72" height="72" viewBox="0 0 72 72" fill="none" xmlns="http://www.w3.org/2000/svg">
<g clip-path="url(#clip0_7073_535)">
<path d="M47.13 32.7885C47.4284 32.7885 47.7146 32.907 47.9255 33.118C48.1365 33.329 48.255 33.6152 48.255 33.9135V35.5695C51.2325 36.1026 53.4999 38.7095 53.4999 41.8379C53.4999 42.1362 53.3814 42.4224 53.1704 42.6334C52.9595 42.8444 52.6733 42.9629 52.3749 42.9629C52.0766 42.9629 51.7904 42.8444 51.5794 42.6334C51.3685 42.4224 51.2499 42.1362 51.2499 41.8379C51.2499 39.5662 49.4017 37.718 47.13 37.718C44.8584 37.718 43.0102 39.5662 43.0102 41.8379C43.0102 44.1095 44.8584 45.9578 47.13 45.9578C50.6424 45.9578 53.4999 48.8153 53.4999 52.3277C53.4999 55.456 51.2324 58.0631 48.255 58.5962V60.2522C48.255 60.5505 48.1365 60.8367 47.9255 61.0477C47.7146 61.2586 47.4284 61.3772 47.13 61.3772C46.8317 61.3772 46.5455 61.2586 46.3346 61.0477C46.1236 60.8367 46.005 60.5505 46.005 60.2522V58.5962C43.0277 58.0631 40.7602 55.4561 40.7602 52.3277C40.7602 52.0293 40.8787 51.7431 41.0897 51.5322C41.3006 51.3212 41.5868 51.2027 41.8852 51.2027C42.1835 51.2027 42.4697 51.3212 42.6807 51.5322C42.8916 51.7431 43.0102 52.0293 43.0102 52.3277C43.0102 54.5995 44.8584 56.4475 47.13 56.4475C49.4018 56.4475 51.2499 54.5993 51.2499 52.3277C51.2499 50.056 49.4017 48.2078 47.13 48.2078C43.6177 48.2078 40.7602 45.3503 40.7602 41.8379C40.7602 38.7095 43.0277 36.1026 46.005 35.5695V33.9134C46.0051 33.615 46.1236 33.3289 46.3346 33.118C46.5456 32.907 46.8317 32.7885 47.13 32.7885ZM47.13 22.2128C60.8434 22.2128 72 33.3694 72 47.0829C72 60.7964 60.8434 71.953 47.13 71.953C33.4167 71.953 22.2601 60.7964 22.2601 47.0829C22.2601 33.3694 33.4167 22.2128 47.13 22.2128ZM47.13 24.4628C34.6573 24.4628 24.5101 34.6102 24.5101 47.0829C24.5101 59.5556 34.6573 69.703 47.13 69.703C59.6028 69.703 69.75 59.5556 69.75 47.0829C69.75 34.6102 59.6028 24.4628 47.13 24.4628ZM4.19934 69.526H29.6762C29.9746 69.526 30.2607 69.4074 30.4717 69.1965C30.6827 68.9855 30.8012 68.6993 30.8012 68.401C30.8012 68.1026 30.6827 67.8164 30.4717 67.6055C30.2607 67.3945 29.9746 67.276 29.6762 67.276H4.19934C3.12455 67.276 2.25014 66.4016 2.25014 65.3268V4.24657C2.25014 3.17177 3.12455 2.29736 4.19934 2.29736H49.9068C50.9816 2.29736 51.856 3.17177 51.856 4.24657V19.8759C51.856 20.1743 51.9746 20.4604 52.1855 20.6714C52.3965 20.8824 52.6827 21.0009 52.981 21.0009C53.2794 21.0009 53.5655 20.8824 53.7765 20.6714C53.9875 20.4604 54.106 20.1743 54.106 19.8759V4.24657C54.106 1.93118 52.2222 0.0473633 49.9068 0.0473633H4.19934C1.88381 0.0473633 0 1.93104 0 4.24657V65.3268C0 67.6421 1.88381 69.526 4.19934 69.526ZM8.41655 16.3049H45.6891C45.9874 16.3049 46.2736 16.1864 46.4846 15.9754C46.6955 15.7644 46.8141 15.4782 46.8141 15.1799C46.8141 14.8815 46.6955 14.5954 46.4846 14.3844C46.2736 14.1734 45.9874 14.0549 45.6891 14.0549H8.41655C8.11818 14.0549 7.83203 14.1734 7.62105 14.3844C7.41007 14.5954 7.29155 14.8815 7.29155 15.1799C7.29155 15.4782 7.41007 15.7644 7.62105 15.9754C7.83203 16.1864 8.11818 16.3049 8.41655 16.3049ZM19.8304 35.0079C19.8304 34.7095 19.7118 34.4233 19.5009 34.2124C19.2899 34.0014 19.0037 33.8829 18.7054 33.8829H8.41655C8.11818 33.8829 7.83203 34.0014 7.62105 34.2124C7.41007 34.4233 7.29155 34.7095 7.29155 35.0079C7.29155 35.3062 7.41007 35.5924 7.62105 35.8034C7.83203 36.0143 8.11818 36.1329 8.41655 36.1329H18.7054C19.0037 36.1329 19.2899 36.0143 19.5009 35.8034C19.7118 35.5924 19.8304 35.3062 19.8304 35.0079ZM8.41655 46.0466H16.3305C16.6289 46.0466 16.915 45.9281 17.126 45.7171C17.337 45.5062 17.4555 45.22 17.4555 44.9216C17.4555 44.6233 17.337 44.3371 17.126 44.1262C16.915 43.9152 16.6289 43.7966 16.3305 43.7966H8.41655C8.11818 43.7966 7.83203 43.9152 7.62105 44.1262C7.41007 44.3371 7.29155 44.6233 7.29155 44.9216C7.29155 45.22 7.41007 45.5062 7.62105 45.7171C7.83203 45.9281 8.11818 46.0466 8.41655 46.0466ZM8.41655 55.9607H17.236C17.5344 55.9607 17.8205 55.8422 18.0315 55.6312C18.2425 55.4202 18.361 55.1341 18.361 54.8357C18.361 54.5373 18.2425 54.2512 18.0315 54.0402C17.8205 53.8292 17.5344 53.7107 17.236 53.7107H8.41655C8.11818 53.7107 7.83203 53.8292 7.62105 54.0402C7.41007 54.2512 7.29155 54.5373 7.29155 54.8357C7.29155 55.1341 7.41007 55.4202 7.62105 55.6312C7.83203 55.8422 8.11818 55.9607 8.41655 55.9607ZM26.9744 24.7124C26.9744 24.4141 26.8559 24.1279 26.6449 23.9169C26.4339 23.706 26.1478 23.5874 25.8494 23.5874H8.41655C8.11818 23.5874 7.83203 23.706 7.62105 23.9169C7.41007 24.1279 7.29155 24.4141 7.29155 24.7124C7.29155 25.0108 7.41007 25.2969 7.62105 25.5079C7.83203 25.7189 8.11818 25.8374 8.41655 25.8374H25.8493C25.997 25.8374 26.1433 25.8084 26.2798 25.7518C26.4163 25.6953 26.5404 25.6124 26.6449 25.508C26.7493 25.4035 26.8322 25.2795 26.8888 25.143C26.9453 25.0065 26.9744 24.8602 26.9744 24.7124Z" fill="#FEBE09"/>
</g>
<defs>
<clipPath id="clip0_7073_535">
<rect width="72" height="72" fill="white"/>
</clipPath>
</defs>
</svg>
