<svg width="72" height="72" viewBox="0 0 72 72" fill="none" xmlns="http://www.w3.org/2000/svg">
<g clip-path="url(#clip0_6023_183)">
<path d="M63.1103 23.5344H57.9203V13.321C57.9203 11.572 57.2247 9.94191 56.0865 8.75011L52.7329 5.24095C49.8869 2.30864 49.5278 1.48022 47.8327 0.657422C47.0452 0.264375 46.0075 0 44.9613 0H20.4655C16.8164 0 13.8488 2.96902 13.8488 6.61669V42.2986H12.4534C10.3482 42.2986 8.63613 44.0107 8.63613 46.1159C8.63613 47.1635 9.06026 48.1122 9.74454 48.8021C9.06026 49.492 8.63613 50.4406 8.63613 51.4883C8.63613 51.8813 8.69126 52.1146 8.71109 52.2433C0.42743 53.0859 -2.87248 63.3389 3.19001 68.9037C5.02095 70.5847 7.45123 71.5376 10.0865 71.4302C10.9574 71.4302 28.8874 71.4232 28.91 71.4232C31.0138 71.4232 32.7273 69.711 32.7273 67.6059C32.7273 66.5582 32.3032 65.6096 31.6189 64.9197C32.2623 64.2707 32.675 63.3956 32.7217 62.4229H34.1539V63.1877C34.1539 68.047 38.1069 72 42.9662 72H63.1103C67.9696 72 71.9226 68.047 71.9226 63.1877V32.3467C71.9227 27.4874 67.9696 23.5344 63.1103 23.5344ZM54.1058 9.9533C54.1058 9.9533 54.1072 9.9533 54.1086 9.95611C54.11 9.95611 54.11 9.95611 54.11 9.95611C54.1114 9.95892 54.1143 9.96173 54.1157 9.96314L54.1171 9.96455C54.1199 9.96877 54.1227 9.97158 54.1255 9.97298C54.1269 9.97439 54.1283 9.9758 54.1297 9.97861C54.1311 9.98002 54.1325 9.98001 54.1325 9.98142C54.1339 9.98283 54.1354 9.98283 54.1368 9.98564C54.1396 9.98705 54.141 9.98986 54.1424 9.99127H48.4744V3.99966C52.9168 8.69498 53.9178 9.75389 54.1058 9.9533ZM12.4534 44.5607H28.9102C29.767 44.5607 30.4654 45.2592 30.4654 46.1159C30.4654 46.9741 29.7669 47.671 28.9102 47.671H12.4534C11.5966 47.671 10.8982 46.9741 10.8982 46.1159C10.8981 45.259 11.5966 44.5607 12.4534 44.5607ZM12.4534 49.9331H28.9102C29.767 49.9331 30.4654 50.6316 30.4654 51.4883C30.4654 52.3465 29.7669 53.0435 28.9102 53.0435H17.543C17.0807 52.8314 16.6014 52.6589 16.1108 52.526C15.3784 52.3266 14.6206 52.2135 13.8487 52.1937C13.6268 52.188 13.4047 52.1895 13.1828 52.1993H11.072C10.9604 51.9858 10.8981 51.7441 10.8981 51.4882C10.8981 50.6316 11.5966 49.9331 12.4534 49.9331ZM30.4654 56.8609C30.4654 57.7191 29.7669 58.416 28.9102 58.416H22.5805C22.1508 57.2722 21.5032 56.2189 20.6606 55.3057H28.9102C29.7669 55.3057 30.4654 56.004 30.4654 56.8609ZM6.95074 54.8307C6.26224 55.4839 5.64996 56.26 5.1693 57.1154H3.85165C4.7127 56.0479 5.78299 55.2887 6.95074 54.8307ZM2.64846 59.236H4.2956C4.2589 59.3944 4.07215 60.0037 3.98735 60.9313H2.24698C2.3149 60.3488 2.4492 59.7804 2.64846 59.236ZM2.83085 64.8419C2.58068 64.2735 2.4011 63.6727 2.29929 63.052H4.02701C4.33666 64.808 4.35354 64.5054 4.43131 64.8419H2.83085ZM4.24188 66.9625C4.93601 66.9611 5.33904 66.9653 5.43368 66.9597C5.8564 67.627 6.36532 68.2449 6.95496 68.8005C5.92995 68.3976 5.01813 67.7827 4.24188 66.9625ZM13.8926 69.311C9.75438 69.4891 6.25085 66.284 6.07549 62.1359C5.79129 55.532 13.6789 51.7288 18.6457 56.2882C23.542 60.7828 20.5616 69.0366 13.8926 69.311ZM28.9102 69.1611H19.7812C20.792 68.3056 21.622 67.2467 22.2115 66.0507H28.9102C29.767 66.0507 30.4654 66.7492 30.4654 67.6059C30.4654 68.464 29.7669 69.1611 28.9102 69.1611ZM30.4527 62.4229C30.3593 63.192 29.7033 63.7886 28.9102 63.7886H22.992C23.197 62.8075 23.2549 61.7498 23.1291 60.6783H28.9102C29.8631 60.6781 30.5742 61.5308 30.4527 62.4229ZM34.1539 60.1606H32.1124C31.9696 59.9387 31.8041 59.7337 31.6189 59.5471C33.0963 58.0569 33.0977 55.6647 31.6189 54.1747C32.3032 53.4847 32.7273 52.5361 32.7273 51.4884C32.7273 50.4408 32.3032 49.4921 31.6189 48.8022C33.9969 46.4044 32.2976 42.2987 28.91 42.2987H16.1108V6.61669C16.1108 4.21608 18.0646 2.26209 20.4654 2.26209H46.2124V11.1225C46.2124 11.7474 46.7185 12.2535 47.3434 12.2535H55.5237C55.7599 13.1697 55.6142 12.867 55.658 23.5343H42.9662C38.1069 23.5343 34.1539 27.4873 34.1539 32.3466V60.1606ZM69.802 63.1877C69.802 66.8777 66.8005 69.8794 63.1103 69.8794H42.9664C39.2778 69.8794 36.2747 66.8779 36.2747 63.1877V32.3467C36.2747 28.6567 39.2776 25.6551 42.9664 25.6551H63.1105C66.8005 25.6551 69.8021 28.6566 69.8021 32.3467V63.1877H69.802Z" fill="#FEBE09"/>
<path d="M63.0356 28.0601H43.0414C41.0753 28.0601 39.4814 29.6539 39.4814 31.62V35.501C39.4814 37.467 41.0753 39.0609 43.0414 39.0609H46.8883C47.4739 39.0609 47.9486 38.5861 47.9486 38.0006C47.9486 37.415 47.4739 36.9402 46.8883 36.9402H43.0414C42.2498 36.9402 41.6021 36.2925 41.6021 35.501V31.62C41.6021 30.8284 42.2498 30.1807 43.0414 30.1807H63.0356C63.8301 30.1807 64.4749 30.8269 64.4749 31.62V35.501C64.4749 36.2941 63.8301 36.9402 63.0356 36.9402H51.4607C50.8752 36.9402 50.4004 37.415 50.4004 38.0006C50.4004 38.5861 50.8752 39.0609 51.4607 39.0609H63.0356C64.9994 39.0609 66.5955 37.4632 66.5955 35.501V31.62C66.5955 29.6577 64.9993 28.0601 63.0356 28.0601Z" fill="#FEBE09"/>
<path d="M45.3247 50.4039H41.7011C40.4781 50.4039 39.4814 51.3993 39.4814 52.6236V56.2458C39.4814 57.4702 40.4782 58.4654 41.7011 58.4654H45.3247C46.5491 58.4654 47.5443 57.4701 47.5443 56.2458V52.6236C47.5443 51.3993 46.549 50.4039 45.3247 50.4039ZM45.4236 56.2458C45.4236 56.3009 45.3783 56.3448 45.3246 56.3448H41.7009C41.6472 56.3448 41.6019 56.3009 41.6019 56.2458V52.6236C41.6019 52.5684 41.6472 52.5246 41.7009 52.5246H45.3246C45.3783 52.5246 45.4236 52.5684 45.4236 52.6236V56.2458Z" fill="#FEBE09"/>
<path d="M64.4903 40.9314H60.8681C59.6436 40.9314 58.6484 41.9267 58.6484 43.151V46.7732C58.6484 47.9977 59.6438 48.9929 60.8681 48.9929H64.4903C65.7147 48.9929 66.7099 47.9975 66.7099 46.7732V43.151C66.7099 41.9267 65.7146 40.9314 64.4903 40.9314ZM64.5893 46.7732C64.5893 46.8284 64.5454 46.8722 64.4903 46.8722H60.8681C60.8143 46.8722 60.7691 46.8284 60.7691 46.7732C60.8129 43.1893 60.6771 43.052 60.8681 43.052H64.4903C64.5454 43.052 64.5893 43.0959 64.5893 43.151V46.7732Z" fill="#FEBE09"/>
<path d="M45.3247 40.9314H41.7011C40.4781 40.9314 39.4814 41.9267 39.4814 43.151V46.7732C39.4814 47.9977 40.4782 48.9929 41.7011 48.9929H45.3247C46.5491 48.9929 47.5443 47.9975 47.5443 46.7732V43.151C47.5443 41.9267 46.549 40.9314 45.3247 40.9314ZM45.4236 46.7732C45.4236 46.8284 45.3783 46.8722 45.3246 46.8722H41.7009C41.6472 46.8722 41.6019 46.8284 41.6019 46.7732V43.151C41.6019 43.0959 41.6472 43.052 41.7009 43.052H45.3246C45.3783 43.052 45.4236 43.0959 45.4236 43.151V46.7732Z" fill="#FEBE09"/>
<path d="M46.9858 60.1607C46.5785 59.7027 45.9848 59.4128 45.3246 59.4128H41.7009C41.0407 59.4128 40.4469 59.7027 40.0411 60.1607C39.2707 61.0245 39.5322 61.9662 39.4813 62.4228V65.2547C39.4813 66.4791 40.4781 67.4743 41.7009 67.4743H45.3246C46.549 67.4743 47.5442 66.479 47.5442 65.2547V62.4228C47.4933 61.9762 47.752 61.0245 46.9858 60.1607ZM45.3246 65.3537C41.7448 65.3098 41.6019 65.4457 41.6019 65.2547C41.6019 61.419 41.5595 61.5335 41.7009 61.5335H45.3246C45.4985 61.5335 45.3911 61.7752 45.4236 62.4228C45.4234 62.4229 45.5154 65.3537 45.3246 65.3537Z" fill="#FEBE09"/>
<path d="M63.9274 50.4039H61.4306C59.8967 50.4039 58.6482 51.6524 58.6482 53.1863V64.4361C58.6482 66.1115 60.0111 67.4744 61.6851 67.4744H63.673C65.3484 67.4744 66.7099 66.1115 66.7099 64.4361V53.1863C66.7098 51.6524 65.4629 50.4039 63.9274 50.4039ZM63.673 65.3536H61.6851C61.1804 65.3536 60.769 64.9422 60.769 64.4361V53.1863C60.769 52.8216 61.0658 52.5247 61.4306 52.5247H63.9274C64.2922 52.5247 64.589 52.8216 64.589 53.1863V64.4361C64.5892 64.9422 64.1791 65.3536 63.673 65.3536Z" fill="#FEBE09"/>
<path d="M27.3722 30.8008C26.0793 30.3258 25.1452 29.9827 25.1452 28.7848C25.1452 27.6932 25.8703 27.1397 27.3 27.1397C28.8178 27.1397 29.2265 27.8078 29.7611 27.8078C30.343 27.8078 30.6649 27.1903 30.6649 26.7632C30.6649 25.8798 29.2239 25.4418 27.9358 25.3262V24.5297C27.9358 23.9756 27.4851 23.5249 26.931 23.5249C26.377 23.5249 25.9263 23.9756 25.9263 24.5297V25.4532C24.1649 25.8714 23.1972 27.0879 23.1972 28.8904C23.1972 31.3584 25.014 32.0412 26.4743 32.59C27.9039 33.1272 29.0332 33.5516 29.0332 35.1838C29.0332 36.532 28.2847 37.2156 26.808 37.2156C24.6469 37.2156 24.6266 35.7565 23.8023 35.7565C23.2918 35.7565 22.8806 36.328 22.8806 36.801C22.8806 37.6366 24.125 38.7349 25.9263 39.0199V39.7896C25.9263 40.3437 26.377 40.7944 26.931 40.7944C27.4851 40.7944 27.9358 40.3437 27.9358 39.7896V38.9993C29.8733 38.6346 30.9815 37.2119 30.9815 35.0782C30.9813 32.1269 28.9802 31.3917 27.3722 30.8008Z" fill="#FEBE09"/>
<path d="M56.3892 60.035C55.9905 59.6504 55.4476 59.4128 54.8509 59.4128H51.2273C50.567 59.4128 49.9732 59.7027 49.5661 60.1607C48.7984 61.026 49.0586 61.9662 49.0076 62.4228V65.2547C49.0076 66.4791 50.003 67.4743 51.2273 67.4743H54.8509C56.0739 67.4743 57.0691 66.479 57.0691 65.2547V61.6311C57.0691 61.0049 56.8076 60.4379 56.3892 60.035ZM54.8509 65.3537C51.2711 65.3098 51.1283 65.4457 51.1283 65.2547V61.6311C51.1283 61.5773 51.1736 61.5335 51.2273 61.5335H54.8509C54.9046 61.5335 54.9485 61.5773 54.9485 61.6311C54.906 65.2194 55.0389 65.3537 54.8509 65.3537Z" fill="#FEBE09"/>
<path d="M54.8508 40.9314H51.2272C50.0028 40.9314 49.0076 41.9267 49.0076 43.151V46.7732C49.0076 47.9977 50.0029 48.9929 51.2272 48.9929H54.8508C55.1364 48.9929 55.4078 48.9391 55.6581 48.8402C56.4838 48.5164 57.0692 47.7119 57.0692 46.7731V43.1509C57.069 41.9224 56.0681 40.9314 54.8508 40.9314ZM54.8508 46.8722H51.2272C51.1735 46.8722 51.1282 46.8284 51.1282 46.7732V43.151C51.1282 42.9602 51.2597 43.0945 54.8508 43.052C54.9045 43.052 54.9484 43.0959 54.9484 43.151V46.7732C54.9484 46.8284 54.9045 46.8722 54.8508 46.8722Z" fill="#FEBE09"/>
<path d="M55.6581 50.5566C55.408 50.4576 55.1364 50.4039 54.8508 50.4039H51.2272C50.0028 50.4039 49.0076 51.3993 49.0076 52.6236V56.2458C49.0076 57.4702 50.0029 58.4654 51.2272 58.4654H54.8508C56.0738 58.4654 57.069 57.4701 57.069 56.2458V52.6236C57.069 51.6849 56.4838 50.8804 55.6581 50.5566ZM54.9484 56.2458C54.9484 56.3009 54.9045 56.3448 54.8508 56.3448H51.2272C51.1735 56.3448 51.1282 56.3009 51.1282 56.2458V52.6236C51.1282 52.5684 51.1735 52.5246 51.2272 52.5246H54.8508C54.9045 52.5246 54.9484 52.5684 54.9484 52.6236V56.2458Z" fill="#FEBE09"/>
<path d="M48.7305 14.4901H46.0669C45.4816 14.4901 45.0066 14.9651 45.0066 15.5504C45.0066 16.1371 45.4816 16.6107 46.0669 16.6107H48.7305C49.3158 16.6107 49.7908 16.1371 49.7908 15.5504C49.7909 14.9651 49.3158 14.4901 48.7305 14.4901Z" fill="#FEBE09"/>
<path d="M41.8254 14.4901H23.0217C22.4365 14.4901 21.9614 14.9651 21.9614 15.5504C21.9614 16.1371 22.4365 16.6107 23.0217 16.6107H41.8256C42.4108 16.6107 42.8859 16.1371 42.8859 15.5504C42.8859 14.9651 42.4108 14.4901 41.8254 14.4901Z" fill="#FEBE09"/>
<path d="M26.3922 19.7539H23.0217C22.4365 19.7539 21.9614 20.2289 21.9614 20.8142C21.9614 21.3995 22.4365 21.8745 23.0217 21.8745H26.3922C26.9775 21.8745 27.4526 21.3995 27.4526 20.8142C27.4526 20.2289 26.9775 19.7539 26.3922 19.7539Z" fill="#FEBE09"/>
<path d="M48.7304 19.7539H30.6336C30.0483 19.7539 29.5732 20.2289 29.5732 20.8142C29.5732 21.3995 30.0483 21.8745 30.6336 21.8745H48.7304C49.3157 21.8745 49.7908 21.3995 49.7908 20.8142C49.7909 20.2289 49.3157 19.7539 48.7304 19.7539Z" fill="#FEBE09"/>
<path d="M12.9703 59.788C12.9703 59.5215 13.0684 59.445 13.1603 59.3941C13.4452 59.2365 14.0988 59.1901 14.6976 59.498C14.8566 59.5798 15.0369 59.6724 15.2715 59.6724C16.3173 59.6724 17.1445 57.7291 14.6463 57.2995V57.2327C14.6463 56.6403 14.1642 56.1582 13.5717 56.1582C12.9793 56.1582 12.4972 56.6403 12.4972 57.2327V57.4366C11.4504 57.8163 10.8582 58.6796 10.8582 59.8514C10.8582 61.6599 12.1721 62.1536 13.1317 62.514C14.0468 62.8579 14.3632 63.0083 14.3632 63.6307C14.3632 64.0198 14.2584 64.38 13.4978 64.38C12.3894 64.38 12.5221 63.5039 11.6926 63.5039C11.1063 63.5039 10.668 64.0837 10.668 64.6022C10.668 65.3368 11.4318 66.034 12.4972 66.3167V66.3971C12.4972 66.9896 12.9793 67.4716 13.5717 67.4716C14.1642 67.4716 14.6463 66.9897 14.6463 66.3971V66.2886C15.7991 65.918 16.4754 64.9253 16.4754 63.5675C16.4754 60.3453 12.9703 60.8292 12.9703 59.788Z" fill="#FEBE09"/>
</g>
<defs>
<clipPath id="clip0_6023_183">
<rect width="72" height="72" fill="white"/>
</clipPath>
</defs>
</svg>
