<svg width="34" height="34" viewBox="0 0 34 34" fill="none" xmlns="http://www.w3.org/2000/svg">
<path d="M16.3607 2.19072C16.3607 1.87492 16.2337 1.57206 16.0077 1.34875C15.7818 1.12545 15.4753 1 15.1557 1C14.8362 1 14.5297 1.12545 14.3037 1.34875C14.0778 1.57206 13.9508 1.87492 13.9508 2.19072V4.57217H16.3607V2.19072ZM23.2459 2.19072C23.2459 1.87492 23.119 1.57206 22.893 1.34875C22.667 1.12545 22.3605 1 22.041 1C21.7214 1 21.4149 1.12545 21.189 1.34875C20.963 1.57206 20.8361 1.87492 20.8361 2.19072V4.57217H23.2459V2.19072ZM7.40984 29.067C7.41057 28.3905 7.68283 27.7419 8.16688 27.2636C8.65094 26.7852 9.30725 26.5162 9.9918 26.5155H14.8115C16.1349 26.514 17.4038 25.9938 18.3396 25.069C19.2754 24.1442 19.8018 22.8903 19.8033 21.5825V19.9563C19.0051 20.0833 18.1916 20.0833 17.3934 19.9563V21.5825C17.3927 22.259 17.1205 22.9075 16.6364 23.3859C16.1523 23.8642 15.496 24.1333 14.8115 24.134H9.9918C8.66789 24.134 7.39821 24.6537 6.46207 25.5789C5.52592 26.504 5 27.7587 5 29.067C5 30.3753 5.52592 31.63 6.46207 32.5552C7.39821 33.4803 8.66789 34 9.9918 34H25.3115V31.6186H9.9918C9.30725 31.6178 8.65094 31.3488 8.16688 30.8704C7.68283 30.3921 7.41057 29.7435 7.40984 29.067ZM24.7951 6.95361H12.4016C12.0821 6.95361 11.7756 7.07906 11.5496 7.30236C11.3237 7.52567 11.1967 7.82853 11.1967 8.14433C11.1967 8.46013 11.3237 8.76299 11.5496 8.9863C11.7756 9.2096 12.0821 9.33505 12.4016 9.33505H12.5738V11.7165C12.5738 13.2955 13.2085 14.8098 14.3383 15.9263C15.4682 17.0429 17.0005 17.6701 18.5984 17.6701C20.1962 17.6701 21.7286 17.0429 22.8584 15.9263C23.9882 14.8098 24.6229 13.2955 24.6229 11.7165V9.33505H24.7951C25.1146 9.33505 25.4211 9.2096 25.6471 8.9863C25.8731 8.76299 26 8.46013 26 8.14433C26 7.82853 25.8731 7.52567 25.6471 7.30236C25.4211 7.07906 25.1146 6.95361 24.7951 6.95361ZM18.5984 12.9072C18.3601 12.9072 18.1271 12.8374 17.9289 12.7065C17.7308 12.5757 17.5764 12.3897 17.4852 12.1722C17.394 11.9546 17.3701 11.7152 17.4166 11.4842C17.4631 11.2532 17.5778 11.0411 17.7464 10.8745C17.9149 10.708 18.1296 10.5946 18.3633 10.5487C18.597 10.5027 18.8393 10.5263 19.0595 10.6164C19.2796 10.7065 19.4678 10.8592 19.6002 11.055C19.7326 11.2508 19.8033 11.481 19.8033 11.7165C19.8033 12.0323 19.6763 12.3352 19.4504 12.5585C19.2244 12.7818 18.9179 12.9072 18.5984 12.9072Z" fill="#A59EA9"/>
</svg>
