<svg width="34" height="34" viewBox="0 0 34 34" fill="none" xmlns="http://www.w3.org/2000/svg">
<g id="Frame">
<path id="Vector" d="M25.7055 31.0636V32.9697C25.7055 33.2788 25.4995 33.4848 25.1904 33.4848H2.06007C1.8025 33.4848 1.54492 33.2788 1.54492 32.9697V31.0636C1.54492 30.3939 2.06007 29.8273 2.78129 29.8273H24.4692C25.1389 29.8273 25.7055 30.3939 25.7055 31.0636ZM32.351 9.11817L31.9389 7.83029C31.8873 7.67574 31.8358 7.57271 31.7328 7.46968L30.651 4.43029C30.548 4.17271 30.2389 4.01817 29.9813 4.1212C29.7237 4.22423 29.5692 4.53332 29.6722 4.79089L30.3419 6.69695C30.1358 6.69695 29.8783 6.69695 29.6722 6.79998C29.2086 6.95453 28.848 7.26362 28.6419 7.67574C28.4358 8.08786 28.4358 8.60302 28.5904 9.01514L29.054 10.303C29.3116 11.0242 29.9813 11.4879 30.7025 11.4879C30.8055 11.4879 30.9601 11.4879 31.0631 11.4363V22.6667C31.0631 24.006 29.9813 25.0879 28.6419 25.0879C27.3025 25.0879 26.2207 24.006 26.2207 22.6667V10.9212C26.2207 10.6636 26.0146 10.406 25.7055 10.406H23.5934V3.76059C23.5934 1.95756 22.151 0.515137 20.348 0.515137H6.9025C5.09947 0.515137 3.65704 1.95756 3.65704 3.76059V28.797H23.6449V11.4363H25.2419V22.6667C25.2419 23.5821 25.6055 24.46 26.2528 25.1072C26.9001 25.7545 27.778 26.1182 28.6934 26.1182C29.6088 26.1182 30.4867 25.7545 31.134 25.1072C31.7813 24.46 32.1449 23.5821 32.1449 22.6667V10.7667C32.454 10.303 32.557 9.68483 32.351 9.11817ZM20.348 10.6727C20.348 10.9303 20.1419 11.1879 19.8328 11.1879H7.41765C7.16007 11.1879 6.9025 10.9303 6.9025 10.6727V5.46059C6.9025 5.1515 7.16007 4.94544 7.41765 4.94544H19.8328C20.1419 4.94544 20.348 5.1515 20.348 5.46059V10.6727Z" fill="#A59EA9"/>
<path id="D" d="M9 24.8V14H12.495C12.58 14 12.755 14.0025 13.02 14.0075C13.285 14.0125 13.54 14.03 13.785 14.06C14.655 14.165 15.3925 14.4675 15.9975 14.9675C16.6025 15.4675 17.0625 16.1025 17.3775 16.8725C17.6925 17.6425 17.85 18.485 17.85 19.4C17.85 20.315 17.6925 21.1575 17.3775 21.9275C17.0625 22.6975 16.6025 23.3325 15.9975 23.8325C15.3925 24.3325 14.655 24.635 13.785 24.74C13.54 24.77 13.285 24.7875 13.02 24.7925C12.755 24.7975 12.58 24.8 12.495 24.8H9ZM11.07 22.88H12.495C12.63 22.88 12.8125 22.8775 13.0425 22.8725C13.2725 22.8625 13.48 22.84 13.665 22.805C14.135 22.71 14.5175 22.49 14.8125 22.145C15.1125 21.8 15.3325 21.385 15.4725 20.9C15.6175 20.415 15.69 19.915 15.69 19.4C15.69 18.86 15.615 18.3475 15.465 17.8625C15.32 17.3775 15.0975 16.9675 14.7975 16.6325C14.4975 16.2975 14.12 16.085 13.665 15.995C13.48 15.955 13.2725 15.9325 13.0425 15.9275C12.8125 15.9225 12.63 15.92 12.495 15.92H11.07V22.88Z" fill="white"/>
</g>
</svg>
