<svg width="73" height="72" viewBox="0 0 73 72" fill="none" xmlns="http://www.w3.org/2000/svg">
<path d="M56.583 33.75C51.5689 33.75 43.083 32.8027 43.083 29.25C43.083 25.6973 51.5689 24.75 56.583 24.75C61.5971 24.75 70.083 25.6973 70.083 29.25C70.083 32.8027 61.5971 33.75 56.583 33.75ZM56.583 27C49.7846 27 45.6401 28.4962 45.3263 29.2972C45.6401 30.0037 49.7846 31.5 56.583 31.5C63.2486 31.5 67.3628 30.0623 67.8173 29.25C67.3628 28.4378 63.2486 27 56.583 27Z" fill="#FEBE09"/>
<path d="M56.583 40.5C51.5689 40.5 43.083 39.5516 43.083 36V29.25C43.083 28.9516 43.2015 28.6655 43.4125 28.4545C43.6235 28.2435 43.9096 28.125 44.208 28.125C44.5064 28.125 44.7925 28.2435 45.0035 28.4545C45.2145 28.6655 45.333 28.9516 45.333 29.25V36C45.6401 36.7537 49.7835 38.25 56.583 38.25C63.3825 38.25 67.5259 36.7537 67.8398 35.9528L67.833 29.25C67.833 28.9516 67.9515 28.6655 68.1625 28.4545C68.3735 28.2435 68.6596 28.125 68.958 28.125C69.2564 28.125 69.5425 28.2435 69.7535 28.4545C69.9645 28.6655 70.083 28.9516 70.083 29.25V36C70.083 39.5516 61.5971 40.5 56.583 40.5Z" fill="#FEBE09"/>
<path d="M56.583 47.25C51.5689 47.25 43.083 46.3016 43.083 42.75V36C43.083 35.7016 43.2015 35.4155 43.4125 35.2045C43.6235 34.9935 43.9096 34.875 44.208 34.875C44.5064 34.875 44.7925 34.9935 45.0035 35.2045C45.2145 35.4155 45.333 35.7016 45.333 36V42.75C45.6401 43.5049 49.7835 45 56.583 45C63.3825 45 67.5259 43.5049 67.8398 42.7028L67.833 36C67.833 35.7016 67.9515 35.4155 68.1625 35.2045C68.3735 34.9935 68.6596 34.875 68.958 34.875C69.2564 34.875 69.5425 34.9935 69.7535 35.2045C69.9645 35.4155 70.083 35.7016 70.083 36V42.75C70.083 46.3016 61.5971 47.25 56.583 47.25Z" fill="#FEBE09"/>
<path d="M56.583 54C51.5689 54 43.083 53.0516 43.083 49.5V42.75C43.083 42.4516 43.2015 42.1655 43.4125 41.9545C43.6235 41.7435 43.9096 41.625 44.208 41.625C44.5064 41.625 44.7925 41.7435 45.0035 41.9545C45.2145 42.1655 45.333 42.4516 45.333 42.75V49.5C45.6401 50.2549 49.7835 51.75 56.583 51.75C63.3825 51.75 67.5259 50.2549 67.8398 49.4528L67.833 42.75C67.833 42.4516 67.9515 42.1655 68.1625 41.9545C68.3735 41.7435 68.6596 41.625 68.958 41.625C69.2564 41.625 69.5425 41.7435 69.7535 41.9545C69.9645 42.1655 70.083 42.4516 70.083 42.75V49.5C70.083 53.0516 61.5971 54 56.583 54ZM36.333 47.25C31.3189 47.25 22.833 46.3016 22.833 42.75C22.833 39.1984 31.3189 38.25 36.333 38.25C37.5154 38.25 38.6798 38.2939 39.7958 38.3805C40.0932 38.4038 40.3693 38.5443 40.5632 38.7711C40.7571 38.9979 40.8529 39.2924 40.8296 39.5899C40.8064 39.8874 40.6659 40.1634 40.4391 40.3573C40.2123 40.5512 39.9177 40.647 39.6203 40.6238C38.5628 40.5416 37.458 40.5 36.333 40.5C29.5335 40.5 25.3901 41.9951 25.0763 42.7972C25.3901 43.5049 29.5335 45 36.333 45C37.458 45 38.5628 44.9584 39.6203 44.8762C39.7676 44.8647 39.9157 44.8823 40.0562 44.928C40.1967 44.9738 40.3268 45.0467 40.4391 45.1427C40.5514 45.2387 40.6437 45.3559 40.7107 45.4876C40.7777 45.6193 40.8181 45.7628 40.8296 45.9101C40.8412 46.0574 40.8236 46.2055 40.7778 46.346C40.7321 46.4865 40.6592 46.6166 40.5632 46.7289C40.4672 46.8412 40.35 46.9335 40.2183 47.0005C40.0866 47.0676 39.9431 47.108 39.7958 47.1195C38.6798 47.2061 37.5154 47.25 36.333 47.25Z" fill="#FEBE09"/>
<path d="M36.333 54C31.3189 54 22.833 53.0516 22.833 49.5V42.75C22.833 42.4516 22.9515 42.1655 23.1625 41.9545C23.3735 41.7435 23.6596 41.625 23.958 41.625C24.2564 41.625 24.5425 41.7435 24.7535 41.9545C24.9645 42.1655 25.083 42.4516 25.083 42.75V49.5C25.3901 50.2549 29.5335 51.75 36.333 51.75C37.458 51.75 38.5628 51.7084 39.6203 51.6262C39.7676 51.6147 39.9157 51.6323 40.0562 51.678C40.1967 51.7238 40.3268 51.7967 40.4391 51.8927C40.5514 51.9887 40.6437 52.1059 40.7107 52.2376C40.7777 52.3693 40.8181 52.5128 40.8296 52.6601C40.8412 52.8074 40.8236 52.9555 40.7778 53.096C40.7321 53.2365 40.6592 53.3666 40.5632 53.4789C40.4672 53.5912 40.35 53.6835 40.2183 53.7505C40.0866 53.8176 39.9431 53.858 39.7958 53.8695C38.6798 53.9561 37.5154 54 36.333 54Z" fill="#FEBE09"/>
<path d="M36.333 60.75C31.3189 60.75 22.833 59.8016 22.833 56.25V49.5C22.833 49.2016 22.9515 48.9155 23.1625 48.7045C23.3735 48.4935 23.6596 48.375 23.958 48.375C24.2564 48.375 24.5425 48.4935 24.7535 48.7045C24.9645 48.9155 25.083 49.2016 25.083 49.5V56.25C25.3901 57.0049 29.5335 58.5 36.333 58.5C37.458 58.5 38.5628 58.4584 39.6203 58.3762C39.7676 58.3647 39.9157 58.3823 40.0562 58.428C40.1967 58.4738 40.3268 58.5467 40.4391 58.6427C40.5514 58.7387 40.6437 58.8559 40.7107 58.9876C40.7777 59.1193 40.8181 59.2628 40.8296 59.4101C40.8412 59.5574 40.8236 59.7055 40.7778 59.846C40.7321 59.9865 40.6592 60.1166 40.5632 60.2289C40.4672 60.3412 40.35 60.4335 40.2183 60.5005C40.0866 60.5676 39.9431 60.608 39.7958 60.6195C38.6798 60.7061 37.5154 60.75 36.333 60.75ZM16.083 54C11.0689 54 2.58301 53.0516 2.58301 49.5C2.58301 45.9484 11.0689 45 16.083 45C17.2654 45 18.4298 45.0439 19.5458 45.1305C19.6931 45.142 19.8366 45.1824 19.9683 45.2495C20.1 45.3165 20.2172 45.4088 20.3132 45.5211C20.4092 45.6334 20.4821 45.7635 20.5278 45.904C20.5736 46.0445 20.5912 46.1926 20.5796 46.3399C20.5681 46.4872 20.5277 46.6307 20.4607 46.7624C20.3937 46.8941 20.3014 47.0113 20.1891 47.1073C20.0768 47.2033 19.9467 47.2762 19.8062 47.322C19.6657 47.3677 19.5176 47.3853 19.3703 47.3738C18.3128 47.2916 17.208 47.25 16.083 47.25C9.28351 47.25 5.14013 48.7451 4.82626 49.5472C5.14013 50.2549 9.28351 51.75 16.083 51.75C17.208 51.75 18.3128 51.7084 19.3703 51.6262C19.5176 51.6147 19.6657 51.6323 19.8062 51.678C19.9467 51.7238 20.0768 51.7967 20.1891 51.8927C20.3014 51.9887 20.3937 52.1059 20.4607 52.2376C20.5277 52.3693 20.5681 52.5128 20.5796 52.6601C20.5912 52.8074 20.5736 52.9555 20.5278 53.096C20.4821 53.2365 20.4092 53.3666 20.3132 53.4789C20.2172 53.5912 20.1 53.6835 19.9683 53.7505C19.8366 53.8176 19.6931 53.858 19.5458 53.8695C18.4298 53.9561 17.2654 54 16.083 54Z" fill="#FEBE09"/>
<path d="M16.083 60.75C11.0689 60.75 2.58301 59.8016 2.58301 56.25V49.5C2.58301 49.2016 2.70153 48.9155 2.91251 48.7045C3.12349 48.4935 3.40964 48.375 3.70801 48.375C4.00638 48.375 4.29252 48.4935 4.5035 48.7045C4.71448 48.9155 4.83301 49.2016 4.83301 49.5V56.25C5.14013 57.0049 9.28351 58.5 16.083 58.5C17.208 58.5 18.3128 58.4584 19.3703 58.3762C19.5176 58.3647 19.6657 58.3823 19.8062 58.428C19.9467 58.4738 20.0768 58.5467 20.1891 58.6427C20.3014 58.7387 20.3937 58.8559 20.4607 58.9876C20.5277 59.1193 20.5681 59.2628 20.5796 59.4101C20.5912 59.5574 20.5736 59.7055 20.5278 59.846C20.4821 59.9865 20.4092 60.1166 20.3132 60.2289C20.2172 60.3412 20.1 60.4335 19.9683 60.5005C19.8366 60.5676 19.6931 60.608 19.5458 60.6195C18.4298 60.7061 17.2654 60.75 16.083 60.75Z" fill="#FEBE09"/>
<path d="M16.083 67.5C11.0689 67.5 2.58301 66.5516 2.58301 63V56.25C2.58301 55.9516 2.70153 55.6655 2.91251 55.4545C3.12349 55.2435 3.40964 55.125 3.70801 55.125C4.00638 55.125 4.29252 55.2435 4.5035 55.4545C4.71448 55.6655 4.83301 55.9516 4.83301 56.25V63C5.14013 63.7549 9.28351 65.25 16.083 65.25C17.208 65.25 18.3128 65.2084 19.3703 65.1262C19.5176 65.1147 19.6657 65.1323 19.8062 65.178C19.9467 65.2238 20.0768 65.2967 20.1891 65.3927C20.3014 65.4887 20.3937 65.6059 20.4607 65.7376C20.5277 65.8693 20.5681 66.0128 20.5796 66.1601C20.5912 66.3074 20.5736 66.4555 20.5278 66.596C20.4821 66.7365 20.4092 66.8666 20.3132 66.9789C20.2172 67.0912 20.1 67.1835 19.9683 67.2505C19.8366 67.3176 19.6931 67.358 19.5458 67.3695C18.4298 67.4561 17.2654 67.5 16.083 67.5ZM36.333 67.5C31.3189 67.5 22.833 66.5516 22.833 63V56.25C22.833 55.9516 22.9515 55.6655 23.1625 55.4545C23.3735 55.2435 23.6596 55.125 23.958 55.125C24.2564 55.125 24.5425 55.2435 24.7535 55.4545C24.9645 55.6655 25.083 55.9516 25.083 56.25V63C25.3901 63.7549 29.5335 65.25 36.333 65.25C37.458 65.25 38.5628 65.2084 39.6203 65.1262C39.7676 65.1147 39.9157 65.1323 40.0562 65.178C40.1967 65.2238 40.3268 65.2967 40.4391 65.3927C40.5514 65.4887 40.6437 65.6059 40.7107 65.7376C40.7777 65.8693 40.8181 66.0128 40.8296 66.1601C40.8412 66.3074 40.8236 66.4555 40.7778 66.596C40.7321 66.7365 40.6592 66.8666 40.5632 66.9789C40.4672 67.0912 40.35 67.1835 40.2183 67.2505C40.0866 67.3176 39.9431 67.358 39.7958 67.3695C38.6798 67.4561 37.5154 67.5 36.333 67.5ZM56.583 60.75C51.5689 60.75 43.083 59.8016 43.083 56.25V49.5C43.083 49.2016 43.2015 48.9155 43.4125 48.7045C43.6235 48.4935 43.9096 48.375 44.208 48.375C44.5064 48.375 44.7925 48.4935 45.0035 48.7045C45.2145 48.9155 45.333 49.2016 45.333 49.5V56.25C45.6401 57.0049 49.7835 58.5 56.583 58.5C63.3825 58.5 67.5259 57.0049 67.8398 56.2028L67.833 49.5C67.833 49.2016 67.9515 48.9155 68.1625 48.7045C68.3735 48.4935 68.6596 48.375 68.958 48.375C69.2564 48.375 69.5425 48.4935 69.7535 48.7045C69.9645 48.9155 70.083 49.2016 70.083 49.5V56.25C70.083 59.8016 61.5971 60.75 56.583 60.75Z" fill="#FEBE09"/>
<path d="M56.583 67.5001C51.5689 67.5001 43.083 66.5517 43.083 63.0001V56.2501C43.083 55.9517 43.2015 55.6655 43.4125 55.4546C43.6235 55.2436 43.9096 55.1251 44.208 55.1251C44.5064 55.1251 44.7925 55.2436 45.0035 55.4546C45.2145 55.6655 45.333 55.9517 45.333 56.2501V63.0001C45.6401 63.7549 49.7835 65.2501 56.583 65.2501C63.3825 65.2501 67.5259 63.7549 67.8398 62.9528L67.833 56.2501C67.833 55.9517 67.9515 55.6655 68.1625 55.4546C68.3735 55.2436 68.6596 55.1251 68.958 55.1251C69.2564 55.1251 69.5425 55.2436 69.7535 55.4546C69.9645 55.6655 70.083 55.9517 70.083 56.2501V63.0001C70.083 66.5517 61.5971 67.5001 56.583 67.5001ZM49.833 22.5001C49.6103 22.5002 49.3926 22.4343 49.2074 22.3106C49.0222 22.187 48.8778 22.0111 48.7927 21.8053C48.7075 21.5996 48.6853 21.3731 48.7289 21.1548C48.7725 20.9364 48.88 20.7358 49.0376 20.5786L64.7876 4.82856C64.8922 4.72411 65.0162 4.64127 65.1528 4.58477C65.2893 4.52827 65.4356 4.49922 65.5834 4.49927C65.7312 4.49932 65.8775 4.52848 66.014 4.58507C66.1505 4.64167 66.2745 4.7246 66.3789 4.82912C66.4834 4.93364 66.5662 5.05772 66.6227 5.19426C66.6792 5.3308 66.7083 5.47713 66.7082 5.62489C66.7082 5.77266 66.679 5.91897 66.6224 6.05547C66.5658 6.19197 66.4829 6.31598 66.3784 6.42043L50.6284 22.1704C50.4175 22.3814 50.1314 22.5 49.833 22.5001ZM54.333 12.3751C53.6655 12.3751 53.013 12.1771 52.458 11.8063C51.9029 11.4354 51.4704 10.9083 51.2149 10.2916C50.9595 9.67491 50.8926 8.99631 51.0229 8.34163C51.1531 7.68694 51.4745 7.08558 51.9465 6.61357C52.4185 6.14157 53.0199 5.82013 53.6746 5.68991C54.3293 5.55968 55.0079 5.62652 55.6246 5.88196C56.2413 6.13741 56.7684 6.56999 57.1392 7.12501C57.5101 7.68002 57.708 8.33255 57.708 9.00006C57.708 9.89516 57.3524 10.7536 56.7195 11.3865C56.0866 12.0195 55.2281 12.3751 54.333 12.3751ZM54.333 7.87506C54.1105 7.87506 53.893 7.94104 53.708 8.06465C53.523 8.18827 53.3788 8.36397 53.2936 8.56954C53.2085 8.77511 53.1862 9.00131 53.2296 9.21953C53.273 9.43776 53.3802 9.63822 53.5375 9.79555C53.6948 9.95289 53.8953 10.06 54.1135 10.1034C54.3318 10.1469 54.558 10.1246 54.7635 10.0394C54.9691 9.95427 55.1448 9.81008 55.2684 9.62508C55.392 9.44007 55.458 9.22256 55.458 9.00006C55.458 8.70169 55.3395 8.41554 55.1285 8.20456C54.9175 7.99358 54.6314 7.87506 54.333 7.87506ZM62.208 20.2501C61.5405 20.2501 60.888 20.0521 60.333 19.6813C59.7779 19.3104 59.3454 18.7833 59.0899 18.1666C58.8345 17.5499 58.7676 16.8713 58.8979 16.2166C59.0281 15.5619 59.3495 14.9606 59.8215 14.4886C60.2935 14.0166 60.8949 13.6951 61.5496 13.5649C62.2043 13.4347 62.8829 13.5015 63.4996 13.757C64.1163 14.0124 64.6434 14.445 65.0142 15C65.3851 15.555 65.583 16.2075 65.583 16.8751C65.583 17.7702 65.2274 18.6286 64.5945 19.2615C63.9616 19.8945 63.1031 20.2501 62.208 20.2501ZM62.208 15.7501C61.9855 15.7501 61.768 15.816 61.583 15.9397C61.398 16.0633 61.2538 16.239 61.1686 16.4445C61.0835 16.6501 61.0612 16.8763 61.1046 17.0945C61.148 17.3128 61.2552 17.5132 61.4125 17.6706C61.5698 17.8279 61.7703 17.935 61.9885 17.9784C62.2068 18.0219 62.433 17.9996 62.6385 17.9144C62.8441 17.8293 63.0198 17.6851 63.1434 17.5001C63.267 17.3151 63.333 17.0976 63.333 16.8751C63.333 16.5767 63.2145 16.2905 63.0035 16.0796C62.7925 15.8686 62.5064 15.7501 62.208 15.7501Z" fill="#FEBE09"/>
</svg>
