<svg width="72" height="72" viewBox="0 0 72 72" fill="none" xmlns="http://www.w3.org/2000/svg">
<path fill-rule="evenodd" clip-rule="evenodd" d="M27.3342 35.1397C29.1031 35.1397 30.5422 33.7005 30.5422 31.9316C30.5422 30.1627 29.103 28.7237 27.3342 28.7237C25.5653 28.7237 24.1261 30.1628 24.1261 31.9318C24.1263 33.7007 25.5654 35.1397 27.3342 35.1397ZM27.3342 30.9737C27.5882 30.974 27.8317 31.075 28.0113 31.2546C28.1908 31.4342 28.2919 31.6776 28.2922 31.9316C28.2922 32.4599 27.8624 32.8897 27.3342 32.8897C26.806 32.8897 26.3761 32.4598 26.3761 31.9316C26.3761 31.4034 26.806 30.9737 27.3342 30.9737ZM24.7367 39.821C25.9076 40.4978 27.2289 40.8717 28.5808 40.9086C29.9327 40.9456 31.2725 40.6446 32.4786 40.0327L37.5449 42.9577C37.6809 43.0363 37.8319 43.0855 37.9881 43.1022C38.1444 43.1188 38.3023 43.1026 38.4519 43.0545L39.8417 42.6073L40.1494 44.0345C40.1825 44.1881 40.2474 44.333 40.34 44.4599C40.4325 44.5869 40.5506 44.693 40.6866 44.7716C40.8227 44.8501 40.9737 44.8993 41.1299 44.916C41.2861 44.9327 41.444 44.9165 41.5936 44.8684L42.9834 44.4212L43.2911 45.8484C43.3242 46.002 43.3891 46.1469 43.4816 46.2739C43.5742 46.4008 43.6922 46.507 43.8283 46.5856L44.8965 47.2024C45.1428 47.3446 45.4339 47.3883 45.7111 47.3244L50.4576 46.2329C50.6082 46.1983 50.75 46.133 50.8743 46.0412C50.9985 45.9493 51.1025 45.8328 51.1798 45.699C51.257 45.5652 51.3059 45.4169 51.3233 45.2634C51.3407 45.1099 51.3263 44.9544 51.281 44.8067L49.8529 40.1503C49.7695 39.8784 49.5862 39.6481 49.3399 39.5058L36.9219 32.3362C36.8487 30.9858 36.4395 29.675 35.7315 28.5227C35.0236 27.3704 34.0391 26.4131 32.8675 25.7375C28.9849 23.4959 24.0021 24.8309 21.7603 28.7137C19.5188 32.5965 20.8539 37.5791 24.7367 39.821ZM23.7092 29.8387C25.3306 27.0304 28.9344 26.0647 31.7428 27.6861C32.6634 28.2172 33.4229 28.9879 33.9404 29.9162C34.4579 30.8445 34.7141 31.8957 34.6817 32.958C34.6758 33.161 34.7249 33.3619 34.8239 33.5392C34.9228 33.7165 35.0679 33.8638 35.2438 33.9653L47.832 41.2331L48.7759 44.311L45.6384 45.0325L45.3856 44.8865L44.9212 42.7329C44.8881 42.5793 44.8232 42.4344 44.7307 42.3074C44.6382 42.1804 44.5201 42.0742 44.384 41.9957C44.248 41.9171 44.097 41.8679 43.9407 41.8513C43.7845 41.8346 43.6265 41.8509 43.477 41.899L42.0872 42.3462L41.7795 40.919C41.7464 40.7654 41.6814 40.6205 41.5889 40.4935C41.4964 40.3666 41.3783 40.2604 41.2422 40.1819C41.1062 40.1033 40.9552 40.0541 40.799 40.0375C40.6428 40.0208 40.4848 40.037 40.3353 40.085L38.238 40.7598L33.0503 37.7647C32.8744 37.6633 32.6744 37.6113 32.4713 37.6143C32.2682 37.6172 32.0698 37.6751 31.8969 37.7818C30.9931 38.3409 29.9546 38.6446 28.892 38.6606C27.8293 38.6766 26.7821 38.4043 25.8619 37.8726C23.0535 36.2509 22.0878 32.647 23.7092 29.8387ZM47.6541 50.8385L36.3458 53.9148C35.9914 54.0125 35.6283 54.0748 35.2617 54.1007C35.4083 53.9188 35.5405 53.7257 35.657 53.5232C36.7174 51.6865 36.0983 49.3075 34.2475 48.1073C34.205 48.0797 34.1606 48.055 34.1147 48.0335C31.4565 46.7813 28.9593 45.0408 26.9527 43.6422C26.2517 43.1535 25.5893 42.6918 25.0183 42.3214C22.6558 40.7887 20.0635 41.195 17.8392 41.7946L9.65429 44.001L9.43463 43.1518C9.07336 41.7554 7.64321 40.9132 6.2468 41.2745L3.08583 42.0923C1.68957 42.4537 0.847505 43.8839 1.20863 45.2802L5.45733 61.6993C5.63199 62.3741 6.06033 62.9414 6.66347 63.2966C7.0646 63.5343 7.52217 63.66 7.98844 63.6605C8.21002 63.6604 8.43069 63.6322 8.64516 63.5765L11.806 62.7586C12.4808 62.5839 13.0481 62.1556 13.4033 61.5524C13.7584 60.9493 13.8578 60.2455 13.6832 59.5706L13.2165 57.7668L14.8246 57.3359L26.3723 64.003C27.6572 64.7449 29.0264 65.1197 30.4167 65.1197C31.184 65.1197 31.9577 65.0055 32.7271 64.7758L53.4075 58.6017C55.4049 58.0055 56.664 55.4991 56.049 53.343C55.7517 52.3011 54.268 49.0395 47.6541 50.8385ZM11.4646 60.4111C11.4405 60.4526 11.4085 60.4889 11.3703 60.5181C11.3322 60.5472 11.2887 60.5684 11.2424 60.5807L8.08154 61.3986C7.9561 61.4309 7.85443 61.3872 7.80507 61.3581C7.75571 61.329 7.6681 61.2615 7.63547 61.1359L3.38691 44.7168C3.33713 44.5247 3.4575 44.3204 3.64946 44.2708L6.81015 43.4529C6.84165 43.4447 6.87146 43.4413 6.89944 43.4413C6.98325 43.4413 7.04977 43.4714 7.08675 43.4934C7.12822 43.5174 7.16454 43.5494 7.19361 43.5875C7.22269 43.6256 7.24396 43.6691 7.25621 43.7154L11.5049 60.1347C11.5167 60.1811 11.5193 60.2295 11.5123 60.2769C11.5054 60.3244 11.4892 60.37 11.4646 60.4111ZM52.764 56.4463L32.0837 62.6203C30.5057 63.0913 28.9628 62.901 27.4975 62.0549L15.5462 55.1548C15.2878 55.0057 14.9808 54.9653 14.6926 55.0425L12.653 55.589L10.2181 46.1795L18.4248 43.9671C20.2578 43.473 22.1768 43.1602 23.7938 44.2092C24.3336 44.5593 24.9512 44.9896 25.6661 45.4881C27.7233 46.9221 30.2792 48.7034 33.0793 50.0329C33.8956 50.5983 34.1672 51.6038 33.7085 52.3983C33.2503 53.1919 32.5293 53.4305 31.5631 53.1093C30.0576 52.3736 26.124 50.0255 25.4664 49.646C25.3384 49.5703 25.1967 49.5208 25.0494 49.5002C24.9021 49.4797 24.7522 49.4886 24.6084 49.5263C24.4645 49.5641 24.3296 49.63 24.2114 49.7202C24.0932 49.8104 23.994 49.9232 23.9197 50.052C23.8453 50.1808 23.7972 50.323 23.7782 50.4705C23.7592 50.618 23.7696 50.7678 23.8088 50.9113C23.8481 51.0547 23.9153 51.189 24.0068 51.3062C24.0982 51.4235 24.212 51.5215 24.3416 51.5945C24.9849 51.9659 31.3004 55.4767 31.6179 55.6188C33.4089 56.4195 35.1486 56.5723 36.9365 56.0861L48.2449 53.0098C51.3185 52.1736 53.4799 52.5382 53.8856 53.9609C54.1601 54.9239 53.5838 56.2015 52.764 56.4463ZM6.72718 45.8725C6.713 46.0059 6.67251 46.1351 6.60805 46.2528C6.54359 46.3704 6.45643 46.4741 6.35162 46.5578C6.24682 46.6416 6.12645 46.7037 5.99747 46.7406C5.8685 46.7775 5.73349 46.7885 5.60025 46.7729C5.46702 46.7572 5.3382 46.7153 5.22126 46.6496C5.10433 46.5839 5.00159 46.4956 4.91899 46.3899C4.8364 46.2842 4.77559 46.1631 4.74009 46.0338C4.70459 45.9044 4.69509 45.7693 4.71216 45.6362C4.72521 45.5019 4.76491 45.3716 4.82895 45.2528C4.89299 45.134 4.98008 45.0292 5.08512 44.9445C5.19016 44.8598 5.31104 44.7969 5.44069 44.7595C5.57034 44.7221 5.70615 44.7109 5.84017 44.7266C5.97419 44.7423 6.10372 44.7846 6.2212 44.851C6.33868 44.9174 6.44173 45.0065 6.52433 45.1133C6.60693 45.22 6.66741 45.3421 6.70224 45.4724C6.73707 45.6028 6.74555 45.7388 6.72718 45.8725ZM70.7921 26.7196L66.5433 10.3005C66.182 8.90413 64.7521 8.06178 63.3555 8.42333L60.1948 9.2412C59.5199 9.41586 58.9526 9.8442 58.5974 10.4473C58.2423 11.0505 58.1429 11.7543 58.3176 12.4292L58.7843 14.2328L57.1761 14.6637L45.6284 7.99667C43.6348 6.84538 41.4374 6.57791 39.2736 7.22366L18.5931 13.3978C16.5957 13.994 15.3367 16.5004 15.9516 18.6563C16.2489 19.6989 17.7329 22.9604 24.3466 21.1614L35.655 18.0853C36.0093 17.9875 36.3725 17.9253 36.7391 17.8993C36.5925 18.0813 36.4603 18.2744 36.3438 18.4769C35.2833 20.3137 35.9025 22.6925 37.7534 23.8928C37.7959 23.9203 37.8402 23.945 37.886 23.9666C40.5441 25.2189 43.0415 26.9594 45.0479 28.3579C45.7491 28.8466 46.4113 29.3083 46.9825 29.6787C48.1976 30.467 49.4732 30.7422 50.7286 30.7422C51.9139 30.7422 53.0813 30.4965 54.1615 30.2054L62.3463 27.999L62.566 28.8481C62.8707 30.0257 63.9353 30.809 65.0989 30.809C65.3152 30.809 65.535 30.7819 65.7538 30.7252L68.9146 29.9073C70.3112 29.5463 71.1533 28.1162 70.7921 26.7196ZM53.576 28.0331C51.7428 28.5271 49.8238 28.8398 48.2069 27.791C47.667 27.4409 47.0496 27.0104 46.3345 26.5121C44.2773 25.0781 41.7214 23.2968 38.9213 21.9673C38.1051 21.4019 37.8336 20.3966 38.2923 19.6019C38.7504 18.8085 39.4713 18.5698 40.4378 18.891C41.9436 19.6269 45.877 21.9748 46.5343 22.3543C46.7926 22.5012 47.0984 22.5399 47.3851 22.4621C47.6718 22.3842 47.9161 22.1961 48.0646 21.9389C48.2132 21.6816 48.2539 21.376 48.178 21.0888C48.1021 20.8016 47.9156 20.5561 47.6593 20.4058C47.0162 20.0346 40.7003 16.5236 40.383 16.3816C38.5918 15.5809 36.8521 15.4279 35.0644 15.9143L23.756 18.9906C20.6825 19.8266 18.521 19.4623 18.1153 18.0394C17.8405 17.0761 18.4171 15.7987 19.2368 15.554L39.9169 9.37972C41.4949 8.90877 43.0378 9.09903 44.5031 9.94517L56.4544 16.8452C56.7128 16.9944 57.0198 17.0348 57.308 16.9576L59.3476 16.4111L61.7824 25.8208L53.576 28.0331ZM68.3512 27.7293L65.1903 28.5472C65.1438 28.5589 65.0955 28.5614 65.0481 28.5545C65.0006 28.5475 64.955 28.5313 64.9139 28.5067C64.8724 28.4826 64.836 28.4506 64.8069 28.4125C64.7778 28.3744 64.7565 28.3309 64.7443 28.2845L60.4956 11.8654C60.4838 11.8189 60.4814 11.7706 60.4883 11.7231C60.4953 11.6757 60.5115 11.6301 60.5361 11.5889C60.5602 11.5474 60.5922 11.5111 60.6303 11.482C60.6685 11.4529 60.712 11.4316 60.7584 11.4193L63.9191 10.6015C64.1113 10.5515 64.3154 10.6721 64.3651 10.8642L68.6137 27.2833C68.6635 27.4753 68.5433 27.6797 68.3512 27.7293ZM67.2886 26.3637C67.2233 26.9202 66.7195 27.3184 66.163 27.2533C65.6066 27.1882 65.2083 26.6842 65.2736 26.1277C65.3079 25.863 65.4451 25.6225 65.6555 25.4583C65.8659 25.2941 66.1325 25.2194 66.3976 25.2505C66.6627 25.2815 66.9049 25.4158 67.0717 25.6242C67.2384 25.8325 67.3164 26.0983 67.2886 26.3637Z" fill="#FEBE09"/>
</svg>
