<svg width="72" height="72" viewBox="0 0 72 72" fill="none" xmlns="http://www.w3.org/2000/svg">
<path d="M71.1516 63.8677L64.3833 57.1079C63.8349 56.5608 63.2963 56.139 62.6325 55.7368L60.5724 54.4993C62.0518 52.1649 62.8449 49.4565 62.8449 46.6271C62.8463 42.6811 61.3064 38.9701 58.5122 36.1786C57.602 35.2689 56.5765 34.4822 55.4621 33.8386V28.6426L59.6611 31.704C60.1632 32.0696 60.8663 31.9599 61.2319 31.4593L65.0541 26.228C65.2298 25.9869 65.303 25.6862 65.258 25.3913C65.2117 25.0965 65.0503 24.832 64.8094 24.6558L33.2982 1.67912C33.1056 1.53861 32.8735 1.46289 32.6351 1.46289C32.3968 1.46289 32.1646 1.53861 31.9721 1.67912L25.3922 6.47583V4.85724C25.3922 4.23568 24.8888 3.73224 24.2672 3.73224H12.1735C11.5519 3.73224 11.0485 4.23568 11.0485 4.85724V9.62724C11.0485 10.2488 11.5519 10.7522 12.1735 10.7522H12.8457V15.6249L0.462222 24.6544C0.220346 24.8302 0.060034 25.0946 0.0136277 25.3899C-0.0327785 25.6852 0.0403465 25.9861 0.217534 26.2266L4.03972 31.4579C4.21591 31.6986 4.48043 31.8596 4.7752 31.9055C5.06997 31.9513 5.3709 31.8784 5.61191 31.7026L9.81097 28.6411V58.4438C9.81097 59.0654 10.3144 59.5688 10.936 59.5688H40.9397C43.1489 60.7796 45.6043 61.3857 48.0596 61.3857C50.8018 61.3857 53.5439 60.6291 55.943 59.1188L57.1861 61.1846C57.5855 61.8441 58.0088 62.3827 58.5572 62.9297L65.3255 69.6896C65.8894 70.2535 66.6305 70.5347 67.3716 70.5347C68.1127 70.5347 68.8538 70.2535 69.4177 69.6896L71.1516 67.9585C71.6972 67.4129 71.9996 66.6858 71.9996 65.9124C71.9996 65.139 71.6986 64.4119 71.1516 63.8677ZM13.2999 5.98224H23.1436V8.11693L22.6149 8.50224H13.2999V5.98224ZM15.0971 10.7522H19.5296L15.0971 13.9838V10.7522ZM5.19285 29.2247L2.69816 25.8104L32.6372 3.98115L62.5749 25.8104L60.0802 29.2247L33.2982 9.69755C33.1056 9.55704 32.8735 9.48133 32.6351 9.48133C32.3968 9.48133 32.1646 9.55704 31.9721 9.69755L5.19285 29.2247ZM12.0596 27.0015L32.6358 11.9996L53.2121 27.0015V32.7811C48.968 31.2118 44.1403 31.6505 40.2211 34.096C40.2 34.0946 40.1803 34.0932 40.1593 34.0932H25.1138C24.4922 34.0932 23.9888 34.5966 23.9888 35.2182V57.3188H12.0596V27.0015ZM26.2388 57.3188V36.3432H37.4396C34.7494 39.1149 33.2714 42.7557 33.2714 46.6243C33.2714 50.5702 34.8099 54.2785 37.6013 57.0671C37.6871 57.1529 37.7743 57.2372 37.8614 57.3202H26.2388V57.3188ZM39.1903 55.4752C36.8236 53.1113 35.52 49.9683 35.52 46.6243C35.52 43.2802 36.8236 40.1358 39.1903 37.7705C44.0813 32.8894 52.035 32.8894 56.9218 37.7705C59.2913 40.1372 60.5949 43.2816 60.5949 46.6271C60.5949 49.9697 59.2899 53.1127 56.9218 55.4752C52.035 60.3591 44.0813 60.3591 39.1903 55.4752ZM58.5122 57.0671C58.7583 56.8224 58.9932 56.5693 59.2196 56.3105L61.0843 57.4299L58.8778 59.6335L57.7571 57.7716C58.0144 57.5466 58.2661 57.3118 58.5122 57.0671ZM69.5625 66.3666L67.8286 68.0991C67.7075 68.22 67.5434 68.2879 67.3723 68.2879C67.2012 68.2879 67.0371 68.22 66.916 68.0991L60.2504 61.4419L62.8955 58.7996L69.5625 65.4582C69.6835 65.5791 69.7496 65.7394 69.7496 65.9124C69.7496 66.0854 69.6835 66.2471 69.5625 66.3666ZM48.0582 35.8496C42.1097 35.8496 37.2708 40.6829 37.2708 46.6243C37.2708 52.5643 42.1097 57.3961 48.0582 57.3961C54.0038 57.3961 58.8413 52.5643 58.8413 46.6243C58.8413 40.6829 54.0038 35.8496 48.0582 35.8496ZM48.0582 55.1461C43.35 55.1461 39.5208 51.324 39.5208 46.6243C39.5208 41.9232 43.3514 38.0996 48.0582 38.0996C52.7635 38.0996 56.5913 41.9246 56.5913 46.6243C56.5913 51.3226 52.7635 55.1461 48.0582 55.1461Z" fill="#FEBE09"/>
</svg>
