<svg width="72" height="72" viewBox="0 0 72 72" fill="none" xmlns="http://www.w3.org/2000/svg">
<path d="M54 24.75C51.33 24.75 48.7199 25.5418 46.4998 27.0252C44.2797 28.5086 42.5494 30.617 41.5276 33.0838C40.5058 35.5506 40.2385 38.265 40.7594 40.8837C41.2803 43.5025 42.5661 45.9079 44.4541 47.7959C46.3421 49.684 48.7475 50.9697 51.3663 51.4906C53.985 52.0115 56.6994 51.7442 59.1662 50.7224C61.633 49.7006 63.7414 47.9703 65.2248 45.7502C66.7082 43.5301 67.5 40.92 67.5 38.25C67.496 34.6708 66.0724 31.2394 63.5415 28.7085C61.0106 26.1776 57.5792 24.754 54 24.75ZM54 49.5C51.775 49.5 49.5999 48.8402 47.7498 47.604C45.8998 46.3679 44.4578 44.6109 43.6064 42.5552C42.7549 40.4995 42.5321 38.2375 42.9662 36.0552C43.4003 33.8729 44.4717 31.8684 46.0451 30.295C47.6184 28.7217 49.623 27.6502 51.8052 27.2162C53.9875 26.7821 56.2495 27.0049 58.3052 27.8564C60.3609 28.7078 62.1179 30.1498 63.354 31.9998C64.5902 33.8499 65.25 36.025 65.25 38.25C65.2466 41.2326 64.0603 44.0922 61.9512 46.2012C59.8422 48.3103 56.9827 49.4966 54 49.5Z" fill="#FEBE09"/>
<path d="M54 34.875H56.25C56.5484 34.875 56.8345 34.7565 57.0455 34.5455C57.2565 34.3345 57.375 34.0484 57.375 33.75C57.375 33.4516 57.2565 33.1655 57.0455 32.9545C56.8345 32.7435 56.5484 32.625 56.25 32.625H55.125V31.5C55.125 31.2016 55.0065 30.9155 54.7955 30.7045C54.5845 30.4935 54.2984 30.375 54 30.375C53.7016 30.375 53.4155 30.4935 53.2045 30.7045C52.9935 30.9155 52.875 31.2016 52.875 31.5V32.8185C52.1247 33.0841 51.4925 33.6064 51.0899 34.2929C50.6873 34.9795 50.5404 35.7863 50.675 36.5708C50.8096 37.3552 51.2171 38.0668 51.8255 38.58C52.4339 39.0931 53.2041 39.3747 54 39.375C54.2984 39.375 54.5845 39.4935 54.7955 39.7045C55.0065 39.9155 55.125 40.2016 55.125 40.5C55.125 40.7984 55.0065 41.0845 54.7955 41.2955C54.5845 41.5065 54.2984 41.625 54 41.625H51.75C51.4516 41.625 51.1655 41.7435 50.9545 41.9545C50.7435 42.1655 50.625 42.4516 50.625 42.75C50.625 43.0484 50.7435 43.3345 50.9545 43.5455C51.1655 43.7565 51.4516 43.875 51.75 43.875H52.875V45C52.875 45.2984 52.9935 45.5845 53.2045 45.7955C53.4155 46.0065 53.7016 46.125 54 46.125C54.2984 46.125 54.5845 46.0065 54.7955 45.7955C55.0065 45.5845 55.125 45.2984 55.125 45V43.6815C55.8753 43.4159 56.5075 42.8936 56.9101 42.2071C57.3127 41.5205 57.4596 40.7137 57.325 39.9292C57.1904 39.1448 56.7829 38.4332 56.1745 37.92C55.5661 37.4069 54.7959 37.1253 54 37.125C53.7016 37.125 53.4155 37.0065 53.2045 36.7955C52.9935 36.5845 52.875 36.2984 52.875 36C52.875 35.7016 52.9935 35.4155 53.2045 35.2045C53.4155 34.9935 53.7016 34.875 54 34.875Z" fill="#FEBE09"/>
<path d="M64.5396 52.498L41.7504 58.4437L36.6656 56.4097L39.4789 55.7097C40.3639 55.4887 41.135 54.9461 41.6418 54.1876C42.1486 53.4292 42.3549 52.5092 42.2204 51.607C42.086 50.7047 41.6205 49.8849 40.9146 49.3071C40.2087 48.7293 39.313 48.435 38.402 48.4816L19.1469 49.5L14.625 49.4966V48.375C14.625 48.0766 14.5065 47.7905 14.2955 47.5795C14.0845 47.3685 13.7984 47.25 13.5 47.25H6.09103L13.966 39.375H22.5C22.6477 39.375 22.794 39.3459 22.9305 39.2894C23.067 39.2328 23.191 39.15 23.2955 39.0455L39.8409 22.5H49.5C49.6477 22.5 49.794 22.4709 49.9305 22.4144C50.067 22.3578 50.191 22.275 50.2955 22.1705L66.375 6.09103V10.125C66.375 10.4234 66.4935 10.7095 66.7045 10.9205C66.9155 11.1315 67.2016 11.25 67.5 11.25C67.7984 11.25 68.0845 11.1315 68.2955 10.9205C68.5065 10.7095 68.625 10.4234 68.625 10.125V3.375C68.625 3.07663 68.5065 2.79048 68.2955 2.5795C68.0845 2.36853 67.7984 2.25 67.5 2.25H60.75C60.4516 2.25 60.1655 2.36853 59.9545 2.5795C59.7435 2.79048 59.625 3.07663 59.625 3.375C59.625 3.67337 59.7435 3.95952 59.9545 4.1705C60.1655 4.38147 60.4516 4.5 60.75 4.5H64.784L49.034 20.25H39.375C39.2273 20.25 39.081 20.2791 38.9445 20.3356C38.808 20.3922 38.684 20.475 38.5795 20.5795L22.0341 37.125H13.5C13.3523 37.125 13.206 37.1541 13.0695 37.2106C12.933 37.2672 12.809 37.35 12.7045 37.4545L2.57949 47.5795C2.47486 47.6838 2.3919 47.8078 2.33535 47.9444C2.27881 48.0809 2.2498 48.2272 2.25 48.375V68.625C2.25 68.9234 2.36853 69.2095 2.57951 69.4205C2.79048 69.6315 3.07663 69.75 3.375 69.75H13.5C13.7984 69.75 14.0845 69.6315 14.2955 69.4205C14.5065 69.2095 14.625 68.9234 14.625 68.625V67.3516L21.375 66.3936L40.2938 70.845C40.5137 70.8967 40.744 70.881 40.9548 70.8L67.1813 60.7129C68.212 60.3165 69.0518 59.5406 69.5284 58.5445C70.0049 57.5484 70.0821 56.4077 69.744 55.3564C69.4059 54.3052 68.6783 53.4233 67.7104 52.8918C66.7425 52.3602 65.6079 52.2193 64.5394 52.498H64.5396ZM12.375 67.5H4.5V49.5H12.375V67.5ZM19.2357 51.7485L38.5172 50.7281C38.7744 50.7152 39.0302 50.7724 39.2574 50.8937C39.4846 51.015 39.6745 51.1957 39.807 51.4165C39.9394 51.6374 40.0093 51.89 40.0093 52.1475C40.0092 52.405 39.9392 52.6577 39.8067 52.8785C39.7112 53.0387 39.5849 53.1783 39.4351 53.2894C39.2853 53.4004 39.115 53.4806 38.934 53.5254L27.8527 56.2829C27.7085 56.3177 27.5725 56.3807 27.4527 56.4683C27.3329 56.5559 27.2316 56.6664 27.1547 56.7933C27.0778 56.9202 27.0267 57.061 27.0044 57.2078C26.9822 57.3545 26.9892 57.5042 27.025 57.6482C27.0609 57.7922 27.1248 57.9277 27.2133 58.0469C27.3017 58.1661 27.4128 58.2666 27.5403 58.3426C27.6677 58.4186 27.809 58.4687 27.9559 58.4899C28.1027 58.5112 28.2524 58.5031 28.3961 58.4662L32.9302 57.338L41.258 60.6691C41.4812 60.7583 41.7271 60.7737 41.9597 60.7132L65.1066 54.6747C65.6184 54.5423 66.1615 54.6105 66.6246 54.8655C67.0877 55.1205 67.4358 55.5429 67.5976 56.0462C67.7594 56.5495 67.7226 57.0956 67.4948 57.5727C67.2669 58.0498 66.8653 58.4217 66.3722 58.6122L40.4719 68.5754L21.6844 64.1549C21.5482 64.1227 21.4072 64.1164 21.2687 64.1362L14.625 65.0791V51.7466L19.2357 51.7485Z" fill="#FEBE09"/>
</svg>
