<svg width="73" height="72" viewBox="0 0 73 72" fill="none" xmlns="http://www.w3.org/2000/svg">
<path d="M31.0639 49.6991V46.5378C31.0639 44.7949 29.6455 43.3765 27.9025 43.3765C27.6231 43.3765 27.355 43.2655 27.1574 43.0678C26.9598 42.8702 26.8488 42.6022 26.8488 42.3227V41.2689H27.9025C28.182 41.2689 28.45 41.38 28.6477 41.5776C28.8453 41.7752 28.9563 42.0432 28.9563 42.3227V43.3765H31.0639V42.3227C31.0618 41.671 30.8581 41.036 30.4807 40.5047C30.1034 39.9734 29.5709 39.5719 28.9563 39.3553V37.0538H26.8488V39.1614H24.7412V42.3227C24.7412 44.0656 26.1596 45.484 27.9025 45.484C28.182 45.484 28.45 45.595 28.6477 45.7927C28.8453 45.9903 28.9563 46.2583 28.9563 46.5378V47.5916H27.9025C27.6231 47.5916 27.355 47.4806 27.1574 47.2829C26.9598 47.0853 26.8488 46.8173 26.8488 46.5378V45.484H24.7412V46.5378C24.7412 47.9098 25.6253 49.069 26.8488 49.5052V51.8067H28.9563V49.6991H31.0639Z" fill="#FEBE09"/>
<path d="M66.8925 9.65565H52.1396V6.49433C52.1396 4.75139 50.7212 3.33301 48.9783 3.33301H6.82734C5.0844 3.33301 3.66602 4.75139 3.66602 6.49433V61.2906C3.66602 62.7353 4.64603 63.944 5.97167 64.3191L6.65979 67.0695C6.77272 67.5261 7.0355 67.9316 7.40612 68.2212C7.77673 68.5108 8.23376 68.6678 8.70411 68.667H47.1015C48.071 68.667 48.9119 68.0105 49.1458 67.0695L49.834 64.3191C50.4956 64.1342 51.0788 63.7383 51.4949 63.1917C51.9111 62.6451 52.1374 61.9776 52.1396 61.2906V58.1293H66.8925C68.0548 58.1293 69 57.184 69 56.0217V11.7632C69 10.6009 68.0548 9.65565 66.8925 9.65565ZM26.8838 9.67778C30.5752 9.83585 32.4614 10.7769 33.158 11.2216C33.0672 12.8982 32.5275 14.5196 31.5952 15.9161L31.5541 15.9783H28.5625C27.5992 14.007 27.029 11.867 26.8838 9.67778ZM36.333 20.1934H24.7415V22.3009H36.333C36.6125 22.3009 36.8805 22.412 37.0781 22.6096C37.2758 22.8072 37.3868 23.0752 37.3868 23.3547C37.3868 23.6342 37.2758 23.9022 37.0781 24.0998C36.8805 24.2975 36.6125 24.4085 36.333 24.4085H24.7415V26.516H36.333C36.6125 26.516 36.8805 26.6271 37.0781 26.8247C37.2758 27.0223 37.3868 27.2903 37.3868 27.5698C37.3868 27.8493 37.2758 28.1173 37.0781 28.3149C36.8805 28.5126 36.6125 28.6236 36.333 28.6236H24.7415V30.7311H34.2255C34.5049 30.7311 34.773 30.8422 34.9706 31.0398C35.1682 31.2374 35.2792 31.5054 35.2792 31.7849C35.2792 32.0644 35.1682 32.3324 34.9706 32.53C34.773 32.7277 34.5049 32.8387 34.2255 32.8387H22.0776C19.3597 32.8328 16.6748 32.2442 14.2038 31.1126V17.4936C16.1005 15.7169 18.4736 14.5309 21.0333 14.0804L23.0365 18.0858H36.333C36.6125 18.0858 36.8805 18.1969 37.0781 18.3945C37.2758 18.5921 37.3868 18.8601 37.3868 19.1396C37.3868 19.4191 37.2758 19.6871 37.0781 19.8847C36.8805 20.0824 36.6125 20.1934 36.333 20.1934ZM12.0962 30.7311H9.98866V18.0858H12.0962V30.7311ZM24.339 15.9783L22.7825 12.8665C23.0387 12.5228 23.3718 12.244 23.7552 12.0524C24.1386 11.8608 24.5616 11.7618 24.9902 11.7632H25.0123C25.2586 13.2109 25.6712 14.6253 26.2421 15.9783H24.339ZM20.8573 11.974C17.8076 12.4689 14.9753 13.8632 12.7232 15.9783H12.0962V11.7632H20.9816C20.9353 11.8296 20.8994 11.9044 20.8573 11.974ZM7.88111 30.7311H5.77356V18.0858H7.88111V30.7311ZM12.0962 32.8387H12.9055C15.1061 33.9011 17.4742 34.5739 19.9047 34.8272L16.8287 38.6724C15.1334 40.7979 14.2084 43.4353 14.2048 46.1542C14.2048 50.246 16.2702 53.8615 19.4094 56.0217H12.0962V32.8387ZM16.3113 46.1542C16.3113 43.9223 17.0795 41.7325 18.4747 39.9896L22.5096 34.9462H33.2971L37.332 39.9896C38.7293 41.7407 39.4916 43.9139 39.4943 46.1542C39.4943 51.5948 35.0674 56.0217 29.6268 56.0217H26.1799C20.7382 56.0217 16.3113 51.5948 16.3113 46.1542ZM41.6019 46.1542C41.6019 43.4449 40.6693 40.7883 38.978 38.6724L35.6944 34.5679C36.2031 34.302 36.6296 33.9023 36.9278 33.4119C37.2261 32.9214 37.3847 32.3589 37.3868 31.7849C37.3868 31.3687 37.3014 30.9735 37.155 30.6089C37.8245 30.4295 38.4164 30.0347 38.8392 29.4854C39.262 28.9362 39.4922 28.263 39.4943 27.5698C39.4917 26.7896 39.1987 26.0383 38.6724 25.4623C39.1782 24.9017 39.4943 24.1672 39.4943 23.3547C39.4943 22.5423 39.1771 21.8078 38.6724 21.2472C39.1782 20.6866 39.4943 19.9521 39.4943 19.1396C39.4943 17.3967 38.076 15.9783 36.333 15.9783H33.9926C34.6723 14.6662 35.091 13.2348 35.2255 11.7632H43.7094V56.0217H36.3973C39.5365 53.8604 41.6019 50.246 41.6019 46.1542ZM45.817 11.7632H62.6774V56.0217H45.817V11.7632ZM6.82734 5.44056H48.9783C49.2578 5.44056 49.5258 5.55158 49.7234 5.7492C49.9211 5.94682 50.0321 6.21485 50.0321 6.49433V9.65565H34.6027C33.707 8.98861 31.1505 7.5481 25.7953 7.5481H24.7415V8.60188C24.7415 8.95278 24.7531 9.30475 24.7721 9.65565H9.98866V15.9783H5.77356V6.49433C5.77356 6.21485 5.88459 5.94682 6.08221 5.7492C6.27983 5.55158 6.54786 5.44056 6.82734 5.44056ZM8.70306 66.5594L8.17617 64.4519H47.6284L47.1005 66.5594H8.70306ZM50.0321 61.2906C50.0321 61.5701 49.9211 61.8381 49.7234 62.0357C49.5258 62.2333 49.2578 62.3444 48.9783 62.3444H6.82734C6.54786 62.3444 6.27983 62.2333 6.08221 62.0357C5.88459 61.8381 5.77356 61.5701 5.77356 61.2906V32.8387H9.98866V58.1293H50.0321V61.2906ZM66.8925 56.0217H64.7849V11.7632H66.8925V56.0217Z" fill="#FEBE09"/>
</svg>
