<svg width="72" height="72" viewBox="0 0 72 72" fill="none" xmlns="http://www.w3.org/2000/svg">
<path d="M27.5735 23.3788V24.5214C27.5735 25.1432 28.0767 25.6464 28.6985 25.6464C29.3203 25.6464 29.8235 25.1432 29.8235 24.5214V23.3754C31.9327 22.9779 33.3344 21.497 33.3392 19.4865C33.3392 18.045 32.7513 15.5446 28.859 14.9942C26.7803 14.6217 26.4376 13.7417 26.5573 12.5904C26.732 11.4577 27.9592 10.9215 29.0545 10.9995C29.4401 11.027 30.7014 11.2104 30.7189 12.4343C30.7277 13.0496 31.2298 13.5429 31.8439 13.5429H31.8603C32.4811 13.5341 32.9777 13.0233 32.9689 12.4015C32.9421 10.5703 31.6998 9.20715 29.8235 8.8458V7.81665C29.8235 7.19486 29.3203 6.69165 28.6985 6.69165C28.0767 6.69165 27.5735 7.19486 27.5735 7.81665V8.9133C26.0159 9.31267 24.6141 10.4333 24.3271 12.3002C24.1667 13.8284 24.4919 16.497 28.503 17.2155C30.7816 17.5373 31.0892 18.5438 31.0892 19.483C31.0859 20.7794 29.8389 21.2408 28.6633 21.2408C28.6611 21.2408 28.6578 21.2408 28.6557 21.2408C27.2395 21.2485 26.3342 20.4542 26.2321 19.0688C26.1871 18.4491 25.6389 17.9789 25.028 18.0295C24.4083 18.0745 23.9426 18.6139 23.9887 19.2336C24.1495 21.4168 25.5489 22.9742 27.5735 23.3788Z" fill="#FEBE09"/>
<path d="M14.7776 31.2131H42.6159C43.2377 31.2131 43.7409 30.7099 43.7409 30.0881C43.7409 29.4663 43.2377 28.9631 42.6159 28.9631H14.7776C14.1559 28.9631 13.6526 29.4663 13.6526 30.0881C13.6526 30.7099 14.1559 31.2131 14.7776 31.2131Z" fill="#FEBE09"/>
<path d="M14.7776 36.78H42.6159C43.2377 36.78 43.7409 36.2768 43.7409 35.655C43.7409 35.0332 43.2377 34.53 42.6159 34.53H14.7776C14.1559 34.53 13.6526 35.0332 13.6526 35.655C13.6526 36.2768 14.1559 36.78 14.7776 36.78Z" fill="#FEBE09"/>
<path d="M23.3174 56.8015H14.7778C14.156 56.8015 13.6528 57.3047 13.6528 57.9265C13.6528 58.5483 14.156 59.0515 14.7778 59.0515H23.3174C23.9392 59.0515 24.4424 58.5483 24.4424 57.9265C24.4424 57.3047 23.9392 56.8015 23.3174 56.8015Z" fill="#FEBE09"/>
<path d="M52.0905 37.471V5.91503C52.0905 3.27398 49.9417 1.125 47.3005 1.125H10.0932C7.45199 1.125 5.30313 3.27398 5.30313 5.91503V62.6122C5.30313 65.2534 7.45211 67.4022 10.0932 67.4022H39.739C42.5661 69.5707 46.089 70.875 49.9186 70.875C59.1702 70.875 66.697 63.3461 66.697 54.0923C66.6969 45.5785 60.3174 38.5417 52.0905 37.471ZM10.0932 65.1522C8.69242 65.1522 7.55313 64.013 7.55313 62.6122V5.91503C7.55313 4.51429 8.69242 3.375 10.0932 3.375H47.3005C48.7012 3.375 49.8405 4.51429 49.8405 5.91503V37.3179C46.4626 37.3336 43.3223 38.3595 40.6928 40.0979H14.7777C14.1559 40.0979 13.6527 40.6011 13.6527 41.2229C13.6527 41.8447 14.1559 42.3479 14.7777 42.3479H37.9564C36.9821 43.3395 36.1406 44.4574 35.4349 45.6646H14.7777C14.1559 45.6646 13.6527 46.1679 13.6527 46.7896C13.6527 47.4114 14.1559 47.9146 14.7777 47.9146H34.3333C33.9121 48.9731 33.6008 50.0839 33.402 51.2347H14.7777C14.1559 51.2347 13.6527 51.738 13.6527 52.3597C13.6527 52.9815 14.1559 53.4847 14.7777 53.4847H33.1708C33.1635 53.688 33.1401 53.8872 33.1401 54.0923C33.1401 58.3303 34.7313 62.1952 37.3314 65.1522H10.0932ZM51.0436 68.568V67.702C51.0436 67.0803 50.5404 66.577 49.9186 66.577C49.2968 66.577 48.7936 67.0803 48.7936 67.702V68.5705C41.681 68.0212 35.9962 62.3329 35.4472 55.2173H36.3142C36.936 55.2173 37.4392 54.714 37.4392 54.0923C37.4392 53.4705 36.936 52.9673 36.3142 52.9673H35.4473C35.9963 45.8539 41.6802 40.1699 48.7936 39.6209V40.4868C48.7936 41.1086 49.2968 41.6118 49.9186 41.6118C50.5404 41.6118 51.0436 41.1086 51.0436 40.4868V39.6209C58.1572 40.1699 63.8435 45.8549 64.3926 52.9673H63.2934C62.6716 52.9673 62.1684 53.4705 62.1684 54.0923C62.1684 54.714 62.6716 55.2173 63.2934 55.2173H64.39C63.841 62.3328 58.1571 68.0189 51.0436 68.568Z" fill="#FEBE09"/>
<path d="M50.0537 46.2227C49.4319 46.2227 48.9287 46.7259 48.9287 47.3477V55.0788L45.346 58.434C44.8923 58.8581 44.8693 59.57 45.2944 60.0237C45.5152 60.26 45.8152 60.3797 46.1151 60.3797C46.3908 60.3797 46.6666 60.2786 46.8841 60.0753L50.8228 56.3873C51.0501 56.1752 51.1787 55.8775 51.1787 55.5666V47.3477C51.1787 46.7259 50.6755 46.2227 50.0537 46.2227Z" fill="#FEBE09"/>
</svg>
