<svg width="72" height="72" viewBox="0 0 72 72" fill="none" xmlns="http://www.w3.org/2000/svg">
<path d="M16.9586 66.3602C17.1684 66.57 17.4525 66.6884 17.7492 66.6896C18.0459 66.6909 18.331 66.5749 18.5426 66.367L22.2843 62.6905C34.6177 62.5949 42.27 62.5656 44.871 62.6939C46.2398 62.7529 47.606 62.5278 48.8835 62.0327C50.161 61.5376 51.3221 60.7833 52.2937 59.8172L66.9435 42.8151C67.2116 42.5056 67.3911 42.1292 67.4628 41.726C67.5345 41.3227 67.4957 40.9076 67.3507 40.5246C67.1884 40.1149 66.9228 39.7542 66.5798 39.4777C66.2368 39.2011 65.828 39.018 65.3932 38.9462C64.5103 38.7505 63.5943 38.7588 62.7151 38.9705C61.8359 39.1823 61.0165 39.5918 60.3195 40.168L47.8185 50.3459C46.9623 51.0413 45.893 51.4214 44.79 51.4225H34.7493C34.2498 51.4956 33.7852 51.4034 33.5973 51.0074C33.4794 50.725 33.4418 50.4155 33.4889 50.1131C33.536 49.8107 33.6658 49.5272 33.864 49.294C34.0622 49.0609 34.3211 48.8871 34.612 48.792C34.9029 48.6969 35.2144 48.6841 35.5121 48.7551C38.9861 49.2951 44.7033 49.4211 46.5461 46.5242C48.4181 43.4271 45.402 38.8315 41.0336 39.7742C37.9008 40.3531 34.6789 40.2325 31.5982 39.421C29.0804 37.8272 26.0651 37.2132 23.1246 37.6953C20.184 38.1775 17.5227 39.7223 15.6457 42.0366L4.83783 52.633C4.62546 52.8441 4.5054 53.1307 4.50392 53.4301C4.50244 53.7295 4.61968 54.0173 4.82995 54.2305L16.9586 66.3602ZM17.2803 43.5846C18.8517 41.616 21.105 40.3092 23.5941 39.9229C26.0832 39.5367 28.6266 40.0991 30.7207 41.4989C34.2368 42.495 37.937 42.656 41.5263 41.9691C43.7201 41.4629 45.5032 43.606 44.637 45.3329C43.1463 47.1711 38.4202 46.9191 35.907 46.54C35.2399 46.3999 34.5478 46.4367 33.8993 46.6467C33.2509 46.8566 32.6686 47.2325 32.2102 47.737C30.1121 50.0399 31.5093 54.0899 34.8123 53.6725H44.7911C46.4112 53.6709 47.9815 53.1129 49.2393 52.0919L61.7448 41.9106C62.1705 41.5586 62.6692 41.3058 63.2046 41.1704C63.7401 41.0349 64.299 41.0203 64.8408 41.1276C64.9826 41.1467 65.2706 41.2311 65.2278 41.3582L50.6388 58.294C49.8473 59.1001 48.879 59.711 47.8106 60.0782C46.8941 60.3836 45.9271 60.5082 44.9632 60.445C42.2958 60.3145 34.4546 60.3449 21.8107 60.4439C21.5188 60.4465 21.2394 60.5622 21.0311 60.7667L17.7607 63.9809L7.22395 53.443L17.2803 43.5846ZM48.7353 27.4791C48.0244 27.4782 47.3429 27.1953 46.8403 26.6925C46.3377 26.1897 46.0551 25.508 46.0545 24.7971C46.0545 24.4987 45.9359 24.2126 45.725 24.0016C45.514 23.7906 45.2278 23.6721 44.9295 23.6721C44.6311 23.6721 44.3449 23.7906 44.134 24.0016C43.923 24.2126 43.8045 24.4987 43.8045 24.7971C43.807 25.9074 44.1842 26.9843 44.8749 27.8537C45.5656 28.723 46.5294 29.3338 47.6103 29.5874V30.5076C47.6103 30.806 47.7289 31.0921 47.9398 31.3031C48.1508 31.5141 48.437 31.6326 48.7353 31.6326C49.0337 31.6326 49.3198 31.5141 49.5308 31.3031C49.7418 31.0921 49.8603 30.806 49.8603 30.5076V29.5874C51.0275 29.3016 52.0501 28.5995 52.7363 27.6131C53.4224 26.6266 53.7248 25.4236 53.5867 24.23C53.4485 23.0363 52.8794 21.9341 51.9861 21.1304C51.0928 20.3267 49.9369 19.8768 48.7353 19.8651C48.2048 19.8651 47.6863 19.7078 47.2452 19.413C46.8041 19.1183 46.4603 18.6993 46.2574 18.2092C46.0544 17.7191 46.0014 17.1797 46.1049 16.6595C46.2085 16.1392 46.4641 15.6613 46.8393 15.2862C47.2145 14.9112 47.6925 14.6559 48.2128 14.5525C48.7331 14.4491 49.2724 14.5024 49.7625 14.7056C50.2525 14.9087 50.6713 15.2527 50.9659 15.6939C51.2604 16.1351 51.4176 16.6537 51.4173 17.1842C51.4173 17.4826 51.5359 17.7687 51.7468 17.9797C51.9578 18.1907 52.244 18.3092 52.5423 18.3092C52.8407 18.3092 53.1268 18.1907 53.3378 17.9797C53.5488 17.7687 53.6673 17.4826 53.6673 17.1842C53.6649 16.0736 53.2878 14.9963 52.5968 14.1267C51.9059 13.2571 50.9417 12.6462 49.8603 12.3929V11.4749C49.8603 11.1765 49.7418 10.8903 49.5308 10.6794C49.3198 10.4684 49.0337 10.3499 48.7353 10.3499C48.437 10.3499 48.1508 10.4684 47.9398 10.6794C47.7289 10.8903 47.6103 11.1765 47.6103 11.4749V12.394C46.4432 12.6798 45.4205 13.3818 44.7344 14.3683C44.0483 15.3547 43.7459 16.5577 43.884 17.7514C44.0221 18.945 44.5913 20.0472 45.4845 20.8509C46.3778 21.6546 47.5338 22.1045 48.7353 22.1162C49.4466 22.1162 50.1288 22.3988 50.6318 22.9018C51.1348 23.4047 51.4173 24.0869 51.4173 24.7982C51.4173 25.5095 51.1348 26.1917 50.6318 26.6947C50.1288 27.1977 49.4466 27.4791 48.7353 27.4791Z" fill="#FEBE09"/>
<path d="M48.7356 36.6704C52.8932 36.6663 56.8794 35.013 59.8194 32.0733C62.7595 29.1337 64.4134 25.1478 64.4181 20.9902C63.5564 0.188936 33.9149 0.19456 33.0565 20.9902C33.0613 25.1472 34.7147 29.1326 37.654 32.0721C40.5933 35.0117 44.5786 36.6654 48.7356 36.6704ZM48.7356 7.55993C52.2967 7.56351 55.7109 8.97955 58.2291 11.4974C60.7473 14.0152 62.164 17.4292 62.1681 20.9902C61.4301 38.8079 36.0411 38.8023 35.3065 20.9902C35.3107 17.4297 36.7268 14.0163 39.2443 11.4986C41.7619 8.98084 45.1752 7.5644 48.7356 7.55993ZM20.8773 19.5119L23.5053 16.8839V27.8133C23.5053 28.1117 23.6238 28.3978 23.8348 28.6088C24.0457 28.8198 24.3319 28.9383 24.6303 28.9383C24.9286 28.9383 25.2148 28.8198 25.4257 28.6088C25.6367 28.3978 25.7553 28.1117 25.7553 27.8133V16.8839L28.3833 19.5119C28.5954 19.7169 28.8796 19.8303 29.1746 19.8277C29.4696 19.8251 29.7517 19.7068 29.9603 19.4982C30.1689 19.2896 30.2872 19.0075 30.2898 18.7125C30.2923 18.4175 30.1789 18.1334 29.974 17.9212L25.4256 13.3739C25.2142 13.1635 24.928 13.0454 24.6297 13.0454C24.3314 13.0454 24.0452 13.1635 23.8338 13.3739L19.2865 17.9212C19.0816 18.1334 18.9682 18.4175 18.9707 18.7125C18.9733 19.0075 19.0916 19.2896 19.3002 19.4982C19.5088 19.7068 19.791 19.8251 20.0859 19.8277C20.3809 19.8303 20.6651 19.7169 20.8773 19.5119Z" fill="#FEBE09"/>
</svg>
