<svg width="72" height="72" viewBox="0 0 72 72" fill="none" xmlns="http://www.w3.org/2000/svg">
<path d="M68.6268 2.25H59.6268V4.5H65.911L44.7937 25.6174L26.4022 15.8816C26.2059 15.7774 25.9831 15.7337 25.762 15.7561C25.5409 15.7785 25.3315 15.8661 25.1602 16.0076L6.03516 31.7576L7.46503 33.4935L26.0107 18.2205L44.473 27.9945C44.6857 28.107 44.9288 28.1484 45.1668 28.1126C45.4047 28.0767 45.6248 27.9656 45.7949 27.7954L67.5018 6.09075V12.375H69.7518V3.375C69.7518 3.07663 69.6333 2.79048 69.4223 2.5795C69.2113 2.36853 68.9252 2.25 68.6268 2.25ZM48.3768 52.875C48.3768 46.0519 42.8249 40.5 36.0018 40.5C29.1787 40.5 23.6268 46.0519 23.6268 52.875C23.6268 59.6981 29.1787 65.25 36.0018 65.25C42.8249 65.25 48.3768 59.6981 48.3768 52.875ZM25.8768 52.875C25.8768 47.2916 30.4184 42.75 36.0018 42.75C41.5852 42.75 46.1268 47.2916 46.1268 52.875C46.1268 58.4584 41.5852 63 36.0018 63C30.4184 63 25.8768 58.4584 25.8768 52.875ZM11.2518 40.5C11.2518 42.9818 9.23353 45 6.75178 45V47.25C10.4744 47.25 13.5018 44.2226 13.5018 40.5H11.2518ZM65.2518 47.25V45C62.77 45 60.7518 42.9818 60.7518 40.5H58.5018C58.5018 44.2226 61.5292 47.25 65.2518 47.25ZM6.75178 58.5V60.75C9.23353 60.75 11.2518 62.7682 11.2518 65.25H13.5018C13.5018 61.5274 10.4744 58.5 6.75178 58.5ZM60.7518 65.25C60.7518 62.7682 62.77 60.75 65.2518 60.75V58.5C61.5292 58.5 58.5018 61.5274 58.5018 65.25H60.7518Z" fill="#FEBE09"/>
<path d="M37.125 61.875V59.5676C39.0285 59.292 40.5 57.6652 40.5 55.6875C40.5 53.5162 38.7337 51.75 36.5625 51.75H35.4375C34.5071 51.75 33.75 50.9929 33.75 50.0625C33.75 49.1321 34.5071 48.375 35.4375 48.375H36.5625C37.4929 48.375 38.25 49.1321 38.25 50.0625V50.3438H40.5V50.0625C40.5 48.0848 39.0285 46.458 37.125 46.1824V43.875H34.875V46.1824C32.9715 46.458 31.5 48.0848 31.5 50.0625C31.5 52.2338 33.2663 54 35.4375 54H36.5625C37.4929 54 38.25 54.7571 38.25 55.6875C38.25 56.6179 37.4929 57.375 36.5625 57.375H35.4375C34.5071 57.375 33.75 56.6179 33.75 55.6875V55.4062H31.5V55.6875C31.5 57.6652 32.9715 59.292 34.875 59.5676V61.875H37.125Z" fill="#FEBE09"/>
<path d="M12.375 32.625V36H3.375C3.07663 36 2.79048 36.1185 2.5795 36.3295C2.36853 36.5405 2.25 36.8266 2.25 37.125V68.625C2.25 68.9234 2.36853 69.2095 2.5795 69.4205C2.79048 69.6315 3.07663 69.75 3.375 69.75H68.625C68.9234 69.75 69.2095 69.6315 69.4205 69.4205C69.6315 69.2095 69.75 68.9234 69.75 68.625V37.125C69.75 36.8266 69.6315 36.5405 69.4205 36.3295C69.2095 36.1185 68.9234 36 68.625 36H21.375V38.25H67.5V67.5H4.5V38.25H18V36H14.625V33.75H69.75V31.5H13.5C13.2016 31.5 12.9155 31.6185 12.7045 31.8295C12.4935 32.0405 12.375 32.3266 12.375 32.625Z" fill="#FEBE09"/>
</svg>
