<svg width="73" height="72" viewBox="0 0 73 72" fill="none" xmlns="http://www.w3.org/2000/svg">
<path d="M40.2539 3.375C39.9555 3.375 39.6694 3.49353 39.4584 3.7045C39.2474 3.91548 39.1289 4.20163 39.1289 4.5V31.995C39.1289 32.2934 39.2474 32.5795 39.4584 32.7905C39.6694 33.0015 39.9555 33.12 40.2539 33.12H67.7489C68.0473 33.12 68.3334 33.0015 68.5444 32.7905C68.7554 32.5795 68.8739 32.2934 68.8739 31.995C68.865 24.4072 65.8468 17.1328 60.4814 11.7675C55.1161 6.40211 47.8417 3.38393 40.2539 3.375ZM41.3789 30.87V5.625C47.9831 5.909 54.2406 8.65989 58.9148 13.3341C63.589 18.0083 66.3399 24.2658 66.6239 30.87H41.3789Z" fill="#FEBE09"/>
<path d="M63.7558 36.8662H35.3833V8.49365C35.3833 8.19529 35.2648 7.90914 35.0538 7.69816C34.8428 7.48718 34.5567 7.36865 34.2583 7.36865C28.1986 7.36643 22.2743 9.16146 17.2349 12.5267C12.1954 15.8919 8.26729 20.6761 5.9473 26.2742C3.62731 31.8722 3.01971 38.0326 4.20137 43.976C5.38302 49.9194 8.30083 55.3788 12.5857 59.6637C16.8706 63.9486 22.33 66.8664 28.2735 68.0481C34.2169 69.2297 40.3772 68.6221 45.9753 66.3021C51.5733 63.9822 56.3575 60.054 59.7228 55.0146C63.088 49.9752 64.883 44.0509 64.8808 37.9912C64.8808 37.6928 64.7623 37.4066 64.5513 37.1957C64.3403 36.9847 64.0542 36.8662 63.7558 36.8662ZM34.2583 66.3749C26.7437 66.51 19.4826 63.658 14.0686 58.445C8.6547 53.2319 5.53033 46.0838 5.38133 38.5695C5.23232 31.0552 8.07086 23.7888 13.2739 18.3652C18.4769 12.9416 25.6193 9.80405 33.1333 9.64115V37.9912C33.1333 38.2895 33.2518 38.5757 33.4628 38.7866C33.6738 38.9976 33.9599 39.1162 34.2583 39.1162H62.6083C62.3122 46.4396 59.1969 53.3651 53.9135 58.4451C48.6302 63.5251 41.5877 66.3664 34.2583 66.3749Z" fill="#FEBE09"/>
<path d="M24.7751 46.2374H22.4014C21.9057 46.2347 21.4304 46.0397 21.0757 45.6934C20.7211 45.3471 20.5147 44.8766 20.5001 44.3812C20.4989 44.1377 20.5472 43.8965 20.642 43.6721C20.7367 43.4478 20.876 43.2451 21.0514 43.0762C21.4305 42.7235 21.9286 42.5267 22.4464 42.5249H26.9464C27.2447 42.5249 27.5309 42.4064 27.7419 42.1954C27.9528 41.9844 28.0714 41.6983 28.0714 41.3999C28.0714 41.1015 27.9528 40.8154 27.7419 40.6044C27.5309 40.3934 27.2447 40.2749 26.9464 40.2749H24.7189V38.0249C24.7189 37.7265 24.6003 37.4404 24.3894 37.2294C24.1784 37.0184 23.8922 36.8999 23.5939 36.8999C23.2955 36.8999 23.0093 37.0184 22.7984 37.2294C22.5874 37.4404 22.4689 37.7265 22.4689 38.0249V40.2749H22.4014C21.2977 40.2734 20.2368 40.701 19.4426 41.4674C19.0609 41.85 18.759 42.3046 18.5543 42.8047C18.3496 43.3049 18.2462 43.8407 18.2501 44.3812C18.256 44.9263 18.3692 45.465 18.5833 45.9664C18.7973 46.4678 19.1081 46.9221 19.4977 47.3034C19.8874 47.6847 20.3484 47.9855 20.8543 48.1887C21.3602 48.3918 21.9012 48.4933 22.4464 48.4874H24.7751C25.2805 48.4753 25.7701 48.6638 26.1369 49.0116C26.5037 49.3594 26.7179 49.8384 26.7326 50.3437C26.7251 50.5894 26.6673 50.8309 26.5628 51.0534C26.4583 51.2759 26.3093 51.4747 26.1251 51.6374C25.7484 51.9939 25.2487 52.1914 24.7301 52.1887H20.2301C19.9317 52.1887 19.6456 52.3072 19.4346 52.5182C19.2236 52.7291 19.1051 53.0153 19.1051 53.3137C19.1051 53.612 19.2236 53.8982 19.4346 54.1091C19.6456 54.3201 19.9317 54.4387 20.2301 54.4387H22.4239V56.6887C22.4239 56.987 22.5424 57.2732 22.7534 57.4841C22.9643 57.6951 23.2505 57.8137 23.5489 57.8137C23.8472 57.8137 24.1334 57.6951 24.3444 57.4841C24.5553 57.2732 24.6739 56.987 24.6739 56.6887V54.4387H24.7301C25.8248 54.4607 26.8854 54.0574 27.6889 53.3137C28.0817 52.9365 28.3947 52.4842 28.6093 51.9837C28.8238 51.4831 28.9355 50.9445 28.9376 50.3999C28.9376 49.2959 28.4991 48.2372 27.7184 47.4566C26.9378 46.676 25.8791 46.2374 24.7751 46.2374Z" fill="#FEBE09"/>
</svg>
