<svg width="73" height="72" viewBox="0 0 73 72" fill="none" xmlns="http://www.w3.org/2000/svg">
<path d="M18.9098 34.1406H11.3329C10.7696 34.1406 10.3164 33.6874 10.3164 33.1241V25.5514C10.3164 24.9881 10.7696 24.5349 11.3329 24.5349H18.9056C19.4689 24.5349 19.9221 24.9881 19.9221 25.5514V33.1241C19.9263 33.6874 19.4689 34.1406 18.9098 34.1406ZM12.3493 32.1076H17.8891V26.5679H12.3493V32.1076ZM31.8529 34.1406H24.2759C23.7126 34.1406 23.2595 33.6874 23.2595 33.1241V25.5514C23.2595 24.9881 23.7126 24.5349 24.2759 24.5349H31.8486C32.4119 24.5349 32.8651 24.9881 32.8651 25.5514V33.1241C32.8693 33.6874 32.4119 34.1406 31.8529 34.1406ZM25.2924 32.1076H30.8322V26.5679H25.2924V32.1076ZM44.7959 34.1406H37.2232C36.6599 34.1406 36.2068 33.6874 36.2068 33.1241V25.5514C36.2068 24.9881 36.6599 24.5349 37.2232 24.5349H44.7959C45.3592 24.5349 45.8124 24.9881 45.8124 25.5514V33.1241C45.8124 33.6874 45.3592 34.1406 44.7959 34.1406ZM38.2397 32.1076H43.7795V26.5679H38.2397V32.1076ZM40.0821 45.8257H37.2232C36.6599 45.8257 36.2068 45.3726 36.2068 44.8093V37.2323C36.2068 36.669 36.6599 36.2159 37.2232 36.2159H44.7959C45.3592 36.2159 45.8124 36.669 45.8124 37.2323V39.6337C45.8124 40.197 45.3592 40.6502 44.7959 40.6502C44.2326 40.6502 43.7795 40.197 43.7795 39.6337V38.2488H38.2397V43.7928H40.0821C40.6453 43.7928 41.0985 44.246 41.0985 44.8093C41.0985 45.3726 40.6411 45.8257 40.0821 45.8257ZM57.739 34.1406H50.1663C49.603 34.1406 49.1498 33.6874 49.1498 33.1241V25.5514C49.1498 24.9881 49.603 24.5349 50.1663 24.5349H57.739C58.3023 24.5349 58.7555 24.9881 58.7555 25.5514V33.1241C58.7555 33.6874 58.3023 34.1406 57.739 34.1406ZM51.1828 32.1076H56.7225V26.5679H51.1828V32.1076ZM18.9098 45.8257H11.3329C10.7696 45.8257 10.3164 45.3726 10.3164 44.8093V37.2323C10.3164 36.669 10.7696 36.2159 11.3329 36.2159H18.9056C19.4689 36.2159 19.9221 36.669 19.9221 37.2323V44.8093C19.9263 45.3683 19.4689 45.8257 18.9098 45.8257ZM12.3493 43.7928H17.8891V38.2488H12.3493V43.7928ZM31.8529 45.8257H24.2759C23.7126 45.8257 23.2595 45.3726 23.2595 44.8093V37.2323C23.2595 36.669 23.7126 36.2159 24.2759 36.2159H31.8486C32.4119 36.2159 32.8651 36.669 32.8651 37.2323V44.8093C32.8693 45.3683 32.4119 45.8257 31.8529 45.8257ZM25.2924 43.7928H30.8322V38.2488H25.2924V43.7928ZM18.9098 57.5067H11.3329C10.7696 57.5067 10.3164 57.0535 10.3164 56.4902V48.9175C10.3164 48.3542 10.7696 47.901 11.3329 47.901H18.9056C19.4689 47.901 19.9221 48.3542 19.9221 48.9175V56.4902C19.9263 57.0535 19.4689 57.5067 18.9098 57.5067ZM12.3493 55.4737H17.8891V49.934H12.3493V55.4737ZM31.8529 57.5067H24.2759C23.7126 57.5067 23.2595 57.0535 23.2595 56.4902V48.9175C23.2595 48.3542 23.7126 47.901 24.2759 47.901H31.8486C32.4119 47.901 32.8651 48.3542 32.8651 48.9175V56.4902C32.8693 57.0535 32.4119 57.5067 31.8529 57.5067ZM25.2924 55.4737H30.8322V49.934H25.2924V55.4737Z" fill="#FEBE09"/>
<path d="M41.0056 62.9195H8.24138C6.40326 62.9195 4.9082 61.4244 4.9082 59.5863V20.1388C4.9082 19.5755 5.36138 19.1223 5.92467 19.1223H63.152C63.7153 19.1223 64.1684 19.5755 64.1684 20.1388V42.3105C64.1684 42.8738 63.7153 43.327 63.152 43.327C62.5887 43.327 62.1355 42.8738 62.1355 42.3105V21.1553H6.94114V59.5863C6.94114 60.3021 7.52561 60.8865 8.24138 60.8865H41.0056C41.5689 60.8865 42.0221 61.3397 42.0221 61.903C42.0221 62.4663 41.5647 62.9195 41.0056 62.9195Z" fill="#FEBE09"/>
<path d="M63.152 21.1552H5.92467C5.36138 21.1552 4.9082 20.702 4.9082 20.1387V12.3881C4.9082 10.4526 6.48373 8.8728 8.4235 8.8728H14.2174C14.7807 8.8728 15.2338 9.32598 15.2338 9.88927C15.2338 10.4526 14.7807 10.9057 14.2174 10.9057H8.4235C7.60609 10.9057 6.94114 11.5707 6.94114 12.3881V19.1222H62.1355V12.3881C62.1355 11.5707 61.4706 10.9057 60.6531 10.9057H54.8593C54.296 10.9057 53.8428 10.4526 53.8428 9.88927C53.8428 9.32598 54.296 8.8728 54.8593 8.8728H60.6531C62.5887 8.8728 64.1684 10.4483 64.1684 12.3881V20.1387C64.1684 20.702 63.711 21.1552 63.152 21.1552Z" fill="#FEBE09"/>
<path d="M50.3364 10.9057H18.7411C18.1778 10.9057 17.7246 10.4526 17.7246 9.88927C17.7246 9.32598 18.1778 8.8728 18.7411 8.8728H50.3364C50.8997 8.8728 51.3528 9.32598 51.3528 9.88927C51.3528 10.4526 50.8954 10.9057 50.3364 10.9057Z" fill="#FEBE09"/>
<path d="M16.4793 16.3058C14.6708 16.3058 13.2012 14.8362 13.2012 13.0277V6.75102C13.2012 4.94255 14.6708 3.4729 16.4793 3.4729C18.2878 3.4729 19.7574 4.94255 19.7574 6.75102V13.0277C19.7574 14.8362 18.2878 16.3058 16.4793 16.3058ZM16.4793 5.50584C15.7932 5.50584 15.2341 6.0649 15.2341 6.75102V13.0277C15.2341 13.7138 15.7932 14.2729 16.4793 14.2729C17.1654 14.2729 17.7245 13.7138 17.7245 13.0277V6.75102C17.7245 6.0649 17.1654 5.50584 16.4793 5.50584ZM52.5979 16.3058C50.7894 16.3058 49.3198 14.8362 49.3198 13.0277V6.75102C49.3198 4.94255 50.7894 3.4729 52.5979 3.4729C54.4063 3.4729 55.876 4.94255 55.876 6.75102V13.0277C55.876 14.8362 54.4063 16.3058 52.5979 16.3058ZM52.5979 5.50584C51.9118 5.50584 51.3527 6.0649 51.3527 6.75102V13.0277C51.3527 13.7138 51.9118 14.2729 52.5979 14.2729C53.284 14.2729 53.8431 13.7138 53.8431 13.0277V6.75102C53.8431 6.0649 53.284 5.50584 52.5979 5.50584ZM52.6063 68.527C50.4718 68.527 48.3965 68.1077 46.4482 67.2818C44.5635 66.4856 42.8736 65.3421 41.4209 63.8894C39.9682 62.4367 38.8289 60.7425 38.0285 58.8621C37.2026 56.9096 36.7833 54.8385 36.7833 52.704C36.7833 50.5694 37.2026 48.4941 38.0285 46.5458C38.8247 44.6611 39.9682 42.9713 41.4209 41.5185C42.8736 40.0658 44.5678 38.9265 46.4482 38.1261C48.4007 37.3002 50.4718 36.8809 52.6063 36.8809C54.7409 36.8809 56.8162 37.3002 58.7645 38.1261C60.6492 38.9223 62.3391 40.0658 63.7918 41.5185C65.2445 42.9713 66.3838 44.6654 67.1842 46.5458C68.0101 48.4983 68.4294 50.5694 68.4294 52.704C68.4294 54.8385 68.0101 56.9138 67.1842 58.8621C66.388 60.7468 65.2445 62.4367 63.7918 63.8894C62.3391 65.3421 60.6449 66.4814 58.7645 67.2818C56.8162 68.1077 54.7409 68.527 52.6063 68.527ZM52.6063 38.9138C45.004 38.9138 38.8162 45.1016 38.8162 52.704C38.8162 60.3063 45.004 66.4941 52.6063 66.4941C60.2087 66.4941 66.3965 60.3063 66.3965 52.704C66.3965 45.1016 60.2129 38.9138 52.6063 38.9138Z" fill="#FEBE09"/>
<path d="M46.9859 59.3661C46.7275 59.3661 46.465 59.2687 46.2659 59.0697C45.8678 58.6716 45.8678 58.0278 46.2659 57.6339L57.7097 46.1901C58.1078 45.792 58.7515 45.792 59.1454 46.1901C59.5435 46.5883 59.5435 47.232 59.1454 47.6259L47.7017 59.0697C47.5068 59.2645 47.2442 59.3661 46.9859 59.3661ZM48.337 51.6156C46.5835 51.6156 45.1562 50.1883 45.1562 48.4349C45.1562 46.6814 46.5835 45.2542 48.337 45.2542C50.0904 45.2542 51.5177 46.6814 51.5177 48.4349C51.5177 50.1883 50.0904 51.6156 48.337 51.6156ZM48.337 47.2871C47.7059 47.2871 47.1892 47.7996 47.1892 48.4349C47.1892 49.0701 47.7017 49.5826 48.337 49.5826C48.968 49.5826 49.4847 49.0701 49.4847 48.4349C49.4847 47.7996 48.968 47.2871 48.337 47.2871ZM56.8753 60.1539C55.1219 60.1539 53.6946 58.7266 53.6946 56.9732C53.6946 55.2198 55.1219 53.7925 56.8753 53.7925C58.6287 53.7925 60.056 55.2198 60.056 56.9732C60.056 58.7266 58.6287 60.1539 56.8753 60.1539ZM56.8753 55.8297C56.2442 55.8297 55.7275 56.3422 55.7275 56.9774C55.7275 57.6127 56.24 58.1252 56.8753 58.1252C57.5106 58.1252 58.0231 57.6127 58.0231 56.9774C58.0231 56.3422 57.5106 55.8297 56.8753 55.8297Z" fill="#FEBE09"/>
</svg>
