<svg width="72" height="72" viewBox="0 0 72 72" fill="none" xmlns="http://www.w3.org/2000/svg">
<path d="M48.2952 36.1125V29.2725H55.2801C57.355 29.3445 58.555 26.8357 57.0843 25.4587L35.088 3.37271C34.7395 3.02611 34.3185 2.74966 33.8509 2.56042C33.3832 2.37119 32.8789 2.27318 32.3689 2.27246C31.8578 2.27284 31.3523 2.37088 30.8835 2.56052C30.4148 2.75016 29.9929 3.02736 29.6439 3.37496L7.64994 25.4598C6.18287 26.8323 7.37803 29.3478 9.45537 29.2736H16.4403V57.3986C16.4403 58.6507 17.54 59.67 18.8934 59.67H30.2662C38.2469 76.185 64.6867 71.262 64.9961 52.92C64.9961 44.0628 57.6245 36.7931 48.2952 36.1125ZM18.8572 57.3975V28.1475C18.8572 27.8491 18.7299 27.5629 18.5032 27.352C18.2766 27.141 17.9692 27.0225 17.6487 27.0225L9.42395 26.9887L31.4143 4.90609C31.6632 4.65859 32.0028 4.52021 32.3689 4.52134C32.7339 4.52134 33.0723 4.65746 33.3188 4.90384L55.2801 27.0213H47.0867C46.7662 27.0213 46.4589 27.1399 46.2322 27.3508C46.0056 27.5618 45.8783 27.848 45.8783 28.1463V36.09C34.5949 36.486 26.178 47.2623 29.4155 57.4155L18.8572 57.3975ZM46.8692 67.545C38.2058 67.545 31.1593 60.984 31.1593 52.92C32.0149 33.5193 61.7163 33.5328 62.5792 52.92C62.5792 60.984 55.5315 67.545 46.8692 67.545Z" fill="#FEBE09"/>
<path d="M54.9747 45.3745C54.7481 45.1636 54.4407 45.0451 54.1203 45.0451C53.7999 45.0451 53.4925 45.1636 53.2659 45.3745L38.7644 58.8745C38.649 58.9783 38.5569 59.1024 38.4936 59.2396C38.4303 59.3769 38.3969 59.5245 38.3955 59.6739C38.3941 59.8233 38.4247 59.9714 38.4855 60.1097C38.5462 60.2479 38.636 60.3735 38.7494 60.4792C38.8629 60.5848 38.9978 60.6683 39.1464 60.7249C39.2949 60.7815 39.454 60.8099 39.6145 60.8086C39.7749 60.8073 39.9335 60.7763 40.0809 60.7173C40.2284 60.6584 40.3617 60.5727 40.4732 60.4652L54.9747 46.9652C55.2012 46.7543 55.3285 46.4682 55.3285 46.1699C55.3285 45.8715 55.2012 45.5854 54.9747 45.3745ZM45.0569 47.2949C44.9094 42.103 36.7427 42.1041 36.5977 47.2949C36.7439 52.4867 44.9118 52.4856 45.0569 47.2949ZM39.0146 47.2949C39.0569 45.0775 42.5976 45.0775 42.6399 47.2949C42.5976 49.5111 39.0569 49.5111 39.0146 47.2949ZM52.9118 54.6074C47.3348 54.7435 47.336 62.3462 52.9118 62.4824C58.4889 62.3451 58.4877 54.7424 52.9118 54.6074ZM52.9118 60.2324C50.53 60.193 50.53 56.8967 52.9118 56.8574C55.2937 56.8967 55.2925 60.193 52.9118 60.2324Z" fill="#FEBE09"/>
</svg>
