<svg width="72" height="72" viewBox="0 0 72 72" fill="none" xmlns="http://www.w3.org/2000/svg">
<path d="M53.5797 28.8H51.3297V19.8C51.3297 15.7422 49.7177 11.8506 46.8484 8.98127C43.9791 6.11196 40.0875 4.5 36.0297 4.5C31.9719 4.5 28.0803 6.11196 25.211 8.98127C22.3416 11.8506 20.7297 15.7422 20.7297 19.8V28.8H18.4797C17.7106 28.7933 16.9479 28.9389 16.2354 29.2284C15.5228 29.518 14.8747 29.9456 14.3283 30.4869C13.7818 31.0281 13.3479 31.6721 13.0516 32.3818C12.7552 33.0915 12.6023 33.8528 12.6016 34.6219V59.4281C12.6031 60.9717 13.2169 62.4517 14.3084 63.5432C15.3999 64.6347 16.8798 65.2485 18.4234 65.25H53.5797C55.1233 65.2485 56.6032 64.6347 57.6947 63.5432C58.7862 62.4517 59.4001 60.9717 59.4016 59.4281V34.6219C59.4001 33.0783 58.7862 31.5983 57.6947 30.5068C56.6032 29.4153 55.1233 28.8015 53.5797 28.8ZM22.9516 19.8C22.9516 18.0863 23.2891 16.3893 23.9449 14.806C24.6008 13.2227 25.562 11.7841 26.7738 10.5723C27.9856 9.36045 29.4242 8.3992 31.0075 7.74337C32.5908 7.08755 34.2878 6.75 36.0016 6.75C37.7153 6.75 39.4123 7.08755 40.9956 7.74337C42.5789 8.3992 44.0175 9.36045 45.2293 10.5723C46.4411 11.7841 47.4024 13.2227 48.0582 14.806C48.714 16.3893 49.0516 18.0863 49.0516 19.8V28.8H42.7516V20.25C42.7516 18.4598 42.0404 16.7429 40.7745 15.477C39.5087 14.2112 37.7918 13.5 36.0016 13.5C34.2113 13.5 32.4945 14.2112 31.2286 15.477C29.9627 16.7429 29.2516 18.4598 29.2516 20.25V28.8H22.9516V19.8ZM31.5016 28.8V20.25C31.5016 19.0565 31.9757 17.9119 32.8196 17.068C33.6635 16.2241 34.8081 15.75 36.0016 15.75C37.195 15.75 38.3396 16.2241 39.1835 17.068C40.0275 17.9119 40.5016 19.0565 40.5016 20.25V28.8H31.5016ZM57.1516 59.4281C57.1501 60.375 56.7733 61.2826 56.1037 61.9522C55.4342 62.6217 54.5266 62.9985 53.5797 63H18.4234C17.4766 62.9985 16.5689 62.6217 15.8994 61.9522C15.2298 61.2826 14.853 60.375 14.8516 59.4281V34.6219C14.853 33.675 15.2298 32.7674 15.8994 32.0978C16.5689 31.4283 17.4766 31.0515 18.4234 31.05H53.5797C54.5266 31.0515 55.4342 31.4283 56.1037 32.0978C56.7733 32.7674 57.1501 33.675 57.1516 34.6219V59.4281Z" fill="#FEBE09"/>
<path d="M46.9181 36.3319C46.7073 36.1223 46.4222 36.0047 46.125 36.0047C45.8278 36.0047 45.5427 36.1223 45.3319 36.3319L25.0819 56.5819C24.9641 56.6827 24.8685 56.8068 24.8009 56.9464C24.7334 57.086 24.6955 57.238 24.6895 57.3929C24.6835 57.5479 24.7096 57.7024 24.7662 57.8467C24.8227 57.9911 24.9085 58.1222 25.0181 58.2319C25.1278 58.3415 25.2589 58.4273 25.4033 58.4838C25.5476 58.5404 25.7021 58.5665 25.8571 58.5605C26.012 58.5545 26.164 58.5166 26.3036 58.4491C26.4432 58.3815 26.5673 58.2859 26.6681 58.1681L46.9181 37.9181C47.1277 37.7073 47.2453 37.4222 47.2453 37.125C47.2453 36.8278 47.1277 36.5427 46.9181 36.3319ZM34.3125 39.9375C34.3125 38.825 33.9826 37.7374 33.3645 36.8124C32.7464 35.8874 31.8679 35.1664 30.8401 34.7407C29.8123 34.3149 28.6813 34.2035 27.5901 34.4206C26.499 34.6376 25.4967 35.1734 24.71 35.96C23.9234 36.7467 23.3876 37.749 23.1706 38.8401C22.9535 39.9313 23.0649 41.0623 23.4907 42.0901C23.9164 43.1179 24.6374 43.9964 25.5624 44.6145C26.4874 45.2326 27.575 45.5625 28.6875 45.5625C30.1793 45.5625 31.6101 44.9699 32.665 43.915C33.7199 42.8601 34.3125 41.4293 34.3125 39.9375ZM25.3125 39.9375C25.3125 39.27 25.5104 38.6175 25.8813 38.0625C26.2521 37.5074 26.7792 37.0749 27.3959 36.8194C28.0126 36.564 28.6912 36.4971 29.3459 36.6274C30.0006 36.7576 30.602 37.079 31.074 37.551C31.546 38.023 31.8674 38.6244 31.9977 39.2791C32.1279 39.9338 32.061 40.6124 31.8056 41.2291C31.5502 41.8458 31.1176 42.3729 30.5626 42.7437C30.0075 43.1146 29.355 43.3125 28.6875 43.3125C27.7924 43.3125 26.934 42.9569 26.301 42.324C25.6681 41.6911 25.3125 40.8326 25.3125 39.9375ZM43.3125 47.8125C42.2 47.8125 41.1124 48.1424 40.1874 48.7605C39.2624 49.3786 38.5414 50.2571 38.1157 51.2849C37.6899 52.3127 37.5785 53.4437 37.7956 54.5349C38.0126 55.626 38.5484 56.6283 39.335 57.415C40.1217 58.2016 41.124 58.7374 42.2151 58.9544C43.3063 59.1715 44.4373 59.0601 45.4651 58.6343C46.4929 58.2086 47.3714 57.4876 47.9895 56.5626C48.6076 55.6376 48.9375 54.55 48.9375 53.4375C48.9375 52.6988 48.792 51.9674 48.5093 51.2849C48.2266 50.6025 47.8123 49.9824 47.29 49.46C46.7676 48.9377 46.1476 48.5234 45.4651 48.2407C44.7826 47.958 44.0512 47.8125 43.3125 47.8125ZM43.3125 56.8125C42.645 56.8125 41.9925 56.6146 41.4375 56.2437C40.8824 55.8729 40.4499 55.3458 40.1944 54.7291C39.939 54.1124 39.8721 53.4338 40.0024 52.7791C40.1326 52.1244 40.454 51.523 40.926 51.051C41.398 50.579 41.9994 50.2576 42.6541 50.1274C43.3088 49.9971 43.9874 50.064 44.6041 50.3194C45.2208 50.5749 45.7479 51.0074 46.1187 51.5625C46.4896 52.1175 46.6875 52.77 46.6875 53.4375C46.6875 54.3326 46.3319 55.1911 45.699 55.824C45.0661 56.4569 44.2076 56.8125 43.3125 56.8125Z" fill="#FEBE09"/>
</svg>
