<svg width="73" height="72" viewBox="0 0 73 72" fill="none" xmlns="http://www.w3.org/2000/svg">
<path d="M59.7748 35.2615C59.9524 33.9653 60.0679 32.7216 60.0679 31.5343C60.0679 15.9385 47.3798 3.25024 31.784 3.25024C16.1883 3.25024 3.5 15.9385 3.5 31.5343C3.5 47.13 16.1883 59.8183 31.784 59.8183C32.9782 59.8183 34.221 59.7034 35.5112 59.525C38.5612 65.0197 44.4185 68.7501 51.1363 68.7501C60.9868 68.7501 68.9998 60.737 68.9998 50.8865C68.9997 44.1688 65.2694 38.3114 59.7748 35.2615ZM34.26 56.6916C33.4102 56.7823 32.5829 56.841 31.784 56.841C17.831 56.841 6.47735 45.4887 6.47735 31.5343C6.47735 17.5799 17.8309 6.22746 31.784 6.22746C45.7372 6.22746 57.0907 17.5798 57.0907 31.5343C57.0907 32.3291 57.0311 33.1572 56.9398 34.0098C55.1172 33.3811 53.1698 33.0228 51.1361 33.0228C41.2856 33.0228 33.2726 41.0359 33.2726 50.8864C33.2726 52.9206 33.6308 54.8686 34.26 56.6916ZM51.1361 65.7727C42.9282 65.7727 36.2498 59.0943 36.2498 50.8864C36.2498 42.6785 42.9282 36 51.1361 36C59.344 36 66.0225 42.6786 66.0225 50.8864C66.0225 59.0941 59.344 65.7727 51.1361 65.7727Z" fill="#FEBE09"/>
<path d="M50.3916 44.9318H55.6018C55.7973 44.9319 55.9909 44.8935 56.1716 44.8188C56.3523 44.744 56.5165 44.6343 56.6547 44.4961C56.793 44.3578 56.9026 44.1936 56.9774 44.013C57.0522 43.8323 57.0906 43.6387 57.0905 43.4431C57.0906 43.2476 57.0522 43.054 56.9774 42.8733C56.9026 42.6926 56.793 42.5285 56.6547 42.3902C56.5165 42.2519 56.3523 42.1423 56.1716 42.0675C55.9909 41.9927 55.7973 41.9543 55.6018 41.9545H52.6246V40.4658C52.6246 39.6429 51.9587 38.9771 51.1359 38.9771C50.313 38.9771 49.6472 39.6429 49.6472 40.4658V42.0297C47.1287 42.3946 45.1813 44.5468 45.1813 47.1646C45.1815 50.0373 47.5191 52.3749 50.3916 52.3749H51.8803C53.1102 52.3749 54.1132 53.3765 54.1132 54.6079C54.1132 55.8392 53.1101 56.8408 51.8803 56.8408H46.6701C46.4746 56.8407 46.281 56.8791 46.1003 56.9539C45.9196 57.0286 45.7555 57.1383 45.6172 57.2765C45.4789 57.4148 45.3693 57.579 45.2945 57.7596C45.2197 57.9403 45.1813 58.134 45.1815 58.3295C45.1813 58.525 45.2197 58.7187 45.2945 58.8993C45.3693 59.08 45.4789 59.2442 45.6172 59.3824C45.7555 59.5207 45.9196 59.6303 46.1003 59.7051C46.281 59.7799 46.4746 59.8183 46.6701 59.8182H49.6473V61.3067C49.6473 62.1295 50.3132 62.7954 51.136 62.7954C51.9589 62.7954 52.6246 62.1295 52.6246 61.3067V59.7428C55.143 59.3779 57.0905 57.2257 57.0905 54.6079C57.0905 51.7353 54.7528 49.3977 51.8803 49.3977H50.3916C49.1617 49.3977 48.1587 48.3961 48.1587 47.1648C48.1587 45.9334 49.1618 44.9318 50.3916 44.9318ZM31.7838 12.1819C31.5882 12.1818 31.3946 12.2202 31.2139 12.2949C31.0333 12.3697 30.8691 12.4794 30.7308 12.6176C30.5926 12.7559 30.4829 12.92 30.4082 13.1007C30.3334 13.2814 30.295 13.475 30.2951 13.6706V30.9177L21.7994 39.4134C21.2179 39.9949 21.2179 40.9369 21.7994 41.5183C22.0901 41.809 22.4711 41.9545 22.852 41.9545C23.2329 41.9545 23.6137 41.809 23.9045 41.5183L32.8363 32.5865C33.1155 32.3074 33.2725 31.9295 33.2725 31.534V13.6704C33.2725 13.4749 33.2341 13.2813 33.1593 13.1007C33.0845 12.92 32.9748 12.7559 32.8366 12.6177C32.6983 12.4794 32.5342 12.3698 32.3535 12.295C32.1729 12.2202 31.9793 12.1818 31.7838 12.1819Z" fill="#FEBE09"/>
</svg>
