<svg width="72" height="72" viewBox="0 0 72 72" fill="none" xmlns="http://www.w3.org/2000/svg">
<path d="M55.8426 11.9614H16.1574C13.9589 11.9614 12.1765 10.1792 12.1765 7.98067C12.1765 5.78213 13.9589 3.99991 16.1574 3.99991H55.8426C58.0412 3.99991 59.8235 5.78213 59.8235 7.98067C59.8235 10.1792 58.0412 11.9614 55.8426 11.9614Z" stroke="#FEBE09" stroke-width="2" stroke-miterlimit="10" stroke-linecap="round" stroke-linejoin="round"/>
<path d="M53.8033 60.0386V55.0413C53.8033 55.0084 53.8032 54.9759 53.8031 54.9433C53.7764 50.0275 49.7463 46.0723 44.8306 46.0723H42.698C40.8123 46.0723 39.2036 44.7082 38.8952 42.848L38.1301 38.2337C37.7407 35.8852 39.5523 33.7486 41.9329 33.7486C46.5525 32.1161 50.2947 28.6301 52.2718 24.1854H46.1133" stroke="#FEBE09" stroke-width="2" stroke-miterlimit="10" stroke-linecap="round" stroke-linejoin="round"/>
<path d="M41.9041 24.1854H19.728C21.7053 28.6301 25.4473 32.1161 30.0669 33.7486C32.4476 33.7486 34.2593 35.885 33.8697 38.2337L33.1048 42.848C32.7963 44.7082 31.1875 46.0723 29.302 46.0723H27.1693C22.2535 46.0723 18.2234 50.0275 18.1968 54.9433C18.1967 54.9757 18.1965 55.0084 18.1965 55.0413V60.0386" stroke="#FEBE09" stroke-width="2" stroke-miterlimit="10" stroke-linecap="round" stroke-linejoin="round"/>
<path d="M47.0115 60.0385H55.8426C58.0412 60.0385 59.8235 61.8207 59.8235 64.0192C59.8235 66.2178 58.0412 68 55.8426 68H16.1574C13.9589 68 12.1765 66.2178 12.1765 64.0192C12.1765 61.8207 13.9589 60.0385 16.1574 60.0385H42.7957" stroke="#FEBE09" stroke-width="2" stroke-miterlimit="10" stroke-linecap="round" stroke-linejoin="round"/>
<path d="M53.8033 60.0386V55.0413C53.8033 47.2892 48.8482 40.6951 41.9328 38.2516C40.9784 37.9142 40.3402 37.0124 40.3402 36C40.3402 34.9877 40.9784 34.0858 41.9328 33.7486C48.8482 31.305 53.8033 24.7109 53.8033 16.9588V11.9615H18.1965V15.0017" stroke="#FEBE09" stroke-width="2" stroke-miterlimit="10" stroke-linecap="round" stroke-linejoin="round"/>
<path d="M18.3377 19.2107C19.1908 25.9685 23.832 31.5454 30.0669 33.7486C31.0214 34.0858 31.6596 34.9877 31.6596 36C31.6596 37.0123 31.0214 37.9142 30.0669 38.2515C23.1516 40.6951 18.1965 47.2892 18.1965 55.0413V60.0386" stroke="#FEBE09" stroke-width="2" stroke-miterlimit="10" stroke-linecap="round" stroke-linejoin="round"/>
</svg>
