<svg width="72" height="72" viewBox="0 0 72 72" fill="none" xmlns="http://www.w3.org/2000/svg">
<g clip-path="url(#clip0_7221_639)">
<path d="M37.4313 70.5827C37.4313 71.3636 36.7949 72 36.0125 72C35.2316 72 34.5952 71.3636 34.5952 70.5827C34.5952 69.8017 35.2316 69.1654 36.0125 69.1654C36.7949 69.1654 37.4313 69.8017 37.4313 70.5827ZM6.23601 70.5827V68.7898C6.23601 59.3402 12.6451 54.1871 15.4514 52.5047C19.252 50.2268 23.3543 48.4952 27.6376 47.3608V45.0788C26.9124 44.4381 26.2607 43.7187 25.6947 42.9338C24.0009 40.5895 22.6138 38.0381 21.5672 35.3419C20.6115 35.2114 19.7377 34.6032 19.2884 33.6518C18.86 32.7448 15.888 27.247 15.4326 26.2687C14.2782 23.7882 15.7869 21.3377 17.6996 20.5488C18.0181 20.4174 18.3455 20.3203 18.6785 20.2649C18.3676 18.99 18.2111 17.6824 18.2124 16.3702C18.2124 7.34358 25.556 0 34.5825 0C36.1687 0 37.6711 0.606756 38.8126 1.70844C38.8184 1.71411 38.8262 1.71729 38.8344 1.71729C38.8425 1.71729 38.8503 1.71411 38.8561 1.70844C39.9979 0.606756 41.5001 0 43.0864 0C49.2213 0 54.2124 4.9911 54.2124 11.126V13.7071C54.2124 15.9296 53.9072 18.1174 53.305 20.238C53.6453 20.2931 53.985 20.382 54.3073 20.5278C56.6607 21.5935 57.5797 24.227 56.5742 26.2477C56.0936 27.2136 53.147 32.7234 52.7184 33.6308C52.2692 34.5817 51.3957 35.1899 50.4407 35.3208C49.3935 38.0235 48.0043 40.5808 46.3071 42.9304C45.7405 43.7163 45.0881 44.4366 44.362 45.0781V47.3607C48.6453 48.4951 52.7475 50.2267 56.5481 52.5046C59.3544 54.1869 65.7636 59.34 65.7636 68.7896V70.5827C65.7636 71.3655 65.129 72 64.3462 72H42.3905C41.5782 72 40.9223 71.313 40.9763 70.4879C41.0256 69.7346 41.6854 69.1654 42.4402 69.1654H62.9289C62.9289 63.1806 59.9256 57.8339 55.0897 54.9369C51.6856 52.8954 48.0229 51.3201 44.1997 50.253C43.4358 54.0818 40.0499 56.9764 35.9998 56.9764C31.9498 56.9764 28.5638 54.0819 27.7999 50.253C23.9767 51.3202 20.314 52.8956 16.9099 54.9369C12.074 57.8339 9.07065 63.016 9.07065 69.1654H29.636C30.4495 69.1654 31.1046 69.8559 31.0486 70.6812C30.9975 71.4331 30.3381 72 29.5846 72H7.65333C6.87054 72 6.23601 71.3655 6.23601 70.5827ZM21.0521 16.5874C21.1829 16.4336 23.1387 14.0315 26.5047 14.0315C28.1697 14.0317 29.7835 14.6068 31.0733 15.6597C32.2497 16.6205 33.7475 17.1496 35.2911 17.1496C38.944 17.1496 41.8702 14.2116 41.9528 10.4611C41.9602 10.0902 42.1126 9.73695 42.3775 9.47721C42.6424 9.21746 42.9986 9.07193 43.3696 9.07186C43.7406 9.07178 44.0968 9.21717 44.3618 9.47681C44.6268 9.73645 44.7794 10.0896 44.7869 10.4606C44.8276 12.2705 45.8017 13.8399 47.3294 14.5563C48.8319 15.261 50.0892 16.3278 51.0114 17.6332C51.2558 16.3388 51.3785 15.0244 51.3779 13.7072V11.126C51.3779 6.55413 47.6584 2.83465 43.0865 2.83465C42.2424 2.83302 41.431 3.16074 40.8248 3.74811C40.2918 4.26626 39.5778 4.55614 38.8344 4.55614C38.0911 4.55614 37.3771 4.26626 36.8441 3.74811C36.2379 3.16074 35.4265 2.83302 34.5825 2.83465C27.119 2.83465 20.9807 8.8285 21.0521 16.5874ZM41.5273 46.9663C38.1715 48.5503 34.2945 48.7331 30.4722 46.9668V48.6142C30.4722 51.6621 32.9518 54.1417 35.9998 54.1417C39.0477 54.1417 41.5273 51.6621 41.5273 48.6142V46.9663ZM44.0088 41.2713C45.7668 38.8361 47.1606 36.1699 48.1481 33.3456C48.3214 32.85 48.9798 32.1001 50.0953 32.539C50.6212 31.4189 53.5821 25.944 54.0113 25.0369C54.3382 24.3459 53.9428 23.4461 53.1997 23.1371C52.78 22.9626 52.3157 22.9931 51.9077 23.2016C51.0279 23.651 49.9399 23.1206 49.8276 22.1484C49.5726 19.9412 48.1418 18.0683 46.1257 17.1228C45.1237 16.653 44.2452 15.9555 43.5605 15.086C43.134 15.8533 42.5804 16.5437 41.9725 17.1988C39.2824 20.0986 33.6588 21.388 29.2801 17.8553C27.572 16.4771 25.0315 16.56 23.4641 18.1501C22.6115 19.0151 22.11 20.1827 22.11 21.3756V21.9336C22.1146 22.9747 21.0082 23.6696 20.0569 23.2004C19.6629 23.0061 19.2124 22.9975 18.8071 23.1585C18.1643 23.4136 17.6157 24.2457 17.9955 25.0581C18.4207 25.9675 21.447 31.5244 21.8952 32.5393C23.1432 32.1049 23.729 32.9964 23.8587 33.3661C24.8492 36.1874 26.2416 38.8511 27.9929 41.2747C29.8801 43.8883 32.7985 45.3872 35.9994 45.3869C39.2015 45.3864 42.1209 43.8864 44.0088 41.2713ZM66.4722 8.50394V1.41732C66.4722 0.634535 65.8377 0 65.0549 0H57.9683C57.1855 0 56.551 0.634535 56.551 1.41732C56.551 2.20011 57.1855 2.83465 57.9683 2.83465H63.6376V8.50394C63.6376 9.28673 64.2721 9.92126 65.0549 9.92126C65.8377 9.92126 66.4722 9.28673 66.4722 8.50394ZM66.4722 47.1969V40.1102C66.4722 39.3274 65.8377 38.6929 65.0549 38.6929C64.2721 38.6929 63.6376 39.3274 63.6376 40.1102V45.7795H57.9683C57.1855 45.7795 56.551 46.4141 56.551 47.1969C56.551 47.9796 57.1855 48.6142 57.9683 48.6142H65.0549C65.8377 48.6142 66.4722 47.9796 66.4722 47.1969ZM8.36199 8.50394V2.83465H14.0313C14.8141 2.83465 15.4486 2.20011 15.4486 1.41732C15.4486 0.634535 14.8141 0 14.0313 0H6.94467C6.16188 0 5.52734 0.634535 5.52734 1.41732V8.50394C5.52734 9.28673 6.16188 9.92126 6.94467 9.92126C7.72745 9.92126 8.36199 9.28673 8.36199 8.50394ZM15.4486 47.1969C15.4486 46.4141 14.8141 45.7795 14.0313 45.7795H8.36199V40.1102C8.36199 39.3274 7.72745 38.6929 6.94467 38.6929C6.16188 38.6929 5.52734 39.3274 5.52734 40.1102V47.1969C5.52734 47.9796 6.16188 48.6142 6.94467 48.6142H14.0313C14.8141 48.6142 15.4486 47.9796 15.4486 47.1969Z" fill="#FEBE09"/>
</g>
<defs>
<clipPath id="clip0_7221_639">
<rect width="72" height="72" fill="white"/>
</clipPath>
</defs>
</svg>
