<svg width="72" height="72" viewBox="0 0 72 72" fill="none" xmlns="http://www.w3.org/2000/svg">
<g clip-path="url(#clip0_7208_538)">
<path d="M28.5 66H7.5C5.51161 65.9976 3.60534 65.2067 2.19933 63.8007C0.793323 62.3947 0.00238179 60.4884 0 58.5L0 19.5C0 15.366 3.366 12 7.5 12H9V10.5C9 8.019 11.019 6 13.5 6H22.5C24.981 6 27 8.019 27 10.5V12H28.5C32.634 12 36 15.366 36 19.5V58.5C36 62.634 32.634 66 28.5 66ZM7.5 15C5.019 15 3 17.019 3 19.5V58.5C3 60.981 5.019 63 7.5 63H28.5C30.981 63 33 60.981 33 58.5V19.5C33 17.019 30.981 15 28.5 15H25.5C25.1022 15 24.7206 14.842 24.4393 14.5607C24.158 14.2794 24 13.8978 24 13.5V10.5C24 10.1022 23.842 9.72064 23.5607 9.43934C23.2794 9.15804 22.8978 9 22.5 9H13.5C13.1022 9 12.7206 9.15804 12.4393 9.43934C12.158 9.72064 12 10.1022 12 10.5V13.5C12 13.8978 11.842 14.2794 11.5607 14.5607C11.2794 14.842 10.8978 15 10.5 15H7.5ZM58.5 39C54.9208 38.996 51.4893 37.5724 48.9584 35.0416C46.4276 32.5107 45.004 29.0792 45 25.5V19.5C45 17.019 47.019 15 49.5 15H67.5C69.981 15 72 17.019 72 19.5V25.5C72 32.943 65.943 39 58.5 39ZM49.5 18C49.1022 18 48.7206 18.158 48.4393 18.4393C48.158 18.7206 48 19.1022 48 19.5V25.5C48 31.29 52.71 36 58.5 36C64.29 36 69 31.29 69 25.5V19.5C69 19.1022 68.842 18.7206 68.5607 18.4393C68.2794 18.158 67.8978 18 67.5 18H49.5Z" fill="#FEBE09"/>
<path d="M52.4997 18C52.1019 18 51.7203 17.842 51.439 17.5607C51.1577 17.2794 50.9997 16.8978 50.9997 16.5V7.5C50.9997 7.10218 51.1577 6.72064 51.439 6.43934C51.7203 6.15804 52.1019 6 52.4997 6C52.8975 6 53.279 6.15804 53.5603 6.43934C53.8416 6.72064 53.9997 7.10218 53.9997 7.5V16.5C53.9997 16.8978 53.8416 17.2794 53.5603 17.5607C53.279 17.842 52.8975 18 52.4997 18ZM64.4997 18C64.1019 18 63.7203 17.842 63.439 17.5607C63.1577 17.2794 62.9997 16.8978 62.9997 16.5V7.5C62.9997 7.10218 63.1577 6.72064 63.439 6.43934C63.7203 6.15804 64.1019 6 64.4997 6C64.8975 6 65.279 6.15804 65.5603 6.43934C65.8417 6.72064 65.9997 7.10218 65.9997 7.5V16.5C65.9997 16.8978 65.8417 17.2794 65.5603 17.5607C65.279 17.842 64.8975 18 64.4997 18ZM61.4997 24H55.4997C55.1019 24 54.7203 23.842 54.439 23.5607C54.1577 23.2794 53.9997 22.8978 53.9997 22.5C53.9997 22.1022 54.1577 21.7206 54.439 21.4393C54.7203 21.158 55.1019 21 55.4997 21H61.4997C61.8975 21 62.279 21.158 62.5603 21.4393C62.8417 21.7206 62.9997 22.1022 62.9997 22.5C62.9997 22.8978 62.8417 23.2794 62.5603 23.5607C62.279 23.842 61.8975 24 61.4997 24ZM52.4997 66C50.5113 65.9976 48.605 65.2067 47.199 63.8007C45.793 62.3947 45.0021 60.4884 44.9997 58.5V46.5C44.9997 44.019 42.9807 42 40.4997 42H34.4997C34.1019 42 33.7203 41.842 33.439 41.5607C33.1577 41.2794 32.9997 40.8978 32.9997 40.5C32.9997 40.1022 33.1577 39.7206 33.439 39.4393C33.7203 39.158 34.1019 39 34.4997 39H40.4997C44.6337 39 47.9997 42.366 47.9997 46.5V58.5C47.9997 60.981 50.0187 63 52.4997 63C54.9807 63 56.9997 60.981 56.9997 58.5V37.5C56.9997 37.1022 57.1577 36.7206 57.439 36.4393C57.7203 36.158 58.1019 36 58.4997 36C58.8975 36 59.279 36.158 59.5603 36.4393C59.8416 36.7206 59.9997 37.1022 59.9997 37.5V58.5C59.9997 62.634 56.6337 66 52.4997 66ZM13.4997 51C13.2032 50.9999 12.9135 50.912 12.6669 50.7474C12.4204 50.5828 12.2282 50.3488 12.1146 50.075C12.0009 49.8012 11.971 49.4998 12.0285 49.209C12.086 48.9182 12.2284 48.6509 12.4377 48.441L20.1447 40.734L12.6657 35.748C12.4822 35.6238 12.3283 35.4607 12.2149 35.2704C12.1015 35.08 12.0315 34.867 12.0097 34.6465C11.9879 34.426 12.015 34.2034 12.089 33.9945C12.1629 33.7857 12.282 33.5957 12.4377 33.438L21.4377 24.438C21.7206 24.1648 22.0995 24.0136 22.4928 24.017C22.8861 24.0204 23.2623 24.1782 23.5404 24.4563C23.8185 24.7344 23.9763 25.1106 23.9797 25.5039C23.9831 25.8972 23.8319 26.2761 23.5587 26.559L15.8517 34.266L23.3307 39.252C23.5142 39.3762 23.6681 39.5393 23.7815 39.7296C23.8948 39.92 23.9649 40.133 23.9867 40.3535C24.0084 40.574 23.9814 40.7966 23.9074 41.0055C23.8334 41.2143 23.7144 41.4043 23.5587 41.562L14.5587 50.562C14.4197 50.7011 14.2546 50.8114 14.0728 50.8866C13.8911 50.9617 13.6963 51.0003 13.4997 51Z" fill="#FEBE09"/>
</g>
<defs>
<clipPath id="clip0_7208_538">
<rect width="72" height="72" fill="white"/>
</clipPath>
</defs>
</svg>
