<svg width="28" height="32" viewBox="0 0 28 32" fill="none" xmlns="http://www.w3.org/2000/svg">
<path d="M27.1237 1.05777C26.8487 0.66271 26.4783 0.373802 26.0134 0.190531C25.7173 0.0637819 25.407 0.000296316 25.0826 0.000296316V0H2.91714C2.59289 0 2.28287 0.0634856 1.98671 0.190235C1.52149 0.373358 1.15124 0.662635 0.876338 1.05748C0.601506 1.45232 0.463867 1.88923 0.463867 2.36875V29.6312C0.463867 30.1108 0.601506 30.5476 0.876338 30.9428C1.15124 31.3376 1.52149 31.6268 1.98671 31.8098C2.28258 31.9366 2.59289 31.9999 2.91714 31.9999C3.58007 31.9999 4.16492 31.7672 4.67266 31.3023L13.9999 22.3341L23.3272 31.3025C23.8208 31.7529 24.4059 31.9786 25.0825 31.9786C25.4351 31.9786 25.7454 31.9226 26.0133 31.8098C26.4782 31.6267 26.8486 31.3375 27.1237 30.9422C27.3985 30.5475 27.5358 30.1107 27.5358 29.6311V2.36904C27.5359 1.88953 27.3983 1.45261 27.1237 1.05777ZM24.8288 28.9751L15.8823 20.3883L13.9999 18.5908L12.1177 20.3883L3.1713 28.9751V2.70751H24.8288V28.9751V28.9751Z" fill="#FEBE09"/>
</svg>
