<svg width="72" height="72" viewBox="0 0 72 72" fill="none" xmlns="http://www.w3.org/2000/svg">
<path d="M30.3767 51.8542H30.3655C29.783 51.8542 29.3164 52.3265 29.3164 52.9089C29.3164 53.4914 29.7942 53.9636 30.3767 53.9636C30.6564 53.9636 30.9247 53.8525 31.1225 53.6547C31.3203 53.4569 31.4314 53.1887 31.4314 52.9089C31.4314 52.6292 31.3203 52.3609 31.1225 52.1632C30.9247 51.9654 30.6564 51.8542 30.3767 51.8542Z" fill="#FEBE09"/>
<path d="M70.9452 48.4725C70.6655 48.4725 70.3972 48.5836 70.1994 48.7814C70.0016 48.9792 69.8905 49.2475 69.8905 49.5272V50.6544C69.8905 50.664 69.8886 50.6734 69.885 50.6822C69.8813 50.691 69.876 50.699 69.8692 50.7057C69.8625 50.7125 69.8545 50.7178 69.8457 50.7215C69.8369 50.7251 69.8275 50.727 69.8179 50.727H65.2362V41.6363C65.2362 40.4331 64.2575 39.4544 63.0543 39.4544H60.7272V22.473C60.7272 16.9187 56.2085 12.4001 50.6544 12.4001H10.0728C4.51869 12.4 0 16.9187 0 22.473V42.7637C0 48.3178 4.51869 52.8365 10.0728 52.8365H23.6745C23.6742 52.8608 23.6726 52.8847 23.6726 52.9091C23.6726 56.5985 26.6743 59.6001 30.3637 59.6001C34.0531 59.6001 37.0548 56.5985 37.0548 52.9091C37.0548 52.8847 37.0532 52.8608 37.0529 52.8365H69.8181C71.0212 52.8365 72 51.8578 72 50.6546V49.5273C72 49.2476 71.8888 48.9793 71.691 48.7815C71.4932 48.5837 71.2249 48.4725 70.9452 48.4725ZM30.3635 57.4908C27.8372 57.4908 25.7819 55.4354 25.7819 52.9091C25.7819 50.3827 27.8372 48.3274 30.3635 48.3274C32.8899 48.3274 34.9452 50.3827 34.9452 52.9091C34.9452 55.4354 32.8899 57.4908 30.3635 57.4908ZM50.7269 50.7271H41.5636V34.8003H50.7269V50.7271ZM50.727 32.6909H41.5637V28.0366H50.727V32.6909ZM50.727 25.9273H41.5636V25.8547C41.5636 23.3284 43.619 21.273 46.1453 21.273C48.6716 21.273 50.727 23.3284 50.727 25.8547V25.9273ZM46.1453 19.1638C42.4559 19.1638 39.4542 22.1653 39.4542 25.8547V39.4544H35.9995C35.7198 39.4544 35.4515 39.5655 35.2537 39.7633C35.0559 39.9611 34.9448 40.2293 34.9448 40.5091C34.9448 40.7888 35.0559 41.057 35.2537 41.2548C35.4515 41.4526 35.7198 41.5637 35.9995 41.5637H39.4542V50.727H36.6873C35.7803 48.106 33.289 46.218 30.3635 46.218C27.4381 46.218 24.9468 48.106 24.0398 50.727H10.0728C5.6818 50.7271 2.10937 47.1547 2.10937 42.7637V41.5639H31.4909C31.7707 41.5639 32.0389 41.4528 32.2367 41.255C32.4345 41.0572 32.5456 40.7889 32.5456 40.5092C32.5456 40.2295 32.4345 39.9612 32.2367 39.7634C32.0389 39.5656 31.7707 39.4545 31.4909 39.4545H2.10937V22.473C2.10937 18.0818 5.6818 14.5095 10.0728 14.5095H50.6544C55.0456 14.5095 58.6179 18.0819 58.6179 22.473V39.4545H52.8364V25.8548C52.8364 22.1654 49.8347 19.1638 46.1453 19.1638ZM52.8364 50.4207V41.5639H58.6179V42.7637C58.6179 46.398 56.1696 49.4694 52.8364 50.4207ZM56.8115 50.7271C59.1911 48.8831 60.7271 46.0002 60.7271 42.7637V41.5639H63.0542C63.0942 41.5639 63.1267 41.5964 63.1267 41.6364V50.7271H56.8115Z" fill="#FEBE09"/>
<path d="M29.2361 23.6729H11.1998C9.37506 23.6729 7.89062 25.1574 7.89062 26.982V33.7457C7.89062 35.5704 9.3752 37.0549 11.1998 37.0549H29.2361C31.0608 37.0549 32.5453 35.5703 32.5453 33.7457V26.982C32.5454 25.1574 31.0608 23.6729 29.2361 23.6729ZM19.1633 34.9455H11.1998C10.5382 34.9455 10 34.4072 10 33.7457V26.982C10 26.3204 10.5383 25.7822 11.1998 25.7822H19.1633V34.9455ZM30.436 33.7457C30.436 34.4073 29.8977 34.9455 29.2362 34.9455H21.2728V25.7822H29.2362C29.8979 25.7822 30.436 26.3205 30.436 26.982V33.7457Z" fill="#FEBE09"/>
</svg>
