<svg width="72" height="72" viewBox="0 0 72 72" fill="none" xmlns="http://www.w3.org/2000/svg">
<g clip-path="url(#clip0_7222_935)">
<path d="M64.1236 62.1562V61.8975C64.1236 62.1225 64.1123 62.3475 64.0898 62.5725C64.1011 62.4375 64.1236 62.3025 64.1236 62.1562Z" fill="#FEBE09"/>
<path d="M59.625 44.9999H53.5725L52.6613 43.1887C50.9053 39.6766 48.206 36.7228 44.8658 34.6585C41.5257 32.5941 37.6766 31.5007 33.75 31.5007C29.8234 31.5007 25.9743 32.5941 22.6342 34.6585C19.294 36.7228 16.5947 39.6766 14.8387 43.1887L13.9163 45.0224C11.3612 45.2065 8.97042 46.3503 7.22383 48.2242C5.47724 50.098 4.50417 52.5633 4.5 55.1249V56.2499H2.25V23.6249C2.25208 21.8353 2.96391 20.1197 4.22933 18.8542C5.49475 17.5888 7.21043 16.877 9 16.8749H13.5563C13.8327 20.2505 15.3688 23.3985 17.8595 25.6936C20.3502 27.9887 23.6131 29.2628 27 29.2628C30.3869 29.2628 33.6498 27.9887 36.1405 25.6936C38.6312 23.3985 40.1673 20.2505 40.4438 16.8749H46.125C46.1256 17.4715 46.3628 18.0434 46.7847 18.4653C47.2065 18.8871 47.7784 19.1243 48.375 19.1249H50.7847C51.0327 20.0885 51.5934 20.9425 52.3788 21.5533C53.1642 22.164 54.1301 22.497 55.125 22.4999H61.875V23.6249C61.875 23.9233 61.9935 24.2094 62.2045 24.4204C62.4155 24.6314 62.7016 24.7499 63 24.7499C63.2984 24.7499 63.5845 24.6314 63.7955 24.4204C64.0065 24.2094 64.125 23.9233 64.125 23.6249V20.2499H68.625C68.9234 20.2499 69.2095 20.1314 69.4205 19.9204C69.6315 19.7094 69.75 19.4233 69.75 19.1249C69.75 18.8266 69.6315 18.5404 69.4205 18.3294C69.2095 18.1184 68.9234 17.9999 68.625 17.9999H64.125V13.4999H68.625C68.9234 13.4999 69.2095 13.3814 69.4205 13.1704C69.6315 12.9594 69.75 12.6733 69.75 12.3749C69.75 12.0766 69.6315 11.7904 69.4205 11.5794C69.2095 11.3684 68.9234 11.2499 68.625 11.2499H64.125V7.87492C64.125 7.57655 64.0065 7.2904 63.7955 7.07942C63.5845 6.86845 63.2984 6.74992 63 6.74992C62.7016 6.74992 62.4155 6.86845 62.2045 7.07942C61.9935 7.2904 61.875 7.57655 61.875 7.87492V8.99992H55.125C54.1301 9.00288 53.1642 9.33582 52.3788 9.94657C51.5934 10.5573 51.0327 11.4114 50.7847 12.3749H48.375C47.7784 12.3755 47.2065 12.6128 46.7847 13.0346C46.3628 13.4564 46.1256 14.0284 46.125 14.6249H40.4438C40.1673 11.2494 38.6312 8.1013 36.1405 5.80623C33.6498 3.51117 30.3869 2.23706 27 2.23706C23.6131 2.23706 20.3502 3.51117 17.8595 5.80623C15.3688 8.1013 13.8327 11.2494 13.5563 14.6249H9C6.61397 14.6279 4.32651 15.5771 2.63933 17.2642C0.952144 18.9514 0.00297696 21.2389 0 23.6249L0 57.3749C0 57.6733 0.118526 57.9594 0.329505 58.1704C0.540483 58.3814 0.826631 58.4999 1.125 58.4999H4.5V64.1249C4.50089 64.423 4.6197 64.7086 4.83049 64.9194C5.04127 65.1302 5.32691 65.249 5.625 65.2499H13.1456C13.7819 66.5959 14.7875 67.7335 16.0452 68.5302C17.303 69.3268 18.7612 69.7498 20.25 69.7498C21.7388 69.7498 23.197 69.3268 24.4548 68.5302C25.7125 67.7335 26.7181 66.5959 27.3544 65.2499H49.1456C49.7819 66.5959 50.7875 67.7335 52.0452 68.5302C53.303 69.3268 54.7612 69.7498 56.25 69.7498C57.7388 69.7498 59.197 69.3268 60.4548 68.5302C61.7125 67.7335 62.7181 66.5959 63.3544 65.2499H70.875C71.1731 65.249 71.4587 65.1302 71.6695 64.9194C71.8803 64.7086 71.9991 64.423 72 64.1249V57.3749C71.9979 54.0935 70.6935 50.9471 68.3731 48.6268C66.0528 46.3065 62.9064 45.002 59.625 44.9999ZM55.125 11.2499H61.875V20.2499H55.125C54.5284 20.2493 53.9565 20.0121 53.5347 19.5903C53.1128 19.1684 52.8756 18.5965 52.875 17.9999V13.4999C52.8756 12.9034 53.1128 12.3314 53.5347 11.9096C53.9565 11.4878 54.5284 11.2505 55.125 11.2499ZM48.375 14.6249H50.625V16.8749H48.375V14.6249ZM27 4.49992C29.225 4.49992 31.4001 5.15972 33.2502 6.39589C35.1002 7.63205 36.5422 9.38906 37.3936 11.4447C38.2451 13.5004 38.4679 15.7624 38.0338 17.9447C37.5998 20.127 36.5283 22.1315 34.955 23.7049C33.3816 25.2782 31.3771 26.3497 29.1948 26.7838C27.0125 27.2178 24.7505 26.9951 22.6948 26.1436C20.6391 25.2921 18.8821 23.8501 17.646 22.0001C16.4098 20.15 15.75 17.975 15.75 15.7499C15.7533 12.7672 16.9396 9.90766 19.0487 7.79859C21.1577 5.68951 24.0173 4.50319 27 4.49992ZM20.25 67.4999C19.1375 67.4999 18.0499 67.17 17.1249 66.5519C16.1999 65.9339 15.4789 65.0553 15.0532 64.0275C14.6274 62.9997 14.516 61.8687 14.7331 60.7775C14.9501 59.6864 15.4859 58.6841 16.2725 57.8974C17.0592 57.1108 18.0615 56.575 19.1526 56.358C20.2438 56.141 21.3748 56.2524 22.4026 56.6781C23.4304 57.1038 24.3089 57.8248 24.927 58.7498C25.5451 59.6749 25.875 60.7624 25.875 61.8749C25.8732 63.3662 25.28 64.7959 24.2255 65.8504C23.171 66.9049 21.7413 67.4981 20.25 67.4999ZM56.25 67.4999C55.1375 67.4999 54.0499 67.17 53.1249 66.5519C52.1999 65.9339 51.4789 65.0553 51.0532 64.0275C50.6274 62.9997 50.516 61.8687 50.7331 60.7775C50.9501 59.6864 51.4859 58.6841 52.2725 57.8974C53.0592 57.1108 54.0615 56.575 55.1526 56.358C56.2438 56.141 57.3748 56.2524 58.4026 56.6781C59.4304 57.1038 60.3089 57.8248 60.927 58.7498C61.5451 59.6749 61.875 60.7624 61.875 61.8749C61.8732 63.3662 61.28 64.7959 60.2255 65.8504C59.171 66.9049 57.7413 67.4981 56.25 67.4999ZM69.75 62.9999H64.035C64.206 61.8784 64.1327 60.7331 63.82 59.6425C63.5074 58.5519 62.9628 57.5417 62.2235 56.6811C61.4842 55.8206 60.5677 55.1299 59.5367 54.6564C58.5057 54.1829 57.3845 53.9377 56.25 53.9377C55.1155 53.9377 53.9943 54.1829 52.9633 54.6564C51.9323 55.1299 51.0158 55.8206 50.2765 56.6811C49.5372 57.5417 48.9926 58.5519 48.68 59.6425C48.3673 60.7331 48.294 61.8784 48.465 62.9999H28.035C28.206 61.8784 28.1327 60.7331 27.82 59.6425C27.5074 58.5519 26.9628 57.5417 26.2235 56.6811C25.4842 55.8206 24.5677 55.1299 23.5367 54.6564C22.5057 54.1829 21.3845 53.9377 20.25 53.9377C19.1155 53.9377 17.9943 54.1829 16.9633 54.6564C15.9323 55.1299 15.0158 55.8206 14.2765 56.6811C13.5372 57.5417 12.9926 58.5519 12.68 59.6425C12.3673 60.7331 12.294 61.8784 12.465 62.9999H6.75V55.1249C6.75238 53.0371 7.58283 51.0354 9.05917 49.5591C10.5355 48.0827 12.5372 47.2523 14.625 47.2499C14.8331 47.2508 15.0372 47.1933 15.2142 47.084C15.3913 46.9746 15.534 46.8177 15.6263 46.6312L16.8525 44.2012C18.4198 41.0611 20.831 38.4198 23.8158 36.5738C26.8005 34.7277 30.2405 33.7498 33.75 33.7498C37.2595 33.7498 40.6996 34.7277 43.6842 36.5738C46.6689 38.4198 49.0802 41.0611 50.6475 44.2012L51.8737 46.6312C51.966 46.8177 52.1087 46.9746 52.2858 47.084C52.4628 47.1933 52.6669 47.2508 52.875 47.2499H59.625C62.309 47.2541 64.882 48.3222 66.7799 50.2201C68.6778 52.118 69.7458 54.6909 69.75 57.3749V62.9999Z" fill="#FEBE09"/>
<path d="M43.0976 37.5298C40.9196 36.1837 38.4766 35.3238 35.9356 35.0089C33.3946 34.6941 30.8156 34.9318 28.375 35.7057C25.9343 36.4796 23.6896 37.7716 21.7943 39.4931C19.899 41.2146 18.3979 43.3252 17.3936 45.6804C17.32 45.8516 17.2901 46.0383 17.3065 46.2239C17.3229 46.4095 17.3852 46.5881 17.4877 46.7437C17.5902 46.8993 17.7297 47.027 17.8937 47.1153C18.0578 47.2036 18.2412 47.2499 18.4275 47.2498H49.0725C49.2586 47.2499 49.4418 47.2038 49.6058 47.1157C49.7697 47.0275 49.9092 46.9001 50.0118 46.7448C50.1143 46.5895 50.1768 46.4112 50.1935 46.2258C50.2102 46.0404 50.1806 45.8538 50.1075 45.6827C48.6714 42.3051 46.222 39.4556 43.0976 37.5298ZM32.625 37.1687V44.9998H20.2399C21.501 42.7764 23.291 40.8985 25.4513 39.5323C27.6117 38.1661 30.0757 37.3538 32.625 37.1676V37.1687ZM34.875 44.9998V37.1664C37.4252 37.3515 39.8903 38.1633 42.0514 39.5298C44.2125 40.8963 46.0029 42.7753 47.2635 44.9998H34.875ZM20.25 57.3748C19.36 57.3748 18.49 57.6387 17.7499 58.1332C17.0099 58.6277 16.4331 59.3305 16.0925 60.1527C15.7519 60.975 15.6628 61.8798 15.8365 62.7527C16.0101 63.6256 16.4387 64.4274 17.068 65.0568C17.6974 65.6861 18.4992 66.1147 19.3721 66.2883C20.245 66.462 21.1498 66.3729 21.9721 66.0323C22.7943 65.6917 23.4971 65.1149 23.9916 64.3749C24.4861 63.6348 24.75 62.7648 24.75 61.8748C24.7488 60.6817 24.2743 59.5378 23.4307 58.6941C22.587 57.8505 21.4431 57.376 20.25 57.3748ZM20.25 64.1248C19.805 64.1248 19.37 63.9928 19 63.7456C18.63 63.4984 18.3416 63.147 18.1713 62.7358C18.001 62.3247 17.9564 61.8723 18.0432 61.4358C18.1301 60.9994 18.3443 60.5985 18.659 60.2838C18.9737 59.9691 19.3746 59.7549 19.811 59.668C20.2475 59.5812 20.6999 59.6258 21.111 59.7961C21.5222 59.9664 21.8736 60.2548 22.1208 60.6248C22.368 60.9948 22.5 61.4298 22.5 61.8748C22.4994 62.4714 22.2622 63.0433 21.8403 63.4651C21.4185 63.887 20.8466 64.1242 20.25 64.1248ZM56.25 57.3748C55.36 57.3748 54.49 57.6387 53.7499 58.1332C53.0099 58.6277 52.4331 59.3305 52.0925 60.1527C51.7519 60.975 51.6628 61.8798 51.8365 62.7527C52.0101 63.6256 52.4387 64.4274 53.068 65.0568C53.6974 65.6861 54.4992 66.1147 55.3721 66.2883C56.245 66.462 57.1498 66.3729 57.9721 66.0323C58.7943 65.6917 59.4972 65.1149 59.9916 64.3749C60.4861 63.6348 60.75 62.7648 60.75 61.8748C60.7488 60.6817 60.2743 59.5378 59.4307 58.6941C58.587 57.8505 57.4431 57.376 56.25 57.3748ZM56.25 64.1248C55.805 64.1248 55.37 63.9928 55 63.7456C54.63 63.4984 54.3416 63.147 54.1713 62.7358C54.001 62.3247 53.9564 61.8723 54.0432 61.4358C54.1301 60.9994 54.3443 60.5985 54.659 60.2838C54.9737 59.9691 55.3746 59.7549 55.8111 59.668C56.2475 59.5812 56.6999 59.6258 57.111 59.7961C57.5222 59.9664 57.8736 60.2548 58.1208 60.6248C58.368 60.9948 58.5 61.4298 58.5 61.8748C58.4994 62.4714 58.2622 63.0433 57.8403 63.4651C57.4185 63.887 56.8466 64.1242 56.25 64.1248ZM40.5 49.4998H37.125C36.8266 49.4998 36.5405 49.6183 36.3295 49.8293C36.1185 50.0403 36 50.3264 36 50.6248C36 50.9232 36.1185 51.2093 36.3295 51.4203C36.5405 51.6313 36.8266 51.7498 37.125 51.7498H40.5C40.7984 51.7498 41.0845 51.6313 41.2955 51.4203C41.5065 51.2093 41.625 50.9232 41.625 50.6248C41.625 50.3264 41.5065 50.0403 41.2955 49.8293C41.0845 49.6183 40.7984 49.4998 40.5 49.4998Z" fill="#FEBE09"/>
<path d="M32.065 10.8976C31.9673 10.8045 31.8351 10.7522 31.6972 10.7522C31.5594 10.7522 31.4271 10.8045 31.3294 10.8976L21.9381 19.8976C21.8835 19.9424 21.8391 19.9976 21.8078 20.0596C21.7765 20.1216 21.7589 20.1892 21.7561 20.2581C21.7533 20.3269 21.7654 20.3956 21.7917 20.4598C21.8179 20.5239 21.8577 20.5822 21.9085 20.6309C21.9594 20.6796 22.0202 20.7178 22.0871 20.7429C22.1541 20.7681 22.2257 20.7797 22.2976 20.777C22.3694 20.7743 22.44 20.7575 22.5047 20.7275C22.5694 20.6974 22.627 20.6549 22.6737 20.6026L32.065 11.6026C32.1622 11.5089 32.2168 11.3822 32.2168 11.2501C32.2168 11.118 32.1622 10.9913 32.065 10.8976ZM26.219 12.5001C26.219 12.0056 26.066 11.5223 25.7793 11.1112C25.4927 10.7001 25.0852 10.3796 24.6086 10.1904C24.1319 10.0012 23.6074 9.95167 23.1013 10.0481C22.5953 10.1446 22.1305 10.3827 21.7656 10.7323C21.4008 11.082 21.1523 11.5274 21.0517 12.0124C20.951 12.4973 21.0027 13 21.2001 13.4568C21.3976 13.9136 21.7319 14.3041 22.1609 14.5788C22.5899 14.8535 23.0943 15.0001 23.6103 15.0001C24.3021 15.0001 24.9657 14.7367 25.4549 14.2679C25.9441 13.799 26.219 13.1631 26.219 12.5001ZM22.045 12.5001C22.045 12.2034 22.1368 11.9134 22.3088 11.6667C22.4808 11.4201 22.7253 11.2278 23.0113 11.1143C23.2973 11.0007 23.612 10.971 23.9156 11.0289C24.2192 11.0868 24.4981 11.2297 24.717 11.4394C24.9359 11.6492 25.085 11.9165 25.1454 12.2075C25.2058 12.4984 25.1748 12.8 25.0563 13.0741C24.9379 13.3482 24.7372 13.5825 24.4798 13.7473C24.2225 13.9121 23.9198 14.0001 23.6103 14.0001C23.1951 14.0001 22.797 13.8421 22.5035 13.5608C22.2099 13.2795 22.045 12.8979 22.045 12.5001ZM30.3929 16.0001C29.8769 16.0001 29.3726 16.1467 28.9436 16.4214C28.5146 16.6961 28.1802 17.0866 27.9828 17.5434C27.7853 18.0002 27.7336 18.5029 27.8343 18.9878C27.935 19.4728 28.1834 19.9182 28.5482 20.2679C28.9131 20.6175 29.3779 20.8556 29.8839 20.9521C30.39 21.0485 30.9145 20.999 31.3912 20.8098C31.8679 20.6206 32.2753 20.3001 32.5619 19.889C32.8486 19.4779 33.0016 18.9946 33.0016 18.5001C33.0016 18.1718 32.9341 17.8467 32.803 17.5434C32.6719 17.2401 32.4797 16.9645 32.2375 16.7323C31.9953 16.5002 31.7077 16.316 31.3912 16.1904C31.0747 16.0648 30.7354 16.0001 30.3929 16.0001ZM30.3929 20.0001C30.0833 20.0001 29.7807 19.9121 29.5233 19.7473C29.2659 19.5825 29.0653 19.3482 28.9468 19.0741C28.8283 18.8 28.7973 18.4984 28.8577 18.2075C28.9181 17.9165 29.0672 17.6492 29.2861 17.4394C29.505 17.2297 29.7839 17.0868 30.0875 17.0289C30.3911 16.971 30.7058 17.0007 30.9919 17.1143C31.2779 17.2278 31.5223 17.4201 31.6943 17.6667C31.8663 17.9134 31.9581 18.2034 31.9581 18.5001C31.9581 18.8979 31.7932 19.2795 31.4996 19.5608C31.2061 19.8421 30.808 20.0001 30.3929 20.0001Z" fill="#FEBE09"/>
<path fill-rule="evenodd" clip-rule="evenodd" d="M32.3427 10.6096C32.5161 10.7768 32.6168 11.0067 32.6168 11.2501C32.6168 11.4935 32.5161 11.7234 32.3427 11.8906L32.3418 11.8914L22.9601 20.8822C22.8787 20.9698 22.7809 21.0403 22.6729 21.0904C22.5596 21.1429 22.4369 21.1721 22.3124 21.1767C22.1879 21.1813 22.0634 21.1613 21.9465 21.1174C21.8297 21.0735 21.7223 21.0065 21.6318 20.9197C21.5411 20.8329 21.4692 20.728 21.4214 20.6111C21.3736 20.4942 21.3513 20.3685 21.3564 20.242C21.3615 20.1155 21.3939 19.992 21.4507 19.8793C21.5049 19.772 21.58 19.6772 21.6709 19.5997L31.0535 10.608C31.2273 10.4424 31.459 10.3522 31.6972 10.3522C31.9354 10.3522 32.1671 10.4424 32.3409 10.608L32.3427 10.6096ZM21.9381 19.8976C21.8835 19.9424 21.8391 19.9976 21.8078 20.0596C21.7765 20.1216 21.7589 20.1892 21.7561 20.2581C21.7533 20.3269 21.7654 20.3956 21.7917 20.4598C21.8179 20.5239 21.8577 20.5822 21.9085 20.6309C21.9594 20.6796 22.0202 20.7178 22.0871 20.7429C22.1541 20.7681 22.2257 20.7797 22.2976 20.777C22.3694 20.7743 22.44 20.7575 22.5047 20.7275C22.5694 20.6974 22.627 20.6549 22.6737 20.6026L32.065 11.6026C32.1622 11.5089 32.2168 11.3822 32.2168 11.2501C32.2168 11.118 32.1622 10.9913 32.065 10.8976C31.9673 10.8045 31.8351 10.7522 31.6972 10.7522C31.5594 10.7522 31.4271 10.8045 31.3294 10.8976L21.9381 19.8976ZM26.1074 10.8824C26.4402 11.3597 26.619 11.9226 26.619 12.5001C26.619 13.2749 26.2976 14.0142 25.7316 14.5567C25.1662 15.0985 24.4029 15.4001 23.6103 15.4001C23.0189 15.4001 22.4395 15.2321 21.9452 14.9156C21.4508 14.599 21.0628 14.1473 20.833 13.6155C20.603 13.0835 20.5426 12.4971 20.66 11.9311C20.7775 11.3652 21.0669 10.8479 21.4889 10.4435C21.9107 10.0393 22.446 9.76585 23.0264 9.65521C23.6068 9.54458 24.2085 9.60123 24.7561 9.81862C25.3039 10.0361 25.7748 10.4054 26.1074 10.8824ZM22.6369 11.8955C22.5111 12.0761 22.445 12.2864 22.445 12.5001C22.445 12.7862 22.5635 13.0642 22.7802 13.272C22.9976 13.4802 23.2959 13.6001 23.6103 13.6001C23.8444 13.6001 24.072 13.5335 24.2641 13.4104C24.4561 13.2875 24.6031 13.1145 24.6892 12.9154C24.7751 12.7165 24.7973 12.4987 24.7538 12.2888C24.7101 12.0787 24.602 11.8833 24.4403 11.7282C24.2783 11.573 24.07 11.4655 23.8407 11.4218C23.6114 11.3781 23.3739 11.4007 23.1589 11.4861C22.9439 11.5714 22.763 11.7148 22.6369 11.8955ZM28.7279 16.0846C29.2221 15.7681 29.8015 15.6001 30.3929 15.6001C30.7857 15.6001 31.175 15.6742 31.5388 15.8186C31.9025 15.963 32.2342 16.1751 32.5143 16.4435C32.7944 16.712 33.0176 17.0316 33.1702 17.3847C33.3228 17.7378 33.4016 18.1168 33.4016 18.5001C33.4016 19.0775 33.2228 19.6405 32.89 20.1178C32.5574 20.5948 32.0865 20.9641 31.5388 21.1816C30.9911 21.399 30.3894 21.4556 29.809 21.345C29.2286 21.2343 28.6933 20.9609 28.2715 20.5567C27.8495 20.1523 27.5601 19.635 27.4426 19.0691C27.3252 18.5031 27.3856 17.9167 27.6156 17.3847C27.8454 16.8529 28.2334 16.4012 28.7279 16.0846ZM29.739 19.4104C29.9311 19.5335 30.1587 19.6001 30.3929 19.6001C30.7073 19.6001 31.0055 19.4802 31.2229 19.272C31.4396 19.0642 31.5581 18.7862 31.5581 18.5001C31.5581 18.2864 31.4921 18.0761 31.3662 17.8955C31.2401 17.7148 31.0592 17.5714 30.8443 17.4861C30.6292 17.4007 30.3917 17.3781 30.1624 17.4218C29.9332 17.4655 29.7248 17.573 29.5629 17.7282C29.4011 17.8833 29.293 18.0787 29.2494 18.2888C29.2058 18.4987 29.228 18.7165 29.314 18.9154C29.4 19.1145 29.547 19.2875 29.739 19.4104ZM25.7793 11.1112C26.066 11.5223 26.219 12.0056 26.219 12.5001C26.219 13.1631 25.9441 13.799 25.4549 14.2679C24.9657 14.7367 24.3021 15.0001 23.6103 15.0001C23.0943 15.0001 22.5899 14.8535 22.1609 14.5788C21.7319 14.3041 21.3976 13.9136 21.2001 13.4568C21.0027 13 20.951 12.4973 21.0517 12.0124C21.1523 11.5274 21.4008 11.082 21.7656 10.7323C22.1305 10.3827 22.5953 10.1446 23.1013 10.0481C23.6074 9.95167 24.1319 10.0012 24.6086 10.1904C25.0852 10.3796 25.4927 10.7001 25.7793 11.1112ZM22.3088 11.6667C22.1368 11.9134 22.045 12.2034 22.045 12.5001C22.045 12.8979 22.2099 13.2795 22.5035 13.5608C22.797 13.8421 23.1951 14.0001 23.6103 14.0001C23.9198 14.0001 24.2225 13.9121 24.4798 13.7473C24.7372 13.5825 24.9379 13.3482 25.0563 13.0741C25.1748 12.8 25.2058 12.4984 25.1454 12.2075C25.085 11.9165 24.9359 11.6492 24.717 11.4394C24.4981 11.2297 24.2192 11.0868 23.9156 11.0289C23.612 10.971 23.2973 11.0007 23.0113 11.1143C22.7253 11.2278 22.4808 11.4201 22.3088 11.6667ZM28.9436 16.4214C29.3726 16.1467 29.8769 16.0001 30.3929 16.0001C30.7354 16.0001 31.0747 16.0648 31.3912 16.1904C31.7077 16.316 31.9953 16.5002 32.2375 16.7323C32.4797 16.9645 32.6719 17.2401 32.803 17.5434C32.9341 17.8467 33.0016 18.1718 33.0016 18.5001C33.0016 18.9946 32.8486 19.4779 32.5619 19.889C32.2753 20.3001 31.8679 20.6206 31.3912 20.8098C30.9145 20.999 30.39 21.0485 29.8839 20.9521C29.3779 20.8556 28.9131 20.6175 28.5482 20.2679C28.1834 19.9182 27.935 19.4728 27.8343 18.9878C27.7336 18.5029 27.7853 18.0002 27.9828 17.5434C28.1802 17.0866 28.5146 16.6961 28.9436 16.4214ZM29.5233 19.7473C29.7807 19.9121 30.0833 20.0001 30.3929 20.0001C30.808 20.0001 31.2061 19.8421 31.4996 19.5608C31.7932 19.2795 31.9581 18.8979 31.9581 18.5001C31.9581 18.2034 31.8663 17.9134 31.6943 17.6667C31.5223 17.4201 31.2779 17.2278 30.9919 17.1143C30.7058 17.0007 30.3911 16.971 30.0875 17.0289C29.7839 17.0868 29.505 17.2297 29.2861 17.4394C29.0672 17.6492 28.9181 17.9165 28.8577 18.2075C28.7973 18.4984 28.8283 18.8 28.9468 19.0741C29.0653 19.3482 29.2659 19.5825 29.5233 19.7473Z" fill="#FEBE09"/>
</g>
<defs>
<clipPath id="clip0_7222_935">
<rect width="72" height="72" fill="white"/>
</clipPath>
</defs>
</svg>
