<svg width="72" height="72" viewBox="0 0 72 72" fill="none" xmlns="http://www.w3.org/2000/svg">
<path d="M48.3146 66.2945C49.3619 66.2945 50.2237 65.4436 50.2237 64.3854V55.8218C50.226 55.0074 49.9555 54.2157 49.4552 53.573C48.9549 52.9304 48.2538 52.4738 47.4637 52.2763L39.98 50.4109L30.6746 38.3454C29.9764 37.4509 28.9291 36.9272 27.7946 36.9272H10.0564C8.68186 36.9272 7.4055 37.7236 6.79459 38.9454L1.19822 50.1709C0.947315 50.6618 0.816406 51.2291 0.816406 51.8073V64.3854C0.816406 65.4327 1.66732 66.2945 2.7255 66.2945H7.03459C7.42732 68.76 9.55459 70.6582 12.1291 70.6582C14.7037 70.6582 16.82 68.76 17.2237 66.2945H33.8382C34.231 68.76 36.3582 70.6582 38.9328 70.6582C41.5073 70.6582 43.6237 68.76 44.0273 66.2945H48.3146ZM48.5873 60.2836H47.6164C47.2866 60.2836 46.9703 60.1526 46.737 59.9194C46.5038 59.6861 46.3728 59.3698 46.3728 59.04C46.3728 58.7101 46.5038 58.3938 46.737 58.1606C46.9703 57.9274 47.2866 57.7963 47.6164 57.7963H48.5873V60.2836ZM2.45277 55.9527H4.70004C4.75459 55.9527 4.79822 55.9963 4.79822 56.0509V59.9672C4.79822 60.0218 4.75459 60.0654 4.70004 60.0654H2.45277V55.9527ZM2.45277 64.3963V61.6909H4.70004C5.66004 61.6909 6.43459 60.9163 6.43459 59.9563V56.04C6.43459 55.08 5.66004 54.3054 4.70004 54.3054H2.45277V51.8073C2.45277 51.4909 2.52913 51.1854 2.66004 50.9127L8.25641 39.6872C8.59459 39.0109 9.30368 38.5745 10.0564 38.5745H27.7837C28.4055 38.5745 28.9837 38.8582 29.3764 39.3491L38.8564 51.6436C38.9655 51.7854 39.1291 51.8945 39.3037 51.9382L47.06 53.88C47.9546 54.1091 48.5873 54.9054 48.5873 55.8327V56.1709H47.6164C46.0346 56.1709 44.7364 57.4582 44.7364 59.0509C44.7364 60.6327 46.0237 61.9309 47.6164 61.9309H48.5873V64.4072C48.5873 64.56 48.4673 64.68 48.3146 64.68H44.0055C43.6128 62.2145 41.4855 60.3272 38.9109 60.3272C36.3364 60.3272 34.22 62.2145 33.8164 64.68H17.2128C16.82 62.2145 14.6928 60.3272 12.1182 60.3272C9.54368 60.3272 7.42732 62.2145 7.02368 64.68H2.7255C2.57277 64.6582 2.45277 64.5382 2.45277 64.3963ZM12.1182 69.0218C11.1808 69.0218 10.2818 68.6494 9.61892 67.9865C8.95607 67.3237 8.58368 66.4247 8.58368 65.4872C8.58368 64.5498 8.95607 63.6508 9.61892 62.9879C10.2818 62.3251 11.1808 61.9527 12.1182 61.9527C13.0556 61.9527 13.9547 62.3251 14.6175 62.9879C15.2804 63.6508 15.6528 64.5498 15.6528 65.4872C15.6528 66.4247 15.2804 67.3237 14.6175 67.9865C13.9547 68.6494 13.0556 69.0218 12.1182 69.0218ZM38.9109 69.0218C37.9735 69.0218 37.0745 68.6494 36.4117 67.9865C35.7488 67.3237 35.3764 66.4247 35.3764 65.4872C35.3764 64.5498 35.7488 63.6508 36.4117 62.9879C37.0745 62.3251 37.9735 61.9527 38.9109 61.9527C39.8484 61.9527 40.7474 62.3251 41.4103 62.9879C42.0731 63.6508 42.4455 64.5498 42.4455 65.4872C42.4455 66.4247 42.0731 67.3237 41.4103 67.9865C40.7474 68.6494 39.8484 69.0218 38.9109 69.0218Z" fill="#FEBE09"/>
<path d="M32.7689 52.549C33.4562 52.549 34.0671 52.1672 34.3726 51.5454C34.678 50.9236 34.6017 50.2036 34.1871 49.669L28.078 41.7599C27.7398 41.3236 27.2162 41.0618 26.6598 41.0618H11.4635C10.7762 41.0618 10.1653 41.4436 9.85984 42.0545L5.92166 49.9636C5.64893 50.5199 5.67075 51.1745 6.00893 51.6981C6.3362 52.2327 6.90348 52.549 7.52529 52.549H32.7689ZM26.7798 42.7527L32.8889 50.6618C32.8998 50.6836 32.9435 50.7381 32.8998 50.8254C32.8671 50.88 32.8235 50.9127 32.758 50.9127H19.9944V42.6981H26.6598C26.7144 42.6981 26.758 42.709 26.7798 42.7527ZM7.38348 50.6945L11.3326 42.7854C11.3544 42.7309 11.4089 42.6981 11.4744 42.6981H18.3798V50.9127H7.51438C7.45984 50.9127 7.4162 50.8909 7.38348 50.8363C7.35075 50.7818 7.36166 50.7381 7.38348 50.6945ZM15.958 54.7963H14.7471C14.2998 54.7963 13.9289 55.1672 13.9289 55.6145C13.9289 56.0618 14.2998 56.4327 14.7471 56.4327H15.958C16.4053 56.4327 16.7762 56.0618 16.7762 55.6145C16.7762 55.1672 16.4053 54.7963 15.958 54.7963ZM22.7544 54.7963H21.5435C21.0962 54.7963 20.7253 55.1672 20.7253 55.6145C20.7253 56.0618 21.0962 56.4327 21.5435 56.4327H22.7544C22.9714 56.4327 23.1795 56.3465 23.3329 56.193C23.4864 56.0396 23.5726 55.8315 23.5726 55.6145C23.5726 55.3975 23.4864 55.1894 23.3329 55.036C23.1795 54.8825 22.9714 54.7963 22.7544 54.7963Z" fill="#FEBE09"/>
<path d="M67.7745 1.3418H33.5417C32.669 1.3418 31.8399 1.67998 31.1745 2.29089L19.4036 13.7673C18.749 14.4 18.3672 15.2945 18.3672 16.2218V33.3818C18.3672 33.8291 18.7381 34.2 19.1854 34.2C19.6326 34.2 20.0036 33.8291 20.0036 33.3818V17.16H32.1236C33.4763 17.16 34.5672 16.0582 34.5672 14.7163V2.97816H67.7745C68.7563 2.97816 69.5417 3.77452 69.5417 4.74543V67.2436C69.5417 68.2254 68.7454 69.0109 67.7745 69.0109H45.3999C44.9526 69.0109 44.5817 69.3818 44.5817 69.8291C44.5817 70.2763 44.9526 70.6473 45.3999 70.6473H67.7745C69.6508 70.6473 71.1781 69.12 71.1781 67.2436V4.74543C71.1781 2.86907 69.6508 1.3418 67.7745 1.3418ZM32.1126 15.5236H20.1345C20.2217 15.3054 20.3636 15.1091 20.5381 14.9345L32.309 3.47998C32.4945 3.30543 32.7017 3.18543 32.9308 3.09816V14.7163C32.9308 15.1636 32.5599 15.5236 32.1126 15.5236Z" fill="#FEBE09"/>
<path d="M62.0709 19.189C62.9982 19.189 63.7509 18.4363 63.7509 17.509V11.0836C63.7509 10.1563 62.9982 9.40356 62.0709 9.40356H42.4672C41.54 9.40356 40.7872 10.1563 40.7872 11.0836V17.509C40.7872 18.4363 41.54 19.189 42.4672 19.189H62.0709ZM42.4672 11.0508H62.0709C62.0927 11.0508 62.1145 11.0727 62.1145 11.0945L62.0709 17.5636L42.4236 17.5199L42.4672 11.0508ZM26.2891 26.0399C26.2891 26.4872 26.66 26.8581 27.1072 26.8581H62.9327C63.38 26.8581 63.7509 26.4872 63.7509 26.0399C63.7509 25.5927 63.38 25.2217 62.9327 25.2217H27.1072C26.66 25.2217 26.2891 25.5817 26.2891 26.0399ZM27.1072 33.0108H62.9327C63.38 33.0108 63.7509 32.6399 63.7509 32.1927C63.7509 31.7454 63.38 31.3745 62.9327 31.3745H27.1072C26.66 31.3745 26.2891 31.7454 26.2891 32.1927C26.2891 32.6399 26.66 33.0108 27.1072 33.0108ZM63.7509 38.3454C63.7509 37.8981 63.38 37.5272 62.9327 37.5272H42.9582C42.5109 37.5272 42.14 37.8981 42.14 38.3454C42.14 38.7927 42.5109 39.1636 42.9582 39.1636H62.9327C63.3909 39.1636 63.7509 38.7927 63.7509 38.3454ZM59.18 48.4472C59.2018 48.4472 59.2236 48.4581 59.2454 48.4581C59.2672 48.4581 59.2891 48.4472 59.3218 48.4472C60.5218 48.4799 61.4927 49.4727 61.4927 50.6836C61.4927 51.1308 61.8636 51.5017 62.3109 51.5017C62.7582 51.5017 63.1291 51.1308 63.1291 50.6836C63.1291 48.829 61.82 47.269 60.0745 46.8981V45.8072C60.0745 45.3599 59.7036 44.989 59.2563 44.989C58.8091 44.989 58.4382 45.3599 58.4382 45.8072V46.8981C56.6927 47.2799 55.3836 48.829 55.3836 50.6836C55.3836 51.7107 55.7916 52.6957 56.5179 53.422C57.2442 54.1483 58.2292 54.5563 59.2563 54.5563C60.4891 54.5563 61.4927 55.5599 61.4927 56.8036C61.4927 58.0145 60.5218 58.9963 59.3218 59.029C59.3 59.029 59.2782 59.0181 59.2454 59.0181C59.2236 59.0181 59.2018 59.029 59.18 59.029C57.98 58.9854 57.0091 58.0145 57.0091 56.8036C57.0091 56.3563 56.6382 55.9854 56.1909 55.9854C55.7436 55.9854 55.3727 56.3563 55.3727 56.8036C55.3727 58.6581 56.6818 60.2072 58.4272 60.5781V61.669C58.4272 62.1163 58.7982 62.4872 59.2454 62.4872C59.6927 62.4872 60.0636 62.1163 60.0636 61.669V60.5781C60.9287 60.3911 61.7036 59.9135 62.2593 59.2248C62.8151 58.536 63.1182 57.6777 63.1182 56.7927C63.1182 55.7645 62.7105 54.7784 61.9845 54.0504C61.2586 53.3224 60.2735 52.9119 59.2454 52.909C58.0127 52.909 57.0091 51.9054 57.0091 50.6727C57.0091 49.4727 57.98 48.4799 59.18 48.4472Z" fill="#FEBE09"/>
</svg>
