<svg width="72" height="72" viewBox="0 0 72 72" fill="none" xmlns="http://www.w3.org/2000/svg">
<path d="M15.0349 41.5293C12.5972 41.5293 10.6211 43.5055 10.6211 45.9431C10.6211 48.3807 12.5972 50.3569 15.0349 50.3569C17.4725 50.3569 19.4486 48.3807 19.4486 45.9431C19.4486 43.5055 17.4725 41.5293 15.0349 41.5293ZM15.0349 48.15C13.816 48.15 12.828 47.162 12.828 45.9431C12.828 44.7242 13.816 43.7362 15.0349 43.7362C16.2537 43.7362 17.2417 44.7242 17.2417 45.9431C17.2417 47.162 16.2537 48.15 15.0349 48.15ZM40.414 42.6328V40.4259H22.7589C22.4663 40.4259 22.1856 40.5422 21.9787 40.7491C21.7718 40.956 21.6555 41.2367 21.6555 41.5293V50.3569C21.6555 50.6495 21.7718 50.9302 21.9787 51.1371C22.1856 51.344 22.4663 51.4603 22.7589 51.4603H40.414V49.2534H23.8624V47.0465H40.414V44.8397H23.8624V42.6328H40.414ZM64.0065 7.29854C58.5217 1.58175 49.4411 1.39362 43.7243 6.87827C38.0075 12.3631 37.8194 21.4437 43.304 27.1605C43.4411 27.3034 43.5813 27.4435 43.7243 27.5807V34.9087C43.7243 35.2013 43.8406 35.482 44.0475 35.6889C44.2544 35.8959 44.5351 36.0121 44.8278 36.0121H47.0346V39.9691L45.1511 41.8526C44.9442 42.0596 44.828 42.3402 44.828 42.6328C44.828 42.9254 44.9442 43.206 45.1511 43.4129L47.0346 45.2965V53.2104L45.1511 55.0939C44.9442 55.3009 44.828 55.5815 44.828 55.8741C44.828 56.1667 44.9442 56.4473 45.1511 56.6542L46.5778 58.0809L45.1511 59.5077C44.9442 59.7146 44.828 59.9952 44.828 60.2878C44.828 60.5804 44.9442 60.861 45.1511 61.068L52.8751 68.792C53.0821 68.9989 53.3627 69.1151 53.6553 69.1151C53.9479 69.1151 54.2285 68.9989 54.4354 68.792L59.9526 63.2748C60.1596 63.0679 60.2759 62.7873 60.2759 62.4947V36.0121H62.4828C62.7755 36.0121 63.0561 35.8959 63.2631 35.6889C63.47 35.482 63.5863 35.2013 63.5863 34.9087V27.5807C69.303 22.096 69.4912 13.0153 64.0065 7.29854ZM58.069 62.0379L53.6553 66.4516L47.4915 60.2878L48.9182 58.8611C49.1251 58.6541 49.2413 58.3735 49.2413 58.0809C49.2413 57.7883 49.1251 57.5077 48.9182 57.3008L47.4915 55.8741L48.9182 54.4473C49.1252 54.2404 49.2415 53.9598 49.2415 53.6672V44.8397C49.2415 44.547 49.1252 44.2664 48.9182 44.0595L47.4915 42.6328L48.9182 41.206C49.1252 40.9991 49.2415 40.7185 49.2415 40.4259V36.0121H53.6553V58.0809H55.8622V36.0121H58.069V62.0379ZM61.3794 33.8052H45.9312V29.322C50.6332 32.3573 56.6773 32.3573 61.3794 29.322V33.8052ZM53.6553 29.3915C46.9551 29.3836 41.5253 23.9539 41.5174 17.2536C41.5174 10.5501 46.9517 5.1158 53.6553 5.1158C60.3588 5.1158 65.7931 10.5501 65.7931 17.2536C65.7931 23.9572 60.3588 29.3915 53.6553 29.3915Z" fill="#FEBE09"/>
<path d="M53.6548 60.2879H55.8617V62.4948H53.6548V60.2879ZM53.6548 7.32275C50.6078 7.32275 48.1376 9.79294 48.1376 12.84C48.1412 15.8855 50.6093 18.3536 53.6548 18.3572C56.7018 18.3572 59.172 15.887 59.172 12.84C59.172 9.79294 56.702 7.32275 53.6548 7.32275ZM53.6548 16.1503C51.8266 16.1503 50.3445 14.6682 50.3445 12.84C50.3445 11.0117 51.8266 9.52964 53.6548 9.52964C55.4831 9.52964 56.9652 11.0117 56.9652 12.84C56.9652 14.6682 55.4831 16.1503 53.6548 16.1503ZM10.6206 38.2191H40.4135V36.0122H20.7502L22.6173 24.8112C23.2287 21.0814 26.4569 18.347 30.2365 18.3572H35.9998V16.1503H30.2365C25.3776 16.1381 21.228 19.6534 20.4413 24.4482L18.5136 36.0122H15.243L17.5238 22.8978C18.5258 17.079 23.5772 12.8302 29.4818 12.84H35.9998V10.6331H29.4818C22.5037 10.622 16.5341 15.6427 15.3489 22.5193L13.003 36.0122H11.7241V28.2881C11.7241 27.9955 11.6078 27.7148 11.4009 27.5079C11.194 27.3009 10.9133 27.1847 10.6206 27.1847H5.10344C4.81079 27.1847 4.53013 27.3009 4.32319 27.5079C4.11626 27.7148 4 27.9955 4 28.2881V32.7019C4 32.9945 4.11626 33.2752 4.32319 33.4821C4.53013 33.6891 4.81079 33.8053 5.10344 33.8053H9.5172V36.1689C7.57432 36.6706 6.21447 38.4195 6.20688 40.426V51.4604C6.20992 53.5566 7.68466 55.3626 9.73789 55.7848L10.2366 57.7809C10.3896 58.3934 10.715 58.9491 11.1742 59.3823C11.6334 59.8155 12.2072 60.108 12.8275 60.225V68.012C12.8275 68.3046 12.9438 68.5853 13.1507 68.7922C13.3577 68.9992 13.6383 69.1154 13.931 69.1154H27.1723C27.4649 69.1154 27.7456 68.9992 27.9525 68.7922C28.1594 68.5853 28.2757 68.3046 28.2757 68.012V60.2879H40.4135V58.081H13.4477C13.2013 58.0812 12.962 57.999 12.7678 57.8474C12.5737 57.6958 12.4358 57.4836 12.3762 57.2446L12.0342 55.8741H40.4135V53.6673H10.6206C9.40176 53.6673 8.41376 52.6793 8.41376 51.4604V40.426C8.41376 39.2071 9.40189 38.2191 10.6206 38.2191ZM6.20688 31.5984V29.3916H9.5172V31.5984H6.20688ZM15.0344 60.2879H17.2413V64.7017H19.4482V60.2879H21.6551V62.4948H23.8619V60.2879H26.0688V66.9086H15.0344V60.2879ZM48.1376 20.564H59.172V22.7709H48.1376V20.564Z" fill="#FEBE09"/>
</svg>
