<svg width="62" height="57" viewBox="0 0 62 57" fill="none" xmlns="http://www.w3.org/2000/svg">
<path d="M11.375 41.25C9.88371 41.2482 8.454 40.655 7.3995 39.6005C6.34499 38.546 5.75179 37.1163 5.75 35.625V33.375H17V35.625C16.9982 37.1163 16.405 38.546 15.3505 39.6005C14.296 40.655 12.8663 41.2482 11.375 41.25ZM8 35.625C8 36.5201 8.35558 37.3785 8.98851 38.0115C9.62145 38.6444 10.4799 39 11.375 39C12.2701 39 13.1286 38.6444 13.7615 38.0115C14.3944 37.3785 14.75 36.5201 14.75 35.625H8Z" fill="#FEBE09"/>
<path d="M31.625 35.625H5.75C4.25871 35.6232 2.829 35.03 1.7745 33.9755C0.719992 32.921 0.126786 31.4913 0.125 30V21C0.12488 20.7445 0.211773 20.4965 0.371375 20.2969L4.72963 14.8508L7.39475 5.3929C7.62335 4.08969 8.30501 2.90913 9.31939 2.05963C10.3338 1.21013 11.6156 0.746302 12.9387 0.750022H39.0714C40.3917 0.746396 41.6709 1.20939 42.683 2.05727C43.6952 2.90514 44.3752 4.08336 44.603 5.3839L47.2704 14.8508L51.6286 20.2969C51.7882 20.4965 51.8751 20.7445 51.875 21V25.5C51.875 25.7984 51.7565 26.0845 51.5455 26.2955C51.3345 26.5065 51.0484 26.625 50.75 26.625C50.4516 26.625 50.1655 26.5065 49.9545 26.2955C49.7435 26.0845 49.625 25.7984 49.625 25.5V21.3949L45.3714 16.0781C45.2778 15.96 45.2083 15.8247 45.1666 15.6799L42.4216 5.9374C42.4104 5.89781 42.4014 5.85762 42.3946 5.81702C42.266 5.02908 41.8608 4.31274 41.2518 3.7965C40.6428 3.28025 39.8698 2.99788 39.0714 3.00002H12.9387C12.1377 2.99874 11.3623 3.28243 10.7512 3.80037C10.1401 4.3183 9.73316 5.03672 9.60312 5.82715C9.59627 5.86772 9.58726 5.90791 9.57612 5.94752L6.83338 15.6799C6.79172 15.8247 6.72217 15.96 6.62862 16.0781L2.375 21.3949V30C2.375 30.8951 2.73058 31.7536 3.36351 32.3865C3.99645 33.0194 4.85489 33.375 5.75 33.375H31.625C31.9234 33.375 32.2095 33.4935 32.4205 33.7045C32.6315 33.9155 32.75 34.2017 32.75 34.5C32.75 34.7984 32.6315 35.0845 32.4205 35.2955C32.2095 35.5065 31.9234 35.625 31.625 35.625Z" fill="#FEBE09"/>
<path d="M31.625 31.125H20.375C20.0766 31.125 19.7905 31.0065 19.5795 30.7955C19.3685 30.5845 19.25 30.2984 19.25 30V25.5C19.25 25.2016 19.3685 24.9155 19.5795 24.7045C19.7905 24.4935 20.0766 24.375 20.375 24.375H31.625C31.9234 24.375 32.2095 24.4935 32.4205 24.7045C32.6315 24.9155 32.75 25.2016 32.75 25.5V30C32.75 30.2984 32.6315 30.5845 32.4205 30.7955C32.2095 31.0065 31.9234 31.125 31.625 31.125ZM21.5 28.875H30.5V26.625H21.5V28.875ZM10.25 32.25C9.35999 32.25 8.48996 31.9861 7.74994 31.4916C7.00992 30.9971 6.43314 30.2943 6.09254 29.4721C5.75195 28.6498 5.66283 27.745 5.83647 26.8721C6.0101 25.9992 6.43869 25.1974 7.06802 24.568C7.69736 23.9387 8.49918 23.5101 9.3721 23.3365C10.245 23.1628 11.1498 23.2519 11.9721 23.5925C12.7943 23.9331 13.4971 24.5099 13.9916 25.2499C14.4861 25.99 14.75 26.86 14.75 27.75C14.75 28.9435 14.2759 30.0881 13.432 30.932C12.5881 31.7759 11.4435 32.25 10.25 32.25ZM10.25 25.5C9.80499 25.5 9.36998 25.632 8.99997 25.8792C8.62996 26.1264 8.34157 26.4778 8.17127 26.889C8.00098 27.3001 7.95642 27.7525 8.04324 28.189C8.13005 28.6254 8.34434 29.0263 8.65901 29.341C8.97368 29.6557 9.37459 29.87 9.81105 29.9568C10.2475 30.0436 10.6999 29.999 11.111 29.8287C11.5222 29.6584 11.8736 29.37 12.1208 29C12.368 28.63 12.5 28.195 12.5 27.75C12.5 27.1533 12.2629 26.581 11.841 26.159C11.419 25.7371 10.8467 25.5 10.25 25.5ZM38.375 28.875C38.0766 28.875 37.7905 28.7565 37.5795 28.5455C37.3685 28.3345 37.25 28.0484 37.25 27.75C37.2502 26.8814 37.5019 26.0314 37.9745 25.3026C38.4472 24.5738 39.1207 23.9974 39.9137 23.643C40.7067 23.2885 41.5854 23.1712 42.4436 23.305C43.3019 23.4389 44.103 23.8183 44.7504 24.3975C44.8653 24.4946 44.9596 24.6138 45.0276 24.748C45.0956 24.8822 45.136 25.0287 45.1465 25.1788C45.1569 25.3289 45.1371 25.4796 45.0882 25.6219C45.0394 25.7642 44.9625 25.8953 44.8621 26.0074C44.7617 26.1195 44.6398 26.2102 44.5037 26.2744C44.3676 26.3385 44.22 26.3747 44.0696 26.3808C43.9193 26.3869 43.7693 26.3627 43.6284 26.3098C43.4876 26.2569 43.3588 26.1762 43.2496 26.0726C42.9259 25.7832 42.5252 25.5936 42.0961 25.5268C41.667 25.46 41.2277 25.5188 40.8312 25.6962C40.4348 25.8735 40.0981 26.1618 39.8619 26.5262C39.6257 26.8907 39.5 27.3157 39.5 27.75C39.5 28.0484 39.3815 28.3345 39.1705 28.5455C38.9595 28.7565 38.6734 28.875 38.375 28.875ZM5.75 14.25H46.25V16.5H5.75V14.25Z" fill="#FEBE09"/>
<path d="M50.7491 16.5H46.2491C45.9508 16.5 45.6646 16.3815 45.4537 16.1705C45.2427 15.9595 45.1241 15.6734 45.1241 15.375C45.1241 15.0766 45.2427 14.7905 45.4537 14.5795C45.6646 14.3685 45.9508 14.25 46.2491 14.25H49.1876L48.813 13.125H46.2491C45.9508 13.125 45.6646 13.0065 45.4537 12.7955C45.2427 12.5845 45.1241 12.2984 45.1241 12C45.1241 11.7016 45.2427 11.4155 45.4537 11.2045C45.6646 10.9935 45.9508 10.875 46.2491 10.875H49.6241C49.8602 10.8752 50.0901 10.9496 50.2815 11.0877C50.4729 11.2258 50.6161 11.4206 50.6906 11.6445L51.8156 15.0195C51.8719 15.1885 51.8873 15.3685 51.8604 15.5446C51.8336 15.7208 51.7652 15.888 51.6611 16.0326C51.557 16.1771 51.42 16.2949 51.2614 16.3762C51.1029 16.4574 50.9273 16.4999 50.7491 16.5ZM5.74915 16.5H1.24915C1.07098 16.4999 0.895399 16.4574 0.73685 16.3762C0.5783 16.2949 0.441319 16.1771 0.337182 16.0326C0.233046 15.888 0.164732 15.7208 0.137865 15.5446C0.110998 15.3685 0.126346 15.1885 0.182646 15.0195L1.30765 11.6445C1.38223 11.4206 1.52535 11.2258 1.71675 11.0877C1.90814 10.9496 2.13813 10.8752 2.37415 10.875H5.74915C6.04751 10.875 6.33366 10.9935 6.54464 11.2045C6.75562 11.4155 6.87415 11.7016 6.87415 12C6.87415 12.2984 6.75562 12.5845 6.54464 12.7955C6.33366 13.0065 6.04751 13.125 5.74915 13.125H3.18527L2.81065 14.25H5.74915C6.04751 14.25 6.33366 14.3685 6.54464 14.5795C6.75562 14.7905 6.87415 15.0766 6.87415 15.375C6.87415 15.6734 6.75562 15.9595 6.54464 16.1705C6.33366 16.3815 6.04751 16.5 5.74915 16.5Z" fill="#FEBE09"/>
<path d="M40.625 50.25C40.4025 50.25 40.1851 50.1839 40.0001 50.0603C39.8151 49.9367 39.671 49.761 39.5859 49.5555C39.5007 49.35 39.4785 49.1238 39.5218 48.9056C39.5652 48.6874 39.6723 48.487 39.8296 48.3296L53.3296 34.8296C53.5418 34.6247 53.826 34.5113 54.121 34.5139C54.4159 34.5164 54.6981 34.6347 54.9067 34.8433C55.1153 35.0519 55.2336 35.3341 55.2361 35.629C55.2387 35.924 55.1253 36.2082 54.9204 36.4204L41.4204 49.9204C41.2094 50.1314 40.9233 50.2499 40.625 50.25ZM42.875 41.25C42.2075 41.25 41.555 41.0521 41 40.6812C40.4449 40.3104 40.0124 39.7833 39.7569 39.1666C39.5015 38.5499 39.4346 37.8713 39.5649 37.2166C39.6951 36.5619 40.0165 35.9605 40.4885 35.4885C40.9605 35.0165 41.5619 34.6951 42.2166 34.5649C42.8713 34.4346 43.5499 34.5015 44.1666 34.7569C44.7833 35.0124 45.3104 35.4449 45.6812 36C46.0521 36.555 46.25 37.2075 46.25 37.875C46.25 38.7701 45.8944 39.6285 45.2615 40.2615C44.6285 40.8944 43.7701 41.25 42.875 41.25ZM42.875 36.75C42.6525 36.75 42.435 36.816 42.25 36.9396C42.065 37.0632 41.9208 37.2389 41.8356 37.4445C41.7505 37.6501 41.7282 37.8763 41.7716 38.0945C41.815 38.3127 41.9222 38.5132 42.0795 38.6705C42.2368 38.8278 42.4373 38.935 42.6555 38.9784C42.8738 39.0218 43.1 38.9995 43.3055 38.9144C43.5111 38.8292 43.6868 38.685 43.8104 38.5C43.934 38.315 44 38.0975 44 37.875C44 37.5766 43.8815 37.2905 43.6705 37.0795C43.4595 36.8685 43.1734 36.75 42.875 36.75ZM51.875 50.25C51.2075 50.25 50.555 50.0521 50 49.6812C49.4449 49.3104 49.0124 48.7833 48.7569 48.1666C48.5015 47.5499 48.4346 46.8713 48.5649 46.2166C48.6951 45.5619 49.0165 44.9605 49.4885 44.4885C49.9605 44.0165 50.5619 43.6951 51.2166 43.5649C51.8713 43.4346 52.5499 43.5015 53.1666 43.7569C53.7833 44.0124 54.3104 44.4449 54.6812 45C55.0521 45.555 55.25 46.2075 55.25 46.875C55.25 47.7701 54.8944 48.6285 54.2615 49.2615C53.6285 49.8944 52.7701 50.25 51.875 50.25ZM51.875 45.75C51.6525 45.75 51.435 45.816 51.25 45.9396C51.065 46.0632 50.9208 46.2389 50.8356 46.4445C50.7505 46.6501 50.7282 46.8763 50.7716 47.0945C50.815 47.3127 50.9222 47.5132 51.0795 47.6705C51.2368 47.8278 51.4373 47.935 51.6555 47.9784C51.8738 48.0218 52.1 47.9995 52.3055 47.9144C52.5111 47.8292 52.6868 47.685 52.8104 47.5C52.934 47.315 53 47.0975 53 46.875C53 46.5766 52.8815 46.2905 52.6705 46.0795C52.4595 45.8685 52.1734 45.75 51.875 45.75Z" fill="#FEBE09"/>
<path d="M47.375 57.0001C44.4825 57.0001 41.6549 56.1424 39.2498 54.5353C36.8447 52.9283 34.9702 50.6442 33.8633 47.9718C32.7563 45.2995 32.4667 42.3589 33.031 39.5219C33.5953 36.6849 34.9882 34.079 37.0336 32.0337C39.0789 29.9883 41.6848 28.5954 44.5218 28.0311C47.3588 27.4668 50.2994 27.7564 52.9718 28.8634C55.6441 29.9703 57.9282 31.8448 59.5352 34.2499C61.1423 36.6549 62 39.4825 62 42.3751C61.9955 46.2525 60.4533 49.9698 57.7115 52.7116C54.9698 55.4534 51.2524 56.9956 47.375 57.0001ZM47.375 30.0001C44.9275 30.0001 42.5349 30.7259 40.4998 32.0857C38.4648 33.4454 36.8786 35.3781 35.942 37.6394C35.0054 39.9006 34.7603 42.3888 35.2378 44.7893C35.7153 47.1898 36.8939 49.3949 38.6246 51.1255C40.3552 52.8562 42.5603 54.0348 44.9608 54.5123C47.3613 54.9898 49.8495 54.7447 52.1107 53.8081C54.372 52.8715 56.3047 51.2853 57.6644 49.2503C59.0242 47.2152 59.75 44.8226 59.75 42.3751C59.7461 39.0942 58.4411 35.9488 56.1212 33.6289C53.8013 31.309 50.6559 30.004 47.375 30.0001ZM33.875 12.0001C33.6525 12 33.4351 11.934 33.2501 11.8104C33.0652 11.6868 32.921 11.5111 32.8359 11.3056C32.7507 11.1 32.7285 10.8739 32.7719 10.6557C32.8152 10.4375 32.9223 10.237 33.0796 10.0797L37.5796 5.57972C37.7918 5.37479 38.076 5.2614 38.371 5.26396C38.6659 5.26652 38.9481 5.38484 39.1567 5.59342C39.3653 5.80201 39.4836 6.08417 39.4861 6.37914C39.4887 6.67411 39.3753 6.95829 39.1704 7.17047L34.6704 11.6705C34.4595 11.8815 34.1734 12 33.875 12.0001ZM38.375 13.1251C38.1525 13.125 37.9351 13.059 37.7501 12.9354C37.5652 12.8118 37.421 12.6361 37.3359 12.4306C37.2507 12.225 37.2285 11.9989 37.2719 11.7807C37.3152 11.5625 37.4223 11.362 37.5796 11.2047L39.8296 8.95472C40.0418 8.74979 40.326 8.6364 40.621 8.63896C40.9159 8.64152 41.1981 8.75984 41.4067 8.96842C41.6153 9.17701 41.7336 9.45917 41.7361 9.75414C41.7387 10.0491 41.6253 10.3333 41.4204 10.5455L39.1704 12.7955C38.9595 13.0065 38.6734 13.125 38.375 13.1251Z" fill="#FEBE09"/>
</svg>
