<svg width="72" height="72" viewBox="0 0 72 72" fill="none" xmlns="http://www.w3.org/2000/svg">
<g clip-path="url(#clip0_7270_752)">
<path d="M54.0436 18.5273H43.6711M58.9655 18.5273H68.1047C69.6727 18.5273 70.9453 19.8 70.9453 21.368V50.632C70.9453 52.2 69.6727 53.4727 68.1047 53.4727H43.6711M1.05469 11.7422V5.31562C1.05469 2.96297 2.96297 1.05469 5.31562 1.05469H39.4087C41.7628 1.05469 43.6711 2.96297 43.6711 5.31562V57.4594M43.6711 62.3813V66.6844C43.6711 69.037 41.7628 70.9453 39.4087 70.9453H5.31562C2.96297 70.9453 1.05469 69.037 1.05469 66.6844V16.6641M19.1374 33.4471H25.5881M14.2993 33.4471H12.6866M30.4263 33.4471H32.039" stroke="#FEBE09" stroke-width="2" stroke-miterlimit="10" stroke-linecap="round" stroke-linejoin="round"/>
<path d="M10.2661 28.6091L11.5643 20.8195C11.6522 20.2923 11.9242 19.8133 12.332 19.4679C12.7398 19.1224 13.257 18.9328 13.7914 18.9328H30.9314C31.4658 18.9328 31.983 19.1224 32.3908 19.4679C32.7986 19.8133 33.0706 20.2923 33.1584 20.8195L34.4567 28.6091M6.23438 38.2854H38.4884M20.2306 5.31641H24.4923M24.4923 66.6838H20.2306M70.944 41.8243H43.6696M43.6696 46.37H70.944M36.8757 38.2854H7.84706V30.2219C7.84706 29.3312 8.56903 28.6093 9.45975 28.6093H35.263C36.1537 28.6093 36.8757 29.3312 36.8757 30.2219V38.2854ZM14.298 43.1234H11.0726C10.1819 43.1234 9.45989 42.4015 9.45989 41.5108V38.2854H15.9106V41.5108C15.9106 42.4015 15.1885 43.1234 14.298 43.1234ZM30.425 43.1234H33.6503C34.5411 43.1234 35.263 42.4015 35.263 41.5108V38.2854H28.8123V41.5108C28.8123 42.4015 29.5343 43.1234 30.425 43.1234ZM29.7483 55.266H14.9746C14.6733 55.266 14.3842 55.1463 14.1711 54.9331C13.958 54.72 13.8383 54.431 13.8383 54.1296V52.1409C13.8383 51.8395 13.958 51.5504 14.1711 51.3373C14.3842 51.1242 14.6733 51.0045 14.9746 51.0045H29.7483C30.0497 51.0045 30.3387 51.1242 30.5518 51.3373C30.7649 51.5504 30.8847 51.8395 30.8847 52.1409V54.1296C30.8847 54.431 30.7649 54.72 30.5518 54.9331C30.3387 55.1463 30.0497 55.266 29.7483 55.266ZM65.2619 28.7554H56.1705C55.8691 28.7554 55.58 28.6356 55.3669 28.4225C55.1538 28.2094 55.0341 27.9204 55.0341 27.619V24.2097C55.0341 23.9083 55.1538 23.6192 55.3669 23.4061C55.58 23.193 55.8691 23.0733 56.1705 23.0733H65.2619C65.5632 23.0733 65.8523 23.193 66.0654 23.4061C66.2785 23.6192 66.3983 23.9083 66.3983 24.2097V27.6188C66.3983 27.7681 66.3689 27.9159 66.3118 28.0537C66.2547 28.1916 66.171 28.3169 66.0655 28.4225C65.9599 28.528 65.8347 28.6117 65.6968 28.6688C65.5589 28.726 65.4111 28.7554 65.2619 28.7554Z" stroke="#FEBE09" stroke-width="2" stroke-miterlimit="10" stroke-linecap="round" stroke-linejoin="round"/>
</g>
<defs>
<clipPath id="clip0_7270_752">
<rect width="72" height="72" fill="white"/>
</clipPath>
</defs>
</svg>
