<svg width="67" height="66" viewBox="0 0 67 66"  xmlns="http://www.w3.org/2000/svg">
<path fill-rule="evenodd" clip-rule="evenodd" d="M61.5651 21.3338C66.4379 16.461 66.4515 8.5571 61.5651 3.67069C56.6855 -1.20892 48.7816 -1.20892 43.902 3.67069C39.0291 8.55034 39.0291 16.4542 43.902 21.3338C48.7816 26.2066 56.6855 26.2066 61.5651 21.3338ZM46.7563 6.52507C50.0524 3.22897 55.4146 3.22897 58.7107 6.52507C62.0068 9.82121 62.0068 15.1833 58.7107 18.4795C55.4146 21.7756 50.0524 21.7756 46.7563 18.4795C43.4602 15.1833 43.4602 9.82121 46.7563 6.52507ZM57.3854 31.6842H60.8787C61.5854 31.6842 62.1699 32.2687 62.1699 32.9755V35.8163C62.1699 36.5299 61.5854 37.1143 60.8787 37.1143H55.3058C56.2505 38.0114 59.3767 41.3211 59.3767 45.4803V54.5395C59.3767 55.6542 58.466 56.558 57.3583 56.558H9.22821C8.10675 56.558 7.20978 55.6542 7.20978 54.5395V45.4803C7.20978 41.3211 10.3359 38.0114 11.2738 37.1143H5.70778C5.00104 37.1143 4.4165 36.5299 4.4165 35.8163V32.9755C4.4165 32.2687 5.00104 31.6842 5.70778 31.6842H9.19419C10.3495 31.6842 11.3757 32.1532 12.1098 32.8939L12.1641 32.9483C12.6195 30.9299 13.3737 28.4357 14.6379 26.2473C15.9156 24.025 18.1854 22.5774 20.7408 22.2716C28.0262 21.4221 35.3116 21.3065 42.6106 21.9454C42.7127 22.0677 42.8282 22.1833 42.9436 22.2988C45.3835 24.7318 48.5709 26.1522 51.9961 26.3289C53.2331 28.4968 53.9738 30.957 54.4224 32.9551C54.4292 32.9347 54.4495 32.9143 54.4699 32.8939C55.2107 32.1532 56.2369 31.6842 57.3854 31.6842ZM21.0942 25.2755C19.4767 25.4658 18.0428 26.3968 17.2544 27.7629C15.2155 31.2765 14.6719 35.9182 14.5767 36.89H51.9961C51.901 35.9046 51.3573 31.2697 49.3321 27.7697C48.5369 26.3968 47.0961 25.4658 45.4922 25.2755C41.4417 24.7998 37.3369 24.5619 33.2864 24.5619C29.2427 24.5619 25.1379 24.7998 21.0942 25.2755ZM20.1881 46.9541L20.1898 46.9541C20.3313 46.9546 20.4651 46.9551 20.5913 46.9551C21.3592 46.9551 21.835 46.0173 21.468 45.2561C20.8767 44.0396 19.7214 42.4968 17.5194 41.7901C17.2734 41.7115 17.0378 41.6352 16.812 41.5621C14.0503 40.6684 12.7613 40.2512 11.9194 41.8784C11.5728 42.5716 11.4369 43.3736 11.4369 44.1755C11.4369 45.8133 12.565 47.159 14.0059 47.2269C14.4 47.2474 14.8486 47.2337 15.3515 47.1794C17.4179 46.9437 19.0492 46.9498 20.1881 46.9541ZM31.8864 42.6735H25.7224C25.1379 42.6735 24.669 43.1493 24.669 43.7269C24.669 44.658 25.0428 45.5007 25.6544 46.1124C26.266 46.724 27.1019 47.0978 28.033 47.0978H31.8864C32.4709 47.0978 32.9398 46.6221 32.9398 46.0444V43.7269C32.9398 43.1493 32.4709 42.6735 31.8864 42.6735ZM40.4155 53.1124C40.7757 52.7522 41.0408 52.2901 41.1564 51.7803C41.2311 51.4542 40.9933 51.1415 40.6602 51.1415H25.9194C25.5864 51.1415 25.3418 51.4473 25.4233 51.7803C25.7088 53.0104 26.8165 53.9279 28.135 53.9279H38.4447C39.2126 53.9279 39.9126 53.6221 40.4155 53.1124ZM39.8515 47.0978C40.7825 47.0978 41.6252 46.724 42.2301 46.1124C42.8418 45.5007 43.2156 44.658 43.2156 43.7269C43.2156 43.1493 42.7466 42.6735 42.1622 42.6735H35.998C35.4137 42.6735 34.9447 43.1493 34.9447 43.7269V46.0444C34.9447 46.6221 35.4137 47.0978 35.998 47.0978H39.8515ZM56.4476 44.1755C56.4476 43.3736 56.3117 42.5716 55.9651 41.8784C55.1232 40.2512 53.8342 40.6684 51.0725 41.5622C50.8467 41.6352 50.6111 41.7115 50.3651 41.7901C48.1699 42.4968 47.0078 44.0396 46.4165 45.2561C46.0495 46.0173 46.5252 46.9551 47.3001 46.9551C47.4258 46.9551 47.5595 46.9546 47.7009 46.9541H47.701C48.8362 46.9498 50.4724 46.9437 52.533 47.1794C53.0359 47.2337 53.4844 47.2474 53.8787 47.2269C55.3194 47.159 56.4476 45.8133 56.4476 44.1755ZM56.6901 64.2936H61.4688C61.8445 64.2936 62.1484 64.5975 62.1484 64.9732C62.1484 65.3488 61.8445 65.6528 61.4688 65.6528H4.62834C4.2527 65.6528 3.94873 65.3488 3.94873 64.9732C3.94873 64.5975 4.2527 64.2936 4.62834 64.2936H9.88422C9.54209 63.9325 9.32987 63.4467 9.32987 62.9056V57.9172H19.3882V62.9056C19.3882 63.4467 19.1745 63.9325 18.8315 64.2936H47.7454C47.4032 63.9325 47.191 63.4467 47.191 62.9056V57.9172H57.2493V62.9056C57.2493 63.4467 57.0339 63.9325 56.6901 64.2936ZM0.692795 64.2937H1.78986C2.16551 64.2937 2.46948 64.5977 2.46948 64.9733C2.46948 65.349 2.16551 65.6529 1.78986 65.6529H0.692795C0.317151 65.6529 0.0131836 65.349 0.0131836 64.9733C0.0131836 64.5977 0.317151 64.2937 0.692795 64.2937ZM65.8904 64.2937H64.1376C63.762 64.2937 63.458 64.5977 63.458 64.9733C63.458 65.349 63.762 65.6529 64.1376 65.6529H65.8904C66.2661 65.6529 66.57 65.349 66.57 64.9733C66.57 64.5977 66.2661 64.2937 65.8904 64.2937ZM51.2987 14.6161C51.2987 15.4079 51.9424 16.0517 52.7342 16.0517C53.526 16.0517 54.1704 15.4079 54.1704 14.6161C54.1704 13.8244 53.526 13.1806 52.7342 13.1806C51.1931 13.1806 49.9395 11.9269 49.9395 10.3852C49.9395 9.07974 50.8427 7.9893 52.0546 7.68368V6.93401C52.0546 6.55836 52.3586 6.25439 52.7342 6.25439C53.1099 6.25439 53.4138 6.55836 53.4138 6.93401V7.68359C54.6262 7.98918 55.5297 9.07965 55.5297 10.3852C55.5297 10.7608 55.2257 11.0648 54.85 11.0648C54.4744 11.0648 54.1704 10.7608 54.1704 10.3852C54.1704 9.59338 53.526 8.94961 52.7342 8.94961C51.9424 8.94961 51.2987 9.59338 51.2987 10.3852C51.2987 11.1769 51.9424 11.8214 52.7342 11.8214C54.276 11.8214 55.5297 13.0751 55.5297 14.6161C55.5297 15.9216 54.6262 17.0121 53.4138 17.3177V18.0673C53.4138 18.4429 53.1099 18.7469 52.7342 18.7469C52.3586 18.7469 52.0546 18.4429 52.0546 18.0673V17.3176C50.8427 17.012 49.9395 15.9216 49.9395 14.6161C49.9395 14.2405 50.2434 13.9365 50.6191 13.9365C50.9947 13.9365 51.2987 14.2405 51.2987 14.6161Z" />
</svg>
