<svg width="72" height="72" viewBox="0 0 72 72" fill="none" xmlns="http://www.w3.org/2000/svg">
<path d="M39.375 14.625V7.875C39.375 7.57663 39.2565 7.29048 39.0455 7.07951C38.8345 6.86853 38.5484 6.75 38.25 6.75H13.5C13.2016 6.75 12.9155 6.86853 12.7045 7.07951C12.4935 7.29048 12.375 7.57663 12.375 7.875V14.625C12.375 14.9234 12.4935 15.2095 12.7045 15.4205C12.9155 15.6315 13.2016 15.75 13.5 15.75H38.25C38.5484 15.75 38.8345 15.6315 39.0455 15.4205C39.2565 15.2095 39.375 14.9234 39.375 14.625ZM37.125 13.5H14.625V9H37.125V13.5ZM7.875 20.25V33.75C7.875 34.0484 7.99353 34.3345 8.20451 34.5455C8.41548 34.7565 8.70163 34.875 9 34.875H22.5C22.7984 34.875 23.0845 34.7565 23.2955 34.5455C23.5065 34.3345 23.625 34.0484 23.625 33.75V27.2723L21.375 29.5223V32.625H10.125V21.375H19.9777L22.2277 19.125H9C8.70163 19.125 8.41548 19.2435 8.20451 19.4545C7.99353 19.6655 7.875 19.9516 7.875 20.25Z" fill="#FEBE09"/>
<path d="M25.0796 19.4546L16.875 27.6592L14.2954 25.0796L12.7046 26.6703L16.0796 30.0453C16.2906 30.2562 16.5767 30.3747 16.875 30.3747C17.1733 30.3747 17.4594 30.2562 17.6704 30.0453L26.6704 21.0453L25.0796 19.4546ZM7.875 52.875C7.875 53.1733 7.99353 53.4595 8.20451 53.6705C8.41548 53.8814 8.70163 54 9 54H22.5C22.7984 54 23.0845 53.8814 23.2955 53.6705C23.5065 53.4595 23.625 53.1733 23.625 52.875V46.3972L21.375 48.6472V51.75H10.125V40.5H19.9777L22.2277 38.25H9C8.70163 38.25 8.41548 38.3685 8.20451 38.5795C7.99353 38.7904 7.875 39.0766 7.875 39.375V52.875Z" fill="#FEBE09"/>
<path d="M14.2939 44.2046L12.7031 45.7954L16.0781 49.1704C16.2891 49.3813 16.5752 49.4998 16.8735 49.4998C17.1718 49.4998 17.4579 49.3813 17.6689 49.1704L26.6689 40.1704L25.0781 38.5796L16.8735 46.7842L14.2939 44.2046ZM29.2485 27H43.8735V29.25H29.2485V27ZM29.2485 21.375H43.8735V23.625H29.2485V21.375ZM29.2485 40.5H35.9985V42.75H29.2485V40.5ZM29.2485 46.125H35.9985V48.375H29.2485V46.125Z" fill="#FEBE09"/>
<path d="M4.5 67.5V4.5H47.25V28.5255C48.009 28.26 48.759 27.9701 49.5 27.6559V3.375C49.5 3.07663 49.3815 2.79048 49.1705 2.5795C48.9595 2.36853 48.6734 2.25 48.375 2.25H3.375C3.07663 2.25 2.79048 2.36853 2.5795 2.5795C2.36853 2.79048 2.25 3.07663 2.25 3.375V68.625C2.25 68.9234 2.36853 69.2095 2.5795 69.4205C2.79048 69.6315 3.07663 69.75 3.375 69.75H48.375C48.4935 69.7454 48.6105 69.7218 48.7215 69.6803C47.6597 69.0238 46.644 68.2953 45.6817 67.5H4.5Z" fill="#FEBE09"/>
<path d="M68.7476 32.6316C63.7726 32.0923 58.9464 30.6073 54.5288 28.2565C54.366 28.1698 54.1844 28.1245 54 28.1245C53.8156 28.1245 53.634 28.1698 53.4712 28.2565C49.0536 30.6073 44.2274 32.0923 39.2524 32.6316C38.9769 32.6618 38.7223 32.7927 38.5373 32.999C38.3523 33.2054 38.25 33.4728 38.25 33.7499V47.0755C38.281 51.9337 39.7531 56.6734 42.4798 60.6944C45.2064 64.7154 49.065 67.8368 53.5669 69.6633C53.7041 69.7205 53.8513 69.75 54 69.75C54.1487 69.75 54.2959 69.7205 54.4331 69.6633C58.935 67.8368 62.7936 64.7154 65.5202 60.6944C68.2469 56.6734 69.719 51.9337 69.75 47.0755V33.7499C69.75 33.4728 69.6477 33.2054 69.4627 32.999C69.2777 32.7927 69.0231 32.6618 68.7476 32.6316ZM67.5 47.0755C67.4699 51.4092 66.1769 55.6401 63.7791 59.2501C61.3813 62.8602 57.9829 65.6927 54 67.4009C50.0171 65.6927 46.6187 62.8602 44.2209 59.2501C41.8231 55.6401 40.5301 51.4092 40.5 47.0755V34.7455C45.2087 34.1201 49.775 32.6909 54 30.52C58.2249 32.691 62.7913 34.1203 67.5 34.7455V47.0755Z" fill="#FEBE09"/>
<path d="M44.6704 46.4546L43.0796 48.0453L49.8296 54.7953C50.0406 55.0062 50.3267 55.1247 50.625 55.1247C50.9233 55.1247 51.2094 55.0062 51.4204 54.7953L64.9204 41.2953L63.3296 39.7046L50.625 52.4092L44.6704 46.4546ZM28.125 61.875H36V64.125H28.125V61.875ZM18 57.375H36V59.625H18V57.375Z" fill="#FEBE09"/>
</svg>
