<svg width="72" height="72" viewBox="0 0 72 72" fill="none" xmlns="http://www.w3.org/2000/svg">
<path d="M5.31115 64.9179H7.67181V67.2644C7.66257 67.881 7.77675 68.4932 8.00763 69.065C8.23851 69.6369 8.58143 70.1567 9.0162 70.5941C9.45688 71.0418 9.98266 71.3968 10.5626 71.6382C11.1426 71.8796 11.7649 72.0026 12.3931 71.9998H51.3439C52.5961 71.9998 53.797 71.5024 54.6824 70.617C55.5678 69.7316 56.0653 68.5307 56.0653 67.2785V53.1146C56.0653 52.8016 55.9409 52.5013 55.7195 52.28C55.4982 52.0586 55.198 51.9343 54.8849 51.9343C54.5719 51.9343 54.2717 52.0586 54.0503 52.28C53.8289 52.5013 53.7046 52.8016 53.7046 53.1146V67.2785C53.7046 67.9046 53.4559 68.5051 53.0132 68.9478C52.5705 69.3905 51.97 69.6392 51.3439 69.6392H12.3931C12.0772 69.6407 11.7642 69.5788 11.4727 69.4572C11.1811 69.3355 10.9169 69.1566 10.6958 68.931C10.4803 68.714 10.3105 68.4559 10.1966 68.172C10.0826 67.8882 10.0268 67.5843 10.0325 67.2785V64.9179H44.262C45.5141 64.9179 46.715 64.4205 47.6004 63.535C48.4859 62.6496 48.9833 61.4487 48.9833 60.1966V55.7821C48.9833 55.4691 48.8589 55.1689 48.6376 54.9475C48.4162 54.7262 48.116 54.6018 47.803 54.6018C47.4899 54.6018 47.1897 54.7262 46.9683 54.9475C46.747 55.1689 46.6226 55.4691 46.6226 55.7821V60.1966C46.6226 60.8227 46.3739 61.4231 45.9312 61.8658C45.4885 62.3085 44.8881 62.5572 44.262 62.5572H5.31115C4.68507 62.5572 4.08463 62.3085 3.64192 61.8658C3.19921 61.4231 2.9505 60.8227 2.9505 60.1966V5.90149C2.9505 5.2754 3.19921 4.67496 3.64192 4.23225C4.08463 3.78954 4.68507 3.54083 5.31115 3.54083H44.262C44.8881 3.54083 45.4885 3.78954 45.9312 4.23225C46.3739 4.67496 46.6226 5.2754 46.6226 5.90149V15.3441C46.6226 15.6572 46.747 15.9574 46.9683 16.1787C47.1897 16.4001 47.4899 16.5244 47.803 16.5244C48.116 16.5244 48.4162 16.4001 48.6376 16.1787C48.8589 15.9574 48.9833 15.6572 48.9833 15.3441V5.90149C48.9833 4.64932 48.4859 3.44843 47.6004 2.56302C46.715 1.6776 45.5141 1.18018 44.262 1.18018H5.31115C4.05899 1.18018 2.8581 1.6776 1.97268 2.56302C1.08727 3.44843 0.589844 4.64932 0.589844 5.90149L0.589844 60.1966C0.589844 61.4487 1.08727 62.6496 1.97268 63.535C2.8581 64.4205 4.05899 64.9179 5.31115 64.9179Z" fill="#FEBE09"/>
<path d="M6.49283 35.4097H21.8371C22.1501 35.4097 22.4504 35.2854 22.6717 35.064C22.8931 34.8427 23.0174 34.5424 23.0174 34.2294C23.0174 33.9164 22.8931 33.6161 22.6717 33.3948C22.4504 33.1734 22.1501 33.0491 21.8371 33.0491H6.49283C6.17979 33.0491 5.87956 33.1734 5.65821 33.3948C5.43686 33.6161 5.3125 33.9164 5.3125 34.2294C5.3125 34.5424 5.43686 34.8427 5.65821 35.064C5.87956 35.2854 6.17979 35.4097 6.49283 35.4097ZM6.49283 41.3114H21.8371C22.1501 41.3114 22.4504 41.187 22.6717 40.9657C22.8931 40.7443 23.0174 40.4441 23.0174 40.131C23.0174 39.818 22.8931 39.5178 22.6717 39.2964C22.4504 39.0751 22.1501 38.9507 21.8371 38.9507H6.49283C6.17979 38.9507 5.87956 39.0751 5.65821 39.2964C5.43686 39.5178 5.3125 39.818 5.3125 40.131C5.3125 40.4441 5.43686 40.7443 5.65821 40.9657C5.87956 41.187 6.17979 41.3114 6.49283 41.3114ZM27.7387 35.4097H32.3184C32.6314 35.4097 32.9317 35.2854 33.153 35.064C33.3744 34.8427 33.4987 34.5424 33.4987 34.2294C33.4987 33.9164 33.3744 33.6161 33.153 33.3948C32.9317 33.1734 32.6314 33.0491 32.3184 33.0491H27.7387C27.4257 33.0491 27.1255 33.1734 26.9041 33.3948C26.6828 33.6161 26.5584 33.9164 26.5584 34.2294C26.5584 34.5424 26.6828 34.8427 26.9041 35.064C27.1255 35.2854 27.4257 35.4097 27.7387 35.4097ZM27.7387 41.3114H32.5427C32.8557 41.3114 33.1559 41.187 33.3773 40.9657C33.5986 40.7443 33.723 40.4441 33.723 40.131C33.723 39.818 33.5986 39.5178 33.3773 39.2964C33.1559 39.0751 32.8557 38.9507 32.5427 38.9507H27.7387C27.4257 38.9507 27.1255 39.0751 26.9041 39.2964C26.6828 39.5178 26.5584 39.818 26.5584 40.131C26.5584 40.4441 26.6828 40.7443 26.9041 40.9657C27.1255 41.187 27.4257 41.3114 27.7387 41.3114ZM6.49283 47.213H21.8371C22.1501 47.213 22.4504 47.0887 22.6717 46.8673C22.8931 46.6459 23.0174 46.3457 23.0174 46.0327C23.0174 45.7196 22.8931 45.4194 22.6717 45.1981C22.4504 44.9767 22.1501 44.8523 21.8371 44.8523H6.49283C6.17979 44.8523 5.87956 44.9767 5.65821 45.1981C5.43686 45.4194 5.3125 45.7196 5.3125 46.0327C5.3125 46.3457 5.43686 46.6459 5.65821 46.8673C5.87956 47.0887 6.17979 47.213 6.49283 47.213ZM35.8476 46.0327C35.8476 45.7196 35.7232 45.4194 35.5019 45.1981C35.2805 44.9767 34.9803 44.8523 34.6673 44.8523H27.7387C27.4257 44.8523 27.1255 44.9767 26.9041 45.1981C26.6828 45.4194 26.5584 45.7196 26.5584 46.0327C26.5584 46.3457 26.6828 46.6459 26.9041 46.8673C27.1255 47.0887 27.4257 47.213 27.7387 47.213H34.6673C34.9803 47.213 35.2805 47.0887 35.5019 46.8673C35.7232 46.6459 35.8476 46.3457 35.8476 46.0327ZM7.67316 56.6556H11.3711C11.8981 56.6574 12.4151 56.5115 12.8634 56.2344C13.3117 55.9574 13.6735 55.5603 13.9076 55.0882C13.9469 54.999 14.0144 54.9252 14.0997 54.878C14.185 54.8309 14.2834 54.8131 14.3798 54.8273C14.5781 54.8391 14.7457 54.9772 14.7929 55.1696L15.0018 55.8979C15.1467 56.4203 15.44 56.8896 15.8462 57.2487C16.2525 57.6078 16.7542 57.8413 17.2905 57.9209C17.8255 58.0087 18.3744 57.9393 18.8708 57.7212C19.3671 57.5031 19.7895 57.1457 20.0867 56.6922L21.4452 54.655C21.4881 54.5892 21.5468 54.5352 21.6158 54.4978C21.6848 54.4604 21.7621 54.4408 21.8406 54.4408C21.9191 54.4408 21.9964 54.4604 22.0655 54.4978C22.1345 54.5352 22.1931 54.5892 22.236 54.655L22.7271 55.3939C22.986 55.7825 23.3371 56.101 23.749 56.3211C24.1608 56.5413 24.6207 56.6562 25.0877 56.6556H28.9191C29.2321 56.6556 29.5323 56.5313 29.7537 56.3099C29.975 56.0886 30.0994 55.7883 30.0994 55.4753C30.0994 55.1623 29.975 54.862 29.7537 54.6407C29.5323 54.4193 29.2321 54.295 28.9191 54.295H25.083C25.0049 54.2951 24.9281 54.2759 24.8593 54.239C24.7905 54.2021 24.7319 54.1488 24.6888 54.0837L24.1977 53.3507C23.9393 52.9612 23.5886 52.6416 23.1767 52.4205C22.7648 52.1995 22.3046 52.0838 21.8371 52.0838C21.3696 52.0838 20.9094 52.1995 20.4975 52.4205C20.0856 52.6416 19.7348 52.9612 19.4764 53.3507L18.1191 55.3832C18.0695 55.4599 17.9988 55.5205 17.9155 55.5577C17.8321 55.595 17.7398 55.6073 17.6497 55.5932C17.5595 55.5791 17.4753 55.5392 17.4074 55.4782C17.3395 55.4173 17.2907 55.338 17.2669 55.2499L17.0591 54.5216C16.9033 53.9714 16.5847 53.4813 16.145 53.1156C15.7054 52.7499 15.1654 52.5259 14.5961 52.4729C14.0267 52.4199 13.4547 52.5404 12.9551 52.8186C12.4556 53.0969 12.0519 53.5198 11.7972 54.0318C11.758 54.1112 11.6973 54.178 11.622 54.2245C11.5466 54.2711 11.4597 54.2955 11.3711 54.295H7.67316C7.36011 54.295 7.05989 54.4193 6.83854 54.6407C6.61718 54.862 6.49283 55.1623 6.49283 55.4753C6.49283 55.7883 6.61718 56.0886 6.83854 56.3099C7.05989 56.5313 7.36011 56.6556 7.67316 56.6556Z" fill="#FEBE09"/>
<path d="M24.4391 9.55023C24.2762 9.38937 24.0558 9.29909 23.8261 9.29909C23.5964 9.29909 23.376 9.38937 23.213 9.55023L7.56087 25.0957C7.46984 25.1731 7.39591 25.2684 7.34372 25.3755C7.29153 25.4827 7.26219 25.5994 7.25757 25.7183C7.25294 25.8373 7.27312 25.9559 7.31684 26.0667C7.36056 26.1775 7.42687 26.2782 7.51161 26.3623C7.59635 26.4465 7.6977 26.5124 7.80929 26.5558C7.92087 26.5992 8.04029 26.6192 8.16005 26.6146C8.2798 26.61 8.39731 26.5809 8.50519 26.5291C8.61308 26.4772 8.709 26.4038 8.78696 26.3134L24.4391 10.768C24.6011 10.6061 24.692 10.3873 24.692 10.1591C24.692 9.93093 24.6011 9.71204 24.4391 9.55023ZM14.6957 12.3182C14.6957 11.4641 14.4407 10.6293 13.9629 9.91913C13.4852 9.20901 12.8061 8.65554 12.0117 8.3287C11.2172 8.00187 10.343 7.91636 9.49961 8.08297C8.65621 8.24959 7.88151 8.66086 7.27345 9.26477C6.6654 9.86868 6.25131 10.6381 6.08354 11.4757C5.91578 12.3134 6.00188 13.1816 6.33096 13.9707C6.66004 14.7597 7.21731 15.4341 7.93231 15.9086C8.6473 16.3831 9.48791 16.6364 10.3478 16.6364C11.5009 16.6364 12.6068 16.1814 13.4222 15.3716C14.2376 14.5618 14.6957 13.4634 14.6957 12.3182ZM7.73913 12.3182C7.73913 11.8057 7.89213 11.3048 8.17878 10.8788C8.46542 10.4527 8.87285 10.1206 9.34952 9.9245C9.8262 9.7284 10.3507 9.67709 10.8568 9.77706C11.3628 9.87703 11.8276 10.1238 12.1925 10.4861C12.5573 10.8485 12.8057 11.3101 12.9064 11.8127C13.0071 12.3153 12.9554 12.8363 12.7579 13.3097C12.5605 13.7831 12.2261 14.1878 11.7971 14.4724C11.3681 14.7571 10.8638 14.9091 10.3478 14.9091C9.65596 14.9091 8.99243 14.6361 8.5032 14.1502C8.01398 13.6643 7.73913 13.0053 7.73913 12.3182ZM21.6522 18.3636C20.7923 18.3636 19.9516 18.6169 19.2367 19.0914C18.5217 19.5659 17.9644 20.2403 17.6353 21.0293C17.3062 21.8184 17.2201 22.6866 17.3879 23.5243C17.5557 24.3619 17.9697 25.1313 18.5778 25.7352C19.1859 26.3391 19.9606 26.7504 20.804 26.917C21.6474 27.0836 22.5216 26.9981 23.316 26.6713C24.1105 26.3445 24.7895 25.791 25.2673 25.0809C25.745 24.3707 26 23.5359 26 22.6818C26 22.1147 25.8875 21.5532 25.669 21.0293C25.4505 20.5054 25.1303 20.0294 24.7266 19.6284C24.3228 19.2274 23.8435 18.9093 23.316 18.6923C22.7885 18.4753 22.2231 18.3636 21.6522 18.3636ZM21.6522 25.2727C21.1362 25.2727 20.6319 25.1208 20.2029 24.8361C19.7739 24.5514 19.4395 24.1467 19.2421 23.6733C19.0446 23.1999 18.9929 22.6789 19.0936 22.1764C19.1943 21.6738 19.4427 21.2121 19.8075 20.8498C20.1724 20.4874 20.6372 20.2407 21.1432 20.1407C21.6493 20.0407 22.1738 20.092 22.6505 20.2881C23.1272 20.4842 23.5346 20.8163 23.8212 21.2424C24.1079 21.6685 24.2609 22.1694 24.2609 22.6818C24.2609 23.369 23.986 24.028 23.4968 24.5139C23.0076 24.9998 22.344 25.2727 21.6522 25.2727Z" fill="#FEBE09"/>
<path d="M33.6374 56.6556H40.1693C40.6774 56.6548 41.1663 56.4612 41.5373 56.1139C44.2249 53.6352 49.7418 49.4509 56.4944 49.3128C57.0112 49.3107 57.5075 49.1103 57.8808 48.753C58.2542 48.3956 58.4762 47.9086 58.501 47.3924C58.5222 46.9581 59.0663 36.7022 62.0419 31.1252L71.2721 13.7979C71.4192 13.5215 71.4505 13.198 71.3591 12.8985C71.2677 12.599 71.0611 12.3481 70.7846 12.201C70.5082 12.0538 70.1847 12.0225 69.8852 12.1139C69.5857 12.2054 69.3348 12.412 69.1877 12.6884L60.5134 28.977L56.0353 26.5927L50.0982 23.4282L61.021 2.91532C61.104 2.77811 61.1582 2.62541 61.1803 2.46654C61.2024 2.30768 61.1918 2.14598 61.1493 1.99132C61.1068 1.83666 61.0333 1.69229 60.9331 1.56702C60.8329 1.44175 60.7083 1.3382 60.5668 1.26271C60.4253 1.18721 60.2699 1.14135 60.11 1.12792C59.9502 1.1145 59.7893 1.13378 59.6372 1.18461C59.4851 1.23543 59.3449 1.31673 59.2252 1.42354C59.1056 1.53034 59.0089 1.66041 58.9412 1.80581L47.4578 23.3539C44.4834 28.9345 36.2742 35.1005 35.926 35.3602C35.5124 35.6694 35.233 36.1253 35.1452 36.6342C35.0574 37.143 35.1679 37.6662 35.4539 38.0962C39.2321 43.9884 38.5947 51.3784 38.1427 54.295H33.6374C33.3243 54.295 33.0241 54.4193 32.8027 54.6407C32.5814 54.862 32.457 55.1623 32.457 55.4753C32.457 55.7884 32.5814 56.0886 32.8027 56.3099C33.0241 56.5313 33.3243 56.6556 33.6374 56.6556ZM37.5879 37.0622C38.9949 35.9846 45.6873 30.7156 48.9462 25.495L55.8275 29.154L59.4417 31.0815C56.9217 36.6975 56.2761 45.1947 56.1663 46.9652C51.3429 47.2816 46.7219 49.0225 42.8888 51.9674L46.7059 44.7237C47.8292 45.0034 49.0159 44.8636 50.0434 44.3305C51.0708 43.7974 51.8685 42.9078 52.2866 41.8284C52.7048 40.749 52.7147 39.5542 52.3145 38.468C51.9143 37.3819 51.1315 36.4791 50.113 35.9291C49.0945 35.379 47.9103 35.2196 46.7826 35.4806C45.6548 35.7416 44.6611 36.4052 43.9879 37.3468C43.3146 38.2884 43.0081 39.4433 43.1259 40.5948C43.2436 41.7464 43.7775 42.8153 44.6274 43.6012L40.8374 50.78C41.1291 45.9871 39.9986 41.2149 37.5879 37.0622ZM46.6918 42.2143C46.1393 41.9193 45.7266 41.4168 45.5445 40.8175C45.3625 40.2182 45.4259 39.5711 45.721 39.0186C46.016 38.4661 46.5185 38.0534 47.1178 37.8713C47.7171 37.6893 48.3642 37.7527 48.9167 38.0478C49.4692 38.3431 49.8818 38.8459 50.0636 39.4454C50.2455 40.045 50.1817 40.6922 49.8863 41.2447C49.591 41.7972 49.0882 42.2098 48.4887 42.3916C47.8892 42.5735 47.2419 42.5097 46.6894 42.2143H46.6918Z" fill="#FEBE09"/>
</svg>
