<svg width="26" height="28" viewBox="0 0 26 28" fill="none" xmlns="http://www.w3.org/2000/svg">
<path d="M18.414 10.927C18.883 9.968 19.696 9.247 20.707 8.899C21.13 8.753 21.566 8.697 22 8.695V3C22 1.346 20.654 0 19 0H3C1.346 0 0 1.346 0 3V23C0 24.654 1.346 26 3 26H12.949L12.841 25.686C12.406 24.417 12.491 23.061 13.078 21.862L18.414 10.927ZM4 6H16C16.553 6 17 6.448 17 7C17 7.552 16.553 8 16 8H4C3.447 8 3 7.552 3 7C3 6.448 3.447 6 4 6ZM4 10H15C15.553 10 16 10.448 16 11C16 11.552 15.553 12 15 12H4C3.447 12 3 11.552 3 11C3 10.448 3.447 10 4 10ZM11 20H4C3.447 20 3 19.552 3 19C3 18.448 3.447 18 4 18H11C11.553 18 12 18.448 12 19C12 19.552 11.553 20 11 20ZM4 16C3.447 16 3 15.552 3 15C3 14.448 3.447 14 4 14H13C13.553 14 14 14.448 14 15C14 15.552 13.553 16 13 16H4ZM25.604 14.435L20.266 25.374C19.913 26.095 19.302 26.635 18.545 26.895L16.654 27.545C16.547 27.582 16.436 27.6 16.329 27.6C15.914 27.6 15.526 27.34 15.384 26.925L14.733 25.034C14.472 24.274 14.523 23.46 14.875 22.741L20.213 11.804C20.446 11.324 20.854 10.964 21.359 10.79C21.863 10.616 22.406 10.648 22.886 10.884L24.684 11.761C25.164 11.995 25.524 12.403 25.698 12.908C25.872 13.413 25.839 13.955 25.604 14.435Z" fill="#FEBE09"/>
</svg>
