<svg width="54" height="70" viewBox="0 0 54 70" fill="none" xmlns="http://www.w3.org/2000/svg">
<path d="M52.875 69.875H7.875C7.57663 69.875 7.29048 69.7565 7.07951 69.5455C6.86853 69.3345 6.75 69.0484 6.75 68.75V62C6.75 61.7016 6.86853 61.4155 7.07951 61.2045C7.29048 60.9935 7.57663 60.875 7.875 60.875C8.17337 60.875 8.45952 60.9935 8.67049 61.2045C8.88147 61.4155 9 61.7016 9 62V67.625H51.75V9.125H46.125C45.8266 9.125 45.5405 9.00647 45.3295 8.79549C45.1185 8.58452 45 8.29837 45 8C45 7.70163 45.1185 7.41548 45.3295 7.20451C45.5405 6.99353 45.8266 6.875 46.125 6.875H52.875C53.1734 6.875 53.4595 6.99353 53.6705 7.20451C53.8815 7.41548 54 7.70163 54 8V68.75C54 69.0484 53.8815 69.3345 53.6705 69.5455C53.4595 69.7565 53.1734 69.875 52.875 69.875Z" fill="#FEBE09"/>
<path d="M46.125 63.125H1.125C0.826631 63.125 0.540484 63.0065 0.329505 62.7955C0.118527 62.5845 0 62.2984 0 62V13.625C6.37171e-05 13.3267 0.118632 13.0406 0.329625 12.8296L12.7046 0.454625C12.9156 0.243632 13.2017 0.125064 13.5 0.125H46.125C46.4234 0.125 46.7095 0.243526 46.9205 0.454505C47.1315 0.665483 47.25 0.951631 47.25 1.25V62C47.25 62.2984 47.1315 62.5845 46.9205 62.7955C46.7095 63.0065 46.4234 63.125 46.125 63.125ZM2.25 60.875H45V2.375H13.9657L2.25 14.0907V60.875Z" fill="#FEBE09"/>
<path d="M13.5 14.75H1.125C0.826631 14.75 0.540484 14.6315 0.329505 14.4205C0.118527 14.2095 0 13.9234 0 13.625C0 13.3266 0.118527 13.0405 0.329505 12.8295C0.540484 12.6185 0.826631 12.5 1.125 12.5H12.375V1.25C12.375 0.951631 12.4935 0.665483 12.7045 0.454505C12.9155 0.243526 13.2016 0.125 13.5 0.125C13.7984 0.125 14.0845 0.243526 14.2955 0.454505C14.5065 0.665483 14.625 0.951631 14.625 1.25V13.625C14.625 13.9234 14.5065 14.2095 14.2955 14.4205C14.0845 14.6315 13.7984 14.75 13.5 14.75ZM25.875 19.25H7.875C7.57663 19.25 7.29048 19.1315 7.0795 18.9205C6.86853 18.7095 6.75 18.4234 6.75 18.125C6.75 17.8266 6.86853 17.5405 7.0795 17.3295C7.29048 17.1185 7.57663 17 7.875 17H25.875C26.1734 17 26.4595 17.1185 26.6705 17.3295C26.8815 17.5405 27 17.8266 27 18.125C27 18.4234 26.8815 18.7095 26.6705 18.9205C26.4595 19.1315 26.1734 19.25 25.875 19.25ZM25.875 23.75H7.875C7.57663 23.75 7.29048 23.6315 7.0795 23.4205C6.86853 23.2095 6.75 22.9234 6.75 22.625C6.75 22.3266 6.86853 22.0405 7.0795 21.8295C7.29048 21.6185 7.57663 21.5 7.875 21.5H25.875C26.1734 21.5 26.4595 21.6185 26.6705 21.8295C26.8815 22.0405 27 22.3266 27 22.625C27 22.9234 26.8815 23.2095 26.6705 23.4205C26.4595 23.6315 26.1734 23.75 25.875 23.75ZM35.1956 22.625H34.0312C33.2858 22.6336 32.5558 22.4124 31.9405 21.9915C31.3251 21.5706 30.8544 20.9705 30.5921 20.2726C30.4913 19.9917 30.5061 19.6822 30.6335 19.4123C30.7608 19.1423 30.9902 18.934 31.2711 18.8332C31.552 18.7323 31.8614 18.7472 32.1314 18.8745C32.4013 19.0019 32.6097 19.2312 32.7105 19.5121C32.8154 19.7741 32.9985 19.9975 33.2348 20.1519C33.4711 20.3062 33.7491 20.3841 34.0312 20.375H35.1956C35.6498 20.4059 36.0992 20.2664 36.456 19.9837C36.8128 19.7009 37.0513 19.2953 37.125 18.8461C37.1391 18.4826 37.019 18.1266 36.7875 17.846C36.543 17.5518 36.2093 17.3453 35.8369 17.2576L33.3945 16.6816C32.5452 16.492 31.7849 16.0211 31.2368 15.3452C30.6887 14.6693 30.385 13.828 30.375 12.9579C30.3755 12.4465 30.4809 11.9406 30.6846 11.4716C30.8884 11.0025 31.1862 10.5803 31.5596 10.2309C32.31 9.51699 33.3072 9.12076 34.3429 9.125H35.7188C36.4642 9.11641 37.1942 9.33759 37.8095 9.75847C38.4249 10.1794 38.8956 10.7795 39.1579 11.4774C39.2078 11.6165 39.2299 11.764 39.2228 11.9117C39.2157 12.0593 39.1796 12.204 39.1165 12.3377C39.0535 12.4714 38.9647 12.5913 38.8553 12.6907C38.7459 12.79 38.618 12.8669 38.4789 12.9168C38.3398 12.9667 38.1923 12.9888 38.0447 12.9817C37.897 12.9746 37.7523 12.9385 37.6186 12.8755C37.4849 12.8124 37.365 12.7237 37.2656 12.6143C37.1663 12.5049 37.0894 12.377 37.0395 12.2379C36.9346 11.9759 36.7515 11.7525 36.5152 11.5981C36.2789 11.4438 36.0009 11.3659 35.7188 11.375H34.3429C33.883 11.3707 33.4394 11.5449 33.1054 11.861C32.9536 12.001 32.8321 12.1707 32.7485 12.3596C32.6649 12.5485 32.621 12.7525 32.6194 12.959C32.6307 13.3224 32.7641 13.6714 32.998 13.9497C33.2319 14.2281 33.5526 14.4197 33.9086 14.4935L36.351 15.0695C37.2005 15.2719 37.9608 15.7459 38.5166 16.4195C39.1018 17.1216 39.4074 18.0148 39.375 18.9283C39.2827 19.9618 38.7982 20.9208 38.0209 21.6083C37.2437 22.2958 36.2327 22.6596 35.1956 22.625Z" fill="#FEBE09"/>
<path d="M34.875 11.375C34.5766 11.375 34.2905 11.2565 34.0795 11.0455C33.8685 10.8345 33.75 10.5484 33.75 10.25V8C33.75 7.70163 33.8685 7.41548 34.0795 7.20451C34.2905 6.99353 34.5766 6.875 34.875 6.875C35.1734 6.875 35.4595 6.99353 35.6705 7.20451C35.8815 7.41548 36 7.70163 36 8V10.25C36 10.5484 35.8815 10.8345 35.6705 11.0455C35.4595 11.2565 35.1734 11.375 34.875 11.375ZM34.875 24.875C34.5766 24.875 34.2905 24.7565 34.0795 24.5455C33.8685 24.3345 33.75 24.0484 33.75 23.75V21.5C33.75 21.2016 33.8685 20.9155 34.0795 20.7045C34.2905 20.4935 34.5766 20.375 34.875 20.375C35.1734 20.375 35.4595 20.4935 35.6705 20.7045C35.8815 20.9155 36 21.2016 36 21.5V23.75C36 24.0484 35.8815 24.3345 35.6705 24.5455C35.4595 24.7565 35.1734 24.875 34.875 24.875ZM37.125 56.375H10.125C9.22989 56.375 8.37145 56.0194 7.73851 55.3865C7.10558 54.7535 6.75 53.8951 6.75 53V30.5C6.75 29.6049 7.10558 28.7464 7.73851 28.1135C8.37145 27.4806 9.22989 27.125 10.125 27.125H37.125C38.0201 27.125 38.8785 27.4806 39.5115 28.1135C40.1444 28.7464 40.5 29.6049 40.5 30.5V53C40.5 53.8951 40.1444 54.7535 39.5115 55.3865C38.8785 56.0194 38.0201 56.375 37.125 56.375ZM10.125 29.375C9.82663 29.375 9.54048 29.4935 9.3295 29.7045C9.11853 29.9155 9 30.2016 9 30.5V53C9 53.2984 9.11853 53.5845 9.3295 53.7955C9.54048 54.0065 9.82663 54.125 10.125 54.125H37.125C37.4234 54.125 37.7095 54.0065 37.9205 53.7955C38.1315 53.5845 38.25 53.2984 38.25 53V30.5C38.25 30.2016 38.1315 29.9155 37.9205 29.7045C37.7095 29.4935 37.4234 29.375 37.125 29.375H10.125Z" fill="#FEBE09"/>
<path d="M39.375 36.125H7.875C7.57663 36.125 7.29048 36.0065 7.07951 35.7955C6.86853 35.5845 6.75 35.2984 6.75 35C6.75 34.7016 6.86853 34.4155 7.07951 34.2045C7.29048 33.9935 7.57663 33.875 7.875 33.875H39.375C39.6734 33.875 39.9595 33.9935 40.1705 34.2045C40.3815 34.4155 40.5 34.7016 40.5 35C40.5 35.2984 40.3815 35.5845 40.1705 35.7955C39.9595 36.0065 39.6734 36.125 39.375 36.125ZM39.375 42.875H7.875C7.57663 42.875 7.29048 42.7565 7.07951 42.5455C6.86853 42.3345 6.75 42.0484 6.75 41.75C6.75 41.4516 6.86853 41.1655 7.07951 40.9545C7.29048 40.7435 7.57663 40.625 7.875 40.625H39.375C39.6734 40.625 39.9595 40.7435 40.1705 40.9545C40.3815 41.1655 40.5 41.4516 40.5 41.75C40.5 42.0484 40.3815 42.3345 40.1705 42.5455C39.9595 42.7565 39.6734 42.875 39.375 42.875ZM39.375 49.625H7.875C7.57663 49.625 7.29048 49.5065 7.07951 49.2955C6.86853 49.0845 6.75 48.7984 6.75 48.5C6.75 48.2016 6.86853 47.9155 7.07951 47.7045C7.29048 47.4935 7.57663 47.375 7.875 47.375H39.375C39.6734 47.375 39.9595 47.4935 40.1705 47.7045C40.3815 47.9155 40.5 48.2016 40.5 48.5C40.5 48.7984 40.3815 49.0845 40.1705 49.2955C39.9595 49.5065 39.6734 49.625 39.375 49.625Z" fill="#FEBE09"/>
<path d="M14.625 56.375C14.3266 56.375 14.0405 56.2565 13.8295 56.0455C13.6185 55.8345 13.5 55.5484 13.5 55.25V28.25C13.5 27.9516 13.6185 27.6655 13.8295 27.4545C14.0405 27.2435 14.3266 27.125 14.625 27.125C14.9234 27.125 15.2095 27.2435 15.4205 27.4545C15.6315 27.6655 15.75 27.9516 15.75 28.25V55.25C15.75 55.5484 15.6315 55.8345 15.4205 56.0455C15.2095 56.2565 14.9234 56.375 14.625 56.375ZM32.625 56.375C32.3266 56.375 32.0405 56.2565 31.8295 56.0455C31.6185 55.8345 31.5 55.5484 31.5 55.25V28.25C31.5 27.9516 31.6185 27.6655 31.8295 27.4545C32.0405 27.2435 32.3266 27.125 32.625 27.125C32.9234 27.125 33.2095 27.2435 33.4205 27.4545C33.6315 27.6655 33.75 27.9516 33.75 28.25V55.25C33.75 55.5484 33.6315 55.8345 33.4205 56.0455C33.2095 56.2565 32.9234 56.375 32.625 56.375Z" fill="#FEBE09"/>
</svg>
