<svg width="72" height="72" viewBox="0 0 72 72" fill="none" xmlns="http://www.w3.org/2000/svg">
<path d="M27 25.875C27 25.5766 26.8815 25.2905 26.6705 25.0795C26.4595 24.8685 26.1734 24.75 25.875 24.75C25.5766 24.75 25.2905 24.8685 25.0795 25.0795C24.8685 25.2905 24.75 25.5766 24.75 25.875C24.75 26.4717 24.9871 27.044 25.409 27.466C25.831 27.8879 26.4033 28.125 27 28.125H28.125C28.125 28.4234 28.2435 28.7095 28.4545 28.9205C28.6655 29.1315 28.9516 29.25 29.25 29.25C29.5484 29.25 29.8345 29.1315 30.0455 28.9205C30.2565 28.7095 30.375 28.4234 30.375 28.125H31.5C32.0967 28.125 32.669 27.8879 33.091 27.466C33.5129 27.044 33.75 26.4717 33.75 25.875V23.625C33.75 23.0283 33.5129 22.456 33.091 22.034C32.669 21.6121 32.0967 21.375 31.5 21.375H27V19.125H31.5C31.5 19.4234 31.6185 19.7095 31.8295 19.9205C32.0405 20.1315 32.3266 20.25 32.625 20.25C32.9234 20.25 33.2095 20.1315 33.4205 19.9205C33.6315 19.7095 33.75 19.4234 33.75 19.125C33.75 18.5283 33.5129 17.956 33.091 17.534C32.669 17.1121 32.0967 16.875 31.5 16.875H30.375C30.375 16.5766 30.2565 16.2905 30.0455 16.0795C29.8345 15.8685 29.5484 15.75 29.25 15.75C28.9516 15.75 28.6655 15.8685 28.4545 16.0795C28.2435 16.2905 28.125 16.5766 28.125 16.875H27C26.4033 16.875 25.831 17.1121 25.409 17.534C24.9871 17.956 24.75 18.5283 24.75 19.125V21.375C24.75 21.9717 24.9871 22.544 25.409 22.966C25.831 23.3879 26.4033 23.625 27 23.625H31.5V25.875H27ZM16.875 36H33.75C34.0484 36 34.3345 35.8815 34.5455 35.6705C34.7565 35.4595 34.875 35.1734 34.875 34.875C34.875 34.5766 34.7565 34.2905 34.5455 34.0795C34.3345 33.8685 34.0484 33.75 33.75 33.75H16.875C16.5766 33.75 16.2905 33.8685 16.0795 34.0795C15.8685 34.2905 15.75 34.5766 15.75 34.875C15.75 35.1734 15.8685 35.4595 16.0795 35.6705C16.2905 35.8815 16.5766 36 16.875 36ZM34.875 38.25H31.5C31.2016 38.25 30.9155 38.3685 30.7045 38.5795C30.4935 38.7905 30.375 39.0766 30.375 39.375C30.375 39.6734 30.4935 39.9595 30.7045 40.1705C30.9155 40.3815 31.2016 40.5 31.5 40.5H34.875C35.1734 40.5 35.4595 40.3815 35.6705 40.1705C35.8815 39.9595 36 39.6734 36 39.375C36 39.0766 35.8815 38.7905 35.6705 38.5795C35.4595 38.3685 35.1734 38.25 34.875 38.25ZM41.625 36C41.9234 36 42.2095 35.8815 42.4205 35.6705C42.6315 35.4595 42.75 35.1734 42.75 34.875C42.75 34.5766 42.6315 34.2905 42.4205 34.0795C42.2095 33.8685 41.9234 33.75 41.625 33.75H38.25C37.9516 33.75 37.6655 33.8685 37.4545 34.0795C37.2435 34.2905 37.125 34.5766 37.125 34.875C37.125 35.1734 37.2435 35.4595 37.4545 35.6705C37.6655 35.8815 37.9516 36 38.25 36H41.625ZM16.875 40.5H27C27.2984 40.5 27.5845 40.3815 27.7955 40.1705C28.0065 39.9595 28.125 39.6734 28.125 39.375C28.125 39.0766 28.0065 38.7905 27.7955 38.5795C27.5845 38.3685 27.2984 38.25 27 38.25H16.875C16.5766 38.25 16.2905 38.3685 16.0795 38.5795C15.8685 38.7905 15.75 39.0766 15.75 39.375C15.75 39.6734 15.8685 39.9595 16.0795 40.1705C16.2905 40.3815 16.5766 40.5 16.875 40.5ZM16.875 45H20.25C20.5484 45 20.8345 44.8815 21.0455 44.6705C21.2565 44.4595 21.375 44.1734 21.375 43.875C21.375 43.5766 21.2565 43.2905 21.0455 43.0795C20.8345 42.8685 20.5484 42.75 20.25 42.75H16.875C16.5766 42.75 16.2905 42.8685 16.0795 43.0795C15.8685 43.2905 15.75 43.5766 15.75 43.875C15.75 44.1734 15.8685 44.4595 16.0795 44.6705C16.2905 44.8815 16.5766 45 16.875 45ZM34.875 42.75H24.75C24.4516 42.75 24.1655 42.8685 23.9545 43.0795C23.7435 43.2905 23.625 43.5766 23.625 43.875C23.625 44.1734 23.7435 44.4595 23.9545 44.6705C24.1655 44.8815 24.4516 45 24.75 45H34.875C35.1734 45 35.4595 44.8815 35.6705 44.6705C35.8815 44.4595 36 44.1734 36 43.875C36 43.5766 35.8815 43.2905 35.6705 43.0795C35.4595 42.8685 35.1734 42.75 34.875 42.75ZM30.375 47.25H16.875C16.5766 47.25 16.2905 47.3685 16.0795 47.5795C15.8685 47.7905 15.75 48.0766 15.75 48.375C15.75 48.6734 15.8685 48.9595 16.0795 49.1705C16.2905 49.3815 16.5766 49.5 16.875 49.5H30.375C30.6734 49.5 30.9595 49.3815 31.1705 49.1705C31.3815 48.9595 31.5 48.6734 31.5 48.375C31.5 48.0766 31.3815 47.7905 31.1705 47.5795C30.9595 47.3685 30.6734 47.25 30.375 47.25ZM28.125 55.125H26.5162L25.7175 53.7975C25.623 53.6375 25.4903 53.5034 25.3312 53.4072C25.1722 53.311 24.9919 53.2557 24.8062 53.2463C24.6222 53.2372 24.4387 53.2735 24.272 53.352C24.1053 53.4304 23.9603 53.5487 23.85 53.6963L22.725 55.2487L21.285 52.3687C21.1754 52.1335 20.9878 51.9434 20.7541 51.8306C20.5204 51.7179 20.2548 51.6894 20.0025 51.75C18.8423 51.9506 17.7864 52.5443 17.0121 53.4313C16.2378 54.3182 15.7922 55.4446 15.75 56.6213C15.75 56.9196 15.8685 57.2058 16.0795 57.4167C16.2905 57.6277 16.5766 57.7463 16.875 57.7463C17.1734 57.7463 17.4595 57.6277 17.6705 57.4167C17.8815 57.2058 18 56.9196 18 56.6213C18.028 56.108 18.2001 55.6131 18.4966 55.1932C18.7931 54.7733 19.2019 54.4456 19.6762 54.2475L21.4988 57.8813C21.5851 58.0515 21.7134 58.197 21.8715 58.304C22.0297 58.411 22.2124 58.476 22.4026 58.4929C22.5928 58.5098 22.7841 58.478 22.9586 58.4005C23.1331 58.323 23.285 58.2024 23.4 58.05L24.6488 56.385L24.9075 56.8237C25.0071 56.9917 25.1486 57.1308 25.3183 57.2275C25.4879 57.3241 25.6798 57.375 25.875 57.375H28.125C28.4234 57.375 28.7095 57.2565 28.9205 57.0455C29.1315 56.8345 29.25 56.5484 29.25 56.25C29.25 55.9516 29.1315 55.6655 28.9205 55.4545C28.7095 55.2435 28.4234 55.125 28.125 55.125Z" fill="#FEBE09"/>
<path d="M62.3587 39.2625L51.1087 33.8625C50.9576 33.7905 50.7924 33.7532 50.625 33.7532C50.4576 33.7532 50.2924 33.7905 50.1413 33.8625L49.5 34.1663V19.125C49.5009 18.977 49.4725 18.8302 49.4165 18.6931C49.3605 18.5561 49.278 18.4314 49.1737 18.3263L40.1737 9.32627C40.0686 9.222 39.944 9.13951 39.8069 9.08353C39.6698 9.02754 39.5231 8.99916 39.375 9.00002H10.125C9.82663 9.00002 9.54048 9.11855 9.32951 9.32952C9.11853 9.5405 9 9.82665 9 10.125V61.875C9 62.1734 9.11853 62.4595 9.32951 62.6705C9.54048 62.8815 9.82663 63 10.125 63H48.375C48.5664 62.9961 48.7537 62.9435 48.919 62.847C49.0844 62.7505 49.2224 62.6135 49.32 62.4488L50.1187 62.8763C50.2758 62.9554 50.4492 62.9966 50.625 62.9966C50.8008 62.9966 50.9742 62.9554 51.1313 62.8763C59.3438 58.7813 63 51.8063 63 40.275C62.9994 40.063 62.9389 39.8554 62.8254 39.6763C62.712 39.4971 62.5502 39.3537 62.3587 39.2625ZM40.5 12.8363L45.6637 18H40.5V12.8363ZM11.25 60.75V11.25H38.25V19.125C38.25 19.4234 38.3685 19.7095 38.5795 19.9205C38.7905 20.1315 39.0766 20.25 39.375 20.25H47.25V35.2463L38.8913 39.2625C38.6998 39.3537 38.538 39.4971 38.4246 39.6763C38.3111 39.8554 38.2506 40.063 38.25 40.275C38.25 50.0175 40.8825 56.4975 46.6425 60.75H11.25ZM50.625 60.615C45.63 57.9938 40.68 53.4825 40.5 40.9838L50.625 36.1238L60.75 40.9838C60.57 53.4825 55.62 57.9938 50.625 60.615Z" fill="#FEBE09"/>
<path d="M50.1187 38.3738L43.3687 41.7488C43.1832 41.8422 43.0272 41.9853 42.918 42.162C42.8088 42.3387 42.7506 42.5423 42.75 42.75C42.75 51.75 46.755 55.575 50.1187 57.2513C50.2758 57.3304 50.4492 57.3716 50.625 57.3716C50.8008 57.3716 50.9742 57.3304 51.1313 57.2513C54.495 55.575 58.5 51.75 58.5 42.75C58.4994 42.5423 58.4412 42.3387 58.332 42.162C58.2228 41.9853 58.0668 41.8422 57.8813 41.7488L51.1313 38.3738C50.9742 38.2946 50.8008 38.2534 50.625 38.2534C50.4492 38.2534 50.2758 38.2946 50.1187 38.3738ZM56.25 43.4363C56.1038 48.9825 54.1687 52.9538 50.625 54.9788C47.0925 52.9538 45.1575 48.9825 45 43.4363L50.625 40.635L56.25 43.4363Z" fill="#FEBE09"/>
</svg>
