<svg width="72" height="72" viewBox="0 0 72 72" fill="none" xmlns="http://www.w3.org/2000/svg">
<path d="M65.8125 21.8081V21.6956L63.5625 12.1331C63.5128 11.9303 63.4076 11.7452 63.2588 11.5988L58.7588 7.09875C58.5435 6.91445 58.2667 6.81814 57.9836 6.82907C57.7004 6.84001 57.4318 6.95739 57.2315 7.15774C57.0311 7.3581 56.9138 7.62668 56.9028 7.90982C56.8919 8.19295 56.9882 8.46979 57.1725 8.685L61.4419 12.96L62.2912 16.5656C62.0044 16.785 58.7025 17.7413 58.2131 21.4594C58.2131 21.5775 57.9656 24.345 57.9656 25.3294C57.9656 26.9606 59.3831 28.1419 61.3406 28.1419H63.5906V59.6419C63.5906 60.537 63.235 61.3954 62.6021 62.0284C61.9692 62.6613 61.1107 63.0169 60.2156 63.0169C59.3205 63.0169 58.4621 62.6613 57.8291 62.0284C57.1962 61.3954 56.8406 60.537 56.8406 59.6419V39.9375C56.8396 36.6968 55.6224 33.5746 53.4299 31.1883C51.2373 28.8019 48.229 27.3254 45 27.0506V7.875C45 7.57663 44.8815 7.29048 44.6705 7.07951C44.4595 6.86853 44.1734 6.75 43.875 6.75H14.625C14.3266 6.75 14.0405 6.86853 13.8295 7.07951C13.6185 7.29048 13.5 7.57663 13.5 7.875V34.3125C13.5 34.6109 13.6185 34.897 13.8295 35.108C14.0405 35.319 14.3266 35.4375 14.625 35.4375C14.9234 35.4375 15.2095 35.319 15.4205 35.108C15.6315 34.897 15.75 34.6109 15.75 34.3125V9H42.75V63H14.625C14.3266 63 14.0405 63.1185 13.8295 63.3295C13.6185 63.5405 13.5 63.8266 13.5 64.125C13.5 64.4234 13.6185 64.7095 13.8295 64.9205C14.0405 65.1315 14.3266 65.25 14.625 65.25H43.875C44.1734 65.25 44.4595 65.1315 44.6705 64.9205C44.8815 64.7095 45 64.4234 45 64.125V29.3119C47.6246 29.5897 50.0536 30.8288 51.8192 32.7907C53.5847 34.7525 54.5619 37.2982 54.5625 39.9375V59.625C54.5625 61.1168 55.1551 62.5476 56.21 63.6025C57.2649 64.6574 58.6957 65.25 60.1875 65.25C61.6793 65.25 63.1101 64.6574 64.165 63.6025C65.2199 62.5476 65.8125 61.1168 65.8125 59.625V21.8081ZM61.3125 25.875C60.8456 25.875 60.1875 25.7006 60.1875 25.3125C60.1875 24.5756 60.3563 22.4044 60.4181 21.6844C60.5148 21.0333 60.7868 20.4208 61.205 19.9125C61.6231 19.4042 62.1717 19.0192 62.7919 18.7987L63.5625 22.0669V25.875H61.3125Z" fill="#FEBE09"/>
<path d="M38.2496 30.375C38.548 30.375 38.8341 30.2565 39.0451 30.0455C39.2561 29.8345 39.3746 29.5484 39.3746 29.25V13.5C39.3746 13.2016 39.2561 12.9155 39.0451 12.7045C38.8341 12.4935 38.548 12.375 38.2496 12.375H20.2496C19.9512 12.375 19.6651 12.4935 19.4541 12.7045C19.2431 12.9155 19.1246 13.2016 19.1246 13.5V29.25C19.1246 29.5484 19.2431 29.8345 19.4541 30.0455C19.6651 30.2565 19.9512 30.375 20.2496 30.375H38.2496ZM21.3746 14.625H37.1246V28.125H21.3746V14.625ZM15.6652 60.4294L33.7496 50.895C34.1787 50.6689 34.5589 50.3603 34.8685 49.987C35.178 49.6136 35.4108 49.1828 35.5535 48.7192C35.6962 48.2556 35.7459 47.7685 35.6999 47.2857C35.6538 46.8028 35.5129 46.3339 35.2852 45.9056L29.3115 34.5094C28.8556 33.6435 28.0748 32.9938 27.1406 32.7028C26.2063 32.4117 25.1947 32.5031 24.3277 32.9569L6.22083 42.5194C5.79174 42.7455 5.4115 43.054 5.10194 43.4274C4.79238 43.8008 4.55959 44.2316 4.41692 44.6952C4.27425 45.1587 4.2245 45.6459 4.27054 46.1287C4.31658 46.6115 4.4575 47.0805 4.68521 47.5088L10.6871 58.8713C11.142 59.7366 11.9213 60.3865 12.8543 60.6785C13.7874 60.9705 14.7981 60.8809 15.6652 60.4294ZM12.6727 57.825L6.67646 46.4287C6.58694 46.2623 6.5312 46.0798 6.51244 45.8917C6.49369 45.7036 6.51229 45.5137 6.56717 45.3328C6.62206 45.152 6.71215 44.9837 6.83226 44.8378C6.95238 44.6919 7.10015 44.5711 7.26708 44.4825L25.374 34.92C25.7142 34.7444 26.1102 34.7109 26.475 34.8269C26.8399 34.9429 27.1439 35.1989 27.3202 35.5387L33.3165 46.9519C33.4079 47.1169 33.466 47.2984 33.4872 47.4859C33.5085 47.6734 33.4925 47.8632 33.4402 48.0445C33.388 48.2259 33.3005 48.3951 33.1827 48.5425C33.0649 48.69 32.9192 48.8127 32.754 48.9038L14.6246 58.4381C14.4564 58.5269 14.2722 58.5815 14.0827 58.5987C13.8933 58.616 13.7023 58.5955 13.5208 58.5385C13.3393 58.4815 13.1709 58.3891 13.0254 58.2666C12.8798 58.1441 12.7599 57.994 12.6727 57.825Z" fill="#FEBE09"/>
<path d="M19.2757 48.9374L17.1719 44.938C17.1057 44.8042 17.0134 44.6849 16.9006 44.587C16.7877 44.4892 16.6565 44.4148 16.5147 44.3682C16.3728 44.3216 16.223 44.3037 16.0741 44.3156C15.9253 44.3275 15.7802 44.3689 15.6475 44.4374L10.8382 46.9687C10.7067 47.0374 10.5902 47.1314 10.4952 47.2453C10.4002 47.3593 10.3287 47.4909 10.2848 47.6326C10.2409 47.7742 10.2254 47.9232 10.2393 48.0709C10.2532 48.2185 10.2961 48.362 10.3657 48.493L12.475 52.4868C12.6138 52.7508 12.8518 52.9488 13.1366 53.0375C13.4214 53.1261 13.7297 53.0979 13.9938 52.9593L18.8032 50.428C19.0598 50.2893 19.2526 50.0563 19.3407 49.7782C19.4289 49.5001 19.4056 49.1986 19.2757 48.9374ZM13.9432 50.4562L12.8857 48.448L15.6982 46.963L16.7557 48.9712L13.9432 50.4562ZM32.8207 22.1849C32.5844 19.8055 30.3063 17.4655 30.0419 17.2068C29.8311 16.9972 29.546 16.8796 29.2488 16.8796C28.9516 16.8796 28.6664 16.9972 28.4557 17.2068C28.1913 17.4655 25.9132 19.8055 25.6769 22.1849C25.6769 23.1322 26.0532 24.0407 26.7231 24.7106C27.3929 25.3805 28.3015 25.7568 29.2488 25.7568C30.1961 25.7568 31.1046 25.3805 31.7745 24.7106C32.4443 24.0407 32.8207 23.1322 32.8207 22.1849ZM29.2488 23.6249C28.5569 23.6249 27.8482 23.0624 27.9157 22.4099C28.1247 21.4134 28.5835 20.4863 29.2488 19.7155C29.9141 20.4863 30.3728 21.4134 30.5819 22.4099C30.6494 23.0624 29.9407 23.6249 29.2488 23.6249ZM20.17 44.0043C20.9891 44.2817 21.6703 44.863 22.0733 45.6281C22.4763 46.3932 22.5702 47.2838 22.3357 48.1162C22.2955 48.2619 22.2851 48.4143 22.3052 48.5642C22.3252 48.7141 22.3753 48.8584 22.4523 48.9884C22.5294 49.1185 22.6319 49.2318 22.7537 49.3213C22.8755 49.4109 23.0142 49.475 23.1613 49.5098C23.3085 49.5446 23.4611 49.5494 23.6101 49.5239C23.7592 49.4984 23.9015 49.4431 24.0287 49.3613C24.1559 49.2795 24.2653 49.1729 24.3504 49.0479C24.4354 48.9229 24.4944 48.782 24.5238 48.6337C24.8887 47.2698 24.7275 45.8186 24.072 44.5682C23.4166 43.3177 22.3149 42.3595 20.9857 41.8837C20.7074 41.7755 20.3976 41.7823 20.1244 41.9025C19.8512 42.0228 19.6369 42.2467 19.5288 42.5249C19.4206 42.8031 19.4274 43.1129 19.5477 43.3862C19.6679 43.6594 19.8918 43.8736 20.17 43.9818V44.0043ZM23.0613 40.7193C24.3476 41.2955 25.4036 42.2864 26.0603 43.5335C26.717 44.7807 26.9366 46.212 26.6838 47.5987C26.6383 47.897 26.7132 48.2012 26.892 48.4444C27.0708 48.6876 27.3389 48.8497 27.6372 48.8952C27.9356 48.9407 28.2398 48.8658 28.483 48.687C28.7261 48.5082 28.8883 48.2402 28.9338 47.9418C29.2534 46.0783 28.9493 44.1615 28.0685 42.4885C27.1878 40.8155 25.7797 39.4799 24.0625 38.6887C23.7933 38.5559 23.4823 38.5355 23.198 38.632C22.9137 38.7286 22.6794 38.9341 22.5466 39.2033C22.4138 39.4726 22.3935 39.7836 22.49 40.0679C22.5865 40.3522 22.792 40.5865 23.0613 40.7193Z" fill="#FEBE09"/>
</svg>
