<svg width="34" height="34" viewBox="0 0 34 34" fill="none" xmlns="http://www.w3.org/2000/svg">
<g id="Frame">
<g id="Group">
<path id="Vector" d="M25.7055 31.0636V32.9697C25.7055 33.2788 25.4995 33.4848 25.1904 33.4848H2.06007C1.8025 33.4848 1.54492 33.2788 1.54492 32.9697V31.0636C1.54492 30.3939 2.06007 29.8273 2.78129 29.8273H24.4692C25.1389 29.8273 25.7055 30.3939 25.7055 31.0636ZM32.351 9.11817L31.9389 7.83029C31.8873 7.67574 31.8358 7.57271 31.7328 7.46968L30.651 4.43029C30.548 4.17271 30.2389 4.01817 29.9813 4.1212C29.7237 4.22423 29.5692 4.53332 29.6722 4.79089L30.3419 6.69695C30.1358 6.69695 29.8783 6.69695 29.6722 6.79998C29.2086 6.95453 28.848 7.26362 28.6419 7.67574C28.4358 8.08786 28.4358 8.60302 28.5904 9.01514L29.054 10.303C29.3116 11.0242 29.9813 11.4879 30.7025 11.4879C30.8055 11.4879 30.9601 11.4879 31.0631 11.4363V22.6667C31.0631 24.006 29.9813 25.0879 28.6419 25.0879C27.3025 25.0879 26.2207 24.006 26.2207 22.6667V10.9212C26.2207 10.6636 26.0146 10.406 25.7055 10.406H23.5934V3.76059C23.5934 1.95756 22.151 0.515137 20.348 0.515137H6.9025C5.09947 0.515137 3.65704 1.95756 3.65704 3.76059V28.797H23.6449V11.4363H25.2419V22.6667C25.2419 23.5821 25.6055 24.46 26.2528 25.1072C26.9001 25.7545 27.778 26.1182 28.6934 26.1182C29.6088 26.1182 30.4867 25.7545 31.134 25.1072C31.7813 24.46 32.1449 23.5821 32.1449 22.6667V10.7667C32.454 10.303 32.557 9.68483 32.351 9.11817ZM20.348 10.6727C20.348 10.9303 20.1419 11.1879 19.8328 11.1879H7.41765C7.16007 11.1879 6.9025 10.9303 6.9025 10.6727V5.46059C6.9025 5.1515 7.16007 4.94544 7.41765 4.94544H19.8328C20.1419 4.94544 20.348 5.1515 20.348 5.46059V10.6727Z" fill="#A59EA9"/>
<path id="G" d="M13.1 25.25C12.42 25.25 11.7725 25.13 11.1575 24.89C10.5425 24.645 9.9975 24.285 9.5225 23.81C9.0525 23.335 8.68 22.7475 8.405 22.0475C8.135 21.3475 8 20.54 8 19.625C8 18.43 8.2275 17.415 8.6825 16.58C9.1425 15.74 9.7575 15.1 10.5275 14.66C11.3025 14.22 12.16 14 13.1 14C14.49 14 15.5825 14.3225 16.3775 14.9675C17.1725 15.6125 17.705 16.525 17.975 17.705L15.89 18.005C15.695 17.375 15.375 16.8725 14.93 16.4975C14.49 16.1175 13.925 15.925 13.235 15.92C12.55 15.91 11.98 16.0575 11.525 16.3625C11.07 16.6675 10.7275 17.1 10.4975 17.66C10.2725 18.22 10.16 18.875 10.16 19.625C10.16 20.375 10.2725 21.025 10.4975 21.575C10.7275 22.125 11.07 22.5525 11.525 22.8575C11.98 23.1625 12.55 23.32 13.235 23.33C13.7 23.34 14.12 23.26 14.495 23.09C14.875 22.92 15.195 22.6525 15.455 22.2875C15.715 21.9225 15.9 21.455 16.01 20.885H14.3V19.31H18.185C18.195 19.375 18.2025 19.49 18.2075 19.655C18.2125 19.82 18.215 19.915 18.215 19.94C18.215 20.975 18.005 21.8925 17.585 22.6925C17.165 23.4925 16.5725 24.12 15.8075 24.575C15.0425 25.025 14.14 25.25 13.1 25.25Z" fill="white"/>
</g>
</g>
</svg>
