<svg width="72" height="72" viewBox="0 0 72 72" fill="none" xmlns="http://www.w3.org/2000/svg">
<g clip-path="url(#clip0_6394_568)">
<path d="M54.7849 53.1161C54.2387 52.175 53.2318 51.5971 52.1437 51.5999C52.0582 51.6001 51.973 51.6091 51.8894 51.6269L30.3091 56.3048L23.5277 51.8003C23.3308 51.6695 23.0996 51.5999 22.8632 51.5999H16.7999C16.8001 50.9374 16.2631 50.4001 15.6005 50.3999C15.6004 50.3999 15.6001 50.3999 15.5999 50.3999H9.5999C8.93735 50.3998 8.40005 50.9368 8.3999 51.5993C8.3999 51.5995 8.3999 51.5998 8.3999 51.5999V65.9999C8.39975 66.6625 8.93675 67.1998 9.5993 67.1999C9.59945 67.1999 9.59975 67.1999 9.5999 67.1999H15.5999C16.2625 67.2001 16.7998 66.6631 16.7999 66.0005C16.7999 66.0004 16.7999 66.0001 16.7999 65.9999H18.9304L29.5088 71.8499C29.8927 72.0622 30.3617 72.0484 30.7322 71.8136L53.6798 57.2777C55.1342 56.4335 55.6289 54.5704 54.7849 53.1161ZM14.3999 64.7999H10.7999V52.7999H14.3999V64.7999ZM52.4354 55.2263L30.0491 69.406L19.8211 63.7499C19.6432 63.6517 19.4431 63.5999 19.2398 63.5999H16.7999V53.9999H22.5011L30.3949 59.2429C31.2191 59.7877 31.4456 60.8977 30.9008 61.7219C30.8807 61.7522 30.8597 61.7821 30.838 61.811C30.2596 62.5754 29.1863 62.7581 28.3876 62.2282L23.5279 59.0003L22.1989 60.9995L27.0587 64.2275C28.9642 65.533 31.5671 65.0467 32.8726 63.1412C33.8948 61.6493 33.8422 59.6692 32.7421 58.2337L52.2446 54.0058C52.5041 54.0355 52.7167 54.2254 52.7755 54.4798C52.8604 54.7783 52.7165 55.0945 52.4354 55.2263Z" fill="#FEBE09"/>
<path d="M40.8001 3.14169e-08C40.1375 -0.000149969 39.6002 0.53685 39.6001 1.1994C39.6001 1.19955 39.6001 1.19985 39.6001 1.2V22.8C39.5999 23.4626 40.1369 23.9999 40.7995 24C40.7996 24 40.7999 24 40.8001 24H62.4001C63.0626 24.0002 63.5999 23.4632 63.6001 22.8006C63.6001 22.8005 63.6001 22.8002 63.6001 22.8C63.5858 10.2138 53.3863 0.01425 40.8001 3.14169e-08ZM42.0001 21.6V2.4351C52.3162 3.0564 60.5437 11.2839 61.165 21.6H42.0001Z" fill="#FEBE09"/>
<path d="M45.5999 6C44.9374 5.99985 44.4001 6.53685 44.3999 7.1994C44.3999 7.19955 44.3999 7.19985 44.3999 7.2V18C44.3998 18.6626 44.9368 19.1999 45.5993 19.2C45.5995 19.2 45.5998 19.2 45.5999 19.2H56.3999C57.0625 19.2002 57.5998 18.6631 57.5999 18.0006C57.5999 18.0005 57.5999 18.0002 57.5999 18C57.5923 11.3757 52.2242 6.00765 45.5999 6ZM46.7999 16.8V8.4744C51.1475 9.0291 54.5705 12.4524 55.1249 16.8H46.7999Z" fill="#FEBE09"/>
<path d="M57.6003 26.4C57.6002 26.4 57.5999 26.4 57.5997 26.4H37.1997V6.00005C37.1999 5.3375 36.6629 4.8002 36.0003 4.80005C36.0002 4.80005 35.9999 4.80005 35.9997 4.80005C23.4077 4.80005 13.1997 15.008 13.1997 27.6C13.1997 40.1921 23.4077 50.4001 35.9997 50.4001C48.5918 50.4001 58.7997 40.1921 58.7997 27.6C58.7999 26.9375 58.2629 26.4002 57.6003 26.4ZM35.9997 48C24.7331 48 15.5997 38.8666 15.5997 27.5999C15.5997 16.7994 24.0179 7.87055 34.7997 7.2353V27.6C34.7996 28.2626 35.3366 28.7999 35.9991 28.8C35.9993 28.8 35.9996 28.8 35.9997 28.8H56.3646C55.7165 39.576 46.7951 47.9872 35.9997 48Z" fill="#FEBE09"/>
</g>
<defs>
<clipPath id="clip0_6394_568">
<rect width="72" height="72" fill="white"/>
</clipPath>
</defs>
</svg>
