<svg width="72" height="72" viewBox="0 0 72 72" fill="none" xmlns="http://www.w3.org/2000/svg">
<g clip-path="url(#clip0_7073_1071)">
<path d="M54.4769 7.98011L36.4769 0.100914C36.3255 0.0348383 36.1621 0.000732422 35.9969 0.000732422C35.8317 0.000732422 35.6683 0.0348383 35.5169 0.100914L17.5169 7.98011C17.303 8.07347 17.1209 8.22717 16.9931 8.42241C16.8652 8.61764 16.797 8.84593 16.7969 9.07932V27.9193C16.8029 32.1529 18.8369 36.1273 22.2689 38.6089L34.7093 47.5813C35.0839 47.8524 35.5345 47.9984 35.9969 47.9984C36.4593 47.9984 36.9099 47.8524 37.2845 47.5813L49.7249 38.6101C51.4163 37.387 52.7939 35.7807 53.745 33.9227C54.6961 32.0647 55.1937 30.0078 55.1969 27.9205V9.07932C55.1968 8.84593 55.1286 8.61764 55.0007 8.42241C54.8728 8.22717 54.6908 8.07347 54.4769 7.98011ZM52.7969 27.9205C52.7942 29.6278 52.3872 31.3101 51.6092 32.8298C50.8312 34.3495 49.7043 35.6633 48.3209 36.6637L35.9969 45.5521L23.6729 36.6637C22.2894 35.6633 21.1626 34.3495 20.3846 32.8298C19.6066 31.3101 19.1996 29.6278 19.1969 27.9205V9.86411L35.9969 2.51051L52.7969 9.86411V27.9205Z" fill="#FEBE09"/>
<path d="M35.5186 5.34017L22.3186 11.1194C22.1047 11.2127 21.9226 11.3664 21.7948 11.5617C21.6669 11.7569 21.5987 11.9852 21.5986 12.2186V27.9206C21.6004 29.2479 21.9167 30.5558 22.5216 31.7373C23.1265 32.9187 24.0028 33.94 25.0786 34.7174L35.2966 42.0878C35.501 42.2352 35.7466 42.3145 35.9986 42.3145C36.2506 42.3145 36.4962 42.2352 36.7006 42.0878L46.9186 34.7174C47.9944 33.94 48.8706 32.9187 49.4755 31.7373C50.0804 30.5558 50.3968 29.2479 50.3986 27.9206V12.2186C50.3985 11.9852 50.3303 11.7569 50.2024 11.5617C50.0745 11.3664 49.8925 11.2127 49.6786 11.1194L36.4786 5.34017C36.3272 5.2741 36.1638 5.23999 35.9986 5.23999C35.8334 5.23999 35.67 5.2741 35.5186 5.34017ZM47.9986 13.0022V27.9206C47.9968 28.8677 47.7708 29.801 47.339 30.644C46.9073 31.4871 46.2821 32.2159 45.5146 32.771L35.9986 39.635L26.4826 32.771C25.7151 32.2159 25.0899 31.4871 24.6582 30.644C24.2264 29.801 24.0004 28.8677 23.9986 27.9206V13.0022L35.9986 7.74977L47.9986 13.0022ZM9.94059 39.8402L7.34499 33.7754C7.14209 33.3158 6.85066 32.9006 6.48733 32.5537C6.124 32.2067 5.69589 31.9347 5.22744 31.7532C4.75898 31.5716 4.25937 31.4842 3.75711 31.4957C3.25485 31.5073 2.75979 31.6177 2.30018 31.8206C1.84058 32.0235 1.42545 32.3149 1.07848 32.6782C0.731504 33.0416 0.459493 33.4697 0.277973 33.9381C0.0964526 34.4066 0.00897874 34.9062 0.0205454 35.4085C0.032112 35.9107 0.142493 36.4058 0.345385 36.8654L5.04819 47.2106C5.68264 48.611 6.56526 49.8852 7.65339 50.9714L15.049 58.3682C14.6326 58.8098 14.401 59.393 14.3986 60.0002V69.6002C14.3986 70.2367 14.6514 70.8471 15.1015 71.2972C15.5516 71.7473 16.1621 72.0002 16.7986 72.0002H29.9986C30.6351 72.0002 31.2456 71.7473 31.6956 71.2972C32.1457 70.8471 32.3986 70.2367 32.3986 69.6002V60.0002C32.3986 59.3637 32.1457 58.7532 31.6956 58.3031C31.2456 57.853 30.6351 57.6002 29.9986 57.6002V55.367C30.0354 52.525 29.1082 49.7544 27.3682 47.507C26.3481 46.1653 24.9578 45.1512 23.3686 44.5898C20.8412 43.5279 18.5168 42.0362 16.4986 40.181C15.5861 39.4294 14.4564 38.9907 13.2758 38.9293C12.0952 38.868 10.9261 39.1873 9.94059 39.8402ZM29.9986 69.6002H16.7986V60.0002H29.9986V69.6002ZM25.495 49.0058C26.8937 50.8281 27.6351 53.07 27.5986 55.367V57.6002H17.6758L9.35019 49.2746C8.46595 48.3916 7.74843 47.3562 7.23219 46.2182L2.52938 35.873C2.44587 35.7005 2.39793 35.513 2.38845 35.3217C2.37896 35.1303 2.40811 34.939 2.47416 34.7592C2.54021 34.5793 2.64181 34.4146 2.7729 34.2749C2.90398 34.1351 3.06187 34.0232 3.23714 33.9458C3.41241 33.8684 3.60147 33.8271 3.79305 33.8244C3.98463 33.8216 4.1748 33.8575 4.35221 33.9298C4.52963 34.0022 4.69066 34.1095 4.82569 34.2454C4.96073 34.3814 5.06701 34.5431 5.13819 34.721L7.82259 40.9814C8.53541 42.6517 9.56288 44.1692 10.849 45.4514L16.3306 50.9342C16.4413 51.0488 16.5737 51.1402 16.7201 51.2031C16.8665 51.266 17.024 51.2991 17.1833 51.3005C17.3426 51.3019 17.5007 51.2715 17.6481 51.2112C17.7956 51.1508 17.9296 51.0617 18.0423 50.949C18.1549 50.8364 18.244 50.7024 18.3044 50.5549C18.3647 50.4074 18.3951 50.2494 18.3937 50.0901C18.3923 49.9308 18.3592 49.7733 18.2963 49.6269C18.2334 49.4805 18.142 49.3481 18.0274 49.2374L12.5458 43.7546C11.9946 43.2047 11.499 42.6018 11.0662 41.9546C11.6258 41.524 12.3149 41.2959 13.0209 41.3077C13.7269 41.3194 14.408 41.5703 14.953 42.0194C17.1962 44.078 19.7889 45.7198 22.609 46.8674C23.758 47.2852 24.7607 48.0282 25.495 49.0058Z" fill="#FEBE09"/>
<path d="M26.4 63.6002H25.2C24.8817 63.6002 24.5765 63.7266 24.3515 63.9517C24.1264 64.1767 24 64.4819 24 64.8002C24 65.1185 24.1264 65.4237 24.3515 65.6487C24.5765 65.8738 24.8817 66.0002 25.2 66.0002H26.4C26.7183 66.0002 27.0235 65.8738 27.2485 65.6487C27.4736 65.4237 27.6 65.1185 27.6 64.8002C27.6 64.4819 27.4736 64.1767 27.2485 63.9517C27.0235 63.7266 26.7183 63.6002 26.4 63.6002ZM66.9504 47.2106L71.6532 36.8654C71.8657 36.4044 71.9843 35.9058 72.0021 35.3985C72.0199 34.8913 71.9367 34.3856 71.7571 33.9108C71.5776 33.4361 71.3054 33.0018 70.9563 32.6333C70.6073 32.2648 70.1884 31.9694 69.7241 31.7644C69.2597 31.5594 68.7593 31.4488 68.2518 31.4392C67.7443 31.4295 67.24 31.5209 66.7682 31.7081C66.2964 31.8952 65.8666 32.1744 65.5037 32.5293C65.1409 32.8843 64.8523 33.3078 64.6548 33.7754L62.0652 39.8174C61.0762 39.1676 59.9049 38.852 58.7233 38.9168C57.5418 38.9816 56.412 39.4234 55.5 40.1774C53.4818 42.0327 51.1574 43.5243 48.63 44.5862C47.0408 45.1477 45.6505 46.1617 44.6304 47.5034C42.8897 49.7518 41.9624 52.5238 42 55.367V57.6002C41.3635 57.6002 40.753 57.853 40.3029 58.3031C39.8529 58.7532 39.6 59.3637 39.6 60.0002V69.6002C39.6 70.2367 39.8529 70.8472 40.3029 71.2973C40.753 71.7473 41.3635 72.0002 42 72.0002H55.2C55.8365 72.0002 56.447 71.7473 56.8971 71.2973C57.3471 70.8472 57.6 70.2367 57.6 69.6002V60.0002C57.5987 59.3933 57.3661 58.8097 56.9496 58.3682L64.3452 50.9714C65.4333 49.8852 66.3159 48.6111 66.9504 47.2106ZM55.2 69.6002H42V60.0002H55.2V69.6002ZM54.3228 57.6002H44.4V55.367C44.3638 53.0704 45.1051 50.829 46.5036 49.007C47.2362 48.03 48.2367 47.2868 49.3836 46.8674C52.2043 45.7201 54.7974 44.0784 57.0408 42.0194C57.5851 41.567 58.267 41.3131 58.9746 41.2994C59.6821 41.2856 60.3734 41.5129 60.9348 41.9438C60.5007 42.5958 60.0027 43.2028 59.448 43.7558L53.9664 49.2386C53.7478 49.4649 53.6269 49.768 53.6296 50.0827C53.6323 50.3973 53.7585 50.6983 53.981 50.9208C54.2035 51.1433 54.5045 51.2695 54.8191 51.2722C55.1338 51.2749 55.4369 51.154 55.6632 50.9354L61.1448 45.4526C62.4309 44.1704 63.4584 42.6529 64.1712 40.9826L66.8556 34.721C66.9572 34.4828 67.1218 34.2768 67.3317 34.1252C67.5417 33.9736 67.7889 33.8821 68.047 33.8605C68.305 33.8389 68.5641 33.888 68.7963 34.0026C69.0285 34.1173 69.225 34.293 69.3648 34.511C69.6288 34.919 69.6648 35.4326 69.4644 35.8742L64.7616 46.2194C64.2454 47.3574 63.5278 48.3928 62.6436 49.2758L54.3228 57.6002Z" fill="#FEBE09"/>
<path d="M46.7977 63.6001H45.5977C45.2794 63.6001 44.9742 63.7265 44.7491 63.9515C44.5241 64.1766 44.3977 64.4818 44.3977 64.8001C44.3977 65.1183 44.5241 65.4235 44.7491 65.6486C44.9742 65.8736 45.2794 66.0001 45.5977 66.0001H46.7977C47.1159 66.0001 47.4211 65.8736 47.6462 65.6486C47.8712 65.4235 47.9977 65.1183 47.9977 64.8001C47.9977 64.4818 47.8712 64.1766 47.6462 63.9515C47.4211 63.7265 47.1159 63.6001 46.7977 63.6001ZM29.5177 25.4401C29.2631 25.2491 28.943 25.1671 28.628 25.2121C28.3129 25.2571 28.0286 25.4254 27.8377 25.6801C27.6467 25.9347 27.5647 26.2547 27.6097 26.5698C27.6547 26.8848 27.8231 27.1691 28.0777 27.3601L32.8777 30.9601C33.0082 31.058 33.1573 31.1283 33.3159 31.1666C33.4745 31.2049 33.6393 31.2105 33.8001 31.183C33.961 31.1554 34.1145 31.0954 34.2514 31.0065C34.3882 30.9177 34.5055 30.8018 34.5961 30.6661L44.1961 16.2661C44.3727 16.0013 44.4369 15.6771 44.3746 15.365C44.3122 15.0529 44.1285 14.7783 43.8637 14.6017C43.5989 14.425 43.2748 14.3608 42.9626 14.4231C42.6505 14.4855 42.3759 14.6693 42.1993 14.9341L33.3025 28.2793L29.5177 25.4401Z" fill="#FEBE09"/>
</g>
<defs>
<clipPath id="clip0_7073_1071">
<rect width="72" height="72" fill="white"/>
</clipPath>
</defs>
</svg>
