<svg width="72" height="72" viewBox="0 0 72 72" fill="none" xmlns="http://www.w3.org/2000/svg">
<g clip-path="url(#clip0_7221_619)">
<path d="M70.8711 1.05444V28.4587H64.0508V1.05444L70.8711 1.05444Z" stroke="#FEBE09" stroke-width="2" stroke-miterlimit="10"/>
<path d="M7.94922 43.541L7.94922 70.9453H1.12891L1.12891 43.541H7.94922Z" stroke="#FEBE09" stroke-width="2" stroke-miterlimit="10"/>
<path d="M30.5461 18.2313C30.5461 18.2313 29.2097 16.9987 27.1498 17.6193C25.2584 18.1891 24.7888 20.777 26.0741 21.7852C26.8121 22.364 27.9226 22.84 29.4191 23.369C32.7688 24.5531 31.5305 29.2768 28.1232 29.2996M28.1232 29.2996C26.7936 29.3085 26.1719 29.2241 25.0039 28.4599M28.1232 29.2996V31.7268M28.1232 15.147V17.4489" stroke="#FEBE09" stroke-width="2" stroke-miterlimit="10" stroke-linejoin="round"/>
<path d="M15.8442 26.1942C15.6434 25.2888 15.5424 24.3641 15.543 23.4367C15.543 16.4468 21.2093 10.7804 28.1992 10.7804C33.0048 10.7804 37.1847 13.4586 39.3279 17.404M40.8432 23.9988C40.5492 30.7278 35.0008 36.0931 28.1992 36.0931C22.906 36.0931 18.3715 32.8435 16.4823 28.2304M52.801 3.59618L36.9288 3.625L28.8029 10.744M64.051 3.60799H61.4418V3.58057L54.9104 3.59238" stroke="#FEBE09" stroke-width="2" stroke-miterlimit="10"/>
<path d="M46.7021 14.4731L33.6792 19.9578L35.2594 23.363C35.8868 24.715 37.4599 25.3428 38.8457 24.7942L45.0897 22.3226C47.7734 24.9771 51.8739 25.946 55.6037 24.4575L61.4406 21.8991L64.0497 21.8801M28.6283 53.8604L25.4061 55.1548M52.9115 59.349L59.4843 53.9741C60.8404 53.0514 61.2267 51.2231 60.3602 49.8303C59.4915 48.4345 57.6749 47.9752 56.2473 48.7906L40.8643 58.1431L28.6284 53.8604L40.6727 48.7561L39.623 45.8508C38.8216 43.8428 36.5442 42.8648 34.5362 43.6661L27.6924 46.1987C25.0087 43.5441 20.7209 41.7988 16.9911 43.2875C14.8306 44.1498 13.0948 45.6965 12.0359 47.5781H7.94922V65.8861H15.4111L41.4775 68.6986L51.2596 60.6994" stroke="#FEBE09" stroke-width="2" stroke-miterlimit="10"/>
<path d="M51.2124 51.8517L52.0645 49.1218C52.6886 47.605 52.005 45.8659 50.5149 45.1801C49.0215 44.4928 47.2519 45.1092 46.5087 46.5756L41.1094 57.9941" stroke="#FEBE09" stroke-width="2" stroke-miterlimit="10"/>
</g>
<defs>
<clipPath id="clip0_7221_619">
<rect width="72" height="72" fill="white"/>
</clipPath>
</defs>
</svg>
