<svg width="72" height="72" viewBox="0 0 72 72" fill="none" xmlns="http://www.w3.org/2000/svg">
<path d="M36.0015 67.5384C30.0983 67.5273 24.3167 65.8596 19.3145 62.725C14.3122 59.5904 10.2902 55.1148 7.70595 49.8073C5.1217 44.4998 4.07899 38.5735 4.69644 32.7026C5.3139 26.8318 7.56673 21.2521 11.1986 16.5984C11.2885 16.4787 11.4013 16.3782 11.5304 16.3027C11.6596 16.2272 11.8025 16.1782 11.9508 16.1586C12.0991 16.139 12.2498 16.1492 12.3941 16.1885C12.5385 16.2279 12.6735 16.2956 12.7914 16.3878C12.9092 16.48 13.0075 16.5947 13.0804 16.7253C13.1534 16.856 13.1995 16.9998 13.2162 17.1485C13.2329 17.2971 13.2197 17.4476 13.1776 17.5912C13.1354 17.7347 13.065 17.8684 12.9705 17.9844C8.4404 23.7773 6.25927 31.0644 6.86176 38.3936C7.46425 45.7228 10.8061 52.5559 16.2214 57.5313C21.6367 62.5067 28.7278 65.2591 36.0817 65.2399C43.4356 65.2208 50.5123 62.4315 55.9016 57.428C56.1149 57.2296 56.3968 57.1217 56.6881 57.127C56.9793 57.1322 57.2571 57.2502 57.4631 57.4561L58.2776 58.2706L58.7985 54.593C58.7985 54.5739 58.7985 54.5548 58.8053 54.5379L59.3351 50.8479L51.9101 51.9054L52.6695 52.6647C52.7772 52.7724 52.8619 52.9007 52.9185 53.042C52.9751 53.1833 53.0025 53.3347 52.9989 53.4869C52.9953 53.6391 52.9609 53.789 52.8977 53.9275C52.8345 54.066 52.7439 54.1902 52.6313 54.2926C48.0617 58.4553 42.0987 60.7556 35.9174 60.7402C29.7361 60.7248 23.7847 58.3948 19.2359 54.2094C14.6871 50.024 11.8709 44.2867 11.3422 38.128C10.8134 31.9693 12.6105 25.8359 16.3793 20.9364C16.4753 20.8239 16.5925 20.7314 16.7243 20.6642C16.8561 20.597 16.9998 20.5564 17.1472 20.5448C17.2947 20.5331 17.443 20.5506 17.5837 20.5963C17.7244 20.642 17.8547 20.7149 17.9672 20.8109C18.0797 20.907 18.1722 21.0242 18.2394 21.156C18.3066 21.2878 18.3471 21.4315 18.3588 21.5789C18.3704 21.7264 18.3529 21.8747 18.3073 22.0154C18.2616 22.1561 18.1887 22.2864 18.0926 22.3989C14.7573 26.7813 13.1469 32.2357 13.5672 37.7269C13.9874 43.2181 16.409 48.3639 20.3723 52.1878C24.3356 56.0117 29.5649 58.2474 35.0676 58.4708C40.5703 58.6941 45.9636 56.8895 50.2238 53.3994L48.7286 51.9043C48.5799 51.7566 48.4754 51.5704 48.4269 51.3665C48.3783 51.1627 48.3877 50.9493 48.4539 50.7505C48.5201 50.5517 48.6405 50.3753 48.8015 50.2413C48.9626 50.1072 49.1579 50.0208 49.3654 49.9917L60.5029 48.4055C60.6758 48.3808 60.8521 48.3968 61.0178 48.4521C61.1835 48.5074 61.334 48.6005 61.4575 48.7241C61.581 48.8477 61.674 48.9983 61.7291 49.164C61.7843 49.3298 61.8001 49.5061 61.7753 49.679L61.0384 54.8113V54.863L60.1946 60.8143C60.1658 61.0219 60.0795 61.2173 59.9455 61.3785C59.8115 61.5397 59.6351 61.6602 59.4363 61.7266C59.2374 61.7929 59.024 61.8023 58.8201 61.7538C58.6162 61.7054 58.4298 61.6009 58.2821 61.4521L56.6284 59.7984C50.9142 64.7866 43.5866 67.5362 36.0015 67.5384Z" fill="#FEBE09"/>
<path d="M59.9163 55.8338C59.7056 55.8336 59.4991 55.7743 59.3204 55.6624C59.1417 55.5506 58.998 55.3909 58.9058 55.2014C58.8135 55.0119 58.7763 54.8002 58.7984 54.5906C58.8205 54.381 58.9011 54.1818 59.031 54.0158C63.5611 48.2228 65.7422 40.9357 65.1397 33.6065C64.5372 26.2773 61.1954 19.4442 55.7801 14.4688C50.3648 9.49343 43.2736 6.74108 35.9197 6.76023C28.5659 6.77938 21.4892 9.56863 16.0998 14.5722C15.8866 14.7705 15.6047 14.8784 15.3134 14.8732C15.0222 14.868 14.7444 14.75 14.5383 14.544L13.725 13.725L12.6675 21.15L20.0846 20.0858L19.3331 19.3377C19.225 19.2301 19.1399 19.1016 19.083 18.9602C19.0261 18.8187 18.9985 18.6671 19.002 18.5146C19.0054 18.3622 19.0399 18.212 19.1032 18.0733C19.1665 17.9345 19.2573 17.8101 19.3702 17.7075C23.9387 13.5462 29.8999 11.2465 36.0795 11.2614C42.2591 11.2764 48.2091 13.605 52.7573 17.7885C57.3055 21.972 60.1222 27.7071 60.6524 33.8639C61.1827 40.0208 59.3881 46.153 55.6222 51.0525C55.5323 51.1704 55.42 51.2693 55.2918 51.3436C55.1636 51.4179 55.0219 51.4662 54.875 51.4856C54.728 51.505 54.5787 51.4951 54.4355 51.4566C54.2924 51.4181 54.1583 51.3517 54.0409 51.2613C53.9235 51.1708 53.8252 51.058 53.7515 50.9294C53.6778 50.8007 53.6303 50.6588 53.6117 50.5118C53.593 50.3648 53.6036 50.2155 53.6428 50.0725C53.6821 49.9296 53.7491 49.7958 53.8402 49.6789C57.2032 45.3058 58.8402 39.8486 58.4396 34.3465C58.039 28.8444 55.6286 23.6819 51.6677 19.8421C47.7067 16.0023 42.4718 13.7535 36.9599 13.5239C31.448 13.2944 26.0442 15.1002 21.7777 18.5974L23.2695 20.0813C23.4181 20.2288 23.5227 20.4148 23.5713 20.6185C23.62 20.8222 23.6108 21.0354 23.5449 21.2342C23.479 21.4329 23.3588 21.6093 23.1981 21.7435C23.0373 21.8777 22.8423 21.9644 22.635 21.9938L11.4975 23.5913C11.3246 23.6157 11.1485 23.5996 10.9829 23.5443C10.8174 23.4889 10.667 23.3957 10.5436 23.2722C10.4203 23.1486 10.3274 22.9981 10.2723 22.8324C10.2172 22.6668 10.2015 22.4906 10.2262 22.3178L11.8125 11.1803C11.8413 10.9727 11.9276 10.7772 12.0616 10.616C12.1956 10.4548 12.372 10.3343 12.5708 10.268C12.7697 10.2017 12.9831 10.1922 13.187 10.2407C13.3909 10.2892 13.5773 10.3937 13.725 10.5424L15.3787 12.1962C21.2942 7.07406 28.9046 4.33764 36.7274 4.52004C44.5501 4.70244 52.0247 7.7906 57.695 13.1828C63.3653 18.5751 66.8251 25.8852 67.4002 33.6889C67.9753 41.4926 65.6247 49.2309 60.8062 55.3962C60.7012 55.5322 60.5664 55.6424 60.4121 55.7183C60.2578 55.7942 60.0882 55.8337 59.9163 55.8338Z" fill="#FEBE09"/>
<path d="M49.5031 51.75H22.5031C22.2047 51.75 21.9186 51.6315 21.7076 51.4205C21.4966 51.2095 21.3781 50.9234 21.3781 50.625V32.625H18.0031C17.7708 32.6249 17.5442 32.5528 17.3545 32.4187C17.1648 32.2846 17.0213 32.0951 16.9436 31.8761C16.866 31.6572 16.858 31.4196 16.9208 31.1959C16.9836 30.9723 17.1141 30.7736 17.2943 30.627L35.2943 16.002C35.4948 15.8392 35.7453 15.7502 36.0036 15.7502C36.262 15.7502 36.5124 15.8392 36.713 16.002L54.713 30.627C54.8933 30.7736 55.0238 30.9724 55.0866 31.1962C55.1493 31.42 55.1413 31.6577 55.0635 31.8767C54.9857 32.0957 54.8419 32.2852 54.6521 32.4192C54.4622 32.5532 54.2355 32.6251 54.0031 32.625H50.6281V50.625C50.6281 50.9234 50.5096 51.2095 50.2986 51.4205C50.0876 51.6315 49.8015 51.75 49.5031 51.75ZM23.6281 49.5H48.3781V31.5C48.3781 31.2017 48.4966 30.9155 48.7076 30.7045C48.9186 30.4936 49.2047 30.375 49.5031 30.375H50.8351L36.0031 18.3252L21.1711 30.375H22.5031C22.8015 30.375 23.0876 30.4936 23.2986 30.7045C23.5096 30.9155 23.6281 31.2017 23.6281 31.5V49.5Z" fill="#FEBE09"/>
<path d="M30.375 42.75C30.1525 42.75 29.9351 42.6839 29.7501 42.5603C29.5652 42.4367 29.421 42.261 29.3359 42.0555C29.2507 41.85 29.2285 41.6238 29.2718 41.4056C29.3152 41.1874 29.4223 40.987 29.5796 40.8296L40.8296 29.5796C41.0418 29.3747 41.326 29.2613 41.621 29.2639C41.9159 29.2664 42.1981 29.3847 42.4067 29.5933C42.6153 29.8019 42.7336 30.0841 42.7361 30.3791C42.7387 30.674 42.6253 30.9582 42.4204 31.1704L31.1704 42.4204C30.9594 42.6314 30.6733 42.7499 30.375 42.75ZM31.5 34.875C30.8325 34.875 30.18 34.6771 29.625 34.3062C29.0699 33.9354 28.6374 33.4083 28.3819 32.7916C28.1265 32.1749 28.0596 31.4963 28.1899 30.8416C28.3201 30.1869 28.6415 29.5855 29.1135 29.1135C29.5855 28.6415 30.1869 28.3201 30.8416 28.1899C31.4963 28.0596 32.1749 28.1265 32.7916 28.3819C33.4083 28.6374 33.9354 29.0699 34.3062 29.625C34.6771 30.18 34.875 30.8325 34.875 31.5C34.875 32.3951 34.5194 33.2536 33.8865 33.8865C33.2536 34.5194 32.3951 34.875 31.5 34.875ZM31.5 30.375C31.2775 30.375 31.06 30.441 30.875 30.5646C30.69 30.6882 30.5458 30.8639 30.4606 31.0695C30.3755 31.2751 30.3532 31.5013 30.3966 31.7195C30.44 31.9377 30.5472 32.1382 30.7045 32.2955C30.8618 32.4528 31.0623 32.56 31.2805 32.6034C31.4988 32.6468 31.725 32.6245 31.9305 32.5394C32.1361 32.4542 32.3118 32.31 32.4354 32.125C32.559 31.94 32.625 31.7225 32.625 31.5C32.625 31.2016 32.5065 30.9155 32.2955 30.7045C32.0845 30.4935 31.7984 30.375 31.5 30.375ZM40.5 43.875C39.8325 43.875 39.18 43.6771 38.625 43.3062C38.0699 42.9354 37.6374 42.4083 37.3819 41.7916C37.1265 41.1749 37.0596 40.4963 37.1899 39.8416C37.3201 39.1869 37.6415 38.5855 38.1135 38.1135C38.5855 37.6415 39.1869 37.3201 39.8416 37.1899C40.4963 37.0596 41.1749 37.1265 41.7916 37.3819C42.4083 37.6374 42.9354 38.0699 43.3062 38.625C43.6771 39.18 43.875 39.8325 43.875 40.5C43.875 41.3951 43.5194 42.2536 42.8865 42.8865C42.2536 43.5194 41.3951 43.875 40.5 43.875ZM40.5 39.375C40.2775 39.375 40.06 39.441 39.875 39.5646C39.69 39.6882 39.5458 39.8639 39.4606 40.0695C39.3755 40.2751 39.3532 40.5013 39.3966 40.7195C39.44 40.9377 39.5472 41.1382 39.7045 41.2955C39.8618 41.4528 40.0623 41.56 40.2805 41.6034C40.4988 41.6468 40.725 41.6245 40.9305 41.5394C41.1361 41.4542 41.3118 41.31 41.4354 41.125C41.559 40.94 41.625 40.7225 41.625 40.5C41.625 40.2016 41.5065 39.9155 41.2955 39.7045C41.0845 39.4935 40.7984 39.375 40.5 39.375Z" fill="#FEBE09"/>
</svg>
