<svg width="64" height="68" viewBox="0 0 64 68" fill="none" xmlns="http://www.w3.org/2000/svg">
<path d="M25.25 25C25.2509 25.8948 25.6068 26.7528 26.2395 27.3855C26.8723 28.0182 27.7302 28.3741 28.625 28.375C30.019 28.375 31.3634 28.8925 32.3974 29.8274C33.4315 30.7622 34.0816 32.0477 34.2217 33.4346C34.3618 34.8216 33.9819 36.2111 33.1557 37.3339C32.3295 38.4566 31.1159 39.2326 29.75 39.5114V41.875C29.75 42.1734 29.6315 42.4595 29.4205 42.6705C29.2096 42.8815 28.9234 43 28.625 43C28.3267 43 28.0405 42.8815 27.8295 42.6705C27.6186 42.4595 27.5 42.1734 27.5 41.875V39.5114C26.2305 39.2505 25.0897 38.5599 24.27 37.5559C23.4502 36.552 23.0017 35.2961 23 34C23 33.7016 23.1186 33.4155 23.3295 33.2045C23.5405 32.9935 23.8267 32.875 24.125 32.875C24.4234 32.875 24.7096 32.9935 24.9205 33.2045C25.1315 33.4155 25.25 33.7016 25.25 34C25.25 34.6675 25.448 35.32 25.8188 35.875C26.1897 36.4301 26.7168 36.8626 27.3335 37.1181C27.9502 37.3735 28.6288 37.4404 29.2835 37.3102C29.9382 37.1799 30.5395 36.8585 31.0115 36.3865C31.4835 35.9145 31.805 35.3131 31.9352 34.6584C32.0654 34.0037 31.9986 33.3251 31.7431 32.7084C31.4877 32.0917 31.0551 31.5646 30.5001 31.1938C29.9451 30.8229 29.2926 30.625 28.625 30.625C27.2311 30.625 25.8867 30.1075 24.8527 29.1726C23.8186 28.2378 23.1685 26.9523 23.0284 25.5654C22.8883 24.1784 23.2682 22.7889 24.0944 21.6661C24.9206 20.5434 26.1342 19.7674 27.5 19.4886V17.125C27.5 16.8266 27.6186 16.5405 27.8295 16.3295C28.0405 16.1185 28.3267 16 28.625 16C28.9234 16 29.2096 16.1185 29.4205 16.3295C29.6315 16.5405 29.75 16.8266 29.75 17.125V19.4886C31.0196 19.7495 32.1604 20.4401 32.9801 21.4441C33.7999 22.448 34.2484 23.7039 34.25 25C34.25 25.2984 34.1315 25.5845 33.9205 25.7955C33.7096 26.0065 33.4234 26.125 33.125 26.125C32.8267 26.125 32.5405 26.0065 32.3295 25.7955C32.1186 25.5845 32 25.2984 32 25C32 24.1049 31.6445 23.2464 31.0115 22.6135C30.3786 21.9806 29.5202 21.625 28.625 21.625C27.7299 21.625 26.8715 21.9806 26.2386 22.6135C25.6056 23.2464 25.25 24.1049 25.25 25ZM16.25 54.25H5.00005C4.70168 54.25 4.41553 54.1315 4.20455 53.9205C3.99357 53.7095 3.87505 53.4234 3.87505 53.125V48.625C3.87505 48.3266 3.99357 48.0405 4.20455 47.8295C4.41553 47.6185 4.70168 47.5 5.00005 47.5H7.25005V25.153L5.4793 26.5379C5.36324 26.6293 5.23026 26.6969 5.08801 26.7367C4.94576 26.7766 4.79703 26.788 4.65037 26.7702C4.50371 26.7525 4.362 26.7059 4.23339 26.6332C4.10477 26.5605 3.99179 26.4631 3.90092 26.3466L0.739671 22.3191C0.648513 22.2029 0.581149 22.0698 0.541426 21.9275C0.501703 21.7852 0.490398 21.6364 0.508157 21.4898C0.525917 21.3431 0.572392 21.2014 0.64493 21.0726C0.717468 20.9439 0.814648 20.8308 0.930921 20.7396L25.9217 1.18262C26.7014 0.596295 27.6506 0.279246 28.6262 0.279246C29.6018 0.279246 30.5509 0.596295 31.3307 1.18262L38.75 6.98988V1.375C38.75 1.07663 38.8686 0.790483 39.0796 0.579505C39.2905 0.368526 39.5767 0.25 39.875 0.25H48.875C49.1734 0.25 49.4596 0.368526 49.6705 0.579505C49.8815 0.790483 50 1.07663 50 1.375V15.7952L56.318 20.7396C56.4343 20.8308 56.5315 20.9439 56.604 21.0726C56.6766 21.2014 56.7231 21.3431 56.7408 21.4898C56.7586 21.6364 56.7473 21.7852 56.7075 21.9275C56.6678 22.0698 56.6005 22.2029 56.5093 22.3191L53.348 26.3466C53.1642 26.581 52.8948 26.7329 52.599 26.7687C52.3033 26.8046 52.0054 26.7216 51.7708 26.5379L50 25.153V32.875C50 33.1734 49.8815 33.4595 49.6705 33.6705C49.4596 33.8815 49.1734 34 48.875 34C48.5767 34 48.2905 33.8815 48.0796 33.6705C47.8686 33.4595 47.75 33.1734 47.75 32.875V23.3924L28.625 8.42875L9.50005 23.3913V47.5H20.75C21.0484 47.5 21.3346 47.6185 21.5455 47.8295C21.7565 48.0405 21.875 48.3266 21.875 48.625C21.875 48.9234 21.7565 49.2095 21.5455 49.4205C21.3346 49.6315 21.0484 49.75 20.75 49.75H6.12505V52H16.25C16.5484 52 16.8346 52.1185 17.0455 52.3295C17.2565 52.5405 17.375 52.8266 17.375 53.125C17.375 53.4234 17.2565 53.7095 17.0455 53.9205C16.8346 54.1315 16.5484 54.25 16.25 54.25ZM41 8.75163L47.75 14.0335V2.5H41V8.75163ZM27.932 6.11462C28.1297 5.95953 28.3738 5.87523 28.625 5.87523C28.8763 5.87523 29.1203 5.95953 29.318 6.11462L52.2725 24.0741L54.0444 21.8162L29.9424 2.95337C29.562 2.66908 29.0999 2.51547 28.625 2.51547C28.1502 2.51547 27.688 2.66908 27.3077 2.95337L3.20567 21.8162L4.97755 24.0741L27.932 6.11462ZM60.125 36.25H46.625C46.3267 36.25 46.0405 36.3685 45.8296 36.5795C45.6186 36.7905 45.5 37.0766 45.5 37.375V41.875C45.5 42.1734 45.6186 42.4595 45.8296 42.6705C46.0405 42.8815 46.3267 43 46.625 43H51.7843L42.125 52.6592L35.978 46.5111C34.9222 45.4576 33.4916 44.8659 32 44.8659C30.5085 44.8659 29.0779 45.4576 28.022 46.5111L12.0797 62.4546C11.8747 62.6668 11.7613 62.951 11.7639 63.246C11.7665 63.5409 11.8848 63.8231 12.0934 64.0317C12.302 64.2403 12.5841 64.3586 12.8791 64.3611C13.1741 64.3637 13.4582 64.2503 13.6704 64.0454L29.6128 48.1019C30.2468 47.4704 31.1052 47.1158 32 47.1158C32.8949 47.1158 33.7533 47.4704 34.3873 48.1019L41.3297 55.0454C41.5406 55.2563 41.8267 55.3748 42.125 55.3748C42.4234 55.3748 42.7095 55.2563 42.9204 55.0454L55.2954 42.6704C55.4527 42.513 55.5598 42.3126 55.6032 42.0944C55.6466 41.8762 55.6243 41.65 55.5392 41.4445C55.4541 41.239 55.3099 41.0633 55.1249 40.9397C54.94 40.8161 54.7225 40.75 54.5 40.75H47.75V38.5H60.125C60.4233 38.5003 60.7093 38.6189 60.9202 38.8298C61.1311 39.0407 61.2497 39.3267 61.25 39.625V52H59V45.25C59 45.0275 58.934 44.8101 58.8104 44.6251C58.6868 44.4401 58.5111 44.296 58.3055 44.2109C58.1 44.1257 57.8738 44.1035 57.6556 44.1468C57.4374 44.1902 57.237 44.2973 57.0797 44.4546L44.5123 57.0231C43.8783 57.6546 43.0199 58.0092 42.125 58.0092C41.2302 58.0092 40.3718 57.6546 39.7378 57.0231L32.7954 50.0796C32.5845 49.8687 32.2984 49.7502 32 49.7502C31.7017 49.7502 31.4156 49.8687 31.2047 50.0796L15.4547 65.8296C15.3472 65.9334 15.2615 66.0575 15.2026 66.1948C15.1436 66.332 15.1126 66.4797 15.1113 66.629C15.11 66.7784 15.1384 66.9266 15.195 67.0648C15.2516 67.2031 15.3351 67.3287 15.4407 67.4343C15.5464 67.5399 15.672 67.6235 15.8102 67.68C15.9485 67.7366 16.0966 67.7651 16.246 67.7638C16.3954 67.7625 16.543 67.7315 16.6803 67.6725C16.8175 67.6135 16.9416 67.5278 17.0454 67.4204L32 52.4658L38.147 58.6139C39.2029 59.6674 40.6335 60.2591 42.125 60.2591C43.6166 60.2591 45.0472 59.6674 46.103 58.6139L56.75 47.9658V53.125C56.75 53.4234 56.8686 53.7095 57.0796 53.9205C57.2905 54.1315 57.5767 54.25 57.875 54.25H62.375C62.6734 54.25 62.9596 54.1315 63.1705 53.9205C63.3815 53.7095 63.5 53.4234 63.5 53.125V39.625C63.4992 38.7302 63.1433 37.8722 62.5105 37.2395C61.8778 36.6068 61.0199 36.2509 60.125 36.25Z" fill="#FEBE09"/>
</svg>
