<svg width="70" height="65" viewBox="0 0 70 65"  xmlns="http://www.w3.org/2000/svg">
<path d="M64.3178 23.3338C69.1906 18.461 69.2042 10.5571 64.3178 5.67069C59.4381 0.791085 51.5343 0.791085 46.6547 5.67069C41.7818 10.5503 41.7818 18.4542 46.6547 23.3338C51.5343 28.2066 59.4381 28.2066 64.3178 23.3338ZM49.509 8.52507C52.8051 5.22897 58.1673 5.22897 61.4634 8.52507C64.7595 11.8212 64.7595 17.1833 61.4634 20.4795C58.1673 23.7756 52.8051 23.7756 49.509 20.4795C46.2128 17.1833 46.2128 11.8212 49.509 8.52507Z" />
<path d="M55.487 18.0518C54.6952 18.0518 54.0514 17.408 54.0514 16.6162C54.0514 16.2406 53.7475 15.9366 53.3718 15.9366C52.9962 15.9366 52.6922 16.2406 52.6922 16.6162C52.6922 17.9217 53.5955 19.0121 54.8074 19.3177V20.0674C54.8074 20.443 55.1113 20.747 55.487 20.747C55.8626 20.747 56.1666 20.443 56.1666 20.0674V19.3178C57.379 19.0122 58.2824 17.9217 58.2824 16.6162C58.2824 15.0752 57.0287 13.8215 55.487 13.8215C54.6952 13.8215 54.0514 13.177 54.0514 12.3853C54.0514 11.5935 54.6952 10.9497 55.487 10.9497C56.2788 10.9497 56.9232 11.5935 56.9232 12.3853C56.9232 12.7609 57.2272 13.0649 57.6028 13.0649C57.9785 13.0649 58.2824 12.7609 58.2824 12.3853C58.2824 11.0798 57.379 9.98928 56.1666 9.68369V8.93411C56.1666 8.55846 55.8626 8.25449 55.487 8.25449C55.1113 8.25449 54.8074 8.55846 54.8074 8.93411V9.68378C53.5955 9.9894 52.6922 11.0798 52.6922 12.3853C52.6922 13.927 53.9459 15.1807 55.487 15.1807C56.2788 15.1807 56.9232 15.8245 56.9232 16.6162C56.9232 17.408 56.2788 18.0518 55.487 18.0518Z" />
<path fill-rule="evenodd" clip-rule="evenodd" d="M41.3192 17.5379L35.8287 12.964C35.0357 12.3213 34.0927 12 33.0009 12C31.9092 12 30.9664 12.3213 30.1725 12.964L3.41354 35.1751C3.16549 35.3725 3.02953 35.6382 3.00424 35.972C2.97909 36.3055 3.06577 36.5968 3.26455 36.8438L5.57189 39.5878C5.77067 39.8101 6.03085 39.9461 6.35347 39.9958C6.65132 40.0208 6.94917 39.934 7.24702 39.7363L33.0001 18.3408L58.7534 39.7362C58.9524 39.9087 59.2124 39.9948 59.535 39.9948H59.6469C59.969 39.946 60.2286 39.8091 60.4284 39.5872L62.736 36.8437C62.9344 36.5961 63.0214 36.3054 62.9956 35.9714C62.9701 35.6386 62.8337 35.3729 62.5861 35.1751L55.123 28.9952C51.5381 28.9033 47.9808 27.4906 45.2433 24.7568C43.1903 22.701 41.8822 20.1828 41.3192 17.5379ZM32.9996 22L12.0368 39.5901C12.0368 39.6149 12.0306 39.6515 12.0184 39.7012C12.0064 39.7506 12 39.7865 12 39.812V57.6238C12 58.2669 12.231 58.8243 12.6929 59.2936C13.1546 59.7632 13.7014 59.9995 14.3334 59.9995H28.3326V45.7496H37.6668V60H51.6659C52.2977 60 52.8453 59.7642 53.3064 59.2936C53.7682 58.8248 54 58.2671 54 57.6238V39.812C54 39.7132 53.9867 39.6386 53.9632 39.5901L32.9996 22ZM17 41H23V47H17V41ZM49 41H43V47H49V41ZM30 34C30 32.3431 31.3431 31 33 31C34.6569 31 36 32.3431 36 34C36 35.6569 34.6569 37 33 37C31.3431 37 30 35.6569 30 34Z" />
</svg>
