<svg width="72" height="72" viewBox="0 0 72 72" fill="none" xmlns="http://www.w3.org/2000/svg">
<path d="M28.125 36H23.625C23.3266 36 23.0405 36.1185 22.8295 36.3295C22.6185 36.5405 22.5 36.8266 22.5 37.125V45C22.5 45.2984 22.6185 45.5845 22.8295 45.7955C23.0405 46.0065 23.3266 46.125 23.625 46.125H28.125C28.4234 46.125 28.7095 46.0065 28.9205 45.7955C29.1315 45.5845 29.25 45.2984 29.25 45V37.125C29.25 36.8266 29.1315 36.5405 28.9205 36.3295C28.7095 36.1185 28.4234 36 28.125 36ZM27 43.875H24.75V38.25H27V43.875ZM43.875 46.125H48.375C48.6734 46.125 48.9595 46.0065 49.1705 45.7955C49.3815 45.5845 49.5 45.2984 49.5 45V37.125C49.5 36.8266 49.3815 36.5405 49.1705 36.3295C48.9595 36.1185 48.6734 36 48.375 36H43.875C43.5766 36 43.2905 36.1185 43.0795 36.3295C42.8685 36.5405 42.75 36.8266 42.75 37.125V45C42.75 45.2984 42.8685 45.5845 43.0795 45.7955C43.2905 46.0065 43.5766 46.125 43.875 46.125ZM45 38.25H47.25V43.875H45V38.25Z" fill="#FEBE09"/>
<path d="M51.5882 23.4603C52.8056 22.907 53.7854 21.9371 54.3512 20.7254L61.8673 24.6338C62.6634 25.0477 63.5528 25.2496 64.4496 25.22C65.3464 25.1903 66.2205 24.9301 66.9875 24.4644C67.7545 23.9987 68.3887 23.3433 68.8287 22.5613C69.2688 21.7793 69.5 20.8971 69.5 19.9998C69.5 19.7991 69.4463 19.6022 69.3446 19.4293C69.2428 19.2563 69.0967 19.1138 68.9213 19.0164L38.5463 2.14137C38.2935 2.00117 37.9965 1.96351 37.7166 2.03618L13.25 8.41859V7.62476C13.25 7.32639 13.1315 7.04024 12.9205 6.82926C12.7095 6.61829 12.4234 6.49976 12.125 6.49976H3.125C2.82663 6.49976 2.54048 6.61829 2.3295 6.82926C2.11853 7.04024 2 7.32639 2 7.62476V23.3748C2 23.6731 2.11853 23.9593 2.3295 24.1703C2.54048 24.3812 2.82663 24.4998 3.125 24.4998H12.125C12.4234 24.4998 12.7095 24.3812 12.9205 24.1703C13.1315 23.9593 13.25 23.6731 13.25 23.3748V22.2498H20C20.1046 22.2498 20.2088 22.2352 20.3094 22.2064L28.4863 19.8702L12.5469 32.6213C12.4234 32.7201 12.3222 32.8439 12.2498 32.9845C12.1774 33.1251 12.1354 33.2794 12.1267 33.4373C12.118 33.5952 12.1426 33.7532 12.199 33.9009C12.2555 34.0487 12.3424 34.1828 12.4542 34.2947L15.8292 37.6697C16.0219 37.8625 16.2781 37.9788 16.5501 37.9969C16.8221 38.015 17.0914 37.9337 17.308 37.7682L17.7497 37.4306V49.7712C17.5145 50.0834 17.313 50.4196 17.1485 50.7741L9.6327 46.8657C8.83658 46.4518 7.94723 46.2499 7.0504 46.2796C6.15356 46.3092 5.2795 46.5695 4.51248 47.0351C3.74545 47.5008 3.11133 48.1562 2.67126 48.9383C2.23119 49.7202 2.00001 50.6024 2 51.4998C2.00001 51.7004 2.05367 51.8974 2.15541 52.0703C2.25716 52.2432 2.40329 52.3857 2.57867 52.4832L32.9537 69.3582C33.2066 69.4987 33.504 69.5364 33.7841 69.4633L58.25 63.0809V63.8748C58.25 64.1731 58.3685 64.4593 58.5795 64.6703C58.7905 64.8812 59.0766 64.9998 59.375 64.9998H68.375C68.6734 64.9998 68.9595 64.8812 69.1705 64.6703C69.3815 64.4593 69.5 64.1731 69.5 63.8748V48.1248C69.5 47.8264 69.3815 47.5402 69.1705 47.3293C68.9595 47.1183 68.6734 46.9998 68.375 46.9998H59.375C59.0766 46.9998 58.7905 47.1183 58.5795 47.3293C58.3685 47.5402 58.25 47.8264 58.25 48.1248V49.2498H53.75V37.4306L54.1917 37.7682C54.4083 37.9337 54.6776 38.015 54.9496 37.9969C55.2216 37.9788 55.4778 37.8625 55.6705 37.6697L59.0455 34.2947C59.1573 34.1828 59.2443 34.0487 59.3007 33.9009C59.3571 33.7532 59.3818 33.5952 59.373 33.4373C59.3643 33.2794 59.3223 33.1251 59.2499 32.9845C59.1775 32.8439 59.0763 32.7201 58.9528 32.6213L47.9482 23.8181C49.1672 24.1123 50.4497 23.9864 51.5882 23.4608V23.4603ZM11 22.2498H4.25V8.74976H11V22.2498ZM60.5 49.2498H67.25V62.7498H60.5V49.2498ZM58.25 51.4998V60.7556L33.6523 67.1724L4.31511 50.874C4.41168 50.4267 4.61011 50.0077 4.89498 49.6497C5.17985 49.2916 5.54347 49.004 5.95758 48.8093C6.37168 48.6147 6.8251 48.5181 7.28259 48.5273C7.74008 48.5364 8.18929 48.6509 8.59531 48.8619L30.731 60.3732C30.9958 60.5109 31.3044 60.5377 31.589 60.4478C31.8736 60.3579 32.1108 60.1586 32.2484 59.8938C32.3861 59.629 32.4129 59.3204 32.323 59.0358C32.2331 58.7512 32.0338 58.514 31.769 58.3763L19.1478 51.8135C19.4809 51.0455 20.0877 50.4289 20.8504 50.0838C21.3071 49.8701 21.8068 49.7638 22.311 49.773C22.8152 49.7821 23.3106 49.9066 23.7593 50.1368L35.2468 55.8805C35.4986 56.0064 35.7884 56.0334 36.0591 55.956L51.6576 51.4998H58.25ZM35.8406 32.3757C35.8255 32.3757 35.8102 32.3748 35.795 32.3748H35.75C35.7351 32.3748 35.7202 32.375 35.7053 32.3756C34.5161 32.4005 33.3839 32.89 32.5512 33.7393C31.7185 34.5887 31.2514 35.7303 31.25 36.9198V51.367L24.7656 48.1248C24.0295 47.7541 23.2205 47.5508 22.3966 47.5296C21.5727 47.5083 20.7543 47.6695 20 48.0017V35.7101L35.75 23.666L51.5 35.7101V49.2498C51.3954 49.2498 51.2912 49.2643 51.1906 49.2931L40.25 52.419V36.9198C40.2543 35.7364 39.7953 34.5984 38.9713 33.7492C38.1472 32.9 37.0235 32.407 35.8406 32.3757ZM38 36.9198V53.062L35.8617 53.6728L33.5 52.492V36.9198C33.5007 36.3152 33.7396 35.7352 34.165 35.3056C34.5905 34.876 35.1681 34.6313 35.7726 34.6248C36.0701 34.6275 36.364 34.6893 36.6374 34.8064C36.9108 34.9236 37.1583 35.0938 37.3654 35.3073C37.5726 35.5207 37.7354 35.7731 37.8443 36.0499C37.9532 36.3267 38.0061 36.6224 38 36.9198ZM56.5657 33.593L54.7766 35.3829L36.4333 21.3562C36.2371 21.2062 35.997 21.1249 35.75 21.1249C35.503 21.1249 35.2629 21.2062 35.0667 21.3562L16.7234 35.3829L14.9337 33.593L34.0888 18.2701L35.6383 17.8274L38.8903 19.4534L56.5657 33.593ZM47.7407 21.3623L36.2532 15.6186C36.0014 15.4927 35.7116 15.4657 35.4409 15.5431L19.8424 19.9998H13.25V10.744L37.8477 4.3271L67.1849 20.6255C67.0883 21.0728 66.8899 21.4918 66.605 21.8499C66.3202 22.208 65.9565 22.4955 65.5424 22.6902C65.1283 22.8848 64.6749 22.9814 64.2174 22.9722C63.7599 22.9631 63.3107 22.8486 62.9047 22.6376L40.769 11.1263C40.5042 10.9887 40.1956 10.9618 39.911 11.0517C39.6264 11.1416 39.3892 11.3409 39.2516 11.6057C39.1139 11.8705 39.0871 12.1792 39.177 12.4637C39.2669 12.7483 39.4661 12.9855 39.731 13.1232L52.3522 19.6862C52.0192 20.4542 51.4123 21.0707 50.6496 21.4159C50.1928 21.6295 49.6932 21.7357 49.1889 21.7264C48.6847 21.7171 48.1893 21.5926 47.7407 21.3623Z" fill="#FEBE09"/>
</svg>
