<svg width="73" height="72" viewBox="0 0 73 72" fill="none" xmlns="http://www.w3.org/2000/svg">
<path d="M62.6074 67.1284H9.8925C9.28642 67.1284 8.79883 66.6408 8.79883 66.0348V32.4955C8.79883 31.8895 9.28642 31.4019 9.8925 31.4019C10.4986 31.4019 10.9862 31.8895 10.9862 32.4955V64.9411H61.5138V32.4955C61.5138 31.8895 62.0014 31.4019 62.6074 31.4019C63.2135 31.4019 63.7011 31.8895 63.7011 32.4955V66.0348C63.7011 66.6408 63.209 67.1284 62.6074 67.1284Z" fill="#FEBE09"/>
<path d="M67.8654 37.1164C67.1135 37.1164 66.3889 36.8658 65.7874 36.3918L36.2491 13.1513L6.71092 36.3918C5.24813 37.5402 3.12459 37.2896 1.97624 35.8268C1.42029 35.1205 1.16965 34.2364 1.27902 33.3432C1.38383 32.4501 1.83497 31.648 2.5413 31.0921L35.5747 5.10374C35.9712 4.78931 36.5317 4.78931 36.9281 5.10374L69.9616 31.0921C71.4243 32.2405 71.675 34.364 70.5266 35.8268C69.9707 36.5331 69.1686 36.9842 68.2755 37.0891C68.1388 37.1073 68.0021 37.1164 67.8654 37.1164ZM36.2491 10.6678C36.4861 10.6678 36.7276 10.7453 36.9236 10.9002L67.1408 34.6693C67.3914 34.8653 67.7013 34.9518 68.0157 34.9154C68.3302 34.8789 68.6127 34.7194 68.8086 34.4734C69.2142 33.9584 69.1231 33.2111 68.6081 32.8101L36.2491 7.35488L3.89016 32.8101C3.63953 33.006 3.48459 33.2886 3.44813 33.603C3.41168 33.9174 3.49826 34.2273 3.69421 34.4779C4.09978 34.9929 4.84256 35.0794 5.3575 34.6784L35.5747 10.9093C35.7707 10.7453 36.0122 10.6678 36.2491 10.6678Z" fill="#FEBE09"/>
<path d="M56.9604 23.3498C56.3543 23.3498 55.8667 22.8622 55.8667 22.2561V9.68344H50.4439V16.2682C50.4439 16.8743 49.9563 17.3619 49.3503 17.3619C48.7442 17.3619 48.2566 16.8743 48.2566 16.2682V8.58976C48.2566 7.98369 48.7442 7.49609 49.3503 7.49609H56.9604C57.5665 7.49609 58.0541 7.98369 58.0541 8.58976V22.2561C58.0541 22.8622 57.5665 23.3498 56.9604 23.3498ZM24.688 58.0556C24.4054 58.0556 24.1275 57.9462 23.9133 57.732C23.4849 57.3037 23.4895 56.611 23.9133 56.1872L47.0353 33.129C47.4637 32.7006 48.1563 32.7052 48.5801 33.129C49.0085 33.5574 49.0039 34.25 48.5801 34.6738L25.4581 57.732C25.2485 57.9508 24.966 58.0556 24.688 58.0556ZM28.7346 44.371H28.7254C25.1437 44.3665 22.2318 41.4455 22.2363 37.8637C22.2363 36.1275 22.9153 34.4961 24.1457 33.2703C25.3715 32.0444 27.0029 31.3746 28.7346 31.3746H28.7437C30.4799 31.3746 32.1113 32.0536 33.3371 33.2839C34.5629 34.5143 35.2373 36.1457 35.2328 37.8819C35.2328 39.6181 34.5538 41.2495 33.3234 42.4753C32.0976 43.7012 30.4662 44.371 28.7346 44.371ZM28.7346 33.5619C27.5862 33.5619 26.5062 34.0085 25.6905 34.8196C24.8748 35.6308 24.4237 36.7153 24.4237 37.8682C24.4191 40.247 26.3513 42.1837 28.73 42.1837H28.7346C29.8829 42.1837 30.9675 41.7371 31.7786 40.926C32.5943 40.1148 33.0454 39.0303 33.0454 37.8774C33.0454 36.7244 32.5989 35.6444 31.7877 34.8287C30.9766 34.0131 29.892 33.5619 28.7391 33.5619H28.7346ZM43.7634 59.491H43.7543C40.1725 59.4865 37.2606 56.5655 37.2652 52.9837C37.2697 51.2475 37.9442 49.6161 39.1746 48.3903C40.4004 47.1644 42.0318 46.4946 43.7634 46.4946H43.7725C47.3543 46.4991 50.2662 49.4201 50.2616 53.0019C50.2571 54.7381 49.5827 56.3695 48.3523 57.5953C47.1265 58.8166 45.4951 59.491 43.7634 59.491ZM43.7634 48.6819C42.6151 48.6819 41.5351 49.1285 40.7194 49.9396C39.9037 50.7508 39.4525 51.8353 39.4525 52.9882C39.448 55.367 41.3801 57.3037 43.7589 57.3037H43.7634C44.9118 57.3037 45.9918 56.8571 46.8075 56.046C47.6232 55.2348 48.0743 54.1503 48.0743 52.9974C48.0789 50.6186 46.1467 48.6819 43.768 48.6819H43.7634Z" fill="#FEBE09"/>
</svg>
