<svg width="72" height="72" viewBox="0 0 72 72" fill="none" xmlns="http://www.w3.org/2000/svg">
<g clip-path="url(#clip0_5599_60)">
<path d="M69.8796 49.6801C69.2371 49.3461 68.5145 49.1969 67.7922 49.2492C67.07 49.3016 66.3764 49.5533 65.7888 49.9765L60.1908 54.0565C59.9857 53.327 59.5748 52.6719 59.0072 52.1697C58.4397 51.6675 57.7395 51.3394 56.9904 51.2245L37.8948 48.1069C36.9612 47.9399 36.0032 47.9684 35.0812 48.1904C34.1592 48.4124 33.2932 48.8233 32.538 49.3969L30.5592 50.8801C29.9356 51.3467 29.178 51.5993 28.3992 51.6001H22.4688C22.259 51.2367 21.9575 50.9346 21.5945 50.7241C21.2315 50.5135 20.8196 50.4018 20.4 50.4001H2.4C1.76348 50.4001 1.15303 50.653 0.702944 51.1031C0.252856 51.5531 0 52.1636 0 52.8001L0 64.8001C0 65.4366 0.252856 66.0471 0.702944 66.4972C1.15303 66.9473 1.76348 67.2001 2.4 67.2001H20.4C20.8153 67.199 21.2231 67.0897 21.5833 66.8831C21.9435 66.6765 22.2437 66.3796 22.4544 66.0217H29.1744C29.5861 66.0213 29.9948 66.0915 30.3828 66.2293L45.2988 71.5585C46.1146 71.8522 46.9757 72 47.8428 71.9953C49.7249 71.994 51.5519 71.36 53.0304 70.1953C53.1312 70.1137 70.596 56.0773 70.6128 56.0653C71.0478 55.7019 71.3976 55.2472 71.6374 54.7336C71.8771 54.2199 72.0009 53.6598 72 53.0929C71.9984 52.3833 71.7991 51.6881 71.4246 51.0853C71.0501 50.4825 70.5151 49.9959 69.8796 49.6801ZM20.4 64.8001H2.4V52.8001H20.4V64.8001ZM69.0888 54.2137L51.5208 68.3317C50.7676 68.9238 49.8806 69.3219 48.9376 69.4912C47.9946 69.6604 47.0245 69.5956 46.1124 69.3025L31.1868 63.9709C30.5397 63.7387 29.8571 63.6206 29.1696 63.6217H22.8V54.0001H28.4004C29.6982 53.9973 30.9605 53.5765 32.0004 52.8001C33.3384 51.7945 33.8004 51.4453 33.9816 51.3073C34.4752 50.9366 35.0394 50.6708 35.6395 50.5263C36.2396 50.3819 36.863 50.3618 37.4712 50.4673L56.5992 53.6029C56.9397 53.646 57.2552 53.804 57.4937 54.0508C57.7322 54.2976 57.8794 54.6184 57.9108 54.9601C57.9184 55.1556 57.8841 55.3504 57.8102 55.5315C57.7363 55.7126 57.6245 55.8758 57.4824 56.0101C57.3558 56.14 57.2042 56.243 57.0367 56.3127C56.8693 56.3824 56.6894 56.4174 56.508 56.4157H39.6C39.2817 56.4157 38.9765 56.5421 38.7515 56.7672C38.5264 56.9922 38.4 57.2975 38.4 57.6157C38.4 57.934 38.5264 58.2392 38.7515 58.4642C38.9765 58.6893 39.2817 58.8157 39.6 58.8157H43.9608L49.02 63.1021C49.4005 63.4199 49.8761 63.6018 50.3715 63.6192C50.867 63.6366 51.3541 63.4884 51.756 63.1981L67.2 51.9241C67.4304 51.7621 67.7012 51.6671 67.9823 51.6497C68.2634 51.6323 68.5438 51.6932 68.7924 51.8257C69.0328 51.9393 69.2362 52.1186 69.3791 52.3428C69.522 52.567 69.5986 52.827 69.6 53.0929C69.6014 53.3057 69.5564 53.5162 69.4681 53.7098C69.3799 53.9033 69.2504 54.0753 69.0888 54.2137ZM53.6892 58.8121L50.4576 61.1713L47.6736 58.8121H53.6892Z" fill="#FEBE09"/>
<path d="M22.7999 37.2852C22.7872 39.4744 23.6433 41.5793 25.1805 43.1381C26.7176 44.6968 28.8104 45.5822 30.9995 45.6H57.8003C59.9895 45.5822 62.0822 44.6968 63.6194 43.1381C65.1566 41.5793 66.0127 39.4744 65.9999 37.2852C65.9995 35.6842 65.5415 34.1166 64.68 32.7672L54.4799 16.7508C55.3223 16.637 56.097 16.228 56.6661 15.5966C57.2353 14.9653 57.5619 14.1524 57.588 13.3028C57.614 12.4532 57.3378 11.6219 56.8085 10.9568C56.2791 10.2917 55.531 9.83602 54.6971 9.6708L55.5203 8.0244C55.9225 7.22828 56.0116 6.31034 55.7701 5.45172C55.5287 4.59311 54.9741 3.85619 54.2159 3.3864C53.2462 2.81885 52.1554 2.48982 51.0335 2.4264C50.2691 1.5132 48.3947 0 44.3999 0C40.4051 0 38.5307 1.5132 37.7663 2.4228C36.6441 2.48639 35.553 2.81541 34.5827 3.3828C33.8235 3.85165 33.2677 4.58807 33.0249 5.4467C32.7821 6.30533 32.8699 7.22379 33.2711 8.0208L34.0943 9.6672C33.2605 9.83242 32.5124 10.2881 31.983 10.9532C31.4537 11.6183 31.1775 12.4496 31.2035 13.2992C31.2296 14.1488 31.5562 14.9617 32.1254 15.593C32.6945 16.2244 33.4692 16.6334 34.3115 16.7472L24.1199 32.7672C23.2584 34.1166 22.8004 35.6842 22.7999 37.2852ZM35.8199 5.4444C36.605 4.99812 37.4972 4.77526 38.3999 4.8C38.616 4.79397 38.8269 4.73239 39.0123 4.62121C39.1977 4.51003 39.3513 4.35298 39.4583 4.1652C39.5003 4.092 40.5131 2.4 44.3999 2.4C48.2867 2.4 49.2995 4.092 49.3199 4.1364C49.4201 4.33679 49.5743 4.50516 49.7652 4.62244C49.956 4.73971 50.1759 4.80122 50.3999 4.8C51.3023 4.77512 52.1942 4.99799 52.9787 5.4444C53.2225 5.59923 53.3991 5.83993 53.4738 6.11883C53.5485 6.39774 53.5157 6.69452 53.3819 6.9504L52.0583 9.6H36.7415L35.4215 6.9504C35.2874 6.69507 35.2538 6.3987 35.3276 6.11985C35.4014 5.841 35.5771 5.59997 35.8199 5.4444ZM33.5999 13.2C33.5999 12.8817 33.7264 12.5765 33.9514 12.3515C34.1765 12.1264 34.4817 12 34.7999 12H53.9999C54.3182 12 54.6234 12.1264 54.8485 12.3515C55.0735 12.5765 55.1999 12.8817 55.1999 13.2C55.1999 13.5183 55.0735 13.8235 54.8485 14.0485C54.6234 14.2736 54.3182 14.4 53.9999 14.4H34.7999C34.4817 14.4 34.1765 14.2736 33.9514 14.0485C33.7264 13.8235 33.5999 13.5183 33.5999 13.2ZM26.1407 34.056L36.4187 17.9112C36.6345 17.57 36.9333 17.2891 37.2871 17.0948C37.6409 16.9004 38.0383 16.799 38.4419 16.8H50.3579C50.7616 16.7993 51.1588 16.9009 51.5126 17.0952C51.8663 17.2895 52.1652 17.5702 52.3811 17.9112L62.6591 34.056C63.2742 35.0207 63.6006 36.1411 63.5999 37.2852C63.6134 38.8381 63.0103 40.3329 61.9231 41.4417C60.8359 42.5506 59.3532 43.1829 57.8003 43.2H30.9995C29.4467 43.1829 27.964 42.5506 26.8768 41.4417C25.7895 40.3329 25.1865 38.8381 25.1999 37.2852C25.1993 36.1411 25.5257 35.0207 26.1407 34.056Z" fill="#FEBE09"/>
<path d="M44.3999 36C43.3801 35.9695 42.4034 35.5822 41.6399 34.9056C41.4128 34.6876 41.1092 34.5676 40.7945 34.5714C40.4798 34.5752 40.1792 34.7025 39.9575 34.9258C39.7357 35.1491 39.6106 35.4507 39.609 35.7654C39.6074 36.0801 39.7296 36.3828 39.9491 36.6084C40.8657 37.4407 41.988 38.0133 43.1999 38.2668V39.6C43.1999 39.9182 43.3263 40.2234 43.5514 40.4485C43.7764 40.6735 44.0816 40.8 44.3999 40.8C44.7182 40.8 45.0234 40.6735 45.2484 40.4485C45.4735 40.2234 45.5999 39.9182 45.5999 39.6V38.2296C46.7298 37.9387 47.7148 37.2455 48.3699 36.28C49.025 35.3145 49.3052 34.1431 49.1579 32.9856C49.0106 31.8282 48.446 30.7643 47.5699 29.9936C46.6939 29.2229 45.5667 28.7985 44.3999 28.8C43.7634 28.8 43.1529 28.5471 42.7028 28.097C42.2527 27.6469 41.9999 27.0365 41.9999 26.4C41.9999 25.7634 42.2527 25.153 42.7028 24.7029C43.1529 24.2528 43.7634 24 44.3999 24C45.4161 24.0303 46.3896 24.4153 47.1515 25.0884C47.3778 25.3069 47.6809 25.4279 47.9956 25.4252C48.3102 25.4224 48.6112 25.2962 48.8337 25.0737C49.0562 24.8512 49.1824 24.5503 49.1851 24.2356C49.1878 23.921 49.0669 23.6179 48.8483 23.3916C47.9324 22.5595 46.811 21.987 45.5999 21.7332V20.4C45.5999 20.0817 45.4735 19.7765 45.2484 19.5514C45.0234 19.3264 44.7182 19.2 44.3999 19.2C44.0816 19.2 43.7764 19.3264 43.5514 19.5514C43.3263 19.7765 43.1999 20.0817 43.1999 20.4V21.7704C42.0699 22.0612 41.085 22.7544 40.4299 23.7199C39.7748 24.6854 39.4946 25.8569 39.6419 27.0143C39.7891 28.1717 40.3538 29.2356 41.2299 30.0063C42.1059 30.777 43.2331 31.2014 44.3999 31.2C45.0364 31.2 45.6469 31.4528 46.097 31.9029C46.547 32.353 46.7999 32.9634 46.7999 33.6C46.7999 34.2365 46.547 34.8469 46.097 35.297C45.6469 35.7471 45.0364 36 44.3999 36Z" fill="#FEBE09"/>
</g>
<defs>
<clipPath id="clip0_5599_60">
<rect width="72" height="72" fill="white"/>
</clipPath>
</defs>
</svg>
