<svg width="72" height="72" viewBox="0 0 72 72" fill="none" xmlns="http://www.w3.org/2000/svg">
<path d="M67.2008 0H27.6008C26.3277 0 25.1068 0.505713 24.2067 1.40589C23.3065 2.30606 22.8008 3.52696 22.8008 4.8V27.864C22.8008 28.1823 22.9272 28.4875 23.1523 28.7125C23.3773 28.9376 23.6825 29.064 24.0008 29.064C24.319 29.064 24.6243 28.9376 24.8493 28.7125C25.0744 28.4875 25.2008 28.1823 25.2008 27.864V4.8C25.2008 4.16348 25.4536 3.55303 25.9037 3.10294C26.3538 2.65286 26.9643 2.4 27.6008 2.4H67.2008C67.8373 2.4 68.4478 2.65286 68.8978 3.10294C69.3479 3.55303 69.6008 4.16348 69.6008 4.8V60C69.6008 60.6365 69.3479 61.247 68.8978 61.6971C68.4478 62.1471 67.8373 62.4 67.2008 62.4H41.1728C40.8545 62.4 40.5493 62.5264 40.3243 62.7515C40.0992 62.9765 39.9728 63.2817 39.9728 63.6C39.9728 63.9183 40.0992 64.2235 40.3243 64.4485C40.5493 64.6736 40.8545 64.8 41.1728 64.8H67.2008C68.4738 64.8 69.6947 64.2943 70.5949 63.3941C71.4951 62.4939 72.0008 61.273 72.0008 60V4.8C72.0008 3.52696 71.4951 2.30606 70.5949 1.40589C69.6947 0.505713 68.4738 0 67.2008 0Z" fill="#FEBE09"/>
<path d="M28.8 4.79991C28.4817 4.79991 28.1765 4.92634 27.9515 5.15138C27.7264 5.37643 27.6 5.68165 27.6 5.99991V16.7999C27.6 17.1182 27.7264 17.4234 27.9515 17.6484C28.1765 17.8735 28.4817 17.9999 28.8 17.9999H33.6C33.9183 17.9999 34.2235 17.8735 34.4485 17.6484C34.6736 17.4234 34.8 17.1182 34.8 16.7999C34.8 16.4816 34.6736 16.1764 34.4485 15.9514C34.2235 15.7263 33.9183 15.5999 33.6 15.5999H30V5.99991C30 5.68165 29.8736 5.37643 29.6485 5.15138C29.4235 4.92634 29.1183 4.79991 28.8 4.79991ZM45.6 11.3999C45.6 7.69911 43.4916 4.79991 40.8 4.79991C38.1084 4.79991 36 7.69911 36 11.3999C36 15.1007 38.1084 17.9999 40.8 17.9999C43.4916 17.9999 45.6 15.1007 45.6 11.3999ZM38.4 11.3999C38.4 8.92551 39.6648 7.19991 40.8 7.19991C41.9352 7.19991 43.2 8.92551 43.2 11.3999C43.2 13.8743 41.9352 15.5999 40.8 15.5999C39.6648 15.5999 38.4 13.8755 38.4 11.3999ZM52.7388 5.62071C52.6599 5.38063 52.5072 5.17159 52.3025 5.02339C52.0978 4.8752 51.8515 4.79541 51.5988 4.79541C51.3461 4.79541 51.0998 4.8752 50.8951 5.02339C50.6904 5.17159 50.5377 5.38063 50.4588 5.62071L46.8588 16.4207C46.7582 16.7231 46.7819 17.053 46.9246 17.3379C47.0672 17.6228 47.3173 17.8393 47.6196 17.9399C47.9219 18.0405 48.2519 18.0168 48.5368 17.8741C48.8217 17.7315 49.0382 17.4815 49.1388 17.1791L49.6656 15.5999H53.5344L54.0612 17.1791C54.1618 17.4815 54.3783 17.7315 54.6632 17.8741C54.9481 18.0168 55.2781 18.0405 55.5804 17.9399C55.8828 17.8393 56.1328 17.6228 56.2754 17.3379C56.4181 17.053 56.4418 16.7231 56.3412 16.4207L52.7388 5.62071ZM50.4648 13.1999L51.6 9.79431L52.7352 13.1999H50.4648ZM61.2 16.7999V10.6307L64.9512 17.3831C65.0804 17.6154 65.283 17.7983 65.5274 17.903C65.7717 18.0077 66.0439 18.0283 66.3012 17.9616C66.5586 17.8948 66.7864 17.7446 66.9491 17.5343C67.1118 17.3241 67.2 17.0657 67.2 16.7999V5.99991C67.2 5.68165 67.0736 5.37643 66.8485 5.15138C66.6235 4.92634 66.3183 4.79991 66 4.79991C65.6817 4.79991 65.3765 4.92634 65.1515 5.15138C64.9264 5.37643 64.8 5.68165 64.8 5.99991V12.1691L61.0488 5.41671C60.9196 5.18437 60.717 5.00151 60.4726 4.89681C60.2283 4.79211 59.9561 4.77151 59.6988 4.83825C59.4414 4.90498 59.2136 5.05527 59.0509 5.26552C58.8882 5.47577 58.8 5.73408 58.8 5.99991V16.7999C58.8 17.1182 58.9264 17.4234 59.1515 17.6484C59.3765 17.8735 59.6817 17.9999 60 17.9999C60.3183 17.9999 60.6235 17.8735 60.8485 17.6484C61.0736 17.4234 61.2 17.1182 61.2 16.7999ZM28.8 28.7999H44.4C44.7183 28.7999 45.0235 28.6735 45.2485 28.4484C45.4736 28.2234 45.6 27.9182 45.6 27.5999C45.6 27.2816 45.4736 26.9764 45.2485 26.7514C45.0235 26.5263 44.7183 26.3999 44.4 26.3999H28.8C28.4817 26.3999 28.1765 26.5263 27.9515 26.7514C27.7264 26.9764 27.6 27.2816 27.6 27.5999C27.6 27.9182 27.7264 28.2234 27.9515 28.4484C28.1765 28.6735 28.4817 28.7999 28.8 28.7999ZM45.6 33.5999C45.6 33.2816 45.4736 32.9764 45.2485 32.7514C45.0235 32.5263 44.7183 32.3999 44.4 32.3999H36.264C35.9457 32.3999 35.6405 32.5263 35.4155 32.7514C35.1904 32.9764 35.064 33.2816 35.064 33.5999C35.064 33.9182 35.1904 34.2234 35.4155 34.4484C35.6405 34.6735 35.9457 34.7999 36.264 34.7999H44.4C44.7183 34.7999 45.0235 34.6735 45.2485 34.4484C45.4736 34.2234 45.6 33.9182 45.6 33.5999ZM41.172 40.7999H44.4C44.7183 40.7999 45.0235 40.6735 45.2485 40.4484C45.4736 40.2234 45.6 39.9182 45.6 39.5999C45.6 39.2816 45.4736 38.9764 45.2485 38.7514C45.0235 38.5263 44.7183 38.3999 44.4 38.3999H41.172C40.8537 38.3999 40.5485 38.5263 40.3235 38.7514C40.0984 38.9764 39.972 39.2816 39.972 39.5999C39.972 39.9182 40.0984 40.2234 40.3235 40.4484C40.5485 40.6735 40.8537 40.7999 41.172 40.7999ZM43.644 46.7999H44.4C44.7183 46.7999 45.0235 46.6735 45.2485 46.4484C45.4736 46.2234 45.6 45.9182 45.6 45.5999C45.6 45.2816 45.4736 44.9764 45.2485 44.7514C45.0235 44.5263 44.7183 44.3999 44.4 44.3999H43.644C43.3257 44.3999 43.0205 44.5263 42.7955 44.7514C42.5704 44.9764 42.444 45.2816 42.444 45.5999C42.444 45.9182 42.5704 46.2234 42.7955 46.4484C43.0205 46.6735 43.3257 46.7999 43.644 46.7999ZM49.2 27.5999C49.2 27.9182 49.3264 28.2234 49.5515 28.4484C49.7765 28.6735 50.0817 28.7999 50.4 28.7999H66C66.3183 28.7999 66.6235 28.6735 66.8485 28.4484C67.0736 28.2234 67.2 27.9182 67.2 27.5999C67.2 27.2816 67.0736 26.9764 66.8485 26.7514C66.6235 26.5263 66.3183 26.3999 66 26.3999H50.4C50.0817 26.3999 49.7765 26.5263 49.5515 26.7514C49.3264 26.9764 49.2 27.2816 49.2 27.5999ZM66 32.3999H50.4C50.0817 32.3999 49.7765 32.5263 49.5515 32.7514C49.3264 32.9764 49.2 33.2816 49.2 33.5999C49.2 33.9182 49.3264 34.2234 49.5515 34.4484C49.7765 34.6735 50.0817 34.7999 50.4 34.7999H66C66.3183 34.7999 66.6235 34.6735 66.8485 34.4484C67.0736 34.2234 67.2 33.9182 67.2 33.5999C67.2 33.2816 67.0736 32.9764 66.8485 32.7514C66.6235 32.5263 66.3183 32.3999 66 32.3999ZM66 38.3999H50.4C50.0817 38.3999 49.7765 38.5263 49.5515 38.7514C49.3264 38.9764 49.2 39.2816 49.2 39.5999C49.2 39.9182 49.3264 40.2234 49.5515 40.4484C49.7765 40.6735 50.0817 40.7999 50.4 40.7999H66C66.3183 40.7999 66.6235 40.6735 66.8485 40.4484C67.0736 40.2234 67.2 39.9182 67.2 39.5999C67.2 39.2816 67.0736 38.9764 66.8485 38.7514C66.6235 38.5263 66.3183 38.3999 66 38.3999ZM66 44.3999H50.4C50.0817 44.3999 49.7765 44.5263 49.5515 44.7514C49.3264 44.9764 49.2 45.2816 49.2 45.5999C49.2 45.9182 49.3264 46.2234 49.5515 46.4484C49.7765 46.6735 50.0817 46.7999 50.4 46.7999H66C66.3183 46.7999 66.6235 46.6735 66.8485 46.4484C67.0736 46.2234 67.2 45.9182 67.2 45.5999C67.2 45.2816 67.0736 44.9764 66.8485 44.7514C66.6235 44.5263 66.3183 44.3999 66 44.3999ZM0 51.5999C0 62.8667 9.1332 71.9999 20.4 71.9999C31.6668 71.9999 40.8 62.8667 40.8 51.5999C40.8 40.3331 31.6668 31.1999 20.4 31.1999C9.138 31.2119 0.012 40.3379 0 51.5999ZM38.4 51.5999C38.4 61.5407 30.3408 69.5999 20.4 69.5999C10.4592 69.5999 2.4 61.5407 2.4 51.5999C2.4 41.6591 10.4592 33.5999 20.4 33.5999C30.336 33.6119 38.388 41.6639 38.4 51.5999Z" fill="#FEBE09"/>
<path d="M19.1992 38.4V51.6C19.1992 51.9182 19.3256 52.2234 19.5507 52.4485C19.7757 52.6735 20.081 52.8 20.3992 52.8H31.1992C31.5175 52.8 31.8227 52.6735 32.0477 52.4485C32.2728 52.2234 32.3992 51.9182 32.3992 51.6C32.3992 51.2817 32.2728 50.9765 32.0477 50.7514C31.8227 50.5264 31.5175 50.4 31.1992 50.4H21.5992V38.4C21.5992 38.0817 21.4728 37.7765 21.2477 37.5514C21.0227 37.3264 20.7175 37.2 20.3992 37.2C20.081 37.2 19.7757 37.3264 19.5507 37.5514C19.3256 37.7765 19.1992 38.0817 19.1992 38.4ZM43.1992 55.2C43.1992 55.5182 43.3256 55.8234 43.5507 56.0485C43.7757 56.2735 44.081 56.4 44.3992 56.4H48.2992C48.7741 56.4004 49.2417 56.2834 49.6605 56.0594C50.0792 55.8353 50.4361 55.5113 50.6992 55.116L51.1984 54.366C51.242 54.2991 51.3016 54.2442 51.3718 54.2062C51.442 54.1682 51.5206 54.1482 51.6004 54.1482C51.6802 54.1482 51.7588 54.1682 51.829 54.2062C51.8992 54.2442 51.9588 54.2991 52.0024 54.366L53.3836 56.4371C53.686 56.8975 54.1153 57.2603 54.6197 57.4816C55.124 57.7029 55.6817 57.7732 56.2252 57.684C56.7703 57.6029 57.2801 57.3656 57.6931 57.0008C58.1061 56.636 58.4044 56.1593 58.552 55.6283L58.7644 54.8867C58.7899 54.7921 58.8437 54.7075 58.9187 54.6443C58.9937 54.5811 59.0862 54.5424 59.1838 54.5334C59.2814 54.5244 59.3795 54.5455 59.4647 54.5939C59.55 54.6422 59.6185 54.7155 59.6608 54.8039C59.8986 55.2844 60.2662 55.6886 60.722 55.9707C61.1778 56.2528 61.7036 56.4015 62.2396 56.4H65.9992C66.3175 56.4 66.6227 56.2735 66.8477 56.0485C67.0728 55.8234 67.1992 55.5182 67.1992 55.2C67.1992 54.8817 67.0728 54.5765 66.8477 54.3514C66.6227 54.1264 66.3175 54 65.9992 54H62.2396C62.1498 54.0002 62.0617 53.9753 61.9853 53.928C61.9089 53.8807 61.8474 53.8129 61.8076 53.7324C61.549 53.2114 61.1387 52.781 60.6307 52.4978C60.1228 52.2145 59.5409 52.0917 58.9618 52.1454C58.3827 52.1992 57.8334 52.427 57.3863 52.799C56.9392 53.1709 56.6151 53.6695 56.4568 54.2292L56.2456 54.972C56.2213 55.0614 56.1715 55.142 56.1024 55.2038C56.0332 55.2656 55.9477 55.3061 55.856 55.3203C55.7644 55.3345 55.6706 55.3219 55.586 55.2839C55.5013 55.2459 55.4295 55.1843 55.3792 55.1064L53.9992 53.04C53.7365 52.6439 53.3799 52.319 52.9611 52.0943C52.5424 51.8695 52.0745 51.7519 51.5992 51.7519C51.124 51.7519 50.6561 51.8695 50.2373 52.0943C49.8186 52.319 49.4619 52.6439 49.1992 53.04L48.6988 53.7888C48.6551 53.8551 48.5956 53.9096 48.5257 53.9473C48.4557 53.985 48.3775 54.0047 48.298 54.0048H44.3992C44.0818 54.0048 43.7773 54.1305 43.5524 54.3545C43.3275 54.5785 43.2005 54.8825 43.1992 55.2Z" fill="#FEBE09"/>
</svg>
