<svg width="72" height="72" viewBox="0 0 72 72" fill="none" xmlns="http://www.w3.org/2000/svg">
<g clip-path="url(#clip0_6023_278)">
<path d="M1.09524 27.381H7.17124C7.53062 28.6768 8.04829 29.9235 8.71399 31.0919L4.41347 35.3907C4.20811 35.5961 4.0926 35.8746 4.0926 36.1655C4.0926 36.4565 4.20811 36.735 4.41347 36.9403L9.05967 41.5878C9.4875 42.0148 10.1806 42.0148 10.6084 41.5878L14.9094 37.2864C16.0778 37.9517 17.3232 38.4698 18.619 38.8288V44.9048C18.619 45.5097 19.1093 46 19.7143 46H26.2857C26.8907 46 27.381 45.5097 27.381 44.9048V38.8288C28.6768 38.4698 29.9222 37.9517 31.0906 37.2864L35.3916 41.5878C35.8263 41.9985 36.5061 41.9985 36.9403 41.5878L41.5874 36.9403C41.7927 36.735 41.9083 36.4565 41.9083 36.1655C41.9083 35.8746 41.7927 35.5961 41.5874 35.3907L37.286 31.0919C37.9517 29.9235 38.4694 28.6768 38.8288 27.381H44.9048C45.5097 27.381 46 26.8907 46 26.2857V19.7143C46 19.1098 45.5097 18.619 44.9048 18.619H38.8288C38.4694 17.3236 37.9517 16.0769 37.286 14.9085L41.5865 10.6097C41.7919 10.4043 41.9074 10.1258 41.9074 9.8349C41.9074 9.54397 41.7919 9.26546 41.5865 9.0601L36.9403 4.41261C36.5125 3.98521 35.8194 3.98521 35.3916 4.41261L31.0906 8.71399C29.9222 8.04914 28.6764 7.53105 27.381 7.17167V1.09524C27.381 0.490718 26.8907 0 26.2857 0H19.7143C19.1093 0 18.619 0.490718 18.619 1.09524V7.17167C17.3236 7.53105 16.0778 8.04914 14.9094 8.71399L10.6084 4.41261C10.1737 4.0019 9.49392 4.0019 9.05967 4.41261L4.41261 9.0601C4.20725 9.26546 4.09174 9.54397 4.09174 9.8349C4.09174 10.1258 4.20725 10.4043 4.41261 10.6097L8.71399 14.9085C8.04829 16.0769 7.53062 17.3236 7.17124 18.619H1.09524C0.49029 18.619 0 19.1098 0 19.7143V26.2857C0 26.8907 0.49029 27.381 1.09524 27.381V27.381ZM2.19048 20.8095H8.02818C8.54286 20.8095 8.98823 20.4514 9.09818 19.9487C9.45755 18.3084 10.1074 16.7452 11.017 15.3333C11.2946 14.9004 11.233 14.3318 10.869 13.9677L6.73571 9.83447L9.83404 6.73571L13.9664 10.869C14.3305 11.2339 14.8995 11.2955 15.3333 11.0174C16.7456 10.1083 18.3084 9.45841 19.9487 9.0986C20.451 8.98823 20.8095 8.54286 20.8095 8.02818V2.19048H25.1905V8.02818C25.1905 8.54286 25.549 8.98823 26.0513 9.0986C27.6916 9.45841 29.2544 10.1083 30.6667 11.0174C31.1005 11.2955 31.6695 11.2339 32.0336 10.869L36.166 6.73571L39.2634 9.83447L35.131 13.9664C34.7661 14.3309 34.7049 14.8999 34.983 15.3333C35.8926 16.746 36.5416 18.3089 36.9005 19.9496C37.0109 20.4523 37.4563 20.8108 37.9705 20.8108H43.8095V25.1918H37.9705C37.4563 25.1918 37.0109 25.5499 36.9005 26.0525C36.5416 27.6928 35.8922 29.2557 34.983 30.6667C34.7054 31.1001 34.767 31.6686 35.131 32.0327L39.2643 36.1651L36.166 39.2647L32.0336 35.131C31.6695 34.7665 31.1005 34.7049 30.6667 34.983C29.2553 35.8926 27.6928 36.5424 26.0525 36.9018C25.5494 37.0113 25.1905 37.4571 25.1905 37.9718V43.8095H20.8095V37.9718C20.8095 37.4571 20.4506 37.0113 19.9475 36.9018C18.3072 36.5424 16.7447 35.8926 15.3333 34.983C14.8995 34.7049 14.3305 34.7665 13.9664 35.131L9.83404 39.2647L6.73657 36.166L10.869 32.0336C11.2339 31.6695 11.2951 31.1005 11.017 30.6667C10.1074 29.2544 9.45755 27.6911 9.09818 26.0504C8.9878 25.5477 8.54286 25.1905 8.02818 25.1905H2.19048V20.8095Z" fill="#FEBE09"/>
<path d="M23 32C27.9707 32 32 27.9711 32 23C32 18.0293 27.9707 14 23 14C18.0293 14 14 18.0293 14 23C14.0053 27.968 18.032 31.9947 23 32ZM23 16.25C26.7274 16.25 29.75 19.2726 29.75 23C29.75 26.7279 26.7274 29.75 23 29.75C19.2726 29.75 16.25 26.7279 16.25 23C16.254 19.2734 19.2734 16.254 23 16.25Z" fill="#FEBE09"/>
<path d="M65.8658 57.0809V47.1349C65.8658 46.4486 65.3092 45.8916 64.6225 45.8916H62.136V35.9455C62.136 35.2593 61.5794 34.7023 60.8927 34.7023H49.7034C49.0167 34.7023 48.4601 35.2593 48.4601 35.9455V45.8916H42.2438C41.5571 45.8916 41.0006 46.4486 41.0006 47.1349V57.0809H6.21629C2.78471 57.0853 0.00437083 59.8656 0 63.2972V65.7837C0.00437083 69.2158 2.78471 71.9962 6.21629 72H65.8658C69.2973 71.9962 72.0777 69.2158 72.0821 65.7837V63.2972C72.0777 59.8656 69.2973 57.0853 65.8658 57.0809ZM63.3792 57.0809H54.6764V48.3781H63.3792V57.0809ZM50.9467 37.1888H59.6495V45.8916H50.9467V37.1888ZM43.4871 48.3781H52.1899V57.0809H43.4871V48.3781ZM69.5955 65.7837C69.5955 67.8439 67.9254 69.5135 65.8658 69.5135H6.21629C4.15666 69.5135 2.48652 67.8439 2.48652 65.7837V63.2972C2.48652 61.2376 4.15666 59.5674 6.21629 59.5674H65.8658C67.9254 59.5674 69.5955 61.2376 69.5955 63.2972V65.7837Z" fill="#FEBE09"/>
<path d="M36.5411 60.8107C34.4814 60.8107 32.8113 62.4808 32.8113 64.5404C32.8113 66.6006 34.4814 68.2702 36.5411 68.2702C38.6007 68.2702 40.2708 66.6006 40.2708 64.5404C40.2708 62.4808 38.6007 60.8107 36.5411 60.8107V60.8107ZM36.5411 65.7837C35.8543 65.7837 35.2978 65.2272 35.2978 64.5404C35.2978 63.8542 35.8543 63.2972 36.5411 63.2972C37.2278 63.2972 37.7843 63.8542 37.7843 64.5404C37.7843 65.2272 37.2278 65.7837 36.5411 65.7837Z" fill="#FEBE09"/>
<path d="M24.1084 60.8107C22.0488 60.8107 20.3787 62.4808 20.3787 64.5404C20.3787 66.6006 22.0488 68.2702 24.1084 68.2702C26.1681 68.2702 27.8382 66.6006 27.8382 64.5404C27.8382 62.4808 26.1681 60.8107 24.1084 60.8107V60.8107ZM24.1084 65.7837C23.4217 65.7837 22.8652 65.2272 22.8652 64.5404C22.8652 63.8542 23.4217 63.2972 24.1084 63.2972C24.7951 63.2972 25.3517 63.8542 25.3517 64.5404C25.3517 65.2272 24.7951 65.7837 24.1084 65.7837Z" fill="#FEBE09"/>
<path d="M48.9737 60.8107C46.914 60.8107 45.2439 62.4808 45.2439 64.5404C45.2439 66.6006 46.914 68.2702 48.9737 68.2702C51.0333 68.2702 52.7034 66.6006 52.7034 64.5404C52.7034 62.4808 51.0333 60.8107 48.9737 60.8107V60.8107ZM48.9737 65.7837C48.287 65.7837 47.7304 65.2272 47.7304 64.5404C47.7304 63.8542 48.287 63.2972 48.9737 63.2972C49.6604 63.2972 50.2169 63.8542 50.2169 64.5404C50.2169 65.2272 49.6604 65.7837 48.9737 65.7837Z" fill="#FEBE09"/>
<path d="M11.6758 60.8107C9.61619 60.8107 7.94604 62.4808 7.94604 64.5404C7.94604 66.6006 9.61619 68.2702 11.6758 68.2702C13.7355 68.2702 15.4056 66.6006 15.4056 64.5404C15.4056 62.4808 13.7355 60.8107 11.6758 60.8107V60.8107ZM11.6758 65.7837C10.9891 65.7837 10.4326 65.2272 10.4326 64.5404C10.4326 63.8542 10.9891 63.2972 11.6758 63.2972C12.3625 63.2972 12.9191 63.8542 12.9191 64.5404C12.9191 65.2272 12.3625 65.7837 11.6758 65.7837Z" fill="#FEBE09"/>
<path d="M61.4063 60.8107C59.3467 60.8107 57.6765 62.4808 57.6765 64.5404C57.6765 66.6006 59.3467 68.2702 61.4063 68.2702C63.4659 68.2702 65.1361 66.6006 65.1361 64.5404C65.1361 62.4808 63.4659 60.8107 61.4063 60.8107V60.8107ZM61.4063 65.7837C60.7196 65.7837 60.163 65.2272 60.163 64.5404C60.163 63.8542 60.7196 63.2972 61.4063 63.2972C62.093 63.2972 62.6495 63.8542 62.6495 64.5404C62.6495 65.2272 62.093 65.7837 61.4063 65.7837Z" fill="#FEBE09"/>
</g>
<defs>
<clipPath id="clip0_6023_278">
<rect width="72" height="72" fill="white"/>
</clipPath>
</defs>
</svg>
