<svg width="73" height="72" viewBox="0 0 73 72" fill="none" xmlns="http://www.w3.org/2000/svg">
<path d="M20.5 28.1251V27.6954L21.202 28.0464C20.5355 29.973 20.3397 32.0312 20.631 34.049C20.9222 36.0668 21.6922 37.9856 22.8764 39.6451C24.0606 41.3046 25.6247 42.6566 27.4381 43.5882C29.2515 44.5198 31.2616 45.0039 33.3003 45.0001H34.6997C37.2011 45.0037 39.6486 44.2732 41.7389 42.8992C43.8291 41.5253 45.4703 39.5682 46.4591 37.2705C47.4479 34.9729 47.7408 32.4356 47.3015 29.9731C46.8622 27.5105 45.71 25.231 43.9877 23.417C44.1502 22.8714 44.1689 22.2932 44.0419 21.7383C43.915 21.1834 43.6467 20.6708 43.2633 20.2501C43.8181 19.632 44.125 18.8307 44.125 18.0001C44.125 17.1695 43.8181 16.3682 43.2633 15.7501C43.6975 15.2646 43.9819 14.6639 44.0823 14.0204C44.1827 13.3768 44.0948 12.718 43.8291 12.1233C43.5634 11.5287 43.1313 11.0236 42.585 10.669C42.0386 10.3145 41.4013 10.1256 40.75 10.1251C40.6927 10.1251 40.6356 10.1296 40.579 10.1386L39.0332 10.376L40.7207 3.64849C40.776 3.42814 40.7632 3.19624 40.6841 2.98328C40.6051 2.77033 40.4634 2.58631 40.2777 2.45543C40.092 2.32455 39.8711 2.25294 39.6439 2.25003C39.4168 2.24711 39.1941 2.31303 39.0051 2.43911L36.5616 4.06474L34.9349 1.62574C34.8292 1.46584 34.6844 1.33561 34.5142 1.24738C34.3441 1.15915 34.1542 1.11585 33.9626 1.1216C33.7711 1.12735 33.5841 1.18195 33.4196 1.28022C33.255 1.37849 33.1183 1.51717 33.0224 1.68311L31.3 4.63961L28.8565 3.48761C28.6638 3.39585 28.4491 3.36077 28.2372 3.38647C28.0254 3.41217 27.8253 3.49759 27.6601 3.63275C27.495 3.76791 27.3717 3.94725 27.3047 4.14983C27.2377 4.35241 27.2296 4.56988 27.2815 4.77686L27.925 7.34299L20.5 10.6437V10.1251C20.5 9.82674 20.3815 9.54059 20.1705 9.32962C19.9595 9.11864 19.6734 9.00011 19.375 9.00011H10.375C10.0766 9.00011 9.79048 9.11864 9.5795 9.32962C9.36853 9.54059 9.25 9.82674 9.25 10.1251H1.375V12.3751H9.25V25.8751H1.375V28.1251H9.25C9.25 28.4235 9.36853 28.7096 9.5795 28.9206C9.79048 29.1316 10.0766 29.2501 10.375 29.2501H19.375C19.6734 29.2501 19.9595 29.1316 20.1705 28.9206C20.3815 28.7096 20.5 28.4235 20.5 28.1251ZM45.25 32.1999C45.2467 34.997 44.1341 37.6785 42.1563 39.6564C40.1784 41.6342 37.4968 42.7468 34.6997 42.7501H33.3003C31.6456 42.7524 30.0136 42.3649 28.5365 41.619C27.0595 40.8732 25.7789 39.7899 24.7985 38.4569C23.8181 37.1239 23.1654 35.5788 22.8934 33.9466C22.6213 32.3144 22.7375 30.6411 23.2326 29.0622L25.6221 30.2626C25.7788 30.3385 25.9509 30.377 26.125 30.3751H30.625C30.625 31.2702 30.9806 32.1287 31.6135 32.7616C32.2464 33.3945 33.1049 33.7501 34 33.7501C34.2225 33.7501 34.44 33.8161 34.625 33.9397C34.81 34.0633 34.9542 34.239 35.0394 34.4446C35.1245 34.6502 35.1468 34.8764 35.1034 35.0946C35.06 35.3128 34.9528 35.5133 34.7955 35.6706C34.6382 35.8279 34.4377 35.9351 34.2195 35.9785C34.0012 36.0219 33.775 35.9996 33.5695 35.9145C33.3639 35.8293 33.1882 35.6851 33.0646 35.5001C32.941 35.3151 32.875 35.0976 32.875 34.8751H30.625C30.6279 35.5707 30.8456 36.2483 31.2484 36.8154C31.6511 37.3825 32.2192 37.8113 32.875 38.0431V40.5001H35.125V38.0431C35.875 37.7789 36.5073 37.2578 36.91 36.5721C37.3126 35.8864 37.4596 35.0803 37.3248 34.2967C37.1901 33.513 36.7823 32.8023 36.1738 32.2904C35.5652 31.7786 34.7952 31.4986 34 31.5001C33.7016 31.5001 33.4155 31.3816 33.2045 31.1706C32.9935 30.9596 32.875 30.6735 32.875 30.3751H38.5C39.0499 30.3747 39.5914 30.24 40.0773 29.9826C40.5633 29.7253 40.979 29.353 41.2882 28.8984C41.5975 28.4437 41.791 27.9203 41.8519 27.3738C41.9128 26.8273 41.8393 26.2742 41.6376 25.7626C42.003 25.6616 42.3488 25.4995 42.6603 25.2834C44.3255 27.2034 45.2447 29.6583 45.25 32.1999ZM31.2685 7.11461C31.523 7.23491 31.8133 7.25542 32.0822 7.17211C32.3511 7.0888 32.579 6.90772 32.7209 6.66461L34.0619 4.37074L35.314 6.24836C35.396 6.37129 35.5014 6.47687 35.6242 6.55906C35.747 6.64126 35.8847 6.69846 36.0296 6.7274C36.1745 6.75633 36.3237 6.75644 36.4687 6.72772C36.6136 6.69899 36.7515 6.642 36.8744 6.55999L37.8273 5.92436L36.6224 10.7472L31.2989 11.5662L30.0422 6.53411L31.2685 7.11461ZM20.5 13.1064L28.4796 9.56261L29.0669 11.9127L25.954 12.392L26.2915 14.615L40.8209 12.3751C40.9686 12.3798 41.114 12.4135 41.2487 12.4743C41.3834 12.5351 41.5048 12.6219 41.606 12.7297C41.7072 12.8374 41.7861 12.9641 41.8384 13.1023C41.8906 13.2406 41.9151 13.3878 41.9104 13.5355C41.9058 13.6833 41.8721 13.8287 41.8112 13.9634C41.7504 14.0981 41.6636 14.2195 41.5559 14.3207C41.4481 14.4218 41.3215 14.5008 41.1832 14.553C41.0449 14.6053 40.8977 14.6298 40.75 14.6251H37.375V16.8751H40.75C41.0484 16.8751 41.3345 16.9936 41.5455 17.2046C41.7565 17.4156 41.875 17.7017 41.875 18.0001C41.875 18.2985 41.7565 18.5846 41.5455 18.7956C41.3345 19.0066 41.0484 19.1251 40.75 19.1251H37.375V21.3751H40.75C41.0484 21.3751 41.3345 21.4936 41.5455 21.7046C41.7565 21.9156 41.875 22.2017 41.875 22.5001C41.875 22.7985 41.7565 23.0846 41.5455 23.2956C41.3345 23.5066 41.0484 23.6251 40.75 23.6251H37.375V25.8751H38.5C38.7984 25.8751 39.0845 25.9936 39.2955 26.2046C39.5065 26.4156 39.625 26.7017 39.625 27.0001C39.625 27.2985 39.5065 27.5846 39.2955 27.7956C39.0845 28.0066 38.7984 28.1251 38.5 28.1251H26.3905L20.5 25.1799V13.1064ZM18.25 27.0001H11.5V11.2501H18.25V27.0001ZM71.125 54.0001V51.7501H65.5C65.5 51.4517 65.3815 51.1656 65.1705 50.9546C64.9595 50.7436 64.6734 50.6251 64.375 50.6251H55.375C55.0766 50.6251 54.7905 50.7436 54.5795 50.9546C54.3685 51.1656 54.25 51.4517 54.25 51.7501V53.5501C52.2938 51.6691 49.684 50.6205 46.9701 50.6251H45.5155C44.6734 50.6229 43.8436 50.8268 43.0984 51.219C42.3533 51.6111 41.7154 52.1797 41.2405 52.8751H34C33.4315 52.8761 32.8726 53.0211 32.3752 53.2965C31.8779 53.5719 31.4585 53.9688 31.156 54.4501L25.5861 49.7476C25.012 49.1197 24.2615 48.6799 23.433 48.486C22.6046 48.2921 21.7369 48.3531 20.9437 48.6609C20.1505 48.9688 19.4689 49.5092 18.9882 50.2112C18.5075 50.9132 18.2502 51.7441 18.25 52.595V52.8121C18.2496 53.8549 18.6356 54.8609 19.3334 55.6359L26.4062 63.494C27.2143 64.3943 28.2017 65.1157 29.3051 65.6119C30.4084 66.1081 31.6034 66.368 32.8131 66.3751L54.25 67.445V69.7501C54.25 70.0485 54.3685 70.3346 54.5795 70.5456C54.7905 70.7566 55.0766 70.8751 55.375 70.8751H64.375C64.6734 70.8751 64.9595 70.7566 65.1705 70.5456C65.3815 70.3346 65.5 70.0485 65.5 69.7501H71.125V67.5001H65.5V54.0001H71.125ZM54.25 65.1927L32.875 64.1251C31.9704 64.1244 31.0759 63.9337 30.2496 63.5655C29.4233 63.1973 28.6835 62.6598 28.078 61.9876L21.0063 54.1306C20.6804 53.7687 20.5001 53.2991 20.5 52.8121V52.595C20.5004 52.1943 20.623 51.8033 20.8513 51.4742C21.0797 51.145 21.403 50.8932 21.7781 50.7525C22.1533 50.6119 22.5624 50.5889 22.9509 50.6867C23.3394 50.7846 23.6889 50.9985 23.9526 51.3001C23.9907 51.3427 24.0317 51.3825 24.0752 51.4194L30.7251 57.0309C30.9004 57.7682 31.3188 58.425 31.9129 58.8956C32.507 59.3662 33.2421 59.6232 34 59.6251H41.875V57.3751H34C33.7016 57.3751 33.4155 57.2566 33.2045 57.0456C32.9935 56.8346 32.875 56.5485 32.875 56.2501C32.875 55.9517 32.9935 55.6656 33.2045 55.4546C33.4155 55.2436 33.7016 55.1251 34 55.1251H41.875C42.085 55.1263 42.2912 55.0686 42.4701 54.9586C42.649 54.8487 42.7936 54.6908 42.8875 54.503C43.1298 54.0133 43.5044 53.6012 43.9689 53.3135C44.4334 53.0258 44.9691 52.8739 45.5155 52.8751H46.9701C48.0578 52.8714 49.1354 53.0832 50.1408 53.4981C51.1462 53.9131 52.0595 54.523 52.828 55.2927C53.3457 56.0558 53.8205 56.8471 54.25 57.6631V65.1927ZM63.25 68.6251H56.5V52.8751H63.25V68.6251Z" fill="#FEBE09"/>
</svg>
