<svg width="72" height="72" viewBox="0 0 72 72" fill="none" xmlns="http://www.w3.org/2000/svg">
<g clip-path="url(#clip0_7073_1213)">
<path d="M60 51.8831L56.9438 50.0521C56.0118 49.4949 54.9463 49.2005 53.8605 49.2001H49.2609C48.3194 49.1985 47.3817 49.3194 46.4714 49.5598L32.6127 53.2801C31.8661 53.4861 31.1799 53.8686 30.6121 54.3953C30.0442 54.922 29.6112 55.5774 29.3496 56.3065L17.1597 49.7117C16.1711 49.1493 15.0142 48.9581 13.8972 49.1726C13.4758 49.2471 13.0672 49.3813 12.6837 49.5712C11.8171 49.9863 11.0979 50.6562 10.6224 51.4911C10.2066 52.2182 9.98783 53.0413 9.9879 53.8789C9.98156 54.7185 10.1977 55.5449 10.6143 56.274C11.0309 57.003 11.6331 57.6088 12.3597 58.0297L34.2071 71.1014C35.1559 71.6889 36.2498 72.0001 37.3657 72.0001H54.2738C55.0288 72.0005 55.777 71.858 56.4791 71.5801L60 70.1896V72.0001H72V48.0001H60V51.8831ZM55.5972 69.3481C55.1769 69.5139 54.7291 69.5994 54.2772 69.6001H37.3657C36.6896 69.5995 36.0271 69.4091 35.4538 69.0505L13.5768 55.9636C13.2116 55.7526 12.9089 55.4487 12.6994 55.0827C12.4898 54.7167 12.3809 54.3018 12.3839 53.8801C12.3856 53.459 12.4964 53.0456 12.7055 52.6801C12.9445 52.2656 13.304 51.9337 13.7361 51.7283C13.926 51.6358 14.128 51.5704 14.3361 51.5339C14.4878 51.5056 14.6418 51.4912 14.7962 51.491C15.2087 51.49 15.6141 51.5977 15.9722 51.8029L29.1902 58.9454C29.2055 59.0186 29.2055 59.0908 29.2248 59.164C29.7933 61.2587 31.6933 62.7136 33.8643 62.716C34.5323 62.6548 35.1938 62.5368 35.8418 62.3632L48.3093 59.0269L47.6906 56.7083L35.2635 60.0299C34.7162 60.1559 34.0101 60.3001 33.8643 60.3124C33.3372 60.3133 32.8244 60.1408 32.4051 59.8213C31.9858 59.5018 31.6834 59.0531 31.5445 58.5446C31.5059 58.3993 31.4831 58.2505 31.4748 58.1005C31.4748 58.1005 31.4655 57.8098 31.4748 57.7079C31.5195 57.2176 31.7124 56.7526 32.0277 56.3745C32.3431 55.9965 32.766 55.7233 33.2403 55.5914L47.093 51.8854C47.8001 51.6961 48.5289 51.6001 49.2609 51.6001H53.8605C54.5121 51.6001 55.1514 51.7771 55.7097 52.1116L60 54.6803V67.6079L55.5972 69.3481ZM62.4 50.4001H69.6V69.6001H62.4V50.4001ZM49.493 9.60005L43.056 3.16354C42.0557 2.15732 40.8656 1.35959 39.5548 0.816556C38.2439 0.273528 36.8384 -0.00400213 35.4195 4.36033e-05H20.3325C19.4013 0.0015734 18.483 0.218368 17.6495 0.633494L14.96 1.97869C14.4211 2.2499 13.822 2.37957 13.2192 2.35549L12 2.31274V4.36033e-05H0V26.4H12V22.8H14.0403L14.7663 23.28C16.798 24.629 19.1629 25.3901 21.6 25.4793V40.8001H72V9.60005H49.493ZM9.6 24H2.4V2.40004H9.6V24ZM16.0946 21.2831L14.7597 20.4H12V4.71394L13.1315 4.75444C14.136 4.79019 15.1335 4.57403 16.0331 4.12564L18.7202 2.78029C19.2208 2.53017 19.7728 2.39999 20.3325 2.40004H35.4192C36.5227 2.39686 37.6159 2.61262 38.6355 3.03483C39.655 3.45704 40.5807 4.07732 41.3589 4.85974L46.0992 9.60005H36.197L33.2843 6.68794L31.5878 8.38429L40.0647 16.8615C41.0063 17.799 41.0093 19.3224 40.0718 20.2647C39.1337 21.2063 37.6103 21.2093 36.6686 20.2718L29.5886 13.1918L28.7486 13.9119C26.4286 15.8819 23.0379 15.9323 20.6601 14.0315L19.9647 13.4678L18.4524 15.3323L19.1555 15.9023C19.8909 16.4901 20.7163 16.9553 21.6 17.28V23.0784C19.6358 22.9913 17.7325 22.3707 16.0946 21.2832V21.2831ZM33.1646 20.1597L34.9752 21.971C36.8549 23.8224 39.8724 23.8254 41.7552 21.9768C39.9938 24.7043 40.6887 28.3343 43.333 30.218C45.9774 32.1018 49.6353 31.5726 51.6375 29.0174C53.6397 26.4615 53.2782 22.7831 50.816 20.6666C48.3545 18.5502 44.663 18.7442 42.4371 21.1067C42.8411 20.4721 43.0876 19.7502 43.156 19.0011C43.2244 18.2519 43.1127 17.4973 42.8303 16.8H58.8998C59.4158 19.8194 61.7807 22.1843 64.8 22.7004V27.6996C61.7807 28.2158 59.4158 30.5807 58.8996 33.6H34.7004C34.1842 30.5807 31.8194 28.2158 28.8 27.6996V22.7004C30.5151 22.4115 32.0665 21.5084 33.1647 20.1597H33.1646ZM43.2 25.2C43.2 23.2119 44.8119 21.6 46.8 21.6C48.7881 21.6 50.4 23.2119 50.4 25.2C50.4 27.1881 48.7881 28.8 46.8 28.8C44.8119 28.8 43.2 27.1881 43.2 25.2ZM69.6 38.4001H24V17.7825C25.9024 17.9254 27.7992 17.4407 29.4 16.4028L31.4472 18.45C31.0032 19.0534 30.4238 19.5441 29.7556 19.8827C29.0874 20.2214 28.3491 20.3986 27.6 20.4H26.4V30H27.6C30.2508 30 32.4 32.1492 32.4 34.8V36H61.2V34.8C61.2 32.1492 63.3492 30 66 30H67.2V20.4H66C63.3492 20.4 61.2 18.2508 61.2 15.6V14.4H40.9968L38.5968 12H69.6V38.4001Z" fill="#FEBE09"/>
</g>
<defs>
<clipPath id="clip0_7073_1213">
<rect width="72" height="72" fill="white"/>
</clipPath>
</defs>
</svg>
