<svg width="72" height="72" viewBox="0 0 72 72" fill="none" xmlns="http://www.w3.org/2000/svg">
<g clip-path="url(#clip0_7073_1061)">
<path d="M19.5871 52.281C19.396 52.2803 19.2067 52.2437 19.0291 52.173C14.2883 50.2942 10.2235 47.0308 7.36431 42.8081C4.50517 38.5855 2.98437 33.5995 3.00012 28.5C3.00012 14.439 14.4391 3 28.5001 3C42.5611 3 54.0001 14.439 54.0001 28.5C54.0001 36.927 49.8301 44.82 42.8491 49.62C42.687 49.7376 42.5031 49.8216 42.308 49.8669C42.113 49.9123 41.9108 49.9182 41.7135 49.8842C41.5162 49.8502 41.3276 49.777 41.159 49.669C40.9904 49.561 40.8451 49.4203 40.7318 49.2552C40.6184 49.0902 40.5392 48.9041 40.4989 48.7079C40.4586 48.5118 40.4579 48.3096 40.497 48.1132C40.5361 47.9168 40.6141 47.7302 40.7265 47.5644C40.8388 47.3987 40.9832 47.2571 41.1511 47.148C44.1825 45.0719 46.6632 42.2894 48.3791 39.0406C50.0949 35.7917 50.9945 32.1741 51.0001 28.5C51.0001 16.092 40.9081 6 28.5001 6C16.0921 6 6.00012 16.092 6.00012 28.5C5.98668 32.9998 7.32894 37.3994 9.85198 41.1254C12.375 44.8513 15.9619 47.731 20.1451 49.389C20.4752 49.5131 20.7507 49.75 20.9229 50.0577C21.0951 50.3654 21.1529 50.7241 21.0861 51.0704C21.0193 51.4166 20.8321 51.7281 20.5578 51.9496C20.2835 52.1712 19.9397 52.2886 19.5871 52.281Z" fill="#FEBE09"/>
<path d="M30 39H22.5C22.1022 39 21.7206 38.842 21.4393 38.5607C21.158 38.2794 21 37.8978 21 37.5C21 37.1022 21.158 36.7206 21.4393 36.4393C21.7206 36.158 22.1022 36 22.5 36H30C30.7724 35.9654 31.5018 35.6343 32.0362 35.0755C32.5706 34.5166 32.8688 33.7732 32.8688 33C32.8688 32.2268 32.5706 31.4834 32.0362 30.9245C31.5018 30.3657 30.7724 30.0346 30 30H27C23.691 30 21 27.309 21 24C21 20.691 23.691 18 27 18H34.5C34.8978 18 35.2794 18.158 35.5607 18.4393C35.842 18.7206 36 19.1022 36 19.5C36 19.8978 35.842 20.2794 35.5607 20.5607C35.2794 20.842 34.8978 21 34.5 21H27C26.2276 21.0346 25.4982 21.3657 24.9638 21.9245C24.4294 22.4834 24.1312 23.2268 24.1312 24C24.1312 24.7732 24.4294 25.5166 24.9638 26.0755C25.4982 26.6343 26.2276 26.9654 27 27H30C33.309 27 36 29.691 36 33C36 36.309 33.309 39 30 39Z" fill="#FEBE09"/>
<path d="M28.5017 21C28.1039 21 27.7223 20.842 27.441 20.5607C27.1597 20.2794 27.0017 19.8978 27.0017 19.5V13.5C27.0017 13.1022 27.1597 12.7206 27.441 12.4393C27.7223 12.158 28.1039 12 28.5017 12C28.8995 12 29.281 12.158 29.5624 12.4393C29.8437 12.7206 30.0017 13.1022 30.0017 13.5V19.5C30.0017 19.8978 29.8437 20.2794 29.5624 20.5607C29.281 20.842 28.8995 21 28.5017 21ZM28.5017 45C28.1039 45 27.7223 44.842 27.441 44.5607C27.1597 44.2794 27.0017 43.8978 27.0017 43.5V37.5C27.0017 37.1022 27.1597 36.7206 27.441 36.4393C27.7223 36.158 28.1039 36 28.5017 36C28.8995 36 29.281 36.158 29.5624 36.4393C29.8437 36.7206 30.0017 37.1022 30.0017 37.5V43.5C30.0017 43.8978 29.8437 44.2794 29.5624 44.5607C29.281 44.842 28.8995 45 28.5017 45ZM1.50169 72C1.17761 71.9995 0.862403 71.8941 0.603246 71.6995C0.344089 71.5049 0.154923 71.2316 0.0640641 70.9205C-0.0267951 70.6095 -0.0144608 70.2773 0.0992208 69.9738C0.212902 69.6703 0.421817 69.4118 0.694693 69.237L33.6947 48.237C33.9825 48.0537 34.3243 47.974 34.6635 48.011C35.0028 48.0481 35.3193 48.1998 35.5607 48.441L46.4987 59.379L69.4367 36.441C69.7196 36.1678 70.0985 36.0166 70.4918 36.02C70.8851 36.0234 71.2613 36.1812 71.5394 36.4593C71.8175 36.7374 71.9753 37.1136 71.9787 37.5069C71.9821 37.9002 71.8309 38.2791 71.5577 38.562L47.5577 62.562C47.2764 62.8432 46.8949 63.0012 46.4972 63.0012C46.0994 63.0012 45.718 62.8432 45.4367 62.562L34.2857 51.411L2.30869 71.766C2.06769 71.9198 1.78756 72.001 1.50169 72Z" fill="#FEBE09"/>
<path d="M70.5 51C70.1022 51 69.7206 50.842 69.4393 50.5607C69.158 50.2794 69 49.8978 69 49.5V39H58.5C58.1022 39 57.7206 38.842 57.4393 38.5607C57.158 38.2794 57 37.8978 57 37.5C57 37.1022 57.158 36.7206 57.4393 36.4393C57.7206 36.158 58.1022 36 58.5 36H70.5C70.8978 36 71.2794 36.158 71.5607 36.4393C71.842 36.7206 72 37.1022 72 37.5V49.5C72 49.8978 71.842 50.2794 71.5607 50.5607C71.2794 50.842 70.8978 51 70.5 51Z" fill="#FEBE09"/>
</g>
<defs>
<clipPath id="clip0_7073_1061">
<rect width="72" height="72" fill="white"/>
</clipPath>
</defs>
</svg>
