<svg width="73" height="72" viewBox="0 0 73 72" fill="none" xmlns="http://www.w3.org/2000/svg">
<g clip-path="url(#clip0_7073_884)">
<path d="M40.5157 66.9141H31.9844C31.361 66.9141 30.8594 66.4126 30.8594 65.7891C30.8594 65.1656 31.3609 64.6641 31.9844 64.6641H40.5157C41.1391 64.6641 41.6407 65.1656 41.6407 65.7891C41.6407 66.4126 41.1391 66.9141 40.5157 66.9141Z" fill="#FEBE09"/>
<path d="M53.3593 72H19.1406C16.9703 72 15.2031 70.2328 15.2031 68.0625V3.93749C15.2031 1.76717 16.9703 0 19.1406 0H53.3593C55.5297 0 57.2968 1.76717 57.2968 3.93749V68.0625C57.297 70.2328 55.5297 72 53.3593 72ZM19.1406 2.24993C18.919 2.2498 18.6995 2.29336 18.4947 2.37813C18.2899 2.46289 18.1038 2.58719 17.947 2.74392C17.7903 2.90065 17.666 3.08673 17.5812 3.29154C17.4965 3.49634 17.4529 3.71584 17.4531 3.93749V68.0625C17.4529 68.2842 17.4965 68.5037 17.5812 68.7085C17.666 68.9133 17.7903 69.0994 17.947 69.2561C18.1038 69.4128 18.2899 69.5371 18.4947 69.6219C18.6995 69.7066 18.919 69.7502 19.1406 69.7501H53.3593C53.581 69.7502 53.8005 69.7066 54.0053 69.6219C54.2101 69.5371 54.3962 69.4128 54.5529 69.2561C54.7096 69.0994 54.8339 68.9133 54.9187 68.7085C55.0035 68.5037 55.047 68.2842 55.0469 68.0625V3.93749C55.047 3.71584 55.0035 3.49634 54.9187 3.29154C54.8339 3.08673 54.7096 2.90065 54.5529 2.74392C54.3962 2.58719 54.2101 2.46289 54.0053 2.37813C53.8005 2.29336 53.581 2.2498 53.3593 2.24993H19.1406Z" fill="#FEBE09"/>
<path d="M56.1719 61.8282H16.3282C16.1803 61.8286 16.0339 61.7997 15.8972 61.7433C15.7606 61.6869 15.6364 61.604 15.5319 61.4995C15.4273 61.395 15.3445 61.2708 15.288 61.1341C15.2316 60.9975 15.2028 60.851 15.2031 60.7032V9.1829C15.2028 9.03506 15.2316 8.8886 15.288 8.75195C15.3445 8.61529 15.4273 8.49113 15.5319 8.38659C15.6364 8.28205 15.7606 8.19919 15.8972 8.14278C16.0339 8.08637 16.1803 8.05751 16.3282 8.05786H56.1719C56.3198 8.05751 56.4662 8.08637 56.6029 8.14278C56.7395 8.19919 56.8637 8.28205 56.9682 8.38659C57.0728 8.49113 57.1556 8.61529 57.2121 8.75195C57.2685 8.8886 57.2973 9.03506 57.297 9.1829V60.7033C57.2973 60.8512 57.2684 60.9976 57.212 61.1342C57.1556 61.2709 57.0727 61.395 56.9682 61.4996C56.8637 61.6041 56.7395 61.6869 56.6028 61.7433C56.4662 61.7997 56.3198 61.8286 56.1719 61.8282ZM17.4531 59.5783H55.0469V10.3079H17.4531V59.5783Z" fill="#FEBE09"/>
<path d="M39.9582 35.4657C39.6536 35.0157 39.1849 34.6407 38.5613 34.3547C38.1535 34.1673 37.4129 33.9562 36.3535 33.7173C35.0785 33.4267 34.7036 33.2158 34.591 33.1126C34.4176 32.9579 34.3379 32.7705 34.3379 32.5267C34.3379 32.2361 34.4645 32.0016 34.7317 31.7861C35.0129 31.561 35.5191 31.4392 36.1942 31.4392C36.8457 31.4392 37.3333 31.5705 37.6473 31.8237C37.8582 31.9971 38.013 32.2409 38.102 32.5409C38.2332 32.9909 38.6551 33.2815 39.1145 33.244H39.1285C39.4238 33.2206 39.6957 33.0706 39.8644 32.8268C40.0332 32.583 40.0848 32.283 40.0051 32.0018C39.9166 31.6868 39.779 31.3878 39.5972 31.1158C39.2645 30.6097 38.7862 30.2206 38.1722 29.9627C37.5816 29.7142 36.8972 29.5876 36.1378 29.5876C35.444 29.5876 34.8019 29.7095 34.2254 29.9438C33.6254 30.1923 33.166 30.5625 32.8472 31.0455C32.5331 31.5282 32.3737 32.0533 32.3737 32.6111C32.3737 33.1221 32.505 33.5908 32.7675 34.008C33.0254 34.4206 33.419 34.7627 33.9347 35.0346C34.3145 35.2361 34.9706 35.4518 35.8847 35.6674C36.9627 35.9252 37.3893 36.0612 37.5582 36.1267C37.8909 36.2533 38.1394 36.4127 38.2707 36.5814C38.3973 36.7407 38.4581 36.9329 38.4581 37.1533C38.4581 37.3737 38.3879 37.5798 38.252 37.7673C38.1113 37.9594 37.8863 38.1188 37.5816 38.236C37.2535 38.3626 36.8644 38.4282 36.4238 38.4282C35.927 38.4282 35.4768 38.3437 35.0879 38.1703C34.7128 38.0063 34.441 37.7999 34.2722 37.5516C34.1643 37.3922 34.08 37.2001 34.019 36.9797C33.8924 36.5157 33.4518 36.211 32.9784 36.2532C32.6925 36.2766 32.4346 36.4266 32.2659 36.6563C32.1822 36.7719 32.1243 36.9041 32.096 37.044C32.0677 37.1839 32.0697 37.3283 32.1019 37.4673C32.1955 37.8729 32.3606 38.2586 32.5893 38.6064C32.9644 39.1783 33.4846 39.6095 34.1362 39.8908C34.769 40.1627 35.5566 40.3033 36.4753 40.3033C37.2159 40.3033 37.8909 40.1627 38.4862 39.8908C39.1003 39.6095 39.5785 39.2064 39.9066 38.7002C40.2394 38.1892 40.4081 37.6315 40.4081 37.0502C40.4176 36.4548 40.2629 35.9251 39.9582 35.4657Z" fill="#FEBE09"/>
<path d="M36.25 41.7468C36.1022 41.7472 35.9557 41.7183 35.8191 41.6619C35.6824 41.6055 35.5583 41.5227 35.4537 41.4181C35.3492 41.3136 35.2663 41.1894 35.2099 41.0528C35.1535 40.9161 35.1246 40.7696 35.125 40.6218V40.0125C35.125 39.3891 35.6265 38.8874 36.25 38.8874C36.8736 38.8874 37.3751 39.3889 37.3751 40.0125V40.6218C37.3754 40.7696 37.3466 40.9161 37.2902 41.0528C37.2338 41.1894 37.1509 41.3136 37.0464 41.4181C36.9418 41.5227 36.8177 41.6055 36.681 41.6619C36.5443 41.7183 36.3979 41.7472 36.25 41.7468ZM36.25 30.9937C36.1022 30.9941 35.9557 30.9652 35.8191 30.9088C35.6824 30.8524 35.5583 30.7695 35.4537 30.665C35.3492 30.5604 35.2663 30.4363 35.2099 30.2996C35.1535 30.163 35.1246 30.0165 35.125 29.8687V29.2593C35.125 28.6359 35.6265 28.1343 36.25 28.1343C36.8736 28.1343 37.3751 28.6358 37.3751 29.2593V29.8687C37.3754 30.0165 37.3466 30.163 37.2902 30.2996C37.2338 30.4363 37.1509 30.5604 37.0464 30.665C36.9418 30.7695 36.8177 30.8524 36.681 30.9088C36.5443 30.9652 36.3979 30.9941 36.25 30.9937Z" fill="#FEBE09"/>
<path d="M36.2493 46.1673C33.2493 46.1673 30.4322 45.0001 28.3133 42.8813C26.1945 40.7625 25.0273 37.9454 25.0273 34.9453C25.0273 31.9453 26.1945 29.1281 28.3133 27.0093C30.4322 24.8858 33.2493 23.7187 36.2493 23.7187C39.2494 23.7187 42.0665 24.8858 44.1853 27.0046C46.3041 29.1235 47.4713 31.9406 47.4713 34.9406C47.4713 37.9407 46.3041 40.7578 44.1853 42.8766C42.0665 45.0001 39.2493 46.1673 36.2493 46.1673ZM36.2493 25.9689C31.2993 25.9689 27.2774 29.9955 27.2774 34.9408C27.2774 39.8861 31.2993 43.9174 36.2493 43.9174C41.1993 43.9174 45.2213 39.8908 45.2213 34.9408C45.2213 29.9908 41.1993 25.9689 36.2493 25.9689ZM26.8977 23.5922C26.7498 23.5926 26.6034 23.5637 26.4667 23.5073C26.3301 23.4509 26.2059 23.368 26.1014 23.2635C25.9968 23.1589 25.914 23.0348 25.8576 22.8981C25.8011 22.7615 25.7723 22.615 25.7726 22.4672V19.2469C25.7726 17.5922 27.1179 16.2468 28.7727 16.2468H45.6009C45.7487 16.2465 45.8952 16.2753 46.0318 16.3317C46.1685 16.3882 46.2926 16.471 46.3972 16.5756C46.5017 16.6801 46.5846 16.8043 46.641 16.9409C46.6974 17.0776 46.7263 17.224 46.7259 17.3719C46.7263 17.5197 46.6974 17.6662 46.641 17.8028C46.5846 17.9395 46.5017 18.0636 46.3972 18.1682C46.2926 18.2727 46.1685 18.3556 46.0318 18.412C45.8952 18.4684 45.7487 18.4973 45.6009 18.4969H28.7727C28.3602 18.4969 28.0227 18.8344 28.0227 19.2469V22.4672C28.0227 23.086 27.5212 23.5922 26.8977 23.5922Z" fill="#FEBE09"/>
<path d="M42.372 21.7266C42.2241 21.7269 42.0777 21.6981 41.9409 21.6419C41.8042 21.5856 41.6799 21.5029 41.5752 21.3985C41.1346 20.9579 41.1346 20.2453 41.5752 19.8094L44.008 17.3766L41.5237 14.8922C41.0831 14.4516 41.0831 13.7391 41.5237 13.3031C41.9643 12.8625 42.6768 12.8625 43.1128 13.3031L46.3894 16.5798C46.6003 16.7906 46.7175 17.0766 46.7175 17.3766C46.7175 17.6765 46.6003 17.9625 46.3894 18.1734L43.1597 21.403C42.9486 21.6187 42.6579 21.7266 42.372 21.7266ZM43.7266 53.639H26.8985C26.2751 53.639 25.7734 53.1375 25.7734 52.514C25.7734 51.8904 26.2749 51.3889 26.8985 51.3889H43.7266C44.1392 51.3889 44.4766 51.0515 44.4766 50.639V47.4187C44.4763 47.2708 44.5051 47.1244 44.5615 46.9877C44.6179 46.8511 44.7008 46.7269 44.8053 46.6224C44.9099 46.5178 45.034 46.435 45.1707 46.3785C45.3074 46.3221 45.4538 46.2933 45.6017 46.2936C45.7495 46.2933 45.896 46.3221 46.0326 46.3785C46.1693 46.435 46.2934 46.5178 46.398 46.6224C46.5025 46.7269 46.5854 46.8511 46.6418 46.9877C46.6982 47.1244 46.7271 47.2708 46.7267 47.4187V50.639C46.7267 52.2891 45.3814 53.639 43.7266 53.639Z" fill="#FEBE09"/>
<path d="M30.175 56.9158C30.0271 56.9162 29.8806 56.8874 29.7439 56.8311C29.6072 56.7748 29.4829 56.6921 29.3782 56.5877L26.1015 53.3111C25.9971 53.2064 25.9144 53.0821 25.8581 52.9453C25.8018 52.8086 25.773 52.662 25.7734 52.5142C25.7734 52.2142 25.8907 51.9282 26.1015 51.7174L29.3312 48.4877C29.7718 48.0471 30.4843 48.0471 30.9203 48.4877C31.3609 48.9283 31.3609 49.6408 30.9203 50.0768L28.4874 52.5096L30.9718 54.994C31.4124 55.4346 31.4124 56.1471 30.9718 56.5831C30.8675 56.6884 30.7434 56.7721 30.6067 56.8292C30.4699 56.8863 30.3232 56.9157 30.175 56.9158Z" fill="#FEBE09"/>
</g>
<defs>
<clipPath id="clip0_7073_884">
<rect width="72" height="72" fill="white" transform="translate(0.25)"/>
</clipPath>
</defs>
</svg>
