<svg width="72" height="72" viewBox="0 0 72 72" fill="none" xmlns="http://www.w3.org/2000/svg">
<path d="M13.5 36C14.3514 36.0015 15.2022 35.9538 16.0481 35.8571C16.1978 35.8439 16.3434 35.8007 16.4761 35.7303C16.6089 35.6599 16.7262 35.5635 16.8211 35.447C16.916 35.3305 16.9866 35.1961 17.0288 35.0519C17.0709 34.9076 17.0837 34.7564 17.0664 34.6071C17.0491 34.4578 17.0021 34.3135 16.9281 34.1827C16.8541 34.0519 16.7547 33.9372 16.6356 33.8454C16.5166 33.7537 16.3804 33.6867 16.235 33.6485C16.0897 33.6103 15.9381 33.6016 15.7894 33.6229C15.0293 33.7091 14.2649 33.7515 13.5 33.75C8.00663 33.75 4.5 31.7509 4.5 30.375V27.072C7.23689 28.6264 10.3552 29.381 13.5 29.25C16.6446 29.3814 19.763 28.6271 22.5 27.0731V30.375C22.5 30.6734 22.6185 30.9595 22.8295 31.1705C23.0405 31.3815 23.3266 31.5 23.625 31.5C23.9234 31.5 24.2095 31.3815 24.4205 31.1705C24.6315 30.9595 24.75 30.6734 24.75 30.375V23.625C24.75 20.4188 19.9136 18 13.5 18C7.08637 18 2.25 20.4188 2.25 23.625V64.125C2.25 67.3313 7.08637 69.75 13.5 69.75C14.2966 69.7486 15.0926 69.7073 15.885 69.6263C16.032 69.6113 16.1746 69.5676 16.3047 69.4976C16.4348 69.4275 16.5498 69.3325 16.6432 69.218C16.7366 69.1036 16.8066 68.9718 16.849 68.8303C16.8915 68.6887 16.9057 68.5402 16.8907 68.3932C16.8758 68.2462 16.8321 68.1036 16.7621 67.9735C16.692 67.8434 16.597 67.7284 16.4825 67.635C16.3681 67.5416 16.2363 67.4717 16.0948 67.4292C15.9532 67.3868 15.8047 67.3726 15.6578 67.3875C14.9409 67.4615 14.2207 67.499 13.5 67.5C8.00663 67.5 4.5 65.5009 4.5 64.125V60.8231C7.237 62.3771 10.3554 63.1314 13.5 63C13.905 63 14.2988 62.9887 14.6925 62.964C14.9864 62.9408 15.2594 62.8031 15.4528 62.5807C15.6463 62.3582 15.7446 62.0687 15.7268 61.7744C15.709 61.4802 15.5763 61.2047 15.3574 61.0072C15.1386 60.8097 14.8509 60.7061 14.5564 60.7185C14.2076 60.7399 13.8589 60.75 13.4989 60.75C8.0055 60.75 4.49888 58.7509 4.49888 57.375V54.0731C7.23621 55.6273 10.355 56.3816 13.5 56.25C13.905 56.25 14.2988 56.2387 14.6925 56.214C14.9864 56.1908 15.2594 56.0531 15.4528 55.8307C15.6463 55.6082 15.7446 55.3187 15.7268 55.0244C15.709 54.7302 15.5763 54.4547 15.3574 54.2572C15.1386 54.0597 14.8509 53.9561 14.5564 53.9685C14.2076 53.9899 13.8589 54 13.4989 54C8.0055 54 4.49888 52.0009 4.49888 50.625V47.3231C7.23621 48.8773 10.355 49.6316 13.5 49.5C13.905 49.5 14.2988 49.4887 14.6925 49.464C14.9864 49.4408 15.2594 49.3031 15.4528 49.0807C15.6463 48.8582 15.7446 48.5687 15.7268 48.2744C15.709 47.9802 15.5763 47.7047 15.3574 47.5072C15.1386 47.3097 14.8509 47.2061 14.5564 47.2185C14.2076 47.2399 13.8589 47.25 13.4989 47.25C8.0055 47.25 4.49888 45.2509 4.49888 43.875V40.5731C7.23621 42.1273 10.355 42.8816 13.5 42.75C13.905 42.75 14.2988 42.7387 14.6925 42.714C14.9864 42.6908 15.2594 42.5531 15.4528 42.3307C15.6463 42.1082 15.7446 41.8187 15.7268 41.5244C15.709 41.2302 15.5763 40.9547 15.3574 40.7572C15.1386 40.5597 14.8509 40.4561 14.5564 40.4685C14.2076 40.4899 13.8589 40.5 13.4989 40.5C8.0055 40.5 4.49888 38.5009 4.49888 37.125V33.822C7.23609 35.3766 10.3549 36.1312 13.5 36ZM13.5 20.25C18.9934 20.25 22.5 22.2491 22.5 23.625C22.5 25.0009 18.9934 27 13.5 27C8.00663 27 4.5 25.0009 4.5 23.625C4.5 22.2491 8.00663 20.25 13.5 20.25ZM64.125 33.75H23.625C22.1337 33.7518 20.704 34.345 19.6495 35.3995C18.595 36.454 18.0018 37.8837 18 39.375V64.125C18.0018 65.6163 18.595 67.046 19.6495 68.1005C20.704 69.155 22.1337 69.7482 23.625 69.75H64.125C65.6163 69.7482 67.046 69.155 68.1005 68.1005C69.155 67.046 69.7482 65.6163 69.75 64.125V39.375C69.7482 37.8837 69.155 36.454 68.1005 35.3995C67.046 34.345 65.6163 33.7518 64.125 33.75ZM52.875 40.5H58.6125C58.835 41.5801 59.3692 42.5713 60.1489 43.3511C60.9287 44.1308 61.9199 44.665 63 44.8875V54.1125C61.9199 54.335 60.9287 54.8692 60.1489 55.6489C59.3692 56.4287 58.835 57.4199 58.6125 58.5H52.875V40.5ZM34.875 67.5H23.625C22.7302 67.4991 21.8722 67.1432 21.2395 66.5105C20.6068 65.8778 20.2509 65.0198 20.25 64.125V64.0957C21.2181 64.8401 22.4039 65.2456 23.625 65.25H34.875V67.5ZM34.875 58.5H29.1375C28.915 57.4199 28.3808 56.4287 27.6011 55.6489C26.8213 54.8692 25.8301 54.335 24.75 54.1125V44.8875C25.8301 44.665 26.8213 44.1308 27.6011 43.3511C28.3808 42.5713 28.915 41.5801 29.1375 40.5H34.875V58.5ZM34.875 38.25H28.125C27.8266 38.25 27.5405 38.3685 27.3295 38.5795C27.1185 38.7905 27 39.0766 27 39.375C26.9991 40.2698 26.6432 41.1278 26.0105 41.7605C25.3778 42.3932 24.5198 42.7491 23.625 42.75C23.3266 42.75 23.0405 42.8685 22.8295 43.0795C22.6185 43.2905 22.5 43.5766 22.5 43.875V55.125C22.5 55.4234 22.6185 55.7095 22.8295 55.9205C23.0405 56.1315 23.3266 56.25 23.625 56.25C24.5198 56.2509 25.3778 56.6068 26.0105 57.2395C26.6432 57.8722 26.9991 58.7302 27 59.625C27 59.9234 27.1185 60.2095 27.3295 60.4205C27.5405 60.6315 27.8266 60.75 28.125 60.75H34.875V63H23.625C22.7302 62.9991 21.8722 62.6432 21.2395 62.0105C20.6068 61.3778 20.2509 60.5198 20.25 59.625V39.375C20.2509 38.4802 20.6068 37.6222 21.2395 36.9895C21.8722 36.3568 22.7302 36.0009 23.625 36H34.875V38.25ZM50.625 67.5H37.125V36H50.625V67.5ZM67.5 64.125C67.4991 65.0198 67.1432 65.8778 66.5105 66.5105C65.8778 67.1432 65.0198 67.4991 64.125 67.5H52.875V65.25H64.125C65.3461 65.2456 66.5319 64.8401 67.5 64.0957V64.125ZM67.5 59.625C67.4991 60.5198 67.1432 61.3778 66.5105 62.0105C65.8778 62.6432 65.0198 62.9991 64.125 63H52.875V60.75H59.625C59.9234 60.75 60.2095 60.6315 60.4205 60.4205C60.6315 60.2095 60.75 59.9234 60.75 59.625C60.7509 58.7302 61.1068 57.8722 61.7395 57.2395C62.3722 56.6068 63.2302 56.2509 64.125 56.25C64.4234 56.25 64.7095 56.1315 64.9205 55.9205C65.1315 55.7095 65.25 55.4234 65.25 55.125V43.875C65.25 43.5766 65.1315 43.2905 64.9205 43.0795C64.7095 42.8685 64.4234 42.75 64.125 42.75C63.2302 42.7491 62.3722 42.3932 61.7395 41.7605C61.1068 41.1278 60.7509 40.2698 60.75 39.375C60.75 39.0766 60.6315 38.7905 60.4205 38.5795C60.2095 38.3685 59.9234 38.25 59.625 38.25H52.875V36H64.125C65.0198 36.0009 65.8778 36.3568 66.5105 36.9895C67.1432 37.6222 67.4991 38.4802 67.5 39.375V59.625ZM46.125 54.5625C46.1244 54.1151 45.9464 53.6863 45.6301 53.3699C45.3137 53.0536 44.8849 52.8756 44.4375 52.875H43.3125C42.3167 52.879 41.3565 52.5047 40.6261 51.8277C39.8957 51.1508 39.4497 50.2217 39.3783 49.2284C39.3068 48.2352 39.6152 47.2518 40.2412 46.4773C40.8671 45.7027 41.7638 45.1948 42.75 45.0562V43.875C42.75 43.5766 42.8685 43.2905 43.0795 43.0795C43.2905 42.8685 43.5766 42.75 43.875 42.75C44.1734 42.75 44.4595 42.8685 44.6705 43.0795C44.8815 43.2905 45 43.5766 45 43.875V45H47.25C47.5484 45 47.8345 45.1185 48.0455 45.3295C48.2565 45.5405 48.375 45.8266 48.375 46.125C48.375 46.4234 48.2565 46.7095 48.0455 46.9205C47.8345 47.1315 47.5484 47.25 47.25 47.25H43.3125C42.8649 47.25 42.4357 47.4278 42.1193 47.7443C41.8028 48.0607 41.625 48.4899 41.625 48.9375C41.625 49.3851 41.8028 49.8143 42.1193 50.1307C42.4357 50.4472 42.8649 50.625 43.3125 50.625H44.4375C45.4333 50.621 46.3935 50.9953 47.1239 51.6723C47.8543 52.3492 48.3003 53.2783 48.3717 54.2716C48.4432 55.2648 48.1348 56.2482 47.5088 57.0227C46.8829 57.7973 45.9862 58.3052 45 58.4438V59.625C45 59.9234 44.8815 60.2095 44.6705 60.4205C44.4595 60.6315 44.1734 60.75 43.875 60.75C43.5766 60.75 43.2905 60.6315 43.0795 60.4205C42.8685 60.2095 42.75 59.9234 42.75 59.625V58.5H40.5C40.2016 58.5 39.9155 58.3815 39.7045 58.1705C39.4935 57.9595 39.375 57.6734 39.375 57.375C39.375 57.0766 39.4935 56.7905 39.7045 56.5795C39.9155 56.3685 40.2016 56.25 40.5 56.25H44.4375C44.8849 56.2494 45.3137 56.0714 45.6301 55.7551C45.9464 55.4387 46.1244 55.0099 46.125 54.5625ZM51.75 23.625C51.75 22.5125 51.4201 21.4249 50.802 20.4999C50.1839 19.5749 49.3054 18.8539 48.2776 18.4282C47.2498 18.0024 46.1188 17.891 45.0276 18.1081C43.9365 18.3251 42.9342 18.8609 42.1475 19.6475C41.3609 20.4342 40.8251 21.4365 40.6081 22.5276C40.391 23.6188 40.5024 24.7498 40.9282 25.7776C41.3539 26.8054 42.0749 27.6839 42.9999 28.302C43.9249 28.9201 45.0125 29.25 46.125 29.25C47.6163 29.2482 49.046 28.655 50.1005 27.6005C51.155 26.546 51.7482 25.1163 51.75 23.625ZM42.75 23.625C42.75 22.9575 42.9479 22.305 43.3188 21.75C43.6896 21.1949 44.2167 20.7624 44.8334 20.5069C45.4501 20.2515 46.1287 20.1846 46.7834 20.3148C47.4381 20.4451 48.0395 20.7665 48.5115 21.2385C48.9835 21.7105 49.3049 22.3119 49.4352 22.9666C49.5654 23.6213 49.4985 24.2999 49.2431 24.9166C48.9876 25.5333 48.5551 26.0604 48 26.4312C47.445 26.8021 46.7925 27 46.125 27C45.2302 26.9991 44.3722 26.6432 43.7395 26.0105C43.1068 25.3778 42.7509 24.5198 42.75 23.625ZM69.75 20.25V27C69.75 27.2089 69.6918 27.4137 69.582 27.5914C69.4721 27.7692 69.315 27.9128 69.1281 28.0062C68.9412 28.0997 68.732 28.1392 68.524 28.1205C68.3159 28.1017 68.1171 28.0254 67.95 27.9L65.25 25.875V30.375C65.25 30.6734 65.1315 30.9595 64.9205 31.1705C64.7095 31.3815 64.4234 31.5 64.125 31.5C63.8266 31.5 63.5405 31.3815 63.3295 31.1705C63.1185 30.9595 63 30.6734 63 30.375V24.1875L46.125 11.5312L29.25 24.1875V30.375C29.25 30.6734 29.1315 30.9595 28.9205 31.1705C28.7095 31.3815 28.4234 31.5 28.125 31.5C27.8266 31.5 27.5405 31.3815 27.3295 31.1705C27.1185 30.9595 27 30.6734 27 30.375V23.625C26.9998 23.4503 27.0404 23.278 27.1185 23.1218C27.1967 22.9655 27.3102 22.8297 27.45 22.725L45.45 9.225C45.6447 9.07895 45.8816 9 46.125 9C46.3684 9 46.6053 9.07895 46.8 9.225L67.5 24.75V20.8125L46.125 4.78125L26.55 19.4625C26.3113 19.6415 26.0113 19.7184 25.7159 19.6762C25.4205 19.634 25.154 19.4762 24.975 19.2375C24.796 18.9988 24.7191 18.6988 24.7613 18.4034C24.8035 18.108 24.9613 17.8415 25.2 17.6625L45.45 2.475C45.6447 2.32895 45.8816 2.25 46.125 2.25C46.3684 2.25 46.6053 2.32895 46.8 2.475L69.3 19.35C69.4398 19.4547 69.5533 19.5905 69.6315 19.7468C69.7096 19.903 69.7502 20.0753 69.75 20.25Z" fill="#FEBE09"/>
</svg>
