<svg width="72" height="72" viewBox="0 0 72 72" fill="none" xmlns="http://www.w3.org/2000/svg">
<path d="M47.4068 49.8242C35.1668 49.8242 25.2148 39.8722 25.2148 27.6322C25.2148 15.3922 35.1668 5.44019 47.4068 5.44019C59.6468 5.44019 69.5988 15.3922 69.5988 27.6322C69.5988 39.8722 59.6308 49.8242 47.4068 49.8242ZM47.4068 7.04019C36.0628 7.04019 26.8148 16.2722 26.8148 27.6322C26.8148 38.9922 36.0468 48.2242 47.4068 48.2242C58.7668 48.2242 67.9988 38.9922 67.9988 27.6322C67.9988 16.2722 58.7508 7.04019 47.4068 7.04019Z" fill="#FEBE09"/>
<path d="M31.2638 26.4161H31.1678C30.7358 26.3681 30.4158 25.9681 30.4638 25.5201C31.1038 20.3041 34.2078 15.6001 38.7358 12.9281C39.1198 12.7041 39.5998 12.8321 39.8398 13.2161C40.0638 13.6001 39.9358 14.0801 39.5518 14.3041C35.4398 16.7361 32.6398 20.9921 32.0478 25.7121C31.9998 26.1121 31.6638 26.4161 31.2638 26.4161ZM53.1198 56.8801H41.6958C41.4078 56.8801 41.1518 56.7201 41.0078 56.4801C40.8638 56.2401 40.8638 55.9201 41.0078 55.6801L45.1038 48.5601C45.3278 48.1761 45.8078 48.0481 46.1918 48.2721C46.5758 48.4961 46.7038 48.9761 46.4798 49.3601L43.0718 55.2801H51.7278L48.3198 49.3601C48.0958 48.9761 48.2398 48.4801 48.6078 48.2721C48.9918 48.0481 49.4878 48.1921 49.6958 48.5601L53.7918 55.6801C53.9358 55.9201 53.9358 56.2401 53.7918 56.4801C53.6638 56.7201 53.4078 56.8801 53.1198 56.8801Z" fill="#FEBE09"/>
<path d="M47.4075 71.8881C46.9595 71.8881 46.6075 71.5361 46.6075 71.0881V56.0801C46.6075 55.6321 46.9595 55.2801 47.4075 55.2801C47.8555 55.2801 48.2075 55.6321 48.2075 56.0801V71.0881C48.2075 71.5201 47.8395 71.8881 47.4075 71.8881ZM19.5515 36.5601C9.79147 36.5601 1.85547 28.6241 1.85547 18.8641C1.85547 9.1041 9.79147 1.1521 19.5515 1.1521C25.9995 1.1521 31.9355 4.6561 35.0555 10.3041C35.2635 10.6881 35.1355 11.1841 34.7355 11.3921C34.3515 11.6001 33.8555 11.4721 33.6475 11.0721C30.8155 5.9361 25.4075 2.7521 19.5515 2.7521C10.6715 2.7521 3.45547 9.9681 3.45547 18.8481C3.45547 27.7281 10.6715 34.9441 19.5515 34.9441C22.0475 34.9441 24.4315 34.4001 26.6395 33.2961C27.0395 33.1041 27.5195 33.2641 27.7115 33.6641C27.9035 34.0641 27.7435 34.5441 27.3435 34.7361C24.9115 35.9521 22.2875 36.5601 19.5515 36.5601Z" fill="#FEBE09"/>
<path d="M6.79998 18.064H6.70398C6.27198 18.016 5.95198 17.616 6.01598 17.168C6.52798 13.008 9.00798 9.23201 12.64 7.08801C13.024 6.86401 13.504 6.99201 13.728 7.37601C13.952 7.76001 13.824 8.24001 13.44 8.46401C10.24 10.352 8.04798 13.68 7.59998 17.36C7.53598 17.76 7.18398 18.064 6.79998 18.064ZM24.064 42.128H15.04C14.752 42.128 14.496 41.968 14.352 41.728C14.208 41.488 14.208 41.168 14.352 40.928L17.584 35.296C17.808 34.912 18.288 34.784 18.672 35.008C19.056 35.232 19.184 35.712 18.96 36.096L16.416 40.528H22.672L20.128 36.096C19.904 35.712 20.032 35.232 20.416 35.008C20.8 34.784 21.28 34.912 21.504 35.296L24.736 40.928C24.88 41.168 24.88 41.488 24.736 41.728C24.608 41.984 24.352 42.128 24.064 42.128Z" fill="#FEBE09"/>
<path d="M19.552 53.9841C19.104 53.9841 18.752 53.6321 18.752 53.1841V41.3281C18.752 40.8801 19.104 40.5281 19.552 40.5281C20 40.5281 20.352 40.8801 20.352 41.3281V53.1841C20.352 53.6321 19.984 53.9841 19.552 53.9841ZM47.408 34.7041C45.232 34.7041 43.472 32.9441 43.472 30.7681C43.472 30.3201 43.824 29.9681 44.272 29.9681C44.72 29.9681 45.072 30.3201 45.072 30.7681C45.072 32.0481 46.112 33.1041 47.408 33.1041C48.688 33.1041 49.744 32.0641 49.744 30.7681C49.744 29.4721 48.704 28.4321 47.408 28.4321C45.232 28.4321 43.472 26.6721 43.472 24.4961C43.472 22.3201 45.232 20.5601 47.408 20.5601C49.584 20.5601 51.344 22.3201 51.344 24.4961C51.344 24.9441 50.992 25.2961 50.544 25.2961C50.096 25.2961 49.744 24.9441 49.744 24.4961C49.744 23.2161 48.704 22.1601 47.408 22.1601C46.128 22.1601 45.072 23.2001 45.072 24.4961C45.072 25.7761 46.112 26.8321 47.408 26.8321C49.584 26.8321 51.344 28.5921 51.344 30.7681C51.344 32.9441 49.568 34.7041 47.408 34.7041Z" fill="#FEBE09"/>
<path d="M47.4074 35.68C46.9594 35.68 46.6074 35.328 46.6074 34.88V20.384C46.6074 19.936 46.9594 19.584 47.4074 19.584C47.8554 19.584 48.2074 19.936 48.2074 20.384V34.88C48.2074 35.328 47.8394 35.68 47.4074 35.68Z" fill="#FEBE09"/>
<path d="M47.4067 39.984C40.5907 39.984 35.0547 34.448 35.0547 27.632C35.0547 20.816 40.5907 15.28 47.4067 15.28C54.2227 15.28 59.7587 20.816 59.7587 27.632C59.7587 34.448 54.2067 39.984 47.4067 39.984ZM47.4067 16.88C41.4867 16.88 36.6547 21.696 36.6547 27.632C36.6547 33.568 41.4707 38.384 47.4067 38.384C53.3427 38.384 58.1587 33.568 58.1587 27.632C58.1587 21.696 53.3267 16.88 47.4067 16.88Z" fill="#FEBE09"/>
</svg>
