<svg width="72" height="72" viewBox="0 0 72 72" fill="none" xmlns="http://www.w3.org/2000/svg">
<path d="M47.813 34.875H46.319C45.7464 30.9105 42.1835 29.8125 40.2193 29.8125C37.2009 29.8125 36.0309 32.4495 35.1939 34.875H27.9962C28.2932 33.7016 29.1752 32.0625 31.7818 32.0625C32.0801 32.0625 32.3663 31.944 32.5773 31.733C32.7883 31.522 32.9068 31.2359 32.9068 30.9375C32.9068 30.6391 32.7883 30.353 32.5773 30.142C32.3663 29.931 32.0801 29.8125 31.7818 29.8125C27.653 29.8125 26.0927 32.6891 25.7034 34.875H24.188C23.8897 34.875 23.6035 34.9935 23.3925 35.2045C23.1816 35.4155 23.063 35.7016 23.063 36C23.063 36.2984 23.1816 36.5845 23.3925 36.7955C23.6035 37.0065 23.8897 37.125 24.188 37.125H25.7034C26.0927 39.3109 27.6542 42.1875 31.7818 42.1875C34.8002 42.1875 35.9702 39.5505 36.8072 37.125H44.0285C43.4042 39.8081 40.5793 39.9341 40.2137 39.9375C39.9153 39.9381 39.6294 40.0572 39.4188 40.2686C39.2083 40.48 39.0903 40.7664 39.0909 41.0648C39.0915 41.3631 39.2106 41.649 39.422 41.8596C39.6334 42.0701 39.9198 42.1881 40.2182 42.1875C42.1824 42.1875 45.7453 41.0895 46.3179 37.125H47.813C48.1114 37.125 48.3976 37.0065 48.6085 36.7955C48.8195 36.5845 48.938 36.2984 48.938 36C48.938 35.7016 48.8195 35.4155 48.6085 35.2045C48.3976 34.9935 48.1114 34.875 47.813 34.875ZM40.2193 32.0625C40.5782 32.0625 43.4109 32.157 44.0308 34.875H37.5913C38.264 33.1054 38.9402 32.0625 40.2193 32.0625ZM31.7818 39.9375C29.2022 39.9375 28.3134 38.2984 28.0063 37.125H34.4098C33.737 38.8946 33.0598 39.9375 31.7818 39.9375ZM60.7494 35.9966V7.875C60.7494 3.42563 57.0695 2.25 55.1244 2.25H16.8755C12.4262 2.25 11.2505 5.193 11.2505 6.75V35.9966H4.50391V49.4966H67.4972V35.9966H60.7494ZM22.4297 4.5H49.5658C49.8239 6.78038 50.8482 8.90571 52.4709 10.5285C54.0937 12.1513 56.219 13.1755 58.4994 13.4336V47.2365H50.0192C52.5617 44.0707 54.0005 40.1074 54.0005 36C54.0005 26.0753 45.9253 18 36.0005 18C26.0758 18 18.0005 26.0753 18.0005 36C18.0005 40.1074 19.4405 44.0707 21.9819 47.2365H13.5005V12.3289C18.4393 11.9261 21.9189 8.865 22.4297 4.5ZM25.007 47.2365C23.5056 45.7749 22.3113 44.028 21.4945 42.0984C20.6777 40.1688 20.2547 38.0954 20.2505 36C20.2505 27.315 27.3155 20.25 36.0005 20.25C44.6855 20.25 51.7505 27.315 51.7505 36C51.7505 40.2323 50.0147 44.2957 46.9952 47.2365H25.007ZM58.4994 7.875V11.16C56.8201 10.9153 55.2646 10.1348 54.0646 8.93481C52.8646 7.73479 52.0841 6.17935 51.8394 4.5H55.1177C55.6824 4.50675 58.4994 4.70025 58.4994 7.875ZM16.8755 4.5H20.1583C19.6318 7.965 16.6877 9.729 13.5005 10.0609V6.76575C13.5118 6.38775 13.7267 4.5 16.8755 4.5ZM6.75391 38.2466H11.2505V47.2455H6.75391V38.2466ZM65.2472 47.2455H60.7494V38.2466H65.2472V47.2455ZM43.97 58.5H40.5973V52.875C40.5973 52.5766 40.4788 52.2905 40.2678 52.0795C40.0568 51.8685 39.7706 51.75 39.4723 51.75H30.4678C30.1694 51.75 29.8833 51.8685 29.6723 52.0795C29.4613 52.2905 29.3428 52.5766 29.3428 52.875V58.5H25.97C25.7476 58.5 25.5301 58.5661 25.3451 58.6897C25.1602 58.8133 25.016 58.989 24.9309 59.1945C24.8458 59.4 24.8235 59.6262 24.8669 59.8444C24.9103 60.0626 25.0174 60.263 25.1747 60.4204L34.1747 69.4204C34.2789 69.5252 34.4028 69.6084 34.5393 69.6652C34.6758 69.7219 34.8222 69.7512 34.97 69.7512C35.1179 69.7512 35.2642 69.7219 35.4007 69.6652C35.5372 69.6084 35.6612 69.5252 35.7654 69.4204L44.7654 60.4204C44.9227 60.263 45.0298 60.0626 45.0732 59.8444C45.1166 59.6262 45.0943 59.4 45.0092 59.1945C44.924 58.989 44.7799 58.8133 44.5949 58.6897C44.41 58.5661 44.1925 58.5 43.97 58.5ZM34.97 67.0342L28.6858 60.75H30.4667C30.765 60.75 31.0512 60.6315 31.2622 60.4205C31.4731 60.2095 31.5917 59.9234 31.5917 59.625V54H38.3462V59.625C38.3462 59.9234 38.4647 60.2095 38.6757 60.4205C38.8866 60.6315 39.1728 60.75 39.4712 60.75H41.2532L34.97 67.0342Z" fill="#FEBE09"/>
</svg>
