<svg width="72" height="72" viewBox="0 0 72 72" fill="none" xmlns="http://www.w3.org/2000/svg">
<path d="M7.87524 1.125H19.1252C19.4236 1.125 19.7098 1.24353 19.9207 1.45451C20.1317 1.66549 20.2502 1.95163 20.2502 2.25V24.0975C20.2502 24.3959 20.1317 24.682 19.9207 24.893C19.7098 25.104 19.4236 25.2225 19.1252 25.2225C18.8269 25.2225 18.5407 25.104 18.3297 24.893C18.1188 24.682 18.0002 24.3959 18.0002 24.0975V3.375H9.00024V50.625C9.00024 50.9234 8.88171 51.2095 8.67074 51.4205C8.45976 51.6315 8.17361 51.75 7.87524 51.75H4.96599L13.5002 60.2842L22.0345 51.75H19.1252C18.8269 51.75 18.5407 51.6315 18.3297 51.4205C18.1188 51.2095 18.0002 50.9234 18.0002 50.625V36.6525C18.0002 36.3541 18.1188 36.068 18.3297 35.857C18.5407 35.646 18.8269 35.5275 19.1252 35.5275C19.4236 35.5275 19.7098 35.646 19.9207 35.857C20.1317 36.068 20.2502 36.3541 20.2502 36.6525V49.5H24.7502C24.9727 49.5 25.1902 49.5661 25.3751 49.6897C25.5601 49.8133 25.7043 49.989 25.7894 50.1945C25.8745 50.4 25.8968 50.6262 25.8534 50.8444C25.81 51.0626 25.7029 51.263 25.5456 51.4204L14.2956 62.6704C14.0846 62.8813 13.7986 62.9998 13.5002 62.9998C13.2019 62.9998 12.9158 62.8813 12.7049 62.6704L1.45486 51.4204C1.29758 51.263 1.19047 51.0626 1.14708 50.8444C1.1037 50.6262 1.12597 50.4 1.2111 50.1945C1.29623 49.989 1.44039 49.8133 1.62535 49.6897C1.81031 49.5661 2.02777 49.5 2.25024 49.5H6.75024V2.25C6.75024 1.95163 6.86877 1.66549 7.07974 1.45451C7.29072 1.24353 7.57687 1.125 7.87524 1.125ZM52.8752 1.125H64.1252C64.4236 1.125 64.7098 1.24353 64.9207 1.45451C65.1317 1.66549 65.2502 1.95163 65.2502 2.25V49.5H69.7502C69.9727 49.5 70.1902 49.5661 70.3751 49.6897C70.5601 49.8133 70.7042 49.989 70.7894 50.1945C70.8745 50.4 70.8968 50.6262 70.8534 50.8444C70.81 51.0626 70.7029 51.263 70.5456 51.4204L59.2956 62.6704C59.0846 62.8813 58.7985 62.9998 58.5002 62.9998C58.2019 62.9998 57.9158 62.8813 57.7049 62.6704L46.4549 51.4204C46.2976 51.263 46.1905 51.0626 46.1471 50.8444C46.1037 50.6262 46.126 50.4 46.2111 50.1945C46.2962 49.989 46.4404 49.8133 46.6253 49.6897C46.8103 49.5661 47.0278 49.5 47.2502 49.5H51.7502V36.6525C51.7502 36.3541 51.8688 36.068 52.0797 35.857C52.2907 35.646 52.5769 35.5275 52.8752 35.5275C53.1736 35.5275 53.4598 35.646 53.6707 35.857C53.8817 36.068 54.0002 36.3541 54.0002 36.6525V50.625C54.0002 50.9234 53.8817 51.2095 53.6707 51.4205C53.4598 51.6315 53.1736 51.75 52.8752 51.75H49.966L58.5002 60.2842L67.0345 51.75H64.1252C63.8269 51.75 63.5407 51.6315 63.3297 51.4205C63.1188 51.2095 63.0002 50.9234 63.0002 50.625V3.375H54.0002V24.0975C54.0002 24.3959 53.8817 24.682 53.6707 24.893C53.4598 25.104 53.1736 25.2225 52.8752 25.2225C52.5769 25.2225 52.2907 25.104 52.0797 24.893C51.8688 24.682 51.7502 24.3959 51.7502 24.0975V2.25C51.7502 1.95163 51.8688 1.66549 52.0797 1.45451C52.2907 1.24353 52.5769 1.125 52.8752 1.125ZM30.3752 46.35C30.6736 46.35 30.9598 46.4685 31.1707 46.6795C31.3817 46.8905 31.5002 47.1766 31.5002 47.475V58.5C31.5002 58.7984 31.3817 59.0845 31.1707 59.2955C30.9598 59.5065 30.6736 59.625 30.3752 59.625H27.466L36.0002 68.1592L44.5345 59.625H41.6252C41.3269 59.625 41.0407 59.5065 40.8297 59.2955C40.6188 59.0845 40.5002 58.7984 40.5002 58.5V47.475C40.5002 47.1766 40.6188 46.8905 40.8297 46.6795C41.0407 46.4685 41.3269 46.35 41.6252 46.35C41.9236 46.35 42.2098 46.4685 42.4207 46.6795C42.6317 46.8905 42.7502 47.1766 42.7502 47.475V57.375H47.2502C47.4727 57.375 47.6902 57.4411 47.8751 57.5647C48.0601 57.6883 48.2042 57.864 48.2894 58.0695C48.3745 58.275 48.3968 58.5012 48.3534 58.7194C48.31 58.9376 48.2029 59.138 48.0456 59.2954L36.7956 70.5454C36.5846 70.7563 36.2986 70.8748 36.0002 70.8748C35.7019 70.8748 35.4158 70.7563 35.2049 70.5454L23.9549 59.2954C23.7976 59.138 23.6905 58.9376 23.6471 58.7194C23.6037 58.5012 23.626 58.275 23.7111 58.0695C23.7962 57.864 23.9404 57.6883 24.1253 57.5647C24.3103 57.4411 24.5278 57.375 24.7502 57.375H29.2502V47.475C29.2502 47.1766 29.3688 46.8905 29.5797 46.6795C29.7907 46.4685 30.0769 46.35 30.3752 46.35ZM30.3752 1.125H41.6252C41.9236 1.125 42.2098 1.24353 42.4207 1.45451C42.6317 1.66549 42.7502 1.95163 42.7502 2.25V13.275C42.7502 13.5734 42.6317 13.8595 42.4207 14.0705C42.2098 14.2815 41.9236 14.4 41.6252 14.4C41.3269 14.4 41.0407 14.2815 40.8297 14.0705C40.6188 13.8595 40.5002 13.5734 40.5002 13.275V3.375H31.5002V13.275C31.5002 13.5734 31.3817 13.8595 31.1707 14.0705C30.9598 14.2815 30.6736 14.4 30.3752 14.4C30.0769 14.4 29.7907 14.2815 29.5797 14.0705C29.3688 13.8595 29.2502 13.5734 29.2502 13.275V2.25C29.2502 1.95163 29.3688 1.66549 29.5797 1.45451C29.7907 1.24353 30.0769 1.125 30.3752 1.125ZM41.6252 23.625C41.8477 23.625 42.0652 23.6911 42.2501 23.8147C42.4351 23.9383 42.5792 24.114 42.6644 24.3195C42.7495 24.5251 42.7718 24.7512 42.7284 24.9694C42.685 25.1876 42.5779 25.388 42.4206 25.5454L31.1706 36.7954C30.9584 37.0003 30.6743 37.1137 30.3793 37.1111C30.0843 37.1086 29.8022 36.9903 29.5936 36.7817C29.385 36.5731 29.2667 36.2909 29.2641 35.996C29.2615 35.701 29.3749 35.4168 29.5799 35.2046L40.8299 23.9546C41.0408 23.7436 41.3269 23.6251 41.6252 23.625ZM40.5002 31.5C41.1678 31.5 41.8203 31.6979 42.3753 32.0688C42.9303 32.4396 43.3629 32.9667 43.6183 33.5834C43.8738 34.2001 43.9406 34.8787 43.8104 35.5334C43.6802 36.1881 43.3587 36.7895 42.8867 37.2615C42.4147 37.7335 41.8134 38.0549 41.1587 38.1852C40.504 38.3154 39.8254 38.2485 39.2087 37.9931C38.592 37.7376 38.0649 37.3051 37.694 36.75C37.3232 36.195 37.1252 35.5425 37.1252 34.875C37.1252 33.9799 37.4808 33.1215 38.1138 32.4885C38.7467 31.8556 39.6051 31.5 40.5002 31.5ZM40.5002 36C40.7227 36 40.9403 35.934 41.1253 35.8104C41.3103 35.6868 41.4545 35.5111 41.5396 35.3055C41.6248 35.1 41.647 34.8738 41.6036 34.6555C41.5602 34.4373 41.4531 34.2368 41.2957 34.0795C41.1384 33.9222 40.9379 33.815 40.7197 33.7716C40.5015 33.7282 40.2753 33.7505 40.0697 33.8356C39.8642 33.9208 39.6885 34.065 39.5648 34.25C39.4412 34.435 39.3752 34.6525 39.3752 34.875C39.3752 35.1734 39.4938 35.4595 39.7047 35.6705C39.9157 35.8815 40.2019 36 40.5002 36ZM31.5002 22.5C32.1678 22.5 32.8203 22.6979 33.3753 23.0688C33.9303 23.4396 34.3629 23.9667 34.6183 24.5834C34.8738 25.2001 34.9406 25.8787 34.8104 26.5334C34.6802 27.1881 34.3587 27.7895 33.8867 28.2615C33.4147 28.7335 32.8134 29.0549 32.1587 29.1852C31.504 29.3154 30.8254 29.2485 30.2087 28.9931C29.592 28.7376 29.0649 28.3051 28.694 27.75C28.3232 27.195 28.1252 26.5425 28.1252 25.875C28.1252 24.9799 28.4808 24.1215 29.1138 23.4885C29.7467 22.8556 30.6051 22.5 31.5002 22.5ZM31.5002 27C31.7227 27 31.9402 26.934 32.1253 26.8104C32.3103 26.6868 32.4545 26.5111 32.5396 26.3055C32.6248 26.1 32.647 25.8738 32.6036 25.6555C32.5602 25.4373 32.4531 25.2368 32.2957 25.0795C32.1384 24.9222 31.9379 24.815 31.7197 24.7716C31.5015 24.7282 31.2753 24.7505 31.0697 24.8356C30.8642 24.9208 30.6885 25.065 30.5648 25.25C30.4412 25.435 30.3752 25.6525 30.3752 25.875C30.3752 26.1734 30.4938 26.4595 30.7047 26.6705C30.9157 26.8815 31.2019 27 31.5002 27Z" fill="#FEBE09"/>
<path d="M36 11.25C39.7826 11.25 43.4802 12.3717 46.6253 14.4731C49.7704 16.5746 52.2217 19.5615 53.6692 23.0562C55.1167 26.5508 55.4955 30.3962 54.7575 34.1061C54.0196 37.816 52.1981 41.2237 49.5234 43.8984C46.8487 46.5731 43.441 48.3946 39.7311 49.1325C36.0212 49.8705 32.1758 49.4917 28.6812 48.0442C25.1865 46.5967 22.1996 44.1454 20.0981 41.0003C17.9967 37.8552 16.875 34.1576 16.875 30.375C16.8806 25.3045 18.8974 20.4432 22.4828 16.8578C26.0682 13.2724 30.9295 11.2556 36 11.25ZM36 47.25C39.3376 47.25 42.6002 46.2603 45.3752 44.406C48.1503 42.5518 50.3132 39.9163 51.5905 36.8328C52.8677 33.7493 53.2019 30.3563 52.5507 27.0828C51.8996 23.8094 50.2924 20.8026 47.9324 18.4426C45.5724 16.0826 42.5656 14.4754 39.2921 13.8242C36.0187 13.1731 32.6257 13.5073 29.5422 14.7845C26.4587 16.0618 23.8232 18.2247 21.9689 20.9997C20.1147 23.7748 19.125 27.0374 19.125 30.375C19.1298 34.8491 20.9092 39.1385 24.0728 42.3022C27.2365 45.4658 31.5259 47.2452 36 47.25Z" fill="#FEBE09"/>
</svg>
