<svg width="72" height="72" viewBox="0 0 72 72" fill="none" xmlns="http://www.w3.org/2000/svg">
<path d="M58.1529 58.3292V13.6709C60.5389 13.0545 62.3068 10.8837 62.3068 8.30775C62.3068 5.25384 59.8222 2.76929 56.7683 2.76929C53.7144 2.76929 51.2299 5.25384 51.2299 8.30775C51.2299 10.8837 52.9977 13.0545 55.3837 13.6709V34.6154H44.3068V13.6709C46.6928 13.0545 48.4606 10.8837 48.4606 8.30775C48.4606 5.25384 45.9761 2.76929 42.9222 2.76929C39.8683 2.76929 37.3837 5.25384 37.3837 8.30775C37.3837 10.8837 39.1516 13.0545 41.5376 13.6709V34.6154H30.4606V13.6709C32.8467 13.0545 34.6145 10.8837 34.6145 8.30775C34.6145 5.25384 32.1299 2.76929 29.076 2.76929C26.0221 2.76929 23.5376 5.25384 23.5376 8.30775C23.5376 10.8837 25.3053 13.0545 27.6914 13.6709V34.6154H17.9991C17.2356 34.6154 16.6145 33.9943 16.6145 33.2308V13.6709C19.0006 13.0545 20.7683 10.8837 20.7683 8.30775C20.7683 5.25384 18.2838 2.76929 15.2299 2.76929C12.176 2.76929 9.69141 5.25384 9.69141 8.30775C9.69141 10.8837 11.4591 13.0545 13.8453 13.6709V33.2308C13.8453 35.5213 15.7087 37.3847 17.9991 37.3847H27.6914V58.3292C25.3053 58.9456 23.5376 61.1166 23.5376 63.6924C23.5376 66.7463 26.0221 69.2308 29.076 69.2308C32.1299 69.2308 34.6145 66.7463 34.6145 63.6924C34.6145 61.1164 32.8467 58.9456 30.4606 58.3292V37.3847H41.5376V58.3292C39.1516 58.9456 37.3837 61.1166 37.3837 63.6924C37.3837 66.7463 39.8683 69.2308 42.9222 69.2308C45.9761 69.2308 48.4606 66.7463 48.4606 63.6924C48.4606 61.1164 46.6928 58.9456 44.3068 58.3292V37.3847H55.3837V58.3292C52.9977 58.9456 51.2299 61.1166 51.2299 63.6924C51.2299 66.7463 53.7144 69.2308 56.7683 69.2308C59.8222 69.2308 62.3068 66.7463 62.3068 63.6924C62.3068 61.1164 60.5389 58.9456 58.1529 58.3292ZM40.1529 8.30775C40.1529 6.7808 41.3952 5.53852 42.9222 5.53852C44.4491 5.53852 45.6914 6.7808 45.6914 8.30775C45.6914 9.8347 44.4491 11.077 42.9222 11.077C41.3952 11.077 40.1529 9.8347 40.1529 8.30775ZM26.3068 8.30775C26.3068 6.7808 27.5491 5.53852 29.076 5.53852C30.603 5.53852 31.8453 6.7808 31.8453 8.30775C31.8453 9.8347 30.603 11.077 29.076 11.077C27.5491 11.077 26.3068 9.8347 26.3068 8.30775ZM12.4606 8.30775C12.4606 6.7808 13.7029 5.53852 15.2299 5.53852C16.7568 5.53852 17.9991 6.7808 17.9991 8.30775C17.9991 9.8347 16.7568 11.077 15.2299 11.077C13.7029 11.077 12.4606 9.8347 12.4606 8.30775ZM31.8453 63.6924C31.8453 65.2193 30.603 66.4616 29.076 66.4616C27.5491 66.4616 26.3068 65.2193 26.3068 63.6924C26.3068 62.1654 27.5491 60.9231 29.076 60.9231C30.603 60.9231 31.8453 62.1654 31.8453 63.6924ZM45.6914 63.6924C45.6914 65.2193 44.4491 66.4616 42.9222 66.4616C41.3952 66.4616 40.1529 65.2193 40.1529 63.6924C40.1529 62.1654 41.3952 60.9231 42.9222 60.9231C44.4491 60.9231 45.6914 62.1654 45.6914 63.6924ZM53.9991 8.30775C53.9991 6.7808 55.2414 5.53852 56.7683 5.53852C58.2953 5.53852 59.5376 6.7808 59.5376 8.30775C59.5376 9.8347 58.2953 11.077 56.7683 11.077C55.2414 11.077 53.9991 9.8347 53.9991 8.30775ZM56.7683 66.4616C55.2414 66.4616 53.9991 65.2193 53.9991 63.6924C53.9991 62.1654 55.2414 60.9231 56.7683 60.9231C58.2953 60.9231 59.5376 62.1654 59.5376 63.6924C59.5376 65.2193 58.2953 66.4616 56.7683 66.4616Z" fill="#FEBE09"/>
</svg>
