<svg width="73" height="72" viewBox="0 0 73 72" fill="none" xmlns="http://www.w3.org/2000/svg">
<path fill-rule="evenodd" clip-rule="evenodd" d="M42.8624 7.15112C35.488 7.15112 29.5103 13.1288 29.5103 20.5032C29.5053 23.4654 30.49 26.3444 32.3082 28.6831C32.4912 28.9188 32.573 29.2175 32.5357 29.5136C32.4984 29.8096 32.3451 30.0787 32.1094 30.2617C31.8736 30.4447 31.5749 30.5265 31.2788 30.4892C30.9828 30.452 30.7137 30.2986 30.5307 30.0629C28.4062 27.3296 27.2552 23.9651 27.2603 20.5032C27.2603 11.8862 34.2455 4.90112 42.863 4.90112C51.4793 4.90112 58.465 11.8862 58.465 20.5032C58.465 24.1037 57.2438 27.4219 55.1946 30.0629C55.0117 30.2986 54.7425 30.452 54.4465 30.4892C54.1504 30.5265 53.8517 30.4447 53.616 30.2617C53.3803 30.0787 53.2269 29.8096 53.1896 29.5136C53.1523 29.2175 53.2342 28.9188 53.4171 28.6831C55.2353 26.3445 56.2201 23.4654 56.215 20.5032C56.215 13.1288 50.2368 7.15112 42.8624 7.15112ZM38.021 14.0401C37.6073 14.0401 37.2107 14.2044 36.9182 14.4968C36.6257 14.7893 36.4614 15.186 36.4614 15.5996C36.4614 16.0132 36.6257 16.4099 36.9182 16.7023C37.2107 16.9948 37.6073 17.1591 38.021 17.1591C38.4346 17.1591 38.8312 16.9948 39.1237 16.7023C39.4162 16.4099 39.5805 16.0132 39.5805 15.5996C39.5805 15.186 39.4162 14.7893 39.1237 14.4968C38.8312 14.2044 38.4346 14.0401 38.021 14.0401ZM34.2111 15.5993C34.2111 14.589 34.6125 13.62 35.3269 12.9056C36.0414 12.1911 37.0103 11.7898 38.0207 11.7898C39.031 11.7898 40 12.1911 40.7144 12.9056C41.4288 13.62 41.8302 14.589 41.8302 15.5993C41.8302 16.6097 41.4288 17.5786 40.7144 18.2931C40 19.0075 39.031 19.4088 38.0207 19.4088C37.0103 19.4088 36.0414 19.0075 35.3269 18.2931C34.6125 17.5786 34.2111 16.6097 34.2111 15.5993ZM48.6702 12.0741C48.7908 12.1595 48.8934 12.2677 48.9721 12.3928C49.0509 12.5178 49.1043 12.657 49.1292 12.8027C49.1541 12.9483 49.1501 13.0974 49.1174 13.2415C49.0846 13.3856 49.0239 13.5218 48.9385 13.6424L38.3033 28.6639C38.1278 28.8991 37.8674 29.0564 37.5775 29.1022C37.2877 29.1481 36.9914 29.0789 36.7518 28.9094C36.5123 28.7398 36.3485 28.4834 36.2953 28.1948C36.2422 27.9062 36.3039 27.6083 36.4673 27.3646L47.102 12.3424C47.1873 12.2218 47.2956 12.1192 47.4206 12.0405C47.5456 11.9617 47.6849 11.9084 47.8305 11.8835C47.9761 11.8586 48.1252 11.8626 48.2693 11.8953C48.4134 11.928 48.5496 11.9888 48.6702 12.0741ZM47.5604 24.1634C47.1468 24.1634 46.7501 24.3277 46.4576 24.6201C46.1652 24.9126 46.0009 25.3093 46.0009 25.7229C46.0009 26.1365 46.1652 26.5332 46.4576 26.8257C46.7501 27.1181 47.1468 27.2824 47.5604 27.2824C47.974 27.2824 48.3707 27.1181 48.6631 26.8257C48.9556 26.5332 49.1199 26.1365 49.1199 25.7229C49.1199 25.3093 48.9556 24.9126 48.6631 24.6201C48.3707 24.3277 47.974 24.1634 47.5604 24.1634ZM43.7506 25.7232C43.7506 24.7128 44.1519 23.7439 44.8664 23.0294C45.5808 22.315 46.5498 21.9137 47.5601 21.9137C48.5705 21.9137 49.5394 22.315 50.2539 23.0294C50.9683 23.7439 51.3696 24.7128 51.3696 25.7232C51.3696 26.7335 50.9683 27.7025 50.2539 28.4169C49.5394 29.1314 48.5705 29.5327 47.5601 29.5327C46.5498 29.5327 45.5808 29.1314 44.8664 28.4169C44.1519 27.7025 43.7506 26.7335 43.7506 25.7232ZM12.4941 31.9146C12.4941 28.8079 15.0125 26.2896 18.1191 26.2896H26.326C26.6244 26.2896 26.9105 26.4081 27.1215 26.6191C27.3325 26.8301 27.451 27.1163 27.451 27.4146C27.451 27.713 27.3325 27.9991 27.1215 28.2101C26.9105 28.4211 26.6244 28.5396 26.326 28.5396H18.1191C17.224 28.5396 16.3656 28.8952 15.7327 29.5281C15.0997 30.1611 14.7441 31.0195 14.7441 31.9146V61.6473C14.7441 62.5424 15.0997 63.4008 15.7327 64.0337C16.3656 64.6667 17.224 65.0223 18.1191 65.0223H51.5328C52.4279 65.0223 53.2863 64.6667 53.9193 64.0337C54.5522 63.4008 54.9078 62.5424 54.9078 61.6473V58.6109C54.9078 58.3125 55.0263 58.0264 55.2373 57.8154C55.4482 57.6044 55.7344 57.4859 56.0328 57.4859C56.3311 57.4859 56.6173 57.6044 56.8283 57.8154C57.0392 58.0264 57.1578 58.3125 57.1578 58.6109V61.6473C57.1578 64.7539 54.6389 67.2723 51.5328 67.2723H18.1191C15.0125 67.2723 12.4941 64.7539 12.4941 61.6473V31.9146ZM16.9632 32.2341C16.9632 31.9358 17.0817 31.6496 17.2927 31.4386C17.5037 31.2276 17.7898 31.1091 18.0882 31.1091H51.5333C54.6395 31.1091 57.1583 33.6274 57.1583 36.7341V39.5072C57.1583 39.8056 57.0398 40.0918 56.8288 40.3027C56.6178 40.5137 56.3317 40.6322 56.0333 40.6322C55.735 40.6322 55.4488 40.5137 55.2378 40.3027C55.0269 40.0918 54.9083 39.8056 54.9083 39.5072V36.7341C54.9083 35.839 54.5527 34.9806 53.9198 34.3476C53.2869 33.7147 52.4284 33.3591 51.5333 33.3591H18.0882C17.7898 33.3591 17.5037 33.2406 17.2927 33.0296C17.0817 32.8186 16.9632 32.5325 16.9632 32.2341ZM41.5163 43.5246C40.6212 43.5246 39.7628 43.8802 39.1298 44.5131C38.4969 45.1461 38.1413 46.0045 38.1413 46.8996V51.4818C38.1413 52.3769 38.4969 53.2353 39.1298 53.8682C39.7628 54.5012 40.6212 54.8568 41.5163 54.8568H58.325V43.5246H41.5163ZM35.8913 46.8996C35.8913 43.7929 38.4102 41.2746 41.5163 41.2746H59.45C59.7483 41.2746 60.0345 41.3932 60.2454 41.6041C60.4564 41.8151 60.575 42.1013 60.575 42.3996V55.9818C60.575 56.2801 60.4564 56.5663 60.2454 56.7772C60.0345 56.9882 59.7483 57.1068 59.45 57.1068H41.5169C38.4102 57.1068 35.8919 54.5884 35.8919 51.4818L35.8913 46.8996ZM40.937 49.2346C40.937 48.9362 41.0555 48.65 41.2665 48.4391C41.4774 48.2281 41.7636 48.1096 42.062 48.1096H43.2893C43.5877 48.1096 43.8738 48.2281 44.0848 48.4391C44.2958 48.65 44.4143 48.9362 44.4143 49.2346C44.4143 49.5329 44.2958 49.8191 44.0848 50.0301C43.8738 50.241 43.5877 50.3596 43.2893 50.3596H42.0625C41.7641 50.3596 41.478 50.241 41.267 50.0301C41.056 49.8191 40.937 49.5329 40.937 49.2346Z" fill="#FEBE09"/>
</svg>
