<svg width="72" height="72" viewBox="0 0 72 72" fill="none" xmlns="http://www.w3.org/2000/svg">
<path d="M65.8841 41.664H64.8954V32.7585C64.8954 31.3486 64.1937 30.1003 63.122 29.3418V28.1292C63.122 26.3703 61.6911 24.9394 59.9322 24.9394H59.194L62.0185 20.7947C62.9653 19.4055 62.6052 17.5049 61.216 16.5581L42.0499 3.49687C41.377 3.03814 40.5659 2.86885 39.7653 3.02072C39.3716 3.09421 38.9963 3.24507 38.6612 3.46457C38.3261 3.68407 38.0379 3.96785 37.8133 4.29948L21.2705 28.5744H16.6671L17.7777 17.3314C17.7902 17.2047 17.8726 17.0948 17.9874 17.0516C19.4183 16.5121 20.6584 15.5046 21.479 14.2147C21.5437 14.1132 21.6656 14.0551 21.7918 14.0679L29.0121 14.7812C29.1351 14.7934 29.2594 14.7812 29.3777 14.7453C29.496 14.7094 29.6061 14.6506 29.7017 14.5722C29.7972 14.4938 29.8764 14.3974 29.9347 14.2884C29.993 14.1794 30.0293 14.0599 30.0415 13.9369C30.0536 13.8139 30.0414 13.6897 30.0056 13.5714C29.9697 13.4531 29.9109 13.343 29.8325 13.2474C29.7541 13.1518 29.6576 13.0726 29.5486 13.0143C29.4396 12.956 29.3202 12.9197 29.1972 12.9076L21.9769 12.1943C21.1388 12.1122 20.3395 12.4984 19.8905 13.204C19.2871 14.1524 18.3753 14.8931 17.3233 15.2897C16.5314 15.5883 15.9876 16.2996 15.904 17.1462L14.7752 28.5743H13.5747L15.3312 10.7924C15.3944 10.1524 15.9657 9.68216 16.6065 9.74629L31.1972 11.1876C31.4457 11.2122 31.6937 11.137 31.8868 10.9787C32.0798 10.8203 32.202 10.5918 32.2266 10.3433C32.2511 10.0949 32.176 9.84686 32.0176 9.65382C31.8593 9.46078 31.6307 9.33855 31.3823 9.31401L16.7915 7.87266C15.1187 7.70762 13.6227 8.93413 13.4574 10.6072L12.0416 24.9394H9.63055C7.87177 24.9394 6.44075 26.3703 6.44075 28.1292V28.9564C5.00185 29.6188 4 31.0734 4 32.7585V64.8495C4 67.1566 5.87698 69.0336 8.1843 69.0336H60.7112C63.0184 69.0336 64.8954 67.1566 64.8954 64.8495V55.9441H65.8841C67.0511 55.9441 68.0004 54.9947 68.0004 53.8278V43.7803C68.0006 42.6133 67.0511 41.664 65.8841 41.664ZM59.9322 26.8223C60.653 26.8222 61.2393 27.4086 61.2393 28.1294V28.609C61.0641 28.5864 60.8878 28.5749 60.7112 28.5745H56.7169L57.9109 26.8223H59.9322ZM39.3691 5.35966C39.455 5.23281 39.5653 5.12427 39.6935 5.04031C39.8216 4.95634 39.9652 4.89862 40.1158 4.87048C40.2663 4.84155 40.421 4.84274 40.571 4.87399C40.721 4.90525 40.8633 4.96594 40.9896 5.05255L60.1557 18.1137C60.6871 18.4759 60.8249 19.2029 60.4628 19.7343L54.4386 28.5742H52.9929L55.9464 24.2402C56.4254 23.5373 56.4649 22.6428 56.0491 21.9056C55.4966 20.9262 55.2726 19.773 55.4184 18.6583C55.5268 17.8289 55.1618 17.0194 54.4661 16.5453L44.5304 9.77442C43.8345 9.30021 42.9475 9.25672 42.2154 9.661C41.2315 10.2042 40.0762 10.4175 38.9626 10.2617C38.1368 10.1458 37.2992 10.5187 36.8273 11.211L24.9947 28.5743H23.5489L39.3691 5.35966ZM39.7837 21.3462C35.684 21.3462 32.3187 24.5429 32.0445 28.5743H27.2728L38.3828 12.2713H38.383C38.4134 12.2262 38.4544 12.1891 38.5023 12.1634C38.5503 12.1376 38.6038 12.1238 38.6582 12.1233C38.6725 12.1233 38.6868 12.1243 38.7012 12.1263C40.2158 12.3381 41.7868 12.0483 43.1252 11.3093C43.2305 11.251 43.3657 11.2594 43.47 11.3304L53.4058 18.1013C53.5098 18.1723 53.5669 18.2952 53.5515 18.4144C53.3531 19.9305 53.6579 21.4988 54.4093 22.8307C54.4696 22.9377 54.4622 23.0747 54.3907 23.1799L50.7147 28.5742H47.5232C47.2487 24.5429 43.8836 21.3462 39.7837 21.3462ZM45.6353 28.5744H33.9322C34.2019 25.5822 36.7225 23.2292 39.7837 23.2292C42.845 23.229 45.3657 25.5822 45.6353 28.5744ZM8.32353 28.1292C8.32353 27.4084 8.90975 26.8221 9.63055 26.8221H11.8557L11.6826 28.5743H8.32353V28.1292ZM5.88279 32.7585C5.88279 31.4895 6.91522 30.4571 8.1843 30.4571H60.7112C61.9803 30.4571 63.0126 31.4895 63.0126 32.7585V35.3707H5.88279V32.7585ZM63.0126 64.8495C63.0126 66.1184 61.9803 67.1508 60.7112 67.1508H8.1843C6.91522 67.1508 5.88279 66.1184 5.88279 64.8495V62.2372H10.9594C11.083 62.2372 11.2054 62.2129 11.3196 62.1656C11.4338 62.1183 11.5376 62.0489 11.625 61.9615C11.7124 61.8741 11.7818 61.7703 11.8291 61.6561C11.8764 61.5419 11.9007 61.4195 11.9007 61.2959C11.9007 61.1723 11.8764 61.0499 11.8291 60.9357C11.7818 60.8215 11.7124 60.7177 11.625 60.6303C11.5376 60.5429 11.4338 60.4735 11.3196 60.4262C11.2054 60.3789 11.083 60.3546 10.9594 60.3546H5.88279V37.2535H63.0126V41.664H54.0617C51.2414 41.664 48.7985 43.3079 47.6391 45.6875C47.6352 45.6955 47.6308 45.7033 47.6268 45.7113C47.617 45.7315 47.6085 45.7525 47.5989 45.7729C47.4609 46.0662 47.3409 46.3699 47.2432 46.6832L47.2424 46.6857C47.0292 47.3716 46.9211 48.0858 46.9216 48.804C46.9216 52.7411 50.1246 55.9441 54.0615 55.9441H63.0125V60.3546H16.9872C16.8636 60.3546 16.7412 60.3789 16.627 60.4262C16.5128 60.4735 16.409 60.5429 16.3216 60.6303C16.2342 60.7177 16.1649 60.8215 16.1176 60.9357C16.0703 61.0499 16.0459 61.1723 16.0459 61.2959C16.0459 61.4195 16.0703 61.5419 16.1176 61.6561C16.1649 61.7703 16.2342 61.8741 16.3216 61.9615C16.409 62.0489 16.5128 62.1183 16.627 62.1656C16.7412 62.2129 16.8636 62.2372 16.9872 62.2372H63.0126V64.8495ZM66.1178 53.8277C66.1178 53.9565 66.013 54.0613 65.8841 54.0613H54.0619C52.0689 54.0613 50.3313 52.9465 49.4401 51.3079C49.3177 51.0833 49.2121 50.8499 49.1242 50.6098C48.9175 50.0464 48.8047 49.4381 48.8047 48.804C48.804 48.0155 48.9815 47.2371 49.3238 46.5268C49.3608 46.4503 49.3995 46.3746 49.4401 46.3002C50.3313 44.6615 52.0689 43.5468 54.0619 43.5468H65.8841C66.0129 43.5468 66.1178 43.6516 66.1178 43.7803V53.8277Z" fill="#FEBE09"/>
<path d="M54.2824 44.9845C52.1763 44.9845 50.4629 46.698 50.4629 48.804C50.4629 50.91 52.1763 52.6234 54.2824 52.6234C56.3886 52.6234 58.1019 50.91 58.1019 48.804C58.1019 46.698 56.3886 44.9845 54.2824 44.9845ZM54.2824 50.7406C53.2145 50.7406 52.3457 49.8718 52.3457 48.804C52.3457 47.7362 53.2145 46.8673 54.2824 46.8673C55.3503 46.8673 56.2191 47.7361 56.2191 48.804C56.2191 49.8719 55.3503 50.7406 54.2824 50.7406Z" fill="#FEBE09"/>
</svg>
