<svg width="72" height="72" viewBox="0 0 72 72" fill="none" xmlns="http://www.w3.org/2000/svg">
<path d="M43.4873 21.9319C43.6609 21.6859 43.7985 21.4165 43.896 21.1316C44.3329 21.2051 44.7488 21.3715 45.1159 21.6196C45.854 22.1183 46.7194 22.3953 47.6099 22.4179C47.891 22.4167 48.1714 22.391 48.448 22.3411C49.0249 22.2427 49.5767 22.0315 50.072 21.7197C50.5672 21.4079 50.9962 21.0016 51.3344 20.524C51.5151 20.2389 51.7533 19.9947 52.0338 19.8068C52.3143 19.619 52.6308 19.4917 52.9633 19.4331C53.2957 19.3745 53.6367 19.3859 53.9645 19.4666C54.2923 19.5472 54.5997 19.6953 54.867 19.9014C55.3483 20.2346 55.8904 20.4697 56.4626 20.5932C57.0347 20.7168 57.6256 20.7264 58.2014 20.6215L57.8321 18.5319C57.4998 18.5905 57.1589 18.5791 56.8313 18.4986C56.5036 18.418 56.1963 18.27 55.9291 18.064C53.9027 16.6773 51.1397 17.1648 49.7094 19.1607C49.5285 19.4458 49.2901 19.69 49.0095 19.8778C48.7289 20.0656 48.4123 20.1929 48.0798 20.2515C47.7732 20.3131 47.4568 20.3054 47.1536 20.2292C47.7812 20.0635 48.362 19.7553 48.851 19.3284C49.3014 18.9546 49.6737 18.4958 49.9468 17.978C50.2198 17.4603 50.3882 16.8939 50.4423 16.3111C50.4564 15.9738 50.5407 15.6431 50.69 15.3403C50.8392 15.0375 51.0501 14.7692 51.309 14.5526C51.5662 14.3335 51.8669 14.1714 52.1912 14.077C52.5156 13.9826 52.8563 13.958 53.1909 14.0049C53.7745 14.058 54.3628 13.9929 54.9208 13.8136C55.4787 13.6343 55.9948 13.3444 56.4383 12.9613L55.0712 11.3368C54.8095 11.5483 54.5082 11.7056 54.185 11.7994C53.8618 11.8932 53.5232 11.9217 53.1889 11.8832C50.7408 11.6962 48.5911 13.4994 48.3502 15.9434C48.3362 16.2804 48.2522 16.6107 48.1034 16.9134C47.9547 17.2162 47.7445 17.4845 47.4862 17.7015C47.2278 17.9183 46.927 18.0789 46.6031 18.1731C46.2792 18.2673 45.9392 18.2929 45.6048 18.2485C44.9427 18.197 44.2773 18.286 43.652 18.5096C43.3598 18.0028 42.9335 17.5865 42.4201 17.3062L47.1634 7.83097C47.2444 7.66876 47.2825 7.48852 47.2741 7.30742C47.2656 7.12632 47.2109 6.9504 47.1152 6.79645C47.0194 6.64249 46.8859 6.51563 46.7272 6.42796C46.5685 6.34029 46.39 6.29473 46.2087 6.29564C45.8389 6.29902 45.4724 6.22746 45.131 6.08529C44.7897 5.94312 44.4807 5.73328 44.2227 5.46843C42.3497 3.74294 39.467 3.74294 37.5945 5.46843C37.3339 5.73096 37.024 5.9393 36.6825 6.08146C36.341 6.22361 35.9747 6.29677 35.6049 6.2967C35.235 6.29682 34.8687 6.22369 34.5272 6.08153C34.1857 5.93937 33.8758 5.731 33.6152 5.46843C31.7407 3.74401 28.8574 3.74401 26.9828 5.46843C26.7239 5.7335 26.414 5.94343 26.0718 6.08559C25.7296 6.22775 25.3622 6.2992 24.9916 6.29564C24.8107 6.29553 24.6328 6.34168 24.4748 6.4297C24.3168 6.51771 24.1839 6.64468 24.0887 6.79852C23.9936 6.95237 23.9394 7.12799 23.9312 7.30869C23.9231 7.48939 23.9612 7.66918 24.0421 7.83097L28.7797 17.3062C28.3827 17.5178 28.0358 17.8121 27.7622 18.1692C27.4886 18.5263 27.2947 18.9379 27.1936 19.3762C27.0925 19.8146 27.0865 20.2695 27.176 20.7103C27.2655 21.1512 27.4485 21.5677 27.7126 21.9319C17.9858 24.5447 11.2182 33.3538 11.2004 43.4257V62.5212C11.2035 65.4494 13.5765 67.8219 16.5047 67.8255H54.6957C57.6234 67.8219 59.9964 65.4494 60 62.5212V43.4257C59.9818 33.3538 53.2142 24.5447 43.4873 21.9319ZM28.3077 7.12443C28.5685 6.86172 28.8787 6.65322 29.2205 6.51093C29.5622 6.36865 29.9288 6.29539 30.299 6.29539C30.6691 6.29539 31.0357 6.36865 31.3774 6.51093C31.7192 6.65322 32.0294 6.86172 32.2902 7.12443C34.1638 8.84833 37.0464 8.84833 38.9206 7.12443C39.1808 6.86182 39.4904 6.65336 39.8317 6.5111C40.1729 6.36884 40.5389 6.29559 40.9086 6.29559C41.2783 6.29559 41.6443 6.36884 41.9856 6.5111C42.3268 6.65336 42.6365 6.86182 42.8967 7.12443C43.4036 7.57179 43.9868 7.9243 44.6186 8.16514L40.2488 16.9042H30.951L26.5829 8.1662C27.2155 7.92478 27.7996 7.57195 28.3077 7.12443ZM30.2959 21.1477C29.7095 21.1477 29.2351 20.6727 29.2351 20.0868C29.2351 19.501 29.7095 19.026 30.2959 19.026H40.9045C41.1859 19.026 41.4557 19.1377 41.6546 19.3367C41.8536 19.5356 41.9654 19.8055 41.9654 20.0868C41.9654 20.3682 41.8536 20.638 41.6546 20.837C41.4557 21.0359 41.1859 21.1477 40.9045 21.1477H30.2959ZM57.8783 62.5212C57.8783 64.2788 56.4533 65.7038 54.6957 65.7038H16.5047C14.7466 65.7038 13.3222 64.2788 13.3222 62.5212V43.4257C13.3341 32.2986 22.3514 23.2819 33.4785 23.2694H37.7219C48.8485 23.2819 57.8658 32.2986 57.8783 43.4257V62.5212Z" fill="#FEBE09"/>
<path d="M28.4845 51.162L41.2153 38.4316L42.7154 39.9317L29.9851 52.6625L28.4845 51.162ZM39.8437 46.6082C38.0855 46.6082 36.6611 48.0332 36.6611 49.7908C36.6611 51.5484 38.0855 52.9734 39.8437 52.9734C41.6012 52.9734 43.0262 51.5484 43.0262 49.7908C43.0262 48.0332 41.6012 46.6082 39.8437 46.6082ZM39.8437 50.8517C39.2573 50.8517 38.7828 50.3767 38.7828 49.7908C38.7828 49.2049 39.2573 48.7299 39.8437 48.7299C40.125 48.7299 40.3948 48.8417 40.5938 49.0407C40.7927 49.2396 40.9045 49.5094 40.9045 49.7908C40.9045 50.0722 40.7927 50.342 40.5938 50.5409C40.3948 50.7399 40.125 50.8517 39.8437 50.8517ZM31.3568 44.4865C33.1144 44.4865 34.5394 43.0615 34.5394 41.3039C34.5394 39.5463 33.1144 38.1213 31.3568 38.1213C29.5987 38.1213 28.1742 39.5463 28.1742 41.3039C28.1742 43.0615 29.5987 44.4865 31.3568 44.4865ZM31.3568 40.2431C31.6381 40.2431 31.908 40.3548 32.1069 40.5538C32.3059 40.7527 32.4176 41.0226 32.4176 41.3039C32.4176 41.5853 32.3059 41.8551 32.1069 42.0541C31.908 42.253 31.6381 42.3648 31.3568 42.3648C31.0754 42.3648 30.8056 42.253 30.6066 42.0541C30.4077 41.8551 30.2959 41.5853 30.2959 41.3039C30.2959 41.0226 30.4077 40.7527 30.6066 40.5538C30.8056 40.3548 31.0754 40.2431 31.3568 40.2431Z" fill="#FEBE09"/>
<path d="M35.6002 30.6953C27.3971 30.6953 20.7482 37.3449 20.7482 45.5473C20.7482 53.7499 27.3971 60.3994 35.6002 60.3994C43.8026 60.3994 50.4522 53.7499 50.4522 45.5473C50.4435 37.3485 43.7991 30.7041 35.6002 30.6953ZM35.6002 58.2777C28.5694 58.2777 22.8699 52.5782 22.8699 45.5473C22.8699 38.5165 28.5694 32.817 35.6002 32.817C42.6305 32.817 48.3305 38.5165 48.3305 45.5473C48.3227 52.575 42.6273 58.2698 35.6002 58.2777Z" fill="#FEBE09"/>
</svg>
