<svg width="73" height="72" viewBox="0 0 73 72" fill="none" xmlns="http://www.w3.org/2000/svg">
<g clip-path="url(#clip0_7073_897)">
<path d="M36.2528 43.1997C34.9273 43.1997 33.853 42.1254 33.853 40.7999C33.853 39.4744 34.9273 38.4001 36.2528 38.4001C37.5783 38.4001 38.6526 39.4744 38.6526 40.7999H41.0525C41.0442 38.618 39.5655 36.7161 37.4527 36.1706V34.8003H35.0529V36.1706C32.4909 36.83 30.9486 39.4414 31.6079 42.0034C32.1533 44.1222 34.0649 45.6023 36.2528 45.5996C37.5783 45.5996 38.6526 46.674 38.6526 47.9994C38.6526 49.3249 37.5783 50.3993 36.2528 50.3993C34.9273 50.3993 33.853 49.3249 33.853 47.9994H31.4531C31.4614 50.1813 32.9403 52.0832 35.0529 52.6287V53.999H37.4527V52.6287C40.0147 51.9693 41.5571 49.3579 40.8977 46.7959C40.3523 44.677 38.4407 43.197 36.2528 43.1997Z" fill="#FEBE09"/>
<path d="M36.2533 28.8005C27.6381 28.8005 20.6543 35.7844 20.6543 44.3995C20.6543 53.0146 27.6381 59.9985 36.2533 59.9985C44.8684 59.9985 51.8522 53.0146 51.8522 44.3995C51.8423 35.7886 44.8642 28.8104 36.2533 28.8005ZM36.2533 57.5986C28.9636 57.5986 23.0541 51.6892 23.0541 44.3995C23.0541 37.1098 28.9636 31.2004 36.2533 31.2004C43.5429 31.2004 49.4524 37.1098 49.4524 44.3995C49.4438 51.6856 43.5393 57.5901 36.2533 57.5986Z" fill="#FEBE09"/>
<path d="M71.0501 26.4007C71.3683 26.4007 71.6735 26.2743 71.8985 26.0493C72.1236 25.8243 72.25 25.5191 72.25 25.2008V20.4011C72.25 20.3855 72.2416 20.3735 72.2416 20.3579C72.237 20.2269 72.2106 20.0976 72.1636 19.9752C72.1636 19.9608 72.1636 19.944 72.1528 19.9296C72.0945 19.7986 72.0132 19.6791 71.9128 19.5768C71.8772 19.5453 71.84 19.5156 71.8012 19.488C71.7475 19.4372 71.6893 19.3914 71.6272 19.3512L36.8296 0.152495C36.6523 0.0539267 36.4528 0.00219727 36.25 0.00219727C36.0472 0.00219727 35.8477 0.0539267 35.6704 0.152495L0.872758 19.3512C0.810693 19.3914 0.752452 19.4372 0.69877 19.488C0.660038 19.5156 0.622789 19.5453 0.587177 19.5768C0.486756 19.6791 0.405477 19.7986 0.347194 19.9296C0.347194 19.944 0.347194 19.9608 0.336394 19.9752C0.289347 20.0976 0.262989 20.2269 0.258399 20.3579C0.258399 20.3735 0.25 20.3855 0.25 20.4011V25.2008C0.25 25.5191 0.37642 25.8243 0.601448 26.0493C0.826477 26.2743 1.13168 26.4007 1.44992 26.4007H5.05448V62.3983H1.45472C1.13648 62.3983 0.831277 62.5248 0.606248 62.7498C0.381219 62.9748 0.2548 63.28 0.2548 63.5983V70.7978C0.2548 71.116 0.381219 71.4212 0.606248 71.6463C0.831277 71.8713 1.13648 71.9977 1.45472 71.9977H71.0501C71.3683 71.9977 71.6735 71.8713 71.8985 71.6463C72.1236 71.4212 72.25 71.116 72.25 70.7978V63.5983C72.25 63.28 72.1236 62.9748 71.8985 62.7498C71.6735 62.5248 71.3683 62.3983 71.0501 62.3983H67.4503V26.4007H71.0501ZM36.2524 2.57273L66.3908 19.2012H6.11401L36.2524 2.57273ZM69.8502 64.7982V69.5979H2.65464V64.7982H69.8502ZM7.45432 62.3983V26.4007H12.254V62.3983H7.45432ZM14.6538 62.3983V26.4007H57.851V62.3983H14.6538ZM60.2508 62.3983V26.4007H65.0505V62.3983H60.2508ZM2.65464 24.0009V21.6011H69.8502V24.0009H2.65464Z" fill="#FEBE09"/>
</g>
<defs>
<clipPath id="clip0_7073_897">
<rect width="72" height="72" fill="white" transform="translate(0.25)"/>
</clipPath>
</defs>
</svg>
