<svg width="73" height="72" viewBox="0 0 73 72" fill="none" xmlns="http://www.w3.org/2000/svg">
<g clip-path="url(#clip0_6860_955)">
<path d="M22.3549 42.0577C22.0464 41.949 21.7391 41.8369 21.4331 41.7213V36.7876C22.2096 36.9735 22.6724 37.3661 22.7136 37.402C22.9186 37.5846 23.1872 37.679 23.4612 37.6649C23.7353 37.6509 23.9928 37.5294 24.178 37.3268C24.3631 37.1242 24.461 36.8568 24.4504 36.5825C24.4397 36.3083 24.3215 36.0493 24.1213 35.8616C24.0619 35.8069 23.0652 34.9087 21.4331 34.6639V33.6563C21.4286 33.3826 21.3167 33.1216 21.1215 32.9296C20.9264 32.7376 20.6636 32.63 20.3898 32.63C20.116 32.63 19.8532 32.7376 19.6581 32.9296C19.4629 33.1216 19.351 33.3826 19.3465 33.6563V34.744C19.1875 34.7785 19.0299 34.8192 18.874 34.8658C17.3816 35.3154 16.2664 36.5927 15.9636 38.1992C15.6877 39.664 16.1568 41.0764 17.1883 41.8854C17.7348 42.314 18.415 42.7067 19.3466 43.1214V49.3771C18.5407 49.3177 17.9824 49.121 17.0677 48.5225C16.953 48.4471 16.8246 48.3951 16.6898 48.3694C16.5551 48.3437 16.4165 48.3448 16.2822 48.3727C16.1478 48.4007 16.0203 48.4548 15.9069 48.5321C15.7935 48.6094 15.6965 48.7082 15.6214 48.8231C15.5463 48.9379 15.4945 49.0664 15.4692 49.2012C15.4438 49.3361 15.4453 49.4746 15.4735 49.6089C15.5017 49.7432 15.5562 49.8706 15.6337 49.9838C15.7113 50.097 15.8104 50.1938 15.9254 50.2686C17.2591 51.1411 18.1703 51.4012 19.3466 51.4675V52.5957C19.3511 52.8694 19.463 53.1304 19.6582 53.3224C19.8534 53.5144 20.1162 53.622 20.3899 53.622C20.6637 53.622 20.9265 53.5144 21.1217 53.3224C21.3168 53.1304 21.4287 52.8694 21.4332 52.5957V51.3845C23.7739 50.9252 25.1412 48.9951 25.4443 47.1922C25.8337 44.8742 24.6212 42.8588 22.3549 42.0577ZM18.4758 40.2436C18.0598 39.9172 17.8827 39.282 18.0139 38.5856C18.1315 37.9617 18.5434 37.212 19.3464 36.9088V40.8001C19.0187 40.6223 18.7224 40.437 18.4758 40.2436ZM23.3862 46.8464C23.2256 47.8015 22.5605 48.8139 21.433 49.2173V43.944C21.5082 43.971 21.5819 43.9977 21.6594 44.0252C23.5873 44.7065 23.4686 46.3567 23.3862 46.8464Z" fill="#FEBE09"/>
<path d="M72.6105 40.7151C72.5236 40.3156 72.337 39.9445 72.0681 39.6364C71.7993 39.3284 71.4568 39.0933 71.0727 38.9532L68.0865 37.8556C67.9577 37.8073 67.8206 37.7848 67.683 37.7897C67.5455 37.7945 67.4103 37.8265 67.2851 37.8839C67.16 37.9412 67.0475 38.0227 66.954 38.1238C66.8605 38.2248 66.788 38.3433 66.7405 38.4725C66.693 38.6016 66.6716 38.7389 66.6774 38.8764C66.6832 39.014 66.7162 39.1489 66.7744 39.2737C66.8326 39.3984 66.9149 39.5103 67.0166 39.6031C67.1183 39.6958 67.2373 39.7676 67.3668 39.8141L70.353 40.9117C70.5084 40.9688 70.5573 41.0939 70.5725 41.1634C70.5878 41.2329 70.596 41.3669 70.4787 41.484L43.8225 68.1404C43.7051 68.2578 43.571 68.2493 43.5018 68.2341C43.4323 68.2188 43.3073 68.17 43.2502 68.0144L39.5041 57.822C39.3826 57.4906 39.1903 57.1897 38.9407 56.9402C38.6912 56.6906 38.3902 56.4984 38.0589 56.3769L27.8667 52.631C27.7111 52.5737 27.6623 52.4487 27.647 52.3792C27.6317 52.3098 27.6235 52.1758 27.7407 52.0586L54.3971 25.4023C54.5144 25.285 54.6481 25.2933 54.7178 25.3085C54.7872 25.3238 54.9122 25.3726 54.9693 25.5282L58.7153 35.7204C58.8368 36.0518 59.029 36.3528 59.2786 36.6023C59.5282 36.8519 59.8292 37.0441 60.1606 37.1656L62.7529 38.1183C63.2938 38.3173 63.8934 38.0399 64.0921 37.499C64.2908 36.9582 64.0136 36.3585 63.4726 36.1598L60.8802 35.207C60.8329 35.1896 60.79 35.1622 60.7544 35.1266C60.7188 35.0909 60.6914 35.048 60.6741 35.0007L56.9281 24.8084C56.788 24.4243 56.553 24.0819 56.2449 23.813C55.9369 23.5442 55.5659 23.3576 55.1663 23.2707C54.7672 23.1819 54.3521 23.1955 53.9597 23.3102C53.5672 23.4249 53.2101 23.6371 52.9217 23.9269L51.9126 24.936V14.5851C51.9126 13.2429 50.8205 12.1508 49.4782 12.1508H38.852C39.8242 10.2608 39.5204 7.87888 37.9389 6.29755C37.2881 5.64483 36.47 5.18412 35.5745 4.96603C34.6789 4.74794 33.7406 4.78091 32.8625 5.06132C32.1832 3.0906 30.3112 1.67029 28.1126 1.67029C25.9142 1.67029 24.0424 3.09032 23.3629 5.06076C21.6039 4.49727 19.6425 4.94123 18.2865 6.29741C17.3375 7.24621 16.815 8.50776 16.815 9.84974C16.8136 10.6502 17.0045 11.4393 17.3715 12.1506H16.4963C16.2226 12.1551 15.9616 12.267 15.7696 12.4622C15.5776 12.6574 15.47 12.9202 15.47 13.1939C15.47 13.4677 15.5776 13.7305 15.7696 13.9257C15.9616 14.1209 16.2226 14.2327 16.4963 14.2372H23.9311V24.1118C22.7729 23.9003 21.5979 23.7936 20.4204 23.793C18.2458 23.793 16.1994 24.1319 14.2411 24.7841L6.39956 24.7844V14.585C6.39964 14.4928 6.4363 14.4044 6.5015 14.3392C6.56671 14.274 6.65512 14.2373 6.74733 14.2372H11.504C11.7777 14.2327 12.0387 14.1209 12.2307 13.9257C12.4227 13.7305 12.5303 13.4677 12.5303 13.1939C12.5303 12.9202 12.4227 12.6574 12.2307 12.4622C12.0387 12.267 11.7777 12.1551 11.504 12.1506H6.74705C5.40478 12.1506 4.31269 13.2427 4.31269 14.585V32.1046C4.31269 32.111 4.31353 32.1171 4.31367 32.1236C2.01867 35.3504 0.667969 39.2931 0.667969 43.5453C0.667969 47.788 1.99856 51.8343 4.51589 55.247C4.61286 55.3787 4.73947 55.4857 4.88546 55.5593C5.03146 55.633 5.19274 55.6712 5.35627 55.671C5.54928 55.6709 5.73848 55.6172 5.90282 55.516C6.06716 55.4148 6.2002 55.27 6.28712 55.0976C6.37405 54.9253 6.41146 54.7322 6.39518 54.5399C6.37891 54.3476 6.3096 54.1635 6.19495 54.0082C3.94411 50.957 2.75442 47.3388 2.75442 43.5452C2.75442 33.8044 10.6792 25.8797 20.42 25.8797C28.5847 25.8797 35.6034 31.3804 37.565 39.2833L35.7988 41.0495C35.2704 37.7693 33.707 34.7482 31.2823 32.3871C28.3545 29.5364 24.4969 27.9663 20.42 27.9663C11.8298 27.9663 4.84102 34.955 4.84102 43.5452C4.84102 52.1354 11.8297 59.1242 20.42 59.1242C23.9655 59.1242 27.3995 57.9107 30.1586 55.6964L32.3948 56.5183C29.144 59.5162 24.8605 61.2108 20.42 61.2108C16.3897 61.2108 12.4447 59.8117 9.31191 57.2714C9.09649 57.102 8.82306 57.0241 8.55069 57.0546C8.27832 57.0851 8.02889 57.2215 7.85628 57.4344C7.68367 57.6473 7.60176 57.9196 7.62823 58.1923C7.65471 58.4651 7.78744 58.7166 7.99777 58.8923C11.501 61.7331 15.9127 63.2975 20.42 63.2975C25.7383 63.2975 30.8544 61.125 34.5658 57.3162L37.339 58.3354C37.3863 58.3528 37.4293 58.3802 37.4649 58.4159C37.5006 58.4515 37.528 58.4945 37.5453 58.5419L41.2913 68.7341C41.4314 69.1182 41.6664 69.4606 41.9744 69.7294C42.2824 69.9983 42.6534 70.1849 43.0529 70.2718C43.2287 70.3105 43.4056 70.3295 43.5808 70.3295C43.8999 70.3294 44.2158 70.2663 44.5105 70.1438C44.8051 70.0213 45.0726 69.8418 45.2977 69.6157L71.9542 42.9595C72.244 42.6711 72.4561 42.3141 72.5709 41.9217C72.6856 41.5293 72.6992 41.1142 72.6105 40.7151ZM6.39928 29.6471V26.8713H9.84262C8.59522 27.6657 7.4403 28.5967 6.39928 29.6471ZM49.8258 14.5851V24.7845H32.2941V14.2374H49.4781C49.5703 14.2375 49.6587 14.2742 49.7238 14.3394C49.789 14.4046 49.8257 14.4929 49.8258 14.5851ZM36.4635 7.77299C37.6086 8.91824 37.6086 10.7817 36.4636 11.9266C36.4179 11.9725 36.3292 12.0484 36.1752 12.1508H31.092C32.6064 9.30215 32.9991 7.90827 33.1005 7.20796C33.6499 6.93957 34.2696 6.84975 34.8726 6.95107C35.4757 7.05239 36.0319 7.33978 36.4635 7.77299ZM28.1125 3.75688C29.7321 3.75688 31.0497 5.07454 31.0497 6.69398C31.0497 6.99548 30.8782 8.27404 28.7155 12.1506H27.5096C25.3474 8.27502 25.1754 6.99604 25.1754 6.69398C25.1754 5.07454 26.4929 3.75688 28.1125 3.75688ZM19.7617 11.9268C19.207 11.372 18.9014 10.6344 18.9014 9.84988C18.9014 9.06533 19.207 8.32776 19.7617 7.77299C20.6584 6.87637 22.0067 6.66121 23.1247 7.20852C23.2262 7.90912 23.6185 9.30229 25.1329 12.1508H20.05C19.896 12.0486 19.8076 11.9726 19.7617 11.9268ZM26.0175 14.2374H30.2075V24.7845H26.595C26.5904 24.7845 26.586 24.7851 26.5814 24.7852C26.3943 24.7236 26.2062 24.6657 26.0175 24.6097V14.2374ZM32.7652 28.1362C32.1989 27.6821 31.6079 27.2598 30.9947 26.8713H49.826V27.0226L45.7872 31.0613H35.7121C34.8349 29.9858 33.8472 29.0054 32.7652 28.1362ZM37.2022 33.1479H43.7005L39.2542 37.5942C38.7572 36.0328 38.0679 34.5392 37.2022 33.1479ZM20.4202 57.0377C12.9804 57.0377 6.92789 50.9851 6.92789 43.5455C6.92789 36.1058 12.9805 30.0532 20.4202 30.0532C27.5823 30.0532 33.5849 35.8199 33.8985 42.9502L26.2654 50.5833C25.6752 51.1735 25.4298 52.0126 25.6092 52.8278C25.7887 53.643 26.3635 54.3016 27.147 54.5896L27.8047 54.8313C25.6106 56.2703 23.044 57.0372 20.4202 57.0377Z" fill="#FEBE09"/>
<path d="M51.8243 55.5609C51.9556 55.5609 52.0895 55.5359 52.2186 55.483C52.3454 55.4312 52.4608 55.3549 52.5581 55.2584C52.6555 55.162 52.7329 55.0473 52.7859 54.921C52.8389 54.7946 52.8665 54.6591 52.8671 54.5221C52.8678 54.3851 52.8414 54.2493 52.7895 54.1224L46.7823 39.4266C46.7305 39.2997 46.6542 39.1843 46.5577 39.087C46.4613 38.9896 46.3467 38.9122 46.2203 38.8592C46.094 38.8062 45.9584 38.7786 45.8214 38.778C45.6844 38.7774 45.5486 38.8037 45.4217 38.8556C45.2949 38.9075 45.1795 38.9838 45.0822 39.0802C44.9848 39.1766 44.9074 39.2913 44.8544 39.4176C44.8014 39.544 44.7738 39.6795 44.7732 39.8165C44.7726 39.9536 44.7989 40.0894 44.8508 40.2162L50.858 54.9121C50.9364 55.1039 51.0702 55.2681 51.2423 55.3837C51.4144 55.4992 51.617 55.5609 51.8243 55.5609ZM39.4204 43.7772C38.6895 44.5082 38.332 45.512 38.4138 46.6036C38.4913 47.6364 38.9593 48.6306 39.7315 49.4028C40.5038 50.1751 41.4979 50.6431 42.5308 50.7204C42.6331 50.7282 42.7348 50.732 42.8355 50.732C43.8083 50.732 44.6947 50.3762 45.3572 49.7139C46.0882 48.9829 46.4456 47.9791 46.3638 46.8874C46.2863 45.8545 45.8183 44.8605 45.0461 44.0881C44.2738 43.3158 43.2797 42.8478 42.2468 42.7705C41.1543 42.6882 40.1513 43.0463 39.4204 43.7772ZM43.5707 45.5637C43.9899 45.9831 44.243 46.5086 44.2831 47.0435C44.3188 47.5195 44.1762 47.9439 43.8816 48.2386C43.5871 48.533 43.1623 48.6751 42.6867 48.6399C42.1518 48.5998 41.6263 48.3468 41.2069 47.9275C40.7877 47.5081 40.5346 46.9826 40.4945 46.4478C40.4588 45.9718 40.6014 45.5474 40.896 45.2528C41.1608 44.988 41.5305 44.8461 41.9486 44.8461C41.9954 44.8461 42.0429 44.8479 42.0909 44.8515C42.6258 44.8914 43.1513 45.1444 43.5707 45.5637C43.5706 45.5637 43.5706 45.5637 43.5707 45.5637ZM55.78 51.9423C56.753 51.9423 57.6394 51.5866 58.3017 50.9242C59.7669 49.459 59.6274 46.9354 57.9908 45.2985C56.3542 43.6618 53.8304 43.5224 52.3651 44.9874C50.8999 46.4526 51.0394 48.9763 52.6762 50.613C53.4485 51.3853 54.4426 51.8533 55.4754 51.9307C55.578 51.9385 55.6795 51.9423 55.78 51.9423ZM53.8407 46.463C54.117 46.1867 54.4918 46.0527 54.8948 46.0527C55.442 46.0527 56.0412 46.3 56.5152 46.7741C57.3384 47.5973 57.4779 48.7973 56.8261 49.4489C56.5317 49.7432 56.1071 49.8858 55.6314 49.8503C55.0965 49.8102 54.5708 49.5572 54.1516 49.1378C53.3285 48.3145 53.189 47.1147 53.8407 46.463Z" fill="#FEBE09"/>
</g>
<defs>
<clipPath id="clip0_6860_955">
<rect width="72" height="72" fill="white" transform="translate(0.667969)"/>
</clipPath>
</defs>
</svg>
