<svg width="72" height="72" viewBox="0 0 72 72" fill="none" xmlns="http://www.w3.org/2000/svg">
<path d="M46.8162 58.4212C45.9567 58.4237 45.1136 58.6568 44.3749 59.0962L36.3762 51.1874C36.1612 50.9946 35.8802 50.8918 35.5915 50.9004C35.3028 50.909 35.0284 51.0283 34.8253 51.2336C34.6221 51.439 34.5057 51.7146 34.5002 52.0033C34.4947 52.2921 34.6004 52.572 34.7956 52.7849L42.7606 60.6599C42.2713 61.426 42.0117 62.316 42.0124 63.2249C42.0124 64.1764 42.2946 65.1064 42.8234 65.8975C43.3521 66.6885 44.1035 67.3049 44.9826 67.6688C45.8618 68.0326 46.8291 68.1275 47.7621 67.9415C48.6952 67.7555 49.5522 67.2969 50.2245 66.6237C50.8969 65.9505 51.3545 65.093 51.5395 64.1597C51.7244 63.2265 51.6284 62.2593 51.2635 61.3806C50.8986 60.5019 50.2813 59.7511 49.4897 59.2234C48.698 58.6956 47.7676 58.4145 46.8162 58.4156V58.4212ZM46.8162 65.7843C46.3098 65.7843 45.8147 65.6341 45.3937 65.3526C44.9727 65.0711 44.6446 64.6711 44.4511 64.2031C44.2576 63.7351 44.2072 63.2202 44.3064 62.7236C44.4056 62.2269 44.6499 61.7709 45.0084 61.4132C45.3669 61.0555 45.8235 60.8122 46.3203 60.7141C46.8172 60.6159 47.332 60.6674 47.7995 60.862C48.2671 61.0566 48.6664 61.3855 48.947 61.8071C49.2275 62.2288 49.3767 62.7241 49.3756 63.2306C49.3785 63.5686 49.3145 63.9038 49.1872 64.2169C49.0599 64.53 48.8719 64.8148 48.6339 65.0549C48.396 65.2949 48.1128 65.4855 47.8008 65.6155C47.4888 65.7455 47.1542 65.8125 46.8162 65.8124V65.7843Z" fill="#FEBE09"/>
<path d="M67.1681 42.8737C61.7335 37.4367 54.3748 34.3606 46.6875 34.3125C30.7969 34.3125 18 47.1712 18 63.5625C18 63.8609 18.1185 64.147 18.3295 64.358C18.5405 64.569 18.8266 64.6875 19.125 64.6875H24.1875C24.4859 64.6875 24.772 64.569 24.983 64.358C25.194 64.147 25.3125 63.8609 25.3125 63.5625C25.3125 63.2641 25.194 62.978 24.983 62.767C24.772 62.556 24.4859 62.4375 24.1875 62.4375H20.25C20.4561 56.0479 22.9079 49.9353 27.1744 45.1744L29.8519 47.8519C29.9544 47.9646 30.0788 48.0554 30.2174 48.1186C30.3561 48.1818 30.5062 48.2162 30.6585 48.2197C30.8109 48.2232 30.9623 48.1957 31.1037 48.1388C31.2451 48.082 31.3735 47.997 31.4811 47.8891C31.5887 47.7811 31.6732 47.6524 31.7295 47.5108C31.7858 47.3692 31.8128 47.2177 31.8088 47.0653C31.8048 46.913 31.7699 46.763 31.7061 46.6246C31.6424 46.4862 31.5512 46.3621 31.4381 46.26L28.7494 43.5656C33.3329 39.2949 39.3018 36.8187 45.5625 36.5906V40.5281C45.5625 40.8265 45.681 41.1126 45.892 41.3236C46.103 41.5346 46.3891 41.6531 46.6875 41.6531C46.9859 41.6531 47.272 41.5346 47.483 41.3236C47.694 41.1126 47.8125 40.8265 47.8125 40.5281V36.5906C54.12 36.9014 60.1191 39.4132 64.7663 43.6894L62.1956 46.26C62.0911 46.3645 62.0082 46.4886 61.9516 46.6252C61.8951 46.7617 61.8659 46.9081 61.8659 47.0559C61.8659 47.2038 61.8951 47.3501 61.9516 47.4867C62.0082 47.6233 62.0911 47.7474 62.1956 47.8519C62.3001 47.9564 62.4242 48.0393 62.5608 48.0959C62.6974 48.1524 62.8437 48.1816 62.9916 48.1816C63.1394 48.1816 63.2858 48.1524 63.4223 48.0959C63.5589 48.0393 63.683 47.9564 63.7875 47.8519L67.1625 44.4769C67.2692 44.3726 67.354 44.2481 67.4121 44.1107C67.4702 43.9733 67.5004 43.8257 67.5009 43.6765C67.5015 43.5273 67.4723 43.3795 67.4152 43.2417C67.358 43.1039 67.2741 42.9788 67.1681 42.8737ZM32.0625 28.125V30.1163C32.0901 30.9172 32.4187 31.6783 32.9828 32.2476C33.5469 32.817 34.3049 33.1526 35.1056 33.1875H38.565C39.3682 33.1581 40.1304 32.8255 40.6981 32.2567C41.2659 31.6879 41.5971 30.9251 41.625 30.1219V20.9756C41.625 19.2881 41.5687 17.7581 40.8544 16.3181H41.625C41.9234 16.3181 42.2095 16.1996 42.4205 15.9886C42.6315 15.7776 42.75 15.4915 42.75 15.1931C42.75 14.8948 42.6315 14.6086 42.4205 14.3976C42.2095 14.1867 41.9234 14.0681 41.625 14.0681H39.7687C39.6844 13.9163 39.9319 14.445 39.1275 12.7294C38.475 11.3344 37.9125 10.1306 37.4738 9.32063C36.45 7.41375 34.2169 6.77812 32.9737 6.57563C29.8969 6.05812 19.5919 6.05812 16.515 6.57563C15.2719 6.77812 13.0388 7.41375 12.015 9.32063C11.5763 10.1306 11.0138 11.3344 10.3612 12.7294C10.1701 13.1843 9.9561 13.6292 9.72 14.0625H7.875C7.57663 14.0625 7.29048 14.181 7.07951 14.392C6.86853 14.603 6.75 14.8891 6.75 15.1875C6.75 15.4859 6.86853 15.772 7.07951 15.983C7.29048 16.194 7.57663 16.3125 7.875 16.3125H8.64562C7.93125 17.7581 7.875 19.2769 7.875 20.9756V30.0938C7.89856 30.901 8.22751 31.6693 8.79545 32.2435C9.36339 32.8177 10.128 33.1551 10.935 33.1875H14.3944C15.1979 33.1496 15.9576 32.81 16.5218 32.2365C17.0859 31.663 17.4129 30.8978 17.4375 30.0938V28.125H32.0625ZM11.52 15.5419C12.3282 15.3391 13.1526 15.2073 13.9838 15.1481C15.6038 15.0188 17.3081 15.9525 17.7694 16.605C16.6403 17.3625 15.3961 17.9324 14.085 18.2925C12.8678 18.706 11.5457 18.6901 10.3387 18.2475C10.5019 17.5387 10.5806 17.5162 11.52 15.5419ZM10.125 24.75V20.5594C11.6315 20.9612 13.221 20.9281 14.7094 20.4638C16.7625 19.8675 20.5594 18.3938 20.0475 16.3012L29.25 16.3125C29.0531 18.3825 33.5813 20.1206 34.515 20.4525C36.0568 21.0506 37.726 21.2442 39.3638 21.015V24.75C39.3638 25.0484 39.2452 25.3345 39.0342 25.5455C38.8233 25.7565 38.5371 25.875 38.2388 25.875H11.25C10.9516 25.875 10.6655 25.7565 10.4545 25.5455C10.2435 25.3345 10.125 25.0484 10.125 24.75ZM38.0081 15.6094C38.9362 17.5556 39.0994 17.6963 39.2569 18.7481C38.5256 18.99 37.0575 18.9675 35.28 18.3319C33.9581 17.8803 32.7163 17.2215 31.6012 16.38C32.0963 15.7613 33.8512 14.9569 35.4994 15.1931C36.7031 15.3675 37.5244 15.5138 38.0081 15.6094ZM38.5706 30.9375H35.1056C34.6331 30.9375 34.3125 30.3188 34.3125 30.1163V28.125H38.25C38.6329 28.1229 39.0129 28.0583 39.375 27.9338V30.1163C39.375 30.3188 39.0375 30.9375 38.565 30.9375H38.5706ZM14.0006 10.3725C14.5912 9.2475 16.2169 8.8875 16.8919 8.775C19.7044 8.30813 29.7788 8.3025 32.6081 8.775C33.2831 8.8875 34.9088 9.27 35.4994 10.3725C35.8481 11.025 36.3094 11.9925 36.8381 13.1175C34.7512 12.7856 32.8163 12.7913 30.8813 14.0625H18.2306C16.5853 13.0345 14.6106 12.6705 12.7069 13.0444C13.2188 11.9363 13.6631 11.0025 14.0006 10.3725ZM15.1875 30.0938C15.1875 30.3412 14.8444 30.9375 14.3944 30.9375H10.935C10.485 30.9375 10.1419 30.3412 10.1419 30.0938V27.9338C10.4976 28.0603 10.8724 28.125 11.25 28.125H15.1875V30.0938Z" fill="#FEBE09"/>
</svg>
