<svg width="72" height="72" viewBox="0 0 72 72" fill="none" xmlns="http://www.w3.org/2000/svg">
<path d="M44.2579 63.871H62.8391C63.1128 63.871 63.3754 63.7622 63.569 63.5686C63.7626 63.375 63.8714 63.1125 63.8714 62.8387V38.0638C63.8714 37.79 63.7626 37.5274 63.569 37.3338C63.3754 37.1403 63.1128 37.0315 62.8391 37.0315H44.2579C43.9841 37.0315 43.7215 37.1403 43.5279 37.3338C43.3343 37.5274 43.2256 37.79 43.2256 38.0638V62.8387C43.2256 63.1125 43.3343 63.375 43.5279 63.5686C43.7215 63.7622 43.9841 63.871 44.2579 63.871ZM45.2902 57.6773H49.4193V61.8064H45.2902V57.6773ZM61.8068 45.2898V49.419H57.6776V45.2898H61.8068ZM55.613 49.419H51.4839V45.2898H55.613V49.419ZM55.613 61.8064H51.4839V57.6773H55.613V61.8064ZM55.613 55.6127H51.4839V51.4835H55.613V55.6127ZM49.4193 49.419H45.2902V45.2898H49.4193V49.419ZM49.4193 51.4835V55.6127H45.2902V51.4835H49.4193ZM57.6776 61.8064V51.4835H61.8068V61.8064H57.6776ZM61.8068 39.0961V43.2252H45.2902V39.0961H61.8068Z" fill="#FEBE09"/>
<path d="M66.9686 32.9023H56.0563L52.723 25.957C52.3014 25.0873 51.6754 24.3325 50.8987 23.7573C50.1219 23.182 49.2174 22.8034 48.2625 22.6537C50.0219 21.3756 51.3327 19.5744 52.0079 17.5072C52.6831 15.4401 52.6882 13.2124 52.0225 11.1422C51.3568 9.07193 50.0543 7.26477 48.3008 5.97852C46.5474 4.69228 44.4325 3.99265 42.2579 3.97944C40.0832 3.96623 37.96 4.64012 36.191 5.90496C34.4221 7.16981 33.0977 8.96101 32.4069 11.023C31.7161 13.0851 31.6942 15.3126 32.3442 17.3878C32.9943 19.463 34.2831 21.28 36.0268 22.5794H30.8385C30.8401 20.7933 30.3782 19.0374 29.498 17.4832C28.6178 15.9291 27.3494 14.6299 25.8168 13.7127C24.2843 12.7954 22.5399 12.2916 20.7543 12.2503C18.9687 12.209 17.2029 12.6317 15.6296 13.4771C14.0562 14.3225 12.7291 15.5616 11.7781 17.0734C10.827 18.5852 10.2844 20.3179 10.2034 22.1022C10.1224 23.8864 10.5057 25.6612 11.3159 27.2529C12.1261 28.8447 13.3354 30.199 14.8257 31.1835L12.6259 35.3127C12.1928 35.0884 11.7127 34.9699 11.225 34.9669H7.09589C6.27455 34.9669 5.48685 35.2931 4.90607 35.8739C4.3253 36.4547 3.99902 37.2424 3.99902 38.0637C3.99902 38.8851 4.3253 39.6728 4.90607 40.2535C5.48685 40.8343 6.27455 41.1606 7.09589 41.1606H8.2314C6.83563 42.7109 6.06338 44.7232 6.0636 46.8093V54.5803C6.0714 56.4649 6.81177 58.2725 8.12818 59.621V63.8709C8.12818 64.966 8.56321 66.0163 9.33758 66.7907C10.1119 67.565 11.1622 68.0001 12.2573 68.0001H16.3865C17.4816 68.0001 18.5319 67.565 19.3062 66.7907C20.0806 66.0163 20.5156 64.966 20.5156 63.8709V61.8064H39.0968V66.9678C39.0968 67.2416 39.2056 67.5041 39.3992 67.6977C39.5928 67.8913 39.8553 68.0001 40.1291 68.0001H66.9686C67.2424 68.0001 67.505 67.8913 67.6985 67.6977C67.8921 67.5041 68.0009 67.2416 68.0009 66.9678V33.9346C68.0009 33.6608 67.8921 33.3982 67.6985 33.2046C67.505 33.011 67.2424 32.9023 66.9686 32.9023ZM33.9354 14.3211C33.9354 12.6878 34.4197 11.0911 35.3272 9.73303C36.2346 8.37496 37.5244 7.31647 39.0334 6.69142C40.5424 6.06636 42.2028 5.90282 43.8048 6.22147C45.4068 6.54012 46.8782 7.32665 48.0332 8.48159C49.1881 9.63654 49.9747 11.108 50.2933 12.71C50.612 14.3119 50.4484 15.9724 49.8234 17.4814C49.1983 18.9904 48.1398 20.2802 46.7818 21.1876C45.4237 22.0951 43.827 22.5794 42.1937 22.5794C40.0042 22.5769 37.9051 21.7061 36.3569 20.1579C34.8087 18.6097 33.9378 16.5106 33.9354 14.3211ZM47.3551 24.644C48.0881 24.6457 48.8059 24.8534 49.4265 25.2434C50.0471 25.6335 50.5455 26.1902 50.8649 26.85L53.7667 32.9023H50.6244L48.3079 27.3434C48.2295 27.1554 48.0972 26.9948 47.9276 26.8818C47.7581 26.7688 47.5589 26.7085 47.3551 26.7086H29.9704C30.2628 26.0457 30.4839 25.3536 30.63 24.644H47.3551ZM25.5831 40.1283L33.444 28.7731H36.0939L28.233 40.1283H25.5831ZM19.727 36.7878L21.7069 32.828C23.0951 32.665 24.4356 32.2215 25.6471 31.5245C26.8586 30.8274 27.9158 29.8914 28.7543 28.7731H30.9325L23.0716 40.1283H21.7915C21.3981 40.1283 21.0112 40.0277 20.6675 39.8362C20.3238 39.6446 20.0349 39.3683 19.828 39.0336C19.6212 38.6989 19.5033 38.3169 19.4856 37.9238C19.4679 37.5308 19.551 37.1397 19.727 36.7878ZM12.2573 22.5794C12.2573 20.9461 12.7417 19.3494 13.6491 17.9913C14.5565 16.6333 15.8463 15.5748 17.3553 14.9497C18.8643 14.3247 20.5248 14.1611 22.1267 14.4798C23.7287 14.7984 25.2002 15.585 26.3551 16.7399C27.5101 17.8948 28.2966 19.3663 28.6153 20.9683C28.9339 22.5702 28.7704 24.2307 28.1453 25.7397C27.5203 27.2487 26.4618 28.5385 25.1037 29.4459C23.7456 30.3534 22.149 30.8377 20.5156 30.8377C18.3262 30.8352 16.227 29.9644 14.6788 28.4162C13.1306 26.868 12.2598 24.7689 12.2573 22.5794ZM6.0636 38.0637C6.0636 37.7899 6.17236 37.5274 6.36595 37.3338C6.55954 37.1402 6.82211 37.0314 7.09589 37.0314H11.225C11.3736 37.0344 11.5198 37.0696 11.6534 37.1347L10.6057 39.096H7.09589C6.82211 39.096 6.55954 38.9873 6.36595 38.7937C6.17236 38.6001 6.0636 38.3375 6.0636 38.0637ZM18.4511 63.8709C18.4511 64.4185 18.2335 64.9436 17.8464 65.3308C17.4592 65.718 16.934 65.9355 16.3865 65.9355H12.2573C11.7098 65.9355 11.1846 65.718 10.7975 65.3308C10.4103 64.9436 10.1928 64.4185 10.1928 63.8709V61.0889C11.1589 61.5557 12.2166 61.8025 13.2896 61.8115H18.4511V63.8709ZM13.2896 59.7418C11.9207 59.7418 10.6079 59.198 9.63993 58.23C8.67197 57.2621 8.12818 55.9492 8.12818 54.5803V46.8093C8.12495 45.6139 8.45657 44.4415 9.08546 43.4249C9.71436 42.4083 10.6154 41.5882 11.6865 41.0574C11.8779 40.9612 12.0351 40.8084 12.1366 40.6197L16.6538 32.1549C17.5306 32.5117 18.4526 32.7448 19.3935 32.8476L17.8802 35.865C17.547 36.5316 17.3896 37.2724 17.4232 38.017C17.4568 38.7616 17.6801 39.4852 18.072 40.1192C18.4638 40.7532 19.0113 41.2765 19.6623 41.6394C20.3133 42.0024 21.0462 42.1929 21.7915 42.1929H39.0968V46.322H22.5802C22.4167 46.3222 22.2556 46.3611 22.1101 46.4357C21.9646 46.5102 21.839 46.6183 21.7434 46.7509C21.6478 46.8836 21.5852 47.037 21.5605 47.1987C21.5359 47.3603 21.5499 47.5254 21.6016 47.6805L23.6662 53.8743C23.7346 54.0797 23.8659 54.2585 24.0416 54.3852C24.2172 54.5119 24.4282 54.5802 24.6448 54.5803H39.0968V59.7418H13.2896ZM39.0968 48.3866V52.5158H25.3891L24.013 48.3866H39.0968ZM39.0968 33.9346V40.1283H30.7446L38.6054 28.7731H46.6666L48.3874 32.9023H40.1291C39.8553 32.9023 39.5928 33.011 39.3992 33.2046C39.2056 33.3982 39.0968 33.6608 39.0968 33.9346ZM65.9363 65.9355H41.1614V34.9669H65.9363V65.9355Z" fill="#FEBE09"/>
<path d="M15.3538 46.3221C14.5371 46.3221 13.7388 46.5643 13.0597 47.018C12.3807 47.4717 11.8515 48.1166 11.5389 48.8711C11.2264 49.6256 11.1446 50.4558 11.304 51.2568C11.4633 52.0578 11.8565 52.7935 12.434 53.371C13.0115 53.9485 13.7472 54.3418 14.5482 54.5011C15.3492 54.6604 16.1794 54.5786 16.9339 54.2661C17.6884 53.9536 18.3333 53.4243 18.787 52.7453C19.2407 52.0663 19.4829 51.2679 19.4829 50.4513C19.4829 49.3561 19.0479 48.3059 18.2735 47.5315C17.4992 46.7571 16.4489 46.3221 15.3538 46.3221ZM15.3538 52.5158C14.9454 52.5158 14.5463 52.3948 14.2067 52.1679C13.8672 51.941 13.6026 51.6186 13.4463 51.2413C13.2901 50.8641 13.2492 50.449 13.3289 50.0485C13.4085 49.648 13.6052 49.2801 13.8939 48.9914C14.1826 48.7026 14.5505 48.506 14.951 48.4264C15.3515 48.3467 15.7666 48.3876 16.1438 48.5438C16.5211 48.7001 16.8435 48.9647 17.0704 49.3042C17.2973 49.6438 17.4183 50.0429 17.4183 50.4513C17.4183 50.9988 17.2008 51.524 16.8136 51.9111C16.4265 52.2983 15.9013 52.5158 15.3538 52.5158ZM42.1933 11.2243C42.467 11.2243 42.7296 11.3331 42.9232 11.5267C43.1168 11.7202 43.2255 11.9828 43.2255 12.2566H45.2901C45.2875 11.6184 45.0877 10.9966 44.7181 10.4762C44.3486 9.95586 43.8273 9.56241 43.2255 9.34967V8.12744H41.161V9.34967C40.4728 9.59207 39.8926 10.0702 39.5231 10.6994C39.1537 11.3286 39.0188 12.0683 39.1424 12.7874C39.2661 13.5065 39.6402 14.1586 40.1986 14.6283C40.757 15.0979 41.4636 15.3548 42.1933 15.3535C42.3974 15.3535 42.597 15.414 42.7668 15.5274C42.9365 15.6409 43.0688 15.8021 43.147 15.9907C43.2251 16.1793 43.2455 16.3869 43.2057 16.5871C43.1659 16.7874 43.0676 16.9713 42.9232 17.1157C42.7788 17.2601 42.5949 17.3584 42.3947 17.3982C42.1944 17.438 41.9868 17.4176 41.7982 17.3395C41.6096 17.2613 41.4484 17.129 41.3349 16.9593C41.2215 16.7895 41.161 16.5899 41.161 16.3857H39.0964C39.099 17.024 39.2988 17.6458 39.6684 18.1661C40.0379 18.6865 40.5592 19.0799 41.161 19.2927V20.5149H43.2255V19.2927C43.9138 19.0503 44.494 18.5721 44.8634 17.9429C45.2329 17.3137 45.3677 16.5741 45.2441 15.855C45.1204 15.1359 44.7463 14.4837 44.1879 14.0141C43.6295 13.5444 42.9229 13.2875 42.1933 13.2889C41.9195 13.2889 41.6569 13.1801 41.4633 12.9865C41.2697 12.7929 41.161 12.5304 41.161 12.2566C41.161 11.9828 41.2697 11.7202 41.4633 11.5267C41.6569 11.3331 41.9195 11.2243 42.1933 11.2243ZM21.5475 28.7732V27.551C22.2357 27.3086 22.8159 26.8304 23.1854 26.2012C23.5548 25.572 23.6897 24.8324 23.566 24.1133C23.4424 23.3942 23.0682 22.742 22.5098 22.2724C21.9514 21.8027 21.2449 21.5458 20.5152 21.5472C20.311 21.5472 20.1115 21.4866 19.9417 21.3732C19.7719 21.2598 19.6396 21.0986 19.5615 20.9099C19.4834 20.7213 19.4629 20.5138 19.5028 20.3135C19.5426 20.1133 19.6409 19.9293 19.7853 19.785C19.9296 19.6406 20.1136 19.5423 20.3138 19.5024C20.5141 19.4626 20.7216 19.4831 20.9102 19.5612C21.0989 19.6393 21.2601 19.7716 21.3735 19.9414C21.487 20.1112 21.5475 20.3107 21.5475 20.5149H23.6121C23.6094 19.8767 23.4097 19.2549 23.0401 18.7345C22.6705 18.2142 22.1492 17.8207 21.5475 17.608V16.3857H19.4829V17.608C18.7947 17.8504 18.2145 18.3285 17.845 18.9577C17.4756 19.5869 17.3408 20.3266 17.4644 21.0457C17.588 21.7648 17.9622 22.4169 18.5206 22.8866C19.079 23.3563 19.7856 23.6131 20.5152 23.6118C20.7194 23.6118 20.919 23.6723 21.0887 23.7857C21.2585 23.8992 21.3908 24.0604 21.4689 24.249C21.547 24.4376 21.5675 24.6452 21.5277 24.8454C21.4878 25.0457 21.3895 25.2296 21.2451 25.374C21.1008 25.5184 20.9168 25.6167 20.7166 25.6565C20.5164 25.6963 20.3088 25.6759 20.1202 25.5978C19.9315 25.5196 19.7703 25.3873 19.6569 25.2176C19.5435 25.0478 19.4829 24.8482 19.4829 24.6441H17.4183C17.421 25.2823 17.6208 25.9041 17.9903 26.4244C18.3599 26.9448 18.8812 27.3382 19.4829 27.551V28.7732H21.5475Z" fill="#FEBE09"/>
</svg>
