<svg width="72" height="72" viewBox="0 0 72 72" fill="none" xmlns="http://www.w3.org/2000/svg">
<path d="M17.2044 70.5453C17.4154 70.7562 17.7015 70.8747 17.9998 70.8747C18.2981 70.8747 18.5842 70.7562 18.7951 70.5453L24.4201 64.9203C24.631 64.7094 24.7495 64.4233 24.7495 64.125C24.7495 63.8266 24.631 63.5405 24.4201 63.3296L22.9655 61.875L26.3405 58.5H42.9961C43.7844 58.4993 44.5638 58.3333 45.2839 58.0126C46.0041 57.6919 46.6488 57.2236 47.1766 56.6381L55.1641 47.7607C55.8638 46.9867 56.2507 45.9803 56.2498 44.937V44.7198C56.2496 43.869 55.9923 43.0381 55.5116 42.336C55.0309 41.634 54.3492 41.0936 53.5561 40.7858C52.7629 40.4779 51.8952 40.4169 51.0667 40.6109C50.2383 40.8048 49.4878 41.2445 48.9136 41.8725L43.3438 46.575C43.0407 46.0942 42.6211 45.6978 42.1239 45.4225C41.6267 45.1471 41.0681 45.0018 40.4998 45H33.2649C32.79 44.3046 32.1521 43.736 31.4069 43.3438C30.6618 42.9516 29.832 42.7477 28.9899 42.75C27.1421 42.7449 25.3118 43.1064 23.6047 43.8136C21.8976 44.5207 20.3478 45.5595 19.0449 46.8697L13.4998 52.4092L12.0451 50.9546C11.8342 50.7437 11.5481 50.6252 11.2498 50.6252C10.9514 50.6252 10.6654 50.7437 10.4544 50.9546L4.82938 56.5796C4.61848 56.7905 4.5 57.0766 4.5 57.375C4.5 57.6733 4.61848 57.9594 4.82938 58.1703L17.2044 70.5453ZM20.63 48.4605C21.7245 47.3598 23.0264 46.4873 24.4605 45.8933C25.8945 45.2993 27.4321 44.9956 28.9843 45C29.5316 44.9977 30.0686 45.1491 30.5341 45.4369C30.9997 45.7246 31.3752 46.1373 31.6179 46.6278C31.7113 46.8148 31.855 46.9721 32.0329 47.082C32.2107 47.1919 32.4157 47.25 32.6248 47.25H40.4998C40.7981 47.25 41.0843 47.3685 41.2953 47.5795C41.5062 47.7904 41.6248 48.0766 41.6248 48.375C41.6248 48.6733 41.5062 48.9595 41.2953 49.1704C41.0843 49.3814 40.7981 49.5 40.4998 49.5H32.6248V51.75H40.4998C41.2579 51.7479 41.9933 51.4906 42.5874 51.0196C43.1816 50.5485 43.5998 49.8912 43.7746 49.1535L50.4256 43.5375C50.4685 43.5006 50.5087 43.4607 50.546 43.4182C50.8103 43.1164 51.1605 42.9024 51.5496 42.8049C51.9388 42.7074 52.3484 42.7309 52.7239 42.8724C53.0993 43.0139 53.4226 43.2666 53.6506 43.5967C53.8786 43.9268 54.0004 44.3186 53.9998 44.7198V44.937C53.9999 45.4239 53.8195 45.8937 53.4935 46.2555L45.506 55.1328C45.1891 55.484 44.8022 55.7649 44.37 55.9573C43.9379 56.1497 43.4703 56.2494 42.9973 56.25H25.8748C25.5764 56.25 25.2903 56.3686 25.0794 56.5796L21.3748 60.2842L15.0905 54L20.63 48.4605ZM11.2498 53.3407L22.034 64.125L17.9998 68.1592L7.21551 57.375L11.2498 53.3407Z" fill="#FEBE09"/>
<path d="M39.375 42.75C42.9542 42.7461 46.3858 41.3226 48.9167 38.7917C51.4476 36.2608 52.8711 32.8292 52.875 29.25C52.8769 27.4554 52.5157 25.679 51.813 24.0278L57.0454 18.7954C57.2564 18.5844 57.3749 18.2983 57.375 18V16.875H58.5C58.7983 16.8749 59.0844 16.7564 59.2954 16.5454L61.5454 14.2954C61.7564 14.0844 61.8749 13.7983 61.875 13.5V12.375H63C63.2983 12.3749 63.5844 12.2564 63.7954 12.0454L67.1704 8.67037C67.3814 8.45945 67.4999 8.17334 67.5 7.875V3.375C67.4999 3.07666 67.3814 2.79055 67.1704 2.57963L66.0454 1.45462C65.8344 1.24363 65.5483 1.12506 65.25 1.125H60.75C60.4517 1.12506 60.1656 1.24363 59.9546 1.45462L44.5972 16.812C42.946 16.1093 41.1696 15.7481 39.375 15.75C35.7946 15.75 32.3608 17.1723 29.8291 19.7041C27.2973 22.2358 25.875 25.6696 25.875 29.25C25.875 32.8304 27.2973 36.2642 29.8291 38.7959C32.3608 41.3277 35.7946 42.75 39.375 42.75ZM39.375 18C41.0988 17.9997 42.7991 18.3999 44.3419 19.1689C44.5528 19.273 44.791 19.3083 45.0231 19.27C45.2552 19.2316 45.4694 19.1215 45.6356 18.9551L61.2158 3.375H64.7842L65.25 3.84075V7.40925L62.5342 10.125H60.75C60.4516 10.125 60.1655 10.2435 59.9545 10.4545C59.7435 10.6655 59.625 10.9516 59.625 11.25V13.0343L58.0342 14.625H56.25C55.9516 14.625 55.6655 14.7435 55.4545 14.9545C55.2435 15.1655 55.125 15.4516 55.125 15.75V17.5343L49.6699 22.9894C49.5035 23.1556 49.3934 23.3698 49.355 23.6019C49.3167 23.834 49.352 24.0722 49.4561 24.2831C50.2251 25.8259 50.6253 27.5262 50.625 29.25C50.625 31.475 49.9652 33.6501 48.729 35.5002C47.4929 37.3502 45.7359 38.7922 43.6802 39.6436C41.6245 40.4951 39.3625 40.7179 37.1802 40.2838C34.9979 39.8498 32.9934 38.7783 31.42 37.205C29.8467 35.6316 28.7752 33.6271 28.3412 31.4448C27.9071 29.2625 28.1299 27.0005 28.9814 24.9448C29.8328 22.8891 31.2748 21.1321 33.1248 19.896C34.9749 18.6598 37.15 18 39.375 18Z" fill="#FEBE09"/>
<path d="M39.375 34.875C40.4875 34.875 41.5751 34.5451 42.5001 33.927C43.4251 33.3089 44.1461 32.4304 44.5718 31.4026C44.9976 30.3748 45.109 29.2438 44.8919 28.1526C44.6749 27.0615 44.1391 26.0592 43.3525 25.2725C42.5658 24.4859 41.5635 23.9501 40.4724 23.7331C39.3812 23.516 38.2502 23.6274 37.2224 24.0532C36.1946 24.4789 35.3161 25.1999 34.698 26.1249C34.0799 27.0499 33.75 28.1375 33.75 29.25C33.7518 30.7413 34.345 32.171 35.3995 33.2255C36.454 34.28 37.8837 34.8732 39.375 34.875ZM39.375 25.875C40.0425 25.875 40.695 26.0729 41.25 26.4438C41.8051 26.8146 42.2376 27.3417 42.4931 27.9584C42.7485 28.5751 42.8154 29.2537 42.6852 29.9084C42.5549 30.5631 42.2335 31.1645 41.7615 31.6365C41.2895 32.1085 40.6881 32.4299 40.0334 32.5602C39.3787 32.6904 38.7001 32.6235 38.0834 32.3681C37.4667 32.1127 36.9396 31.6801 36.5688 31.1251C36.1979 30.57 36 29.9175 36 29.25C36 28.3549 36.3556 27.4965 36.9885 26.8635C37.6215 26.2306 38.4799 25.875 39.375 25.875Z" fill="#FEBE09"/>
</svg>
