<svg width="72" height="72" viewBox="0 0 72 72" fill="none" xmlns="http://www.w3.org/2000/svg">
<g clip-path="url(#clip0_7270_756)">
<path d="M71.6354 29.354C71.1589 28.2282 70.2724 27.3554 69.1392 26.8964L67.8736 26.3837V19.6969C67.8736 17.1731 65.8205 15.1199 63.2967 15.1199H40.0688L26.747 9.72317C26.6183 9.67104 26.4807 9.64476 26.342 9.64583C26.2032 9.6469 26.066 9.67529 25.9382 9.7294C25.8104 9.7835 25.6945 9.86225 25.5972 9.96115C25.4998 10.06 25.4229 10.1772 25.3708 10.3058C25.3187 10.4344 25.2924 10.572 25.2935 10.7108C25.2945 10.8496 25.3229 10.9868 25.377 11.1146C25.4311 11.2423 25.5099 11.3582 25.6088 11.4556C25.7077 11.5529 25.8248 11.6299 25.9534 11.6819L34.44 15.1199H12.3494L14.5385 9.71586C15.0485 8.45685 16.4878 7.84738 17.7467 8.35742L22.0366 10.0953C22.1652 10.1475 22.3028 10.1738 22.4416 10.1727C22.5804 10.1717 22.7176 10.1433 22.8454 10.0892C22.9732 10.0351 23.0891 9.95633 23.1865 9.8574C23.2838 9.75847 23.3607 9.64132 23.4127 9.51266C23.4649 9.38404 23.4911 9.24643 23.49 9.10766C23.489 8.96889 23.4606 8.8317 23.4065 8.70391C23.3524 8.57612 23.2736 8.46024 23.1747 8.36288C23.0758 8.26553 22.9587 8.1886 22.8301 8.1365L18.5401 6.39866C16.2015 5.45113 13.5272 6.58316 12.5796 8.92217L10.069 15.1198H8.70337C6.17971 15.1198 4.12658 17.1729 4.12658 19.6967V29.789L0.337444 39.1429C-0.121697 40.2759 -0.111994 41.52 0.364725 42.6459C0.841303 43.7717 1.7278 44.6444 2.86096 45.1034L4.12672 45.6162V52.303C4.12672 54.8268 6.17985 56.8799 8.70351 56.8799H13.2129C13.4932 56.8799 13.7619 56.7686 13.9601 56.5704C14.1583 56.3723 14.2696 56.1035 14.2696 55.8233C14.2696 55.543 14.1583 55.2743 13.9601 55.0761C13.7619 54.878 13.4932 54.7666 13.2129 54.7666H8.70351C7.34521 54.7666 6.24004 53.6616 6.24004 52.3032V33.4172H20.1268C17.6872 35.3445 14.4324 38.6784 13.0601 43.4823C12.9081 44.0146 13.2067 44.5887 13.7294 44.7706C14.2953 44.9674 14.928 44.6382 15.0924 44.0628C16.5178 39.073 20.3712 35.7859 22.5431 34.269V54.7665H17.4398C17.1596 54.7665 16.8908 54.8778 16.6927 55.076C16.4945 55.2741 16.3832 55.5429 16.3832 55.8231C16.3832 56.1034 16.4945 56.3721 16.6927 56.5703C16.8908 56.7685 17.1596 56.8798 17.4398 56.8798H31.9315L42.4313 61.1333C42.5572 61.1845 42.6918 61.2109 42.8277 61.2109C43.0382 61.2109 43.2439 61.1481 43.4184 61.0304C43.593 60.9128 43.7284 60.7458 43.8074 60.5507C43.8596 60.4221 43.8859 60.2844 43.8848 60.1457C43.8837 60.0069 43.8553 59.8697 43.8012 59.7419C43.7471 59.6141 43.6684 59.4982 43.5695 59.4009C43.4706 59.3035 43.3535 59.2266 43.2248 59.1745L37.5603 56.8798H59.6508L57.4617 62.2839C56.9517 63.5429 55.5118 64.1524 54.2535 63.6423L47.1518 60.7654C47.0232 60.7133 46.8856 60.687 46.7468 60.6881C46.608 60.6891 46.4708 60.7175 46.343 60.7716C46.2152 60.8257 46.0993 60.9045 46.002 61.0034C45.9046 61.1023 45.8277 61.2194 45.7756 61.348C45.7235 61.4766 45.6972 61.6142 45.6983 61.753C45.6994 61.8918 45.7277 62.029 45.7819 62.1568C45.836 62.2846 45.9147 62.4005 46.0136 62.4978C46.1125 62.5952 46.2296 62.6721 46.3582 62.7242L53.4601 65.6011C54.004 65.8222 54.5856 65.9359 55.1728 65.936C56.9825 65.936 58.7003 64.8553 59.4206 63.0776L61.9312 56.8799H63.2968C65.8206 56.8799 67.8737 54.8268 67.8737 52.303V42.2108L71.6629 32.857C72.1217 31.7238 72.112 30.4798 71.6354 29.354ZM3.65451 43.1447C3.35423 43.024 3.08086 42.8449 2.85022 42.6179C2.61959 42.3908 2.43625 42.1203 2.31083 41.822C2.18386 41.5243 2.1172 41.2044 2.11469 40.8807C2.11217 40.5571 2.17387 40.2362 2.29621 39.9366L4.12658 35.4182V43.3361L3.65451 43.1447ZM13.1412 27.3748C12.9601 26.9489 12.83 26.2681 13.7844 25.278C14.2239 24.8221 14.7806 24.5308 15.4234 24.6279C16.7011 24.8204 18.3879 26.2972 20.1736 28.7862C20.7939 29.6509 21.334 30.5097 21.7508 31.2126C17.7011 30.8168 13.9138 29.1928 13.1412 27.3748ZM22.543 28.4785C20.8655 25.9589 18.3483 22.9322 15.7395 22.5382C14.4546 22.3441 13.2526 22.7844 12.2629 23.8111C11.5026 24.5996 10.3533 26.2186 11.1961 28.2014C11.7201 29.4344 12.9036 30.4797 14.4428 31.3035H6.24004V19.6967C6.24004 18.3383 7.34521 17.2333 8.70351 17.2333H22.5431V28.4785H22.543ZM65.7601 52.303C65.7601 53.6615 64.655 54.7665 63.2967 54.7665H24.6564V34.269C26.8284 35.7859 30.6818 39.0729 32.1072 44.0628C32.2718 44.6394 32.9037 44.9658 33.4701 44.7706C33.9932 44.5903 34.2912 44.0136 34.1395 43.4823C32.7671 38.6784 29.5123 35.3445 27.0728 33.4172H65.7601V52.303ZM25.4481 31.2125C25.8609 30.5164 26.3954 29.6666 27.0106 28.8074C28.8016 26.3058 30.4939 24.8215 31.7754 24.628C32.4185 24.5306 32.9755 24.8222 33.4151 25.2781C34.3695 26.2684 34.2393 26.9492 34.0582 27.375C33.2856 29.1928 29.4979 30.8168 25.4481 31.2125ZM65.7601 31.3036H32.7566C34.2957 30.4797 35.4794 29.4344 36.0033 28.2016C36.8461 26.2188 35.6968 24.5998 34.9365 23.8113C33.9467 22.7843 32.7435 22.3444 31.4597 22.5383C28.8511 22.9324 26.3338 25.959 24.6563 28.4786V17.2335H63.2965C64.6548 17.2335 65.76 18.3386 65.76 19.697V31.3036H65.7601ZM69.704 32.0634L67.8736 36.5818V28.664L68.3458 28.8552C68.6461 28.9759 68.9194 29.155 69.15 29.382C69.3806 29.6091 69.5639 29.8797 69.6892 30.1781C69.8162 30.4757 69.8829 30.7956 69.8855 31.1193C69.888 31.4429 69.8263 31.7638 69.704 32.0634Z" fill="#FEBE09"/>
<path d="M54.0252 49.4896V50.5033C54.0252 50.7835 54.1366 51.0523 54.3347 51.2504C54.5329 51.4486 54.8016 51.5599 55.0819 51.5599C55.3621 51.5599 55.6309 51.4486 55.8291 51.2504C56.0272 51.0523 56.1385 50.7835 56.1385 50.5033V49.5186C56.935 49.3497 57.4808 48.9876 57.8304 48.6586C58.52 48.0096 58.9318 47.0301 58.9318 46.0383C58.9318 45.226 58.6788 44.4908 58.2001 43.9119C57.5584 43.1359 56.5509 42.6671 55.2052 42.5186C53.9508 42.3802 53.7635 41.7338 53.7635 41.3607C53.7635 41.1406 53.8271 40.0423 55.0818 40.0423C55.8898 40.0423 56.2394 40.5242 56.3257 40.668C56.4055 40.8621 56.5412 41.0282 56.7155 41.145C56.8899 41.2619 57.095 41.3243 57.3049 41.3244C58.1011 41.3244 58.5604 40.4961 58.2557 39.7986C58.0041 39.252 57.3115 38.4099 56.1384 38.0751V37.0415C56.1384 36.7613 56.0271 36.4925 55.8289 36.2944C55.6308 36.0962 55.362 35.9849 55.0818 35.9849C54.8015 35.9849 54.5327 36.0962 54.3346 36.2944C54.1364 36.4925 54.0251 36.7613 54.0251 37.0415V38.0723C53.3057 38.279 52.7056 38.7047 52.2844 39.3203C51.6958 40.1806 51.6501 41.0997 51.6501 41.3608C51.6501 42.6949 52.5205 44.3488 54.9735 44.6194C56.8183 44.823 56.8183 45.706 56.8183 46.0384C56.8183 46.3627 56.7037 46.8169 56.382 47.1195C56.0758 47.4075 55.6014 47.5345 54.9722 47.4959C53.6388 47.4146 53.3365 46.5839 53.3064 46.4895L53.3059 46.4897C53.1915 46.0286 52.7759 45.6863 52.2794 45.6863C51.5528 45.6863 51.0341 46.4327 51.288 47.1143C51.3958 47.4527 52.0014 49.0301 54.0252 49.4896Z" fill="#FEBE09"/>
</g>
<defs>
<clipPath id="clip0_7270_756">
<rect width="72" height="72" fill="white"/>
</clipPath>
</defs>
</svg>
