<svg width="72" height="72" viewBox="0 0 72 72" fill="none" xmlns="http://www.w3.org/2000/svg">
<g clip-path="url(#clip0_7270_745)">
<path d="M68.8259 42.3801H44.9354C44.4697 42.3801 44.0917 42.0017 44.0917 41.5364V32.7955C44.0917 31.9758 43.4247 31.3084 42.6054 31.3084H27.0664C26.6007 31.3084 26.2227 30.9304 26.2227 30.4647V16.4803C26.2227 14.7303 27.6469 13.3057 29.3973 13.3057H68.8267C70.5767 13.3057 72.0013 14.7299 72.0013 16.4803V39.2059C72.0005 40.9559 70.5771 42.3806 68.8263 42.3806L68.8259 42.3801ZM45.7792 40.6918H68.8259C69.6456 40.6918 70.3121 40.0248 70.3121 39.2055V16.4799C70.3121 15.6602 69.6452 14.9927 68.8259 14.9927H29.3969C28.5771 14.9927 27.9097 15.6602 27.9097 16.4799V29.6205H42.605C44.3549 29.6205 45.7796 31.0447 45.7796 32.7951V40.6918H45.7792Z" fill="#FEBE09"/>
<path d="M42.6036 58.6949H3.17462C1.42468 58.6949 0 57.2706 0 55.5203V32.7955C0 31.0451 1.42426 29.6208 3.17462 29.6208H42.6032C44.3532 29.6208 45.7783 31.0451 45.7783 32.7955V55.5203C45.7783 57.2711 44.3536 58.6949 42.6036 58.6949ZM3.17462 31.3084C2.35492 31.3084 1.68751 31.9758 1.68751 32.7955V55.5203C1.68751 56.34 2.35492 57.0066 3.17462 57.0066L42.6032 57.007C43.4229 57.007 44.0903 56.34 44.0903 55.5203V32.7955C44.0903 31.9758 43.4229 31.3084 42.6032 31.3084H3.17462Z" fill="#FEBE09"/>
<path d="M44.9345 43.3999H0.843753C0.378001 43.3999 0 43.0215 0 42.5561V36.8262C0 36.3604 0.378001 35.9824 0.843753 35.9824H44.9345C45.4003 35.9824 45.7783 36.3604 45.7783 36.8262V42.5561C45.7783 43.021 45.4003 43.3999 44.9345 43.3999ZM1.68751 41.712H44.0907V37.67H1.68751V41.712ZM71.1558 21.2568H27.0651C25.9543 21.2568 25.9543 19.5693 27.0651 19.5693H71.1558C72.2666 19.5693 72.2666 21.2568 71.1558 21.2568ZM67.3682 32.2792H50.9564C49.8456 32.2792 49.846 30.5917 50.9564 30.5917H67.3682C68.479 30.5917 68.479 32.2792 67.3682 32.2792ZM67.3682 37.6214H54.6752C53.5644 37.6214 53.5648 35.9339 54.6752 35.9339H67.3682C68.479 35.9339 68.479 37.6214 67.3682 37.6214ZM67.3682 26.9387H50.9564C49.8456 26.9387 49.846 25.2512 50.9564 25.2512H67.3682C68.479 25.2512 68.479 26.9387 67.3682 26.9387ZM17.6066 54.9285H5.66201C5.19625 54.9285 4.81825 54.5501 4.81825 54.0848V46.5648C4.81825 46.099 5.19625 45.721 5.66201 45.721H17.6074C18.0732 45.721 18.4512 46.0995 18.4512 46.5648V54.0843C18.4508 54.5501 18.0732 54.9289 17.607 54.9289L17.6066 54.9285ZM6.50576 53.2402H16.7637V47.409H6.50576V53.2402Z" fill="#FEBE09"/>
<path d="M10.1016 54.9292C9.63581 54.9292 9.25781 54.5508 9.25781 54.0854V46.5646C9.25781 45.4538 10.9453 45.4543 10.9453 46.5646V54.0846C10.9453 54.5503 10.5673 54.9292 10.1016 54.9292ZM13.169 54.9292C12.7033 54.9292 12.3253 54.5508 12.3253 54.0854V46.5646C12.3253 45.4538 14.0128 45.4543 14.0128 46.5646V54.0846C14.0128 54.5503 13.6356 54.9292 13.169 54.9292Z" fill="#FEBE09"/>
<path d="M17.6067 51.169H5.66123C4.55042 51.169 4.55042 49.4815 5.66123 49.4815H17.6067C18.7175 49.4815 18.7175 51.169 17.6067 51.169ZM40.1167 48.2332H22.0992C20.9888 48.2332 20.9888 46.5457 22.0992 46.5457H40.1167C41.2275 46.5457 41.2275 48.2332 40.1167 48.2332ZM40.1167 53.3294H22.0992C20.9888 53.3294 20.9888 51.6419 22.0992 51.6419H40.1167C41.2275 51.6419 41.2275 53.3294 40.1167 53.3294Z" fill="#FEBE09"/>
</g>
<defs>
<clipPath id="clip0_7270_745">
<rect width="72" height="72" fill="white"/>
</clipPath>
</defs>
</svg>
