<svg width="72" height="72" viewBox="0 0 72 72" fill="none" xmlns="http://www.w3.org/2000/svg">
<g clip-path="url(#clip0_7208_566)">
<path d="M36 0C16.1153 0 0 16.1182 0 36C0 55.8818 16.1153 72 36 72C55.8847 72 72 55.8818 72 36C72 16.1182 55.8847 0 36 0ZM37.4595 69.0442V63.2433C37.4595 62.4367 36.8056 61.7837 36 61.7837C35.1944 61.7837 34.5405 62.4365 34.5405 63.2433V69.0442C17.4579 68.2978 3.70209 54.541 2.95594 37.4595H8.75672C9.56236 37.4595 10.2163 36.8056 10.2163 36C10.2163 35.1934 9.56236 34.5405 8.75672 34.5405H2.95594C3.70223 17.459 17.4582 3.70209 34.5405 2.95594V8.75672C34.5405 9.56236 35.1944 10.2163 36 10.2163C36.8056 10.2163 37.4595 9.56236 37.4595 8.75672V2.95594C54.5421 3.70223 68.298 17.459 69.0442 34.5406H63.2433C62.4376 34.5406 61.7837 35.1934 61.7837 36.0001C61.7837 36.8058 62.4376 37.4597 63.2433 37.4597H69.0442C68.2978 54.541 54.5418 68.2978 37.4595 69.0442Z" fill="#FEBE09"/>
<path d="M54.9527 15.7202C54.6121 15.7202 54.2112 15.8009 53.7629 15.9702L30.0846 24.9158C28.0823 25.6718 25.8259 27.9301 25.0699 29.9315L16.1253 53.6098C15.5377 55.1637 16.0203 56.1249 17.2005 56.1249C17.5411 56.1249 17.9421 56.0442 18.3904 55.8748L42.0687 46.9293C44.071 46.1733 46.3274 43.915 47.0834 41.9136L56.028 18.2353C56.6156 16.6815 56.1341 15.7202 54.9527 15.7202ZM41.0375 44.1992L19.7644 52.236L27.8013 30.963C27.8987 30.707 28.0562 30.4317 28.242 30.1524L31.0314 32.9428C30.4837 33.8322 30.1617 34.8771 30.1617 35.9999C30.1617 39.2243 32.775 41.8377 36.0006 41.8377C37.1225 41.8377 38.1675 41.5156 39.0566 40.9668L41.8482 43.7583C41.5696 43.9442 41.2934 44.1028 41.0375 44.1992ZM33.0805 35.9999C33.0805 34.3906 34.3901 33.0809 36.0003 33.0809C37.6086 33.0809 38.9183 34.3906 38.9183 35.9999C38.9183 37.6092 37.6086 38.9188 36.0003 38.9188C34.3901 38.9188 33.0805 37.6092 33.0805 35.9999ZM44.3533 40.8822C44.2558 41.1382 44.0983 41.4144 43.9114 41.6937L41.083 38.8641C41.5777 37.9906 41.8375 37.0037 41.8371 35.9997C41.8371 32.7754 39.2237 30.162 36.0001 30.162C34.9956 30.1618 34.0082 30.4215 33.1338 30.916L30.3062 28.0876C30.5854 27.9007 30.8609 27.7432 31.1176 27.6458L52.3897 19.6089L44.3533 40.8822Z" fill="#FEBE09"/>
</g>
<defs>
<clipPath id="clip0_7208_566">
<rect width="72" height="72" fill="white"/>
</clipPath>
</defs>
</svg>
