<svg width="72" height="72" viewBox="0 0 72 72" fill="none" xmlns="http://www.w3.org/2000/svg">
<g clip-path="url(#clip0_6023_747)">
<path d="M9 44H63" stroke="#FEBE09" stroke-width="2" stroke-miterlimit="10" stroke-linecap="round" stroke-linejoin="round"/>
<path d="M50.3719 49.7083H9.0127" stroke="#FEBE09" stroke-width="2" stroke-miterlimit="10" stroke-linecap="round" stroke-linejoin="round"/>
<path d="M9.01263 26.6632V54.2434C9.01263 55.0197 9.64263 55.6497 10.4189 55.6497H17.7398" stroke="#FEBE09" stroke-width="2" stroke-miterlimit="10" stroke-linecap="round" stroke-linejoin="round"/>
<path d="M49.5462 21.3652H24.4601" stroke="#FEBE09" stroke-width="2" stroke-miterlimit="10" stroke-linecap="round" stroke-linejoin="round"/>
<path d="M55.4681 21.3652H61.9636C62.7398 21.3652 63.3698 21.9952 63.3698 22.7714V48" stroke="#FEBE09" stroke-width="2" stroke-miterlimit="10" stroke-linecap="round" stroke-linejoin="round"/>
<path d="M50.3719 55.6497H22.6617" stroke="#FEBE09" stroke-width="2" stroke-miterlimit="10" stroke-linecap="round" stroke-linejoin="round"/>
<path d="M7.74344 15.2016C7.74344 12.1412 10.2243 9.66026 13.2848 9.66026C16.345 9.66026 18.8261 12.1412 18.8261 15.2016C18.8261 18.262 16.345 20.7429 13.2848 20.7429C11.6493 20.7429 10.1793 20.0343 9.16502 18.9076" stroke="#FEBE09" stroke-width="2" stroke-miterlimit="10" stroke-linecap="round" stroke-linejoin="round"/>
<path d="M5.88159 14.2561L7.74347 16.2017L10.1583 15.0101" stroke="#FEBE09" stroke-width="2" stroke-miterlimit="10" stroke-linecap="round" stroke-linejoin="round"/>
<path d="M13.2847 2.97137C6.53023 2.97137 1.05472 8.44702 1.05472 15.2015C1.05472 21.9559 6.53023 27.4314 13.2847 27.4314C20.0392 27.4314 25.5147 21.9559 25.5147 15.2015C25.5147 8.44702 20.0392 2.97137 13.2847 2.97137Z" stroke="#FEBE09" stroke-width="2" stroke-miterlimit="10" stroke-linecap="round" stroke-linejoin="round"/>
<path d="M63.1213 55.0107C63.1213 55.0107 61.6059 53.7369 59.819 54.2753C58.1782 54.7695 57.9487 56.6615 59.1357 57.4353C59.1357 57.4353 60.3005 57.9549 61.5925 58.4315C64.7025 59.5786 63.3629 62.5874 60.8592 62.5874C59.6055 62.5874 58.5532 62.0384 57.9163 61.3357" stroke="#FEBE09" stroke-width="2" stroke-miterlimit="10" stroke-linecap="round" stroke-linejoin="round"/>
<path d="M60.6583 64.1255V62.5831" stroke="#FEBE09" stroke-width="2" stroke-miterlimit="10" stroke-linecap="round" stroke-linejoin="round"/>
<path d="M60.6583 54.1438V52.6045" stroke="#FEBE09" stroke-width="2" stroke-miterlimit="10" stroke-linecap="round" stroke-linejoin="round"/>
<path d="M70.9453 48.719V70.3254C70.9453 70.7137 70.6305 71.0286 70.2422 71.0286H68.1096C67.7756 71.0286 67.495 70.792 67.4213 70.4662C67.1653 69.3345 66.153 68.4889 64.9426 68.4889C63.7335 68.4889 62.7203 69.3345 62.4641 70.4663C62.3904 70.7922 62.1096 71.0286 61.7757 71.0286H59.5405C59.2065 71.0286 58.9258 70.792 58.8521 70.4662C58.5962 69.3345 57.5838 68.4889 56.3735 68.4889C55.1631 68.4889 54.1509 69.3345 53.8948 70.4662C53.8213 70.792 53.5405 71.0286 53.2065 71.0286H51.0754C50.687 71.0286 50.3723 70.7137 50.3723 70.3254V48.719C50.3723 48.3306 50.687 48.0158 51.0754 48.0158H70.2422C70.6305 48.0158 70.9453 48.3306 70.9453 48.719Z" stroke="#FEBE09" stroke-width="2" stroke-miterlimit="10" stroke-linecap="round" stroke-linejoin="round"/>
<path d="M17.0735 39.8486H20.579" stroke="#FEBE09" stroke-width="2" stroke-miterlimit="10" stroke-linecap="round" stroke-linejoin="round"/>
<path d="M25.8951 39.8486H29.4005" stroke="#FEBE09" stroke-width="2" stroke-miterlimit="10" stroke-linecap="round" stroke-linejoin="round"/>
<path d="M34.7167 39.8486H38.2222" stroke="#FEBE09" stroke-width="2" stroke-miterlimit="10" stroke-linecap="round" stroke-linejoin="round"/>
<path d="M49.6019 31.1429L52.15 33.6908C52.531 34.0718 53.1485 34.0718 53.5294 33.6908L56.0775 31.1429C56.4585 30.7619 56.4585 30.1443 56.0775 29.7633L53.5294 27.2152C53.1485 26.8344 52.531 26.8344 52.15 27.2152L49.6019 29.7633C49.221 30.1443 49.221 30.7619 49.6019 31.1429Z" stroke="#FEBE09" stroke-width="2" stroke-miterlimit="10" stroke-linecap="round" stroke-linejoin="round"/>
</g>
<defs>
<clipPath id="clip0_6023_747">
<rect width="72" height="72" fill="white"/>
</clipPath>
</defs>
</svg>
