<svg width="72" height="72" viewBox="0 0 72 72" fill="none" xmlns="http://www.w3.org/2000/svg">
<path d="M70.6436 52.0321L65.5763 29.9073C65.1307 27.9617 63.1851 26.7412 61.2397 27.1869L57.1672 28.1195C55.2217 28.565 54.0012 30.5106 54.4468 32.4563L54.6203 33.2141L52.7519 34.027C51.3808 34.6234 49.9458 34.5419 48.6022 33.7913C47.3658 33.1006 46.2696 32.4575 45.3025 31.89C40.8914 29.3022 38.4617 27.8764 34.8691 29.2198C33.8291 29.6086 32.7833 30.3934 31.6995 31.4324H17.6386C17.5447 29.8695 16.4356 28.4861 14.834 28.1194L10.7615 27.1868C8.81598 26.741 6.87043 27.9615 6.42479 29.9071L1.35737 52.0321C0.911868 53.9778 2.13221 55.9233 4.07776 56.3688L8.15026 57.3016C8.4211 57.3636 8.69195 57.3934 8.95871 57.3934C10.6084 57.3934 12.1034 56.2559 12.4869 54.5812L12.4997 54.5252L27.5849 69.4417C28.4183 70.2754 29.53 70.7344 30.7154 70.7344H30.7161C31.9014 70.7342 33.0132 70.275 33.8468 69.4415C34.4673 68.8235 34.8886 68.0338 35.0563 67.1743L37.0263 69.1445C37.8597 69.9781 38.9713 70.4371 40.1568 70.4371H40.1575C41.3428 70.437 42.4546 69.9777 43.2882 69.1442C43.9086 68.5263 44.3298 67.7368 44.4976 66.8775L44.6388 67.0186C45.4721 67.8523 46.5838 68.3113 47.7692 68.3113H47.7699C48.9553 68.3111 50.0671 67.8518 50.9007 67.0184C51.734 66.185 52.1932 65.0732 52.1932 63.8879C52.1932 63.5984 52.1659 63.3133 52.1123 63.0356C52.1528 63.0366 52.195 63.036 52.2341 63.0371C53.4194 63.037 54.5313 62.5778 55.3648 61.7444C56.1982 60.911 56.6572 59.7991 56.6573 58.6139C56.6573 58.1324 56.5804 57.6636 56.4347 57.22L59.9583 55.6649C60.611 56.727 61.7803 57.3936 63.042 57.3936C63.3087 57.3936 63.5797 57.3638 63.8506 57.3017L67.9229 56.369C68.8626 56.1538 69.6637 55.5833 70.1787 54.7623C70.6938 53.9414 70.8587 52.9718 70.6436 52.0321ZM8.58985 55.3826L4.51735 54.4499C3.62987 54.2467 3.07313 53.3592 3.27648 52.4717L8.34376 30.3469C8.51884 29.5829 9.20059 29.0641 9.95321 29.0641C10.0749 29.0641 10.1985 29.0776 10.3221 29.1059L14.3944 30.0385C15.2819 30.2417 15.8386 31.1292 15.6353 32.0167L10.5679 54.1418C10.3647 55.0292 9.47691 55.5861 8.58985 55.3826ZM53.9729 60.3522C53.5111 60.814 52.8936 61.0682 52.2339 61.0684C51.5744 61.0685 50.9569 60.8143 50.4953 60.3525L40.7511 50.6077C40.5658 50.4261 40.3164 50.325 40.0571 50.3263C39.7977 50.3276 39.5494 50.4312 39.3659 50.6146C39.1825 50.798 39.0789 51.0464 39.0776 51.3058C39.0763 51.5651 39.1775 51.8145 39.359 51.9997L49.5086 62.1491C49.9703 62.6106 50.2246 63.228 50.2244 63.8875C50.2243 64.547 49.9702 65.1645 49.5085 65.626C49.0467 66.0878 48.4292 66.3422 47.7695 66.3424H47.7691C47.1097 66.3424 46.4925 66.0881 46.031 65.6264L35.5488 55.1437C35.3636 54.9621 35.1142 54.861 34.8548 54.8623C34.5954 54.8636 34.3471 54.9672 34.1637 55.1506C33.9803 55.334 33.8767 55.5824 33.8754 55.8418C33.8741 56.1011 33.9752 56.3505 34.1567 56.5358L41.935 64.3146C42.3721 64.7716 42.612 65.3725 42.612 66.0135C42.612 66.673 42.3576 67.2903 41.896 67.752C41.4342 68.2138 40.8166 68.4682 40.1571 68.4683H40.1566C39.4973 68.4683 38.8801 68.2141 38.4185 67.7524L29.9066 59.2402C29.7214 59.0587 29.472 58.9576 29.2126 58.9589C28.9533 58.9602 28.7049 59.0638 28.5215 59.2472C28.3381 59.4306 28.2345 59.6789 28.2332 59.9383C28.2319 60.1977 28.333 60.4471 28.5146 60.6323L32.4856 64.6034C32.9278 65.0614 33.1707 65.666 33.1707 66.3107C33.1707 66.9703 32.9163 67.5878 32.4548 68.0493C31.9929 68.5111 31.3755 68.7653 30.7158 68.7655H30.7155C30.0561 68.7655 29.4388 68.5112 28.9733 68.0456L13.0167 52.2678L17.3377 33.4014H29.8289C29.1399 34.1774 28.4302 35.0177 27.6925 35.8914C25.6977 38.2537 23.6352 40.6962 21.3908 42.5782C21.1912 42.7455 21.0661 42.9852 21.0428 43.2446C21.0196 43.5041 21.1001 43.7621 21.2668 43.9623C23.3124 46.4193 25.7164 47.4436 28.4128 47.0049C30.768 46.6222 33.097 45.1815 35.263 43.6816C37.182 42.3526 39.6754 42.5773 41.3261 44.2281L53.9729 56.8748C54.9317 57.8336 54.9317 59.3935 53.9729 60.3522ZM55.3651 55.4827L42.7183 42.8361C40.4206 40.5384 36.8139 40.2133 34.1423 42.0632C29.5777 45.2239 26.4343 46.3981 23.4278 43.4132C25.5104 41.527 27.4568 39.222 29.1966 37.1617C31.5567 34.3668 33.7861 31.7268 35.5585 31.0642C38.2733 30.0493 40.0394 31.0852 44.3062 33.5886C45.2817 34.1608 46.3875 34.8095 47.642 35.5105C49.5157 36.5569 51.6091 36.6712 53.5373 35.8327L55.0674 35.1668L59.3326 53.7892L55.4036 55.5234C55.3906 55.5099 55.3783 55.496 55.3651 55.4827ZM68.511 53.7159C68.2756 54.0913 67.9107 54.352 67.4836 54.4497L63.4112 55.3825C62.9843 55.4802 62.5423 55.4044 62.1667 55.1689C61.7914 54.9335 61.5308 54.5686 61.4329 54.1415L56.3658 32.0169C56.1626 31.1293 56.7192 30.242 57.6067 30.0388L61.6792 29.1061C62.5667 28.9031 63.454 29.4595 63.6572 30.347L68.7245 52.4718C68.8223 52.8986 68.7466 53.3406 68.511 53.7159ZM36.3838 25.7555C43.1357 25.7555 48.6287 20.2624 48.6287 13.5105C48.6287 6.75872 43.1357 1.26562 36.3838 1.26562C29.632 1.26562 24.1389 6.75872 24.1389 13.5105C24.1389 20.2624 29.632 25.7555 36.3838 25.7555ZM36.3838 3.23438C42.05 3.23438 46.66 7.8442 46.66 13.5105C46.66 19.1768 42.0502 23.7867 36.3838 23.7867C30.7175 23.7867 26.1076 19.1769 26.1076 13.5105C26.1076 7.8442 30.7176 3.23438 36.3838 3.23438ZM32.3721 10.857C32.3721 9.14119 33.6532 7.69542 35.3823 7.2855L35.3637 6.51052C35.3575 6.24952 35.4552 5.99674 35.6354 5.80778C35.8155 5.61882 36.0633 5.50917 36.3243 5.50294C36.8653 5.48761 37.319 5.92003 37.3319 6.46355L37.3522 7.30983C38.2974 7.55325 39.3921 8.10113 39.8923 8.86219C40.0341 9.08037 40.0838 9.34585 40.0304 9.60056C39.9771 9.85527 39.825 10.0785 39.6076 10.2214C39.3901 10.3643 39.1248 10.4153 38.8699 10.3632C38.6149 10.3111 38.3909 10.1601 38.247 9.94331C38.0244 9.60455 36.9448 9.13781 36.3838 9.13781C35.2573 9.13781 34.3408 9.909 34.3408 10.857C34.3408 11.8048 35.2573 12.576 36.3838 12.576C38.5959 12.576 40.3956 14.2303 40.3956 16.2637C40.3956 17.9788 39.1155 19.4241 37.3875 19.8347L37.4038 20.5106C37.4069 20.6398 37.3845 20.7684 37.338 20.889C37.2914 21.0096 37.2215 21.1198 37.1323 21.2134C37.0432 21.307 36.9364 21.3821 36.8182 21.4344C36.7 21.4868 36.5727 21.5153 36.4434 21.5184C36.3142 21.5216 36.1856 21.4992 36.065 21.4526C35.9444 21.4061 35.8342 21.3362 35.7406 21.247C35.647 21.1578 35.5719 21.0511 35.5196 20.9329C35.4673 20.8147 35.4387 20.6873 35.4356 20.5581L35.4186 19.8532C34.4373 19.6391 33.7921 19.1032 33.1753 18.5213C33.0813 18.4326 33.0056 18.3262 32.9527 18.2083C32.8998 18.0903 32.8706 17.9631 32.8669 17.8339C32.8631 17.7046 32.8848 17.5759 32.9308 17.4551C32.9768 17.3343 33.0461 17.2237 33.1348 17.1297C33.2235 17.0356 33.3299 16.96 33.4479 16.9071C33.5658 16.8541 33.693 16.825 33.8222 16.8212C33.9515 16.8174 34.0802 16.8392 34.201 16.8852C34.3218 16.9311 34.4324 17.0005 34.5264 17.0892C35.2255 17.7486 35.6111 17.9827 36.3838 17.9827C37.5104 17.9827 38.4268 17.2115 38.4268 16.2636C38.4268 15.3158 37.5102 14.5446 36.3838 14.5446C34.1718 14.5447 32.3721 12.8904 32.3721 10.857Z" fill="#FEBE09"/>
</svg>
