<svg width="73" height="72" viewBox="0 0 73 72" fill="none" xmlns="http://www.w3.org/2000/svg">
<g clip-path="url(#clip0_7073_992)">
<path d="M56.9 38.4612V18.996C56.8987 18.5001 56.7949 18.0099 56.5952 17.556C56.5832 17.5272 56.5652 17.5032 56.552 17.4768C56.3769 17.0935 56.136 16.7439 55.8404 16.4436L47.66 8.2596C47.3597 7.96397 47.0101 7.72314 46.6268 7.548C46.6004 7.5348 46.5764 7.5168 46.5476 7.5048C46.0926 7.30463 45.6011 7.20085 45.104 7.2H29.3V3.6C29.3 2.64522 28.9207 1.72955 28.2456 1.05442C27.5705 0.379285 26.6548 0 25.7 0L4.1 0C3.14522 0 2.22955 0.379285 1.55442 1.05442C0.879285 1.72955 0.5 2.64522 0.5 3.6L0.5 34.8C0.5 35.7548 0.879285 36.6705 1.55442 37.3456C2.22955 38.0207 3.14522 38.4 4.1 38.4H13.7V61.2C13.7 62.1548 14.0793 63.0705 14.7544 63.7456C15.4295 64.4207 16.3452 64.8 17.3 64.8H41.9324C43.553 67.1282 45.737 69.0078 48.2807 70.2633C50.8244 71.5189 53.6447 72.1095 56.4784 71.98C59.3121 71.8505 62.0668 71.0052 64.4853 69.5229C66.9039 68.0405 68.9074 65.9696 70.3089 63.5033C71.7104 61.0371 72.4642 58.2559 72.4999 55.4195C72.5355 52.5831 71.852 49.7838 70.5129 47.2831C69.1739 44.7824 67.2231 42.6617 64.8426 41.119C62.4621 39.5763 59.7295 38.6619 56.9 38.4612ZM52.8032 16.8H48.5C48.1817 16.8 47.8765 16.6736 47.6515 16.4485C47.4264 16.2235 47.3 15.9183 47.3 15.6V11.2968L52.8032 16.8ZM2.9 34.8V3.6C2.9 3.28174 3.02643 2.97652 3.25147 2.75147C3.47652 2.52643 3.78174 2.4 4.1 2.4H25.7C26.0183 2.4 26.3235 2.52643 26.5485 2.75147C26.7736 2.97652 26.9 3.28174 26.9 3.6V34.8C26.9 35.1183 26.7736 35.4235 26.5485 35.6485C26.3235 35.8736 26.0183 36 25.7 36H4.1C3.78174 36 3.47652 35.8736 3.25147 35.6485C3.02643 35.4235 2.9 35.1183 2.9 34.8ZM17.3 62.4C16.9817 62.4 16.6765 62.2736 16.4515 62.0485C16.2264 61.8235 16.1 61.5183 16.1 61.2V38.4H25.7C26.6548 38.4 27.5705 38.0207 28.2456 37.3456C28.9207 36.6705 29.3 35.7548 29.3 34.8V9.6H44.9V15.6C44.9 16.5548 45.2793 17.4705 45.9544 18.1456C46.6296 18.8207 47.5452 19.2 48.5 19.2H54.5V38.4612C51.773 38.6477 49.1332 39.499 46.811 40.9408C44.4888 42.3825 42.555 44.371 41.1783 46.7323C39.8017 49.0937 39.0241 51.7562 38.9135 54.4873C38.803 57.2184 39.3628 59.9351 40.544 62.4H17.3ZM55.7 69.6C47.7476 69.6 41.3 63.1524 41.3 55.2C41.3 47.2476 47.7476 40.8 55.7 40.8C63.6524 40.8 70.1 47.2476 70.1 55.2C70.0916 63.1488 63.6488 69.5916 55.7 69.6Z" fill="#FEBE09"/>
<path d="M7.70078 19.2H22.1008C22.7373 19.2 23.3477 18.9472 23.7978 18.4971C24.2479 18.047 24.5008 17.4366 24.5008 16.8V7.20005C24.5008 6.56353 24.2479 5.95308 23.7978 5.50299C23.3477 5.05291 22.7373 4.80005 22.1008 4.80005H7.70078C7.06426 4.80005 6.45381 5.05291 6.00372 5.50299C5.55364 5.95308 5.30078 6.56353 5.30078 7.20005V16.8C5.30078 17.4366 5.55364 18.047 6.00372 18.4971C6.45381 18.9472 7.06426 19.2 7.70078 19.2ZM7.70078 7.20005H22.1008V16.8H7.70078V7.20005ZM59.3008 50.4001C59.3008 50.7183 59.4272 51.0235 59.6523 51.2486C59.8773 51.4736 60.1825 51.6001 60.5008 51.6001C60.819 51.6001 61.1243 51.4736 61.3493 51.2486C61.5744 51.0235 61.7008 50.7183 61.7008 50.4001C61.699 49.0174 61.2207 47.6776 60.3463 46.6065C59.472 45.5355 58.2551 44.7986 56.9008 44.5201V44.4001C56.9008 44.0818 56.7744 43.7766 56.5493 43.5515C56.3243 43.3265 56.019 43.2001 55.7008 43.2001C55.3825 43.2001 55.0773 43.3265 54.8523 43.5515C54.6272 43.7766 54.5008 44.0818 54.5008 44.4001V44.5201C53.1444 44.7955 51.925 45.5313 51.0491 46.6029C50.1732 47.6746 49.6948 49.016 49.6948 50.4001C49.6948 51.7841 50.1732 53.1255 51.0491 54.1972C51.925 55.2688 53.1444 56.0046 54.5008 56.2801V63.3805C53.8011 63.1331 53.195 62.6755 52.7653 62.0704C52.3357 61.4653 52.1036 60.7422 52.1008 60C52.1008 59.6818 51.9744 59.3766 51.7493 59.1515C51.5243 58.9265 51.219 58.8001 50.9008 58.8001C50.5825 58.8001 50.2773 58.9265 50.0523 59.1515C49.8272 59.3766 49.7008 59.6818 49.7008 60C49.7025 61.3827 50.1809 62.7225 51.0552 63.7936C51.9296 64.8646 53.1465 65.6015 54.5008 65.8801V66C54.5008 66.3183 54.6272 66.6235 54.8523 66.8486C55.0773 67.0736 55.3825 67.2001 55.7008 67.2001C56.019 67.2001 56.3243 67.0736 56.5493 66.8486C56.7744 66.6235 56.9008 66.3183 56.9008 66V65.8801C58.2571 65.6046 59.4766 64.8688 60.3524 63.7972C61.2283 62.7255 61.7068 61.3841 61.7068 60C61.7068 58.616 61.2283 57.2746 60.3524 56.2029C59.4766 55.1313 58.2571 54.3955 56.9008 54.12V47.0208C57.6003 47.2681 58.2063 47.7255 58.6359 48.3304C59.0655 48.9353 59.2977 49.6581 59.3008 50.4001ZM52.1008 50.4001C52.1039 49.6581 52.3361 48.9353 52.7657 48.3304C53.1953 47.7255 53.8013 47.2681 54.5008 47.0208V53.7793C53.8013 53.532 53.1953 53.0746 52.7657 52.4697C52.3361 51.8648 52.1039 51.142 52.1008 50.4001ZM59.3008 60C59.2977 60.742 59.0655 61.4648 58.6359 62.0697C58.2063 62.6746 57.6003 63.132 56.9008 63.3793V56.6208C57.6003 56.8681 58.2063 57.3255 58.6359 57.9304C59.0655 58.5353 59.2977 59.2581 59.3008 60ZM8.90078 21.6H6.50078C6.18252 21.6 5.8773 21.7265 5.65225 21.9515C5.42721 22.1766 5.30078 22.4818 5.30078 22.8C5.30078 23.1183 5.42721 23.4235 5.65225 23.6486C5.8773 23.8736 6.18252 24 6.50078 24H8.90078C9.21904 24 9.52427 23.8736 9.74931 23.6486C9.97435 23.4235 10.1008 23.1183 10.1008 22.8C10.1008 22.4818 9.97435 22.1766 9.74931 21.9515C9.52427 21.7265 9.21904 21.6 8.90078 21.6ZM8.90078 26.4H6.50078C6.18252 26.4 5.8773 26.5265 5.65225 26.7515C5.42721 26.9766 5.30078 27.2818 5.30078 27.6C5.30078 27.9183 5.42721 28.2235 5.65225 28.4486C5.8773 28.6736 6.18252 28.8 6.50078 28.8H8.90078C9.21904 28.8 9.52427 28.6736 9.74931 28.4486C9.97435 28.2235 10.1008 27.9183 10.1008 27.6C10.1008 27.2818 9.97435 26.9766 9.74931 26.7515C9.52427 26.5265 9.21904 26.4 8.90078 26.4ZM8.90078 31.2001H6.50078C6.18252 31.2001 5.8773 31.3265 5.65225 31.5515C5.42721 31.7766 5.30078 32.0818 5.30078 32.4C5.30078 32.7183 5.42721 33.0235 5.65225 33.2486C5.8773 33.4736 6.18252 33.6 6.50078 33.6H8.90078C9.21904 33.6 9.52427 33.4736 9.74931 33.2486C9.97435 33.0235 10.1008 32.7183 10.1008 32.4C10.1008 32.0818 9.97435 31.7766 9.74931 31.5515C9.52427 31.3265 9.21904 31.2001 8.90078 31.2001ZM16.1008 21.6H13.7008C13.3825 21.6 13.0773 21.7265 12.8523 21.9515C12.6272 22.1766 12.5008 22.4818 12.5008 22.8C12.5008 23.1183 12.6272 23.4235 12.8523 23.6486C13.0773 23.8736 13.3825 24 13.7008 24H16.1008C16.419 24 16.7243 23.8736 16.9493 23.6486C17.1744 23.4235 17.3008 23.1183 17.3008 22.8C17.3008 22.4818 17.1744 22.1766 16.9493 21.9515C16.7243 21.7265 16.419 21.6 16.1008 21.6ZM16.1008 26.4H13.7008C13.3825 26.4 13.0773 26.5265 12.8523 26.7515C12.6272 26.9766 12.5008 27.2818 12.5008 27.6C12.5008 27.9183 12.6272 28.2235 12.8523 28.4486C13.0773 28.6736 13.3825 28.8 13.7008 28.8H16.1008C16.419 28.8 16.7243 28.6736 16.9493 28.4486C17.1744 28.2235 17.3008 27.9183 17.3008 27.6C17.3008 27.2818 17.1744 26.9766 16.9493 26.7515C16.7243 26.5265 16.419 26.4 16.1008 26.4ZM17.3008 32.4C17.3008 32.0818 17.1744 31.7766 16.9493 31.5515C16.7243 31.3265 16.419 31.2001 16.1008 31.2001H13.7008C13.3825 31.2001 13.0773 31.3265 12.8523 31.5515C12.6272 31.7766 12.5008 32.0818 12.5008 32.4C12.5008 32.7183 12.6272 33.0235 12.8523 33.2486C13.0773 33.4736 13.3825 33.6 13.7008 33.6H16.1008C16.419 33.6 16.7243 33.4736 16.9493 33.2486C17.1744 33.0235 17.3008 32.7183 17.3008 32.4ZM23.3008 21.6H20.9008C20.5825 21.6 20.2773 21.7265 20.0523 21.9515C19.8272 22.1766 19.7008 22.4818 19.7008 22.8C19.7008 23.1183 19.8272 23.4235 20.0523 23.6486C20.2773 23.8736 20.5825 24 20.9008 24H23.3008C23.619 24 23.9243 23.8736 24.1493 23.6486C24.3744 23.4235 24.5008 23.1183 24.5008 22.8C24.5008 22.4818 24.3744 22.1766 24.1493 21.9515C23.9243 21.7265 23.619 21.6 23.3008 21.6ZM23.3008 26.4H20.9008C20.5825 26.4 20.2773 26.5265 20.0523 26.7515C19.8272 26.9766 19.7008 27.2818 19.7008 27.6C19.7008 27.9183 19.8272 28.2235 20.0523 28.4486C20.2773 28.6736 20.5825 28.8 20.9008 28.8H23.3008C23.619 28.8 23.9243 28.6736 24.1493 28.4486C24.3744 28.2235 24.5008 27.9183 24.5008 27.6C24.5008 27.2818 24.3744 26.9766 24.1493 26.7515C23.9243 26.5265 23.619 26.4 23.3008 26.4ZM23.3008 31.2001H20.9008C20.5825 31.2001 20.2773 31.3265 20.0523 31.5515C19.8272 31.7766 19.7008 32.0818 19.7008 32.4C19.7008 32.7183 19.8272 33.0235 20.0523 33.2486C20.2773 33.4736 20.5825 33.6 20.9008 33.6H23.3008C23.619 33.6 23.9243 33.4736 24.1493 33.2486C24.3744 33.0235 24.5008 32.7183 24.5008 32.4C24.5008 32.0818 24.3744 31.7766 24.1493 31.5515C23.9243 31.3265 23.619 31.2001 23.3008 31.2001ZM34.1008 26.4H49.7008C50.019 26.4 50.3243 26.2736 50.5493 26.0486C50.7744 25.8235 50.9008 25.5183 50.9008 25.2001C50.9008 24.8818 50.7744 24.5766 50.5493 24.3515C50.3243 24.1265 50.019 24 49.7008 24H34.1008C33.7825 24 33.4773 24.1265 33.2523 24.3515C33.0272 24.5766 32.9008 24.8818 32.9008 25.2001C32.9008 25.5183 33.0272 25.8235 33.2523 26.0486C33.4773 26.2736 33.7825 26.4 34.1008 26.4ZM34.1008 32.4H49.7008C50.019 32.4 50.3243 32.2736 50.5493 32.0486C50.7744 31.8235 50.9008 31.5183 50.9008 31.2001C50.9008 30.8818 50.7744 30.5766 50.5493 30.3515C50.3243 30.1265 50.019 30 49.7008 30H34.1008C33.7825 30 33.4773 30.1265 33.2523 30.3515C33.0272 30.5766 32.9008 30.8818 32.9008 31.2001C32.9008 31.5183 33.0272 31.8235 33.2523 32.0486C33.4773 32.2736 33.7825 32.4 34.1008 32.4ZM34.1008 38.4001H49.7008C50.019 38.4001 50.3243 38.2736 50.5493 38.0486C50.7744 37.8235 50.9008 37.5183 50.9008 37.2001C50.9008 36.8818 50.7744 36.5766 50.5493 36.3515C50.3243 36.1265 50.019 36 49.7008 36H34.1008C33.7825 36 33.4773 36.1265 33.2523 36.3515C33.0272 36.5766 32.9008 36.8818 32.9008 37.2001C32.9008 37.5183 33.0272 37.8235 33.2523 38.0486C33.4773 38.2736 33.7825 38.4001 34.1008 38.4001ZM37.7008 42H20.9008C20.5825 42 20.2773 42.1265 20.0523 42.3515C19.8272 42.5766 19.7008 42.8818 19.7008 43.2001C19.7008 43.5183 19.8272 43.8235 20.0523 44.0486C20.2773 44.2736 20.5825 44.4001 20.9008 44.4001H37.7008C38.019 44.4001 38.3243 44.2736 38.5493 44.0486C38.7744 43.8235 38.9008 43.5183 38.9008 43.2001C38.9008 42.8818 38.7744 42.5766 38.5493 42.3515C38.3243 42.1265 38.019 42 37.7008 42ZM35.3008 48H20.9008C20.5825 48 20.2773 48.1265 20.0523 48.3515C19.8272 48.5766 19.7008 48.8818 19.7008 49.2001C19.7008 49.5183 19.8272 49.8235 20.0523 50.0486C20.2773 50.2736 20.5825 50.4001 20.9008 50.4001H35.3008C35.619 50.4001 35.9243 50.2736 36.1493 50.0486C36.3744 49.8235 36.5008 49.5183 36.5008 49.2001C36.5008 48.8818 36.3744 48.5766 36.1493 48.3515C35.9243 48.1265 35.619 48 35.3008 48ZM34.1008 54H20.9008C20.5825 54 20.2773 54.1265 20.0523 54.3515C19.8272 54.5766 19.7008 54.8818 19.7008 55.2001C19.7008 55.5183 19.8272 55.8235 20.0523 56.0486C20.2773 56.2736 20.5825 56.4001 20.9008 56.4001H34.1008C34.419 56.4001 34.7243 56.2736 34.9493 56.0486C35.1744 55.8235 35.3008 55.5183 35.3008 55.2001C35.3008 54.8818 35.1744 54.5766 34.9493 54.3515C34.7243 54.1265 34.419 54 34.1008 54Z" fill="#FEBE09"/>
</g>
<defs>
<clipPath id="clip0_7073_992">
<rect width="72" height="72" fill="white" transform="translate(0.5)"/>
</clipPath>
</defs>
</svg>
