<svg width="72" height="72" viewBox="0 0 72 72" fill="none" xmlns="http://www.w3.org/2000/svg">
<path d="M66.8064 71.9897H47.5281C46.1814 71.9897 45.0879 70.8962 45.0879 69.5496V56.2451C45.0879 54.8984 46.1814 53.8049 47.5281 53.8049H66.8064C68.153 53.8049 69.2566 54.8984 69.2566 56.2451V69.5496C69.2566 70.8962 68.153 71.9897 66.8064 71.9897ZM47.5281 55.7591C47.2648 55.7591 47.0522 55.9616 47.0522 56.235V69.5496C47.0522 69.8128 47.2648 70.0254 47.5281 70.0254H66.8064C67.0595 70.0254 67.2822 69.8027 67.2822 69.5496V56.2451C67.2822 55.9818 67.0696 55.7692 66.8064 55.7692H47.5281V55.7591Z" fill="#FEBE09"/>
<path d="M52.4074 55.7592C51.8606 55.7592 51.4253 55.3238 51.4253 54.7669V47.8211C51.4253 46.3225 52.0834 45.0164 53.2984 44.1456C54.3109 43.3964 55.6576 43.0015 57.1055 43.0015C59.9709 43.0015 62.8667 44.662 62.8667 47.8413C62.8667 48.7931 62.9578 49.431 63.3628 49.7955C63.5451 49.9473 63.778 50.0283 64.0311 50.0182C65.2765 50.0081 65.4587 48.7121 65.4587 47.9527C65.4587 45.5935 64.5677 43.6191 62.8971 42.2522C61.3884 41.0372 59.3431 40.3588 57.1156 40.3588C53.1567 40.3588 48.894 42.5762 48.894 47.4363V54.7872C48.894 55.3339 48.4586 55.7693 47.9118 55.7693C47.3651 55.7693 46.9297 55.3339 46.9297 54.7872V47.4363C46.9297 41.503 52.053 38.3945 57.1156 38.3945C59.7886 38.3945 62.2896 39.2248 64.1526 40.7233C66.2991 42.4648 67.423 44.9658 67.423 47.9527C67.423 50.3827 66.1067 51.9724 64.0615 51.9825C63.3426 52.0027 62.6439 51.7496 62.0769 51.294L62.0668 51.2839C60.8822 50.2612 60.8822 48.7424 60.8822 47.8413C60.8822 46.9807 60.5176 46.282 59.7988 45.7555C59.1103 45.2695 58.118 44.9658 57.0852 44.9658C55.7082 44.9658 53.3794 45.5733 53.3794 47.8413V54.7872C53.3895 55.3238 52.9542 55.7592 52.4074 55.7592ZM62.9072 68.3346H51.405C50.4229 68.3346 49.623 67.5347 49.623 66.5526V59.2321C49.623 58.2398 50.4229 57.4298 51.405 57.4298H62.9072C63.8995 57.4298 64.7095 58.2297 64.7095 59.2321V66.5526C64.7095 67.5347 63.8995 68.3346 62.9072 68.3346ZM51.6075 66.3703H62.7452V59.3941H51.6075V66.3703Z" fill="#FEBE09"/>
<path d="M49.8261 71.9898H7.58397C4.93117 71.9898 2.74414 69.8331 2.74414 67.1601V4.82959C2.74414 2.17679 4.91092 0.0100098 7.58397 0.0100098H49.8261C52.4789 0.0100098 54.6558 2.17679 54.6558 4.82959V39.893C54.6558 40.4398 54.2204 40.8751 53.6737 40.8751C53.1269 40.8751 52.6915 40.4398 52.6915 39.893V4.82959C52.6915 3.25006 51.4056 1.97429 49.8261 1.97429H7.58397C6.01457 1.97429 4.71855 3.25006 4.71855 4.82959V67.1601C4.71855 68.7295 5.99432 70.0255 7.58397 70.0255H49.8261C50.3729 70.0255 50.8083 70.4609 50.8083 71.0076C50.8083 71.5544 50.3526 71.9898 49.8261 71.9898Z" fill="#FEBE09"/>
<path d="M49.0066 40.6728H8.38448C7.83773 40.6728 7.40234 40.2374 7.40234 39.6805C7.40234 39.1337 7.83773 38.6984 8.38448 38.6984H49.0066C49.5534 38.6984 49.9888 39.1337 49.9888 39.6805C49.9888 40.2374 49.5534 40.6728 49.0066 40.6728ZM40.6432 48.6413H8.38448C7.83773 48.6413 7.40234 48.2059 7.40234 47.6591C7.40234 47.1124 7.83773 46.677 8.38448 46.677H40.6432C41.19 46.677 41.6254 47.1124 41.6254 47.6591C41.6254 48.2059 41.19 48.6413 40.6432 48.6413ZM42 56.6098H8.38448C7.83773 56.6098 7.40234 56.1744 7.40234 55.6276C7.40234 55.0809 7.83773 54.6455 8.38448 54.6455H42C42.5569 54.6455 42.9923 55.0809 42.9923 55.6276C42.9923 56.1744 42.5569 56.6098 42 56.6098ZM46.0703 64.5884H8.38448C7.83773 64.5884 7.40234 64.153 7.40234 63.5961C7.40234 63.0494 7.83773 62.614 8.38448 62.614H46.0703C46.6171 62.614 47.0525 63.0494 47.0525 63.5961C47.0525 64.153 46.607 64.5884 46.0703 64.5884ZM28.7057 33.2409C21.5776 33.2409 15.786 27.4493 15.786 20.3212C15.786 13.2133 21.5776 7.41162 28.7057 7.41162C35.8237 7.41162 41.6153 13.2133 41.6153 20.3212C41.6153 27.4493 35.8237 33.2409 28.7057 33.2409ZM28.7057 9.39615C22.6711 9.39615 17.7503 14.3069 17.7503 20.3414C17.7503 26.3659 22.661 31.2867 28.7057 31.2867C34.7403 31.2867 39.6408 26.3862 39.6408 20.3414C39.6408 14.3069 34.7403 9.39615 28.7057 9.39615Z" fill="#FEBE09"/>
<path d="M28.8463 27.2365C27.9755 27.2365 27.0845 27.0745 26.3656 26.7606C24.8367 26.1126 23.885 24.6951 23.8343 22.9839C23.8242 22.4372 24.2596 21.9815 24.7962 21.9714C25.343 21.9512 25.7885 22.3865 25.8087 22.9232C25.8391 23.8547 26.315 24.5938 27.1453 24.9482C28.0869 25.3532 29.5652 25.3735 30.4359 24.9583C31.1447 24.6445 31.57 24.0167 31.57 23.3282C31.57 22.8422 31.4485 22.2752 30.4866 21.86C30.0208 21.6474 29.3526 21.5057 28.6337 21.3538C26.72 20.9285 23.8242 20.3109 23.8242 17.3442C23.8242 15.8761 24.7051 14.5699 26.1125 13.9118C27.4895 13.284 29.5449 13.284 31.0131 13.9017C32.5521 14.5598 33.4937 15.9773 33.5444 17.6986C33.5545 18.2454 33.1191 18.6909 32.5825 18.7111C32.0357 18.7212 31.5902 18.2859 31.57 17.7492C31.5396 16.8076 31.0637 16.0786 30.2334 15.7141C29.3121 15.3091 27.8338 15.3091 26.963 15.6938C26.2441 16.0178 25.8189 16.6355 25.8189 17.324C25.8189 18.5694 26.8618 18.9339 29.0792 19.4098C29.8993 19.592 30.6688 19.7641 31.3371 20.0578C33.1596 20.8981 33.5545 22.3055 33.5545 23.3282C33.5545 24.7963 32.6635 26.1025 31.2662 26.7606C30.5777 27.0846 29.6968 27.2365 28.8463 27.2365Z" fill="#FEBE09"/>
<path d="M28.5528 29.7577C27.9959 29.7577 27.5605 29.3223 27.5605 28.7756V26.2443C27.5605 25.6975 27.9959 25.2621 28.5528 25.2621C29.0996 25.2621 29.535 25.6975 29.535 26.2443V28.7756C29.535 29.3223 29.0793 29.7577 28.5528 29.7577ZM28.5528 15.4002C27.9959 15.4002 27.5605 14.9649 27.5605 14.4181V11.8969C27.5605 11.3502 27.9959 10.9148 28.5528 10.9148C29.0996 10.9148 29.535 11.3502 29.535 11.8969V14.4181C29.535 14.9649 29.0793 15.4002 28.5528 15.4002Z" fill="#FEBE09"/>
</svg>
