<svg width="72" height="72" viewBox="0 0 72 72" fill="none" xmlns="http://www.w3.org/2000/svg">
<path d="M58.0423 44.9992C57.7957 42.9785 56.9943 41.3948 55.1889 40.2919C53.881 39.491 52.8219 39.3664 47.8129 38.1193V37.8575H52.8127C54.0251 37.8575 55.0132 36.8788 55.0282 35.6698C55.6593 24.9681 55.7544 23.742 55.7114 23.2362C55.7114 22.7669 55.3311 22.3866 54.8618 22.3866C54.7502 22.3866 54.6397 22.4086 54.5366 22.4513C54.4335 22.494 54.3399 22.5565 54.261 22.6354C54.1821 22.7143 54.1195 22.808 54.0768 22.9111C54.0341 23.0142 54.0121 23.1247 54.0122 23.2362V24.0422C53.2995 36.1286 53.3292 35.5928 53.3292 35.6417C53.3292 35.9216 53.0926 36.1582 52.8127 36.1582H47.8129V35.9383C48.087 35.7551 50.1175 34.8598 51.5919 32.4712C53.2248 29.8361 52.9974 27.6089 53.0003 25.4521C53.0003 24.5879 52.3262 23.8851 51.4655 23.8521H51.4654C45.1646 23.6113 41.9316 20.0399 41.0906 18.9509C40.9636 18.786 40.8017 18.6513 40.6165 18.5564C40.4314 18.4615 40.2275 18.4087 40.0195 18.4019C39.8112 18.3951 39.604 18.4341 39.4125 18.5162C39.221 18.5983 39.0499 18.7214 38.9113 18.8769C37.589 20.3653 36.0935 20.8363 35.3197 20.9844C34.6186 21.1188 34.1096 21.7353 34.1096 22.4504C34.1126 27.7906 34.103 27.4964 34.1173 27.8721C34.14 31.1886 36.3722 34.522 39.2638 35.9216V36.1578H34.192C33.9121 36.1578 33.6757 35.9213 33.6757 35.6414C33.6757 35.5919 33.7041 36.1066 32.9913 24.0169C32.9902 24.0013 32.9889 23.9857 32.9872 23.9702C32.9771 23.8819 32.0386 15.1293 36.9527 14.0494C37.0749 14.0226 37.1896 13.9691 37.2887 13.8928C37.3878 13.8165 37.4689 13.7192 37.526 13.608C37.5465 13.5683 39.6425 9.65478 46.4037 10.9715C49.0948 11.4846 53.1216 14.6892 53.8779 19.4056C53.9521 19.8688 54.3873 20.1834 54.8513 20.11C54.9615 20.0923 55.0671 20.0531 55.1621 19.9947C55.2572 19.9362 55.3397 19.8596 55.4051 19.7692C55.4706 19.6788 55.5175 19.5764 55.5434 19.4678C55.5692 19.3593 55.5734 19.2467 55.5557 19.1366C55.2286 16.9025 54.1165 14.5442 52.4349 12.7546L52.3746 12.69C50.6873 10.9031 48.1763 9.58545 46.7279 9.30349C44.4488 8.85988 41.1573 8.69245 38.4169 10.4144C37.2367 11.1558 36.5486 12.0112 36.2302 12.48C33.7232 13.1919 32.0808 15.4274 31.47 18.9717C31.0334 21.5045 31.2656 23.8551 31.2965 24.1392C32.0923 36.4289 31.8194 35.969 32.2801 36.7563C29.8657 36.3681 27.4083 37.0582 25.546 38.8186L24.8034 38.6336L22.737 37.6446V35.9202C26.9452 33.8324 27.6185 29.6558 27.6592 29.579C27.8102 28.8985 27.8867 28.2036 27.8875 27.5066V27.4983C29.4218 27.1641 30.5623 25.9467 30.5623 24.4998C30.5623 23.9004 30.366 23.3408 30.0276 22.8665C30.0415 20.632 30.1047 19.3176 29.6262 17.5554C29.5038 17.2435 29.1028 15.2698 27.3243 13.1484L27.316 13.1382C24.0292 9.22907 18.3606 7.73692 13.2759 10.2146C9.4179 12.1384 6.85581 16.1062 6.85581 20.5871C6.85592 21.3329 6.85558 22.7762 6.85615 22.8666C5.59306 24.6369 6.6715 26.9922 8.99683 27.4986C9.07443 31.3509 11.1466 34.3907 14.188 35.9403V37.6253L12.0367 38.655C9.69306 39.3111 7.87466 39.4826 6.48277 40.5148C4.7968 41.802 4.20604 42.9682 3.95772 45.0077C1.94221 63.2385 1.98923 62.1316 2.00305 62.9433C1.97847 65.1084 3.49191 66.9974 5.99611 66.9974L13.4234 66.9973C13.8928 66.9973 14.273 66.617 14.273 66.1477C14.273 65.6784 13.8928 65.2981 13.4234 65.2981H10.231L11.0735 49.3629C11.0854 49.1378 11.0074 48.9173 10.8567 48.7498C10.706 48.5823 10.4949 48.4815 10.2699 48.4696C9.80306 48.4436 9.40136 48.8046 9.37667 49.2732L9.19949 52.6248L4.86568 52.1702L4.87984 52.044C5.75448 45.1178 5.44013 44.0684 6.60908 42.6784L6.61882 42.6668C8.04221 40.986 10.299 40.9489 12.0464 40.4035L14.6582 43.7469C15.2827 44.5467 16.4688 44.6183 17.1851 43.8968L17.5924 43.4862V47.5977C17.5924 48.067 17.9727 48.4473 18.442 48.4473C18.9114 48.4473 19.2916 48.067 19.2916 47.5977V43.4864L19.6989 43.8968C19.8676 44.0667 20.0705 44.1987 20.2942 44.2842C20.5178 44.3696 20.7571 44.4064 20.9961 44.3923C21.2351 44.3781 21.4684 44.3133 21.6804 44.202C21.8924 44.0907 22.0783 43.9357 22.2258 43.747L23.4196 42.2189C22.9246 43.8135 23.0984 45.0115 23.0618 45.6888C21.4331 47.2147 22.2637 49.7178 24.5639 50.2283C24.8914 52.1452 26.0548 53.864 27.8939 54.8709V55.9042C24.8967 56.7114 22.5395 56.7446 21.4729 59.2863C21.4314 59.386 21.395 59.4877 21.3639 59.5911C21.3222 59.7251 21.2866 59.8609 21.2573 59.9982C21.1265 60.6317 21.1214 61.0323 20.6223 65.2981H17.3883C17.2767 65.2981 17.1662 65.32 17.0631 65.3627C16.9601 65.4054 16.8664 65.468 16.7875 65.5469C16.7086 65.6258 16.646 65.7195 16.6033 65.8225C16.5606 65.9256 16.5387 66.0361 16.5387 66.1477C16.5387 66.617 16.919 66.9973 17.3883 66.9973H21.391L21.3929 66.9974L21.3953 66.9973H40.6062L40.6086 66.9974L40.6105 66.9973H44.2064C44.6757 66.9973 45.056 66.617 45.056 66.1477C45.056 65.6784 44.6757 65.2981 44.2064 65.2981H41.379C40.9177 61.9097 40.9615 60.4539 40.5768 59.4101C40.0655 58.0153 38.821 57.0825 37.4728 56.7418L34.1074 55.904V54.856C35.8771 53.8857 37.0876 52.1645 37.4104 50.2281C37.4221 50.2215 39.3885 49.8623 39.7202 48.0072C39.8147 47.4902 39.7429 46.9441 39.4825 46.4393C41.1001 46.1102 42.6816 44.9146 43.5364 44.1736C47.8665 47.9296 51.7554 47.4593 52.0728 40.9307C52.6958 41.1241 55.6396 41.5748 56.2279 44.4211C56.2721 44.6345 56.3229 44.9373 56.3546 45.1962L57.1347 52.1678L52.8348 52.6189L52.658 49.2729C52.6333 48.8043 52.2279 48.4422 51.7648 48.4693C51.5397 48.4812 51.3287 48.582 51.178 48.7495C51.0272 48.917 50.9493 49.1375 50.9611 49.3625L51.8035 65.2977H48.171C47.7017 65.2977 47.3214 65.678 47.3214 66.1474C47.3214 66.6167 47.7017 66.997 48.171 66.997L56.0043 66.9971C57.1488 66.9971 58.1313 66.6143 58.8458 65.8901C59.5803 65.1456 60.0107 64.0434 59.9975 62.9405C60.0086 62.2247 60.0669 63.2328 58.0423 44.9992ZM9.05755 54.3185L8.50598 65.2981H5.996C4.51835 65.2981 3.73467 64.331 3.70205 62.9271C3.69185 62.3256 3.72414 62.5291 4.67672 53.8588L9.05755 54.3185ZM27.8874 25.7249V23.2752C29.1849 23.8105 29.1851 25.1896 27.8874 25.7249ZM8.99661 25.7251C7.69829 25.1898 7.69817 23.8103 8.99661 23.275V25.7251ZM9.73101 21.4126C9.33046 21.4234 8.9339 21.4952 8.55504 21.6257C8.5658 20.7366 8.50021 19.931 8.73073 18.7247C8.82918 18.4613 9.20357 15.5707 11.8767 13.1952C12.2345 12.9181 12.8222 12.2999 14.3378 11.5897C17.6038 10.0983 21.5991 10.3331 25.0069 13.1953C27.3117 15.2427 27.8158 17.565 27.985 17.9954C28.4592 19.7441 28.293 20.9796 28.3287 21.6258C27.95 21.4953 27.5536 21.4234 27.1532 21.4127C26.9377 21.291 26.7383 21.1223 26.5814 20.9495C25.423 19.6148 26.4056 18.5813 25.163 17.5443C24.2869 16.8132 23.448 17.0925 21.8975 17.2953C14.6763 18.0739 13.2273 16.2873 11.721 17.5443C11.2767 17.9151 10.997 18.4512 10.978 19.1163C10.9099 20.9203 9.80465 21.3296 9.73101 21.4126ZM10.6958 27.5068V22.8153C11.3389 22.3518 11.8119 21.9762 12.235 21.0784C12.4778 20.5654 12.655 19.9184 12.6789 19.1162C12.6845 18.8962 12.8913 18.7281 13.1167 18.7641C22.0883 19.9585 24.1776 18.0323 24.205 19.1157C24.2589 21.0152 25.3031 22.0599 25.3198 22.088C25.6317 22.4324 25.8317 22.5585 26.1878 22.8152C26.1879 23.6988 26.1876 26.6532 26.1881 26.747C26.1319 26.9923 26.7917 31.8148 21.9944 34.3919H21.9946C21.9825 34.3969 20.7448 35.1079 18.9549 35.2339C18.5051 35.2634 18.0624 35.244 18.0739 35.2442C13.8702 35.0481 10.6958 31.5618 10.6958 27.5068ZM15.9889 42.6901L13.7012 39.7615L14.852 39.2108L17.2247 41.4448L15.9889 42.6901ZM18.442 40.257L15.8871 37.8515V36.6009C17.5812 37.0773 19.3624 37.0574 21.0174 36.595V37.8321L18.442 40.257ZM20.8952 42.6901L19.6595 41.4448L22.0458 39.1979L23.194 39.7475L20.8952 42.6901ZM24.4725 48.3932C23.6972 47.9502 23.7634 47.1485 24.4725 46.7454V48.3932ZM37.9052 32.8059C35.2169 29.8189 35.8111 27.1244 35.8086 22.6192C36.7827 22.407 38.4467 21.8275 39.9551 20.2516C41.1625 21.7084 44.7633 25.2625 51.3009 25.5465C51.2972 27.8048 51.3072 27.4017 51.2933 27.8577L51.2929 27.8551C51.2167 28.1603 51.3729 30.9664 48.5163 33.4548L48.4183 33.5348C45.7595 35.6827 42.0625 35.776 39.3566 34.0165C39.1855 33.9057 38.0973 32.9899 37.9052 32.8059ZM34.8543 57.8413L34.8905 57.8504C36.6068 58.3189 37.1842 58.3198 37.9235 58.7626C39.4715 59.6902 39.0348 60.8344 39.6596 65.2982H37.3981L37.2976 63.4644C37.2718 62.9957 36.8713 62.6362 36.4027 62.6627C36.2913 62.6688 36.1822 62.6968 36.0817 62.7451C35.9811 62.7933 35.891 62.861 35.8166 62.944C35.7421 63.0271 35.6848 63.1241 35.6478 63.2293C35.6108 63.3346 35.5949 63.4461 35.601 63.5575L35.6965 65.2981H26.328L26.4235 63.5575C26.4297 63.4461 26.4138 63.3346 26.3768 63.2293C26.3399 63.124 26.2825 63.0271 26.2081 62.944C26.1336 62.8609 26.0435 62.7933 25.9429 62.745C25.8424 62.6967 25.7332 62.6688 25.6218 62.6627C25.5104 62.6564 25.3988 62.6721 25.2935 62.709C25.1881 62.7459 25.0911 62.8033 25.008 62.8778C24.9248 62.9522 24.8572 63.0424 24.809 63.1431C24.7608 63.2437 24.7329 63.3529 24.727 63.4644L24.6264 65.2982H22.342C22.9049 60.469 22.6667 59.6082 24.0779 58.7626C24.7831 58.3397 25.2414 58.3462 27.1469 57.8413C28.1177 58.9395 29.5189 59.5803 31.0007 59.5803C32.4824 59.5803 33.8837 58.9396 34.8543 57.8413ZM29.5929 55.5015C29.9495 55.579 30.3119 55.6266 30.6765 55.6436C30.6971 55.6447 30.7174 55.6453 30.7379 55.6459L30.7985 55.6479C31.4125 55.6643 32.0088 55.5953 32.4082 55.4954C32.4502 55.8218 32.2219 56.7714 32.9322 57.2862C32.3626 57.6738 31.6895 57.881 31.0005 57.881C30.3115 57.881 29.6384 57.6738 29.0688 57.2862C29.7771 56.7728 29.5525 55.8134 29.5929 55.5015ZM35.7935 49.413C35.7902 49.4722 35.786 49.5314 35.7808 49.5904C35.6191 51.3269 34.5327 52.7943 33.031 53.4976C32.9927 53.5024 30.431 54.8733 27.9647 52.8844C27.9374 52.8465 26.4776 51.8245 26.2119 49.7625C26.1398 49.2088 26.186 48.7668 26.1717 46.4057C29.9022 47.1774 32.5023 45.6792 33.64 44.1935C34.3944 45.3042 35.2532 45.7814 35.8022 45.9839C35.8006 49.6211 35.8074 49.1604 35.7935 49.413ZM37.213 44.872C36.9276 44.5209 36.591 44.4555 36.4563 44.4127C36.0819 44.2929 35.3629 43.9173 34.7526 42.7461C34.2754 41.8307 32.9637 41.8651 32.5258 42.7863C32.0288 43.8313 29.7611 45.649 25.9232 44.5994C25.5516 44.4982 25.1504 44.5829 24.8453 44.8614C24.8169 44.8652 24.7889 44.8702 24.7608 44.8747C24.763 44.3168 24.7675 44.2954 24.767 44.3069C24.985 39.1217 31.1802 36.4368 35.1114 39.9127C35.1109 39.9171 35.1213 39.9165 35.1208 39.9209C36.1252 40.8139 36.8117 41.9685 37.1024 43.4041C37.2451 44.1514 37.2068 44.7551 37.213 44.872ZM36.4336 38.824C36.0059 38.4188 35.6649 38.156 35.1889 37.8577H39.2638V38.1195L36.4336 38.824ZM37.5016 48.3944V46.7455C37.8043 46.9186 38.061 47.2185 38.061 47.5699C38.061 48.0111 37.7263 48.2258 37.5016 48.3944ZM38.9123 44.818C38.8951 44.6892 39.0049 43.5052 38.4731 41.971C39.367 42.7368 40.4068 43.2893 41.5279 43.5897C40.7173 44.1718 39.739 44.7276 38.9123 44.818ZM38.8988 39.9614L40.0012 39.687C40.0512 39.6745 40.0999 39.6576 40.1468 39.6364C40.6425 39.4116 40.9628 38.84 40.9628 38.1801L40.9629 36.5905C42.5001 37.0268 44.124 37.1114 46.1136 36.5999V38.1801C46.1136 38.8401 46.4339 39.4118 46.9298 39.6364C46.9766 39.6576 47.0253 39.6746 47.0752 39.687L48.1749 39.9608C45.682 42.8777 41.397 42.8838 38.8988 39.9614ZM48.9464 44.7284C47.9618 45.1391 46.4098 44.2165 45.5344 43.5834C47.3383 43.0833 48.8723 41.9889 49.9747 40.4088L50.3891 40.512C50.3183 42.8794 49.813 44.367 48.9464 44.7284ZM57.6364 64.697C56.7356 65.6099 55.5128 65.1896 53.5051 65.2981L52.9247 54.3182L57.3236 53.8567L58.2808 62.4113C58.3524 63.2562 58.2365 64.0887 57.6364 64.697Z" fill="#FEBE09"/>
</svg>
