<svg width="72" height="72" viewBox="0 0 72 72" fill="none" xmlns="http://www.w3.org/2000/svg">
<g clip-path="url(#clip0_7073_542)">
<path d="M20.5313 28.125C20.2515 28.125 19.9833 28.2361 19.7855 28.4339C19.5877 28.6317 19.4766 28.9 19.4766 29.1797C19.4766 29.4594 19.5877 29.7277 19.7855 29.9255C19.9833 30.1233 20.2515 30.2344 20.5313 30.2344H51.4688C51.7485 30.2344 52.0167 30.1233 52.2145 29.9255C52.4123 29.7277 52.5234 29.4594 52.5234 29.1797C52.5234 28.9 52.4123 28.6317 52.2145 28.4339C52.0167 28.2361 51.7485 28.125 51.4688 28.125H49.7109V14.4197L50.9695 15.0975C51.1302 15.1839 51.3106 15.2271 51.493 15.2229C51.6754 15.2187 51.8536 15.1672 52.0102 15.0736C52.1668 14.9799 52.2963 14.8472 52.3863 14.6885C52.4763 14.5298 52.5235 14.3504 52.5234 14.168V9.38675C52.5233 9.19631 52.4715 9.00946 52.3737 8.84605C52.2759 8.68264 52.1357 8.54876 51.968 8.45862L36.4992 0.126589C36.3459 0.0435111 36.1743 0 36 0C35.8257 0 35.6541 0.0435111 35.5008 0.126589L20.032 8.45159C19.8643 8.54173 19.7241 8.67561 19.6263 8.83902C19.5285 9.00243 19.4767 9.18927 19.4766 9.37971V14.168C19.4765 14.3504 19.5237 14.5298 19.6137 14.6885C19.7037 14.8472 19.8333 14.9799 19.9898 15.0736C20.1464 15.1672 20.3246 15.2187 20.507 15.2229C20.6894 15.2271 20.8698 15.1839 21.0305 15.0975L22.2891 14.4197V28.125H20.5313ZM39.2962 28.125H32.7037V22.6407C32.7037 21.7664 33.051 20.928 33.6692 20.3099C34.2874 19.6917 35.1258 19.3444 36 19.3444C36.8742 19.3444 37.7126 19.6917 38.3308 20.3099C38.949 20.928 39.2962 21.7664 39.2962 22.6407V28.125ZM21.5859 10.0097L36 2.25003L50.4141 10.0097V12.4003L36.4992 4.9219C36.3459 4.83882 36.1743 4.79531 36 4.79531C35.8257 4.79531 35.6541 4.83882 35.5008 4.9219L21.5859 12.4032V10.0097ZM24.3984 13.2849L36 7.04112L47.6016 13.2849V28.125H41.4056V22.6407C41.4056 21.207 40.8361 19.8321 39.8224 18.8183C38.8086 17.8045 37.4337 17.235 36 17.235C34.5663 17.235 33.1914 17.8045 32.1776 18.8183C31.1639 19.8321 30.5944 21.207 30.5944 22.6407V28.125H24.3984V13.2849Z" fill="#FEBE09"/>
<path d="M71.9297 48.6787L64.305 28.7394C64.2064 28.482 64.011 28.2733 63.7606 28.1579C63.5102 28.0426 63.2246 28.0297 62.9648 28.1221L56.2837 30.5043C55.9735 30.615 55.6888 30.787 55.4464 31.01C55.2041 31.233 55.009 31.5025 54.873 31.8024C54.7369 32.1024 54.6626 32.4266 54.6544 32.7559C54.6463 33.0851 54.7044 33.4127 54.8255 33.719L54.8944 33.8934L50.7951 35.2349L40.1723 33.2408C39.1165 33.0452 38.0318 33.069 36.9856 33.311C35.9395 33.5529 34.9544 34.0077 34.0917 34.6471L32.1792 36.0674C30.7047 35.1792 29.0153 34.7114 27.2939 34.7146H19.2276L17.332 33.7063C17.4357 33.1733 17.3595 32.6209 17.1154 32.1359C16.8714 31.6508 16.4732 31.2604 15.9834 31.026L10.0223 28.1713C9.89379 28.1097 9.75408 28.0747 9.61165 28.0687C9.46922 28.0626 9.32704 28.0855 9.19372 28.136C9.0604 28.1864 8.93872 28.2635 8.83604 28.3624C8.73337 28.4613 8.65184 28.58 8.59639 28.7113L0.0843598 48.7827C-0.0220073 49.0322 -0.0280079 49.3132 0.0676079 49.567C0.163224 49.8209 0.353084 50.028 0.597641 50.1454L6.54327 53.0043C7.07246 53.2601 7.6759 53.3173 8.24373 53.1655C8.81155 53.0137 9.30599 52.6631 9.63702 52.1774L14.8542 55.6663C14.4098 56.1976 14.1262 56.8447 14.0367 57.5316C13.9472 58.2184 14.0555 58.9166 14.3488 59.5441C14.6422 60.1715 15.1085 60.7023 15.6929 61.0741C16.2774 61.4458 16.9558 61.6432 17.6484 61.6429C17.7286 61.6429 17.8073 61.6429 17.8861 61.6344C17.9315 62.5669 18.3336 63.4463 19.0091 64.0907C19.6847 64.7351 20.582 65.0952 21.5156 65.0966C21.5944 65.0966 21.6745 65.0966 21.7533 65.0882C21.7988 66.0215 22.202 66.9014 22.8792 67.5453C23.5563 68.1892 24.4554 68.5476 25.3898 68.5462C25.4686 68.5462 25.5473 68.5434 25.6261 68.5377C25.6622 69.2414 25.9016 69.9195 26.3152 70.4899C26.7289 71.0603 27.299 71.4986 27.9566 71.7516C28.6143 72.0046 29.3311 72.0614 30.0204 71.9153C30.7097 71.7692 31.3419 71.4264 31.8403 70.9283L33.3675 69.4026L35.5106 71.0155C36.2775 71.5849 37.223 71.8606 38.1758 71.7927C39.1285 71.7249 40.0254 71.318 40.7039 70.6457L40.8994 70.4516C41.5448 69.8106 41.95 68.9669 42.0469 68.0624C42.752 68.3061 43.5115 68.3468 44.2387 68.18C44.9659 68.0132 45.6317 67.6455 46.1601 67.1188L46.4273 66.8516C47.0906 66.1898 47.4981 65.3145 47.5776 64.3808C48.2816 64.6247 49.0402 64.6649 49.766 64.497C50.4919 64.3291 51.1557 63.9598 51.6811 63.4316L51.93 63.1813C52.5698 62.5405 52.972 61.7007 53.0705 60.8005C53.7493 60.9885 54.4657 60.9938 55.1472 60.816C55.8287 60.6383 56.4512 60.2836 56.9517 59.788L57.0923 59.6474C57.6208 59.1186 57.9894 58.4515 58.1559 57.7227C58.3223 56.9938 58.2797 56.2328 58.0331 55.5271L62.543 52.394C62.891 52.6766 63.3101 52.8579 63.7544 52.918C64.1987 52.978 64.651 52.9144 65.0615 52.7343L71.363 50.0174C71.6113 49.9098 71.8088 49.7108 71.9143 49.4615C72.0198 49.2122 72.0253 48.9319 71.9297 48.6787ZM35.3489 36.3346C35.9781 35.8689 36.6966 35.5379 37.4595 35.3622C38.2224 35.1866 39.0132 35.1701 39.7828 35.3137L50.6714 37.3584C50.8458 37.3916 51.0258 37.3799 51.1945 37.3246L55.6706 35.8593L61.4798 50.5588L56.8392 53.7819L56.6058 53.6118L47.4539 47.0207C47.3114 46.9176 47.1454 46.8519 46.971 46.8295C46.7966 46.8072 46.6193 46.8289 46.4555 46.8927C43.7259 47.9516 41.4506 48.036 39.6928 47.1416C37.3556 45.9519 36.6455 43.3616 36.6398 43.3448C36.5986 43.184 36.52 43.0352 36.4104 42.9105C36.3008 42.7858 36.1633 42.6888 36.0092 42.6273C35.855 42.5657 35.6885 42.5415 35.5232 42.5564C35.3579 42.5714 35.1984 42.6251 35.0578 42.7133L28.769 46.6508C28.2069 47.0008 27.5521 47.1726 26.8906 47.1438C26.229 47.1149 25.5917 46.8867 25.0622 46.4891C24.8669 46.3414 24.7088 46.1503 24.6002 45.9309C24.4917 45.7114 24.4358 45.4697 24.4368 45.2249C24.4379 44.9801 24.496 44.7389 24.6065 44.5205C24.717 44.302 24.8769 44.1123 25.0734 43.9663L35.3489 36.3346ZM7.92702 50.9244C7.90923 50.9674 7.88302 51.0063 7.84993 51.0389C7.81683 51.0715 7.77754 51.0971 7.73436 51.1143C7.68937 51.1325 7.64102 51.1409 7.59252 51.139C7.54403 51.137 7.4965 51.1248 7.45311 51.103L2.41873 48.6801L10.1067 30.5394L15.0722 32.9174C15.1521 32.9551 15.2144 33.0223 15.2458 33.1049C15.2773 33.1875 15.2755 33.2791 15.2409 33.3604L7.92702 50.9244ZM16.56 59.0807C16.2727 58.793 16.1113 58.4031 16.1113 57.9965C16.1113 57.5899 16.2727 57.1999 16.56 56.9123L19.125 54.3444C19.2675 54.202 19.4366 54.089 19.6228 54.0118C19.8089 53.9347 20.0084 53.8951 20.2099 53.8951C20.4114 53.8951 20.6109 53.9347 20.7971 54.0118C20.9832 54.089 21.1524 54.202 21.2948 54.3444C21.4373 54.4869 21.5503 54.6561 21.6274 54.8422C21.7045 55.0284 21.7442 55.2279 21.7442 55.4294C21.7442 55.6309 21.7045 55.8304 21.6274 56.0165C21.5503 56.2027 21.4373 56.3718 21.2948 56.5143L18.7228 59.0863C18.4349 59.3717 18.046 59.5318 17.6407 59.5318C17.2354 59.5318 16.8464 59.3717 16.5586 59.0863L16.56 59.0807ZM20.4356 62.5344C20.2931 62.392 20.1801 62.2228 20.103 62.0367C20.0259 61.8505 19.9862 61.651 19.9862 61.4495C19.9862 61.248 20.0259 61.0485 20.103 60.8624C20.1801 60.6762 20.2931 60.5071 20.4356 60.3646L22.7981 58.0021C22.8684 57.9318 22.9387 57.8615 22.9992 57.7827L23.0119 57.7954C23.3038 57.5295 23.687 57.3864 24.0818 57.3961C24.4765 57.4058 24.8523 57.5675 25.1308 57.8474C25.4093 58.1274 25.569 58.504 25.5767 58.8988C25.5843 59.2936 25.4393 59.6761 25.1719 59.9666L22.8122 62.3263C22.7405 62.398 22.6715 62.4669 22.6097 62.5485L22.5984 62.5373C22.3111 62.8233 21.9223 62.9842 21.5169 62.9847C21.1115 62.9852 20.7222 62.8254 20.4342 62.5401L20.4356 62.5344ZM24.3098 65.984C24.0228 65.6959 23.8616 65.3058 23.8616 64.8991C23.8616 64.4923 24.0228 64.1022 24.3098 63.8141L26.8819 61.2421C27.1709 60.9545 27.5623 60.7936 27.9701 60.7946C28.3778 60.7957 28.7684 60.9587 29.0559 61.2477C29.3435 61.5368 29.5044 61.9282 29.5034 62.3359C29.5023 62.7436 29.3393 63.1342 29.0503 63.4218L26.4769 65.9938C26.1884 66.2802 25.7982 66.4406 25.3918 66.4399C24.9853 66.4391 24.5957 66.2771 24.3084 65.9896L24.3098 65.984ZM30.3567 69.4377C30.2142 69.5802 30.0451 69.6932 29.8589 69.7703C29.6728 69.8474 29.4733 69.8871 29.2718 69.8871C29.0703 69.8871 28.8708 69.8474 28.6846 69.7703C28.4985 69.6932 28.3293 69.5802 28.1869 69.4377C28.0444 69.2952 27.9314 69.1261 27.8543 68.94C27.7772 68.7538 27.7375 68.5543 27.7375 68.3528C27.7375 68.1513 27.7772 67.9518 27.8543 67.7656C27.9314 67.5795 28.0444 67.4104 28.1869 67.2679L30.548 64.9054C30.6197 64.8351 30.6886 64.7648 30.7505 64.686L30.7631 64.6987C30.9055 64.5563 31.0745 64.4433 31.2606 64.3663C31.4466 64.2892 31.646 64.2496 31.8473 64.2496C32.0487 64.2496 32.2481 64.2892 32.4341 64.3663C32.6201 64.4433 32.7892 64.5563 32.9315 64.6987C33.0739 64.841 33.1869 65.0101 33.2639 65.1961C33.341 65.3821 33.3806 65.5815 33.3806 65.7829C33.3806 65.9842 33.341 66.1836 33.2639 66.3697C33.1869 66.5557 33.0739 66.7247 32.9315 66.8671L30.3567 69.4377ZM55.6031 58.1469L55.4625 58.2876C55.1297 58.618 54.6852 58.8117 54.2166 58.8305C53.7479 58.8492 53.2893 58.6916 52.9312 58.3888L51.6951 57.3369L51.6811 57.3271L51.6726 57.3187L49.5 55.5791C49.2822 55.4035 49.0035 55.3215 48.7253 55.3513C48.447 55.3811 48.1921 55.5202 48.0164 55.738C47.8407 55.9558 47.7588 56.2345 47.7886 56.5127C47.8184 56.791 47.9575 57.046 48.1753 57.2216L50.3269 58.9569C50.5223 59.124 50.681 59.3297 50.7931 59.5611C50.9051 59.7925 50.9681 60.0445 50.978 60.3014C50.9879 60.5583 50.9445 60.8145 50.8506 61.0539C50.7567 61.2932 50.6143 61.5105 50.4323 61.6921L50.1834 61.941C49.8719 62.2546 49.4588 62.4468 49.0183 62.4831C48.5778 62.5194 48.1388 62.3975 47.7801 62.1393L45.1083 60.231C44.996 60.1455 44.8677 60.0835 44.731 60.0485C44.5944 60.0135 44.452 60.0063 44.3125 60.0273C44.173 60.0483 44.0391 60.097 43.9188 60.1707C43.7985 60.2444 43.6941 60.3414 43.612 60.4561C43.5298 60.5708 43.4715 60.7009 43.4405 60.8385C43.4095 60.9762 43.4065 61.1186 43.4315 61.2575C43.4566 61.3963 43.5092 61.5287 43.5864 61.6469C43.6635 61.765 43.7636 61.8665 43.8806 61.9452L44.692 62.526C44.9121 62.6835 45.0953 62.8871 45.2289 63.1225C45.3624 63.358 45.4431 63.6197 45.4653 63.8894C45.4875 64.1592 45.4508 64.4306 45.3575 64.6847C45.2643 64.9388 45.1169 65.1696 44.9255 65.361L44.6569 65.6282C44.3214 65.963 43.871 66.1577 43.3972 66.1725C42.9235 66.1874 42.4618 66.0215 42.1059 65.7084L40.0148 63.8648C39.8126 63.6865 39.5497 63.5925 39.2803 63.602C39.0109 63.6115 38.7553 63.7238 38.5661 63.9159C38.3769 64.108 38.2684 64.3652 38.263 64.6347C38.2576 64.9043 38.3556 65.1657 38.5369 65.3652L39.4636 66.3848C39.7862 66.7391 39.9599 67.2041 39.9483 67.6832C39.9368 68.1622 39.741 68.6184 39.4017 68.9568L39.2076 69.1508C38.8902 69.4657 38.4706 69.6566 38.0247 69.6891C37.5788 69.7216 37.136 69.5935 36.7762 69.328L34.83 67.8698C35.2223 67.3073 35.4478 66.6455 35.4804 65.9606C35.513 65.2756 35.3514 64.5954 35.0142 63.9982C34.6771 63.4011 34.1781 62.9114 33.5748 62.5855C32.9714 62.2596 32.2883 62.1107 31.604 62.1562C31.5805 61.6734 31.4609 61.2001 31.2525 60.764C31.044 60.3279 30.7507 59.9378 30.3898 59.6162C30.0289 59.2947 29.6075 59.0483 29.1504 58.8914C28.6932 58.7345 28.2093 58.6703 27.727 58.7024C27.7036 58.22 27.5843 57.7471 27.376 57.3113C27.1677 56.8755 26.8746 56.4857 26.5139 56.1645C26.1532 55.8433 25.7321 55.5973 25.2751 55.4407C24.8182 55.2842 24.3347 55.2204 23.8528 55.2529C23.8189 54.5483 23.5811 53.8687 23.1682 53.2968C22.7553 52.7249 22.1851 52.2852 21.5271 52.0312C20.869 51.7772 20.1513 51.7199 19.4612 51.8662C18.7711 52.0125 18.1384 52.3561 17.64 52.8552L16.3561 54.1405L10.5033 50.2213L16.5628 35.6779L18.4697 36.6932C18.6219 36.7747 18.792 36.8172 18.9647 36.8169H27.2939C28.3295 36.8152 29.3536 37.0328 30.299 37.4554L23.8134 42.2676C23.3539 42.6088 22.9801 43.0524 22.7217 43.5631C22.4633 44.0739 22.3274 44.6378 22.3246 45.2101C22.3219 45.7825 22.4525 46.3477 22.706 46.8609C22.9595 47.374 23.329 47.8212 23.7853 48.1668C24.6569 48.8211 25.706 49.1967 26.7948 49.2444C27.8837 49.2921 28.9615 49.0096 29.887 48.434L35.0901 45.1687C35.6526 46.3316 36.7397 47.9966 38.7 49.0035C40.8937 50.1285 43.5726 50.1496 46.6678 49.0569L55.3655 55.3204C55.5845 55.4785 55.7667 55.6823 55.8992 55.9177C56.0318 56.1532 56.1117 56.4146 56.1334 56.6839C56.155 56.9532 56.118 57.224 56.0247 57.4776C55.9315 57.7312 55.7842 57.9615 55.5933 58.1526L55.6031 58.1469ZM64.2305 50.7979C64.188 50.8161 64.1423 50.8255 64.0962 50.8255C64.05 50.8255 64.0043 50.8161 63.9619 50.7979C63.9194 50.78 63.8808 50.7539 63.8485 50.7211C63.8162 50.6883 63.7906 50.6494 63.7734 50.6066L56.7872 32.9427C56.7688 32.9003 56.7593 32.8546 56.7593 32.8084C56.7593 32.7622 56.7688 32.7165 56.7872 32.6741C56.8064 32.632 56.8339 32.5942 56.8679 32.5628C56.902 32.5314 56.9419 32.5071 56.9855 32.4913L62.6962 30.4551L69.5869 48.4874L64.2305 50.7979Z" fill="#FEBE09"/>
</g>
<defs>
<clipPath id="clip0_7073_542">
<rect width="72" height="72" fill="white"/>
</clipPath>
</defs>
</svg>
