<svg width="72" height="72" viewBox="0 0 72 72" fill="none" xmlns="http://www.w3.org/2000/svg">
<path d="M62.3574 67.1284H9.6425C9.03642 67.1284 8.54883 66.6408 8.54883 66.0348V32.4955C8.54883 31.8895 9.03642 31.4019 9.6425 31.4019C10.2486 31.4019 10.7362 31.8895 10.7362 32.4955V64.9411H61.2638V32.4955C61.2638 31.8895 61.7514 31.4019 62.3574 31.4019C62.9635 31.4019 63.4511 31.8895 63.4511 32.4955V66.0348C63.4511 66.6408 62.959 67.1284 62.3574 67.1284Z" fill="#FEBE09"/>
<path d="M67.6154 37.1164C66.8635 37.1164 66.1389 36.8658 65.5374 36.3918L35.9991 13.1513L6.46092 36.3918C4.99813 37.5402 2.87459 37.2896 1.72624 35.8268C1.17029 35.1205 0.919653 34.2364 1.02902 33.3432C1.13383 32.4501 1.58497 31.648 2.2913 31.0921L35.3247 5.10374C35.7212 4.78931 36.2817 4.78931 36.6781 5.10374L69.7116 31.0921C71.1743 32.2405 71.425 34.364 70.2766 35.8268C69.7207 36.5331 68.9186 36.9842 68.0255 37.0891C67.8888 37.1073 67.7521 37.1164 67.6154 37.1164ZM35.9991 10.6678C36.2361 10.6678 36.4776 10.7453 36.6736 10.9002L66.8908 34.6693C67.1414 34.8653 67.4513 34.9518 67.7657 34.9154C68.0802 34.8789 68.3627 34.7194 68.5586 34.4734C68.9642 33.9584 68.8731 33.2111 68.3581 32.8101L35.9991 7.35488L3.64016 32.8101C3.38953 33.006 3.23459 33.2886 3.19813 33.603C3.16168 33.9174 3.24826 34.2273 3.44421 34.4779C3.84978 34.9929 4.59256 35.0794 5.1075 34.6784L35.3247 10.9093C35.5207 10.7453 35.7622 10.6678 35.9991 10.6678Z" fill="#FEBE09"/>
<path d="M56.7104 23.3498C56.1043 23.3498 55.6167 22.8622 55.6167 22.2561V9.68344H50.1939V16.2682C50.1939 16.8743 49.7063 17.3619 49.1003 17.3619C48.4942 17.3619 48.0066 16.8743 48.0066 16.2682V8.58976C48.0066 7.98369 48.4942 7.49609 49.1003 7.49609H56.7104C57.3165 7.49609 57.8041 7.98369 57.8041 8.58976V22.2561C57.8041 22.8622 57.3165 23.3498 56.7104 23.3498ZM24.438 58.0556C24.1554 58.0556 23.8775 57.9462 23.6633 57.732C23.2349 57.3037 23.2395 56.611 23.6633 56.1872L46.7853 33.129C47.2137 32.7006 47.9063 32.7052 48.3301 33.129C48.7585 33.5574 48.7539 34.25 48.3301 34.6738L25.2081 57.732C24.9985 57.9508 24.716 58.0556 24.438 58.0556ZM28.4846 44.371H28.4754C24.8937 44.3665 21.9818 41.4455 21.9863 37.8637C21.9863 36.1275 22.6653 34.4961 23.8957 33.2703C25.1215 32.0444 26.7529 31.3746 28.4846 31.3746H28.4937C30.2299 31.3746 31.8613 32.0536 33.0871 33.2839C34.3129 34.5143 34.9873 36.1457 34.9828 37.8819C34.9828 39.6181 34.3038 41.2495 33.0734 42.4753C31.8476 43.7012 30.2162 44.371 28.4846 44.371ZM28.4846 33.5619C27.3362 33.5619 26.2562 34.0085 25.4405 34.8196C24.6248 35.6308 24.1737 36.7153 24.1737 37.8682C24.1691 40.247 26.1013 42.1837 28.48 42.1837H28.4846C29.6329 42.1837 30.7175 41.7371 31.5286 40.926C32.3443 40.1148 32.7954 39.0303 32.7954 37.8774C32.7954 36.7244 32.3489 35.6444 31.5377 34.8287C30.7266 34.0131 29.642 33.5619 28.4891 33.5619H28.4846ZM43.5134 59.491H43.5043C39.9225 59.4865 37.0106 56.5655 37.0152 52.9837C37.0197 51.2475 37.6942 49.6161 38.9246 48.3903C40.1504 47.1644 41.7818 46.4946 43.5134 46.4946H43.5225C47.1043 46.4991 50.0162 49.4201 50.0116 53.0019C50.0071 54.7381 49.3327 56.3695 48.1023 57.5953C46.8765 58.8166 45.2451 59.491 43.5134 59.491ZM43.5134 48.6819C42.3651 48.6819 41.2851 49.1285 40.4694 49.9396C39.6537 50.7508 39.2025 51.8353 39.2025 52.9882C39.198 55.367 41.1301 57.3037 43.5089 57.3037H43.5134C44.6618 57.3037 45.7418 56.8571 46.5575 56.046C47.3732 55.2348 47.8243 54.1503 47.8243 52.9974C47.8289 50.6186 45.8967 48.6819 43.518 48.6819H43.5134Z" fill="#FEBE09"/>
</svg>
