<svg width="73" height="72" viewBox="0 0 73 72" fill="none" xmlns="http://www.w3.org/2000/svg">
<g clip-path="url(#clip0_6948_576)">
<path d="M5.07081 65.036C4.95462 65.036 4.83814 65.036 4.78034 64.9774C4.48987 64.9196 4.1994 64.687 4.08321 64.3965L0.888054 58.4709C0.597585 57.89 0.771576 57.1933 1.35251 56.9028L3.27019 55.8566L2.22392 53.6491C1.99198 53.1267 2.16612 52.4873 2.63072 52.1968L4.72254 50.8608L3.61846 48.537C3.3858 48.0139 3.56066 47.3752 4.02512 47.0847L6.17488 45.6323L5.07081 43.1924C4.95462 42.9603 4.95462 42.6698 5.013 42.4372L7.22042 34.0136C3.7348 30.8184 2.34025 25.7643 3.67627 20.9425C4.6062 17.6311 6.75582 14.8426 9.77611 13.1576C12.7971 11.4733 16.225 11.0665 19.5943 11.9957C26.4493 13.9134 30.4578 21.0588 28.4826 27.9137C27.1465 32.7939 23.1377 36.6856 18.6067 37.6154L11.9843 60.7367C11.9257 61.0272 11.6938 61.2599 11.4611 61.4338L5.65175 64.8033C5.47746 64.9776 5.24509 65.036 5.07081 65.036ZM3.44418 58.413L5.53556 62.2469L9.89259 59.6912L16.5734 36.3373C16.6896 35.8726 17.0962 35.5821 17.5032 35.5237C21.4534 35.0013 24.9968 31.632 26.2172 27.3328C27.7852 21.6977 24.5322 15.8883 18.897 14.3195C16.1666 13.5644 13.3203 13.9134 10.8802 15.2494C8.44025 16.6432 6.63934 18.9092 5.88441 21.5812C4.72254 25.7063 6.05855 30.0633 9.25371 32.6776C9.60198 32.968 9.77612 33.4326 9.66036 33.8973L7.39456 42.6113L8.73072 45.5745C8.96309 46.0969 8.7891 46.6779 8.32377 47.0269L6.17488 48.4207L7.27823 50.6866C7.51089 51.2091 7.33676 51.8485 6.87157 52.139L4.78034 53.475L5.88441 55.741C6.17488 56.3219 5.94221 56.9606 5.41908 57.2511L3.44418 58.413Z" fill="#FEBE09"/>
<path d="M17.212 24.3703C16.863 24.3703 16.4562 24.3118 16.1079 24.1955C15.0622 23.905 14.1908 23.2085 13.6098 22.2785C13.087 21.3493 12.9705 20.2452 13.261 19.1997C13.9005 17.0502 16.1657 15.7719 18.3153 16.3528C19.361 16.6433 20.2324 17.3405 20.8133 18.2705C21.3363 19.1997 21.4527 20.3038 21.1622 21.3493C20.639 23.2083 19.0126 24.3702 17.2118 24.3702L17.212 24.3703ZM17.212 18.561C16.4562 18.561 15.7011 19.0834 15.5269 19.8384C15.4108 20.3038 15.4691 20.7684 15.7012 21.1752C15.9336 21.5812 16.3405 21.8717 16.7466 21.988C17.6766 22.2785 18.6643 21.6976 18.9548 20.7684C19.0704 20.3036 19.0126 19.8384 18.7799 19.4322C18.548 19.0256 18.1412 18.7351 17.7344 18.6188C17.5024 18.561 17.3861 18.561 17.212 18.561ZM27.2035 29.2498C24.7056 29.2498 22.3819 28.4369 20.4071 26.926C19.884 26.5194 19.8262 25.8227 20.1744 25.2995C20.5811 24.7764 21.2785 24.7186 21.8011 25.0669C23.3696 26.2873 25.2286 26.8682 27.2035 26.8682C28.7722 26.8682 30.3409 26.4614 31.6769 25.6478C32.2578 25.2995 32.9551 25.5322 33.2455 26.0546C33.5938 26.6356 33.3617 27.3328 32.8389 27.6233C31.1545 28.7274 29.179 29.2498 27.2035 29.2498Z" fill="#FEBE09"/>
<path d="M17.2713 18.561H17.2134C16.574 18.5024 16.1094 17.98 16.1094 17.3406C16.516 11.5312 21.3956 7 27.205 7C32.3756 7 36.9653 10.6599 38.0687 15.7719C38.185 16.4113 37.8367 16.9923 37.1973 17.1664C36.5585 17.2826 35.9776 16.9337 35.8035 16.295C34.9321 12.1706 31.3301 9.26595 27.205 9.26595C22.616 9.26595 18.7236 12.8672 18.4331 17.4569C18.3753 18.0378 17.8522 18.561 17.2713 18.561Z" fill="#FEBE09"/>
<path d="M54.5082 56.4375C54.2177 56.4375 53.9273 56.3218 53.6953 56.0892L33.9434 36.3373C33.4787 35.8725 32.4326 34.6523 32.4326 33.1999L31.2129 20.3615V20.2453C31.2129 18.6765 31.6776 17.5146 32.723 16.4111C33.7693 15.3657 34.9312 14.9004 36.2672 14.9004H36.6739L49.5124 16.0623C51.0226 16.0623 52.1845 17.1663 52.6498 17.5731L72.4017 37.325C72.8663 37.7896 72.8663 38.4869 72.4017 38.9515L55.3218 56.0892C55.1475 56.3218 54.8571 56.4375 54.5082 56.4375ZM33.5366 20.1874L34.7563 33.0258V33.1421C34.7563 33.6069 35.1053 34.1878 35.6277 34.7107L54.5667 53.6492L69.9616 38.1963L51.0226 19.2576C50.5002 18.7352 49.8607 18.3862 49.4546 18.3862H49.3383L36.2672 17.1665C35.5699 17.1665 34.989 17.457 34.408 18.0379C33.7693 18.6766 33.5366 19.2576 33.5366 20.1874Z" fill="#FEBE09"/>
<path d="M45.7363 36.0469C45.4458 36.0469 45.1553 35.9307 44.9227 35.6986C44.4581 35.2333 44.4581 34.5367 44.9227 34.0714L50.5579 28.4369C51.0227 27.9716 51.7198 27.9716 52.1845 28.4369C52.6497 28.9015 52.6497 29.5988 52.1845 30.0634L46.5499 35.6985C46.3172 35.9306 46.0267 36.0469 45.7363 36.0469ZM52.3009 42.6113C52.0104 42.6113 51.7199 42.4952 51.4878 42.2631C51.0225 41.7983 51.0225 41.1012 51.4878 40.6364L57.1224 35.0013C57.5877 34.5366 58.2842 34.5366 58.7496 35.0013C59.2142 35.4659 59.2142 36.1632 58.7496 36.6278L53.1143 42.2629C52.8817 42.495 52.5912 42.6115 52.3007 42.6115L52.3009 42.6113Z" fill="#FEBE09"/>
</g>
<defs>
<clipPath id="clip0_6948_576">
<rect width="72" height="72" fill="white" transform="translate(0.75)"/>
</clipPath>
</defs>
</svg>
