<svg width="72" height="71" viewBox="0 0 72 71" fill="none" xmlns="http://www.w3.org/2000/svg">
<path d="M5.31115 63.9179H7.67181V66.2644C7.66257 66.881 7.77675 67.4932 8.00763 68.065C8.23851 68.6369 8.58143 69.1567 9.0162 69.5941C9.45688 70.0418 9.98266 70.3968 10.5626 70.6382C11.1426 70.8796 11.7649 71.0026 12.3931 70.9998H51.3439C52.5961 70.9998 53.797 70.5024 54.6824 69.617C55.5678 68.7316 56.0653 67.5307 56.0653 66.2785V52.1146C56.0653 51.8016 55.9409 51.5013 55.7195 51.28C55.4982 51.0586 55.198 50.9343 54.8849 50.9343C54.5719 50.9343 54.2717 51.0586 54.0503 51.28C53.8289 51.5013 53.7046 51.8016 53.7046 52.1146V66.2785C53.7046 66.9046 53.4559 67.5051 53.0132 67.9478C52.5705 68.3905 51.97 68.6392 51.3439 68.6392H12.3931C12.0772 68.6407 11.7642 68.5788 11.4727 68.4572C11.1811 68.3355 10.9169 68.1566 10.6958 67.931C10.4803 67.714 10.3105 67.4559 10.1966 67.172C10.0826 66.8882 10.0268 66.5843 10.0325 66.2785V63.9179H44.262C45.5141 63.9179 46.715 63.4205 47.6004 62.535C48.4859 61.6496 48.9833 60.4487 48.9833 59.1966V54.7821C48.9833 54.4691 48.8589 54.1689 48.6376 53.9475C48.4162 53.7262 48.116 53.6018 47.803 53.6018C47.4899 53.6018 47.1897 53.7262 46.9683 53.9475C46.747 54.1689 46.6226 54.4691 46.6226 54.7821V59.1966C46.6226 59.8227 46.3739 60.4231 45.9312 60.8658C45.4885 61.3085 44.8881 61.5572 44.262 61.5572H5.31115C4.68507 61.5572 4.08463 61.3085 3.64192 60.8658C3.19921 60.4231 2.9505 59.8227 2.9505 59.1966V4.90149C2.9505 4.2754 3.19921 3.67496 3.64192 3.23225C4.08463 2.78954 4.68507 2.54083 5.31115 2.54083H44.262C44.8881 2.54083 45.4885 2.78954 45.9312 3.23225C46.3739 3.67496 46.6226 4.2754 46.6226 4.90149V14.3441C46.6226 14.6572 46.747 14.9574 46.9683 15.1787C47.1897 15.4001 47.4899 15.5244 47.803 15.5244C48.116 15.5244 48.4162 15.4001 48.6376 15.1787C48.8589 14.9574 48.9833 14.6572 48.9833 14.3441V4.90149C48.9833 3.64932 48.4859 2.44843 47.6004 1.56302C46.715 0.677598 45.5141 0.180176 44.262 0.180176H5.31115C4.05899 0.180176 2.8581 0.677598 1.97268 1.56302C1.08727 2.44843 0.589844 3.64932 0.589844 4.90149L0.589844 59.1966C0.589844 60.4487 1.08727 61.6496 1.97268 62.535C2.8581 63.4205 4.05899 63.9179 5.31115 63.9179Z" fill="#FEBE09"/>
<path d="M6.49087 7.26224C6.17783 7.26224 5.87761 7.38659 5.65626 7.60795C5.4349 7.8293 5.31055 8.12952 5.31055 8.44257V19.0655C5.31055 19.3786 5.4349 19.6788 5.65626 19.9001C5.87761 20.1215 6.17783 20.2458 6.49087 20.2458H11.2122C11.5252 20.2458 11.8254 20.1215 12.0468 19.9001C12.2682 19.6788 12.3925 19.3786 12.3925 19.0655C12.3925 18.7525 12.2682 18.4523 12.0468 18.2309C11.8254 18.0095 11.5252 17.8852 11.2122 17.8852H7.6712V8.44257C7.6712 8.12952 7.54685 7.8293 7.32549 7.60795C7.10414 7.38659 6.80392 7.26224 6.49087 7.26224ZM23.0155 13.754C23.0155 10.1139 20.9416 7.26224 18.2942 7.26224C15.6467 7.26224 13.5728 10.1139 13.5728 13.754C13.5728 17.3942 15.6467 20.2458 18.2942 20.2458C20.9416 20.2458 23.0155 17.3942 23.0155 13.754ZM15.9335 13.754C15.9335 11.3202 17.1776 9.62289 18.2942 9.62289C19.4107 9.62289 20.6548 11.3202 20.6548 13.754C20.6548 16.1879 19.4107 17.8852 18.2942 17.8852C17.1776 17.8852 15.9335 16.1891 15.9335 13.754ZM30.0372 8.06958C29.9596 7.83344 29.8094 7.62782 29.6081 7.48206C29.4067 7.33629 29.1645 7.25781 28.9159 7.25781C28.6673 7.25781 28.4251 7.33629 28.2238 7.48206C28.0224 7.62782 27.8722 7.83344 27.7946 8.06958L24.2536 18.6925C24.1547 18.9899 24.178 19.3144 24.3183 19.5947C24.4587 19.8749 24.7046 20.0879 25.002 20.1868C25.2993 20.2858 25.6239 20.2625 25.9041 20.1221C26.1843 19.9818 26.3973 19.7359 26.4963 19.4385L27.0144 17.8852H30.8198L31.338 19.4385C31.3869 19.5858 31.4644 19.7219 31.566 19.8392C31.6676 19.9565 31.7914 20.0527 31.9301 20.1221C32.0689 20.1916 32.22 20.2331 32.3748 20.2442C32.5295 20.2553 32.685 20.2358 32.8322 20.1868C32.9795 20.1378 33.1157 20.0603 33.233 19.9587C33.3503 19.8571 33.4464 19.7334 33.5159 19.5947C33.5854 19.4559 33.6269 19.3048 33.638 19.15C33.6491 18.9952 33.6296 18.8398 33.5806 18.6925L30.0372 8.06958ZM27.8005 15.5245L28.9171 12.1748L30.0337 15.5245H27.8005ZM38.3597 19.0655V12.9975L42.0494 19.6392C42.1765 19.8677 42.3758 20.0476 42.6162 20.1505C42.8565 20.2535 43.1242 20.2738 43.3773 20.2081C43.6304 20.1425 43.8546 19.9947 44.0146 19.7879C44.1746 19.5811 44.2614 19.327 44.2614 19.0655V8.44257C44.2614 8.12952 44.137 7.8293 43.9157 7.60795C43.6943 7.38659 43.3941 7.26224 43.081 7.26224C42.768 7.26224 42.4678 7.38659 42.2464 7.60795C42.0251 7.8293 41.9007 8.12952 41.9007 8.44257V14.5106L38.211 7.86893C38.0839 7.6404 37.8846 7.46053 37.6443 7.35755C37.4039 7.25457 37.1362 7.23431 36.8831 7.29995C36.63 7.36559 36.4059 7.51341 36.2459 7.72021C36.0859 7.92702 35.9991 8.18109 35.9991 8.44257V19.0655C35.9991 19.3786 36.1234 19.6788 36.3448 19.9001C36.5661 20.1215 36.8664 20.2458 37.1794 20.2458C37.4924 20.2458 37.7927 20.1215 38.014 19.9001C38.2354 19.6788 38.3597 19.3786 38.3597 19.0655ZM6.49087 28.5081H21.8351C22.1482 28.5081 22.4484 28.3838 22.6698 28.1624C22.8911 27.9411 23.0155 27.6409 23.0155 27.3278C23.0155 27.0148 22.8911 26.7145 22.6698 26.4932C22.4484 26.2718 22.1482 26.1475 21.8351 26.1475H6.49087C6.17783 26.1475 5.87761 26.2718 5.65626 26.4932C5.4349 26.7145 5.31055 27.0148 5.31055 27.3278C5.31055 27.6409 5.4349 27.9411 5.65626 28.1624C5.87761 28.3838 6.17783 28.5081 6.49087 28.5081ZM6.49087 34.4098H21.8351C22.1482 34.4098 22.4484 34.2854 22.6698 34.0641C22.8911 33.8427 23.0155 33.5425 23.0155 33.2295C23.0155 32.9164 22.8911 32.6162 22.6698 32.3948C22.4484 32.1735 22.1482 32.0491 21.8351 32.0491H6.49087C6.17783 32.0491 5.87761 32.1735 5.65626 32.3948C5.4349 32.6162 5.31055 32.9164 5.31055 33.2295C5.31055 33.5425 5.4349 33.8427 5.65626 34.0641C5.87761 34.2854 6.17783 34.4098 6.49087 34.4098ZM6.49087 40.3114H21.8351C22.1482 40.3114 22.4484 40.1871 22.6698 39.9657C22.8911 39.7444 23.0155 39.4441 23.0155 39.1311C23.0155 38.818 22.8911 38.5178 22.6698 38.2965C22.4484 38.0751 22.1482 37.9508 21.8351 37.9508H6.49087C6.17783 37.9508 5.87761 38.0751 5.65626 38.2965C5.4349 38.5178 5.31055 38.818 5.31055 39.1311C5.31055 39.4441 5.4349 39.7444 5.65626 39.9657C5.87761 40.1871 6.17783 40.3114 6.49087 40.3114ZM26.5564 27.3278C26.5564 27.6409 26.6808 27.9411 26.9022 28.1624C27.1235 28.3838 27.4237 28.5081 27.7368 28.5081H38.761C39.0741 28.5081 39.3743 28.3838 39.5957 28.1624C39.817 27.9411 39.9414 27.6409 39.9414 27.3278C39.9414 27.0148 39.817 26.7145 39.5957 26.4932C39.3743 26.2718 39.0741 26.1475 38.761 26.1475H27.7368C27.4237 26.1475 27.1235 26.2718 26.9022 26.4932C26.6808 26.7145 26.5564 27.0148 26.5564 27.3278ZM27.7368 34.4098H32.3164C32.6295 34.4098 32.9297 34.2854 33.1511 34.0641C33.3724 33.8427 33.4968 33.5425 33.4968 33.2295C33.4968 32.9164 33.3724 32.6162 33.1511 32.3948C32.9297 32.1735 32.6295 32.0491 32.3164 32.0491H27.7368C27.4237 32.0491 27.1235 32.1735 26.9022 32.3948C26.6808 32.6162 26.5564 32.9164 26.5564 33.2295C26.5564 33.5425 26.6808 33.8427 26.9022 34.0641C27.1235 34.2854 27.4237 34.4098 27.7368 34.4098ZM27.7368 40.3114H32.5407C32.8538 40.3114 33.154 40.1871 33.3753 39.9657C33.5967 39.7444 33.721 39.4441 33.721 39.1311C33.721 38.818 33.5967 38.5178 33.3753 38.2965C33.154 38.0751 32.8538 37.9508 32.5407 37.9508H27.7368C27.4237 37.9508 27.1235 38.0751 26.9022 38.2965C26.6808 38.5178 26.5564 38.818 26.5564 39.1311C26.5564 39.4441 26.6808 39.7444 26.9022 39.9657C27.1235 40.1871 27.4237 40.3114 27.7368 40.3114ZM6.49087 46.2131H21.8351C22.1482 46.2131 22.4484 46.0887 22.6698 45.8673C22.8911 45.646 23.0155 45.3458 23.0155 45.0327C23.0155 44.7197 22.8911 44.4195 22.6698 44.1981C22.4484 43.9768 22.1482 43.8524 21.8351 43.8524H6.49087C6.17783 43.8524 5.87761 43.9768 5.65626 44.1981C5.4349 44.4195 5.31055 44.7197 5.31055 45.0327C5.31055 45.3458 5.4349 45.646 5.65626 45.8673C5.87761 46.0887 6.17783 46.2131 6.49087 46.2131ZM35.8456 45.0327C35.8456 44.7197 35.7213 44.4195 35.4999 44.1981C35.2786 43.9768 34.9783 43.8524 34.6653 43.8524H27.7368C27.4237 43.8524 27.1235 43.9768 26.9022 44.1981C26.6808 44.4195 26.5564 44.7197 26.5564 45.0327C26.5564 45.3458 26.6808 45.646 26.9022 45.8673C27.1235 46.0887 27.4237 46.2131 27.7368 46.2131H34.6653C34.9783 46.2131 35.2786 46.0887 35.4999 45.8673C35.7213 45.646 35.8456 45.3458 35.8456 45.0327ZM7.6712 55.6557H11.3692C11.8962 55.6574 12.4131 55.5115 12.8615 55.2345C13.3098 54.9574 13.6715 54.5603 13.9057 54.0882C13.945 53.999 14.0124 53.9252 14.0977 53.8781C14.183 53.831 14.2814 53.8131 14.3778 53.8274C14.5761 53.8392 14.7437 53.9773 14.7909 54.1696L14.9999 54.8979C15.1447 55.4204 15.438 55.8896 15.8443 56.2487C16.2505 56.6078 16.7522 56.8413 17.2885 56.921C17.8235 57.0088 18.3725 56.9394 18.8688 56.7213C19.3652 56.5032 19.7875 56.1457 20.0847 55.6923L21.4433 53.655C21.4862 53.5893 21.5448 53.5352 21.6138 53.4979C21.6829 53.4605 21.7602 53.4409 21.8387 53.4409C21.9172 53.4409 21.9945 53.4605 22.0635 53.4979C22.1326 53.5352 22.1912 53.5893 22.2341 53.655L22.7251 54.3939C22.9841 54.7825 23.3351 55.1011 23.747 55.3212C24.1589 55.5413 24.6188 55.6562 25.0858 55.6557H28.9171C29.2301 55.6557 29.5304 55.5313 29.7517 55.31C29.9731 55.0886 30.0974 54.7884 30.0974 54.4753C30.0974 54.1623 29.9731 53.8621 29.7517 53.6407C29.5304 53.4194 29.2301 53.295 28.9171 53.295H25.081C25.003 53.2951 24.9261 53.2759 24.8573 53.239C24.7885 53.2022 24.7299 53.1488 24.6868 53.0837L24.1958 52.3508C23.9374 51.9612 23.5866 51.6417 23.1747 51.4206C22.7628 51.1995 22.3026 51.0839 21.8351 51.0839C21.3677 51.0839 20.9075 51.1995 20.4956 51.4206C20.0837 51.6417 19.7329 51.9612 19.4745 52.3508L18.1171 54.3833C18.0675 54.4599 17.9968 54.5205 17.9135 54.5578C17.8302 54.5951 17.7379 54.6074 17.6477 54.5933C17.5575 54.5792 17.4734 54.5392 17.4055 54.4783C17.3375 54.4173 17.2887 54.338 17.2649 54.2499L17.0572 53.5216C16.9014 52.9715 16.5827 52.4813 16.1431 52.1157C15.7035 51.75 15.1635 51.5259 14.5941 51.4729C14.0248 51.4199 13.4527 51.5405 12.9532 51.8187C12.4536 52.0969 12.0499 52.5198 11.7953 53.0318C11.7561 53.1112 11.6953 53.178 11.62 53.2246C11.5447 53.2711 11.4577 53.2955 11.3692 53.295H7.6712C7.35816 53.295 7.05794 53.4194 6.83658 53.6407C6.61523 53.8621 6.49087 54.1623 6.49087 54.4753C6.49087 54.7884 6.61523 55.0886 6.83658 55.31C7.05794 55.5313 7.35816 55.6557 7.6712 55.6557Z" fill="#FEBE09"/>
<path d="M33.6393 55.6556H40.1712C40.6794 55.6548 41.1683 55.4612 41.5392 55.1139C44.2269 52.6352 49.7437 48.4509 56.4964 48.3128C57.0132 48.3107 57.5094 48.1103 57.8828 47.753C58.2562 47.3956 58.4781 46.9086 58.5029 46.3924C58.5242 45.9581 59.0683 35.7022 62.0439 30.1252L71.2741 12.7979C71.4212 12.5215 71.4525 12.198 71.3611 11.8985C71.2697 11.599 71.063 11.3481 70.7866 11.201C70.5102 11.0538 70.1866 11.0225 69.8871 11.1139C69.5876 11.2054 69.3367 11.412 69.1896 11.6884L60.5154 27.977L56.0372 25.5927L50.1002 22.4282L61.0229 1.91532C61.106 1.77811 61.1602 1.62541 61.1823 1.46654C61.2043 1.30768 61.1938 1.14598 61.1513 0.991321C61.1088 0.836664 61.0352 0.692292 60.9351 0.567019C60.8349 0.441747 60.7103 0.338202 60.5687 0.262707C60.4272 0.187212 60.2718 0.141351 60.112 0.127923C59.9522 0.114495 59.7913 0.133783 59.6391 0.184609C59.487 0.235434 59.3468 0.316731 59.2272 0.423536C59.1075 0.530341 59.0109 0.660412 58.9432 0.80581L47.4598 22.3539C44.4853 27.9345 36.2762 34.1005 35.928 34.3602C35.5144 34.6694 35.235 35.1253 35.1472 35.6342C35.0594 36.143 35.1698 36.6662 35.4558 37.0962C39.2341 42.9884 38.5967 50.3784 38.1446 53.295H33.6393C33.3263 53.295 33.026 53.4193 32.8047 53.6407C32.5833 53.862 32.459 54.1623 32.459 54.4753C32.459 54.7884 32.5833 55.0886 32.8047 55.3099C33.026 55.5313 33.3263 55.6556 33.6393 55.6556ZM37.5899 36.0622C38.9968 34.9846 45.6893 29.7156 48.9482 24.495L55.8295 28.154L59.4436 30.0815C56.9236 35.6975 56.278 44.1947 56.1682 45.9652C51.3448 46.2816 46.7239 48.0225 42.8907 50.9674L46.7079 43.7237C47.8311 44.0034 49.0178 43.8636 50.0453 43.3305C51.0728 42.7974 51.8704 41.9078 52.2886 40.8284C52.7067 39.749 52.7166 38.5542 52.3164 37.468C51.9162 36.3819 51.1334 35.4791 50.1149 34.9291C49.0964 34.379 47.9122 34.2196 46.7845 34.4806C45.6568 34.7416 44.6631 35.4052 43.9898 36.3468C43.3166 37.2884 43.0101 38.4433 43.1278 39.5948C43.2456 40.7464 43.7795 41.8153 44.6293 42.6012L40.8393 49.78C41.131 44.9871 40.0006 40.2149 37.5899 36.0622ZM46.6937 41.2143C46.1412 40.9193 45.7285 40.4168 45.5465 39.8175C45.3644 39.2182 45.4279 38.5711 45.7229 38.0186C46.018 37.4661 46.5204 37.0534 47.1197 36.8713C47.719 36.6893 48.3661 36.7527 48.9187 37.0478C49.4712 37.3431 49.8837 37.8459 50.0656 38.4454C50.2474 39.045 50.1836 39.6922 49.8883 40.2447C49.5929 40.7972 49.0902 41.2098 48.4907 41.3916C47.8911 41.5735 47.2439 41.5097 46.6914 41.2143H46.6937Z" fill="#FEBE09"/>
</svg>
