<svg width="72" height="72" viewBox="0 0 72 72" fill="none" xmlns="http://www.w3.org/2000/svg">
<path d="M28.125 10.125C28.125 11.6825 28.5869 13.2051 29.4522 14.5001C30.3175 15.7952 31.5474 16.8045 32.9864 17.4006C34.4253 17.9966 36.0087 18.1525 37.5363 17.8487C39.0639 17.5448 40.4671 16.7948 41.5685 15.6935C42.6698 14.5921 43.4198 13.1889 43.7237 11.6613C44.0275 10.1337 43.8716 8.55034 43.2756 7.11137C42.6795 5.6724 41.6702 4.44249 40.3751 3.57718C39.0801 2.71186 37.5575 2.25 36 2.25C33.9114 2.25 31.9084 3.07969 30.4315 4.55653C28.9547 6.03338 28.125 8.03642 28.125 10.125ZM36 4.5C37.1125 4.5 38.2001 4.8299 39.1251 5.44798C40.0501 6.06607 40.7711 6.94457 41.1968 7.97241C41.6226 9.00024 41.734 10.1312 41.5169 11.2224C41.2999 12.3135 40.7641 13.3158 39.9775 14.1025C39.1908 14.8891 38.1885 15.4249 37.0974 15.6419C36.0062 15.859 34.8752 15.7476 33.8474 15.3218C32.8196 14.8961 31.9411 14.1751 31.323 13.2501C30.7049 12.3251 30.375 11.2375 30.375 10.125C30.375 8.63316 30.9676 7.20242 32.0225 6.14752C33.0774 5.09263 34.5082 4.5 36 4.5ZM12.375 52.875H16.875C17.1734 52.875 17.4595 52.7565 17.6705 52.5455C17.8815 52.3345 18 52.0484 18 51.75C18 51.4516 17.8815 51.1655 17.6705 50.9545C17.4595 50.7435 17.1734 50.625 16.875 50.625H14.625V49.5C14.625 49.2016 14.5065 48.9155 14.2955 48.7045C14.0845 48.4935 13.7984 48.375 13.5 48.375C13.2016 48.375 12.9155 48.4935 12.7045 48.7045C12.4935 48.9155 12.375 49.2016 12.375 49.5V50.625C11.4799 50.625 10.6214 50.9806 9.98851 51.6135C9.35558 52.2465 9 53.1049 9 54C9 54.8951 9.35558 55.7535 9.98851 56.3865C10.6214 57.0194 11.4799 57.375 12.375 57.375H14.625C14.9234 57.375 15.2095 57.4935 15.4205 57.7045C15.6315 57.9155 15.75 58.2016 15.75 58.5C15.75 58.7984 15.6315 59.0845 15.4205 59.2955C15.2095 59.5065 14.9234 59.625 14.625 59.625H10.125C9.82663 59.625 9.54048 59.7435 9.32951 59.9545C9.11853 60.1655 9 60.4516 9 60.75C9 61.0484 9.11853 61.3345 9.32951 61.5455C9.54048 61.7565 9.82663 61.875 10.125 61.875H12.375V63C12.375 63.2984 12.4935 63.5845 12.7045 63.7955C12.9155 64.0065 13.2016 64.125 13.5 64.125C13.7984 64.125 14.0845 64.0065 14.2955 63.7955C14.5065 63.5845 14.625 63.2984 14.625 63V61.875C15.5201 61.875 16.3786 61.5194 17.0115 60.8865C17.6444 60.2535 18 59.3951 18 58.5C18 57.6049 17.6444 56.7465 17.0115 56.1135C16.3786 55.4806 15.5201 55.125 14.625 55.125H12.375C12.0766 55.125 11.7905 55.0065 11.5795 54.7955C11.3685 54.5845 11.25 54.2984 11.25 54C11.25 53.7016 11.3685 53.4155 11.5795 53.2045C11.7905 52.9935 12.0766 52.875 12.375 52.875Z" fill="#FEBE09"/>
<path d="M64.9912 44.82L67.05 39.0375C67.1048 38.8878 67.1271 38.7281 67.1154 38.569C67.1038 38.41 67.0585 38.2552 66.9825 38.115C66.9061 37.977 66.8015 37.8566 66.6755 37.7616C66.5495 37.6667 66.405 37.5992 66.2513 37.5638L62.6625 36.7313L63 33.8738C63.0192 33.7167 63.0051 33.5574 62.9586 33.4062C62.9121 33.255 62.8342 33.1153 62.73 32.9963C62.6223 32.8769 62.4902 32.782 62.3428 32.7179C62.1953 32.6539 62.0358 32.6222 61.875 32.625H58.1512C56.659 28.6576 53.9921 25.2397 50.5065 22.8275C47.0209 20.4154 42.8826 19.1237 38.6437 19.125H33.3562C29.1163 19.119 24.9758 20.4087 21.4893 22.8215C18.0029 25.2343 15.337 28.6549 13.8488 32.625H10.125C9.96612 32.6238 9.80878 32.6563 9.66335 32.7203C9.51792 32.7842 9.3877 32.8783 9.28125 32.9963C9.17708 33.1153 9.09919 33.255 9.05266 33.4062C9.00614 33.5574 8.99203 33.7167 9.01125 33.8738L9.34875 36.81L6.13125 37.5638C5.97752 37.5992 5.83298 37.6667 5.707 37.7616C5.58102 37.8566 5.47642 37.977 5.4 38.115C5.32401 38.2552 5.27869 38.41 5.26706 38.569C5.25542 38.7281 5.27773 38.8878 5.3325 39.0375L7.32375 44.6063C5.76618 45.6293 4.48715 47.0233 3.60156 48.6629C2.71596 50.3026 2.25153 52.1365 2.25 54V64.9125C2.25297 66.1946 2.76359 67.4233 3.67015 68.3299C4.57672 69.2364 5.80543 69.7471 7.0875 69.75H19.9125C21.1946 69.7471 22.4233 69.2364 23.3298 68.3299C24.2364 67.4233 24.747 66.1946 24.75 64.9125V54C24.7487 52.2008 24.3158 50.4282 23.4878 48.8309C22.6598 47.2336 21.4607 45.8581 19.9913 44.82L22.05 39.0375C22.1048 38.8878 22.1271 38.7281 22.1154 38.569C22.1038 38.41 22.0585 38.2552 21.9825 38.115C21.9061 37.977 21.8015 37.8566 21.6755 37.7616C21.5495 37.6667 21.405 37.5992 21.2512 37.5638L19.3388 37.1138L26.5275 30.2963C26.5717 30.2506 26.6282 30.2189 26.6901 30.2049C26.7521 30.1909 26.8168 30.1953 26.8762 30.2175C27 30.2175 27 30.33 27 30.375V64.7438C27.0029 65.4051 27.1363 66.0594 27.3925 66.6691C27.6486 67.2788 28.0225 67.832 28.4928 68.2971C28.963 68.7621 29.5204 69.1298 30.1329 69.3791C30.7455 69.6284 31.4012 69.7545 32.0625 69.75C32.8192 69.7475 33.5657 69.5754 34.2471 69.2464C34.9285 68.9174 35.5275 68.4398 36 67.8488C36.4725 68.4398 37.0715 68.9174 37.7529 69.2464C38.4343 69.5754 39.1808 69.7475 39.9375 69.75C40.5988 69.7545 41.2545 69.6284 41.8671 69.3791C42.4796 69.1298 43.037 68.7621 43.5072 68.2971C43.9775 67.832 44.3514 67.2788 44.6075 66.6691C44.8637 66.0594 44.9971 65.4051 45 64.7438V28.7438C45 28.7438 45 28.6313 45.1237 28.5863C45.1832 28.564 45.2479 28.5596 45.3099 28.5736C45.3718 28.5876 45.4283 28.6194 45.4725 28.665L52.9312 37.125L51.1313 37.5525C50.9775 37.588 50.833 37.6554 50.707 37.7504C50.581 37.8453 50.4764 37.9657 50.4 38.1038C50.324 38.244 50.2787 38.3987 50.2671 38.5578C50.2554 38.7168 50.2777 38.8765 50.3325 39.0263L52.3237 44.595C50.7646 45.6191 49.4846 47.0149 48.5989 48.6566C47.7132 50.2984 47.2497 52.1346 47.25 54V64.9125C47.253 66.1946 47.7636 67.4233 48.6702 68.3299C49.5767 69.2364 50.8054 69.7471 52.0875 69.75H64.9125C66.1946 69.7471 67.4233 69.2364 68.3298 68.3299C69.2364 67.4233 69.747 66.1946 69.75 64.9125V54C69.7487 52.2008 69.3158 50.4282 68.4878 48.8309C67.6598 47.2336 66.4607 45.8581 64.9912 44.82ZM64.5075 39.465L63 43.695C62.6325 43.5368 62.257 43.3979 61.875 43.2788L62.37 38.9813L64.5075 39.465ZM59.7038 42.84C58.9038 42.75 58.0962 42.75 57.2962 42.84L56.385 34.875H60.615L59.7038 42.84ZM38.25 21.375C38.25 21.9718 38.0129 22.5441 37.591 22.966C37.169 23.388 36.5967 23.625 36 23.625C35.4033 23.625 34.831 23.388 34.409 22.966C33.9871 22.5441 33.75 21.9718 33.75 21.375H38.25ZM33.8738 34.0763L35.3925 25.8075C35.5935 25.8417 35.7964 25.8643 36 25.875C36.2036 25.8643 36.4065 25.8417 36.6075 25.8075L38.115 34.065C38.1722 34.3665 38.1449 34.678 38.0363 34.965L36 39.0825L33.9862 35.01C33.8634 34.7151 33.8244 34.3919 33.8738 34.0763ZM15.615 34.875L14.7037 42.8175C13.9038 42.7275 13.0962 42.7275 12.2963 42.8175L11.385 34.875H15.615ZM7.875 39.465L9.6075 39.06L10.125 43.2788L9.37125 43.56L7.875 39.465ZM22.5 54V64.9125C22.5 65.2523 22.4331 65.5888 22.303 65.9027C22.173 66.2166 21.9824 66.5019 21.7421 66.7422C21.5019 66.9824 21.2166 67.173 20.9027 67.3031C20.5888 67.4331 20.2523 67.5 19.9125 67.5H7.0875C6.40125 67.5 5.74311 67.2274 5.25786 66.7422C4.77261 66.2569 4.5 65.5988 4.5 64.9125V54C4.5 51.6131 5.44821 49.3239 7.13604 47.6361C8.82387 45.9482 11.1131 45 13.5 45C15.8869 45 18.1761 45.9482 19.864 47.6361C21.5518 49.3239 22.5 51.6131 22.5 54ZM18 43.695C17.6325 43.5368 17.257 43.3979 16.875 43.2788L17.37 38.9813L19.4737 39.465L18 43.695ZM44.3475 26.4263C43.8809 26.5895 43.4765 26.8937 43.1903 27.2968C42.9041 27.6999 42.7503 28.1819 42.75 28.6763V64.7438C42.7515 65.1078 42.6784 65.4683 42.5352 65.8031C42.392 66.1378 42.1818 66.4396 41.9175 66.69C41.6585 66.9507 41.3498 67.1567 41.0097 67.2958C40.6695 67.435 40.305 67.5044 39.9375 67.5C39.1995 67.506 38.4891 67.2194 37.962 66.7028C37.4349 66.1862 37.1339 65.4818 37.125 64.7438V46.125C37.125 45.8267 37.0065 45.5405 36.7955 45.3295C36.5845 45.1185 36.2984 45 36 45C35.7016 45 35.4155 45.1185 35.2045 45.3295C34.9935 45.5405 34.875 45.8267 34.875 46.125V64.7438C34.8661 65.4818 34.5651 66.1862 34.038 66.7028C33.5109 67.2194 32.8005 67.506 32.0625 67.5C31.6925 67.5038 31.3254 67.4331 30.9833 67.292C30.6412 67.1509 30.331 66.9423 30.0712 66.6788C29.8099 66.4291 29.6022 66.1287 29.461 65.796C29.3198 65.4633 29.248 65.1052 29.25 64.7438V30.375C29.2497 29.8807 29.0959 29.3986 28.8097 28.9955C28.5235 28.5924 28.1191 28.2882 27.6525 28.125C27.184 27.9463 26.673 27.9108 26.1843 28.023C25.6956 28.1352 25.2512 28.3899 24.9075 28.755L17.8088 35.505L18 33.8738C18.0192 33.7167 18.0051 33.5574 17.9586 33.4062C17.9121 33.255 17.8342 33.1153 17.73 32.9963C17.6223 32.8769 17.4902 32.782 17.3428 32.7179C17.1953 32.6539 17.0358 32.6222 16.875 32.625H16.2675C17.5735 29.5715 19.6766 26.9254 22.3565 24.964C25.0364 23.0025 28.1946 21.7979 31.5 21.4763C31.5095 22.1493 31.6725 22.8113 31.9766 23.4118C32.2808 24.0123 32.718 24.5354 33.255 24.9413L31.6575 33.75C31.5332 34.5115 31.6308 35.2926 31.9387 36L34.9875 42.165C35.0796 42.3552 35.2235 42.5156 35.4025 42.6279C35.5816 42.7401 35.7887 42.7996 36 42.7996C36.2113 42.7996 36.4184 42.7401 36.5975 42.6279C36.7765 42.5156 36.9204 42.3552 37.0125 42.165L40.0838 35.955C40.3834 35.2451 40.4694 34.4631 40.3312 33.705L38.7337 24.975C39.2773 24.5669 39.7194 24.0389 40.0257 23.4321C40.3321 22.8252 40.4944 22.156 40.5 21.4763C43.8056 21.8018 46.9635 23.0078 49.6446 24.9686C52.3257 26.9295 54.4319 29.5734 55.7437 32.625H55.125C54.9661 32.6238 54.8088 32.6563 54.6634 32.7203C54.5179 32.7842 54.3877 32.8783 54.2812 32.9963C54.1771 33.1153 54.0992 33.255 54.0527 33.4062C54.0061 33.5574 53.992 33.7167 54.0112 33.8738L54.1463 35.1113L47.16 27.1238C46.818 26.7349 46.3655 26.4598 45.8628 26.3351C45.3602 26.2105 44.8315 26.2423 44.3475 26.4263ZM52.875 39.465L54.6075 39.06L55.125 43.2788L54.3713 43.56L52.875 39.465ZM67.5 64.9125C67.5 65.5988 67.2274 66.2569 66.7421 66.7422C66.2569 67.2274 65.5987 67.5 64.9125 67.5H52.0875C51.4013 67.5 50.7431 67.2274 50.2579 66.7422C49.7726 66.2569 49.5 65.5988 49.5 64.9125V54C49.5 51.6131 50.4482 49.3239 52.136 47.6361C53.8239 45.9482 56.1131 45 58.5 45C60.8869 45 63.1761 45.9482 64.864 47.6361C66.5518 49.3239 67.5 51.6131 67.5 54V64.9125Z" fill="#FEBE09"/>
<path d="M57.375 52.875H61.875C62.1734 52.875 62.4595 52.7565 62.6705 52.5455C62.8815 52.3345 63 52.0484 63 51.75C63 51.4516 62.8815 51.1655 62.6705 50.9545C62.4595 50.7435 62.1734 50.625 61.875 50.625H59.625V49.5C59.625 49.2016 59.5065 48.9155 59.2955 48.7045C59.0845 48.4935 58.7984 48.375 58.5 48.375C58.2016 48.375 57.9155 48.4935 57.7045 48.7045C57.4935 48.9155 57.375 49.2016 57.375 49.5V50.625C56.4799 50.625 55.6215 50.9806 54.9885 51.6135C54.3556 52.2465 54 53.1049 54 54C54 54.8951 54.3556 55.7535 54.9885 56.3865C55.6215 57.0194 56.4799 57.375 57.375 57.375H59.625C59.9234 57.375 60.2095 57.4935 60.4205 57.7045C60.6315 57.9155 60.75 58.2016 60.75 58.5C60.75 58.7984 60.6315 59.0845 60.4205 59.2955C60.2095 59.5065 59.9234 59.625 59.625 59.625H55.125C54.8266 59.625 54.5405 59.7435 54.3295 59.9545C54.1185 60.1655 54 60.4516 54 60.75C54 61.0484 54.1185 61.3345 54.3295 61.5455C54.5405 61.7565 54.8266 61.875 55.125 61.875H57.375V63C57.375 63.2984 57.4935 63.5845 57.7045 63.7955C57.9155 64.0065 58.2016 64.125 58.5 64.125C58.7984 64.125 59.0845 64.0065 59.2955 63.7955C59.5065 63.5845 59.625 63.2984 59.625 63V61.875C60.5201 61.875 61.3785 61.5194 62.0115 60.8865C62.6444 60.2535 63 59.3951 63 58.5C63 57.6049 62.6444 56.7465 62.0115 56.1135C61.3785 55.4806 60.5201 55.125 59.625 55.125H57.375C57.0766 55.125 56.7905 55.0065 56.5795 54.7955C56.3685 54.5845 56.25 54.2984 56.25 54C56.25 53.7016 56.3685 53.4155 56.5795 53.2045C56.7905 52.9935 57.0766 52.875 57.375 52.875Z" fill="#FEBE09"/>
</svg>
