<svg width="72" height="72" viewBox="0 0 72 72" fill="none" xmlns="http://www.w3.org/2000/svg">
<path d="M63.04 53.1163C62.4437 52.7969 61.7868 52.6066 61.112 52.5577C60.4373 52.5088 59.7598 52.6025 59.1237 52.8327L46.6328 57.3054C46.8412 56.5489 46.8617 55.753 46.6925 54.9868C46.5233 54.2206 46.1695 53.5074 45.6618 52.909C45.2108 52.3801 44.6507 51.9551 44.0198 51.6632C43.389 51.3714 42.7024 51.2195 42.0073 51.2181H35.0473C33.4546 51.2181 31.9164 50.6618 30.6073 49.6145C27.5746 47.1927 21.4328 43.9854 13.3928 48.4036V47.0181C13.3928 45.84 12.4328 44.8909 11.2655 44.8909H4.50185C3.32366 44.8909 2.37457 45.8509 2.37457 47.0181V67.1345C2.37457 68.3127 3.33457 69.2618 4.50185 69.2618H11.2655C12.4437 69.2618 13.3928 68.3018 13.3928 67.1345V66.2836C14.9855 66.2836 18.8037 66.5454 24.2255 68.6618C27.8146 70.069 31.5455 70.7781 35.2655 70.7781C37.3273 70.7781 39.3891 70.56 41.4182 70.1236C46.9928 68.9127 55.3055 66.4363 63.3128 61.5381C64.3928 60.8727 65.1891 59.7709 65.4837 58.5054C65.9964 56.3672 64.9928 54.1636 63.04 53.1163ZM11.4837 67.1345C11.4837 67.1924 11.4607 67.2479 11.4198 67.2888C11.3788 67.3297 11.3233 67.3527 11.2655 67.3527H4.50185C4.47319 67.3527 4.44482 67.347 4.41835 67.3361C4.39188 67.3251 4.36783 67.309 4.34757 67.2888C4.32731 67.2685 4.31124 67.2445 4.30027 67.218C4.28931 67.1915 4.28366 67.1632 4.28366 67.1345V47.0181C4.28366 46.8981 4.38185 46.8 4.50185 46.8H11.2655C11.3855 46.8 11.4837 46.8981 11.4837 47.0181V67.1345ZM63.64 58.0581C63.4655 58.8327 62.9855 59.4981 62.3309 59.9018C54.5528 64.6581 46.4473 67.0691 41.0255 68.2472C35.7237 69.4036 30.16 68.9236 24.9346 66.8836C19.3273 64.6909 15.3346 64.3636 13.48 64.3636H13.3928V50.6072C20.9418 45.949 26.6473 48.8945 29.4182 51.109C31.0764 52.429 33.0182 53.1272 35.0473 53.1272H42.0073C42.8582 53.1272 43.6546 53.4981 44.2109 54.1418C44.7673 54.7963 44.9964 55.6363 44.8546 56.4981C44.7237 57.3054 44.2109 57.9927 43.5018 58.4181C43.4473 58.44 43.4037 58.4727 43.36 58.5054C42.9018 58.7563 42.3673 58.8981 41.8109 58.8981H33.88C33.3564 58.8981 32.92 59.3236 32.92 59.8581C32.92 60.3927 33.3455 60.8181 33.88 60.8181H41.8109C42.7055 60.8181 43.5673 60.589 44.3091 60.1745L59.7673 54.6327C60.5418 54.3491 61.4037 54.4145 62.1673 54.8181C63.3346 55.429 63.9346 56.7709 63.64 58.0581Z" fill="#FEBE09"/>
<path d="M36.1273 48.6981H53.2C54.8691 48.6981 56.4291 48.1199 57.6073 47.0617C61.6655 43.3962 64 38.1708 64 32.7162C64 25.429 59.9418 18.8508 53.5491 15.5453C53.9746 14.9672 54.2255 14.2581 54.2255 13.4944C54.2255 11.6508 52.7855 10.1562 50.9855 10.0144L53.3309 2.46534C53.4618 2.0617 53.2982 1.62534 52.9491 1.38534C52.6 1.14534 52.1309 1.17806 51.8036 1.45079L49.8182 3.10897L47.8436 1.45079C47.6711 1.30548 47.4528 1.22579 47.2273 1.22579C47.0017 1.22579 46.7834 1.30548 46.6109 1.45079L44.6473 3.10897L42.6836 1.45079C42.5123 1.30299 42.2936 1.22168 42.0673 1.22168C41.841 1.22168 41.6223 1.30299 41.4509 1.45079L39.4873 3.10897L37.5236 1.45079C37.3659 1.31653 37.1687 1.23748 36.9619 1.22566C36.7551 1.21385 36.5502 1.26992 36.3782 1.38534C36.0291 1.61443 35.8655 2.0617 35.9964 2.46534L38.3418 10.0144C37.462 10.0778 36.6388 10.4719 36.0378 11.1175C35.4367 11.7631 35.1023 12.6123 35.1018 13.4944C35.1018 14.269 35.3636 14.9672 35.7782 15.5453C32.6266 17.1708 29.9839 19.6333 28.1403 22.6625C26.2966 25.6916 25.3233 29.1702 25.3273 32.7162C25.3273 38.1708 27.6509 43.3962 31.72 47.0617C32.8982 48.109 34.4582 48.6981 36.1273 48.6981ZM38.8764 5.09443C39.2364 5.39988 39.7491 5.39988 40.1091 5.09443L42.0727 3.43625L44.0364 5.09443C44.3964 5.39988 44.9091 5.39988 45.2691 5.09443L47.2327 3.43625L49.2073 5.09443C49.5673 5.39988 50.08 5.39988 50.44 5.09443L50.5273 5.01806L48.9782 9.99261H40.3382L38.8 5.02897L38.8764 5.09443ZM38.6036 11.8908H50.7127C51.5964 11.8908 52.3055 12.6108 52.3055 13.4835C52.3055 14.3562 51.5855 15.0762 50.7127 15.0762H38.6036C37.7309 15.0762 37.0109 14.3562 37.0109 13.4835C37.0109 12.6108 37.7309 11.8908 38.6036 11.8908ZM37.5673 16.8108C37.8946 16.9199 38.2436 16.9853 38.6146 16.9853H50.7236C51.0946 16.9853 51.4327 16.909 51.7709 16.8108C58.0546 19.6144 62.0909 25.8108 62.0909 32.7162C62.0909 37.6253 59.9964 42.3381 56.3309 45.6435C55.5127 46.3853 54.4 46.789 53.2 46.789H36.1273C34.9382 46.789 33.8255 46.3744 32.9964 45.6435C31.1871 44.0102 29.7399 42.0161 28.7479 39.7896C27.7558 37.5632 27.2409 35.1537 27.2364 32.7162C27.2364 25.8108 31.2836 19.6144 37.5673 16.8108Z" fill="#FEBE09"/>
<path d="M33.7164 34.1671C34.0327 34.4616 34.4255 34.8434 34.5018 35.0616C34.5782 35.3125 34.4909 35.8471 34.4036 36.3162C34.24 37.2107 34.0546 38.2253 34.6546 39.0434C35.2546 39.8725 36.28 40.0034 37.1855 40.1234C37.6327 40.1889 38.1782 40.2544 38.3855 40.4071C38.5818 40.5489 38.8218 41.0507 39.0182 41.4544C39.4109 42.2834 39.8582 43.2216 40.84 43.538C41.7891 43.8434 42.6946 43.3634 43.48 42.938C43.9055 42.7089 44.3855 42.4471 44.6691 42.4471C44.9418 42.4471 45.4327 42.7089 45.8582 42.938C46.48 43.2653 47.1564 43.6362 47.8764 43.6362C48.0836 43.6362 48.2909 43.6034 48.4982 43.538C49.48 43.2216 49.9273 42.2834 50.3309 41.4544C50.5273 41.0507 50.7564 40.5598 50.9636 40.4071C51.1709 40.2544 51.7273 40.178 52.1636 40.1234C53.0691 40.0034 54.0946 39.8616 54.6946 39.0325C55.2946 38.2143 55.1091 37.1998 54.9455 36.3053C54.8582 35.8362 54.76 35.3016 54.8473 35.0507C54.9236 34.8216 55.3164 34.4507 55.6327 34.1562C56.2655 33.5453 57.0618 32.7925 57.0618 31.7453C57.0618 30.698 56.2655 29.9453 55.6327 29.3343C55.3164 29.0398 54.9236 28.658 54.8473 28.4398C54.76 28.1889 54.8582 27.6544 54.9455 27.1853C55.1091 26.2907 55.2946 25.2762 54.6946 24.458C54.0946 23.6289 53.0691 23.498 52.1636 23.378C51.7164 23.3234 51.1709 23.2471 50.9636 23.0944C50.7673 22.9525 50.5273 22.4507 50.3309 22.0471C49.9382 21.218 49.4909 20.2798 48.5091 19.9634C47.56 19.658 46.6655 20.138 45.8691 20.5634C45.4436 20.7925 44.9636 21.0543 44.68 21.0543C44.4073 21.0543 43.9164 20.7925 43.4909 20.5634C42.6946 20.138 41.8 19.658 40.8509 19.9634C39.8691 20.2798 39.4218 21.218 39.0182 22.0471C38.8218 22.4507 38.5927 22.9416 38.3855 23.0944C38.1782 23.2471 37.6218 23.3234 37.1855 23.378C36.28 23.498 35.2546 23.6398 34.6546 24.458C34.0546 25.2762 34.24 26.2907 34.4036 27.1853C34.4909 27.6544 34.5891 28.1889 34.5018 28.4398C34.4255 28.6689 34.0327 29.0398 33.7164 29.3343C33.0836 29.9453 32.2873 30.698 32.2873 31.7453C32.2764 32.8144 33.0727 33.5671 33.7164 34.1671ZM35.0255 30.7416C35.5491 30.2507 36.0836 29.738 36.3127 29.0507C36.5418 28.3416 36.4 27.5562 36.28 26.8689C36.2146 26.4871 36.0836 25.7671 36.1927 25.6034C36.3127 25.4398 37.0109 25.3416 37.4364 25.2871C38.1673 25.1889 38.9091 25.0907 39.5091 24.6544C40.0982 24.2289 40.4255 23.5525 40.7418 22.8871C40.9273 22.5053 41.2327 21.8616 41.44 21.7962C41.6146 21.7416 42.2691 22.0907 42.5855 22.2653C43.2073 22.6034 43.9164 22.9853 44.68 22.9853C45.4436 22.9853 46.1418 22.6034 46.7746 22.2653C47.0909 22.0907 47.7455 21.7416 47.92 21.7962C48.1273 21.8616 48.4327 22.5053 48.6182 22.8871C48.9346 23.5416 49.2509 24.218 49.8509 24.6544C50.4509 25.0907 51.2364 25.1998 51.9236 25.2871C52.3382 25.3416 53.0473 25.4398 53.1673 25.6034C53.2873 25.7671 53.1564 26.4762 53.08 26.8689C52.9491 27.5562 52.8073 28.3416 53.0473 29.0507C53.2655 29.738 53.8109 30.2507 54.3236 30.7416C54.6618 31.058 55.1636 31.538 55.1636 31.7671C55.1636 31.9962 54.6618 32.4762 54.3236 32.7925C53.8 33.2834 53.2655 33.7962 53.0473 34.4834C52.8182 35.1925 52.96 35.978 53.08 36.6653C53.1455 37.0471 53.2764 37.7671 53.1673 37.9307C53.0473 38.0944 52.3491 38.1925 51.9236 38.2471C51.2364 38.3344 50.4509 38.4434 49.8509 38.8798C49.2618 39.3053 48.9346 39.9816 48.6182 40.6471C48.4327 41.0289 48.1273 41.6725 47.92 41.738C47.7455 41.7925 47.0909 41.4434 46.7746 41.2689C46.1527 40.9307 45.4436 40.5489 44.68 40.5489C43.9164 40.5489 43.2182 40.9307 42.5855 41.2689C42.2691 41.4434 41.6036 41.7925 41.44 41.738C41.2327 41.6725 40.9273 41.0289 40.7418 40.6471C40.4255 39.9925 40.1091 39.3162 39.5091 38.8798C38.9091 38.4434 38.1236 38.3453 37.4364 38.2471C37.0109 38.1816 36.3018 38.0834 36.1818 37.9198C36.0618 37.7562 36.1927 37.0471 36.2691 36.6543C36.3891 35.9671 36.5309 35.1816 36.3018 34.4725C36.0836 33.7853 35.5382 33.2725 35.0255 32.7816C34.6873 32.4653 34.1855 31.9853 34.1855 31.7562C34.1855 31.5271 34.6873 31.058 35.0255 30.7416Z" fill="#FEBE09"/>
<path d="M40.7855 31.7454C42.3782 31.7454 43.6764 30.4472 43.6764 28.8545C43.6764 27.2618 42.3782 25.9636 40.7855 25.9636C39.1928 25.9636 37.8946 27.2618 37.8946 28.8545C37.8946 30.4472 39.1928 31.7454 40.7855 31.7454ZM40.7855 27.8836C41.331 27.8836 41.7673 28.3199 41.7673 28.8654C41.7673 29.4109 41.331 29.8472 40.7855 29.8472C40.24 29.8472 39.8037 29.4109 39.8037 28.8654C39.8037 28.3199 40.251 27.8836 40.7855 27.8836ZM45.64 34.669C45.64 36.2618 46.9382 37.5599 48.531 37.5599C50.1237 37.5599 51.4219 36.2618 51.4219 34.669C51.4219 33.0763 50.1237 31.7781 48.531 31.7781C46.9382 31.7781 45.64 33.0763 45.64 34.669ZM49.5128 34.669C49.5128 35.2145 49.0764 35.6509 48.531 35.6509C47.9855 35.6509 47.5491 35.2145 47.5491 34.669C47.5491 34.1236 47.9855 33.6872 48.531 33.6872C49.0764 33.6872 49.5128 34.1236 49.5128 34.669ZM40.6219 37.8872C40.7855 37.9963 40.971 38.0399 41.1455 38.0399C41.451 38.0399 41.7564 37.8872 41.9419 37.6145L48.9673 26.9563C49.2619 26.5199 49.131 25.9199 48.6946 25.6363C48.5902 25.567 48.4731 25.5191 48.35 25.4953C48.227 25.4715 48.1005 25.4723 47.9778 25.4977C47.8551 25.523 47.7386 25.5724 47.635 25.643C47.5315 25.7136 47.443 25.804 47.3746 25.909L40.3491 36.5672C40.0655 37.0036 40.1855 37.5927 40.6219 37.8872Z" fill="#FEBE09"/>
</svg>
