<svg width="73" height="72" viewBox="0 0 73 72" fill="none" xmlns="http://www.w3.org/2000/svg">
<g clip-path="url(#clip0_7073_877)">
<path fill-rule="evenodd" clip-rule="evenodd" d="M38.2313 41.851L37.8453 39.4745H35.6552L35.2596 41.9128C35.2298 42.097 35.1481 42.269 35.0241 42.4085C34.9 42.5479 34.7388 42.6492 34.5593 42.7003V42.7018C34.2678 42.7847 33.9814 42.8843 33.7015 43.0002C33.4195 43.1167 33.1444 43.2493 32.8776 43.3974C32.7096 43.4908 32.5179 43.5328 32.3262 43.5182C32.1346 43.5036 31.9514 43.4331 31.7995 43.3154L29.8226 41.8911L28.2725 43.4411L29.7173 45.4464C29.8261 45.5975 29.8897 45.7764 29.9005 45.9623C29.9114 46.1482 29.8691 46.3333 29.7786 46.496C29.6308 46.7628 29.4984 47.0377 29.3819 47.3195C29.2659 47.5998 29.1662 47.8865 29.0834 48.1782C29.0293 48.3682 28.9193 48.5375 28.7676 48.6641C28.616 48.7907 28.4299 48.8688 28.2333 48.8882L25.8567 49.2742V51.4642L28.2947 51.8603C28.4788 51.8903 28.6506 51.972 28.79 52.0961C28.9293 52.2201 29.0304 52.3812 29.0815 52.5606H29.0831C29.1659 52.8521 29.2655 53.1385 29.3815 53.4184C29.4979 53.7004 29.6305 53.9755 29.7786 54.2422C29.872 54.4102 29.9141 54.6019 29.8995 54.7936C29.8849 54.9853 29.8144 55.1685 29.6966 55.3204L28.2724 57.2973L29.8223 58.8473L31.8277 57.4025C31.9787 57.2937 32.1577 57.2302 32.3436 57.2193C32.5294 57.2085 32.7145 57.2507 32.8773 57.3412C33.144 57.489 33.419 57.6214 33.7008 57.7379C33.981 57.8538 34.2677 57.9536 34.5594 58.0366C34.7494 58.0907 34.9187 58.2007 35.0453 58.3523C35.1719 58.5039 35.2499 58.6901 35.2693 58.8866L35.6553 61.2632H37.8454L38.2409 58.8235C38.2708 58.6394 38.3526 58.4676 38.4766 58.3283C38.6006 58.189 38.7618 58.0879 38.9412 58.0368V58.0353C39.2326 57.9524 39.519 57.8528 39.799 57.7369C40.0809 57.6203 40.356 57.4877 40.6228 57.3398C40.7907 57.2464 40.9824 57.2043 41.1741 57.2189C41.3657 57.2334 41.5489 57.3039 41.7008 57.4216L43.6778 58.846L45.2278 57.296L43.783 55.2907C43.6742 55.1396 43.6107 54.9607 43.5999 54.7748C43.589 54.589 43.6313 54.4038 43.7217 54.2411C43.8695 53.9743 44.0019 53.6994 44.1184 53.4176C44.2344 53.1373 44.3341 52.8506 44.4171 52.5588C44.4712 52.3688 44.5812 52.1996 44.7328 52.073C44.8844 51.9464 45.0706 51.8683 45.2672 51.8489L47.6437 51.4629V49.2735L45.2057 48.8774C45.0215 48.8475 44.8496 48.7658 44.7101 48.6418C44.5706 48.5178 44.4694 48.3566 44.4182 48.1771H44.4168C44.2501 47.5916 44.0166 47.0272 43.7212 46.4949C43.6278 46.3269 43.5858 46.1352 43.6003 45.9436C43.6149 45.7519 43.6854 45.5688 43.8031 45.4169L45.2275 43.44L43.6774 41.8899L41.6722 43.3348C41.5212 43.4436 41.3422 43.5071 41.1563 43.518C40.9705 43.5288 40.7854 43.4865 40.6226 43.3961C40.3557 43.2482 40.0807 43.1157 39.7987 42.9991C39.5187 42.8832 39.2323 42.7836 38.9409 42.7007C38.7509 42.6466 38.5817 42.5366 38.4551 42.385C38.3285 42.2334 38.2504 42.0472 38.231 41.8506L38.2313 41.851ZM36.7502 44.0736C38.2067 44.0735 39.6182 44.5784 40.7442 45.5023C41.8701 46.4262 42.6409 47.7119 42.9251 49.1404C43.2094 50.5689 42.9895 52.0517 42.303 53.3363C41.6165 54.6208 40.5058 55.6276 39.1602 56.185C37.8146 56.7425 36.3174 56.8161 34.9236 56.3933C33.5298 55.9706 32.3257 55.0776 31.5165 53.8666C30.7073 52.6556 30.343 51.2015 30.4858 49.752C30.6285 48.3025 31.2694 46.9474 32.2993 45.9175C32.8832 45.3321 33.5769 44.8678 34.3408 44.5514C35.1046 44.235 35.9234 44.0726 36.7502 44.0736ZM39.8092 47.3094C40.5171 48.0171 40.9577 48.9484 41.056 49.9446C41.1542 50.9408 40.9039 51.9402 40.3479 52.7726C39.7918 53.6049 38.9643 54.2187 38.0065 54.5093C37.0486 54.8 36.0195 54.7495 35.0947 54.3665C34.1699 53.9835 33.4065 53.2916 32.9346 52.4088C32.4627 51.526 32.3115 50.5069 32.5067 49.5252C32.702 48.5434 33.2316 47.6597 34.0054 47.0246C34.7792 46.3896 35.7492 46.0425 36.7502 46.0425C37.3184 46.0417 37.8812 46.1533 38.4062 46.3707C38.9311 46.5881 39.408 46.9071 39.8092 47.3094ZM20.3046 47.6797H3.63487C2.87012 47.6787 2.13699 47.3744 1.59623 46.8337C1.05547 46.2929 0.751235 45.5598 0.75023 44.795V37.4159C0.738828 36.0424 1.15169 34.6988 1.93243 33.5687C2.71317 32.4387 3.82373 31.5771 5.11242 31.1018L12.006 28.4862L12.0776 28.4595C10.1948 27.9015 8.57607 26.6841 7.51756 25.0301C6.45905 23.3762 6.03163 21.3963 6.31355 19.453C6.59546 17.5096 7.56785 15.7329 9.05271 14.4479C10.5376 13.1629 12.4355 12.4556 14.3992 12.4556C16.3629 12.4556 18.2609 13.1629 19.7457 14.4479C21.2306 15.7329 22.203 17.5096 22.4849 19.453C22.7668 21.3963 22.3394 23.3762 21.2809 25.0301C20.2224 26.6841 18.6036 27.9015 16.7209 28.4595L16.7924 28.4862L23.686 31.1018C24.0124 31.225 24.3293 31.3723 24.634 31.5423C24.7495 31.6069 24.8636 31.6756 24.9764 31.7483C25.1436 31.6719 25.3145 31.6006 25.4891 31.5344L33.905 28.3415C34.1707 28.2407 34.4359 28.1539 34.7006 28.0812C32.3449 27.5751 30.2596 26.2153 28.8466 24.2636C27.4335 22.312 26.7924 19.9065 27.0469 17.5105C27.3014 15.1145 28.4334 12.8973 30.2248 11.286C32.0163 9.6747 34.3406 8.7832 36.7502 8.7832C39.1597 8.7832 41.484 9.6747 43.2755 11.286C45.067 12.8973 46.199 15.1145 46.4534 17.5105C46.7079 19.9065 46.0669 22.312 44.6538 24.2636C43.2407 26.2153 41.1555 27.5751 38.7997 28.0812C39.0645 28.1538 39.3298 28.2405 39.5954 28.3413L48.0113 31.5342C48.1858 31.6005 48.3567 31.6718 48.5241 31.7481C48.6366 31.6755 48.7507 31.6068 48.8665 31.5421C49.1711 31.3721 49.4879 31.2249 49.8143 31.1017L56.708 28.486L56.7796 28.4593C54.8969 27.9013 53.2781 26.6839 52.2196 25.03C51.1611 23.376 50.7337 21.3962 51.0156 19.4528C51.2975 17.5095 52.2699 15.7327 53.7547 14.4477C55.2396 13.1627 57.1376 12.4555 59.1012 12.4555C61.0649 12.4555 62.9629 13.1627 64.4478 14.4477C65.9326 15.7327 66.905 17.5095 67.1869 19.4528C67.4688 21.3962 67.0414 23.376 65.9829 25.03C64.9244 26.6839 63.3056 27.9013 61.4229 28.4593L61.4945 28.486L68.388 31.1017C69.6767 31.577 70.7873 32.4385 71.568 33.5686C72.3488 34.6987 72.7616 36.0422 72.7502 37.4157V44.7949C72.7492 45.5596 72.445 46.2928 71.9042 46.8335C71.3635 47.3743 70.6303 47.6785 69.8656 47.6795H53.1958V48.0485C53.1946 48.9246 52.8461 49.7645 52.2266 50.384C51.6071 51.0035 50.7672 51.3521 49.8911 51.3532H49.6122V52.2985H49.6097C49.6096 52.5315 49.5267 52.757 49.3757 52.9345C49.2247 53.112 49.0155 53.2301 48.7855 53.2675L46.115 53.7012C46.0588 53.8592 45.9982 54.0161 45.9333 54.172C45.8685 54.328 45.7996 54.482 45.7269 54.6343L47.2597 56.7619C47.4214 56.9502 47.506 57.1926 47.4966 57.4405C47.4872 57.6885 47.3845 57.9238 47.2091 58.0993L44.4801 60.8284L44.4776 60.8259C44.313 60.9904 44.0952 61.0911 43.8632 61.1099C43.6312 61.1286 43.4001 61.0643 43.2111 60.9284L41.015 59.3461C40.8614 59.4195 40.7072 59.4883 40.5524 59.5526C40.3977 59.617 40.2409 59.6775 40.0821 59.7342L39.6602 62.3334C39.6386 62.5785 39.5259 62.8067 39.3444 62.9729C39.1629 63.1391 38.9257 63.2313 38.6796 63.2313H34.8206V63.2287C34.5875 63.2287 34.3621 63.1457 34.1845 62.9948C34.007 62.8438 33.889 62.6345 33.8515 62.4045L33.4174 59.7339C33.2595 59.6777 33.1026 59.617 32.9466 59.5521C32.7906 59.4871 32.6366 59.4183 32.4845 59.3458L30.3569 60.8786C30.1686 61.0403 29.9262 61.125 29.6782 61.1156C29.4302 61.1062 29.1949 61.0035 29.0194 60.828L26.2904 58.0989L26.2928 58.0965C26.1283 57.9318 26.0276 57.7141 26.0089 57.482C25.9901 57.25 26.0545 57.0189 26.1904 56.83L27.7727 54.6339C27.6991 54.4803 27.6302 54.3261 27.566 54.1712C27.5018 54.0163 27.4413 53.8595 27.3845 53.7008L24.7853 53.2789C24.5402 53.2573 24.312 53.1446 24.1459 52.9631C23.9797 52.7816 23.8875 52.5444 23.8875 52.2984V51.3531H23.6088C22.7327 51.3519 21.8928 51.0034 21.2733 50.3839C20.6538 49.7644 20.3053 48.9245 20.3041 48.0484V47.6794L20.3046 47.6797ZM49.6128 49.384V48.4388C49.6128 48.1927 49.5206 47.9555 49.3544 47.774C49.1882 47.5925 48.96 47.4798 48.7149 47.4582L46.1157 47.0363C46.0595 46.8787 45.999 46.722 45.9342 46.5661C45.8694 46.4102 45.8005 46.2559 45.7275 46.1034L47.3098 43.9073C47.4457 43.7183 47.5101 43.4872 47.4914 43.2552C47.4726 43.0232 47.372 42.8054 47.2074 42.6408L47.2098 42.6384L44.4808 39.9094C44.3053 39.7339 44.07 39.6312 43.822 39.6218C43.574 39.6124 43.3316 39.6971 43.1433 39.8588L41.0157 41.3916C40.8621 41.3181 40.7079 41.2493 40.5532 41.185C40.3984 41.1208 40.2416 41.0603 40.0828 41.0035L39.6489 38.3332C39.6115 38.1032 39.4935 37.894 39.316 37.743C39.1385 37.592 38.9131 37.509 38.68 37.509V37.5064H34.8206C34.5745 37.5064 34.3373 37.5986 34.1558 37.7648C33.9743 37.931 33.8616 38.1592 33.84 38.4043L33.4181 41.0035C33.2603 41.0597 33.1035 41.1203 32.9477 41.185C32.7919 41.2498 32.6377 41.3187 32.4852 41.3916L30.2891 39.8093C30.1001 39.6733 29.869 39.609 29.637 39.6278C29.405 39.6466 29.1872 39.7472 29.0226 39.9118L29.0201 39.9093L26.2907 42.6376C26.1152 42.8131 26.0125 43.0483 26.0031 43.2963C25.9938 43.5443 26.0784 43.7867 26.2401 43.9749L27.7729 46.1026C27.6995 46.2561 27.6306 46.4102 27.5664 46.5648C27.5022 46.7194 27.4417 46.8763 27.3847 47.0355L24.7143 47.4693C24.4843 47.5068 24.2751 47.6248 24.1241 47.8024C23.9732 47.9799 23.8903 48.2053 23.8902 48.4383H23.8877V49.3836H23.6088C23.2548 49.3826 22.9156 49.2415 22.6653 48.9912C22.415 48.7409 22.2739 48.4017 22.2729 48.0477V39.04C22.2553 37.8064 22.6221 36.5979 23.3223 35.5823C24.0226 34.5666 25.0217 33.7941 26.1809 33.3719L34.5967 30.1789C35.9797 29.6306 37.5198 29.6306 38.9028 30.1789L47.3188 33.3719C48.4779 33.7941 49.4769 34.5667 50.1772 35.5823C50.8774 36.598 51.2442 37.8064 51.2266 39.04V48.0487C51.2256 48.4027 51.0846 48.7419 50.8342 48.9923C50.5839 49.2426 50.2447 49.3836 49.8907 49.3846L49.6128 49.384ZM42.2627 13.021C40.9876 11.7458 39.3097 10.9522 37.5151 10.7754C35.7204 10.5986 33.92 11.0496 32.4205 12.0514C30.9211 13.0533 29.8154 14.5441 29.2918 16.2697C28.7683 17.9954 28.8593 19.8492 29.5493 21.5153C30.2393 23.1815 31.4857 24.5568 33.0761 25.407C34.6664 26.2571 36.5024 26.5296 38.2711 26.1779C40.0398 25.8262 41.6319 24.8721 42.776 23.4782C43.9202 22.0843 44.5456 20.3368 44.5458 18.5335C44.5472 17.5095 44.3463 16.4954 43.9545 15.5493C43.5627 14.6033 42.9877 13.744 42.2627 13.021ZM23.0617 32.9655L22.9939 32.9392L16.1003 30.3236C15.5579 30.111 14.9812 29.9995 14.3987 29.9947V29.9985C13.8164 30.0019 13.2397 30.1121 12.6972 30.3236L5.80359 32.9392C4.88799 33.2723 4.09894 33.8825 3.54612 34.6848C2.9933 35.4871 2.70419 36.4417 2.71898 37.4159V44.795C2.71991 45.0377 2.8167 45.2701 2.98826 45.4416C3.15982 45.6132 3.39225 45.71 3.63487 45.7109H20.3046V39.04C20.2952 37.4081 20.785 35.8124 21.7081 34.4667C22.0926 33.9099 22.5475 33.4053 23.0617 32.9655ZM50.4387 32.9655C50.9528 33.4054 51.4078 33.9099 51.7923 34.4667C52.7154 35.8124 53.2051 37.4081 53.1958 39.04V45.7109H69.8656C70.1082 45.71 70.3406 45.6132 70.5122 45.4416C70.6838 45.2701 70.7806 45.0377 70.7815 44.795V37.4159C70.7961 36.4416 70.5068 35.4869 69.9538 34.6846C69.4008 33.8823 68.6116 33.2723 67.6959 32.9392L60.8022 30.3236C60.2598 30.111 59.6831 29.9995 59.1006 29.9947V29.9985C58.5183 30.0019 57.9416 30.1121 57.399 30.3236L50.5053 32.9392C50.4827 32.9478 50.4602 32.9567 50.4375 32.9655H50.4387ZM63.4902 16.229C62.4748 15.2136 61.1387 14.5816 59.7096 14.4408C58.2805 14.3 56.8467 14.6591 55.6527 15.4569C54.4587 16.2547 53.5782 17.4418 53.1613 18.816C52.7444 20.1902 52.8169 21.6664 53.3664 22.9932C53.916 24.3199 54.9085 25.4151 56.175 26.092C57.4414 26.769 58.9035 26.9859 60.3119 26.7057C61.7204 26.4256 62.9881 25.6657 63.8991 24.5557C64.8101 23.4456 65.3081 22.054 65.3081 20.6179C65.3091 19.8027 65.1491 18.9953 64.8371 18.2421C64.5252 17.4889 64.0674 16.8048 63.4902 16.229ZM18.7882 16.229C17.7728 15.2136 16.4367 14.5816 15.0076 14.4408C13.5785 14.3 12.1447 14.6591 10.9507 15.4569C9.75664 16.2547 8.87616 17.4418 8.45927 18.816C8.04239 20.1902 8.11488 21.6664 8.66441 22.9932C9.21394 24.3199 10.2065 25.4151 11.473 26.092C12.7394 26.769 14.2014 26.9859 15.6099 26.7057C17.0183 26.4256 18.2861 25.6657 19.1971 24.5557C20.1081 23.4456 20.6061 22.054 20.6061 20.6179C20.6071 19.8027 20.4471 18.9953 20.1351 18.2421C19.8231 17.4889 19.3654 16.8048 18.7882 16.229Z" fill="#FEBE09"/>
</g>
<defs>
<clipPath id="clip0_7073_877">
<rect width="72" height="72" fill="white" transform="translate(0.75)"/>
</clipPath>
</defs>
</svg>
