<svg width="72" height="72" viewBox="0 0 72 72" fill="none" xmlns="http://www.w3.org/2000/svg">
<path d="M8.47737 68.3123C8.38017 68.3124 8.2839 68.2934 8.19408 68.2562C8.10425 68.2191 8.02264 68.1646 7.95391 68.0958C7.88518 68.0271 7.83068 67.9455 7.79353 67.8557C7.75638 67.7658 7.73732 67.6696 7.73743 67.5724V53.7858C7.73743 50.1546 9.28209 46.6729 12.0878 43.983C14.8495 41.3347 18.5891 39.6825 22.6177 39.3304C23.1611 39.2832 23.7062 39.2597 24.2516 39.2598H25.2831C25.516 39.2598 25.7357 39.3694 25.8752 39.5558L30.6574 45.9379L35.4401 39.5558C35.5796 39.369 35.7992 39.2598 36.0322 39.2598H37.0632C43.1796 39.2598 48.7719 42.2295 51.6586 47.0092C51.7565 47.177 51.7846 47.3766 51.7366 47.5649C51.6886 47.7532 51.5685 47.915 51.4022 48.0155C51.2359 48.116 51.0368 48.1471 50.8478 48.102C50.6588 48.0569 50.4952 47.9393 50.3921 47.7745C47.7716 43.4353 42.6647 40.7397 37.0632 40.7397H36.4026L31.2495 47.6167C31.1806 47.7086 31.0912 47.7832 30.9884 47.8345C30.8856 47.8859 30.7723 47.9126 30.6574 47.9126C30.5425 47.9126 30.4292 47.8859 30.3264 47.8345C30.2237 47.7832 30.1343 47.7086 30.0653 47.6167L24.9127 40.7392H24.2516C23.7492 40.7392 23.243 40.7612 22.7468 40.8048C15.1601 41.4676 9.21731 47.1695 9.21731 53.7858V66.8324L52.8374 66.8212C53.0337 66.8212 53.222 66.8992 53.3608 67.038C53.4996 67.1768 53.5776 67.3651 53.5776 67.5614C53.5776 67.7577 53.4996 67.9459 53.3608 68.0847C53.222 68.2235 53.0337 68.3015 52.8374 68.3015L8.47737 68.3123Z" fill="#FEBE09"/>
<path d="M25.283 40.7393C25.1859 40.7394 25.0897 40.7203 24.9999 40.6831C24.9101 40.646 24.8286 40.5915 24.7598 40.5229C24.6911 40.4542 24.6366 40.3726 24.5994 40.2829C24.5622 40.1931 24.5431 40.0969 24.5431 39.9998V35.3886C24.5431 35.1924 24.6211 35.0042 24.7598 34.8654C24.8986 34.7266 25.0868 34.6487 25.283 34.6487C25.4793 34.6487 25.6675 34.7266 25.8063 34.8654C25.945 35.0042 26.023 35.1924 26.023 35.3886V39.9994C26.0231 40.0966 26.004 40.1928 25.9669 40.2827C25.9297 40.3725 25.8752 40.4541 25.8065 40.5228C25.7378 40.5916 25.6562 40.6461 25.5663 40.6832C25.4765 40.7204 25.3802 40.7394 25.283 40.7393ZM36.0321 40.7393C35.935 40.7394 35.8388 40.7203 35.749 40.6831C35.6592 40.646 35.5777 40.5915 35.509 40.5229C35.4402 40.4542 35.3857 40.3726 35.3485 40.2829C35.3113 40.1931 35.2922 40.0969 35.2922 39.9998V35.3886C35.2922 35.1924 35.3702 35.0042 35.5089 34.8654C35.6477 34.7266 35.8359 34.6487 36.0321 34.6487C36.2284 34.6487 36.4166 34.7266 36.5554 34.8654C36.6941 35.0042 36.7721 35.1924 36.7721 35.3886V39.9994C36.7721 40.4084 36.4407 40.7393 36.0321 40.7393Z" fill="#FEBE09"/>
<path d="M30.6582 37.601C27.3397 37.601 24.2495 36.1851 21.9579 33.6135C19.4125 30.7571 18.0671 26.707 18.0671 21.9011C18.0671 21.7048 18.1451 21.5166 18.2839 21.3779C18.4226 21.2391 18.6108 21.1611 18.8071 21.1611C19.0033 21.1611 19.1915 21.2391 19.3303 21.3779C19.4691 21.5166 19.547 21.7048 19.547 21.9011C19.547 31.6715 25.3067 36.1215 30.6582 36.1215C36.0097 36.1215 41.7694 31.6715 41.7694 21.9011C41.7694 21.7048 41.8474 21.5166 41.9861 21.3779C42.1249 21.2391 42.3131 21.1611 42.5094 21.1611C42.7056 21.1611 42.8938 21.2391 43.0326 21.3779C43.1713 21.5166 43.2493 21.7048 43.2493 21.9011C43.2493 26.707 41.904 30.7571 39.3582 33.6135C37.0661 36.1851 33.9768 37.6014 30.6582 37.601Z" fill="#FEBE09"/>
<path d="M31.1599 5.17799C27.9119 5.17799 24.6125 6.13137 22.1659 8.0161C18.4695 10.8638 17.3795 15.2112 19.0351 20.3543C19.0646 20.1841 19.092 20.0113 19.1165 19.8556C19.4084 18.0016 19.8502 15.2 22.7838 14.2359C24.6648 13.6176 26.5122 13.5516 28.2989 13.4872C30.6769 13.4021 32.9229 13.3215 35.23 12.0156C36.1966 11.4688 37.1197 11.3596 37.9738 11.6901C40.0201 12.4832 41.0511 15.6348 41.9613 18.4152C42.1187 18.8956 42.2727 19.3661 42.4247 19.8025C43.9141 14.524 42.8254 10.2384 39.2789 7.60959C37.0848 5.98313 34.1441 5.17799 31.1599 5.17799ZM18.9533 22.6568C18.8619 22.6568 18.7643 22.6476 18.6601 22.6265C18.5398 22.6021 18.4274 22.5481 18.3331 22.4695C18.2387 22.3908 18.1655 22.29 18.1199 22.1759C16.7912 18.8478 16.4619 15.7714 17.1412 13.0317C17.7454 10.5955 19.1704 8.45583 21.2628 6.84432C23.7833 4.90269 27.1383 3.78406 30.7106 3.69395C34.3102 3.60426 37.6649 4.57175 40.1604 6.4212C42.2466 7.96752 43.6579 10.1035 44.2417 12.5978C44.8949 15.3894 44.5449 18.6078 43.2016 22.1631C43.152 22.2944 43.0661 22.409 42.9538 22.4934C42.8415 22.5777 42.7076 22.6284 42.5676 22.6395C42.4276 22.6505 42.2873 22.6215 42.1632 22.5558C42.0391 22.4901 41.9362 22.3905 41.8666 22.2685C41.3945 21.4418 40.9863 20.1957 40.5545 18.8761C39.7871 16.53 38.8313 13.6101 37.439 13.0703C37.013 12.905 36.5284 12.9814 35.9591 13.3041C33.3373 14.7877 30.8032 14.8786 28.3521 14.9667C26.5906 15.0298 24.9272 15.0896 23.2464 15.6423C21.1714 16.3241 20.8422 18.4102 20.5781 20.0865C20.4083 21.1632 20.2745 22.014 19.6658 22.4367C19.5101 22.5447 19.2718 22.6568 18.9533 22.6568ZM15.9773 68.3124C15.8801 68.3124 15.7839 68.2932 15.6941 68.2561C15.6044 68.2189 15.5228 68.1644 15.4541 68.0956C15.3854 68.0269 15.3309 67.9454 15.2937 67.8556C15.2565 67.7658 15.2374 67.6696 15.2374 67.5724V55.6029C15.2374 55.4067 15.3153 55.2185 15.4541 55.0797C15.5929 54.941 15.7811 54.863 15.9773 54.863C16.1736 54.863 16.3618 54.941 16.5005 55.0797C16.6393 55.2185 16.7173 55.4067 16.7173 55.6029V67.5724C16.7173 67.981 16.3859 68.3124 15.9773 68.3124ZM28.4683 68.2958C28.3208 68.2957 28.1766 68.2516 28.0543 68.169C27.932 68.0864 27.8371 67.9692 27.7819 67.8324L19.3486 46.9009C19.2971 46.7734 19.2821 46.634 19.3054 46.4985C19.3288 46.3629 19.3894 46.2366 19.4806 46.1336C19.5718 46.0306 19.6899 45.9551 19.8217 45.9156C19.9534 45.8761 20.0936 45.874 20.2264 45.9098L22.7518 46.5866L24.568 39.8079C24.6189 39.6184 24.7429 39.4567 24.9129 39.3586C25.0829 39.2605 25.2849 39.2339 25.4745 39.2847C25.6641 39.3356 25.8257 39.4596 25.9238 39.6296C26.0219 39.7996 26.0485 40.0016 25.9977 40.1912L23.99 47.6841C23.9649 47.7779 23.9215 47.8659 23.8623 47.943C23.8032 48.0201 23.7294 48.0848 23.6452 48.1334C23.561 48.182 23.4681 48.2135 23.3717 48.2262C23.2754 48.2389 23.1775 48.2324 23.0836 48.2072L21.2753 47.7227L29.1547 67.2789C29.1999 67.3912 29.2169 67.5128 29.2042 67.6332C29.1915 67.7536 29.1494 67.8691 29.0817 67.9694C29.014 68.0698 28.9227 68.152 28.8159 68.2089C28.709 68.2658 28.5894 68.2956 28.4683 68.2958ZM32.8465 68.2958C32.7255 68.2956 32.6064 68.2658 32.4996 68.2089C32.3927 68.152 32.3015 68.0699 32.2338 67.9695C32.1661 67.8692 32.124 67.7539 32.1113 67.6335C32.0985 67.5132 32.1154 67.3916 32.1606 67.2793L40.0396 47.7227L38.2313 48.2072C38.0417 48.258 37.8398 48.2314 37.6699 48.1333C37.5 48.0351 37.376 47.8736 37.3252 47.6841L35.3172 40.1908C35.2664 40.0012 35.293 39.7992 35.3912 39.6293C35.4893 39.4593 35.651 39.3353 35.8406 39.2845C36.0301 39.2338 36.2321 39.2604 36.4021 39.3585C36.572 39.4567 36.696 39.6184 36.7468 39.8079L38.563 46.5862L41.0885 45.9094C41.2213 45.8739 41.3614 45.8761 41.493 45.9158C41.6246 45.9555 41.7426 46.031 41.8337 46.1339C41.9249 46.2369 41.9855 46.3631 42.0089 46.4986C42.0323 46.6341 42.0176 46.7734 41.9663 46.9009L33.5329 67.8319C33.4777 67.9688 33.3829 68.0861 33.2606 68.1688C33.1383 68.2514 32.9941 68.2956 32.8465 68.2958Z" fill="#FEBE09"/>
<path d="M30.6574 68.3124C30.4858 68.3124 30.3194 68.2527 30.1869 68.1435C30.0545 68.0344 29.964 67.8825 29.9312 67.7141L24.5568 40.1406C24.5212 39.9487 24.5627 39.7506 24.6725 39.5892C24.7822 39.4279 24.9512 39.3164 25.1427 39.279C25.3342 39.2417 25.5328 39.2815 25.6951 39.3898C25.8574 39.4981 25.9703 39.6662 26.0093 39.8574L30.6574 63.7042L35.306 39.8574C35.3238 39.7613 35.3605 39.6697 35.414 39.5879C35.4674 39.5061 35.5365 39.4357 35.6173 39.3808C35.6981 39.3258 35.789 39.2874 35.8847 39.2678C35.9805 39.2481 36.0791 39.2477 36.175 39.2664C36.2709 39.2851 36.3622 39.3226 36.4435 39.3767C36.5249 39.4309 36.5947 39.5006 36.6489 39.5819C36.7031 39.6632 36.7408 39.7544 36.7596 39.8503C36.7784 39.9462 36.778 40.0448 36.7584 40.1406L31.3841 67.7132C31.3513 67.8819 31.2609 68.0338 31.1283 68.1431C30.9957 68.2523 30.8292 68.3121 30.6574 68.312V68.3124ZM53.3046 63.2569C51.473 63.2569 49.9828 61.7671 49.9828 59.9355C49.9828 59.7393 50.0607 59.5511 50.1995 59.4123C50.3382 59.2735 50.5264 59.1956 50.7227 59.1956C50.9189 59.1956 51.1071 59.2735 51.2459 59.4123C51.3847 59.5511 51.4626 59.7393 51.4626 59.9355C51.4631 60.4239 51.6573 60.8921 52.0026 61.2375C52.348 61.5828 52.8162 61.777 53.3046 61.7775C53.7929 61.7769 54.2611 61.5827 54.6063 61.2373C54.9516 60.892 55.1457 60.4238 55.1462 59.9355C55.1462 58.6088 54.5291 58.4062 53.1331 58.074C51.804 57.7572 49.9832 57.3237 49.9832 54.7725C49.9832 52.9409 51.473 51.4507 53.3046 51.4507C55.1358 51.4507 56.6265 52.9413 56.6265 54.7725C56.6265 54.9688 56.5485 55.1571 56.4097 55.2959C56.2709 55.4347 56.0826 55.5127 55.8863 55.5127C55.69 55.5127 55.5018 55.4347 55.3629 55.2959C55.2241 55.1571 55.1462 54.9688 55.1462 54.7725C55.1456 54.2843 54.9514 53.8162 54.6062 53.4709C54.2609 53.1257 53.7929 52.9315 53.3046 52.931C52.8163 52.9314 52.3481 53.1255 52.0028 53.4708C51.6574 53.816 51.4632 54.2842 51.4626 54.7725C51.4626 56.0988 52.0801 56.3018 53.4761 56.6344C54.8053 56.9508 56.626 57.3843 56.626 59.9355C56.626 61.7671 55.1362 63.2574 53.3046 63.2569Z" fill="#FEBE09"/>
<path d="M53.3046 52.9313C53.1083 52.9313 52.9201 52.8533 52.7814 52.7146C52.6426 52.5758 52.5646 52.3876 52.5646 52.1913V51.2031C52.5646 51.0068 52.6426 50.8186 52.7814 50.6799C52.9201 50.5411 53.1083 50.4631 53.3046 50.4631C53.5008 50.4631 53.689 50.5411 53.8278 50.6799C53.9666 50.8186 54.0445 51.0068 54.0445 51.2031V52.1913C54.0445 52.5999 53.7132 52.9317 53.3046 52.9313ZM53.3046 64.2451C53.2074 64.2452 53.1112 64.2261 53.0214 64.1889C52.9317 64.1518 52.8501 64.0973 52.7814 64.0286C52.7127 63.96 52.6582 63.8784 52.621 63.7887C52.5838 63.6989 52.5646 63.6027 52.5646 63.5056V62.5173C52.5646 62.3211 52.6426 62.1329 52.7814 61.9941C52.9201 61.8553 53.1083 61.7774 53.3046 61.7774C53.5008 61.7774 53.689 61.8553 53.8278 61.9941C53.9666 62.1329 54.0445 62.3211 54.0445 62.5173V63.5056C54.0445 63.9142 53.7132 64.2455 53.3046 64.2451Z" fill="#FEBE09"/>
<path d="M53.3046 47.8764C48.0781 47.8764 43.8265 52.1284 43.8265 57.3545C43.8265 62.5806 48.0785 66.833 53.3046 66.833C58.5307 66.833 62.7831 62.581 62.7831 57.3545C62.7831 52.1284 58.5311 47.8764 53.3046 47.8764ZM53.3046 68.3128C47.2621 68.3128 42.3466 63.3969 42.3466 57.3549C42.3466 51.312 47.2621 46.3965 53.3046 46.3965C59.3471 46.3965 64.2626 51.3124 64.2626 57.3545C64.2626 63.3965 59.3471 68.3128 53.3046 68.3128Z" fill="#FEBE09"/>
</svg>
