<svg width="72" height="72" viewBox="0 0 72 72" fill="none" xmlns="http://www.w3.org/2000/svg">
<path fill-rule="evenodd" clip-rule="evenodd" d="M23.9748 4.16961C23.9748 3.80884 24.1181 3.46285 24.3732 3.20774C24.6283 2.95264 24.9743 2.80933 25.3351 2.80933H36.9724C37.3331 2.80933 37.6791 2.95264 37.9342 3.20774C38.1893 3.46285 38.3326 3.80884 38.3326 4.16961V33.7436C38.3326 34.1044 38.1893 34.4504 37.9342 34.7055C37.6791 34.9606 37.3331 35.1039 36.9724 35.1039C36.6116 35.1039 36.2656 34.9606 36.0105 34.7055C35.7554 34.4504 35.6121 34.1044 35.6121 33.7436V5.5299H26.6954V55.111H30.1274C30.4882 55.111 30.8342 55.2543 31.0893 55.5094C31.3444 55.7645 31.4877 56.1105 31.4877 56.4713C31.4877 56.8321 31.3444 57.178 31.0893 57.4332C30.8342 57.6883 30.4882 57.8316 30.1274 57.8316H3.42767C3.0669 57.8316 2.72091 57.6883 2.4658 57.4332C2.2107 57.178 2.06738 56.8321 2.06738 56.4713V29.6362C2.06738 29.2755 2.2107 28.9295 2.4658 28.6744C2.72091 28.4193 3.0669 28.2759 3.42767 28.2759H9.31567C9.67644 28.2759 10.0224 28.4193 10.2775 28.6744C10.5326 28.9295 10.676 29.2755 10.676 29.6362C10.676 29.997 10.5326 30.343 10.2775 30.5981C10.0224 30.8532 9.67644 30.9965 9.31567 30.9965H4.78796V55.111H13.0204V15.6702C13.0204 15.3094 13.1637 14.9634 13.4188 14.7083C13.6739 14.4532 14.0199 14.3099 14.3807 14.3099H20.6788C21.0396 14.3099 21.3856 14.4532 21.6407 14.7083C21.8958 14.9634 22.0391 15.3094 22.0391 15.6702C22.0391 16.0309 21.8958 16.3769 21.6407 16.632C21.3856 16.8871 21.0396 17.0304 20.6788 17.0304H15.741V55.111H23.9748V4.16961ZM40.5411 20.7365C40.5411 20.3758 40.6844 20.0298 40.9395 19.7747C41.1946 19.5196 41.5406 19.3763 41.9014 19.3763H47.9261C48.2868 19.3763 48.6328 19.5196 48.8879 19.7747C49.143 20.0298 49.2864 20.3758 49.2864 20.7365V29.6362C49.2864 29.997 49.143 30.343 48.8879 30.5981C48.6328 30.8532 48.2868 30.9965 47.9261 30.9965C47.5653 30.9965 47.2193 30.8532 46.9642 30.5981C46.7091 30.343 46.5658 29.997 46.5658 29.6362V22.0968H41.9014C41.5406 22.0968 41.1946 21.9535 40.9395 21.6984C40.6844 21.4433 40.5411 21.0973 40.5411 20.7365ZM51.1343 34.3965C42.2176 34.3965 34.9897 41.6251 34.9897 50.5418C34.9897 59.4585 42.2183 66.6864 51.1343 66.6864C60.0503 66.6864 67.2795 59.4578 67.2795 50.5411C67.2795 41.6244 60.051 34.3965 51.1343 34.3965ZM32.2692 50.5418C32.2692 40.122 40.7152 31.676 51.1343 31.676C61.5534 31.676 70.0001 40.122 70.0001 50.5411C70.0001 60.9602 61.5534 69.4069 51.1343 69.4069C40.7152 69.4069 32.2692 60.9609 32.2692 50.5418ZM45.2803 42.7269C45.0285 42.7202 44.7778 42.7639 44.5431 42.8556C44.3085 42.9474 44.0946 43.0851 43.9141 43.2609C43.7335 43.4366 43.59 43.6468 43.4921 43.8789C43.3941 44.111 43.3436 44.3604 43.3436 44.6123C43.3436 44.8642 43.3941 45.1136 43.4921 45.3457C43.59 45.5779 43.7335 45.788 43.9141 45.9637C44.0946 46.1395 44.3085 46.2773 44.5431 46.369C44.7778 46.4607 45.0285 46.5044 45.2803 46.4977C45.7742 46.4883 46.2447 46.2855 46.5907 45.9329C46.9367 45.5803 47.1305 45.106 47.1305 44.612C47.1305 44.118 46.9367 43.6437 46.5907 43.2911C46.2447 42.9384 45.7742 42.7356 45.2803 42.7263V42.7269ZM40.6737 44.6123C40.6737 43.3906 41.159 42.219 42.0228 41.3552C42.8867 40.4913 44.0583 40.006 45.28 40.006C46.5016 40.006 47.6732 40.4913 48.5371 41.3552C49.4009 42.219 49.8862 43.3906 49.8862 44.6123C49.8862 45.834 49.4009 47.0056 48.5371 47.8694C47.6732 48.7333 46.5016 49.2186 45.28 49.2186C44.0583 49.2186 42.8867 48.7333 42.0228 47.8694C41.159 47.0056 40.6737 45.834 40.6737 44.6123ZM58.1568 40.3498C58.4511 40.5583 58.6506 40.875 58.7114 41.2305C58.7722 41.5859 58.6894 41.951 58.4812 42.2454L45.6217 60.4093C45.412 60.7006 45.0956 60.8972 44.7416 60.9562C44.3875 61.0153 44.0245 60.932 43.7316 60.7245C43.4387 60.517 43.2396 60.2022 43.1778 59.8486C43.1161 59.495 43.1965 59.1313 43.4017 58.8368L56.2605 40.6736C56.3637 40.5278 56.4947 40.4037 56.6458 40.3085C56.797 40.2133 56.9654 40.1488 57.1415 40.1186C57.3176 40.0885 57.4978 40.0934 57.6721 40.1329C57.8463 40.1725 58.011 40.2466 58.1568 40.3498ZM56.8149 54.9668C56.3147 54.9668 55.8351 55.1655 55.4815 55.5191C55.1278 55.8728 54.9292 56.3524 54.9292 56.8525C54.9292 57.3526 55.1278 57.8323 55.4815 58.1859C55.8351 58.5395 56.3147 58.7382 56.8149 58.7382C57.315 58.7382 57.7946 58.5395 58.1483 58.1859C58.5019 57.8323 58.7006 57.3526 58.7006 56.8525C58.7006 56.3524 58.5019 55.8728 58.1483 55.5191C57.7946 55.1655 57.315 54.9668 56.8149 54.9668ZM52.2082 56.8528C52.2082 55.6312 52.6936 54.4596 53.5574 53.5957C54.4212 52.7319 55.5929 52.2466 56.8145 52.2466C58.0362 52.2466 59.2078 52.7319 60.0716 53.5957C60.9355 54.4596 61.4208 55.6312 61.4208 56.8528C61.4208 58.0745 60.9355 59.2461 60.0716 60.11C59.2078 60.9738 58.0362 61.4591 56.8145 61.4591C55.5929 61.4591 54.4212 60.9738 53.5574 60.11C52.6936 59.2461 52.2082 58.0745 52.2082 56.8528Z" fill="#FEBE09"/>
</svg>
