<svg width="72" height="72" viewBox="0 0 72 72" fill="none" xmlns="http://www.w3.org/2000/svg">
<path d="M28.8403 41.5676L41.5663 28.8416L43.1571 30.4324L30.4311 43.1584L28.8403 41.5676ZM38.1159 37.5862C37.6445 38.0582 37.3236 38.6593 37.1936 39.3136C37.0636 39.9679 37.1304 40.6461 37.3856 41.2624C37.6408 41.8787 38.073 42.4056 38.6274 42.7765C39.1819 43.1474 39.8339 43.3457 40.5009 43.3462C41.168 43.3457 41.82 43.1474 42.3744 42.7765C42.9289 42.4056 43.361 41.8787 43.6162 41.2624C43.8714 40.6461 43.9383 39.9679 43.8083 39.3136C43.6783 38.6593 43.3573 38.0582 42.8859 37.5862C41.6147 36.315 39.3872 36.315 38.1159 37.5862ZM41.2997 40.77C40.8722 41.1975 40.1297 41.1975 39.7134 40.77C39.5564 40.6129 39.4497 40.4127 39.4067 40.1948C39.3637 39.9769 39.3865 39.7511 39.4721 39.5462C39.5577 39.3412 39.7023 39.1663 39.8875 39.0437C40.0726 38.9211 40.2901 38.8563 40.5122 38.8575C40.7343 38.8563 40.9517 38.9211 41.1369 39.0437C41.3221 39.1663 41.4667 39.3412 41.5523 39.5462C41.6379 39.7511 41.6606 39.9769 41.6177 40.1948C41.5747 40.4127 41.4679 40.6129 41.3109 40.77H41.2997ZM29.1159 29.6325C28.6445 30.1045 28.3236 30.7056 28.1936 31.3599C28.0636 32.0142 28.1304 32.6923 28.3856 33.3087C28.6408 33.925 29.073 34.4519 29.6274 34.8228C30.1819 35.1937 30.8339 35.3919 31.5009 35.3925C32.168 35.3919 32.82 35.1937 33.3744 34.8228C33.9289 34.4519 34.361 33.925 34.6162 33.3087C34.8714 32.6923 34.9383 32.0142 34.8083 31.3599C34.6783 30.7056 34.3573 30.1045 33.8859 29.6325C32.5697 28.3162 30.3872 28.3612 29.1159 29.6325ZM32.2997 32.8162C31.8722 33.2437 31.1297 33.2437 30.7134 32.8162C30.5564 32.6591 30.4497 32.4589 30.4067 32.241C30.3637 32.0231 30.3865 31.7973 30.4721 31.5924C30.5577 31.3875 30.7023 31.2126 30.8875 31.09C31.0726 30.9673 31.2901 30.9025 31.5122 30.9037C31.7343 30.9025 31.9517 30.9673 32.1369 31.09C32.3221 31.2126 32.4667 31.3875 32.5523 31.5924C32.6379 31.7973 32.6606 32.0231 32.6177 32.241C32.5747 32.4589 32.4679 32.6591 32.3109 32.8162H32.2997Z" fill="#FEBE09"/>
<path d="M63.0005 15.75V66.375H65.2505V16.875H69.7505C69.9644 16.8753 70.174 16.8146 70.3547 16.7001C70.5354 16.5855 70.6797 16.4218 70.7706 16.2281C70.8616 16.0344 70.8954 15.8188 70.8681 15.6066C70.8409 15.3944 70.7537 15.1944 70.6167 15.03L59.3667 1.52997C58.9392 1.01247 58.0617 1.01247 57.6342 1.52997L46.3842 15.03C46.2473 15.1944 46.1601 15.3944 46.1328 15.6066C46.1055 15.8188 46.1394 16.0344 46.2303 16.2281C46.3212 16.4218 46.4655 16.5855 46.6462 16.7001C46.8269 16.8146 47.0365 16.8753 47.2505 16.875H51.7505V36C51.7505 44.685 44.6855 51.75 36.0005 51.75C31.6355 51.75 27.428 49.9162 24.4467 46.71L22.793 48.24C26.1905 51.8962 31.0055 54 35.9892 54C45.9117 54 53.9892 45.9225 53.9892 36V15.75C53.9892 15.1312 53.483 14.625 52.8642 14.625H49.6467L58.4892 4.00497L67.3317 14.625H64.1142C63.4955 14.625 62.9892 15.1312 62.9892 15.75H63.0005Z" fill="#FEBE09"/>
<path d="M9.00183 56.25V5.625H6.75183V55.125H2.25183C2.03787 55.1247 1.82825 55.1853 1.64756 55.2999C1.46686 55.4145 1.32259 55.5782 1.23166 55.7719C1.14073 55.9655 1.10691 56.1811 1.13417 56.3933C1.16143 56.6056 1.24865 56.8056 1.38558 56.97L12.6356 70.47C12.8493 70.7288 13.1643 70.875 13.5018 70.875C13.8393 70.875 14.1543 70.7288 14.3681 70.47L25.6181 56.97C25.755 56.8056 25.8422 56.6056 25.8695 56.3933C25.8968 56.1811 25.8629 55.9655 25.772 55.7719C25.6811 55.5782 25.5368 55.4145 25.3561 55.2999C25.1754 55.1853 24.9658 55.1247 24.7518 55.125H20.2518V36C20.2518 27.315 27.3168 20.25 36.0018 20.25C40.3668 20.25 44.5743 22.0837 47.5556 25.29L49.2093 23.76C45.8118 20.1038 40.9968 18 36.0131 18C26.0906 18 18.0131 26.0775 18.0131 36V56.25C18.0131 56.8688 18.5193 57.375 19.1381 57.375H22.3556L13.5131 67.995L4.67058 57.375H7.88808C8.50683 57.375 9.01308 56.8688 9.01308 56.25H9.00183Z" fill="#FEBE09"/>
</svg>
