<svg width="56" height="59" viewBox="0 0 56 59" xmlns="http://www.w3.org/2000/svg">
<path fill-rule="evenodd" clip-rule="evenodd" d="M45.9741 27.2238C49.0825 30.9248 51.3999 34.1358 52.9261 37.0148C58.5151 47.5588 50.5642 58.2681 39.9161 58.0754C29.2679 58.2681 21.317 47.5588 26.9061 37.0148C28.4322 34.1358 30.7497 30.9248 33.858 27.2238C34.238 27.353 34.6342 27.4187 35.0327 27.4184H44.7993C45.2084 27.4184 45.6031 27.3501 45.9741 27.2238ZM6.44626 0.921875C3.76426 0.921875 1.57002 3.27957 1.57002 6.16112V44.4625C1.57002 47.3442 3.76426 49.7017 6.44626 49.7017H24.403C22.6479 45.196 23.1789 40.321 25.4151 36.1023C25.8719 35.2406 26.3729 34.3866 26.9071 33.5429C26.5982 33.3281 26.3929 32.9545 26.3929 32.531V30.9652C26.3929 30.3018 26.8964 29.7608 27.5139 29.7608H29.547C30.4557 28.5606 31.4013 27.3924 32.3475 26.2647C32.0671 25.9789 31.8274 25.6502 31.6362 25.2893H27.5139C26.8964 25.2893 26.3929 24.7483 26.3929 24.0849V22.519C26.3929 21.8556 26.8964 21.3146 27.5139 21.3146H31.5561C31.9052 20.5855 32.4439 19.981 33.1066 19.5746L31.9417 18.3231C31.2327 17.5613 30.8493 16.5789 30.7912 15.5784H8.07164C7.4542 15.5784 6.95066 15.0374 6.95066 14.374V9.6465C6.95066 8.9831 7.4542 8.44207 8.07164 8.44207H32.7335C33.351 8.44207 33.8545 8.9831 33.8545 9.6465V11.1622C34.6456 10.9672 35.4869 11.0321 36.2559 11.371C36.7759 10.0338 37.9037 9.06215 39.2352 8.81174V6.16112C39.2352 3.27957 37.0409 0.921875 34.359 0.921875H6.44626ZM35.0329 25.5747C33.8286 25.5747 32.8437 24.5162 32.8437 23.2225C32.8437 21.9289 33.8288 20.8704 35.0329 20.8704H44.7994C46.0035 20.8704 46.9886 21.9289 46.9886 23.2226C46.9886 24.5161 46.0035 25.5747 44.7994 25.5747H35.0329ZM9.10157 21.3146H13.2913C13.9087 21.3146 14.4123 21.8556 14.4123 22.519V24.0848C14.4123 24.7482 13.9087 25.2892 13.2913 25.2892H9.10157C8.48413 25.2892 7.98059 24.7482 7.98059 24.0848V22.519C7.98059 21.8556 8.48413 21.3146 9.10157 21.3146ZM18.3077 38.2069C17.6903 38.2069 17.1867 38.7479 17.1867 39.4113V40.9771C17.1867 41.6405 17.6903 42.1815 18.3077 42.1815H22.4974C23.1149 42.1815 23.6184 41.6405 23.6184 40.9771V39.4113C23.6184 38.7479 23.1149 38.2069 22.4974 38.2069H18.3077ZM9.10157 38.2069H13.2913C13.9087 38.2069 14.4123 38.7479 14.4123 39.4113V40.9771C14.4123 41.6405 13.9087 42.1815 13.2913 42.1815H9.10157C8.48413 42.1815 7.98059 41.6405 7.98059 40.9771V39.4113C7.98059 38.7479 8.48413 38.2069 9.10157 38.2069ZM18.3077 29.7607C17.6903 29.7607 17.1867 30.3017 17.1867 30.9651V32.5309C17.1867 33.1943 17.6903 33.7353 18.3077 33.7353H22.4974C23.1149 33.7353 23.6184 33.1943 23.6184 32.5309V30.9651C23.6184 30.3017 23.1149 29.7607 22.4974 29.7607H18.3077ZM9.10157 29.7607H13.2913C13.9087 29.7607 14.4123 30.3017 14.4123 30.9651V32.5309C14.4123 33.1943 13.9087 33.7353 13.2913 33.7353H9.10157C8.48413 33.7353 7.98059 33.1943 7.98059 32.5309V30.9651C7.98059 30.3018 8.48413 29.7607 9.10157 29.7607ZM18.3077 21.3146H22.4974C23.1149 21.3146 23.6184 21.8556 23.6184 22.519V24.0848C23.6184 24.7482 23.1149 25.2892 22.4974 25.2892H18.3077C17.6903 25.2892 17.1867 24.7482 17.1867 24.0848V22.519C17.1867 21.8556 17.6903 21.3146 18.3077 21.3146ZM39.8038 47.014C39.1459 46.9956 38.5072 46.8042 37.9981 46.4398C37.5374 46.1101 37.1854 45.6279 37.0383 44.9943C37.0072 44.8583 36.9514 44.7302 36.8742 44.6174C36.797 44.5046 36.6999 44.4092 36.5884 44.3367C36.4769 44.2641 36.3532 44.216 36.2243 44.1948C36.0955 44.1737 35.964 44.18 35.8374 44.2135C35.7109 44.2469 35.5917 44.3068 35.4867 44.3898C35.3816 44.4727 35.2929 44.5771 35.2254 44.6969C35.1579 44.8167 35.113 44.9496 35.0934 45.0881C35.0737 45.2265 35.0796 45.3678 35.1107 45.5037C35.3884 46.7005 36.0451 47.6053 36.9022 48.2187C37.4877 48.6377 38.1677 48.9146 38.8797 49.0495V49.8793C38.8824 50.1609 38.9884 50.43 39.1747 50.628C39.361 50.8261 39.6125 50.9372 39.8746 50.9372C40.1367 50.9372 40.3882 50.8261 40.5745 50.628C40.7608 50.43 40.8668 50.1609 40.8695 49.8793V49.0699C41.7348 48.9282 42.6164 48.5888 43.3086 48.0246C44.1404 47.3465 44.6937 46.3754 44.6649 45.0722C44.6627 44.941 44.6547 44.81 44.641 44.6796C44.4797 43.2516 43.7607 42.3221 42.8072 41.7037C41.9698 41.1603 40.9655 40.8898 40.0448 40.7274C39.3807 40.6102 38.6812 40.412 38.169 40.0527C37.772 39.7743 37.4874 39.3712 37.4607 38.7819C37.4318 38.1442 37.6909 37.6297 38.0992 37.273C38.4191 36.9937 38.827 36.7995 39.2693 36.7039C39.4492 36.6651 39.6319 36.643 39.8154 36.638C39.8588 36.6408 39.9024 36.6405 39.9458 36.6372C40.1903 36.641 40.4367 36.6747 40.6772 36.7402C41.4168 36.9416 42.0901 37.4653 42.4448 38.3728C42.6573 38.9171 43.2403 39.1731 43.7467 38.9448C44.2533 38.7166 44.4916 38.0901 44.2791 37.546C43.6547 35.9482 42.4659 35.0249 41.1591 34.6691C41.0633 34.6429 40.9667 34.62 40.8695 34.6003V33.772C40.8648 33.4918 40.7579 33.2248 40.5719 33.0284C40.3858 32.8321 40.1354 32.722 39.8746 32.722C39.6138 32.722 39.3634 32.8321 39.1773 33.0284C38.9913 33.2248 38.8844 33.4918 38.8797 33.772V34.6163C38.1258 34.7796 37.418 35.1215 36.8479 35.6195C35.9716 36.385 35.416 37.4965 35.4786 38.8823C35.5414 40.2746 36.1882 41.2086 37.0885 41.8401C37.8734 42.3906 38.8372 42.6754 39.7261 42.8322C40.44 42.9581 41.2022 43.1571 41.7813 43.5328C42.2445 43.8332 42.5924 44.2724 42.6667 44.9303C42.6766 45.018 42.6819 45.0818 42.6828 45.1224C42.6944 45.6456 42.4614 46.0442 42.1116 46.3294C41.6737 46.6864 41.0587 46.8969 40.4437 46.9771C40.2763 46.9989 40.13 47.0114 40.0061 47.0145L39.9586 47.0154C39.9307 47.0128 39.9026 47.0116 39.8746 47.0116C39.8509 47.0114 39.8273 47.0122 39.8038 47.014ZM35.0235 19.0268L33.1551 17.0193C32.2802 16.0792 32.2802 14.541 33.1551 13.601C33.8992 12.8014 35.0773 12.6663 35.9627 13.277C36.2917 13.5037 36.6694 13.5399 37.0303 13.3794C37.3912 13.2188 37.6344 12.9064 37.7178 12.496C37.9383 11.411 38.8424 10.592 39.9161 10.5918C40.9702 10.5918 41.8898 11.3902 42.1145 12.496C42.1978 12.9064 42.4411 13.2188 42.802 13.3794C43.1631 13.5402 43.5407 13.5037 43.8694 13.277C44.7393 12.677 45.9179 12.7853 46.677 13.6008V13.601C47.552 14.5411 47.552 16.0793 46.677 17.0193L44.8086 19.0268L44.7993 19.0267H35.0327L35.0235 19.0268Z"/>
</svg>
