<svg width="72" height="72" viewBox="0 0 72 72" fill="none" xmlns="http://www.w3.org/2000/svg">
<g clip-path="url(#clip0_7073_711)">
<path fill-rule="evenodd" clip-rule="evenodd" d="M27.6276 10.2336L35.0448 0.474C35.2716 0.1752 35.6244 0 36 0C36.3756 0 36.7284 0.1752 36.9552 0.474L44.3724 10.2336L56.1084 6.6972C56.2857 6.64395 56.4728 6.63227 56.6553 6.66308C56.8378 6.69388 57.0108 6.76633 57.1608 6.8748C57.3102 6.98394 57.4325 7.12599 57.5182 7.28996C57.604 7.45393 57.6508 7.63542 57.6552 7.8204L57.918 20.076L69.492 24.1128C69.6666 24.1738 69.8248 24.2744 69.9543 24.4065C70.0837 24.5387 70.181 24.6989 70.2384 24.8748C70.2953 25.051 70.3108 25.2379 70.2837 25.421C70.2567 25.6042 70.1878 25.7786 70.0824 25.9308L63.0924 36L70.0824 46.0692C70.1878 46.2214 70.2567 46.3958 70.2837 46.579C70.3108 46.7621 70.2953 46.949 70.2384 47.1252C70.181 47.3011 70.0837 47.4613 69.9543 47.5935C69.8248 47.7256 69.6666 47.8262 69.492 47.8872L57.918 51.924L57.6552 64.1796C57.6508 64.3646 57.604 64.5461 57.5182 64.71C57.4325 64.874 57.3102 65.0161 57.1608 65.1252C57.0108 65.2337 56.8378 65.3061 56.6553 65.3369C56.4728 65.3677 56.2857 65.356 56.1084 65.3028L44.3724 61.7664L36.9552 71.526C36.7284 71.8248 36.3756 72 36 72C35.6244 72 35.2716 71.8248 35.0448 71.526L27.6276 61.7664L15.8916 65.3028C15.7143 65.356 15.5271 65.3677 15.3446 65.3369C15.1621 65.3061 14.9892 65.2337 14.8392 65.1252C14.6898 65.0161 14.5675 64.874 14.4817 64.71C14.396 64.5461 14.3491 64.3646 14.3448 64.1796L14.082 51.924L2.50798 47.8872C2.33333 47.8262 2.17513 47.7256 2.04567 47.5935C1.91621 47.4613 1.81899 47.3011 1.76158 47.1252C1.7047 46.949 1.68919 46.7621 1.71624 46.579C1.7433 46.3958 1.81219 46.2214 1.91758 46.0692L8.90758 36L1.91758 25.9308C1.81219 25.7786 1.7433 25.6042 1.71624 25.421C1.68919 25.2379 1.7047 25.051 1.76158 24.8748C1.81899 24.6989 1.91621 24.5387 2.04567 24.4065C2.17513 24.2744 2.33333 24.1738 2.50798 24.1128L14.082 20.076L14.3448 7.8204C14.3491 7.63542 14.396 7.45393 14.4817 7.28996C14.5675 7.12599 14.6898 6.98394 14.8392 6.8748C14.9892 6.76633 15.1621 6.69388 15.3446 6.66308C15.5271 6.63227 15.7143 6.64395 15.8916 6.6972L27.6276 10.2336ZM36 3.1836L29.0352 12.3492C28.8872 12.5441 28.6832 12.6891 28.4505 12.7648C28.2178 12.8405 27.9675 12.8433 27.7332 12.7728L16.7112 9.4512L16.464 20.9604C16.4586 21.2051 16.3786 21.4423 16.2347 21.6402C16.0908 21.8382 15.8899 21.9874 15.6588 22.068L4.78918 25.8588L11.3544 35.316C11.4938 35.5168 11.5686 35.7555 11.5686 36C11.5686 36.2445 11.4938 36.4832 11.3544 36.684L4.78918 46.1412L15.6588 49.932C15.8899 50.0126 16.0908 50.1618 16.2347 50.3598C16.3786 50.5577 16.4586 50.7949 16.464 51.0396L16.7112 62.5488L27.7332 59.2272C28.2132 59.0832 28.7316 59.2512 29.0352 59.6508L36 68.8164L42.9648 59.6508C43.1128 59.4559 43.3168 59.3109 43.5495 59.2352C43.7822 59.1595 44.0325 59.1567 44.2668 59.2272L55.2888 62.5488L55.536 51.0396C55.5413 50.7949 55.6213 50.5577 55.7652 50.3598C55.9091 50.1618 56.1101 50.0126 56.3412 49.932L67.2108 46.1412L60.6456 36.684C60.5061 36.4832 60.4314 36.2445 60.4314 36C60.4314 35.7555 60.5061 35.5168 60.6456 35.316L67.2108 25.8588L56.3412 22.068C56.1101 21.9874 55.9091 21.8382 55.7652 21.6402C55.6213 21.4423 55.5413 21.2051 55.536 20.9604L55.2888 9.4512L44.2668 12.7728C43.7868 12.9168 43.2684 12.7488 42.9648 12.3492L36 3.1836ZM36 14.4C24.0792 14.4 14.4 24.0792 14.4 36C14.4 47.9208 24.0792 57.6 36 57.6C47.9208 57.6 57.6 47.9208 57.6 36C57.6 24.0792 47.9208 14.4 36 14.4ZM36 16.8C46.5972 16.8 55.2 25.4028 55.2 36C55.2 46.5972 46.5972 55.2 36 55.2C25.4028 55.2 16.8 46.5972 16.8 36C16.8 25.4028 25.4028 16.8 36 16.8ZM35.3112 40.8144L45.2712 28.6404C45.6912 28.128 46.4472 28.0524 46.9596 28.4712C47.472 28.8912 47.5476 29.6472 47.1288 30.1596L36.3288 43.3596C36.2227 43.4895 36.0906 43.5957 35.9409 43.6713C35.7912 43.7469 35.6274 43.7903 35.4599 43.7987C35.2924 43.8071 35.125 43.7802 34.9686 43.7199C34.8121 43.6595 34.6701 43.5671 34.5516 43.4484L27.3516 36.2484C26.8836 35.7804 26.8836 35.0196 27.3516 34.5516C27.8196 34.0836 28.5804 34.0836 29.0484 34.5516L35.3112 40.8144Z" fill="#FEBE09"/>
</g>
<defs>
<clipPath id="clip0_7073_711">
<rect width="72" height="72" fill="white"/>
</clipPath>
</defs>
</svg>
