<svg width="72" height="72" viewBox="0 0 72 72" fill="none" xmlns="http://www.w3.org/2000/svg">
<g clip-path="url(#clip0_7208_551)">
<path d="M36 31.5C35.11 31.5 34.24 31.7639 33.4999 32.2584C32.7599 32.7529 32.1831 33.4557 31.8425 34.2779C31.5019 35.1002 31.4128 36.005 31.5865 36.8779C31.7601 37.7508 32.1887 38.5526 32.818 39.182C33.4474 39.8113 34.2492 40.2399 35.1221 40.4135C35.995 40.5872 36.8998 40.4981 37.7221 40.1575C38.5443 39.8169 39.2471 39.2401 39.7416 38.5001C40.2361 37.76 40.5 36.89 40.5 36C40.4987 34.8069 40.0241 33.6631 39.1805 32.8195C38.3369 31.9759 37.1931 31.5013 36 31.5ZM36 38.25C35.555 38.25 35.12 38.118 34.75 37.8708C34.38 37.6236 34.0916 37.2722 33.9213 36.861C33.751 36.4499 33.7064 35.9975 33.7932 35.561C33.8801 35.1246 34.0943 34.7237 34.409 34.409C34.7237 34.0943 35.1246 33.88 35.561 33.7932C35.9975 33.7064 36.4499 33.751 36.861 33.9213C37.2722 34.0916 37.6236 34.38 37.8708 34.75C38.118 35.12 38.25 35.555 38.25 36C38.2493 36.5965 38.012 37.1684 37.5902 37.5902C37.1684 38.012 36.5965 38.2493 36 38.25Z" fill="#FEBE09"/>
<path d="M60.6584 11.3401C57.4262 8.07337 53.5803 5.47764 49.3417 3.70211C45.1031 1.92657 40.5554 1.00624 35.96 0.99402C31.3645 0.981796 26.812 1.87792 22.564 3.63088C18.316 5.38383 14.4563 7.95906 11.2068 11.2085C7.95736 14.458 5.38213 18.3177 3.62917 22.5657C1.87621 26.8137 0.980087 31.3662 0.992311 35.9617C1.00454 40.5571 1.92486 45.1048 3.7004 49.3434C5.47593 53.582 8.07166 57.4279 11.3384 60.6601C14.5705 63.9268 18.4164 66.5225 22.655 68.2981C26.8936 70.0736 31.4414 70.9939 36.0368 71.0062C40.6323 71.0184 45.1848 70.1223 49.4328 68.3693C53.6808 66.6163 57.5404 64.0411 60.7899 60.7916C64.0394 57.5422 66.6146 53.6825 68.3676 49.4345C70.1206 45.1865 71.0167 40.634 71.0045 36.0385C70.9922 31.4431 70.0719 26.8954 68.2964 22.6567C66.5208 18.4181 63.9251 14.5722 60.6584 11.3401ZM59.0679 59.0696C52.9495 65.188 44.6511 68.6253 35.9984 68.6253C27.3456 68.6253 19.0473 65.188 12.9289 59.0696C6.81043 52.9512 3.37314 44.6528 3.37314 36.0001C3.37314 27.3473 6.81043 19.049 12.9289 12.9306C19.0473 6.81214 27.3456 3.37485 35.9984 3.37485C44.6511 3.37485 52.9495 6.81214 59.0679 12.9306C65.1863 19.049 68.6236 27.3473 68.6236 36.0001C68.6236 44.6528 65.1863 52.9512 59.0679 59.0696Z" fill="#FEBE09"/>
<path d="M36 11.25C22.3523 11.25 11.25 22.3523 11.25 36C11.25 49.6477 22.3523 60.75 36 60.75C49.6477 60.75 60.75 49.6477 60.75 36C60.75 22.3523 49.6477 11.25 36 11.25ZM54.1097 22.6631C56.2802 25.5968 57.7005 29.0168 58.2469 32.625H46.7311C46.5339 31.9947 46.2807 31.3834 45.9745 30.7983L54.1097 22.6631ZM39.375 13.7531C42.9832 14.2995 46.4032 15.7198 49.3369 17.8903L41.2017 26.0255C40.6166 25.7193 40.0053 25.4661 39.375 25.2689V13.7531ZM32.625 13.7531V25.2689C31.9947 25.4661 31.3834 25.7193 30.7983 26.0255L22.6631 17.8903C25.5968 15.7198 29.0168 14.2995 32.625 13.7531ZM17.8903 22.6631L26.0255 30.7983C25.7193 31.3834 25.4661 31.9947 25.2689 32.625H13.7531C14.2995 29.0168 15.7198 25.5968 17.8903 22.6631ZM17.8903 49.3369C15.7198 46.4032 14.2995 42.9832 13.7531 39.375H25.2689C25.4661 40.0053 25.7193 40.6166 26.0255 41.2017L17.8903 49.3369ZM32.625 58.2469C29.0168 57.7005 25.5968 56.2802 22.6631 54.1097L30.7983 45.9745C31.3834 46.2807 31.9947 46.5339 32.625 46.7311V58.2469ZM39.375 58.2469V46.7311C40.0053 46.5339 40.6166 46.2807 41.2017 45.9745L49.3369 54.1097C46.4032 56.2802 42.9832 57.7005 39.375 58.2469ZM54.1097 49.3369L45.9745 41.2017C46.2807 40.6166 46.5339 40.0053 46.7311 39.375H58.2469C57.7005 42.9832 56.2802 46.4032 54.1097 49.3369ZM45.8705 37.125C45.6155 37.1253 45.3681 37.2121 45.1689 37.3713C44.9696 37.5304 44.8303 37.7525 44.7736 38.0011C44.5497 38.9889 44.1593 39.9315 43.6191 40.7883C43.4832 41.0043 43.4246 41.2601 43.453 41.5138C43.4814 41.7674 43.5949 42.004 43.7752 42.1847L52.6781 51.0863C52.1746 51.6433 51.6433 52.1746 51.0863 52.6781L42.1847 43.7752C42.004 43.5949 41.7674 43.4814 41.5138 43.453C41.2601 43.4246 41.0043 43.4832 40.7883 43.6191C39.9315 44.1593 38.9889 44.5497 38.0011 44.7736C37.7525 44.8303 37.5304 44.9696 37.3713 45.1689C37.2121 45.3681 37.1253 45.6155 37.125 45.8705V58.4719C36.7523 58.4902 36.3773 58.4995 36 58.5C35.6227 58.5005 35.2477 58.4911 34.875 58.4719V45.8705C34.8747 45.6155 34.7879 45.3681 34.6287 45.1689C34.4696 44.9696 34.2475 44.8303 33.9989 44.7736C33.0111 44.5497 32.0685 44.1593 31.2117 43.6191C30.9957 43.4832 30.7399 43.4246 30.4862 43.453C30.2326 43.4814 29.996 43.5949 29.8153 43.7752L20.9137 52.6781C20.3567 52.1746 19.8254 51.6433 19.3219 51.0863L28.2248 42.1847C28.4051 42.004 28.5186 41.7674 28.547 41.5138C28.5754 41.2601 28.5168 41.0043 28.3809 40.7883C27.8407 39.9315 27.4503 38.9889 27.2264 38.0011C27.1697 37.7525 27.0304 37.5304 26.8311 37.3713C26.6319 37.2121 26.3845 37.1253 26.1295 37.125H13.5281C13.5094 36.7523 13.5 36.3773 13.5 36C13.5 35.6227 13.5094 35.2477 13.5281 34.875H26.1295C26.3845 34.8747 26.6319 34.7879 26.8311 34.6287C27.0304 34.4696 27.1697 34.2475 27.2264 33.9989C27.4503 33.0111 27.8407 32.0685 28.3809 31.2117C28.5168 30.9957 28.5754 30.7399 28.547 30.4862C28.5186 30.2326 28.4051 29.996 28.2248 29.8153L19.3219 20.9137C19.8254 20.3567 20.3567 19.8254 20.9137 19.3219L29.8153 28.2248C29.996 28.4051 30.2326 28.5186 30.4862 28.547C30.7399 28.5754 30.9957 28.5168 31.2117 28.3809C32.0685 27.8407 33.0111 27.4503 33.9989 27.2264C34.2475 27.1697 34.4696 27.0304 34.6287 26.8311C34.7879 26.6319 34.8747 26.3845 34.875 26.1295V13.5281C35.2477 13.5094 35.6227 13.5 36 13.5C36.3773 13.5 36.7523 13.5094 37.125 13.5281V26.1295C37.1253 26.3845 37.2121 26.6319 37.3713 26.8311C37.5304 27.0304 37.7525 27.1697 38.0011 27.2264C38.9889 27.4503 39.9315 27.8407 40.7883 28.3809C41.0043 28.5169 41.2601 28.5754 41.5138 28.5471C41.7674 28.5187 42.004 28.4051 42.1847 28.2248L51.0863 19.3219C51.6433 19.8254 52.1746 20.3567 52.6781 20.9137L43.7752 29.8153C43.5949 29.996 43.4814 30.2326 43.453 30.4862C43.4246 30.7399 43.4832 30.9957 43.6191 31.2117C44.1593 32.0685 44.5497 33.0111 44.7736 33.9989C44.8303 34.2475 44.9696 34.4696 45.1689 34.6287C45.3681 34.7879 45.6155 34.8747 45.8705 34.875H58.4719C58.4902 35.2477 58.4995 35.6227 58.5 36C58.5005 36.3773 58.4911 36.7523 58.4719 37.125H45.8705Z" fill="#FEBE09"/>
</g>
<defs>
<clipPath id="clip0_7208_551">
<rect width="72" height="72" fill="white"/>
</clipPath>
</defs>
</svg>
