<svg width="22" height="34" viewBox="0 0 22 34" fill="none" xmlns="http://www.w3.org/2000/svg">
<path d="M1.89591 27.7597C1.40556 27.7882 0.923328 27.6252 0.55089 27.3051C-0.18363 26.5662 -0.18363 25.3728 0.55089 24.6339L16.6345 8.55029C17.3984 7.83542 18.5972 7.87516 19.3121 8.63913C19.9585 9.32998 19.9962 10.3918 19.4003 11.1267L3.22196 27.3051C2.85433 27.6206 2.37983 27.7833 1.89591 27.7597Z" fill="#FB5C41"/>
<path d="M17.9606 27.7597C17.4637 27.7576 16.9873 27.5603 16.6345 27.2104L0.550859 11.1267C-0.129636 10.332 -0.0371188 9.13609 0.75754 8.45553C1.46679 7.84816 2.5128 7.84816 3.22199 8.45553L19.4003 24.5392C20.1641 25.2542 20.2036 26.4531 19.4885 27.2169C19.4601 27.2472 19.4307 27.2766 19.4003 27.3051C19.0042 27.6496 18.4828 27.8142 17.9606 27.7597Z" fill="#FB5C41"/>
</svg>
