<svg width="32" height="32" viewBox="0 0 32 32" fill="none" xmlns="http://www.w3.org/2000/svg">
<path d="M27.9433 16.3153C28.388 16.7407 28.6667 17.3377 28.6667 18C28.6667 19.1927 27.7663 20.178 26.61 20.3153C27.0547 20.7403 27.3333 21.3377 27.3333 22C27.3333 23.1927 26.433 24.178 25.2767 24.3153C25.7213 24.7403 26 25.3377 26 26C26 27.2863 24.953 28.3333 23.6667 28.3333H21.6667H16.4993C14.5883 28.3333 12.701 27.8323 11.042 26.884L10.6667 26.6697V12.7313C11.8093 11.5117 12.7147 10.0797 13.3183 8.51067L15.0267 4.06833C15.2727 3.42933 15.898 3 16.5823 3H16.7227C17.685 3 18.5643 3.444 19.136 4.21767C19.7073 4.99167 19.873 5.96267 19.59 6.882L18.2503 11.235C18.2187 11.3373 18.2373 11.445 18.3007 11.531C18.3647 11.6173 18.4627 11.6667 18.5693 11.6667H27.6667C28.953 11.6667 30 12.7133 30 14C30 15.1927 29.0997 16.178 27.9433 16.3153ZM9.33333 12.6667V27.3333C9.33333 28.2523 8.58567 29 7.66667 29H3.66667C2.74767 29 2 28.2523 2 27.3333V12.6667C2 11.7477 2.74767 11 3.66667 11H7.66667C8.58567 11 9.33333 11.7477 9.33333 12.6667ZM7 25.3333C7 24.598 6.402 24 5.66667 24C4.93133 24 4.33333 24.598 4.33333 25.3333C4.33333 26.0687 4.93133 26.6667 5.66667 26.6667C6.402 26.6667 7 26.0687 7 25.3333Z" fill="#13B737"/>
</svg>
