<svg width="32" height="32" viewBox="0 0 32 32" fill="none" xmlns="http://www.w3.org/2000/svg">
<path d="M4.05667 15.6847C3.612 15.2593 3.33333 14.6623 3.33333 14C3.33333 12.8073 4.23367 11.822 5.39 11.6847C4.94533 11.2597 4.66667 10.6623 4.66667 10C4.66667 8.80733 5.567 7.822 6.72333 7.68467C6.27867 7.25967 6 6.66233 6 6C6 4.71367 7.047 3.66667 8.33333 3.66667H10.3333H15.5007C17.4117 3.66667 19.299 4.16767 20.958 5.116L21.3333 5.33033V19.2687C20.1907 20.4883 19.2853 21.9203 18.6817 23.4893L16.9733 27.9317C16.7273 28.5707 16.102 29 15.4177 29H15.2773C14.315 29 13.4357 28.556 12.864 27.7823C12.2927 27.0083 12.127 26.0373 12.41 25.118L13.7497 20.765C13.7813 20.6627 13.7627 20.555 13.6993 20.469C13.6353 20.3827 13.5373 20.3333 13.4307 20.3333H4.33333C3.047 20.3333 2 19.2867 2 18C2 16.8073 2.90033 15.822 4.05667 15.6847ZM22.6667 19.3333V4.66667C22.6667 3.74767 23.4143 3 24.3333 3H28.3333C29.2523 3 30 3.74767 30 4.66667V19.3333C30 20.2523 29.2523 21 28.3333 21H24.3333C23.4143 21 22.6667 20.2523 22.6667 19.3333ZM25 6.66667C25 7.402 25.598 8 26.3333 8C27.0687 8 27.6667 7.402 27.6667 6.66667C27.6667 5.93133 27.0687 5.33333 26.3333 5.33333C25.598 5.33333 25 5.93133 25 6.66667Z" fill="#FB5C41"/>
</svg>
