<?xml version="1.0" standalone="no"?>
<!DOCTYPE svg PUBLIC "-//W3C//DTD SVG 20010904//EN"
 "http://www.w3.org/TR/2001/REC-SVG-20010904/DTD/svg10.dtd">
<svg version="1.0" xmlns="http://www.w3.org/2000/svg"
 width="1105.000000pt" height="1105.000000pt" viewBox="0 0 1105.000000 1105.000000"
 preserveAspectRatio="xMidYMid meet">
<metadata>
Created by potrace 1.14, written by Peter Selinger 2001-2017
</metadata>
<g transform="translate(0.000000,1105.000000) scale(0.100000,-0.100000)"
fill="#000000" stroke="none">
<path d="M5235 11043 c-22 -1 -103 -7 -180 -13 -77 -6 -218 -22 -313 -36
-1453 -207 -2757 -980 -3641 -2159 -209 -278 -361 -526 -525 -855 -304 -610
-476 -1209 -553 -1925 -13 -121 -17 -248 -17 -525 0 -390 9 -519 60 -850 153
-1003 581 -1935 1253 -2730 133 -157 449 -475 606 -610 162 -138 387 -306 580
-432 893 -585 1945 -898 3015 -898 1079 1 2122 310 3020 897 1120 733 1935
1843 2300 3133 148 524 207 1001 197 1593 -7 424 -36 682 -123 1087 -264 1228
-972 2353 -1984 3151 -874 690 -1937 1095 -3065 1169 -137 9 -533 11 -630 3z
m-2502 -1803 c194 -38 350 -106 429 -188 26 -26 562 -731 1193 -1567 630 -836
1150 -1521 1154 -1523 4 -1 108 131 231 295 1103 1472 2096 2774 2154 2826
137 121 375 179 731 180 466 1 696 -86 806 -304 56 -112 77 -201 89 -374 13
-193 13 -5869 0 -6045 -28 -392 -150 -610 -380 -681 -134 -41 -279 -59 -488
-59 -296 0 -446 27 -618 110 -79 38 -112 61 -149 102 -79 88 -97 135 -133 338
-15 85 -17 284 -22 1935 l-5 1840 -101 -130 c-138 -177 -355 -476 -629 -865
-551 -784 -784 -1097 -873 -1173 -71 -61 -221 -150 -304 -181 -145 -55 -313
-70 -461 -42 -213 41 -434 179 -556 347 -31 42 -117 157 -192 255 -168 221
-284 381 -752 1034 -204 283 -411 570 -461 638 l-91 123 -5 -1893 c-6 -2048
-2 -1899 -55 -2048 -26 -72 -92 -175 -137 -215 -88 -76 -227 -129 -408 -157
-113 -17 -489 -17 -600 0 -110 17 -249 64 -322 108 -73 45 -127 106 -171 197
-47 95 -65 167 -77 307 -13 157 -13 6067 0 6215 12 132 29 203 74 300 73 157
200 242 433 289 198 41 507 43 696 6z"/>
</g>
</svg>
