<svg width="615" height="210" viewBox="0 0 615 210" fill="none" xmlns="http://www.w3.org/2000/svg">
<g clip-path="url(#clip0_7173_455)">
<path d="M215.703 11.4464C217.024 13.7856 217.915 16.3476 218.334 19.0083C218.662 22.2684 218.803 25.5451 218.754 28.8217V184.308C218.754 197.194 215.245 204.747 208.228 206.965C203.904 208.196 199.422 208.764 194.932 208.65C190.642 208.771 186.356 208.294 182.195 207.234C179.616 206.565 177.178 205.428 175 203.878C173.218 202.386 171.877 200.426 171.123 198.214C170.024 193.44 169.554 188.541 169.723 183.642V89.855C165.058 95.6421 158.321 104.842 149.512 117.454C140.704 130.067 135.072 137.959 132.618 141.131L127.635 147.716C125.653 149.752 123.361 151.454 120.847 152.757C117.333 154.885 113.311 155.996 109.216 155.972C105.244 156.018 101.329 155.007 97.8645 153.041C95.0934 151.593 92.6077 149.645 90.5303 147.291L88.3188 144.204C84.5864 139.55 77.2941 129.604 66.442 114.367C55.5899 99.1303 49.6833 90.9595 48.7222 89.855V184.28C48.774 187.504 48.6338 190.729 48.3023 193.937C47.8748 196.444 46.982 198.847 45.6709 201.018C42.8716 206.059 35.6726 208.58 24.0741 208.58C12.8114 208.58 5.81306 206.059 3.07905 201.018C1.74034 198.785 0.85086 196.306 0.461674 193.725C0.130013 190.375 -0.0101705 187.008 0.0417904 183.642V28.227C-0.0100246 25.0021 0.130179 21.7771 0.461674 18.5693C0.890682 15.9535 1.77699 13.436 3.07905 11.1348C5.87838 6.28237 13.082 3.85617 24.6899 3.85617C29.0454 3.76699 33.3872 4.37882 37.5529 5.66876C41.164 6.90075 43.5155 8.14688 44.5512 9.44968L46.2168 11.1348L109.062 94.6838C140.48 52.6167 161.442 24.8709 171.949 11.4464C175.084 6.4051 182.516 3.88448 194.246 3.88448C205.975 3.88448 213.127 6.4051 215.703 11.4464Z" fill="#FCBC09"/>
<path d="M372.018 12.1119C372.834 10.5397 373.953 9.14846 375.309 8.02008C376.664 6.89171 378.229 6.0489 379.912 5.5412C384.188 4.30856 388.624 3.7404 393.069 3.8561C397.358 3.74642 401.642 4.22274 405.805 5.27218C408.398 5.90295 410.842 7.04328 413 8.6283C414.718 10.1842 415.925 12.235 416.457 14.505C417.577 17.5071 418.123 22.2652 418.123 28.8075V184.294C418.164 187.576 418.005 190.858 417.647 194.121C417.2 196.683 416.314 199.147 415.029 201.4C412.445 206.451 405.241 208.976 393.418 208.976C386.224 208.976 381.241 208.414 378.47 207.291C375.724 206.195 373.331 204.353 371.556 201.966C330.051 145.908 302.748 109.307 289.647 92.1631V184.336C289.705 187.608 289.565 190.881 289.227 194.135C288.77 196.697 287.88 199.159 286.596 201.414C284.002 206.465 276.803 208.99 264.999 208.99C253.55 208.99 246.551 206.465 244.004 201.414C242.685 199.074 241.793 196.512 241.373 193.852C241.045 190.597 240.904 187.325 240.953 184.053V27.6605C240.953 20.5801 241.834 15.383 243.598 12.0835C244.414 10.5132 245.531 9.12329 246.884 7.99506C248.237 6.86684 249.799 6.02298 251.478 5.51289C255.894 4.26503 260.471 3.69695 265.055 3.82775C269.487 3.68675 273.915 4.20684 278.198 5.37128C280.694 5.99861 283.016 7.19499 284.986 8.86901C287.267 11.1485 289.395 13.5802 291.355 16.1477C330.303 69.7607 356.332 105.163 369.442 122.354V27.6605C369.386 20.5801 370.254 15.383 372.018 12.1119Z" fill="#401C5C"/>
<path d="M601.438 7.49544C610.48 13.8584 615 20.0231 615 25.9895C615 29.5297 612.878 34.4766 608.632 40.8301L548.824 131.332V184.832C548.876 188.061 548.736 191.291 548.404 194.504C547.967 197.115 547.076 199.627 545.773 201.924C544.979 203.359 543.908 204.619 542.624 205.628C541.34 206.638 539.87 207.376 538.299 207.801C529.015 210.048 519.338 210.048 510.053 207.801C508.466 207.371 506.982 206.615 505.696 205.58C504.41 204.544 503.349 203.251 502.579 201.782C501.283 199.432 500.393 196.874 499.948 194.22C499.615 190.928 499.474 187.618 499.528 184.308V131.332L439.72 40.8301C435.465 34.486 433.342 29.5392 433.352 25.9895C433.352 20.0136 437.411 14.2691 445.529 8.75577C453.647 3.24248 459.465 0.490532 462.983 0.499972C465.914 0.33352 468.822 1.11733 471.283 2.73741C474.437 4.78601 477.763 8.61414 481.262 14.2218L524.176 83.6667L567.104 14.2785C570.603 8.6708 573.65 4.97953 576.244 3.2047C578.901 1.4127 582.037 0.488442 585.23 0.556628C588.645 0.518865 594.047 2.8318 601.438 7.49544Z" fill="#FCBC09"/>
</g>
<defs>
<clipPath id="clip0_7173_455">
<rect width="615" height="209" fill="white" transform="translate(0 0.5)"/>
</clipPath>
</defs>
</svg>
